<svg width="486" height="476" viewBox="0 0 486 476" fill="none" xmlns="http://www.w3.org/2000/svg">
<path d="M303.589 226.346C303.589 226.346 290.556 66.1735 278.685 39.2702C266.813 12.367 254.19 0.768665 223.785 0C193.329 0.768665 180.74 12.3328 168.868 39.2873C156.997 66.2418 143.981 226.363 143.981 226.363L123.227 459.474C149.02 443.554 258.512 480.774 324.343 459.474L303.589 226.346Z" fill="#CBC7F7"/>
<path d="M186.035 12.6211C179.202 18.8729 174.078 27.6357 168.954 39.2681C157.099 66.2056 144.066 226.344 144.066 226.344L123.227 459.472C129.53 455.577 140.838 454.877 155.271 455.697C165.366 418.049 186.155 334.35 191.809 260.217C199.376 161.059 186.069 13.0823 186.035 12.6211Z" fill="#949AF6"/>
<path d="M259.056 465.878C282.424 466.818 305.176 465.588 324.342 459.405L303.588 226.345C303.588 226.345 290.555 66.1727 278.683 39.2695C270.142 19.9674 261.294 8.52287 245.75 3.39844C252.873 47.3831 282.373 250.413 259.056 465.878Z" fill="#949AF6"/>
<path d="M160.102 244.456L148.555 234.207C148.555 234.207 156.258 232.516 160.102 244.456Z" fill="#0A0517"/>
<path d="M169.516 219.273C169.516 219.273 168.167 200.603 172.933 196.367C172.984 196.367 172.984 213.876 169.516 219.273Z" fill="#0A0517"/>
<path d="M281.778 328.407L270.23 318.159C270.23 318.159 277.934 316.485 281.778 328.407Z" fill="#0A0517"/>
<path d="M281.782 328.408C281.782 328.408 280.432 309.738 285.198 305.502C285.249 305.502 285.249 323.027 281.782 328.408Z" fill="#0A0517"/>
<path d="M177.012 386.245L165.465 375.996C165.465 375.996 173.169 374.305 177.012 386.245Z" fill="#0A0517"/>
<path d="M177.02 386.246C177.02 386.246 175.671 367.576 180.436 363.34C180.488 363.391 180.488 380.848 177.02 386.246Z" fill="#0A0517"/>
<path d="M274.695 114.294L263.148 104.045C263.148 104.045 270.869 102.371 274.695 114.294Z" fill="#0A0517"/>
<path d="M274.692 114.293C274.692 114.293 273.359 95.6405 278.108 91.4043C278.108 91.4043 278.108 108.879 274.692 114.293Z" fill="#0A0517"/>
<path d="M210.809 59.7668L199.262 49.5179C199.262 49.5179 206.965 47.8269 210.809 59.7668Z" fill="#0A0517"/>
<path d="M210.809 59.7656C210.809 59.7656 209.46 41.0956 214.226 36.8594C214.277 36.8594 214.277 54.3679 210.809 59.7656Z" fill="#0A0517"/>
<path d="M206.246 150.812L194.699 140.563C194.699 140.563 202.403 138.872 206.246 150.812Z" fill="#0A0517"/>
<path d="M206.247 150.814C206.247 150.814 204.897 132.144 209.663 127.908C209.783 127.908 209.783 145.417 206.247 150.814Z" fill="#0A0517"/>
<path d="M206.242 150.812C206.242 150.812 214.903 144.099 220.676 141.98C216.574 145.952 211.645 148.967 206.242 150.812Z" fill="#0A0517"/>
<path d="M264.82 223.529L253.273 213.28C253.273 213.28 261.028 211.589 264.82 223.529Z" fill="#0A0517"/>
<path d="M264.813 223.527C264.813 223.527 263.48 204.857 268.229 200.621C268.28 200.621 268.28 218.198 264.813 223.527Z" fill="#0A0517"/>
<path d="M264.82 223.528C264.82 223.528 273.498 216.815 279.271 214.697C275.161 218.666 270.227 221.681 264.82 223.528Z" fill="#0A0517"/>
<path d="M191.813 311.292L180.266 301.043C180.266 301.043 187.969 299.352 191.813 311.292Z" fill="#0A0517"/>
<path d="M191.809 311.289C191.809 311.289 190.46 292.619 195.226 288.383C195.277 288.383 195.277 305.891 191.809 311.289Z" fill="#0A0517"/>
<path d="M191.809 311.292C191.809 311.292 200.469 304.579 206.242 302.461C202.137 306.427 197.209 309.442 191.809 311.292Z" fill="#0A0517"/>
<path d="M270.231 429.136L258.684 418.887C258.684 418.887 266.387 417.196 270.231 429.136Z" fill="#0A0517"/>
<path d="M270.239 429.137C270.239 429.137 268.889 410.467 273.655 406.23C273.706 406.23 273.706 423.739 270.239 429.137Z" fill="#0A0517"/>
<path d="M270.23 429.136C270.23 429.136 278.891 422.423 284.681 420.305C280.571 424.273 275.637 427.288 270.23 429.136Z" fill="#0A0517"/>
<path d="M462.868 378.256C462.868 378.256 445.051 391.418 429.469 379.973C413.888 368.529 379.724 286.204 379.724 286.204C371.475 285.771 329.645 286.219 308.668 286.479C308.323 282.947 308.119 280.935 308.119 280.935L302.798 223.87C346.569 219.656 433.147 218.999 459.302 274.898C494.741 350.769 462.868 378.256 462.868 378.256Z" fill="#CBC7F7"/>
<path d="M398.9 246.306L389.307 257.38C389.307 257.38 397.217 257.328 398.9 246.306Z" fill="#0A0517"/>
<path d="M398.898 246.308C398.898 246.308 400.736 262.672 406.131 265.411C406.248 265.388 403.28 250.272 398.898 246.308Z" fill="#0A0517"/>
<path d="M456.225 336.75L446.632 347.824C446.632 347.824 454.447 347.729 456.225 336.75Z" fill="#0A0517"/>
<path d="M456.223 336.751C456.223 336.751 458.063 353.13 463.455 355.855C463.494 355.786 460.526 340.67 456.223 336.751Z" fill="#0A0517"/>
<path d="M421.564 302.107L411.97 313.181C411.97 313.181 419.816 313.157 421.564 302.107Z" fill="#0A0517"/>
<path d="M421.567 302.108C421.567 302.108 423.408 318.487 428.803 321.226C428.853 321.216 425.885 306.1 421.567 302.108Z" fill="#0A0517"/>
<path d="M421.569 302.11C421.569 302.11 431.205 306.237 437.23 306.953C432.529 304.32 427.182 302.666 421.569 302.11Z" fill="#0A0517"/>
<path d="M330.322 259.725L320.728 270.798C320.728 270.798 328.574 270.774 330.322 259.725Z" fill="#0A0517"/>
<path d="M330.317 259.723C330.317 259.723 332.158 276.102 337.553 278.841C337.609 278.861 334.635 263.715 330.317 259.723Z" fill="#0A0517"/>
<path d="M330.327 259.725C330.327 259.725 339.963 263.852 345.988 264.569C341.289 261.93 335.942 260.276 330.327 259.725Z" fill="#0A0517"/>
<path d="M139.336 278.478C121.999 272.465 98.3408 264.437 89.9196 262.336L66.8255 130.689C66.8255 130.689 59.3267 100.66 25.83 102.966C-7.66669 105.272 1.01069 139.93 1.01069 139.93C1.01069 139.93 17.1697 287.736 31.6036 313.717C41.9549 332.353 101.33 336.726 134.092 337.716L139.336 278.478Z" fill="#CBC7F7"/>
<path d="M20.2892 139.351L8.74219 129.102C8.74219 129.102 16.4459 127.428 20.2892 139.351Z" fill="#0A0517"/>
<path d="M20.2975 139.352C20.2975 139.352 18.9481 120.682 23.7138 116.445C23.765 116.445 23.765 133.971 20.2975 139.352Z" fill="#0A0517"/>
<path d="M119.574 299.165L108.027 288.916C108.027 288.916 115.731 287.242 119.574 299.165Z" fill="#0A0517"/>
<path d="M119.579 299.166C119.579 299.166 118.229 280.496 122.995 276.26C123.046 276.277 123.046 293.785 119.579 299.166Z" fill="#0A0517"/>
<path d="M34.5236 247.921L22.9766 237.672C22.9766 237.672 30.6803 235.981 34.5236 247.921Z" fill="#0A0517"/>
<path d="M34.5241 247.922C34.5241 247.922 33.1746 229.252 37.9403 225.016C37.9916 225.033 37.9916 242.524 34.5241 247.922Z" fill="#0A0517"/>
<path d="M48.551 179.937L37.0039 169.688C37.0039 169.688 44.7076 167.997 48.551 179.937Z" fill="#0A0517"/>
<path d="M48.5475 179.934C48.5475 179.934 47.1981 161.264 51.9638 157.027C52.015 157.027 52.015 174.536 48.5475 179.934Z" fill="#0A0517"/>
<path d="M48.5469 179.935C48.5469 179.935 57.2072 173.222 62.9807 171.104C58.8751 175.07 53.9475 178.085 48.5469 179.935Z" fill="#0A0517"/>
<path d="M61.5485 313.853L49.9844 303.604C49.9844 303.604 57.7564 301.981 61.5485 313.853Z" fill="#0A0517"/>
<path d="M61.5436 313.855C61.5436 313.855 60.1942 295.185 64.9599 290.949C64.994 291.018 64.994 308.526 61.5436 313.855Z" fill="#0A0517"/>
<path d="M61.5469 313.853C61.5469 313.853 70.2072 307.14 75.9807 305.021C71.8751 308.988 66.9475 312.003 61.5469 313.853Z" fill="#0A0517"/>
<path d="M354.365 458.361C354.365 458.361 330.878 457.575 324.352 459.471C317.827 461.367 272.1 471.309 191.835 458.19C191.835 458.19 135.175 447.941 123.235 459.471C123.235 459.471 114.473 465.467 109.57 466.304C109.57 466.304 116.779 466.799 126.31 461.589C135.842 456.379 173.933 460.155 188.094 462.751C202.254 465.347 268.052 478.227 324.352 466.304C334.041 462.582 344.103 459.919 354.365 458.361Z" fill="#454FDB"/>
<path d="M351.76 466.237C332.36 464.79 312.855 465.731 293.683 469.038C262.8 474.522 192.356 460.959 192.356 460.959C192.356 460.959 149.055 453.921 129.719 466.237C129.719 466.237 174.131 460.549 194.953 466.237C215.775 471.925 255.301 478.843 294.845 474.778C334.389 470.712 341.307 466.339 351.76 466.237Z" fill="#454FDB"/>
<path d="M210.295 211.89C212.294 197.75 202.453 184.667 188.313 182.667C174.173 180.668 161.089 190.509 159.089 204.649C157.09 218.789 166.931 231.873 181.071 233.873C195.211 235.872 208.295 226.03 210.295 211.89Z" fill="white" stroke="black" stroke-width="4.70387" stroke-miterlimit="10"/>
<path d="M286.954 228.273C297.053 218.174 297.053 201.799 286.954 191.7C276.854 181.6 260.48 181.6 250.38 191.7C240.281 201.799 240.281 218.174 250.38 228.273C260.48 238.372 276.854 238.372 286.954 228.273Z" fill="white" stroke="black" stroke-width="4.70458" stroke-miterlimit="10"/>
<path d="M258.948 261.782C258.969 261.988 258.938 262.196 258.858 262.387C258.778 262.578 258.652 262.746 258.491 262.876C258.044 263.25 257.509 263.504 256.936 263.614C256.364 263.723 255.773 263.684 255.219 263.5C252.26 262.205 249.026 261.661 245.806 261.917C242.585 262.172 239.478 263.22 236.76 264.967C236.285 265.297 235.734 265.502 235.158 265.563C234.583 265.624 234.001 265.54 233.467 265.317C232.578 264.855 232.545 263.923 233.441 263.253C237.053 260.914 241.174 259.477 245.456 259.062C249.739 258.647 254.059 259.266 258.053 260.867C258.271 260.924 258.469 261.039 258.627 261.2C258.785 261.362 258.896 261.563 258.948 261.782Z" fill="#171719"/>
<path d="M203.685 223.615C210.732 216.231 210.458 204.532 203.074 197.485C195.689 190.438 183.99 190.711 176.943 198.096C169.896 205.48 170.17 217.179 177.554 224.226C184.939 231.273 196.638 231 203.685 223.615Z" fill="#171719"/>
<path d="M288.895 225.7C295.095 217.591 293.547 205.992 285.438 199.792C277.329 193.593 265.73 195.14 259.53 203.249C253.331 211.358 254.878 222.958 262.987 229.157C271.096 235.357 282.696 233.809 288.895 225.7Z" fill="#171719"/>
<path d="M289.616 183.711C286.951 181.49 284.253 179.269 281.52 177.083L277.488 173.786C276.788 173.24 276.054 172.676 275.319 172.164C274.585 171.651 273.867 171.31 273.286 170.865C273.133 170.729 273.013 170.865 273.15 170.865C273.748 171.395 274.175 172.044 274.755 172.574C275.336 173.103 275.951 173.684 276.566 174.282C277.83 175.392 279.145 176.485 280.443 177.596C283.057 179.833 285.739 182.054 288.438 184.274C289.685 185.368 290.812 184.718 289.616 183.711Z" fill="#171719" stroke="black" stroke-width="9.40916" stroke-miterlimit="10"/>
<path d="M176.538 160.974C171.586 166.472 167.213 172.465 163.488 178.858C162.753 180.105 163.727 180.669 164.444 179.405C168.045 173.158 172.208 167.252 176.88 161.76C177.307 161.179 177.051 160.41 176.538 160.974Z" fill="#171719" stroke="black" stroke-width="9.40916" stroke-miterlimit="10"/>
</svg>
