<svg width="599" height="436" viewBox="0 0 599 436" fill="none" xmlns="http://www.w3.org/2000/svg">
<path d="M298.231 430.296C462.506 430.296 595.677 409.242 595.677 383.269C595.677 357.297 462.506 336.242 298.231 336.242C133.956 336.242 0.785156 357.297 0.785156 383.269C0.785156 409.242 133.956 430.296 298.231 430.296Z" fill="#242426"/>
<path d="M297.838 430.296C218.386 430.296 143.685 425.452 87.5001 416.656C54.8209 411.54 0 400.399 0 383.269C0 366.14 54.8209 354.999 87.5001 349.882C143.685 341.086 218.386 336.242 297.838 336.242C377.29 336.242 451.99 341.086 508.176 349.882C540.855 354.999 595.676 366.137 595.676 383.269C595.676 400.402 540.855 411.54 508.176 416.656C451.978 425.449 377.277 430.296 297.838 430.296ZM297.838 337.193C218.435 337.193 143.787 342.035 87.6384 350.821C32.544 359.445 0.946513 371.272 0.946513 383.269C0.946513 395.267 32.541 407.099 87.6384 415.714C143.778 424.504 218.426 429.345 297.838 429.345C377.25 429.345 451.889 424.504 508.037 415.714C563.132 407.09 594.729 395.264 594.729 383.269C594.729 371.275 563.132 359.445 508.037 350.821C451.877 342.035 377.228 337.193 297.838 337.193Z" fill="#242426"/>
<path d="M206.947 57.0032C206.33 54.879 208.203 52.8681 210.005 51.5653C211.807 50.2625 213.929 48.7968 214.092 46.6089C214.255 44.421 212.304 42.5517 211.488 40.4417C210.552 38.013 211.176 35.2587 212.198 32.8513C213.219 30.4439 214.574 28.1781 215.192 25.6503C216.568 19.9858 213.709 13.8328 209.246 10.0234C204.783 6.21403 198.958 4.35891 193.183 3.25433C187.408 2.14976 181.249 2.26305 175.566 0.783203C181.212 3.45296 185.584 8.22341 187.748 14.0722C189.911 19.921 189.692 26.3826 187.138 32.0724C186.18 34.1966 184.918 36.1862 184.109 38.3671C183.3 40.5479 182.988 43.0615 183.974 45.1715C185.563 48.5915 189.749 49.7456 193.396 50.7298C197.043 51.714 201.2 53.562 201.91 57.2156C203.4 56.9324 205.457 57.2652 206.947 57.0032Z" fill="#E79052"/>
<path d="M201.807 57.993C201.556 57.9929 201.313 57.9056 201.12 57.746C200.926 57.5864 200.794 57.3644 200.745 57.1179C200.249 54.6607 197.686 52.7846 193.117 51.5175C189.471 50.5304 184.923 49.2913 183.142 45.434C181.898 42.7668 182.506 39.8335 183.239 37.8664C183.754 36.5553 184.351 35.2786 185.028 34.044C185.447 33.225 185.873 32.4129 186.25 31.5728C188.649 26.207 188.855 20.1126 186.823 14.5966C184.791 9.08059 180.683 4.58199 175.381 2.06542C175.143 1.94445 174.959 1.74066 174.861 1.49249C174.763 1.24432 174.76 0.968943 174.851 0.718311C174.942 0.467679 175.122 0.259128 175.356 0.132004C175.59 0.00487963 175.862 -0.0320264 176.121 0.0282519C179.303 0.768811 182.538 1.26033 185.796 1.49837C188.318 1.74339 190.924 1.99541 193.438 2.47845C200.668 3.87857 205.852 6.07675 209.75 9.41602C214.877 13.8124 217.315 20.3019 215.953 25.9444C215.463 27.685 214.794 29.3696 213.955 30.9708C213.599 31.7269 213.256 32.4759 212.921 33.239C211.803 35.9272 211.58 38.1814 212.223 39.9315C212.517 40.6188 212.87 41.2793 213.277 41.9057C214.081 43.2218 214.996 44.7059 214.863 46.5051C214.661 49.1303 212.383 50.7824 210.546 52.1055C209.442 52.9106 207.284 54.6957 207.752 56.4179C207.799 56.5665 207.814 56.7237 207.795 56.8785C207.776 57.0334 207.724 57.1823 207.642 57.3152C207.561 57.4481 207.452 57.5618 207.322 57.6486C207.193 57.7353 207.046 57.7931 206.893 57.818C206.001 57.9311 205.101 57.9662 204.203 57.923C203.448 57.8793 202.69 57.905 201.94 58L201.807 57.993ZM203.365 55.7108H204.308C204.734 55.7108 205.16 55.7108 205.565 55.7108C205.628 53.9187 206.858 52.0915 209.142 50.4394C210.923 49.1443 212.635 47.9332 212.719 46.309C212.802 45.224 212.174 44.2089 211.454 43.0118C210.976 42.2754 210.564 41.4976 210.225 40.6876C209.344 38.3984 209.575 35.5982 210.923 32.3779C211.252 31.5798 211.622 30.7888 211.999 30.0117C212.755 28.5459 213.361 27.0073 213.808 25.4193C214.968 20.6309 212.753 14.8555 208.304 11.0472C204.706 7.9669 199.844 5.91574 192.998 4.59963C190.581 4.13059 188.025 3.89957 185.552 3.64055C184.155 3.50054 182.653 3.36053 181.193 3.17151C185.434 6.5852 188.427 11.3119 189.703 16.6118C190.978 21.9118 190.464 27.4859 188.241 32.4619C187.85 33.344 187.403 34.1981 186.963 35.0521C186.327 36.2045 185.767 37.3972 185.286 38.6224C184.804 39.9245 184.141 42.4237 185.119 44.5169C186.516 47.4501 190.309 48.5002 193.69 49.4173C198.657 50.7684 201.591 52.8336 202.617 55.7178C202.855 55.7108 203.106 55.7108 203.365 55.7108Z" fill="#242426"/>
<path d="M303.321 211.671C309.636 215.003 304.446 212.266 303.069 211.282C301.99 210.506 300.941 209.331 299.818 208.552C299.603 208.312 299.382 208.079 299.174 207.837C298.097 206.585 297.085 205.282 296.107 203.944C295.755 203.429 295.441 202.889 295.168 202.328C295.334 202.714 295.53 203.174 295.76 203.72C295.116 202.187 294.079 200.742 293.325 199.257C291.767 196.19 290.383 193.039 289.107 189.846C283.304 175.303 279.547 160.027 273.996 145.386C261.825 113.3 240.674 82.177 207.325 69.6432C196.2 65.4622 181.91 70.4929 177.757 82.2445C173.733 93.6372 178.475 107.349 190.36 111.815C192.032 112.444 193.682 113.107 195.305 113.855C195.697 114.036 196.084 114.235 196.473 114.426C197.593 115.407 199.454 116.168 200.623 116.978C202.087 118 203.518 119.066 204.917 120.174C206.144 121.156 207.306 122.192 208.484 123.242C208.849 123.616 209.22 123.99 209.579 124.37C212.04 127.003 214.357 129.768 216.517 132.653C217.599 134.084 218.644 135.55 219.652 137.051C220.155 137.796 220.648 138.547 221.133 139.306L221.348 139.65C222.998 142.696 225.857 148.324 226.185 149.015C229.865 156.736 232.905 164.739 235.693 172.821C240.557 186.999 244.171 201.748 250.633 215.328C258.608 232.107 269.87 245.168 286.365 253.868C291.273 256.457 299.168 255.708 304.023 253.579C309.026 251.374 314.08 246.524 315.933 241.266C320.377 228.631 314.583 217.616 303.321 211.671Z" fill="#F24E89"/>
<path d="M294.407 256.296C291.495 256.296 288.627 255.788 286.319 254.573C270.522 246.248 258.715 233.531 250.218 215.687C245.71 206.232 242.536 196.07 239.465 186.243C238.103 181.882 236.692 177.37 235.188 172.99C231.937 163.539 228.912 155.965 225.667 149.154C225.359 148.486 222.463 142.808 220.824 139.779L220.62 139.472C220.138 138.721 219.645 137.972 219.142 137.225C218.122 135.72 217.065 134.24 216.008 132.83C213.849 129.945 211.532 127.18 209.069 124.548C208.804 124.265 208.536 123.988 208.265 123.714L207.566 123.062C206.552 122.172 205.505 121.252 204.435 120.396C203.037 119.276 201.601 118.205 200.165 117.211C199.637 116.865 199.092 116.545 198.532 116.254C197.638 115.807 196.792 115.272 196.005 114.656L195.651 114.484C195.398 114.361 195.149 114.235 194.896 114.118C193.473 113.462 191.905 112.816 189.966 112.087C178.455 107.778 172.648 94.184 177.026 81.8087C178.89 76.5398 182.898 72.2495 188.318 69.7289C194.277 66.9591 201.391 66.6513 207.347 68.8764C227.71 76.5367 255.921 95.9752 274.592 145.168C277.205 152.044 279.454 159.172 281.633 166.063C284.098 173.901 286.67 182.011 289.77 189.76C291.166 193.25 292.543 196.325 293.991 199.166C294.299 199.757 294.65 200.363 294.999 200.948C295.208 201.305 295.421 201.665 295.615 202.034C295.706 202.081 295.781 202.155 295.827 202.246C296.09 202.787 296.391 203.307 296.73 203.804C297.719 205.179 298.742 206.481 299.768 207.675C299.894 207.823 300.027 207.965 300.156 208.106L300.372 208.346C300.972 208.788 301.544 209.266 302.085 209.777C302.567 210.231 303.073 210.658 303.601 211.058C304.217 211.489 305.613 212.289 306.374 212.726C306.562 212.831 306.716 212.92 306.839 213.003C307.052 213.147 307.147 213.271 307.147 213.428C316.927 220.125 320.578 230.662 316.68 241.665C314.863 246.802 309.951 251.88 304.458 254.299C301.272 255.621 297.856 256.3 294.407 256.296ZM198.966 68.3686C195.427 68.3659 191.93 69.1303 188.716 70.6091C183.533 73.022 179.7 77.1153 177.932 82.1411C173.729 94.027 179.278 107.07 190.305 111.2C192.271 111.939 193.861 112.594 195.309 113.262C195.568 113.382 195.827 113.512 196.086 113.638L196.489 113.838C196.528 113.857 196.564 113.88 196.597 113.909C197.345 114.493 198.15 115.002 199 115.426C199.591 115.732 200.165 116.069 200.72 116.435C202.174 117.442 203.628 118.528 205.033 119.661C206.118 120.532 207.175 121.458 208.194 122.354L208.946 123.055C209.223 123.335 209.498 123.619 209.766 123.905C212.252 126.554 214.591 129.337 216.772 132.242C217.841 133.661 218.907 135.154 219.933 136.674C220.441 137.425 220.94 138.182 221.431 138.945L221.606 139.222L221.665 139.321C223.35 142.432 226.203 148.046 226.533 148.738C229.796 155.583 232.831 163.203 236.085 172.676C237.594 177.068 239.006 181.602 240.37 185.956C243.433 195.75 246.597 205.878 251.071 215.274C259.479 232.921 271.151 245.5 286.76 253.723C291.498 256.219 299.284 255.527 304.079 253.415C309.264 251.132 314.077 246.168 315.787 241.339C319.934 229.622 315.171 218.478 303.358 212.255C303.286 212.217 303.225 212.161 303.181 212.092C303.137 212.024 303.11 211.945 303.105 211.864L303.053 211.827C302.493 211.408 301.959 210.958 301.45 210.479C300.926 209.984 300.372 209.521 299.79 209.094C299.759 209.073 299.731 209.048 299.707 209.02L299.46 208.746C299.321 208.599 299.183 208.439 299.053 208.294C298.006 207.063 296.967 205.755 295.972 204.355C295.964 204.348 295.958 204.339 295.954 204.33C295.87 204.32 295.791 204.288 295.724 204.237C295.657 204.186 295.604 204.118 295.572 204.041C295.572 204.041 295.572 204.041 295.572 204.016C295.164 203.125 294.701 202.261 294.185 201.428C293.831 200.831 293.464 200.197 293.15 199.581C291.689 196.716 290.297 193.614 288.892 190.096C285.78 182.306 283.213 174.181 280.73 166.324C278.558 159.446 276.312 152.333 273.708 145.482C255.157 96.6307 227.202 77.3461 207.017 69.772C204.44 68.8262 201.713 68.3509 198.966 68.3686Z" fill="#242426"/>
<path d="M295.487 202.216C294.227 199.552 294.681 200.79 295.487 202.216V202.216Z" fill="#FC328E"/>
<path d="M295.05 203C294.97 203 294.891 202.979 294.823 202.938C294.754 202.897 294.699 202.838 294.663 202.768C293.805 201.109 293.86 201.027 293.997 200.833C294.041 200.77 294.101 200.72 294.172 200.688C294.242 200.656 294.32 200.643 294.398 200.651C294.676 200.678 294.676 200.678 295.448 202.408C295.478 202.472 295.49 202.543 295.484 202.613C295.478 202.684 295.454 202.752 295.415 202.811C295.375 202.87 295.321 202.918 295.257 202.951C295.193 202.984 295.122 203.001 295.05 203Z" fill="#242426"/>
<path d="M205.41 54.9392C205.207 55.1863 204.949 55.3791 204.658 55.5011C204.367 55.623 204.051 55.6705 203.738 55.6393C203.425 55.6081 203.124 55.4993 202.861 55.3221C202.598 55.145 202.38 54.9048 202.228 54.6224C201.782 53.8465 201.209 53.1557 200.534 52.5805C198.978 51.2357 197.106 50.3978 195.391 49.215C193.677 48.0321 192.182 46.3071 192.038 44.223C191.887 41.9769 193.355 39.9985 194.911 38.3931C196.468 36.7878 198.264 35.3444 199.087 33.2603C200.267 30.275 199.156 27.008 197.716 24.0509C197.586 23.7771 197.52 23.4764 197.522 23.1721C197.523 22.8678 197.593 22.568 197.726 22.2958C197.858 22.0236 198.05 21.7863 198.286 21.6023C198.522 21.4183 198.796 21.2924 199.087 21.2345C199.797 21.1081 200.526 21.1476 201.219 21.3499C201.913 21.5522 202.553 21.9123 203.092 22.4033C204.765 24.0016 205.369 26.5011 205.321 28.8457C205.273 31.1903 204.635 33.4856 204.251 35.795C203.867 38.1045 203.702 40.5547 204.532 42.7444C205.362 44.9341 207.014 46.5817 207.57 48.7855C208.111 51.1019 206.925 53.0522 205.41 54.9392Z" fill="#FDDC68"/>
<path d="M204.378 57.2167H204.115C203.617 57.1733 203.138 57.008 202.716 56.735C202.295 56.4619 201.945 56.0893 201.695 55.6486C201.309 54.9804 200.811 54.3854 200.226 53.8898C199.312 53.1577 198.338 52.5078 197.314 51.9473C196.566 51.5093 195.817 51.0714 195.11 50.5769C192.774 48.9381 191.401 46.8685 191.255 44.7423C191.11 42.6162 192.157 40.3629 194.479 38.0389C194.756 37.7564 195.047 37.4738 195.332 37.1984C196.635 35.941 197.855 34.7543 198.458 33.2568C199.553 30.5091 198.299 27.3587 197.072 24.9217C196.852 24.4844 196.737 24.0002 196.737 23.509C196.737 23.0178 196.852 22.5336 197.072 22.0963C197.279 21.667 197.586 21.2951 197.965 21.0122C198.344 20.7294 198.784 20.5439 199.248 20.4716C200.126 20.3134 201.027 20.3581 201.884 20.6027C202.742 20.8472 203.535 21.2853 204.205 21.8844C205.945 23.5373 206.867 26.1225 206.797 29.1811C206.716 30.9291 206.484 32.6664 206.104 34.3729C205.973 35.0157 205.848 35.6655 205.737 36.3154C205.258 39.0773 205.328 41.048 205.959 42.6727C206.329 43.5322 206.772 44.3571 207.283 45.1379C208.066 46.2736 208.669 47.5273 209.071 48.8534C209.806 51.7142 208.378 53.9957 206.728 56.0371C206.451 56.4039 206.095 56.701 205.688 56.9055C205.28 57.11 204.832 57.2165 204.378 57.2167ZM200.219 22.6049C200.003 22.6061 199.787 22.625 199.574 22.6614C199.452 22.6839 199.337 22.7353 199.239 22.8113C199.14 22.8874 199.06 22.986 199.006 23.0993C198.943 23.2301 198.91 23.3739 198.91 23.5196C198.91 23.6653 198.943 23.8091 199.006 23.9399C200.427 26.7653 201.876 30.5232 200.454 34.0904C199.678 36.0329 198.222 37.4385 196.815 38.8018L195.99 39.6071C194.146 41.4577 193.307 43.0894 193.411 44.594C193.543 46.5436 195.297 48.0481 196.33 48.7686C197.023 49.2348 197.716 49.6445 198.41 50.0471C199.544 50.672 200.623 51.3976 201.633 52.2157C202.413 52.8735 203.074 53.6647 203.588 54.5537C203.657 54.6843 203.757 54.796 203.877 54.8796C203.998 54.9631 204.136 55.0161 204.281 55.0341C204.413 55.0419 204.544 55.0178 204.664 54.9637C204.785 54.9097 204.891 54.8273 204.974 54.7233C206.458 52.8867 207.352 51.2903 206.895 49.4891C206.543 48.3828 206.029 47.3372 205.369 46.3882C204.778 45.498 204.272 44.5518 203.858 43.5627C202.86 40.935 203.165 38.1449 203.519 35.9975C203.636 35.3336 203.768 34.6625 203.9 33.9985C204.271 32.4217 204.503 30.8142 204.593 29.1952C204.648 26.8077 203.955 24.7593 202.687 23.5443C202.011 22.925 201.134 22.5828 200.226 22.5837L200.219 22.6049Z" fill="#242426"/>
<path d="M210.965 56.1346L199.116 57.8829C198.802 57.9292 198.584 58.2216 198.631 58.5359L199.799 66.4607C199.846 66.775 200.138 66.9922 200.452 66.9459L212.302 65.1976C212.616 65.1512 212.833 64.8588 212.787 64.5445L211.618 56.6197C211.572 56.3054 211.28 56.0882 210.965 56.1346Z" fill="#242426"/>
<path d="M199.679 63.4231C199.979 61.1133 198.351 58.9973 196.042 58.6969C193.733 58.3965 191.617 60.0254 191.317 62.3353C191.017 64.6451 192.645 66.7611 194.954 67.0615C197.263 67.3619 199.379 65.7329 199.679 63.4231Z" fill="#242426"/>
<path d="M281.34 283.726C273.83 256.206 254.472 230.41 228.712 217.551C220.039 213.22 210.719 209.938 200.89 210.058C190.348 210.187 180.835 213.958 172.589 220.342C159.146 230.745 151.031 246.359 144.693 261.8C138.134 277.782 134.385 304.521 132.529 321.641C131.916 327.173 135.548 334.279 139.312 338.053C143.331 342.076 149.924 345.122 155.694 344.848C178.611 343.819 178.875 310.333 182.851 294.114C185.142 284.768 189.977 258.173 202.697 257.159C217.483 255.982 230.396 277.361 234.231 289.218C233.964 288.324 233.709 287.427 233.439 286.535C237.771 300.722 247.686 317.937 265.161 312.273C277.119 308.397 284.77 296.272 281.34 283.726Z" fill="#F24E89"/>
<path d="M154.792 344.864C149.302 344.864 142.925 342.132 138.695 337.921C134.857 334.093 131.117 326.914 131.745 321.143C133.791 302.403 137.574 276.803 143.994 261.247C149.604 247.652 157.876 230.641 172.158 219.646C180.932 212.893 190.59 209.402 200.864 209.274C209.475 209.157 218.455 211.56 229.022 216.806C253.917 229.183 274.262 254.608 282.127 283.206C285.488 295.438 278.215 308.217 265.565 312.296C260.048 314.077 254.885 313.748 250.214 311.323C241.677 306.891 236.659 296.528 234.068 289.198C233.991 289.138 233.933 289.057 233.902 288.965C232.223 283.805 228.175 275.278 222.281 268.233C217.805 262.883 210.772 256.643 202.731 257.275C191.511 258.165 186.403 280.171 183.939 290.733C183.674 291.887 183.43 292.925 183.215 293.802C182.457 296.872 181.828 300.601 181.163 304.546C178.36 321.186 174.518 343.977 155.501 344.827C155.27 344.858 155.029 344.864 154.792 344.864ZM201.413 210.225H200.877C190.815 210.351 181.348 213.774 172.743 220.398C158.64 231.255 150.445 248.122 144.881 261.606C138.504 277.067 134.737 302.569 132.713 321.244C132.137 326.524 135.655 333.522 139.389 337.246C143.557 341.396 150.171 344.131 155.479 343.894C173.723 343.078 177.337 321.637 180.239 304.411C180.907 300.439 181.539 296.691 182.306 293.588C182.522 292.71 182.762 291.675 183.03 290.518C185.701 278.909 190.729 257.263 202.645 256.317C217.056 255.178 229.108 274.259 233.711 285.684C233.782 285.708 233.847 285.748 233.901 285.801C233.954 285.854 233.995 285.919 234.019 285.99C236.175 293.026 241.215 305.565 250.655 310.467C255.088 312.769 260.005 313.076 265.267 311.388C277.429 307.468 284.426 295.199 281.2 283.455C273.412 255.117 253.255 229.907 228.597 217.666C218.39 212.607 209.73 210.225 201.413 210.225Z" fill="#242426"/>
<path d="M192.27 68.7527C193.888 67.0793 192.698 64.0261 190.531 63.1183C188.365 62.2105 185.83 62.9125 183.788 64.0594C177.515 67.5726 174.18 75.4523 176.114 82.2609C176.378 83.1989 177.227 84.252 178.191 84.5092C179.154 84.7664 180.174 84.6242 181.15 84.4396C185.009 83.7013 188.867 82.1852 191.467 79.2954C194.067 76.4055 194.219 72.0844 192.27 68.7527Z" fill="#F24E89"/>
<path d="M179 85.4332C178.573 85.4375 178.148 85.3831 177.736 85.2716C176.56 84.9609 175.628 83.665 175.345 82.624C173.378 75.3896 176.735 67.1329 183.18 63.3852C184.677 62.512 187.596 61.2099 190.284 62.3939C190.959 62.7111 191.552 63.1841 192.015 63.775C192.477 64.3659 192.797 65.0583 192.947 65.7967C193.066 66.2908 193.078 66.8053 192.981 67.3043C192.884 67.8034 192.681 68.2751 192.386 68.6867C194.307 72.3629 193.92 76.8813 191.373 79.7899C189.032 82.4748 185.506 84.2989 180.89 85.2126C180.269 85.3476 179.636 85.4215 179 85.4332ZM187.942 62.8942C186.245 62.8942 184.613 63.6587 183.646 64.2243C177.582 67.7451 174.412 75.545 176.281 82.3661C176.493 83.1461 177.202 84.1187 178.003 84.3393C178.89 84.5848 179.868 84.4264 180.719 84.2586C185.122 83.3884 188.467 81.6669 190.667 79.1435C193.003 76.4617 193.306 72.2355 191.404 68.8638C191.353 68.7737 191.332 68.6696 191.345 68.5667C191.357 68.4638 191.401 68.3675 191.471 68.292C191.743 67.9845 191.935 67.6133 192.03 67.2118C192.125 66.8103 192.12 66.3913 192.014 65.9924C191.893 65.4073 191.64 64.8585 191.274 64.3885C190.909 63.9186 190.442 63.5402 189.909 63.2827C189.287 63.0176 188.617 62.8854 187.942 62.8942Z" fill="#242426"/>
<path d="M220.51 123.353L201.508 126.184C201.35 126.206 201.19 126.165 201.062 126.069C200.934 125.973 200.848 125.83 200.824 125.671L192.033 65.4494C192.011 65.2893 192.053 65.127 192.148 64.9976C192.244 64.8681 192.386 64.7819 192.544 64.7576L211.546 61.9257C211.704 61.9036 211.865 61.9451 211.993 62.0411C212.121 62.1371 212.206 62.2801 212.231 62.4392L221.022 122.661C221.043 122.821 221.002 122.983 220.906 123.113C220.811 123.242 220.669 123.328 220.51 123.353Z" fill="#67518B"/>
<path d="M202.544 126.19C202.015 126.19 201.505 125.996 201.104 125.645C200.704 125.294 200.441 124.808 200.362 124.276L192.05 66.9329C191.967 66.3449 192.115 65.7473 192.464 65.2706C192.813 64.794 193.333 64.4772 193.91 64.3895L210.189 61.9439C210.767 61.8572 211.355 62.0076 211.824 62.3619C212.293 62.7162 212.604 63.2454 212.689 63.8331L221.005 121.171C221.088 121.759 220.939 122.357 220.591 122.834C220.242 123.311 219.722 123.629 219.144 123.717L202.866 126.163C202.759 126.179 202.652 126.189 202.544 126.19ZM210.511 62.6348C210.437 62.6348 210.364 62.6409 210.291 62.6531L194.012 65.0987C193.817 65.1279 193.629 65.196 193.46 65.299C193.29 65.4021 193.142 65.5382 193.024 65.6995C192.907 65.8607 192.821 66.044 192.773 66.2389C192.725 66.4338 192.715 66.6364 192.744 66.8351L201.056 124.179C201.085 124.377 201.152 124.569 201.253 124.741C201.355 124.913 201.488 125.064 201.647 125.184C201.806 125.303 201.986 125.39 202.177 125.439C202.369 125.488 202.568 125.498 202.763 125.469L219.042 123.023C219.238 122.994 219.426 122.926 219.595 122.823C219.765 122.72 219.912 122.584 220.03 122.422C220.148 122.261 220.233 122.078 220.281 121.883C220.33 121.688 220.339 121.485 220.31 121.287L211.995 63.9401C211.943 63.5777 211.764 63.2465 211.491 63.0069C211.219 62.7673 210.871 62.6352 210.511 62.6348Z" fill="#242426"/>
<path d="M406.76 346.449C406.106 333.913 395.133 324.038 380.294 323.742L166.347 319.443L105.648 318.22C91.7976 317.942 78.5522 328.863 79.1817 340.927C79.8359 353.462 90.8056 363.335 105.648 363.634L319.592 367.933L380.294 369.156C394.144 369.431 407.39 358.51 406.76 346.449Z" fill="#F24E89"/>
<path d="M381.074 369.947H380.544L105.387 364.376C90.4373 364.066 79.0872 354.21 78.4011 340.928C78.1334 335.75 80.2994 330.497 84.4992 326.136C87.225 323.348 90.4809 321.141 94.0728 319.646C97.6646 318.151 101.519 317.399 105.406 317.435L380.563 323.006C395.513 323.316 406.86 333.171 407.546 346.45C407.814 351.629 405.651 356.885 401.451 361.243C398.792 363.973 395.623 366.147 392.126 367.641C388.629 369.134 384.873 369.918 381.074 369.947ZM104.873 318.373C101.202 318.402 97.5726 319.161 94.1934 320.605C90.8142 322.049 87.7519 324.151 85.1822 326.789C81.1824 330.955 79.0995 335.951 79.3548 340.86C80.0133 353.622 90.9696 363.1 105.403 363.391L380.56 368.963C388.012 369.139 395.544 365.97 400.759 360.553C404.758 356.386 406.841 351.388 406.604 346.481C405.943 333.716 394.99 324.241 380.557 323.947L105.381 318.379L104.873 318.373Z" fill="#242426"/>
<path d="M221.519 102.396C229.661 95.7279 231.416 85.2871 224.864 76.7957C217.431 67.1322 203.207 63.4124 191.948 67.4437C182.325 70.889 174.852 80.4693 174.785 90.8206C174.731 99.457 181.397 110.724 190.601 111.875C199.755 113.007 212.936 109.429 221.519 102.396Z" fill="#F24E89"/>
<path d="M194.151 112.865C192.902 112.868 191.655 112.795 190.416 112.647C181.101 111.498 173.942 100.174 174 91.1968C174.068 81.034 181.504 71.0556 191.683 67.4642C203.494 63.3014 218.039 67.369 225.524 76.9357C232.119 85.3781 230.692 96.146 222.054 103.114C214.689 109.055 203.512 112.865 194.151 112.865ZM201.469 66.7822C198.246 66.769 195.044 67.303 192 68.3613C182.19 71.8206 175.022 81.4242 174.957 91.1968C174.902 99.7804 181.694 110.604 190.533 111.691C200.254 112.889 213.261 108.966 221.441 102.364C229.652 95.7436 231.015 85.5255 224.758 77.5194C219.442 70.7177 210.437 66.7883 201.469 66.7883V66.7822Z" fill="#242426"/>
<path d="M248.35 323.745C273.227 344.533 320.007 354.753 342.01 359.623C380.64 368.185 427.69 364.777 465.794 354.115C503.898 343.452 548.495 327.444 566.723 292.361C584.951 257.279 587.297 203.047 562.76 172.042C538.223 141.036 476.776 129.839 443.52 151.257C451.575 135.7 442.29 111.833 428.653 100.808C415.015 89.7829 396.448 86.7434 378.943 85.6412C350.394 83.8421 326.968 93.6881 305.681 112.772C288.965 127.758 271.632 156.795 268.564 179.02C265.495 201.245 268.763 215.423 270.94 237.749C256.214 247.359 244.839 258.737 236.971 274.45C226.534 295.336 233.583 311.406 248.35 323.745Z" fill="#F24E89"/>
<path d="M389.517 365.243C372.57 365.243 356.252 363.631 341.542 360.364L340.9 360.222C318.679 355.3 272.436 345.015 247.72 324.309C230.689 310.034 226.814 293.218 236.221 274.318C243.568 259.579 254.352 247.878 270.098 237.516C269.627 232.714 269.111 228.321 268.61 224.069C266.791 208.541 265.35 196.275 267.753 178.843C271.016 155.132 289.264 126.32 305.007 112.165C327.36 92.0751 351.425 83.1438 378.587 84.8544C394.29 85.8543 414.148 88.494 428.551 100.185C441.894 111.008 451.073 134.107 444.241 149.838C477.795 129.532 538.039 140.436 562.672 171.641C574.134 186.163 580.563 207.129 580.781 230.687C580.978 252.432 575.84 275.044 566.685 292.728C548.674 327.512 505.428 343.652 465.503 354.85C440.755 361.713 415.197 365.209 389.517 365.243ZM248.335 323.577C272.873 344.132 318.958 354.367 341.105 359.287L341.748 359.428C378.034 367.492 424.199 365.428 465.245 353.915C504.973 342.769 547.992 326.731 565.834 292.273C588.362 248.767 581.537 197.069 561.922 172.22C550.429 157.661 529.483 146.469 505.889 142.282C481.84 138.014 459.05 141.374 443.369 151.511C443.28 151.569 443.175 151.595 443.07 151.586C442.965 151.577 442.866 151.533 442.788 151.462C442.71 151.391 442.658 151.296 442.639 151.192C442.62 151.088 442.636 150.981 442.683 150.887C450.602 135.556 441.436 111.867 427.951 100.926C413.76 89.4169 394.087 86.8142 378.535 85.8327C351.283 84.116 328.113 92.7119 305.652 112.906C290.032 126.948 271.941 155.508 268.706 179C266.321 196.315 267.753 208.535 269.569 223.989C270.076 228.33 270.605 232.819 271.084 237.741C271.092 237.828 271.076 237.915 271.038 237.994C271 238.073 270.942 238.139 270.869 238.187C255.126 248.494 244.389 260.12 237.066 274.777C227.893 293.196 231.679 309.622 248.335 323.577Z" fill="#242426"/>
<path d="M372.037 265.841C370.39 265.59 368.606 265.656 367.362 266.255C366.118 266.854 365.591 268.07 366.448 269.04C367.143 269.824 368.515 270.276 369.823 270.568C371.219 270.881 372.642 271.08 374.074 271.162C375.202 271.225 376.382 271.205 377.276 270.84C378.169 270.476 378.639 269.824 378.559 269.13C378.352 267.219 374.455 266.212 372.037 265.841Z" fill="#242426"/>
<path d="M359.29 196.117C356.461 195.151 353.645 194.089 350.881 192.95C342.729 189.729 334.811 185.941 327.183 181.613C323.777 179.709 320.427 177.681 317.141 175.566C312.228 178.188 308.17 182.176 305.452 187.053C302.733 191.93 301.468 197.49 301.808 203.069C302.148 208.649 304.079 214.012 307.369 218.519C310.66 223.026 315.171 226.486 320.365 228.486C325.165 230.344 330.371 230.884 335.447 230.051C340.523 229.218 345.287 227.042 349.25 223.746C353.213 220.451 356.231 216.155 357.996 211.299C359.76 206.444 360.207 201.203 359.29 196.117Z" fill="white"/>
<path d="M331.143 231.215C324.585 231.208 318.217 229.001 313.051 224.945C307.885 220.89 304.216 215.218 302.629 208.83C301.041 202.442 301.625 195.705 304.288 189.689C306.951 183.673 311.541 178.722 317.327 175.623C317.401 175.583 317.484 175.564 317.569 175.567C317.653 175.57 317.734 175.596 317.805 175.642C321.357 177.912 324.627 179.878 327.803 181.656C335.4 185.957 343.285 189.722 351.402 192.925C354.16 194.061 356.97 195.119 359.772 196.076C359.85 196.104 359.92 196.153 359.974 196.217C360.028 196.281 360.064 196.359 360.078 196.442C360.835 200.692 360.655 205.058 359.551 209.231C358.447 213.404 356.446 217.284 353.688 220.598C350.93 223.912 347.482 226.578 343.587 228.411C339.692 230.244 335.445 231.198 331.143 231.206V231.215ZM317.529 176.599C312.934 179.108 309.116 182.839 306.495 187.384C303.874 191.928 302.551 197.11 302.672 202.36C302.793 207.609 304.352 212.724 307.179 217.142C310.006 221.561 313.992 225.111 318.698 227.405C323.404 229.698 328.648 230.646 333.855 230.143C339.063 229.64 344.031 227.707 348.215 224.555C352.4 221.404 355.638 217.156 357.574 212.277C359.511 207.399 360.071 202.08 359.192 196.903C356.462 195.98 353.719 194.931 351.04 193.827C342.886 190.604 334.966 186.816 327.337 182.49C324.217 180.746 321.005 178.817 317.529 176.599Z" fill="#242426"/>
<path d="M352.891 209.327C351.879 211.95 350.342 214.34 348.371 216.352C346.401 218.363 344.039 219.954 341.431 221.028C338.822 222.101 336.021 222.634 333.198 222.595C330.376 222.555 327.591 221.943 325.013 220.797C315.467 216.562 310.516 205.607 313.687 195.685C314.764 192.306 316.694 189.259 319.293 186.835C321.892 184.411 325.072 182.691 328.53 181.84C336.178 186.137 344.117 189.898 352.29 193.095C353.485 195.621 354.154 198.361 354.257 201.15C354.36 203.94 353.895 206.721 352.891 209.327Z" fill="#242426"/>
<path d="M368.376 199.08C365.486 198.111 362.596 197.053 359.754 195.945L368.376 199.08Z" fill="white"/>
<path d="M368.717 199.864C368.67 199.864 368.623 199.858 368.578 199.845C365.506 198.945 362.389 197.957 359.317 196.916C359.254 196.896 359.196 196.864 359.146 196.822C359.095 196.779 359.054 196.727 359.024 196.668C358.995 196.609 358.978 196.545 358.974 196.48C358.97 196.414 358.979 196.348 359.001 196.286C359.021 196.224 359.054 196.167 359.097 196.117C359.14 196.067 359.192 196.027 359.251 195.997C359.31 195.968 359.374 195.951 359.44 195.946C359.506 195.942 359.572 195.951 359.634 195.972C362.69 197.013 365.79 197.992 368.853 198.886C368.956 198.927 369.041 199.001 369.096 199.097C369.151 199.192 369.173 199.303 369.157 199.412C369.141 199.521 369.088 199.621 369.008 199.697C368.928 199.773 368.824 199.819 368.714 199.83L368.717 199.864Z" fill="#242426"/>
<path d="M317.433 175.567C315.856 174.55 314.285 173.509 312.73 172.432L317.433 175.567Z" fill="white"/>
<path d="M317.71 176.349C317.613 176.349 317.518 176.32 317.437 176.265C315.453 174.918 313.721 173.726 312.152 172.592C312.047 172.51 311.977 172.39 311.956 172.255C311.935 172.121 311.965 171.984 312.04 171.872C312.115 171.76 312.228 171.683 312.357 171.657C312.485 171.63 312.619 171.656 312.729 171.73C314.289 172.861 316.011 174.056 317.985 175.386C318.078 175.447 318.149 175.538 318.187 175.644C318.226 175.75 318.23 175.867 318.199 175.976C318.167 176.085 318.103 176.18 318.015 176.248C317.926 176.315 317.819 176.351 317.71 176.349Z" fill="#242426"/>
<path d="M489.396 261.155C486.568 260.19 483.748 259.129 480.984 257.991C472.834 254.773 464.917 250.987 457.291 246.663C453.885 244.76 450.535 242.734 447.249 240.621C441.07 243.892 436.291 249.315 433.81 255.872C432.197 260.068 431.573 264.582 431.988 269.06C432.403 273.538 433.845 277.859 436.201 281.684C438.557 285.508 441.763 288.733 445.567 291.105C449.372 293.478 453.672 294.933 458.131 295.356C462.589 295.78 467.085 295.161 471.265 293.548C475.446 291.935 479.197 289.371 482.226 286.058C485.255 282.745 487.478 278.773 488.722 274.452C489.966 270.131 490.197 265.58 489.396 261.155Z" fill="white"/>
<path d="M461.237 296.264C454.681 296.262 448.315 294.058 443.15 290.001C437.985 285.945 434.319 280.27 432.734 273.878C431.15 267.487 431.738 260.747 434.406 254.73C437.074 248.714 441.667 243.766 447.456 240.675C447.531 240.636 447.614 240.618 447.698 240.622C447.782 240.625 447.863 240.651 447.934 240.697C451.48 242.964 454.748 244.931 457.923 246.709C465.513 251.013 473.392 254.78 481.503 257.983C484.259 259.115 487.064 260.177 489.87 261.134C489.948 261.163 490.018 261.212 490.071 261.276C490.125 261.34 490.161 261.417 490.176 261.5C490.944 265.756 490.771 270.13 489.67 274.312C488.569 278.494 486.566 282.381 483.803 285.699C481.041 289.016 477.586 291.683 473.683 293.51C469.781 295.336 465.526 296.279 461.221 296.27L461.237 296.264ZM447.673 241.654C443.083 244.163 439.269 247.895 436.651 252.44C434.033 256.985 432.712 262.166 432.834 267.416C432.955 272.666 434.513 277.78 437.337 282.198C440.162 286.617 444.143 290.167 448.845 292.461C453.546 294.754 458.785 295.702 463.987 295.199C469.19 294.697 474.153 292.764 478.334 289.612C482.514 286.461 485.749 282.213 487.684 277.335C489.62 272.458 490.18 267.138 489.303 261.962C486.568 261.02 483.828 259.986 481.154 258.885C473.009 255.665 465.096 251.881 457.473 247.558C454.352 245.798 451.131 243.869 447.673 241.654Z" fill="#242426"/>
<path d="M482.992 274.383C481.981 277.005 480.444 279.394 478.474 281.405C476.504 283.416 474.143 285.006 471.534 286.079C468.926 287.152 466.126 287.685 463.304 287.645C460.481 287.606 457.697 286.995 455.12 285.849C445.575 281.616 440.621 270.661 443.792 260.73C444.87 257.353 446.8 254.307 449.399 251.883C451.998 249.46 455.179 247.741 458.637 246.891C466.283 251.186 474.222 254.945 482.395 258.142C483.59 260.669 484.26 263.411 484.363 266.202C484.465 268.993 483.999 271.776 482.992 274.383Z" fill="#242426"/>
<path d="M498.485 264.135C495.594 263.166 492.707 262.108 489.863 261L498.485 264.135Z" fill="white"/>
<path d="M498.823 264.919C498.775 264.919 498.728 264.912 498.683 264.897C495.595 263.992 492.478 262.999 489.415 261.956C489.354 261.935 489.298 261.903 489.249 261.86C489.201 261.817 489.161 261.766 489.133 261.708C489.104 261.65 489.087 261.587 489.083 261.523C489.079 261.458 489.087 261.394 489.108 261.333C489.129 261.272 489.162 261.215 489.204 261.167C489.247 261.119 489.299 261.079 489.357 261.05C489.415 261.022 489.478 261.005 489.542 261.001C489.606 260.997 489.671 261.005 489.732 261.026C492.782 262.067 495.886 263.053 498.962 263.954C499.065 263.996 499.151 264.07 499.206 264.166C499.261 264.262 499.282 264.374 499.266 264.483C499.25 264.593 499.197 264.694 499.117 264.77C499.037 264.846 498.933 264.893 498.823 264.903V264.919Z" fill="#242426"/>
<path d="M447.541 240.621C445.699 239.604 443.87 238.564 442.055 237.486L447.541 240.621Z" fill="white"/>
<path d="M447.098 241.406C447.013 241.406 446.929 241.377 446.857 241.322C445.118 239.975 443.605 238.78 442.232 237.649C442.14 237.567 442.079 237.446 442.06 237.312C442.042 237.178 442.068 237.04 442.134 236.929C442.199 236.817 442.299 236.74 442.411 236.713C442.524 236.687 442.64 236.713 442.737 236.787C444.102 237.915 445.606 239.11 447.336 240.443C447.417 240.504 447.479 240.594 447.513 240.7C447.547 240.806 447.55 240.922 447.523 241.031C447.496 241.14 447.44 241.235 447.364 241.303C447.287 241.371 447.194 241.407 447.098 241.406Z" fill="#242426"/>
<path d="M487.327 334.556C490.679 337.271 503.725 349.3 506.819 352.295C504.641 352.848 502.452 353.36 500.25 353.831C496.581 354.602 492.891 355.188 489.179 355.79L487.063 356.039C484.73 356.299 482.394 356.529 480.054 356.727C445.036 359.735 409.704 357.363 375.1 364.772C364.447 367.054 353.819 370.258 345.095 376.991C332.529 386.689 326.615 401.832 330.25 417.415C332.956 429.02 346.891 436.991 358.278 433.311C368.215 430.098 374.491 421.703 374.842 411.938C375.457 411.714 375.98 411.52 376.072 411.493C384.022 409.035 392.144 407.92 400.278 406.39L402.843 406.105C404.928 405.886 407.015 405.69 409.104 405.518C413.296 405.168 417.493 404.904 421.694 404.695C430.385 404.259 439.088 404.053 447.788 403.81C466.354 403.291 484.803 402.302 503.174 399.399C511.646 398.105 520.001 396.141 528.161 393.526C539.088 389.963 550.196 384.882 556.454 374.681C571.523 350.056 547.403 326.179 529.364 311.558C524.52 307.629 519.732 304.893 513.252 304.893" fill="#F24E89"/>
<path d="M352.08 435.001C348.029 434.963 344.056 433.882 340.546 431.863C334.85 428.648 330.825 423.544 329.485 417.857C325.857 402.318 331.467 387.046 344.488 377.003C353.706 369.89 364.914 366.798 374.657 364.712C397.005 359.93 420.03 359.209 442.296 358.513C454.528 358.13 467.183 357.734 479.574 356.673C481.983 356.467 484.334 356.234 486.561 355.985C487.145 355.921 487.726 355.851 488.306 355.783L489.412 355.617C492.792 355.071 496.273 354.504 499.677 353.777C501.561 353.381 503.478 352.943 505.386 352.47C501.53 348.789 489.738 337.946 486.564 335.376C486.516 335.336 486.475 335.286 486.446 335.23C486.416 335.175 486.398 335.114 486.392 335.051C486.386 334.988 486.393 334.925 486.412 334.864C486.43 334.804 486.461 334.748 486.501 334.7C486.542 334.651 486.591 334.611 486.647 334.581C486.703 334.552 486.764 334.534 486.827 334.528C486.89 334.522 486.953 334.529 487.014 334.547C487.074 334.566 487.13 334.596 487.179 334.637C490.558 337.376 503.693 349.483 506.682 352.378C506.744 352.437 506.789 352.512 506.811 352.594C506.834 352.676 506.834 352.762 506.812 352.845C506.79 352.927 506.747 353.002 506.686 353.062C506.626 353.122 506.55 353.164 506.467 353.185C504.274 353.743 502.058 354.255 499.886 354.719C496.464 355.436 492.961 356.004 489.578 356.559L488.432 356.731L486.681 356.936C484.444 357.185 482.072 357.415 479.667 357.623C467.245 358.691 454.583 359.087 442.339 359.464C420.113 360.157 397.135 360.878 374.869 365.642C365.23 367.706 354.157 370.761 345.084 377.755C332.367 387.57 326.889 402.474 330.429 417.63C331.695 423.059 335.554 427.939 341.016 431.022C346.43 434.09 352.553 434.856 357.816 433.169C367.47 430.05 373.683 422.041 374.036 412.265C374.038 412.171 374.069 412.079 374.123 412.002C374.178 411.925 374.255 411.866 374.343 411.833L374.921 411.621L375.587 411.379C381.711 409.474 388.043 408.364 394.17 407.29C396.053 406.959 397.94 406.628 399.826 406.275L400.84 406.158L402.422 405.983C404.425 405.772 406.475 405.578 408.69 405.394C412.595 405.069 416.712 404.799 421.287 404.572C428.775 404.195 436.391 403.987 443.759 403.787L447.369 403.686C463.837 403.226 483.283 402.345 502.639 399.287C511.078 398.006 519.4 396.051 527.526 393.441C537.177 390.297 549.082 385.337 555.522 374.828C566.706 356.581 557.888 336.164 528.564 312.411C524.374 309.009 519.559 305.847 512.778 305.847C512.658 305.837 512.546 305.782 512.464 305.694C512.383 305.606 512.337 305.49 512.337 305.37C512.337 305.249 512.383 305.133 512.464 305.045C512.546 304.957 512.658 304.902 512.778 304.893C519.845 304.893 524.841 308.144 529.176 311.656C558.936 335.762 567.824 356.584 556.345 375.31C549.743 386.085 537.637 391.137 527.83 394.327C519.655 396.952 511.282 398.918 502.793 400.208C483.381 403.275 463.899 404.158 447.397 404.618L443.79 404.72C436.416 404.919 428.814 405.128 421.339 405.502C416.78 405.732 412.669 405.999 408.776 406.324C406.567 406.508 404.524 406.698 402.53 406.91C402.004 406.965 401.479 407.026 400.957 407.085L399.97 407.195C398.127 407.545 396.228 407.876 394.339 408.207C388.246 409.278 381.944 410.382 375.879 412.268C375.818 412.287 375.572 412.376 375.265 412.495L374.982 412.6C374.494 422.492 367.916 430.893 358.118 434.071C356.166 434.695 354.129 435.008 352.08 435.001Z" fill="#242426"/>
<path d="M382.709 260.214C375.413 260.214 368.115 258.085 362.317 253.965C362.262 253.931 362.216 253.887 362.18 253.836C362.145 253.785 362.121 253.728 362.111 253.669C362.101 253.609 362.104 253.548 362.121 253.49C362.138 253.431 362.167 253.376 362.208 253.329C362.249 253.281 362.3 253.242 362.358 253.213C362.416 253.185 362.48 253.167 362.546 253.162C362.612 253.157 362.678 253.164 362.741 253.183C362.804 253.202 362.862 253.233 362.911 253.273C372.361 259.991 385.937 261.262 396.683 256.427C396.798 256.376 396.93 256.368 397.05 256.406C397.171 256.444 397.27 256.523 397.327 256.628C397.383 256.732 397.391 256.853 397.35 256.963C397.309 257.073 397.221 257.164 397.107 257.215C392.621 259.206 387.696 260.232 382.709 260.214Z" fill="#242426"/>
<path d="M401.608 268.053C401.499 268.05 401.395 268.006 401.314 267.929C395.897 262.775 395.002 253.217 399.361 247.056C399.437 246.965 399.543 246.907 399.658 246.893C399.772 246.88 399.888 246.913 399.981 246.985C400.073 247.058 400.137 247.164 400.159 247.283C400.18 247.403 400.158 247.526 400.097 247.629C396.006 253.412 396.857 262.382 401.926 267.213C401.995 267.278 402.044 267.362 402.066 267.456C402.089 267.55 402.084 267.648 402.052 267.739C402.02 267.83 401.963 267.908 401.888 267.964C401.813 268.02 401.724 268.051 401.632 268.053H401.608Z" fill="#242426"/>
<path d="M448.324 308.027C461.063 293.39 480.58 284.814 500.054 285.318L448.324 308.027Z" fill="#F24E89"/>
<path d="M448.802 308.811C448.711 308.811 448.621 308.784 448.544 308.733C448.467 308.683 448.406 308.611 448.368 308.525C448.329 308.44 448.316 308.346 448.329 308.253C448.342 308.16 448.381 308.073 448.441 308.002C461.3 292.79 480.741 284.024 500.375 284.535C500.437 284.536 500.499 284.551 500.556 284.577C500.613 284.602 500.664 284.64 500.707 284.686C500.75 284.732 500.784 284.787 500.806 284.846C500.829 284.906 500.839 284.969 500.838 285.033C500.838 285.098 500.826 285.162 500.801 285.221C500.776 285.281 500.74 285.334 500.695 285.379C500.649 285.424 500.595 285.458 500.536 285.481C500.476 285.503 500.413 285.513 500.35 285.51C480.971 284.999 461.839 293.658 449.158 308.642C449.114 308.694 449.059 308.736 448.998 308.765C448.937 308.795 448.87 308.81 448.802 308.811Z" fill="#242426"/>
<path d="M495.799 311.945C495.712 311.945 495.628 311.918 495.555 311.868C495.483 311.819 495.426 311.748 495.392 311.666C495.358 311.584 495.347 311.493 495.362 311.405C495.377 311.316 495.416 311.234 495.475 311.168C497.608 308.838 500.359 307.209 503.383 306.485C503.442 306.464 503.505 306.455 503.567 306.46C503.63 306.466 503.691 306.484 503.746 306.515C503.8 306.546 503.848 306.589 503.886 306.641C503.924 306.692 503.951 306.751 503.965 306.814C503.98 306.877 503.981 306.943 503.969 307.006C503.957 307.07 503.932 307.13 503.896 307.183C503.86 307.236 503.814 307.28 503.76 307.313C503.706 307.347 503.646 307.368 503.584 307.375C500.73 308.057 498.134 309.593 496.121 311.791C496.08 311.838 496.031 311.876 495.975 311.903C495.92 311.929 495.86 311.944 495.799 311.945Z" fill="#242426"/>
<path d="M99.5032 317.934C99.1215 318.292 98.6075 318.31 97.6564 318.68C88.8011 322.092 86.6219 331.861 87.4468 340.43C87.8964 344.946 89.0265 349.368 90.7987 353.545C91.5641 355.46 92.5146 357.295 93.6366 359.024C94.5138 360.319 97.6964 362.821 97.2194 364.49C96.8654 365.723 92.8271 367.007 91.7283 367.46C86.8434 369.459 81.6376 370.554 76.3631 370.693C72.7096 370.791 65.1378 370.946 62.7955 367.401C61.7336 365.794 62.3276 361.056 62.2076 359.233C61.3745 346.585 60.5424 333.938 59.7113 321.293L55.6484 259.493L55.7408 259.472C61.2226 258.238 67.2154 258.432 72.6449 259.78C84.1873 262.658 92.2115 271.501 96.1882 282.507C99.574 291.854 100.383 302.023 100.233 311.897C100.211 313.344 100.54 315.543 100.066 316.904C99.963 317.287 99.7699 317.64 99.5032 317.934Z" fill="white"/>
<path d="M74.3998 371.513C70.4136 371.513 64.8943 371.082 62.8521 367.972C62.0119 366.7 62.1009 363.907 62.1714 361.665C62.1959 360.816 62.2205 360.08 62.1714 359.584L55.6493 260C55.6425 259.888 55.6749 259.777 55.741 259.687C55.8071 259.596 55.9027 259.532 56.0112 259.505L56.1124 259.48C61.4508 258.273 67.5129 258.384 73.1733 259.788C83.9912 262.492 92.6597 270.874 96.9587 282.778C99.9085 290.951 101.199 300.331 101.015 312.288C101.015 312.704 101.034 313.181 101.058 313.683C101.12 314.952 101.19 316.39 100.825 317.437C100.702 317.893 100.467 318.311 100.141 318.653C99.8062 318.932 99.4084 319.124 98.9824 319.213C98.7463 319.284 98.4704 319.37 98.1361 319.5C87.4838 323.608 87.8885 336.778 88.2687 340.717C88.7079 345.177 89.8215 349.545 91.5712 353.668C92.3282 355.553 93.2636 357.361 94.3646 359.067C94.7159 359.53 95.098 359.969 95.5083 360.381C96.8667 361.832 98.409 363.461 97.9951 364.923C97.6609 366.084 95.3427 367.039 92.9939 367.914C92.6873 368.031 92.4297 368.126 92.2488 368.2C87.3279 370.214 82.0853 371.32 76.7732 371.464C76.1016 371.492 75.2921 371.513 74.3998 371.513ZM56.6336 260.348L63.1403 359.525C63.1741 360.067 63.1403 360.822 63.125 361.699C63.0606 363.695 62.9748 366.426 63.6493 367.445C65.8663 370.808 73.4983 370.605 76.7548 370.525C81.9511 370.384 87.0795 369.302 91.8931 367.332C92.0771 367.255 92.3469 367.156 92.6658 367.024C93.8126 366.596 96.8575 365.459 97.0844 364.665C97.3481 363.741 95.8885 362.183 94.8184 361.047C94.3778 360.597 93.968 360.117 93.5919 359.612C92.4563 357.855 91.4911 355.992 90.7095 354.05C88.9221 349.834 87.7847 345.369 87.3366 340.809C86.2848 329.843 90.2005 321.545 97.8111 318.607C98.1729 318.468 98.4704 318.379 98.731 318.299C99.0144 318.247 99.2821 318.13 99.5129 317.957C99.7204 317.718 99.8695 317.433 99.9483 317.126C100.255 316.254 100.187 314.915 100.129 313.738C100.105 313.215 100.08 312.716 100.086 312.285C100.267 300.442 98.9947 291.173 96.1001 283.114C91.8471 271.342 83.6386 263.391 72.9771 260.727C67.6263 259.373 62.0413 259.243 56.6336 260.345V260.348Z" fill="#242426"/>
<path d="M55.3295 365.461L47.8444 263.507C47.4523 258.143 50.7193 253.496 55.1103 253.176C59.5013 252.869 63.4137 256.981 63.809 262.344L67.4836 312.419L71.2941 364.299C71.6863 369.659 68.4192 374.309 64.0282 374.629C59.6372 374.949 55.7248 370.822 55.3295 365.461Z" fill="#FFA9D8"/>
<path d="M63.1153 374.649C61.0438 374.649 59.0488 373.728 57.4461 372.033C55.6901 370.108 54.6462 367.637 54.4889 365.034L47.0607 263.224C46.65 257.594 50.0822 252.736 54.7218 252.398C56.9589 252.232 59.1683 253.153 60.9059 254.996C62.6619 256.92 63.7058 259.39 63.8631 261.992L71.2913 363.802C71.702 369.434 68.2698 374.293 63.6302 374.631C63.4586 374.643 63.287 374.649 63.1153 374.649ZM55.2213 253.335C55.0742 253.335 54.9149 253.335 54.777 253.335C50.6737 253.642 47.6368 258.033 48.0076 263.138L55.442 364.978C55.5804 367.362 56.5325 369.627 58.1387 371.391C59.6709 373.018 61.5923 373.848 63.5628 373.694C67.6661 373.387 70.7029 368.995 70.3321 363.888L62.9008 262.063C62.763 259.677 61.8097 257.411 60.2011 255.647C58.7822 254.145 57.0293 253.335 55.2213 253.335Z" fill="#242426"/>
<path d="M277.764 263.351C277.681 263.351 277.599 263.33 277.527 263.29C277.455 263.249 277.394 263.191 277.351 263.121C273.066 256.029 270.795 247.81 270.411 237.983C270.408 237.92 270.418 237.857 270.44 237.798C270.462 237.74 270.496 237.686 270.539 237.64C270.582 237.594 270.635 237.557 270.692 237.531C270.75 237.505 270.812 237.49 270.876 237.488C270.94 237.482 271.004 237.49 271.065 237.51C271.126 237.53 271.182 237.563 271.229 237.606C271.276 237.65 271.314 237.702 271.339 237.761C271.364 237.819 271.377 237.882 271.375 237.946C271.754 247.608 273.979 255.682 278.18 262.63C278.212 262.683 278.234 262.743 278.243 262.805C278.252 262.867 278.249 262.93 278.233 262.991C278.218 263.052 278.19 263.109 278.152 263.159C278.114 263.209 278.067 263.252 278.012 263.284C277.937 263.328 277.851 263.352 277.764 263.351Z" fill="#242426"/>
<path d="M430.015 164.594C429.927 164.595 429.842 164.573 429.766 164.533C429.69 164.492 429.627 164.434 429.583 164.363C429.539 164.293 429.516 164.212 429.516 164.131C429.515 164.049 429.538 163.969 429.581 163.898C432.939 158.387 437.779 153.793 443.621 150.57C443.677 150.533 443.741 150.508 443.809 150.495C443.877 150.483 443.946 150.483 444.014 150.497C444.081 150.511 444.145 150.537 444.2 150.575C444.256 150.613 444.303 150.661 444.338 150.717C444.373 150.772 444.396 150.834 444.404 150.898C444.412 150.962 444.406 151.027 444.387 151.089C444.367 151.151 444.334 151.208 444.289 151.257C444.245 151.306 444.19 151.347 444.128 151.375C438.436 154.515 433.721 158.991 430.448 164.36C430.405 164.432 430.342 164.491 430.265 164.532C430.189 164.574 430.103 164.595 430.015 164.594Z" fill="#242426"/>
<path d="M546.475 204.654C547.657 211.516 547.28 218.559 546.868 225.507C546.634 229.454 546.397 233.5 547.336 237.333C548.274 241.167 550.65 244.81 553.973 245.827C557.38 246.873 561.037 244.881 563.229 241.757C565.421 238.634 566.387 234.576 566.92 230.567C569.034 214.679 564.887 197.672 555.859 185.203C553.858 182.436 551.563 179.829 548.736 178.332C545.908 176.835 542.457 176.598 539.848 178.449C535.006 181.883 536.979 185.707 539.661 189.175C543.208 193.692 545.551 199.014 546.475 204.654Z" fill="white"/>
<path d="M521.313 170.902C522.056 172.181 523.153 173.223 524.475 173.905C525.797 174.588 527.289 174.883 528.774 174.755C530.252 174.579 531.644 173.975 532.775 173.017C533.905 172.059 534.723 170.791 535.125 169.373C535.473 167.942 535.366 166.439 534.819 165.069C534.272 163.7 533.312 162.53 532.07 161.72C526.256 158.134 517.648 164.423 521.313 170.902Z" fill="white"/>
<path d="M299.681 219.459C299.594 219.46 299.508 219.438 299.432 219.396C299.357 219.354 299.294 219.293 299.25 219.22C296.384 214.449 295.105 208.941 295.588 203.444C295.593 203.38 295.611 203.318 295.641 203.261C295.671 203.205 295.712 203.154 295.762 203.113C295.812 203.072 295.871 203.041 295.934 203.022C295.996 203.003 296.063 202.996 296.128 203.002C296.26 203.014 296.383 203.076 296.468 203.174C296.553 203.273 296.595 203.4 296.585 203.528C296.123 208.827 297.358 214.135 300.121 218.732C300.166 218.805 300.19 218.889 300.191 218.974C300.192 219.059 300.169 219.143 300.125 219.217C300.081 219.291 300.018 219.352 299.942 219.395C299.865 219.438 299.779 219.46 299.691 219.459H299.681Z" fill="#242426"/>
<path d="M265.412 257.081H265.368C265.238 257.07 265.118 257.009 265.034 256.912C264.95 256.814 264.909 256.688 264.92 256.561C265.487 250.021 267.297 243.643 270.257 237.755C270.286 237.698 270.325 237.648 270.374 237.606C270.422 237.564 270.478 237.532 270.539 237.512C270.6 237.492 270.665 237.483 270.729 237.487C270.793 237.491 270.856 237.508 270.914 237.536C270.972 237.563 271.023 237.602 271.066 237.649C271.109 237.697 271.141 237.752 271.162 237.812C271.183 237.871 271.191 237.935 271.187 237.998C271.183 238.061 271.166 238.122 271.138 238.179C268.232 243.96 266.455 250.223 265.898 256.645C265.887 256.764 265.831 256.874 265.741 256.955C265.651 257.036 265.534 257.081 265.412 257.081Z" fill="#242426"/>
<path d="M225.73 272.274C232.51 258.355 251.337 246.891 260.546 242.973C260.899 243.441 261.438 243.897 261.785 244.359C248.192 253.938 237.862 267.999 232.624 283.729C231.556 282.962 231.077 281.829 230.606 280.609C229.173 276.895 228.213 275.354 225.73 272.274Z" fill="#242426"/>
<path d="M376.215 363.589C370.983 365.168 365.684 368.289 360.212 368.24C349.62 368.148 358.329 368.476 347.041 368.347C314.728 364.083 269.746 341.065 244.009 321.14C244.009 320.873 242.188 321.084 242.188 320.833C243 320.753 243.942 320.646 244.754 320.566C262.314 334.033 282.351 344.277 303.736 350.071C327.515 356.514 351.669 361.391 376.215 363.589Z" fill="#242426"/>
<path d="M89.2333 327.621C89.6793 342.303 98.4066 356.449 111.299 363.396C106.426 363.874 101.55 363.804 96.7853 362.67C88.507 353.46 85.8099 339.541 89.2333 327.621Z" fill="#242426"/>
<path d="M133.537 311.945L178.704 313.783C178.324 315.011 178.091 318.494 178.002 319.783C162.823 319.716 147.625 319.585 132.461 318.837C133.282 317.242 133.763 313.756 133.537 311.945Z" fill="#242426"/>
<path d="M70.4819 354.27C70.7362 360.531 73.5736 366.444 78.3794 370.729C75.4987 370.726 72.6204 370.57 69.7578 370.263C70.4787 364.81 71.0265 359.729 70.4819 354.27Z" fill="#242426"/>
<path d="M257.172 228.353C256.313 201.6 261.561 179.934 275.109 156.756C268.36 169.857 267.899 179.99 267.514 194.683C267.128 209.376 268.927 224.038 270.733 238.629C269.645 239.131 268.626 239.338 267.539 239.837C263.564 236.346 260.009 232.796 257.172 228.353Z" fill="#242426"/>
<path d="M486.73 334.676C488.765 338.398 490.393 342.341 491.583 346.433C493.56 345.453 495.606 344.628 497.703 343.967C494.049 340.624 490.379 338.018 486.73 334.676Z" fill="#242426"/>
<path d="M597.745 257.638C580.982 261.249 581.694 264.629 580.113 288.846C580.106 288.943 580.063 289.035 579.993 289.103C579.923 289.171 579.83 289.211 579.732 289.216C579.633 289.22 579.537 289.189 579.461 289.128C579.384 289.066 579.333 288.979 579.318 288.883C575.459 264.841 576.852 261.392 559.957 258.85C559.865 258.835 559.782 258.789 559.72 258.72C559.659 258.65 559.624 258.562 559.621 258.47C559.618 258.378 559.648 258.287 559.705 258.215C559.761 258.142 559.842 258.09 559.932 258.07C576.624 254.463 575.034 251.109 577.324 226.862C577.336 226.766 577.383 226.677 577.456 226.613C577.529 226.549 577.624 226.514 577.721 226.514C577.819 226.514 577.913 226.549 577.986 226.613C578.06 226.677 578.107 226.766 578.119 226.862C581.25 250.916 580.76 254.334 597.72 256.877C597.805 256.896 597.881 256.944 597.937 257.011C597.992 257.078 598.023 257.161 598.026 257.248C598.029 257.335 598.003 257.42 597.952 257.491C597.901 257.561 597.828 257.613 597.745 257.638Z" fill="#FDDC68"/>
<path d="M579.301 290.001C579.093 290.003 578.891 289.928 578.733 289.791C578.575 289.654 578.472 289.464 578.443 289.256C578.044 286.742 577.701 284.446 577.391 282.355C574.705 264.349 574.295 261.581 559.579 259.332C559.377 259.3 559.193 259.198 559.059 259.044C558.924 258.891 558.846 258.694 558.84 258.489C558.834 258.283 558.899 258.082 559.025 257.92C559.15 257.758 559.328 257.646 559.527 257.602C574.065 254.414 574.304 251.624 575.84 233.485C576.021 231.375 576.214 229.064 576.453 226.528C576.471 226.312 576.568 226.11 576.727 225.962C576.885 225.814 577.093 225.732 577.308 225.731C577.525 225.722 577.736 225.796 577.9 225.938C578.064 226.081 578.168 226.281 578.191 226.497L578.66 230.186C581.325 251.3 581.665 254.012 597.288 256.388C597.49 256.419 597.674 256.52 597.809 256.674C597.944 256.828 598.022 257.024 598.029 257.23C598.035 257.435 597.97 257.636 597.845 257.798C597.72 257.961 597.542 258.073 597.343 258.118C581.904 261.494 581.732 264.222 580.411 285.463L580.178 289.17C580.167 289.387 580.075 289.591 579.921 289.743C579.767 289.896 579.563 289.984 579.347 289.991L579.301 290.001ZM560.149 258.458C575.141 260.808 575.647 264.194 578.332 282.219C578.614 284.11 578.921 286.164 579.27 288.397L579.461 285.41C580.751 264.67 580.993 260.781 596.721 257.277C580.803 254.806 580.316 250.929 577.713 230.312L577.336 227.338C577.127 229.596 576.953 231.662 576.79 233.571C575.251 251.736 574.963 255.146 560.149 258.458Z" fill="#242426"/>
<path d="M209.017 205.937C194.312 209.095 194.937 212.055 193.552 233.232C193.549 233.319 193.513 233.402 193.451 233.464C193.389 233.526 193.306 233.563 193.218 233.568C193.13 233.572 193.043 233.543 192.976 233.487C192.908 233.431 192.864 233.352 192.853 233.265C189.467 212.232 190.698 209.211 175.87 206.985C175.788 206.975 175.712 206.936 175.657 206.875C175.601 206.815 175.569 206.736 175.567 206.655C175.564 206.573 175.591 206.493 175.642 206.429C175.694 206.365 175.767 206.321 175.848 206.306C190.492 203.148 189.085 200.209 191.104 179.005C191.116 178.921 191.157 178.845 191.221 178.789C191.285 178.734 191.367 178.703 191.452 178.703C191.537 178.703 191.619 178.734 191.683 178.789C191.747 178.845 191.789 178.921 191.8 179.005C194.549 200.053 194.118 203.044 208.996 205.269C209.071 205.286 209.139 205.326 209.189 205.385C209.238 205.444 209.266 205.518 209.269 205.595C209.271 205.671 209.248 205.747 209.202 205.809C209.157 205.87 209.092 205.916 209.017 205.937Z" fill="#FDDC68"/>
<path d="M192.783 234.352C192.586 234.355 192.396 234.285 192.246 234.157C192.097 234.028 191.999 233.849 191.972 233.653C191.623 231.446 191.323 229.436 191.053 227.602C188.708 211.865 188.347 209.445 175.487 207.482C175.296 207.453 175.122 207.358 174.994 207.213C174.865 207.068 174.792 206.883 174.786 206.689C174.779 206.495 174.841 206.305 174.96 206.152C175.078 205.999 175.247 205.892 175.435 205.851C188.142 203.077 188.35 200.612 189.697 184.769C189.853 182.92 190.025 180.895 190.233 178.673C190.25 178.468 190.342 178.278 190.492 178.139C190.641 177.999 190.837 177.922 191.041 177.921C191.245 177.911 191.445 177.98 191.6 178.115C191.755 178.249 191.853 178.437 191.874 178.642L192.284 181.875C194.617 200.337 194.914 202.711 208.57 204.785C208.76 204.814 208.935 204.909 209.063 205.054C209.191 205.199 209.265 205.384 209.271 205.578C209.277 205.772 209.216 205.962 209.097 206.115C208.978 206.268 208.81 206.375 208.622 206.415C195.125 209.365 194.978 211.751 193.821 230.327L193.616 233.576C193.605 233.781 193.518 233.974 193.373 234.118C193.227 234.262 193.033 234.346 192.829 234.352H192.783ZM176.298 206.637C189.192 208.706 189.648 211.751 191.99 227.461C192.217 228.968 192.458 230.595 192.731 232.352L192.863 230.265C193.989 212.185 194.206 208.69 207.746 205.626C194.041 203.441 193.603 199.968 191.332 181.995L191.069 179.918C190.906 181.69 190.763 183.33 190.64 184.85C189.296 200.68 189.036 203.749 176.298 206.637Z" fill="#242426"/>
<path d="M250.64 88.4266C240.037 90.7727 240.487 92.9709 239.487 108.713C239.481 108.775 239.453 108.832 239.409 108.875C239.365 108.918 239.307 108.943 239.246 108.946C239.186 108.949 239.126 108.929 239.078 108.891C239.03 108.853 238.997 108.798 238.985 108.737C236.544 93.1004 237.421 90.856 226.736 89.2035C226.676 89.196 226.622 89.1671 226.581 89.122C226.541 89.0768 226.518 89.0184 226.516 88.9573C226.514 88.8962 226.534 88.8364 226.571 88.7888C226.609 88.7413 226.662 88.709 226.721 88.6979C237.294 86.3517 236.264 84.172 237.723 68.4086C237.732 68.3475 237.762 68.2919 237.808 68.2517C237.854 68.2115 237.913 68.1895 237.973 68.1895C238.034 68.1895 238.092 68.2115 238.138 68.2517C238.184 68.2919 238.215 68.3475 238.224 68.4086C240.206 84.0518 239.895 86.29 250.609 87.9271C250.664 87.9384 250.714 87.9679 250.751 88.0109C250.787 88.0539 250.809 88.1081 250.812 88.165C250.816 88.2219 250.801 88.2784 250.77 88.3257C250.738 88.373 250.693 88.4085 250.64 88.4266Z" fill="#FDDC68"/>
<path d="M239.218 108.942C239.043 108.943 238.873 108.882 238.739 108.769C238.605 108.657 238.516 108.5 238.488 108.328C238.229 106.714 238.006 105.241 237.805 103.897C236.032 92.2084 235.807 90.7016 226.36 89.2839C226.189 89.2585 226.032 89.1743 225.917 89.0461C225.802 88.9178 225.736 88.7536 225.731 88.582C225.725 88.4104 225.781 88.2423 225.887 88.107C225.994 87.9717 226.145 87.8778 226.314 87.8416C235.658 85.8225 235.788 84.3096 236.803 72.5321C236.92 71.1788 237.047 69.6966 237.202 68.0672C237.217 67.887 237.3 67.719 237.434 67.5964C237.568 67.4737 237.743 67.4052 237.925 67.4043C238.107 67.4025 238.283 67.4663 238.421 67.5837C238.558 67.7012 238.648 67.8642 238.674 68.0426L238.983 70.4086C240.706 83.834 240.926 85.5555 250.969 87.0591C251.139 87.0859 251.295 87.1706 251.409 87.2988C251.523 87.427 251.589 87.5906 251.595 87.7615C251.601 87.9325 251.546 88.1002 251.441 88.2357C251.336 88.3713 251.187 88.4663 251.019 88.5045C241.093 90.6525 240.981 92.3741 240.131 105.882L239.976 108.261C239.967 108.442 239.889 108.613 239.759 108.74C239.628 108.866 239.454 108.94 239.271 108.945L239.218 108.942ZM227.628 88.5106C236.682 90.0449 237.081 92.6932 238.764 103.743C238.881 104.511 239.005 105.323 239.135 106.18L239.16 105.812C239.982 92.7822 240.156 90.0419 249.676 87.811C240.032 86.1876 239.682 83.4657 238.024 70.519L237.975 70.1508C237.898 71.0131 237.83 71.8263 237.762 72.6057C236.793 83.7419 236.564 86.3994 227.628 88.5106Z" fill="#242426"/>
</svg>
