<svg width="155" height="22" viewBox="0 0 155 22" fill="none" xmlns="http://www.w3.org/2000/svg">
<path d="M0.932 21H6.7V13.916H12.888V9.688H6.7V5.432H14.456V0.979999H0.932V21ZM14.0476 21H19.3956L20.4596 17.276H27.0956L28.1596 21H34.2356L27.8796 0.979999H20.4596L14.0476 21ZM23.7916 5.628L25.9756 13.328H21.5796L23.7916 5.628ZM36.5336 21H41.5736V8.428L48.8816 21H54.4256V0.979999H49.4136V12.264L43.0016 0.979999H36.5336V21ZM62.1352 21H67.9032V5.404H73.0832V0.979999H56.9552V5.404H62.1352V21ZM72.2078 21H77.5558L78.6198 17.276H85.2558L86.3198 21H92.3958L86.0398 0.979999H78.6198L72.2078 21ZM81.9518 5.628L84.1358 13.328H79.7398L81.9518 5.628ZM101.62 21.336C106.772 21.336 109.684 18.34 109.684 14.672C109.684 10.332 107.08 9.016 102.012 8.456C99.5196 8.12 98.9036 7.616 98.9036 6.496C98.9036 5.488 99.6876 4.788 101.228 4.788C102.796 4.788 103.608 5.516 103.804 6.944H109.124C108.76 2.716 106.044 0.699999 101.228 0.699999C96.4396 0.699999 93.4716 3.332 93.4716 6.944C93.4716 10.976 95.3756 12.656 101.032 13.328C103.44 13.692 104.196 14.028 104.196 15.26C104.196 16.436 103.272 17.248 101.62 17.248C99.2396 17.248 98.5956 16.072 98.4556 14.644H92.9956C93.1636 18.984 96.0196 21.336 101.62 21.336ZM112.524 21H118.32V0.979999H112.524V21ZM122.256 21H136.536V16.576H127.968V12.936H134.436V8.848H127.968V5.404H136.088V0.979999H122.256V21ZM146.873 21.336C152.025 21.336 154.937 18.34 154.937 14.672C154.937 10.332 152.333 9.016 147.265 8.456C144.773 8.12 144.157 7.616 144.157 6.496C144.157 5.488 144.941 4.788 146.481 4.788C148.049 4.788 148.861 5.516 149.057 6.944H154.377C154.013 2.716 151.297 0.699999 146.481 0.699999C141.693 0.699999 138.725 3.332 138.725 6.944C138.725 10.976 140.629 12.656 146.285 13.328C148.693 13.692 149.449 14.028 149.449 15.26C149.449 16.436 148.525 17.248 146.873 17.248C144.493 17.248 143.849 16.072 143.709 14.644H138.249C138.417 18.984 141.273 21.336 146.873 21.336Z" fill="#652FEB"/>
</svg>
