<svg width="90" height="21" viewBox="0 0 90 21" fill="none" xmlns="http://www.w3.org/2000/svg">
<path d="M0.932 21H6.7V12.628L12.468 21H19.104L11.376 10.276L18.712 0.979999H12.72L6.7 8.904V0.979999H0.932V21ZM21.3604 21H27.1564V0.979999H21.3604V21ZM31.0922 21H36.1322V8.428L43.4402 21H48.9842V0.979999H43.9722V12.264L37.5602 0.979999H31.0922V21ZM52.8578 21H58.6258V12.628L64.3938 21H71.0298L63.3018 10.276L70.6378 0.979999H64.6458L58.6258 8.904V0.979999H52.8578V21ZM77.9902 21H83.7582V12.432L89.9742 0.979999H84.4862L81.0982 7.728L77.7102 0.979999H71.4662L77.9902 12.432V21Z" fill="#652FEB"/>
</svg>
