<svg width="176" height="180" viewBox="0 0 176 180" fill="none" xmlns="http://www.w3.org/2000/svg">
<path d="M102.53 31.7402L125.443 12.2487L124.49 42.3155L124.426 44.3228L126.369 43.8141L155.47 36.1944L141.566 62.8701L140.638 64.6511L142.609 65.0357L172.134 70.797L148.032 88.7982L146.423 90L148.032 91.2018L172.134 109.203L142.609 114.964L140.638 115.349L141.566 117.13L155.47 143.806L126.369 136.186L124.426 135.677L124.49 137.685L125.443 167.751L102.53 148.26L101 146.959L100.187 148.795L88 176.297L75.8132 148.795L74.9996 146.959L73.4699 148.26L50.557 167.751L51.51 137.685L51.5736 135.677L49.6308 136.186L20.53 143.806L34.4341 117.13L35.3624 115.349L33.3913 114.964L3.86624 109.203L27.9676 91.2018L29.5767 90L27.9676 88.7982L3.86625 70.797L33.3913 65.0357L35.3624 64.6511L34.4341 62.8701L20.53 36.1945L49.6308 43.8141L51.5736 44.3228L51.51 42.3155L50.557 12.2487L73.4699 31.7402L74.9996 33.0415L75.8132 31.2053L88 3.70259L100.187 31.2053L101 33.0415L102.53 31.7402Z" stroke="#0A0517" stroke-width="3"/>
</svg>
