<svg width="267" height="273" viewBox="0 0 267 273" fill="none" xmlns="http://www.w3.org/2000/svg">
<path d="M133.5 0L154.063 46.4064L192.725 13.5177L191.117 64.2506L240.22 51.3936L216.759 96.4046L266.578 106.126L225.91 136.5L266.578 166.874L216.759 176.595L240.22 221.606L191.117 208.749L192.725 259.482L154.063 226.594L133.5 273L112.937 226.594L74.2749 259.482L75.883 208.749L26.78 221.606L50.241 176.595L0.422333 166.874L41.0895 136.5L0.422333 106.126L50.241 96.4046L26.78 51.3936L75.883 64.2506L74.2749 13.5177L112.937 46.4064L133.5 0Z" fill="white"/>
</svg>
