<svg width="60" height="60" viewBox="0 0 60 60" fill="none" xmlns="http://www.w3.org/2000/svg">
<path d="M-1.35588e-06 30L3.16977 26.977L0.752161 23.3244L4.51515 21.0825L2.97093 16.9835L7.13844 15.6351L6.54505 11.2953L10.9081 10.9081L11.2953 6.54505L15.6351 7.13845L16.9835 2.97093L21.0825 4.51515L23.3244 0.752162L26.977 3.16977L30 -1.26827e-06L33.023 3.16977L36.6756 0.752161L38.9175 4.51515L43.0165 2.97093L44.3649 7.13844L48.7047 6.54505L49.0919 10.9081L53.4549 11.2953L52.8616 15.6351L57.0291 16.9835L55.4848 21.0825L59.2478 23.3244L56.8302 26.977L60 30L56.8302 33.023L59.2478 36.6756L55.4848 38.9175L57.0291 43.0165L52.8616 44.3649L53.4549 48.7047L49.0919 49.0919L48.7047 53.4549L44.3649 52.8616L43.0165 57.0291L38.9175 55.4848L36.6756 59.2478L33.023 56.8302L30 60L26.977 56.8302L23.3244 59.2478L21.0825 55.4848L16.9835 57.0291L15.6351 52.8616L11.2953 53.4549L10.9081 49.0919L6.54505 48.7047L7.13845 44.3649L2.97093 43.0165L4.51515 38.9175L0.752162 36.6756L3.16977 33.023L-1.35588e-06 30Z" fill="#F24EA7"/>
<path d="M45.1454 30.7141C45.5398 30.3274 45.546 29.6943 45.1594 29.2999L38.8588 22.8732C38.4722 22.4788 37.839 22.4726 37.4447 22.8592C37.0503 23.2458 37.044 23.879 37.4307 24.2733L43.0312 29.986L37.3185 35.5865C36.9242 35.9731 36.9179 36.6063 37.3045 37.0006C37.6911 37.395 38.3243 37.4013 38.7187 37.0147L45.1454 30.7141ZM44.4552 29L16.6813 28.7248L16.6614 30.7247L44.4354 31L44.4552 29Z" fill="#1D1D1B"/>
</svg>
