<svg width="213" height="209" viewBox="0 0 213 209" fill="none" xmlns="http://www.w3.org/2000/svg">
<path d="M141.887 40.141L174.484 26.1991L165.556 60.5097L165.245 61.7054L166.479 61.7605L201.897 63.3424L178.966 90.3815L178.167 91.3238L179.255 91.909L210.479 108.702L178.088 123.114L176.959 123.616L177.685 124.615L198.531 153.292L163.094 152.223L161.859 152.186L162.08 153.401L168.419 188.283L136.955 171.944L135.859 171.375L135.53 172.566L126.107 206.744L104.848 178.371L104.107 177.383L103.295 178.313L79.9753 205.018L73.1323 170.231L72.8938 169.019L71.7579 169.505L39.1611 183.447L48.0891 149.136L48.4002 147.941L47.1659 147.885L11.7481 146.303L34.6787 119.264L35.4778 118.322L34.3897 117.737L3.16571 100.944L35.5573 86.5322L36.6861 86.03L35.9596 85.0306L15.1138 56.3535L50.5508 57.4228L51.7857 57.46L51.5648 56.2444L45.2259 21.3626L76.6896 37.7015L77.7861 38.2709L78.1145 37.0798L87.538 2.90203L108.797 31.2745L109.537 32.2632L110.35 31.3326L133.67 4.62815L140.513 39.4146L140.751 40.6269L141.887 40.141Z" stroke="white" stroke-width="2"/>
</svg>
