<svg width="108" height="110" viewBox="0 0 108 110" fill="none" xmlns="http://www.w3.org/2000/svg">
<path d="M54 0L62.2856 18.6986L77.8636 5.44671L77.2156 25.8885L97.0007 20.7081L87.5476 38.8443L107.621 42.7613L91.235 55L107.621 67.2386L87.5476 71.1557L97.0007 89.2919L77.2156 84.1115L77.8636 104.553L62.2856 91.3014L54 110L45.7144 91.3014L30.1364 104.553L30.7844 84.1115L10.9993 89.2919L20.4524 71.1557L0.378963 67.2386L16.765 55L0.378963 42.7613L20.4524 38.8443L10.9993 20.7081L30.7844 25.8885L30.1364 5.44671L45.7144 18.6986L54 0Z" fill="white"/>
</svg>
