<svg width="102" height="105" viewBox="0 0 102 105" fill="none" xmlns="http://www.w3.org/2000/svg">
<path d="M68.6346 38.1991C59.0927 32.7921 46.8608 36.2571 41.3138 45.9385C35.7668 55.6199 39.0053 67.8515 48.5472 73.2585C58.089 78.6656 70.3209 75.2005 75.8679 65.5191C81.4149 55.8377 78.1765 43.6062 68.6346 38.1991Z" stroke="white" stroke-width="2" stroke-linecap="round" stroke-linejoin="round"/>
<path d="M20.0586 33.4824L40.843 45.4823" stroke="white" stroke-width="2" stroke-linecap="round" stroke-linejoin="round"/>
<path d="M19.9863 33.6094L23.7197 47.1422" stroke="white" stroke-width="2" stroke-linecap="round" stroke-linejoin="round"/>
<path d="M20.0586 33.4824L33.6473 29.9486" stroke="white" stroke-width="2" stroke-linecap="round" stroke-linejoin="round"/>
<path d="M70.3516 98.0215L64.14 74.8397" stroke="white" stroke-width="2" stroke-linecap="round" stroke-linejoin="round"/>
<path d="M58.1035 90.9492L77.4224 85.7728" stroke="white" stroke-width="2" stroke-linecap="round" stroke-linejoin="round"/>
<path d="M83.2363 17.2988L71.2352 38.0854" stroke="#F9F3E9" stroke-width="2" stroke-linecap="round" stroke-linejoin="round"/>
<path d="M83.5332 34.7793L72.9418 17.1393" stroke="#F9F3E9" stroke-width="2" stroke-linecap="round" stroke-linejoin="round"/>
<path d="M67.9434 26.1211L88.5316 25.7947" stroke="#F9F3E9" stroke-width="2" stroke-linecap="round" stroke-linejoin="round"/>
</svg>
