<svg width="90" height="40" viewBox="0 0 90 40" fill="none" xmlns="http://www.w3.org/2000/svg">
<path fill-rule="evenodd" clip-rule="evenodd" d="M86.5851 34.5113C87.2952 33.2461 88.1184 32.2351 88.6735 31.6802L89.3971 32.3929C88.9074 32.8824 88.1402 33.8195 87.475 35.0046C86.8978 36.033 86.4117 37.2228 86.2362 38.4495C86.2376 38.4573 86.2389 38.4651 86.2403 38.4729L86.2327 38.4742C86.2076 38.6546 86.1892 38.8357 86.1782 39.0172L85.6332 38.9835L85.2491 39.1828C84.9241 38.5678 84.2349 37.5686 83.2471 36.6319C82.2597 35.6956 81.0014 34.8477 79.5408 34.4863L79.785 33.5059C81.471 33.923 82.8807 34.8884 83.9498 35.9021C84.2843 36.2194 84.5883 36.544 84.8595 36.862C82.0292 25.7267 71.8667 22.0605 66.9362 21.9096C64.31 21.8292 61.5983 22.1019 59.2824 22.6614C59.0632 22.7144 58.8482 22.7697 58.6377 22.8274C58.7285 23.26 58.8061 23.691 58.8721 24.1177C59.1963 26.2114 58.7965 27.6902 57.9463 28.5995C57.0966 29.5082 55.8916 29.7458 54.8357 29.5495C53.7924 29.3556 52.7933 28.7178 52.3775 27.7443C51.9414 26.7234 52.2158 25.511 53.3743 24.3476C54.2898 23.4281 55.7303 22.6879 57.4328 22.1322C56.3854 18.0244 54.0223 14.1228 48.8629 12.6159L48.8579 12.6144L48.8529 12.6128C46.2382 11.7905 42.6809 11.6855 38.5554 11.7486C37.4867 11.7649 36.3814 11.7924 35.249 11.8206C32.0442 11.9004 28.6217 11.9857 25.1928 11.8381C15.9081 11.4384 6.35091 9.32776 0.398664 0.623491L1.2409 0.0574452C6.91122 8.34943 16.0369 10.4326 25.2346 10.8285C28.6255 10.9745 31.9956 10.8906 35.191 10.811C36.331 10.7826 37.4488 10.7548 38.5373 10.7382C42.6425 10.6754 46.3587 10.7703 49.1534 11.648C54.7671 13.2898 57.2994 17.5445 58.4076 21.8415C58.6154 21.785 58.8261 21.731 59.0393 21.6795C61.4503 21.097 64.254 20.8166 66.9652 20.8995C72.1379 21.0579 82.6701 24.837 85.7584 36.2771C85.9945 35.6468 86.2812 35.0527 86.5851 34.5113ZM54.0995 25.0586C54.848 24.3069 56.0905 23.645 57.6601 23.1229C57.7385 23.5052 57.8066 23.8878 57.8656 24.2689C58.1623 26.1852 57.7635 27.3075 57.199 27.9112C56.634 28.5155 55.8083 28.7026 55.0209 28.5563C54.2209 28.4076 53.5641 27.9352 53.3149 27.3519C53.0861 26.816 53.1376 26.0247 54.0995 25.0586Z" fill="black"/>
</svg>
