<svg width="102" height="104" viewBox="0 0 102 104" fill="none" xmlns="http://www.w3.org/2000/svg">
<path d="M51.9143 4.59488L51 2.5316L50.0857 4.59488L43.5477 19.3496L31.2554 8.89278L29.5365 7.43052L29.608 9.68615L30.1193 25.8164L14.5072 21.7286L12.3241 21.157L13.3672 23.1582L20.8265 37.4692L4.98687 40.56L2.77188 40.9922L4.57998 42.3427L17.5099 52L4.57998 61.6573L2.77188 63.0078L4.98687 63.44L20.8265 66.5308L13.3672 80.8418L12.3241 82.843L14.5072 82.2714L30.1193 78.1836L29.608 94.3139L29.5365 96.5695L31.2554 95.1072L43.5477 84.6504L50.0857 99.4051L51 101.468L51.9143 99.4051L58.4523 84.6504L70.7446 95.1072L72.4635 96.5695L72.392 94.3139L71.8807 78.1836L87.4928 82.2714L89.6759 82.843L88.6329 80.8418L81.1735 66.5308L97.0131 63.44L99.2281 63.0078L97.42 61.6573L84.4901 52L97.42 42.3427L99.2281 40.9922L97.0131 40.56L81.1735 37.4692L88.6329 23.1582L89.6759 21.157L87.4928 21.7286L71.8807 25.8164L72.392 9.68615L72.4635 7.43052L70.7446 8.89278L58.4523 19.3496L51.9143 4.59488Z" stroke="black" stroke-width="2"/>
</svg>
