<svg width="75" height="75" viewBox="0 0 75 75" fill="none" xmlns="http://www.w3.org/2000/svg">
<path opacity="0.3" d="M37.5 0L43.1493 12.749L53.7706 3.71367L53.3288 17.6513L66.8187 14.1191L60.3733 26.4848L74.0598 29.1555L62.8875 37.5L74.0598 45.8445L60.3733 48.5152L66.8187 60.8809L53.3288 57.3487L53.7706 71.2863L43.1493 62.251L37.5 75L31.8507 62.251L21.2294 71.2863L21.6712 57.3487L8.18132 60.8809L14.6267 48.5152L0.940205 45.8445L12.1125 37.5L0.940205 29.1555L14.6267 26.4848L8.18132 14.1191L21.6712 17.6513L21.2294 3.71367L31.8507 12.749L37.5 0Z" fill="white"/>
</svg>
