<svg width="111" height="184" viewBox="0 0 111 184" fill="none" xmlns="http://www.w3.org/2000/svg">
<path d="M30.5 183C60.3789 155.5 36 108 39.5 86C41.2702 73.1663 51 67.2149 60.3789 64.3184C75.718 59.5814 72.3093 80.1674 62.731 73.1663C57.8008 69.5627 53.6508 58.8733 52.4105 48.4604C51.1703 38.0475 56 15 80.5 7" stroke="black" stroke-width="2"/>
<path fill-rule="evenodd" clip-rule="evenodd" d="M66.1791 3.29415C67.4279 4.21145 69.6479 5.51693 72.3326 6.52925C74.2084 7.23656 76.3458 7.81394 78.5616 8.00107C77.6685 8.89039 76.7127 9.98446 75.824 11.244C74.1517 13.6142 72.6738 16.6317 72.3498 20.0271L74.3408 20.2171C74.6214 17.2757 75.9136 14.5862 77.4582 12.397C79.0034 10.207 80.7583 8.57896 81.8673 7.76931L81.367 7.08405L81.2735 6.01301C78.4586 6.25876 75.5557 5.60712 73.0383 4.65788C70.5236 3.70967 68.4646 2.49138 67.3632 1.6823L66.1791 3.29415Z" fill="black"/>
</svg>
