<svg width="514" height="337" viewBox="0 0 514 337" fill="none" xmlns="http://www.w3.org/2000/svg">
<path d="M356.568 41.5723L407.18 33.3371L410.837 67.094L410.929 67.9454L411.784 67.9853L463.494 70.393L451.163 102.97L450.771 104.006L451.842 104.291L499.535 116.964L472.543 145.353L471.651 146.292L472.785 146.918L511.929 168.5L472.785 190.082L471.651 190.708L472.543 191.647L499.535 220.036L451.842 232.709L450.771 232.994L451.163 234.03L463.494 266.607L411.784 269.015L410.929 269.055L410.837 269.906L407.18 303.663L356.568 295.428L355.908 295.32L355.557 295.889L336.012 327.507L291.632 309.369L291.096 309.15L290.639 309.506L257 335.732L223.361 309.506L222.904 309.15L222.368 309.369L177.988 327.507L158.443 295.889L158.092 295.32L157.432 295.428L106.82 303.663L103.163 269.906L103.071 269.055L102.216 269.015L50.5057 266.607L62.8369 234.03L63.229 232.994L62.1585 232.709L14.4654 220.036L41.4565 191.647L42.3494 190.708L41.2146 190.082L2.07111 168.5L41.2146 146.918L42.3494 146.292L41.4565 145.353L14.4654 116.964L62.1585 104.291L63.229 104.006L62.8369 102.97L50.5057 70.393L102.216 67.9853L103.071 67.9454L103.163 67.094L106.82 33.3371L157.432 41.5723L158.092 41.6797L158.443 41.1111L177.988 9.49297L222.368 27.6312L222.904 27.8503L223.361 27.4941L257 1.26802L290.639 27.4941L291.096 27.8503L291.632 27.6312L336.012 9.49297L355.557 41.1111L355.908 41.6797L356.568 41.5723Z" stroke="white" stroke-width="2"/>
</svg>
