<svg width="238" height="137" viewBox="0 0 238 137" fill="none" xmlns="http://www.w3.org/2000/svg">
<path d="M0.423982 128.52C0.423982 132.969 4.03061 136.576 8.47962 136.576L229.52 136.576C233.969 136.576 237.576 132.969 237.576 128.52L237.576 37.7555C237.576 33.3065 233.969 29.6999 229.52 29.6999L85.7122 29.6999L78.8307 29.6999C74.2995 29.6998 70.0879 27.3659 67.6859 23.5238L53.5657 0.937265C53.0689 0.142648 51.8404 0.622125 52.0132 1.54318L56.2606 24.1758C56.7993 27.0462 54.5973 29.6998 51.6768 29.6998L42.8561 29.6998L8.47964 29.6998C4.03064 29.6998 0.424 33.3065 0.423999 37.7555L0.423982 128.52Z" fill="#150E25" fill-opacity="1" stroke="white" stroke-width="1"/>
</svg>
