<svg width="740" height="283" viewBox="0 0 740 283" fill="none" xmlns="http://www.w3.org/2000/svg">
<path d="M1 263C1 273.493 9.50659 282 20 282L720 282C730.493 282 739 273.494 739 263L739 83.0001C739 72.5067 730.493 64.0001 720 64.0001L266.5 64L236.05 64C227.563 64 219.447 60.5202 213.595 54.3723L164.246 2.52341C162.805 1.00937 160.3 2.44195 160.874 4.45172L173.882 49.9781C175.89 57.0051 170.613 64 163.305 64L133.25 64L20 64C9.50663 64 1.00004 72.5066 1.00004 83L1 263Z" fill="#150E25" fill-opacity="1" stroke="white" stroke-width="2"/>
</svg>
