<svg width="11" height="100" viewBox="0 0 11 100" fill="none" xmlns="http://www.w3.org/2000/svg">
<path d="M6.19015 6.99071C6.19888 7.1505 6.20574 7.27598 6.21113 7.4015C6.23083 7.8605 6.23083 8.32009 6.23082 10.4603V10.5814C6.23082 11.9712 5.94502 12.942 5.5191 13.6834C5.09321 14.4247 4.49994 14.9851 3.79034 15.5299C2.33357 16.6207 1.07024 18.2183 0.878438 20.2047L0.867019 20.2048C0.867453 20.24 0.868221 20.275 0.869319 20.3098C0.858726 20.4475 0.853286 20.5871 0.853286 20.7284H0.899204C1.19434 23.353 3.43734 24.738 5.34099 25.9134L5.43957 25.9743C7.57747 27.2951 9.27123 28.3908 9.27123 30.5985C9.27123 32.7941 7.4986 33.89 5.29052 35.2225L5.24359 35.2508C3.16046 36.5078 0.663317 38.0145 0.868353 41.0405C1.05814 43.8416 3.3806 45.087 5.32341 46.1288L5.35679 46.1467C7.38871 47.2364 9.0219 48.1311 9.276 50.1432C9.57498 52.5107 7.8197 53.8035 5.54901 55.3665L5.38864 55.4768C3.25776 56.9416 0.723874 58.6833 0.867598 61.8296C1.00325 64.7991 3.36485 66.326 5.36808 67.6212L5.49124 67.7009C7.5957 69.0628 9.27123 70.207 9.27123 72.47C9.27123 74.1513 8.30977 75.2539 6.93801 76.2798L6.93005 76.2858C6.13706 76.8942 5.37102 77.5978 4.81307 78.569C4.2544 79.5415 3.93166 80.7337 3.93166 82.2947C3.93166 86.1654 3.93167 88.3585 4.03643 92.8767L0 92.9556L5.07429 100L9.7578 92.765L5.72654 92.8437C5.62222 88.3428 5.62222 86.1601 5.62222 82.2954C5.62222 80.9055 5.90802 79.9341 6.33394 79.1927C6.75983 78.4514 7.35311 77.891 8.06273 77.3462C9.60553 76.1915 10.9618 74.7323 10.9618 72.47C10.9618 69.4418 8.5862 67.9045 6.55735 66.5917L6.51925 66.567C4.40597 65.1993 2.66077 64.0485 2.55689 61.7745C2.44674 59.3633 4.33535 58.0443 6.61683 56.4739L6.64772 56.4526C8.8137 54.9617 11.363 53.2069 10.957 49.9917C10.6134 47.2709 8.30948 46.037 6.39726 45.0129L6.26278 44.9408C4.24331 43.8578 2.69214 42.966 2.55614 40.9589C2.40925 38.791 4.07498 37.7113 6.27313 36.3848L6.42314 36.2943C8.47852 35.0557 10.9618 33.5593 10.9618 30.5985C10.9618 27.6156 8.54757 26.1245 6.51504 24.8692L6.43747 24.8213C4.34589 23.529 2.66256 22.4512 2.56191 20.3386C2.70531 18.7987 3.68555 17.5158 4.91503 16.5963L4.92299 16.5903C5.71598 15.9819 6.48201 15.2783 7.03996 14.3071C7.59864 13.3346 7.92137 12.1424 7.92137 10.5814C7.92137 7.71535 7.92076 7.70392 7.87782 6.90304C7.83873 6.17376 7.76454 4.78988 7.62376 0L5.93373 0.0354566C6.07769 4.93383 6.1519 6.29113 6.19015 6.99071Z" fill="black"/>
</svg>
