<svg width="13" height="141" viewBox="0 0 13 141" fill="none" xmlns="http://www.w3.org/2000/svg">
<path fill-rule="evenodd" clip-rule="evenodd" d="M7.31342 10.7633C7.32376 10.9871 7.33187 11.1628 7.33825 11.3385C7.36155 11.9812 7.36155 12.6248 7.36154 15.6215V15.7911C7.36154 17.7372 7.02343 19.0966 6.51954 20.1347C6.0157 21.1728 5.31383 21.9575 4.47434 22.7203C2.75093 24.2476 1.25637 26.4846 1.02944 29.266L1.01596 29.2661C1.01647 29.3154 1.01737 29.3643 1.01867 29.4129C1.00612 29.6059 0.999676 29.8014 0.999676 29.9994H1.05404C1.40323 33.6745 4.05677 35.6137 6.30886 37.2596L6.42549 37.3448C8.95472 39.1944 10.9585 40.7286 10.9585 43.8199C10.9585 46.8943 8.86141 48.4288 6.24916 50.2946L6.19364 50.3343C3.7292 52.0943 0.774968 54.2041 1.01753 58.4413C1.24207 62.3634 3.98963 64.1073 6.28807 65.5661L6.32756 65.5912C8.73141 67.1171 10.6636 68.3698 10.9642 71.1872C11.3179 74.5024 9.24129 76.3125 6.55496 78.5012L6.36523 78.6556C3.84431 80.7066 0.846609 83.1455 1.01664 87.5511C1.17712 91.7091 3.97101 93.8472 6.34091 95.6608L6.48661 95.7723C8.97629 97.6794 10.9585 99.2815 10.9585 102.45C10.9585 104.805 9.82107 106.348 8.19821 107.785L8.19816 107.785L8.18879 107.793C7.25065 108.645 6.3444 109.63 5.68432 110.99C5.02338 112.352 4.64157 114.021 4.64157 116.207C4.64157 121.627 4.64158 124.698 4.76551 131.025L-0.00976562 131.135L5.99335 140.999L11.5342 130.868L6.76499 130.978C6.64157 124.676 6.64157 121.62 6.64157 116.208V116.207C6.64157 114.261 6.97968 112.902 7.48357 111.864C7.98742 110.826 8.6893 110.041 9.5288 109.278C11.354 107.661 12.9585 105.618 12.9585 102.45C12.9585 98.21 10.1481 96.0575 7.74787 94.2191L7.7028 94.1846C5.20269 92.2695 3.13804 90.658 3.01515 87.474C2.88484 84.0976 5.11915 82.2508 7.81824 80.0517L7.85479 80.0219C10.4172 77.9343 13.4332 75.4772 12.9529 70.9751C12.5464 67.1653 9.82073 65.4375 7.55848 64.0035L7.39938 63.9027C5.01026 62.3861 3.17516 61.1375 3.01427 58.327C2.84048 55.2913 4.81112 53.7796 7.41162 51.9221L7.5891 51.7955C10.0207 50.0611 12.9585 47.9658 12.9585 43.8199C12.9585 39.6431 10.1024 37.5553 7.69782 35.7975L7.60605 35.7304C5.13155 33.9209 3.14005 32.4116 3.02108 29.4532C3.19082 27.2972 4.35045 25.501 5.8049 24.2135L5.80495 24.2135L5.81432 24.205C6.75246 23.3532 7.65871 22.368 8.31879 21.0081C8.97973 19.6464 9.36154 17.9769 9.36154 15.7911C9.36154 11.778 9.36082 11.762 9.31002 10.6405C9.26377 9.61938 9.17599 7.68161 9.00945 0.974609L7.01007 1.02426C7.18038 7.88317 7.26817 9.78373 7.31342 10.7633Z" fill="black"/>
</svg>
