<svg width="151" height="148" viewBox="0 0 151 148" fill="none" xmlns="http://www.w3.org/2000/svg">
<path d="M100.782 28.3592L123.298 18.7291L117.131 42.4285L116.82 43.6242L118.054 43.6793L142.518 44.772L126.679 63.4487L125.88 64.391L126.968 64.9762L148.536 76.5753L126.162 86.5302L125.033 87.0325L125.759 88.0318L140.158 107.84L115.681 107.101L114.446 107.064L114.667 108.28L119.045 132.374L97.3124 121.088L96.2159 120.519L95.8875 121.71L89.3784 145.317L74.6945 125.72L73.9536 124.731L73.141 125.661L57.0335 144.107L52.3068 120.079L52.0683 118.867L50.9324 119.352L28.4168 128.983L34.5836 105.283L34.8947 104.088L33.6605 104.032L9.1963 102.94L25.0352 84.263L25.8343 83.3207L24.7461 82.7355L3.17879 71.1364L25.5526 61.1815L26.6815 60.6793L25.955 59.6799L11.5561 39.8717L36.0336 40.6103L37.2685 40.6476L37.0476 39.432L32.6691 15.338L54.402 26.6238L55.4985 27.1932L55.8269 26.0021L62.336 2.3945L77.02 21.9922L77.7608 22.981L78.5735 22.0503L94.681 3.60476L99.4076 27.6328L99.6461 28.8451L100.782 28.3592Z" fill="white" stroke="white" stroke-width="2"/>
</svg>
