<svg width="145" height="144" viewBox="0 0 145 144" fill="none" xmlns="http://www.w3.org/2000/svg">
<path d="M81.9197 51.5118C90.9893 57.8167 93.2305 70.2801 86.9256 79.3496C80.6207 88.4191 68.1573 90.6603 59.0878 84.3554C50.0183 78.0506 47.7771 65.5872 54.082 56.5177C60.3868 47.4481 72.8502 45.207 81.9197 51.5118Z" stroke="white" stroke-width="3" stroke-linecap="round" stroke-linejoin="round"/>
<path d="M107.037 93.3301L87.3309 79.6309" stroke="white" stroke-width="3" stroke-linecap="round" stroke-linejoin="round"/>
<path d="M98.8262 77.6221L98.8262 97.6221" stroke="white" stroke-width="3" stroke-linecap="round" stroke-linejoin="round"/>
<path d="M108.484 85.0342L89.1659 90.2106" stroke="white" stroke-width="3" stroke-linecap="round" stroke-linejoin="round"/>
<path d="M60.6589 54.5483C51.0161 49.1609 38.8317 52.6106 33.4444 62.2535C28.057 71.8963 31.5067 84.0806 41.1495 89.468C50.7923 94.8553 62.9767 91.4056 68.3641 81.7628C73.7514 72.12 70.3017 59.9357 60.6589 54.5483Z" stroke="white" stroke-width="3" stroke-linecap="round" stroke-linejoin="round"/>
<path d="M12.0625 50.3076L33.0143 62.0132" stroke="white" stroke-width="3" stroke-linecap="round" stroke-linejoin="round"/>
<path d="M29.7812 50.8008L11.8057 59.5689" stroke="white" stroke-width="3" stroke-linecap="round" stroke-linejoin="round"/>
<path d="M18.8828 45.3691L22.6998 65.0015" stroke="white" stroke-width="3" stroke-linecap="round" stroke-linejoin="round"/>
<path d="M25.5537 137.558L22.4757 137.892L17.1385 131.916L17.8409 138.394L15.1387 138.687L13.7534 125.91L16.4555 125.617L17.1269 131.809L21.0367 125.12L23.9178 124.808L19.9306 131.451L25.5537 137.558ZM29.7494 124.176C30.8827 124.053 31.8428 124.057 32.6296 124.189C33.4271 124.308 34.0425 124.585 34.476 125.021C34.9202 125.444 35.1856 126.055 35.2722 126.854C35.324 127.331 35.2937 127.775 35.1812 128.186C35.0688 128.596 34.8771 128.943 34.606 129.226C34.3468 129.507 34.0124 129.707 33.6026 129.823L33.6123 129.913C34.0508 129.95 34.4547 130.057 34.824 130.234C35.1932 130.411 35.5013 130.692 35.748 131.075C35.9948 131.459 36.1544 131.985 36.2269 132.653C36.311 133.428 36.1925 134.117 35.8715 134.719C35.5612 135.308 35.0703 135.79 34.3987 136.165C33.7259 136.527 32.9063 136.761 31.94 136.866L27.162 137.384L25.7767 124.607L29.7494 124.176ZM30.6027 129.207C31.3901 129.122 31.9193 128.938 32.1904 128.655C32.4734 128.371 32.589 127.99 32.5373 127.513C32.4843 127.024 32.2672 126.691 31.886 126.515C31.5048 126.339 30.9265 126.293 30.151 126.377L28.7194 126.533L29.0279 129.378L30.6027 129.207ZM29.2607 131.525L29.6216 134.854L31.3932 134.662C32.2045 134.574 32.7544 134.357 33.0428 134.012C33.33 133.655 33.4452 133.214 33.3882 132.689C33.3533 132.367 33.2513 132.094 33.0823 131.871C32.9252 131.647 32.6725 131.487 32.3243 131.392C31.976 131.297 31.5155 131.281 30.9429 131.343L29.2607 131.525ZM43.9633 135.562L38.1474 136.193L37.9805 134.654L39.4598 133.769L38.5634 125.501L36.9289 124.954L36.762 123.415L42.5779 122.785L42.7448 124.324L41.2655 125.208L42.1619 133.476L43.7964 134.023L43.9633 135.562ZM48.8354 122.106C50.4817 121.928 51.7195 122.156 52.5487 122.79C53.3885 123.411 53.8757 124.342 54.0102 125.583C54.071 126.144 54.0457 126.69 53.9343 127.221C53.8216 127.74 53.5904 128.224 53.2407 128.672C52.9016 129.107 52.4282 129.472 51.8205 129.767C51.2128 130.063 50.4437 130.261 49.5131 130.361L48.35 130.488L48.8428 135.033L46.1406 135.326L44.7553 122.549L48.8354 122.106ZM48.9328 124.341L47.698 124.475L48.1094 128.269L49.0041 128.172C49.5171 128.116 49.9514 128.002 50.307 127.831C50.6626 127.66 50.9263 127.42 51.0981 127.112C51.2698 126.803 51.3311 126.423 51.282 125.969C51.2134 125.337 50.99 124.89 50.6117 124.63C50.2321 124.357 49.6725 124.261 48.9328 124.341ZM65.6942 125.855L69.0763 125.488L69.284 127.403L65.9018 127.77L66.2665 131.134L64.3518 131.342L63.987 127.977L60.6048 128.344L60.3972 126.429L63.7794 126.063L63.4107 122.663L65.3255 122.455L65.6942 125.855ZM87.3303 130.86L84.2523 131.194L78.9151 125.218L79.6175 131.696L76.9153 131.989L75.53 119.212L78.2321 118.919L78.9035 125.111L82.8133 118.422L85.6944 118.11L81.7072 124.753L87.3303 130.86ZM91.526 117.478C92.6593 117.355 93.6194 117.359 94.4062 117.491C95.2037 117.61 95.8192 117.887 96.2527 118.323C96.6968 118.746 96.9622 119.357 97.0489 120.156C97.1006 120.633 97.0703 121.077 96.9579 121.488C96.8455 121.898 96.6537 122.245 96.3826 122.528C96.1235 122.809 95.789 123.008 95.3792 123.125L95.3889 123.215C95.8274 123.252 96.2313 123.359 96.6006 123.536C96.9698 123.713 97.2779 123.994 97.5247 124.377C97.7714 124.761 97.9311 125.287 98.0035 125.955C98.0876 126.73 97.9691 127.419 97.6482 128.021C97.3378 128.61 96.8469 129.092 96.1754 129.466C95.5025 129.829 94.6829 130.063 93.7166 130.168L88.9386 130.686L87.5533 117.908L91.526 117.478ZM92.3793 122.509C93.1667 122.424 93.6959 122.24 93.967 121.957C94.25 121.673 94.3657 121.292 94.3139 120.815C94.2609 120.326 94.0438 119.993 93.6626 119.817C93.2814 119.641 92.7031 119.595 91.9276 119.679L90.496 119.835L90.8045 122.68L92.3793 122.509ZM91.0374 124.827L91.3982 128.156L93.1699 127.964C93.9811 127.876 94.531 127.659 94.8195 127.314C95.1066 126.957 95.2218 126.516 95.1649 125.991C95.1299 125.669 95.028 125.396 94.8589 125.173C94.7018 124.949 94.4491 124.789 94.1009 124.694C93.7526 124.599 93.2921 124.583 92.7195 124.645L91.0374 124.827ZM105.74 128.864L99.924 129.495L99.7571 127.956L101.236 127.071L100.34 118.803L98.7055 118.256L98.5386 116.717L104.355 116.087L104.521 117.626L103.042 118.51L103.939 126.778L105.573 127.325L105.74 128.864ZM110.612 115.408C112.258 115.23 113.496 115.458 114.325 116.092C115.165 116.713 115.652 117.644 115.787 118.885C115.848 119.446 115.822 119.991 115.711 120.523C115.598 121.042 115.367 121.525 115.017 121.974C114.678 122.409 114.205 122.774 113.597 123.069C112.989 123.364 112.22 123.563 111.29 123.663L110.127 123.79L110.619 128.335L107.917 128.628L106.532 115.851L110.612 115.408ZM110.709 117.643L109.475 117.777L109.886 121.571L110.781 121.474C111.294 121.418 111.728 121.304 112.084 121.133C112.439 120.962 112.703 120.722 112.875 120.414C113.046 120.105 113.108 119.724 113.059 119.271C112.99 118.639 112.767 118.192 112.388 117.932C112.009 117.659 111.449 117.563 110.709 117.643Z" fill="white"/>
</svg>
