<svg width="184" height="184" viewBox="0 0 184 184" fill="none" xmlns="http://www.w3.org/2000/svg">
<path d="M116.78 46.3592L139.296 36.7291L133.129 60.4285L132.818 61.6242L134.052 61.6793L158.516 62.772L142.677 81.4487L141.878 82.391L142.966 82.9762L164.534 94.5753L142.16 104.53L141.031 105.032L141.758 106.032L156.156 125.84L131.679 125.101L130.444 125.064L130.665 126.28L135.043 150.374L113.31 139.088L112.214 138.519L111.886 139.71L105.376 163.317L90.6925 143.72L89.9517 142.731L89.139 143.661L73.0315 162.107L68.3049 138.079L68.0664 136.867L66.9304 137.352L44.4149 146.983L50.5817 123.283L50.8928 122.088L49.6585 122.032L25.1943 120.94L41.0332 102.263L41.8323 101.321L40.7442 100.736L19.1768 89.1364L41.5507 79.1815L42.6795 78.6793L41.953 77.6799L27.5542 57.8717L52.0316 58.6103L53.2666 58.6476L53.0456 57.432L48.6672 33.338L70.4001 44.6238L71.4966 45.1932L71.825 44.0021L78.3341 20.3945L93.018 39.9922L93.7589 40.981L94.5715 40.0503L110.679 21.6048L115.406 45.6328L115.644 46.8451L116.78 46.3592Z" fill="white" stroke="white" stroke-width="2"/>
<path d="M67.9635 76.47L65.3887 69.3882L68.101 70.115L70.5054 77.207L72.1173 71.1912L74.5688 71.848L72.9569 77.8638L78.5851 72.9242L81.2975 73.651L75.5267 78.4965L78.2145 86.1303L75.3979 85.3756L72.929 77.9682L71.2425 84.2621L68.791 83.6052L70.4774 77.3113L64.6356 82.4918L61.8189 81.7371L67.9635 76.47ZM84.4278 87.7951L78.7772 86.281L79.1778 84.7858L80.8768 84.4956L83.0291 76.463L81.7029 75.3622L82.1035 73.867L87.7542 75.381L87.3535 76.8763L85.6545 77.1665L83.5022 85.1991L84.8285 86.2999L84.4278 87.7951ZM96.7145 91.0873L94.0891 90.3839L95.524 85.0288L90.6036 83.7103L89.1687 89.0654L86.5433 88.362L89.8696 75.9479L92.495 76.6514L91.1906 81.5196L96.111 82.838L97.4154 77.9698L100.041 78.6733L96.7145 91.0873ZM109.957 94.6357L106.967 93.8344L104.15 86.3338L102.463 92.6277L99.838 91.9243L103.164 79.5102L105.79 80.2137L104.178 86.2294L110.241 81.4063L113.04 82.1564L106.921 86.9087L109.957 94.6357ZM119.118 97.0902L119.005 93.8922L114.485 92.681L112.789 95.3944L109.955 94.6351L117.677 83.3428L120.893 84.2047L121.952 97.8496L119.118 97.0902ZM118.84 88.388C118.835 88.1754 118.827 87.906 118.815 87.5798C118.803 87.2536 118.792 86.9216 118.784 86.5838C118.775 86.2459 118.772 85.9534 118.776 85.706C118.656 85.9223 118.498 86.1903 118.3 86.5101C118.117 86.8214 117.938 87.1211 117.761 87.4092C117.599 87.6889 117.478 87.8862 117.397 88.0013L115.737 90.6499L118.971 91.5164L118.84 88.388ZM70.0439 96.6086C69.5455 96.475 69.0728 96.454 68.6259 96.5454C68.1906 96.64 67.7899 96.837 67.424 97.1365C67.0611 97.4244 66.7402 97.8105 66.4614 98.2948C66.1941 98.7823 65.9735 99.3505 65.7996 99.9996C65.5635 100.881 65.466 101.662 65.5069 102.344C65.5625 103.017 65.7787 103.578 66.1554 104.027C66.532 104.476 67.0797 104.796 67.7984 104.989C68.3084 105.126 68.8281 105.203 69.3576 105.22C69.8986 105.241 70.4927 105.226 71.1398 105.176L70.5481 107.384C69.9443 107.459 69.3618 107.476 68.8007 107.438C68.2396 107.399 67.6286 107.291 66.9679 107.114C65.6929 106.773 64.708 106.229 64.0132 105.484C63.3331 104.73 62.9233 103.826 62.7839 102.77C62.6476 101.702 62.7503 100.531 63.0919 99.2555C63.3435 98.3166 63.7008 97.493 64.1639 96.7848C64.6301 96.0649 65.1827 95.4862 65.8217 95.0487C66.4723 94.6143 67.1989 94.3369 68.0014 94.2165C68.8155 94.0992 69.692 94.1663 70.6309 94.4179C71.2452 94.5825 71.8378 94.8282 72.4086 95.1551C72.9942 95.4735 73.5352 95.8421 74.0317 96.2609L72.6068 98.1712C72.2021 97.8267 71.7839 97.5097 71.3522 97.2201C70.932 96.9335 70.4959 96.7297 70.0439 96.6086ZM85.655 105.264C85.3972 106.226 85.041 107.069 84.5864 107.792C84.1465 108.506 83.607 109.082 82.968 109.52C82.3406 109.96 81.6098 110.23 80.7756 110.33C79.953 110.432 79.0375 110.349 78.0291 110.078C77.0207 109.808 76.1801 109.421 75.5075 108.918C74.8495 108.406 74.3516 107.807 74.0139 107.12C73.6908 106.425 73.5132 105.651 73.481 104.797C73.4604 103.947 73.5789 103.041 73.8367 102.079C74.1815 100.792 74.6898 99.7294 75.3618 98.8907C76.0453 98.0552 76.8917 97.4931 77.9008 97.2044C78.9245 96.9073 80.1145 96.9404 81.4707 97.3038C82.8153 97.664 83.8508 98.2272 84.5772 98.9934C85.3068 99.7479 85.7513 100.662 85.9108 101.736C86.085 102.801 85.9997 103.977 85.655 105.264ZM76.5965 102.837C76.3636 103.706 76.2734 104.483 76.3259 105.168C76.3784 105.853 76.5915 106.426 76.9651 106.886C77.3386 107.347 77.8905 107.675 78.6208 107.87C79.3742 108.072 80.022 108.066 80.5641 107.85C81.1178 107.639 81.5828 107.248 81.9592 106.678C82.3471 106.111 82.6576 105.393 82.8905 104.523C83.2415 103.213 83.2729 102.122 82.9849 101.25C82.6968 100.378 81.9964 99.7926 80.8837 99.4945C80.1418 99.2957 79.4941 99.3023 78.9404 99.5142C78.3866 99.7261 77.9158 100.116 77.5279 100.682C77.1399 101.249 76.8295 101.967 76.5965 102.837ZM96.0425 114.719L93.4171 114.015L96.1565 103.792L93.1138 102.977C92.9014 103.491 92.6708 104.05 92.4219 104.655C92.1846 105.262 91.9327 105.878 91.666 106.502C91.4141 107.118 91.1641 107.703 90.9161 108.258C90.6711 108.801 90.4433 109.28 90.2326 109.696C89.8893 110.374 89.5219 110.934 89.1302 111.376C88.7501 111.82 88.3041 112.117 87.7923 112.266C87.2919 112.417 86.6941 112.4 85.9986 112.214C85.7668 112.152 85.5512 112.075 85.3519 111.985C85.1526 111.894 84.9679 111.795 84.798 111.687L85.3757 109.531C85.5139 109.618 85.648 109.697 85.7777 109.769C85.9191 109.844 86.0767 109.905 86.2506 109.952C86.4824 110.014 86.6939 109.99 86.8849 109.88C87.076 109.769 87.2776 109.55 87.4898 109.222C87.7051 108.882 87.9577 108.403 88.2475 107.785C88.38 107.522 88.5551 107.147 88.7729 106.658C88.9938 106.159 89.2496 105.575 89.5403 104.907C89.8457 104.231 90.1665 103.497 90.503 102.706C90.8425 101.902 91.184 101.068 91.5275 100.203L99.3689 102.305L96.0425 114.719ZM112.109 112.352C111.851 113.314 111.495 114.157 111.04 114.88C110.6 115.594 110.061 116.17 109.422 116.608C108.794 117.048 108.063 117.318 107.229 117.418C106.407 117.521 105.491 117.437 104.483 117.167C103.474 116.896 102.634 116.51 101.961 116.006C101.303 115.495 100.805 114.895 100.467 114.208C100.144 113.513 99.9667 112.739 99.9345 111.885C99.9139 111.035 100.032 110.129 100.29 109.167C100.635 107.88 101.143 106.818 101.815 105.979C102.499 105.143 103.345 104.581 104.354 104.293C105.378 103.995 106.568 104.029 107.924 104.392C109.269 104.752 110.304 105.315 111.031 106.082C111.76 106.836 112.205 107.75 112.364 108.824C112.539 109.89 112.453 111.066 112.109 112.352ZM103.05 109.925C102.817 110.794 102.727 111.571 102.779 112.256C102.832 112.941 103.045 113.514 103.419 113.974C103.792 114.435 104.344 114.763 105.074 114.958C105.828 115.16 106.476 115.154 107.018 114.939C107.571 114.727 108.036 114.336 108.413 113.766C108.801 113.199 109.111 112.481 109.344 111.611C109.695 110.302 109.726 109.211 109.438 108.338C109.15 107.466 108.45 106.881 107.337 106.583C106.595 106.384 105.948 106.39 105.394 106.602C104.84 106.814 104.369 107.204 103.981 107.771C103.593 108.338 103.283 109.056 103.05 109.925Z" fill="#0A0517"/>
</svg>
