<svg width="260" height="260" viewBox="0 0 260 260" fill="none" xmlns="http://www.w3.org/2000/svg">
<circle cx="116.7" cy="84.1939" r="60" transform="rotate(30 116.7 84.1939)" fill="white"/>
<path d="M42.0422 123.92L40.856 121.474L45.3258 119.306C44.7584 118.741 44.2765 118.201 43.8801 117.687C43.489 117.183 43.1547 116.645 42.8771 116.073C42.3534 114.993 42.2013 114.02 42.4211 113.153C42.6568 112.292 43.2605 111.625 44.2323 111.154L49.0098 108.837L50.1961 111.282L46.1149 113.262C45.5535 113.534 45.1952 113.868 45.0402 114.263C44.8852 114.658 44.957 115.164 45.2555 115.779C45.4755 116.233 45.744 116.663 46.0611 117.069C46.3783 117.475 46.7702 117.912 47.2369 118.379L52.4193 115.865L53.6056 118.311L42.0422 123.92Z" fill="white"/>
<path d="M59.3833 136.995C58.6112 137.624 57.8293 138.099 57.0376 138.419C56.2627 138.741 55.4882 138.892 54.714 138.873C53.9473 138.863 53.1967 138.655 52.4621 138.247C51.7351 137.849 51.0418 137.245 50.3823 136.436C49.7227 135.626 49.2675 134.821 49.0166 134.019C48.7826 133.219 48.7297 132.442 48.8578 131.687C49.0028 130.934 49.312 130.203 49.7853 129.492C50.2663 128.79 50.8928 128.125 51.6649 127.496C52.6974 126.654 53.7315 126.09 54.7672 125.803C55.8105 125.526 56.8257 125.565 57.8129 125.922C58.8169 126.28 59.7624 127.003 60.6494 128.092C61.5287 129.171 62.0387 130.234 62.1794 131.28C62.3294 132.319 62.1547 133.32 61.6556 134.284C61.1733 135.25 60.4159 136.154 59.3833 136.995ZM53.4589 129.726C52.7612 130.294 52.2333 130.871 51.875 131.458C51.5167 132.044 51.3543 132.633 51.3878 133.225C51.4212 133.817 51.6768 134.406 52.1543 134.992C52.6471 135.596 53.1762 135.97 53.7416 136.113C54.3146 136.265 54.9205 136.22 55.5593 135.978C56.2056 135.746 56.8776 135.345 57.5753 134.777C58.6264 133.92 59.2905 133.054 59.5674 132.178C59.8444 131.302 59.619 130.418 58.8912 129.525C58.4061 128.929 57.877 128.555 57.304 128.403C56.731 128.251 56.1213 128.291 55.475 128.524C54.8286 128.756 54.1566 129.157 53.4589 129.726Z" fill="white"/>
<path d="M68.7379 153.299L66.5822 151.644L73.0285 143.249L70.5301 141.331C70.1368 141.725 69.7095 142.153 69.2482 142.616C68.7964 143.086 68.3278 143.558 67.8424 144.033C67.3738 144.505 66.9187 144.95 66.4772 145.367C66.0429 145.775 65.6488 146.131 65.295 146.434C64.7181 146.929 64.1642 147.305 63.6332 147.563C63.1118 147.829 62.5862 147.932 62.0564 147.873C61.5361 147.822 60.9905 147.577 60.4194 147.138C60.2291 146.992 60.0592 146.839 59.9098 146.679C59.7604 146.519 59.6279 146.356 59.5121 146.192L60.8715 144.421C60.966 144.555 61.0594 144.679 61.1517 144.795C61.2535 144.919 61.3758 145.036 61.5186 145.145C61.7089 145.291 61.9135 145.35 62.1322 145.321C62.3509 145.293 62.6212 145.167 62.9429 144.945C63.272 144.714 63.6887 144.368 64.1932 143.908C64.4162 143.716 64.7218 143.437 65.11 143.069C65.5055 142.692 65.9653 142.251 66.4895 141.746C67.0305 141.238 67.6081 140.683 68.2222 140.08C68.8436 139.468 69.4785 138.829 70.1269 138.161L76.5655 143.106L68.7379 153.299Z" fill="white"/>
<path d="M89.8542 157.039C89.4456 157.947 88.959 158.722 88.3945 159.363C87.8458 159.998 87.221 160.48 86.5201 160.809C85.8302 161.144 85.0656 161.293 84.2262 161.258C83.3978 161.227 82.5076 160.998 81.5555 160.569C80.6034 160.141 79.8357 159.625 79.2523 159.02C78.6848 158.41 78.2894 157.738 78.0661 157.006C77.8586 156.268 77.8074 155.475 77.9123 154.628C78.0282 153.785 78.2904 152.91 78.6991 152.001C79.2455 150.787 79.9176 149.819 80.7152 149.099C81.5238 148.384 82.4493 147.964 83.4916 147.841C84.5498 147.712 85.719 147.935 86.9995 148.511C88.2689 149.082 89.2008 149.804 89.7951 150.677C90.3944 151.539 90.6867 152.512 90.6721 153.598C90.6733 154.677 90.4007 155.824 89.8542 157.039ZM81.3017 153.192C80.9325 154.013 80.719 154.765 80.661 155.45C80.6031 156.134 80.7217 156.734 81.0167 157.248C81.3116 157.762 81.8039 158.174 82.4933 158.485C83.2046 158.805 83.8451 158.902 84.4147 158.777C84.9952 158.656 85.5169 158.345 85.9797 157.842C86.4535 157.345 86.8749 156.686 87.2442 155.865C87.8005 154.628 88.0063 153.556 87.8618 152.649C87.7172 151.742 87.1196 151.052 86.069 150.58C85.3686 150.265 84.7282 150.167 84.1477 150.288C83.5671 150.408 83.04 150.717 82.5662 151.215C82.0925 151.712 81.671 152.371 81.3017 153.192Z" fill="white"/>
<path d="M101.96 153.646C103.078 153.868 103.992 154.161 104.703 154.522C105.428 154.875 105.933 155.324 106.215 155.87C106.512 156.406 106.582 157.068 106.425 157.857C106.332 158.328 106.17 158.742 105.939 159.1C105.709 159.458 105.422 159.731 105.079 159.92C104.747 160.111 104.368 160.2 103.942 160.189L103.925 160.277C104.332 160.444 104.685 160.667 104.984 160.947C105.283 161.227 105.493 161.587 105.614 162.027C105.734 162.467 105.729 163.016 105.597 163.675C105.445 164.44 105.125 165.062 104.639 165.54C104.166 166.009 103.553 166.321 102.8 166.477C102.05 166.621 101.198 166.598 100.244 166.409L95.531 165.47L98.0406 152.866L101.96 153.646ZM101.265 158.702C102.042 158.856 102.602 158.839 102.945 158.651C103.301 158.464 103.525 158.136 103.619 157.665C103.715 157.183 103.607 156.8 103.297 156.518C102.986 156.236 102.448 156.019 101.683 155.866L100.27 155.585L99.7116 158.392L101.265 158.702ZM99.2898 160.511L98.636 163.794L100.384 164.142C101.184 164.301 101.774 164.26 102.152 164.017C102.533 163.763 102.775 163.376 102.878 162.859C102.942 162.541 102.926 162.25 102.832 161.987C102.749 161.726 102.556 161.497 102.252 161.302C101.948 161.107 101.514 160.953 100.949 160.841L99.2898 160.511Z" fill="white"/>
<path d="M118.402 168.108L112.553 168.003L112.581 166.456L114.159 165.764L114.309 157.449L112.756 156.701L112.784 155.153L118.633 155.259L118.605 156.806L117.026 157.498L116.877 165.813L118.43 166.561L118.402 168.108Z" fill="white"/>
<path d="M136.211 166.074L133.155 166.569L127.511 160.883L128.553 167.315L125.87 167.749L123.815 155.063L126.498 154.628L127.494 160.776L131.046 153.891L133.907 153.428L130.275 160.271L136.211 166.074Z" fill="white"/>
<path d="M153.794 151.573L156.808 149.996L157.701 151.702L154.687 153.279L156.255 156.278L154.549 157.171L152.98 154.172L149.966 155.749L149.073 154.043L152.087 152.466L150.502 149.435L152.208 148.543L153.794 151.573Z" fill="white"/>
<path d="M172.374 138.814L164.905 137.815L166.806 135.748L174.205 136.903L169.62 132.687L171.338 130.819L175.923 135.035L174.153 127.758L176.053 125.691L177.674 133.05L185.684 134.205L183.71 136.352L176.002 135.108L180.798 139.518L179.08 141.387L174.284 136.976L176.168 144.553L174.195 146.7L172.374 138.814Z" fill="white"/>
<path d="M191.802 124.104L188.789 129.118L187.462 128.32L187.652 126.607L180.524 122.323L179.1 123.295L177.773 122.497L180.787 117.483L182.114 118.281L181.924 119.994L189.052 124.277L190.476 123.306L191.802 124.104Z" fill="white"/>
<path d="M198.931 107.592L197.982 110.139L192.787 108.204L191.009 112.977L196.204 114.913L195.255 117.46L183.212 112.973L184.16 110.426L188.883 112.185L190.662 107.412L185.939 105.652L186.888 103.105L198.931 107.592Z" fill="white"/>
<path d="M202.48 88.6493L202.059 91.7165L194.97 95.4494L201.425 96.3352L201.056 99.028L188.323 97.2807L188.692 94.5879L194.863 95.4347L189.319 90.0227L189.713 87.1516L195.193 92.6276L202.48 88.6493Z" fill="white"/>
<path d="M202.02 72.938L199.043 74.1094L199.407 78.7752L202.53 79.4702L202.759 82.3953L189.539 78.8775L189.28 75.5576L201.792 70.0129L202.02 72.938ZM193.908 76.099C193.709 76.1747 193.458 76.2726 193.154 76.3926C192.851 76.5125 192.541 76.633 192.226 76.7539C191.91 76.8749 191.635 76.9746 191.401 77.0531C191.644 77.0942 191.95 77.1546 192.317 77.2343C192.672 77.3029 193.014 77.3724 193.345 77.4429C193.662 77.5024 193.889 77.5509 194.024 77.5885L197.075 78.2712L196.814 74.9333L193.908 76.099Z" fill="white"/>
<path d="M85.025 63.4614C79.5631 73.1055 82.8921 85.2899 92.4604 90.6759C102.029 96.062 114.213 92.6102 119.675 82.9661C125.137 73.322 121.808 61.1376 112.239 55.7516C102.671 50.3655 90.4868 53.8173 85.025 63.4614Z" stroke="black" stroke-width="3" stroke-linecap="round" stroke-linejoin="round"/>
<path d="M80.6504 112.055L92.356 91.1029" stroke="black" stroke-width="3" stroke-linecap="round" stroke-linejoin="round"/>
<path d="M76.7969 98.4473L94.2567 108.202" stroke="black" stroke-width="3" stroke-linecap="round" stroke-linejoin="round"/>
<path d="M127.223 104.688C138.137 101.573 144.864 90.6064 142.25 80.1934C139.635 69.7804 128.669 63.8644 117.755 66.9796C106.841 70.0948 100.114 81.0615 102.728 91.4745C105.343 101.887 116.309 107.804 127.223 104.688Z" stroke="black" stroke-width="3" stroke-linecap="round" stroke-linejoin="round"/>
<path d="M165.465 74.3184L142.283 80.53" stroke="black" stroke-width="3" stroke-linecap="round" stroke-linejoin="round"/>
<path d="M165.428 74.1768L153.218 67.2472" stroke="black" stroke-width="3" stroke-linecap="round" stroke-linejoin="round"/>
<path d="M165.465 74.3184L158.356 86.4243" stroke="black" stroke-width="3" stroke-linecap="round" stroke-linejoin="round"/>
</svg>
