<svg width="354" height="556" viewBox="0 0 354 556" fill="none" xmlns="http://www.w3.org/2000/svg">
<g filter="url(#filter0_b_1_16578)">
<path d="M-216 1H204L40 135H-170H-380L-216 1Z" fill="white" fill-opacity="0.2" stroke="black" stroke-width="2" stroke-linejoin="round"/>
<path d="M204 421L204 1L40 135L40 341L40 555L204 421Z" fill="white" fill-opacity="0.2" stroke="black" stroke-width="2" stroke-linejoin="round"/>
<rect x="-380" y="135" width="420" height="420" fill="white" fill-opacity="0.2" stroke="black" stroke-width="2" stroke-linejoin="round"/>
</g>
<path d="M125.099 151.269C125.369 151.211 125.643 151.149 125.918 151.088L125.942 151.868C126.434 152.952 127.618 153.174 128.429 153.867C134.877 159.356 138.433 166.681 141.502 174.329L141.465 175.602C140.83 175.848 140.203 176.123 139.56 176.337C127.52 180.34 115.484 184.355 103.423 188.3C102.051 188.752 101.317 189.405 100.936 190.854C97.8927 202.494 95.6033 214.32 94.0827 226.256C93.5378 230.509 93.1199 234.779 92.6447 239.049C93.5173 239.147 94.0294 238.753 94.5701 238.499C107.155 232.546 119.724 226.556 132.317 220.623C139.162 217.396 146.049 214.256 152.919 211.078L152.919 211.686C151.928 212.145 151.633 212.79 151.85 213.96C153.644 223.629 154.607 233.412 155.365 243.204C156.332 255.742 156.774 268.309 156.508 280.884C156.397 286.135 156.426 291.403 155.848 296.637L155.807 298.366C136.446 309.976 117.079 321.571 97.7041 333.152C96.2293 334.03 95.7787 334.839 96.1187 336.547C97.6385 344.253 99.4247 351.894 101.264 359.538L100.568 359.949C97.9171 351.327 96.0859 342.529 94.6234 333.648C90.0843 306.092 89.0847 278.368 90.7643 250.52C92.0138 229.84 94.7422 209.386 100.523 189.442C103.39 179.588 106.836 169.961 112.505 161.311C115.201 157.205 118.413 153.621 123.116 151.708C123.469 151.508 123.876 151.426 124.279 151.474C124.631 151.843 124.91 151.737 125.099 151.269Z" fill="#17263F"/>
<path d="M155.809 298.35L155.85 296.622C156.526 297.488 157.079 296.721 157.57 296.425C159.852 295.095 162.077 293.658 164.383 292.393C165.559 291.753 165.96 290.936 165.932 289.634C165.903 288.152 166.108 286.67 166.21 285.188C166.411 285.188 166.62 285.188 166.812 285.188L166.812 290.402C167.738 290.497 168.189 290.016 168.693 289.717C180.486 282.6 192.275 275.484 204.059 268.368C210.061 264.73 216.3 261.388 221.945 257.283C227.699 253.028 233.668 249.073 239.827 245.434C243.809 243.102 248.049 241.23 251.269 237.667C257.324 230.962 262.74 223.79 267.976 216.445C271.413 211.613 272.134 211.588 275.677 216.355C274.792 218.116 274.555 216.326 274.317 216.018C272.048 213.066 271.429 213.046 269.286 216.121C265.149 222.057 260.835 227.867 256.177 233.401C253.236 236.895 250.442 240.594 246.345 242.844C241.74 245.373 237.16 247.939 232.715 250.735C229.688 252.639 226.714 254.627 224.014 257.176C231.691 256.655 238.418 259.89 245.395 262.062C249.168 263.236 252.953 264.377 256.706 265.609C258.094 266.065 258.397 265.658 258.172 264.324C257.865 262.505 257.685 260.67 257.418 258.847C257.029 256.166 257.849 254.007 259.672 251.946C263.83 247.245 267.717 242.31 271.4 237.219C271.951 236.454 272.35 235.59 272.576 234.674C273.76 230.158 274.084 225.436 276.263 221.212C276.402 220.945 276.292 220.551 276.3 220.214C276.504 220.233 276.708 220.184 276.881 220.074C277.054 219.964 277.185 219.8 277.254 219.606C278.434 217.361 280.241 215.62 281.925 213.781L283.322 212.894C287.455 210.972 288.074 211.326 287.693 215.768C286.169 233.614 284.596 251.457 281.388 269.103C281.265 269.764 281.2 270.433 281.068 271.406C285.489 269.497 289.671 267.633 293.391 265.071C298.135 261.807 303.473 259.964 308.725 257.89C313.035 256.187 317.426 254.692 321.675 252.824C323.514 252.003 325.513 251.925 327.484 251.753C332.369 251.256 337.296 251.324 342.166 251.958C345.706 252.467 347.492 254.536 347.492 257.821C347.492 259.11 347.037 259.561 345.779 259.8C339.634 260.97 333.489 262.226 327.344 263.515C324.124 264.158 321.061 265.43 318.332 267.259C313.952 270.248 309.491 273.097 304.333 276.111C308.274 276.275 311.626 276.324 314.96 276.566C325.345 277.318 335.747 277.979 345.87 280.672C347.992 281.243 350.019 282.088 351.556 283.747C352.67 284.95 353.448 286.309 352.711 288.017C351.998 289.659 350.54 289.696 349.065 289.593C344.706 289.294 340.355 288.941 335.997 288.682C334.301 288.579 332.592 288.682 330.753 288.682C331.572 289.774 332.461 290.821 333.178 291.966C334.374 293.9 334.686 295.899 333.285 297.923C332.465 299.085 331.683 299.479 330.228 298.773C326.492 296.967 323.01 294.565 318.913 293.584C315.136 292.677 311.359 291.634 307.521 291.194C304.936 290.899 302.232 291.474 299.598 291.794C294.927 292.369 290.274 293.067 285.608 293.67C284.53 293.811 283.529 294.308 282.764 295.082C279.897 297.784 276.619 299.422 272.47 299.266C260.257 298.802 248.119 297.981 236.067 295.67C229.778 294.467 223.568 295.514 218.242 299.668C198.988 314.695 180.143 330.259 161.085 345.568C160.008 346.434 159.746 347.543 159.471 348.742C156.763 360.496 153.326 372 147.533 382.653C144.608 388.032 141.188 393.04 135.883 396.415C133.547 397.893 130.922 398.39 128.128 398.468C134.727 397.236 139.41 393.328 143.154 388.023C145.804 384.208 148.065 380.136 149.901 375.867C153.724 367.151 156.39 358.057 158.541 348.799C158.591 348.419 158.62 348.037 158.627 347.654C154.739 350.786 151.098 353.722 147.452 356.653C147.165 356.583 146.874 356.509 146.587 356.44C149.139 354.284 151.655 352.084 154.248 349.986C173.732 334.245 193.23 318.525 212.744 302.825C215.448 300.658 217.951 298.092 221.175 296.725C226.911 294.298 232.711 293.986 238.959 295.255C250.061 297.505 261.4 298.043 272.728 298.391C274.37 298.452 276.006 298.17 277.533 297.562C279.06 296.954 280.444 296.034 281.597 294.861C282.966 293.526 284.754 292.708 286.656 292.545C292.064 291.884 297.459 291.153 302.969 290.435C295.038 286.469 286.292 287.151 277.529 285.607C277.826 285.338 278.181 285.144 278.567 285.039C278.953 284.934 279.358 284.922 279.749 285.003C283.682 285.414 287.611 285.878 291.544 286.268C297.496 286.855 302.928 289.581 308.811 290.456C316.288 291.568 323.424 293.719 330.007 297.554C331.728 298.556 332.723 298.034 333.137 296.068C333.277 295.357 333.267 294.624 333.108 293.917C332.948 293.21 332.643 292.544 332.211 291.962C330.728 289.721 328.561 288.296 326.21 287.179C317.922 283.246 309.147 280.799 300.302 278.463C293.49 276.665 286.542 275.29 280.057 272.26C275.223 270.002 269.897 269.345 264.637 268.429C255.411 266.828 246.644 263.462 237.808 260.428C235.106 259.471 232.31 258.807 229.467 258.449C225.706 258.018 221.966 257.952 218.594 260.202C215.927 261.98 213.236 263.729 210.499 265.395C196.98 273.628 183.446 281.839 169.897 290.029C165.252 292.915 160.512 295.612 155.809 298.35ZM286.902 215.213C286.726 214.421 287.357 213.407 286.427 212.951C285.649 212.565 284.833 213.087 284.145 213.526C283.394 213.998 282.68 214.525 282.007 215.103C278.619 218.091 276.734 221.967 275.382 226.188C273.686 231.492 273.408 237.002 272.883 242.47C272.592 245.533 272.302 248.513 271.007 251.412C268.879 256.147 267.099 261.032 265.681 266.028C265.399 267.033 265.177 267.859 266.759 267.949C270.806 268.175 274.678 269.308 278.463 270.683C279.798 271.172 280.22 271.094 280.462 269.534C282.154 258.564 283.973 247.618 284.833 236.533C285.374 229.427 286.202 222.316 286.902 215.226L286.902 215.213ZM282.396 271.985C284.305 273.693 286.591 273.697 288.623 274.395C292.818 275.832 297.181 275.963 301.544 276.152C302.431 276.174 303.302 275.907 304.026 275.392C306.968 273.533 310.081 271.903 312.842 269.813C319.159 265.03 326.255 262.345 333.997 261.097C337.684 260.497 341.371 259.615 345.058 259.044C346.615 258.806 346.771 258.022 346.582 256.794C346.23 254.491 344.776 253.099 341.814 252.812C333.985 252.073 326.247 251.72 318.692 255.004C309.651 258.946 300.007 261.475 291.687 267.091C288.815 269.029 285.562 270.347 282.383 271.997L282.396 271.985ZM299.561 277.375C300.196 277.556 300.823 277.757 301.466 277.909C308.168 279.502 314.854 281.255 321.13 284.067C326.136 286.317 331.068 288.119 336.697 287.959C340.97 287.84 345.259 288.473 349.544 288.735C350.433 288.789 351.412 288.735 351.847 287.775C352.044 287.334 352.118 286.848 352.061 286.369C352.004 285.889 351.818 285.434 351.523 285.053C350.808 284.051 349.841 283.256 348.721 282.749C347.177 282.025 345.562 281.461 343.903 281.066C338.127 279.642 332.244 278.96 326.337 278.422C317.443 277.613 308.541 277.002 299.561 277.388L299.561 277.375ZM272.06 238.065C268.635 242.355 265.759 246.645 262.183 250.234C258.393 254.039 257.644 258.092 258.836 263.051C259.823 267.157 258.803 266.18 262.994 267.35C264.022 267.633 264.448 267.436 264.706 266.377C265.715 262.269 267.108 258.266 268.869 254.421C271.216 249.33 272.424 244.075 272.048 238.077L272.06 238.065ZM272.285 237.917L272.355 237.794L272.244 237.794L272.285 237.917Z" fill="#323D62" stroke="#323D62"/>
<path d="M283.325 212.912L281.928 213.798C282.165 211.885 282.813 210.079 283.394 208.26C285.697 201.104 288.155 193.985 288.691 186.406C289.056 181.213 289.564 175.892 287.319 171.043C283.833 163.514 278.454 157.951 269.904 156.296L270.195 155.217C274.222 156.009 277.978 157.52 280.846 160.463C282.485 162.106 284.185 162.241 286.225 161.888C293.144 160.693 300.047 159.425 307.032 158.604C315.61 157.594 323.238 159.141 329.814 165.131C332.768 167.883 336.104 170.191 339.719 171.984C344.361 174.225 346.18 173.31 347.204 168.289C347.354 167.553 347.443 166.806 347.47 166.055C347.741 158.287 344.07 152.326 338.404 147.609C328.335 139.217 316.565 134.984 303.529 134.032C299.433 133.732 296.041 134.521 292.837 137.288C288.142 141.336 282.595 144.374 278.192 148.783C275.923 151.051 273.096 152.677 269.998 153.496L269.707 152.47C274.148 151.423 277.229 148.869 278.659 144.431C279.027 143.331 279.472 142.258 279.99 141.221C281.219 138.647 281.371 135.99 280.76 133.236C279.597 127.964 277.176 123.247 274.205 118.825C271.809 115.261 269.339 111.657 265.602 109.341C260.068 105.909 253.865 105.77 247.618 106.131C247.57 106.28 247.54 106.434 247.528 106.591C252.145 106.521 256.75 106.808 260.953 108.754C269.654 112.782 274.832 120.102 278.503 128.617C280.142 132.431 279.195 134.122 275.172 135.288C271.825 136.253 268.368 136.643 264.931 137.029C263.607 135.268 262.239 133.543 261.067 131.31C266.336 131.614 271.194 130.789 276.012 129.668C276.586 129.536 277.778 129.853 277.278 128.485C273.845 121.095 269.314 114.609 262.092 110.524C258.163 108.307 253.71 107.769 249.228 107.769C246.594 107.769 244.484 106.734 243.235 104.415C241.666 101.508 242.108 98.6669 244.32 96.2734C248.032 92.2541 252.858 90.7967 258.183 91.0225C265.807 91.3468 272.051 94.779 277.249 100.161C283.329 106.459 287.983 113.582 289.007 122.569C289.162 123.916 289.126 125.291 289.175 126.65C289.031 126.884 288.892 127.303 289.175 127.328C290.58 127.459 292.022 128.021 293.394 127.168C297.434 125.045 301.121 122.303 303.808 118.694C308.663 112.162 315.135 107.925 322.165 104.3C325.033 102.83 327.778 101.196 330.768 100.03C337.827 97.2793 344.992 99.2335 349.633 105.219C350.055 105.755 350.415 106.336 350.707 106.952C351.227 108.073 351.825 109.296 350.957 110.442C350.088 111.587 348.855 111.164 347.72 110.951C343.988 110.253 340.498 111.238 337.192 112.757C325 118.365 312.468 123.333 301.506 131.322C300.998 131.696 300.236 131.827 300.035 132.813C303.312 133.014 306.59 132.997 309.781 133.572C321.583 135.687 332.362 140.059 341.055 148.545C347.056 154.4 350.219 161.441 348.019 170.058C347.04 173.864 344.84 175.059 341.092 173.806C336.995 172.439 333.771 169.631 330.383 167.106C328.142 165.431 325.971 163.674 323.611 162.151C318.925 159.133 313.742 159.38 308.544 159.733C302.206 160.168 295.967 161.342 289.724 162.479C287.917 162.808 286.102 163.095 284.136 163.432C285.131 164.963 286.114 166.474 287.106 167.985C289.076 170.994 289.789 174.369 290.01 177.9C290.584 186.932 288.872 195.586 285.979 204.076C284.959 206.983 283.91 209.882 283.325 212.912ZM316.405 109.107L316.368 109.062L316.368 109.14L316.282 109.169C316.322 109.146 316.363 109.125 316.405 109.107ZM288.826 138.618C288.646 138.679 288.388 138.708 288.675 138.963C288.675 138.963 288.831 138.803 288.913 138.716C289.168 138.698 289.413 138.612 289.625 138.468C289.836 138.324 290.006 138.126 290.117 137.895C297.973 132.147 306.121 126.811 314.529 121.908C319.969 118.718 326.057 117.01 331.624 114.108C336.995 111.291 342.505 108.582 348.953 109.974C350.039 110.208 350.375 109.481 350.08 108.43C348.695 103.503 341.964 99.6318 337.073 101.015C335.299 101.512 333.529 102.021 331.772 102.58C325.34 104.632 319.265 107.219 314.676 112.519C310.654 117.166 306.2 121.407 301.792 125.685C297.888 129.475 294.009 133.293 290.117 137.095C289.572 137.477 288.986 137.858 288.826 138.597L288.826 138.618ZM280.375 144.148C280.64 144.123 280.893 144.024 281.104 143.863C281.316 143.701 281.478 143.482 281.571 143.232C284.709 137.509 287.401 131.593 287.81 124.971C288.196 118.743 285.602 113.377 282.309 108.323C277.884 101.529 272.395 95.9409 264.464 93.3749C258.159 91.3222 252.059 91.5808 246.557 95.7356C243.632 97.9485 242.87 100.736 244.099 103.643C244.509 104.665 245.095 105.084 246.25 105.043C248.909 104.948 251.575 104.887 254.23 105.043C259.781 105.384 265.082 106.55 269.142 110.791C274.853 116.748 279.101 123.604 281.526 131.536C282.55 134.902 282.665 138.244 281.117 141.541C280.76 142.292 280.219 143.064 280.375 144.127L280.375 144.148ZM315.356 109.801C311.82 111.703 308.734 114.345 306.307 117.548C302.62 122.315 298.273 126.58 292.735 128.74C288.503 130.382 286.864 133.256 285.746 137.05C285.672 137.24 285.608 137.435 285.553 137.633C285.447 138.248 284.685 138.987 285.471 139.443C286.074 139.792 286.495 138.946 286.905 138.544C292.731 132.903 298.542 127.251 304.341 121.588C308.191 117.811 311.977 114.013 315.356 109.781L315.356 109.801ZM330.567 101.746L335.143 100.387C333.507 100.269 331.883 100.744 330.567 101.726L330.567 101.746ZM280.178 144.731L280.24 144.612L280.019 144.612C280.019 144.653 280.019 144.706 280.068 144.735C280.117 144.764 280.121 144.71 280.162 144.71L280.178 144.731Z" fill="#4F42E6" stroke="#454FDB"/>
<path d="M146.608 356.486C146.895 356.556 147.186 356.63 147.473 356.7C144.757 366.931 141.59 376.989 136.121 386.149C133.696 390.213 130.873 393.949 126.854 396.614C124.736 398.026 123.536 398.137 121.029 396.692C117.522 394.664 114.978 391.658 112.7 388.394C112.077 387.504 111.512 386.576 110.922 385.664L111.991 384.708L146.608 356.486Z" fill="#17263F"/>
<path d="M270.195 155.217L269.905 156.296C266.832 158.14 264.767 157.963 261.937 155.562C259.683 153.648 257.996 151.263 256.32 148.853C254.071 145.622 252.568 141.874 249.712 139.07C248.311 136.865 246.435 135.034 244.833 133.01C244.489 132.599 244.124 132.189 243.477 132.254C241.548 132.394 239.618 132.497 237.684 132.612C241.289 134.627 242.502 137.768 242.539 141.562C242.554 141.703 242.589 141.841 242.641 141.972C242.85 144.07 242.879 146.209 243.301 148.262C244.858 155.861 244.579 163.243 241.351 170.432C240.417 172.517 239.516 174.677 239.241 177.001C238.184 177.584 237.017 177.559 235.87 177.625C231.855 175.441 231.089 173.876 231.826 169.18C232.174 166.959 232.645 164.758 232.99 162.537C233.297 160.517 233.94 158.288 232.928 156.494C231.199 153.435 230.114 150.159 228.889 146.915C228.139 142.609 228.069 142.535 223.874 142.469L227.91 147.326C228.881 149.239 228.881 151.37 229.319 153.406C230.712 159.897 230.024 165.977 226.648 171.758C225.21 174.221 223.465 176.52 222.445 179.226C221.915 179.84 221.439 180.499 221.023 181.197C220.261 182.744 219.262 182.662 218.106 181.755C217.148 180.999 216.238 180.178 215.308 179.386C215.012 177.412 215.297 175.395 216.128 173.581C217.197 170.998 218.369 168.457 219.503 165.899C219.913 165.029 220.4 164.187 220.167 163.169C219.278 159.306 218.119 155.553 215.976 152.166C214.223 150.43 212.191 149.063 210.155 147.699C209.09 146.985 208.414 147.002 207.934 148.438C207.638 149.385 207.122 150.246 206.427 150.953C205.732 151.659 204.88 152.189 203.94 152.499C205.505 150.77 206.992 149.067 207.598 146.731C207.799 145.942 208.733 145.93 209.352 146.32C212.67 148.303 216.263 150.015 217.955 153.837C219.097 156.473 220.055 159.185 220.822 161.954C221.032 162.637 221.1 163.357 221.023 164.068C220.945 164.778 220.724 165.466 220.372 166.088C219.258 168.198 218.356 170.424 217.414 172.624C216.713 174.109 216.248 175.696 216.038 177.325C215.898 178.75 217.402 180.704 218.95 181.086C220.499 181.467 220.663 180.014 221.187 179.189C222.584 177.001 223.78 174.673 225.214 172.526C228.377 167.759 229.442 162.537 229.053 156.896C228.696 151.752 227.566 147.088 223.42 143.442C217.974 138.65 212.316 134.142 206.447 129.918C205.108 128.954 205.095 128.974 203.522 129.422C203.498 129.422 203.42 129.29 203.391 129.208C202.895 127.693 201.892 128.683 201.224 128.884C199.173 129.476 197.335 130.646 195.927 132.254C188.963 140.396 181.331 148.011 176.41 157.709C173.662 163.124 169.856 166.913 163.645 168.506C156.136 170.428 148.95 173.548 141.462 175.634L141.499 174.361C144.145 174.426 146.415 173.129 148.828 172.333C149.54 172.099 149.008 171.512 148.828 171.142C146.095 165.472 143.035 160.012 138.246 155.787C134.743 152.696 130.774 150.861 125.956 151.899L125.931 151.119C131.069 149.687 135.141 151.94 138.803 155.098C143.44 159.084 146.509 164.278 149.123 169.717C149.942 171.388 150.552 172.012 152.552 171.232C157.058 169.479 161.654 167.948 166.3 166.597C169.487 165.678 171.626 163.723 173.334 161.051C174.026 159.954 174.784 158.891 175.382 157.733C180.237 148.085 187.762 140.49 194.637 132.365C196.849 129.754 199.602 127.903 203.149 127.558C203.618 127.534 204.074 127.4 204.481 127.168C208.012 124.823 211.724 124.651 215.603 126.129C216.058 126.301 216.554 126.412 216.955 126.03C219.626 123.514 223.174 123.781 226.378 123.185C233.678 121.835 241.04 120.796 248.364 119.544C250.155 119.236 251.552 119.544 252.695 121.005C254.71 123.592 256.885 126.055 258.77 128.728C259.774 130.152 260.917 130.608 262.535 130.612C267.553 130.612 272.42 129.602 277.283 128.539C277.783 129.906 276.59 129.59 276.017 129.721C271.199 130.838 266.341 131.663 261.072 131.364C262.244 133.597 263.612 135.321 264.935 137.083C266.719 139.743 267.921 142.751 268.463 145.909C268.807 148.126 269.282 150.319 269.729 152.523L270.019 153.55L270.195 155.217ZM205.468 127.64C205.571 128.223 205.988 128.362 206.308 128.601C210.274 131.61 214.411 134.422 218.147 137.698C220.769 139.998 223.448 141.656 226.947 141.829C228.315 141.894 228.889 142.65 229.217 143.955C230.134 147.65 230.949 151.444 233.022 154.728C234.084 156.339 234.499 158.293 234.182 160.197C233.694 163.37 233.145 166.532 232.592 169.689C232.322 171.035 232.391 172.428 232.793 173.741C233.399 175.613 234.788 176.311 236.681 176.467C238.573 176.623 238.676 175.235 239.09 174.045C239.725 172.242 240.458 170.465 240.949 168.621C241.969 164.774 244.034 161.186 243.457 156.937C242.604 150.713 241.986 144.46 241.257 138.22C241.109 136.988 240.355 136.114 239.397 135.395C235.591 132.521 231.425 130.358 226.791 129.237C222.42 128.202 217.938 127.595 213.612 126.433C210.581 125.624 208.024 126.187 205.476 127.64L205.468 127.64ZM250.355 120.172C249.536 120.266 249.262 120.287 248.991 120.332C241.388 121.572 233.786 122.814 226.185 124.06C224.1 124.405 222.023 124.803 219.954 125.238C219.372 125.361 218.549 125.604 218.537 126.236C218.537 127.118 219.471 126.806 219.987 126.909C223.403 127.562 227 127.792 230.089 129.372C234.033 131.413 238.532 132.112 242.908 131.364C243.411 131.277 243.929 131.336 244.401 131.532C244.873 131.728 245.28 132.054 245.575 132.472C248.983 136.578 252.436 140.605 255.103 145.273C257.271 149.075 259.692 152.737 263.215 155.475C264.776 156.707 266.549 157.204 268.368 156.177C270.073 155.213 268.946 153.653 268.737 152.482C268.024 148.455 267.963 144.144 265.869 140.576C261.806 133.687 256.918 127.344 251.715 121.28C251.22 120.665 250.683 120.106 250.355 120.172Z" fill="#323D62" stroke="#323D62"/>
<path d="M111.992 384.708L110.923 385.664C106.281 377.56 102.98 368.918 100.571 359.914L101.267 359.504C101.548 360.116 101.795 360.742 102.009 361.38C104.098 368.934 107.166 376.103 110.612 383.139C110.911 383.78 111.021 384.638 111.992 384.708Z" fill="#323D62"/>
<path d="M293.375 127.152C292.003 128.005 290.561 127.443 289.155 127.312C288.881 127.287 289.02 126.869 289.155 126.635C290.581 126.705 292.031 126.495 293.375 127.152Z" fill="#323D62"/>
<path d="M125.1 151.268C124.911 151.735 124.649 151.842 124.28 151.44L125.1 151.268Z" fill="#323D62"/>
<path d="M111.992 384.707C111.021 384.637 110.911 383.779 110.599 383.139C107.166 376.119 104.098 368.95 101.996 361.38C101.791 360.749 101.554 360.129 101.283 359.524C99.444 351.896 97.6578 344.256 96.1379 336.533C95.7979 334.825 96.2486 334.016 97.7234 333.138C117.114 321.59 136.482 309.995 155.826 298.352C160.529 295.601 165.269 292.904 169.935 290.083C183.487 281.899 197.021 273.688 210.537 265.45C213.274 263.783 215.965 262.034 218.632 260.256C222.004 258.007 225.744 258.072 229.505 258.503C232.348 258.862 235.144 259.525 237.846 260.482C246.682 263.516 255.461 266.883 264.675 268.484C269.935 269.399 275.261 270.056 280.095 272.314C286.58 275.344 293.528 276.72 300.34 278.518C309.185 280.854 317.956 283.301 326.248 287.234C328.599 288.351 330.754 289.775 332.249 292.017C332.681 292.598 332.986 293.264 333.146 293.971C333.305 294.678 333.315 295.411 333.175 296.122C332.766 298.089 331.766 298.61 330.045 297.608C323.462 293.774 316.326 291.623 308.849 290.51C302.966 289.636 297.534 286.909 291.582 286.322C287.649 285.912 283.72 285.464 279.787 285.058C279.396 284.976 278.991 284.988 278.605 285.093C278.219 285.198 277.864 285.393 277.567 285.661C286.33 287.201 295.076 286.524 303.007 290.489C297.497 291.208 292.102 291.939 286.694 292.6C284.792 292.762 283.004 293.581 281.635 294.915C280.482 296.089 279.098 297.008 277.571 297.616C276.044 298.224 274.408 298.507 272.766 298.446C261.438 298.097 250.099 297.559 238.997 295.309C232.75 294.041 226.94 294.353 221.213 296.779C217.989 298.146 215.478 300.712 212.782 302.88C193.249 318.555 173.751 334.275 154.286 350.04C151.693 352.138 149.178 354.339 146.625 356.494L111.992 384.707Z" fill="#4F42E6"/>
<path d="M215.309 179.369C216.239 180.162 217.148 180.983 218.107 181.738C219.262 182.646 220.262 182.728 221.024 181.18C221.44 180.483 221.915 179.823 222.445 179.209C226.952 178.942 231.413 178.29 235.87 177.608C237.017 177.542 238.185 177.567 239.242 176.984C241.7 176.438 244.158 175.921 246.616 175.342C253.322 173.774 260.036 172.156 266.98 172.39C272.888 172.587 278.664 173.622 282.593 178.618C287.296 184.624 287.431 191.304 284.575 198.152C282.662 202.75 280.544 207.258 278.643 211.861C277.537 214.541 276.042 217.148 276.304 220.228C276.304 220.564 276.407 220.958 276.267 221.225C274.08 225.45 273.756 230.188 272.58 234.687C272.354 235.603 271.955 236.467 271.405 237.233C267.718 242.324 263.834 247.258 259.676 251.959C257.853 254.012 257.034 256.18 257.423 258.861C257.689 260.684 257.869 262.519 258.176 264.337C258.402 265.672 258.099 266.078 256.71 265.622C252.957 264.391 249.172 263.249 245.399 262.075C238.435 259.903 231.696 256.668 224.018 257.19C226.718 254.64 229.692 252.674 232.72 250.748C237.165 247.952 241.732 245.386 246.349 242.857C250.446 240.607 253.244 236.908 256.181 233.415C260.839 227.88 265.153 222.071 269.291 216.134C271.433 213.059 272.052 213.08 274.321 216.032C274.559 216.34 274.797 218.13 275.682 216.368C276.144 215.137 276.579 213.934 277.07 212.735C279.528 206.794 282.507 201.092 284.522 194.979C287.5 185.946 282.883 177.087 273.834 174.451C269.496 173.191 265.063 173.375 260.63 173.782C254.289 174.361 248.226 176.335 242.011 177.555C241.069 177.501 240.323 177.928 239.553 178.446C238.271 179.35 236.943 180.187 235.575 180.954C224.436 187.002 212.359 190.397 200.147 193.34C194.002 194.827 187.62 195.254 181.782 198C177.894 199.827 173.883 201.387 169.971 203.165C164.265 205.756 158.595 208.437 152.904 211.076C146.034 214.254 139.148 217.395 132.302 220.622C119.709 226.554 107.141 232.528 94.5556 238.497C94.0148 238.752 93.5027 239.146 92.6302 239.047C93.1054 234.778 93.5232 230.508 94.0681 226.255C95.5888 214.318 97.8781 202.493 100.922 190.853C101.303 189.403 102.036 188.75 103.408 188.299C115.469 184.353 127.505 180.338 139.545 176.335C140.188 176.122 140.815 175.847 141.45 175.6C148.939 173.515 156.124 170.395 163.634 168.473C169.865 166.88 173.65 163.091 176.399 157.676C181.315 147.974 188.963 140.359 195.915 132.221C197.323 130.613 199.161 129.443 201.212 128.851C201.88 128.65 202.884 127.66 203.379 129.175C203.408 129.257 203.486 129.397 203.511 129.389C205.084 128.941 205.096 128.921 206.436 129.885C212.31 134.12 217.968 138.627 223.408 143.409C227.554 147.055 228.685 151.719 229.041 156.863C229.43 162.504 228.365 167.726 225.202 172.493C223.769 174.652 222.572 176.968 221.175 179.156C220.651 179.977 220.471 181.434 218.939 181.053C217.406 180.671 215.887 178.717 216.026 177.292C216.237 175.663 216.701 174.076 217.402 172.591C218.345 170.391 219.246 168.165 220.36 166.055C220.712 165.433 220.933 164.745 221.011 164.035C221.088 163.324 221.02 162.604 220.811 161.921C220.043 159.152 219.085 156.44 217.943 153.804C216.231 149.966 212.638 148.27 209.34 146.287C208.722 145.917 207.787 145.93 207.587 146.698C206.98 149.034 205.493 150.737 203.928 152.466C204.868 152.156 205.721 151.626 206.415 150.92C207.11 150.213 207.627 149.352 207.923 148.405C208.402 146.969 209.078 146.952 210.143 147.666C212.191 149.029 214.211 150.397 215.964 152.133C215.223 152.478 214.494 152.848 213.74 153.172C206.014 156.506 199.918 161.822 194.998 168.588C194.598 169.096 194.301 169.678 194.125 170.301C193.95 170.924 193.898 171.575 193.974 172.218C194.289 175.153 196.223 176.417 198.73 177.169C204.115 178.728 209.704 179.47 215.309 179.369Z" fill="#4F42E6"/>
<path d="M166.257 265.116C165.991 260.35 165.717 255.583 165.463 250.821C164.676 237.147 163.059 223.534 160.62 210.057C160.432 209.002 160.158 208.558 158.9 209.137C156.938 210.04 155.061 211.19 152.919 211.683L152.919 211.075C158.609 208.435 164.279 205.738 169.985 203.164C173.898 201.386 177.908 199.826 181.796 197.999C187.634 195.252 194.025 194.825 200.162 193.339C212.374 190.375 224.451 187 235.589 180.953C236.958 180.186 238.285 179.348 239.567 178.444C240.321 177.927 241.067 177.5 242.025 177.553C240.026 179.565 237.593 180.953 235.122 182.254C224.905 187.632 213.93 190.876 202.796 193.614C197.88 194.821 192.726 195.199 187.937 196.743C179.109 199.616 170.801 203.804 162.337 207.585C161.587 207.918 161.194 208.25 161.374 209.256C162.243 214.088 163.013 218.929 163.677 223.802C164.545 230.371 165.442 236.911 165.725 243.542C165.848 246.309 165.75 249.125 166.171 251.847C166.847 256.256 166.868 260.666 166.831 265.091L166.257 265.116Z" fill="#323D62" stroke="#323D62"/>
<path d="M276.304 220.232C276.042 217.153 277.533 214.546 278.643 211.865C280.544 207.262 282.662 202.755 284.575 198.156C287.443 191.308 287.296 184.608 282.593 178.622C278.664 173.609 272.888 172.591 266.98 172.394C260.016 172.16 253.322 173.778 246.616 175.346C244.158 175.921 241.7 176.438 239.242 176.988C239.516 174.66 240.417 172.501 241.351 170.419C244.58 163.235 244.858 155.853 243.301 148.249C242.892 146.197 242.851 144.058 242.642 141.96C245.1 141.254 247.378 140.092 249.713 139.086C252.58 141.902 254.072 145.655 256.321 148.869C257.996 151.279 259.684 153.665 261.937 155.578C264.768 157.98 266.833 158.156 269.905 156.313C278.455 157.955 283.834 163.53 287.32 171.06C289.565 175.908 289.057 181.229 288.692 186.423C288.156 194.002 285.698 201.12 283.396 208.276C282.814 210.095 282.167 211.902 281.929 213.815C280.245 215.654 278.439 217.395 277.259 219.641C277.187 219.831 277.054 219.992 276.882 220.098C276.709 220.205 276.506 220.252 276.304 220.232Z" fill="#F9B720"/>
<path d="M286.904 215.228C286.203 222.318 285.376 229.429 284.819 236.576C283.959 247.661 282.14 258.607 280.448 269.577C280.206 271.12 279.784 271.219 278.448 270.726C274.663 269.351 270.792 268.218 266.744 267.992C265.163 267.902 265.384 267.076 265.667 266.07C267.085 261.075 268.865 256.19 270.993 251.455C272.287 248.556 272.578 245.576 272.869 242.513C273.393 237.044 273.688 231.535 275.368 226.23C276.72 221.994 278.604 218.118 281.992 215.145C282.665 214.568 283.38 214.041 284.131 213.569C284.819 213.13 285.634 212.608 286.412 212.994C287.359 213.421 286.728 214.435 286.904 215.228Z" fill="#4F42E6"/>
<path d="M282.383 271.998C285.562 270.356 288.815 269.03 291.666 267.104C299.987 261.488 309.63 258.959 318.671 255.018C326.209 251.733 333.964 252.086 341.793 252.825C344.755 253.104 346.209 254.504 346.562 256.808C346.75 258.039 346.594 258.819 345.038 259.057C341.351 259.628 337.664 260.511 333.977 261.11C326.234 262.342 319.138 265.043 312.821 269.826C310.06 271.916 306.947 273.546 304.005 275.406C303.281 275.92 302.41 276.187 301.523 276.165C297.16 275.976 292.797 275.845 288.602 274.408C286.578 273.718 284.292 273.718 282.383 271.998Z" fill="#4F42E6"/>
<path d="M299.561 277.388C308.554 276.977 317.456 277.614 326.345 278.427C332.253 278.965 338.136 279.658 343.912 281.071C345.568 281.465 347.18 282.027 348.721 282.75C349.844 283.262 350.811 284.064 351.524 285.074C351.818 285.455 352.004 285.91 352.061 286.39C352.118 286.869 352.044 287.355 351.847 287.796C351.413 288.76 350.434 288.81 349.545 288.756C345.26 288.494 340.97 287.861 336.698 287.98C331.069 288.14 326.136 286.338 321.13 284.088C314.846 281.264 308.16 279.511 301.466 277.93C300.79 277.77 300.184 277.569 299.561 277.388Z" fill="#4F42E6"/>
<path d="M166.828 265.098C167.065 271.806 167.065 278.512 166.828 285.215C166.627 285.215 166.418 285.215 166.226 285.215L166.275 265.131L166.828 265.098Z" fill="#323D62" stroke="#17263F"/>
<path d="M272.274 237.931L272.233 237.791L272.344 237.807L272.274 237.931Z" fill="#F8E1C9"/>
<path d="M270.197 155.216L270.004 153.512C273.102 152.694 275.929 151.067 278.197 148.799C282.618 144.41 288.148 141.372 292.843 137.304C296.047 134.537 299.459 133.748 303.535 134.048C316.571 135.001 328.341 139.233 338.41 147.625C344.076 152.342 347.747 158.299 347.476 166.071C347.449 166.822 347.36 167.569 347.21 168.305C346.186 173.309 344.367 174.225 339.725 172C336.11 170.207 332.774 167.899 329.82 165.147C323.265 159.157 315.616 157.61 307.038 158.62C300.074 159.441 293.15 160.672 286.231 161.904C284.183 162.257 282.483 162.13 280.852 160.479C277.96 157.532 274.224 156.009 270.197 155.216Z" fill="#FCEFE3"/>
<path d="M280.376 144.128C280.221 143.065 280.761 142.293 281.118 141.525C282.654 138.241 282.539 134.887 281.528 131.52C279.102 123.588 274.854 116.74 269.143 110.775C265.084 106.538 259.782 105.372 254.231 105.027C251.581 104.863 248.906 104.924 246.251 105.027C245.096 105.068 244.526 104.649 244.1 103.627C242.871 100.72 243.646 97.9328 246.558 95.7199C252.06 91.5651 258.16 91.3228 264.465 93.3592C272.396 95.9251 277.886 101.513 282.31 108.307C285.587 113.361 288.197 118.727 287.812 124.955C287.402 131.578 284.711 137.494 281.573 143.217C281.478 143.466 281.316 143.683 281.105 143.844C280.893 144.006 280.641 144.104 280.376 144.128Z" fill="#FCEFE3"/>
<path d="M290.119 137.062C294.011 133.26 297.902 129.442 301.794 125.652C306.202 121.374 310.655 117.133 314.678 112.486C319.267 107.186 325.33 104.583 331.774 102.546C333.531 101.988 335.301 101.479 337.075 100.982C341.966 99.5986 348.697 103.445 350.082 108.397C350.377 109.448 350.041 110.174 348.955 109.94C342.507 108.549 336.997 111.258 331.626 114.075C326.059 116.994 319.971 118.702 314.531 121.875C306.123 126.778 297.975 132.114 290.119 137.862L290.119 137.062Z" fill="#FCEFE3"/>
<path d="M269.713 152.487C269.303 150.282 268.791 148.09 268.447 145.873C267.905 142.714 266.703 139.706 264.92 137.046C268.373 136.66 271.831 136.27 275.162 135.305C279.185 134.139 280.139 132.431 278.492 128.634C274.805 120.119 269.643 112.799 260.942 108.771C256.739 106.825 252.134 106.538 247.517 106.608C247.529 106.451 247.559 106.297 247.607 106.148C253.855 105.786 260.057 105.926 265.592 109.358C269.328 111.674 271.798 115.278 274.195 118.842C277.165 123.264 279.586 127.981 280.75 133.252C281.36 136.007 281.229 138.664 279.979 141.238C279.461 142.275 279.016 143.348 278.648 144.448C277.235 148.886 274.162 151.44 269.713 152.487Z" fill="#F9B720"/>
<path d="M315.357 109.779C311.978 113.996 308.192 117.81 304.341 121.566C298.541 127.229 292.729 132.881 286.906 138.522C286.496 138.933 286.087 139.754 285.472 139.421C284.686 138.966 285.448 138.227 285.554 137.611C285.608 137.413 285.673 137.219 285.747 137.028C286.865 133.238 288.504 130.377 292.736 128.718C298.274 126.55 302.633 122.293 306.308 117.526C308.735 114.323 311.821 111.681 315.357 109.779Z" fill="#F9B720"/>
<path d="M330.569 101.724C331.882 100.736 333.506 100.254 335.145 100.365L330.569 101.724Z" fill="#F9B720"/>
<path d="M290.117 137.061L290.117 137.882C290.006 138.113 289.836 138.31 289.625 138.454C289.414 138.598 289.168 138.684 288.913 138.703L288.823 138.6C288.987 137.857 289.572 137.475 290.117 137.061Z" fill="#F8E1C9"/>
<path d="M288.91 138.696C288.828 138.782 288.677 138.942 288.673 138.942C288.387 138.688 288.644 138.659 288.82 138.598L288.91 138.696Z" fill="#F8E1C9"/>
<path d="M316.408 109.1L316.289 109.17L316.375 109.141L316.408 109.1Z" fill="#F9B720"/>
<path d="M316.357 109.139L316.357 109.061C316.357 109.061 316.394 109.106 316.398 109.102L316.357 109.139Z" fill="#F9B720"/>
<path d="M205.476 127.64C208.024 126.187 210.58 125.624 213.62 126.453C217.946 127.632 222.428 128.223 226.799 129.258C231.432 130.358 235.599 132.542 239.405 135.416C240.363 136.134 241.117 137.001 241.264 138.24C241.994 144.481 242.612 150.734 243.464 156.958C244.042 161.207 241.977 164.795 240.957 168.642C240.466 170.485 239.728 172.263 239.097 174.065C238.688 175.248 238.597 176.648 236.688 176.488C234.779 176.327 233.411 175.634 232.801 173.761C232.398 172.449 232.329 171.056 232.6 169.709C233.153 166.552 233.702 163.391 234.189 160.217C234.506 158.313 234.092 156.359 233.03 154.749C230.957 151.464 230.162 147.683 229.224 143.976C228.897 142.65 228.323 141.923 226.955 141.849C223.456 141.677 220.777 140.018 218.155 137.719C214.419 134.435 210.281 131.631 206.316 128.621C205.996 128.383 205.578 128.223 205.476 127.64Z" fill="#4F42E6"/>
<path d="M250.357 120.172C250.685 120.127 251.226 120.686 251.709 121.256C256.912 127.337 261.799 133.68 265.863 140.552C267.965 144.112 268.026 148.423 268.731 152.458C268.94 153.645 270.066 155.205 268.362 156.153C266.543 157.18 264.769 156.667 263.208 155.451C259.685 152.713 257.264 149.051 255.097 145.249C252.43 140.581 248.977 136.545 245.568 132.448C245.273 132.03 244.866 131.704 244.394 131.508C243.922 131.312 243.405 131.253 242.901 131.34C238.526 132.088 234.026 131.389 230.083 129.348C226.994 127.768 223.397 127.538 219.98 126.885C219.464 126.782 218.514 127.094 218.53 126.212C218.53 125.579 219.349 125.337 219.948 125.214C221.996 124.779 224.093 124.393 226.179 124.036C233.779 122.779 241.381 121.537 248.985 120.308C249.263 120.267 249.538 120.246 250.357 120.172Z" fill="#4F42E6"/>
<path d="M215.309 179.37C209.706 179.475 204.119 178.739 198.734 177.186C196.227 176.435 194.293 175.17 193.978 172.235C193.902 171.592 193.954 170.941 194.13 170.318C194.305 169.695 194.602 169.113 195.002 168.605C199.918 161.839 206.018 156.523 213.744 153.189C214.498 152.865 215.227 152.495 215.969 152.15C218.099 155.537 219.271 159.29 220.16 163.153C220.393 164.171 219.885 165.013 219.496 165.883C218.361 168.441 217.19 170.982 216.12 173.565C215.293 175.38 215.011 177.397 215.309 179.37Z" fill="#F9B720"/>
<path d="M235.871 177.608C231.414 178.289 226.953 178.942 222.446 179.209C223.466 176.503 225.212 174.204 226.649 171.741C230.025 165.96 230.713 159.88 229.321 153.389C228.882 151.337 228.882 149.222 227.911 147.309L228.89 146.898C230.119 150.142 231.201 153.418 232.93 156.477C233.942 158.271 233.298 160.5 232.991 162.52C232.651 164.741 232.172 166.942 231.828 169.163C231.09 173.859 231.856 175.424 235.871 177.608Z" fill="#F9B720"/>
<path d="M249.713 139.057C247.378 140.075 245.104 141.237 242.642 141.931C242.589 141.8 242.555 141.661 242.54 141.521C242.503 137.727 241.311 134.586 237.685 132.571C239.619 132.456 241.548 132.353 243.478 132.213C244.125 132.164 244.49 132.542 244.834 132.969C246.456 135.034 248.312 136.865 249.713 139.057Z" fill="#4F42E6"/>
<path d="M228.889 146.897L227.91 147.308L223.874 142.451C228.061 142.517 228.139 142.591 228.889 146.897Z" fill="#4F42E6"/>
<defs>
<filter id="filter0_b_1_16578" x="-425" y="-44" width="674" height="644" filterUnits="userSpaceOnUse" color-interpolation-filters="sRGB">
<feFlood flood-opacity="0" result="BackgroundImageFix"/>
<feGaussianBlur in="BackgroundImageFix" stdDeviation="22"/>
<feComposite in2="SourceAlpha" operator="in" result="effect1_backgroundBlur_1_16578"/>
<feBlend mode="normal" in="SourceGraphic" in2="effect1_backgroundBlur_1_16578" result="shape"/>
</filter>
</defs>
</svg>
