<svg width="208" height="212" viewBox="0 0 208 212" fill="none" xmlns="http://www.w3.org/2000/svg">
<path d="M104 0L119.969 36.0372L149.992 10.4973L148.743 49.8942L186.874 39.9101L168.655 74.8636L207.342 82.4128L175.762 106L207.342 129.587L168.655 137.136L186.874 172.09L148.743 162.106L149.992 201.503L119.969 175.963L104 212L88.0315 175.963L58.0083 201.503L59.2571 162.106L21.1259 172.09L39.3447 137.136L0.657639 129.587L32.238 106L0.657639 82.4128L39.3447 74.8636L21.1259 39.9101L59.2571 49.8942L58.0083 10.4973L88.0315 36.0372L104 0Z" fill="white"/>
</svg>
