<svg width="189" height="193" viewBox="0 0 189 193" fill="none" xmlns="http://www.w3.org/2000/svg">
<path d="M94.6206 0L109.166 32.8075L136.512 9.5565L135.375 45.4226L170.107 36.3332L153.512 68.1542L188.75 75.0267L159.985 96.5L188.75 117.973L153.512 124.846L170.107 156.667L135.375 147.577L136.512 183.443L109.166 160.193L94.6206 193L80.0756 160.193L52.729 183.443L53.8665 147.577L19.1345 156.667L35.7292 124.846L0.491028 117.973L29.2561 96.5L0.491028 75.0267L35.7292 68.1542L19.1345 36.3332L53.8665 45.4226L52.729 9.5565L80.0756 32.8075L94.6206 0Z" fill="#652FEB"/>
</svg>
