<svg width="335" height="303" viewBox="0 0 335 303" fill="none" xmlns="http://www.w3.org/2000/svg">
<path d="M324.796 302.918C324.853 302.918 324.937 302.89 324.994 302.834C325.05 302.777 325.078 302.693 325.078 302.636L324.994 82.3243C324.994 82.155 324.881 82.0422 324.712 82.0422C324.542 82.0422 324.429 82.155 324.429 82.3243L324.514 302.326L137.367 281.57L137.847 106.606C137.847 106.437 137.734 106.324 137.565 106.324C137.395 106.324 137.283 106.437 137.283 106.606L136.803 281.824C136.803 281.965 136.916 282.077 137.057 282.106L324.768 302.918H324.796Z" fill="#0A0517"/>
<path d="M69.5145 62.556L66.6943 77.7849C66.6943 77.7849 92.7245 103.477 103.469 98.5978C114.609 90.6731 129.02 44.676 129.02 44.676L130.825 43.7172L132.658 43.7454C137.396 42.9275 135.535 40.051 135.535 40.051C137.622 38.5563 136.071 36.6949 136.071 36.6949C138.411 35.2849 136.494 32.5211 136.494 32.5211C142.19 31.0264 140.752 29.6163 140.752 29.6163C138.806 28.5446 125.185 31.3084 125.185 31.3084C125.185 31.3084 121.716 31.1956 119.77 31.7878C117.824 32.3801 117.006 38.6973 117.006 38.6973L95.3755 74.4289C95.3755 74.4289 79.6107 61.1177 76.9315 56.408C72.109 47.891 63.8741 42.2507 63.8741 42.2507C72.1936 54.7159 69.5145 62.556 69.5145 62.556Z" fill="#FE5122"/>
<path d="M275.672 79.949C259.287 116.865 193.379 119.742 193.379 119.742C168.872 124.508 136.045 97.9418 136.045 97.9418C86.1278 71.3757 90.0196 14.9722 90.0196 14.9722L275.672 79.949Z" fill="#F9F3E9"/>
<path d="M275.672 79.9557C259.287 116.872 193.379 119.748 193.379 119.748C168.872 124.515 136.694 98.7945 136.694 98.7945C83.6178 66.0805 88.948 13.2021 88.948 13.2021L275.672 79.9557Z" fill="#CBC7F7"/>
<path d="M335 86.302C321.125 72.6524 320.758 51.5574 318.869 47.6656C316.33 42.4201 307.983 46.8759 307.983 46.8759C307.983 46.8759 312.862 41.856 314.92 38.2744C316.979 34.6928 296.138 0.286621 296.138 0.286621C270.362 30.0113 278.681 49.3577 278.681 49.3577C239.114 64.5866 166.579 28.714 138.321 15.6284C110.063 2.54276 88.996 13.5415 88.996 13.5415C94.8338 29.419 145.823 62.4997 145.823 62.4997C155.524 126.377 186.292 130.663 186.292 130.663C171.909 99.6414 171.796 75.1905 171.796 75.1905C243.824 108.92 273.943 83.9613 273.943 83.9613C280.148 79.3926 285.252 65.1789 285.252 65.1789C317.148 87.7121 335 86.302 335 86.302Z" fill="#454FDB"/>
<path d="M66.3031 77.508L70.3359 81.1742L69.7155 58.3308L66.3031 77.508Z" fill="#0A0517"/>
<path d="M36.2097 97.4098C24.788 100.061 20.5577 127.388 20.5577 127.388L-0.00137329 273.84L46.8699 274.235L49.5491 207.82L55.2741 273.84L99.8047 274.009C99.8047 274.009 85.0551 178.913 79.584 134.1C77.6099 117.828 70.1646 100.004 70.1646 100.004L56.0355 96.1125L36.2097 97.4098Z" fill="#652FEB"/>
<path d="M50.5679 22.6188L50.1449 26.6516C46.1402 25.1287 42.3048 21.9983 42.333 16.4144C42.3612 13.3122 44.3917 8.6871 49.4116 6.57197C53.3035 4.68245 59.3669 7.84105 59.3669 7.84105C60.5795 10.2664 50.5679 22.6188 50.5679 22.6188Z" fill="#0A0517"/>
<path d="M62.808 40.9494C69.1534 48.3101 70.5635 54.3734 69.8584 62.8058C69.5764 66.1336 69.1534 69.6024 68.3073 73.5788C67.3485 78.2603 67.7151 82.3214 67.7151 82.3214L68.4202 97.4093L33.8166 97.8887L32.1527 62.1853L35.0857 45.8283C42.1925 43.2055 47.7765 32.7427 47.7765 32.7427L61.5389 34.04L62.808 40.9494Z" fill="#FF99C2"/>
<path d="M62.2469 27.6189C55.1118 29.5084 50.8533 22.7682 50.8533 22.7682C44.2823 21.6683 47.2435 16.451 48.005 16.7894C49.9791 16.3664 51.3892 18.6507 51.3892 18.6507L59.2293 7.99048C63.9954 10.021 68.0846 23.9527 62.2469 27.6189Z" fill="#FE5122"/>
<path d="M50.5659 21.3542C50.6787 24.3436 48.1406 33.0016 48.1406 33.0016L61.3672 34.2425L60.8313 27.0228L50.5659 21.3542Z" fill="#FE5122"/>
<path d="M65.5981 15.458C65.5135 17.1219 54.3456 19.4344 52.7663 19.3498C51.187 19.2652 50.9896 18.0243 49.4949 17.1501C48.0002 16.2758 42.2188 17.9115 42.2188 17.9115L41.8804 15.4862L52.2869 13.9915L63.624 10.7483C65.3161 11.2841 65.6827 13.7941 65.5981 15.458Z" fill="white"/>
<path d="M96.6728 75.5013C99.4366 73.1887 104.146 68.3662 105.19 70.7352C105.697 71.8632 101.721 76.2063 101.721 76.2063C101.721 76.2063 113.199 72.0324 113.65 73.4143C113.932 74.204 108.856 77.8702 108.856 77.8702C108.856 77.8702 117.006 75.332 117.458 76.5165C117.909 77.701 112.522 80.2956 112.522 80.2956C112.522 80.2956 116.16 79.8161 116.301 80.916C116.47 81.9877 108.179 85.2873 108.179 85.2873C108.179 85.2873 113.82 85.5129 113.086 86.8384C112.156 88.5305 99.1546 88.5023 99.1546 88.5023C99.1546 88.5023 61.5898 108.018 56.9366 106.664C52.2833 105.311 43.0331 91.9711 34.1213 72.4555C25.2096 52.968 32.965 40.7567 43.0331 45.4946C53.0729 50.2043 61.5052 84.1028 61.5052 84.1028C61.5052 84.1028 93.9654 77.7856 96.6728 75.5013Z" fill="#FE5122"/>
<path d="M169.662 281.877L172.539 282.244L169.662 281.877Z" fill="#454FDB"/>
<path d="M158.353 52.2634C154.462 51.7558 150.118 43.9439 150.118 43.9439C161.653 38.642 165.77 48.9638 165.77 48.9638C166.757 52.8275 161.822 52.7429 158.353 52.2634Z" fill="white"/>
<path d="M108.21 74.0579C108.266 74.0579 108.322 74.0297 108.379 74.0015C108.492 73.9169 108.52 73.7194 108.435 73.6066C105.474 69.6866 101.328 64.1026 99.5516 60.7748C86.889 36.9725 89.2016 13.3395 89.2298 13.1139C89.258 12.9728 89.1452 12.8318 88.976 12.8036C88.835 12.7754 88.694 12.8882 88.6658 13.0575C88.6376 13.2831 86.325 37.1136 99.0722 61.0569C100.877 64.4411 105.023 70.025 107.984 73.9733C108.04 74.0297 108.125 74.0579 108.21 74.0579Z" fill="#0A0517"/>
<path d="M190.845 119.605C203.508 119.605 219.611 118.111 235.432 112.47C259.742 103.812 276.522 87.822 285.35 64.9221C285.406 64.7811 285.321 64.6119 285.18 64.5555C285.039 64.4991 284.87 64.5837 284.814 64.7247C264.508 117.349 206.441 120.085 182.413 118.844C182.244 118.844 182.131 118.957 182.103 119.098C182.103 119.267 182.216 119.38 182.357 119.408C184.979 119.521 187.828 119.605 190.845 119.605Z" fill="#0A0517"/>
<path d="M156.438 140.477C173.161 138.333 182.242 150.009 182.242 150.009C164.955 153.083 156.438 140.477 156.438 140.477Z" fill="#CBC7F7"/>
<path d="M175.588 150.655L176.067 150.345L175.926 150.119C174.855 148.484 177.478 146.143 177.506 146.115L177.703 145.917L177.337 145.494L177.139 145.692C177.026 145.805 174.15 148.371 175.475 150.43L175.588 150.655Z" fill="#0A0517"/>
<path d="M157.053 141.97L157.081 141.406L151.949 141.096L153.613 137.119L157.222 140.475L157.617 140.052L153.697 136.414C153.641 136.358 153.528 136.33 153.443 136.358C153.359 136.386 153.274 136.443 153.246 136.527L151.272 141.237C151.244 141.321 151.244 141.406 151.3 141.491C151.356 141.575 151.441 141.632 151.526 141.632L157.053 141.97Z" fill="#0A0517"/>
<path d="M172.768 143.129L173.219 142.819L169.919 138.025C169.863 137.94 169.75 137.884 169.665 137.912C169.553 137.912 169.468 137.996 169.44 138.081L168.199 141.099L168.706 141.324L169.75 138.786L172.768 143.129Z" fill="#0A0517"/>
<path d="M165.346 151.414C165.374 151.414 165.402 151.414 165.402 151.414L170.93 150.145L170.789 149.609L165.684 150.793L166.164 148.114L165.6 148.001L165.036 151.103C165.007 151.188 165.064 151.301 165.12 151.357C165.205 151.385 165.289 151.414 165.346 151.414Z" fill="#0A0517"/>
<path d="M178.347 148.852C178.713 148.852 179.023 148.57 179.023 148.259C179.023 147.921 178.713 147.667 178.347 147.667C177.98 147.667 177.67 147.949 177.67 148.259C177.67 148.598 177.98 148.852 178.347 148.852ZM178.431 148.259C178.431 148.259 178.375 148.288 178.318 148.288C178.262 148.288 178.206 148.259 178.206 148.259C178.206 148.259 178.262 148.231 178.318 148.231C178.403 148.231 178.431 148.231 178.431 148.259Z" fill="#0A0517"/>
<path d="M269.503 114.365C282.165 107.963 292.656 114.675 292.656 114.675C279.796 121.979 269.503 114.365 269.503 114.365Z" fill="#CBC7F7"/>
<path d="M287.55 117.128L287.889 116.677L287.663 116.508C286.394 115.549 287.776 112.982 287.804 112.954L287.945 112.7L287.438 112.418L287.297 112.672C287.24 112.785 285.661 115.69 287.325 116.931L287.55 117.128Z" fill="#0A0517"/>
<path d="M265.836 116.735C265.864 116.735 265.892 116.735 265.92 116.735L270.461 115.438L270.32 114.902L266.174 116.087L266.372 112.59L270.179 114.225L270.405 113.718L266.231 111.913C266.146 111.885 266.061 111.885 265.977 111.941C265.892 111.997 265.836 112.082 265.836 112.167L265.582 116.453C265.582 116.538 265.61 116.623 265.695 116.679C265.723 116.707 265.779 116.735 265.836 116.735Z" fill="#0A0517"/>
<path d="M283.177 111.944L283.516 111.492L279.511 108.588C279.426 108.531 279.314 108.503 279.229 108.559C279.144 108.616 279.088 108.7 279.06 108.813L278.919 111.605L279.483 111.633L279.596 109.377L283.177 111.944Z" fill="#0A0517"/>
<path d="M279.54 120.594C279.597 120.594 279.653 120.565 279.681 120.537L283.742 117.943L283.432 117.463L279.738 119.832L279.371 117.604L278.807 117.689L279.258 120.34C279.286 120.424 279.343 120.509 279.427 120.565C279.484 120.594 279.512 120.594 279.54 120.594Z" fill="#0A0517"/>
<path d="M288.986 114.929C289.071 114.929 289.127 114.929 289.212 114.901C289.381 114.844 289.494 114.732 289.578 114.591C289.635 114.45 289.635 114.309 289.606 114.196C289.494 113.914 289.155 113.773 288.845 113.886C288.535 113.998 288.366 114.309 288.45 114.619C288.507 114.76 288.591 114.844 288.732 114.901C288.817 114.929 288.901 114.929 288.986 114.929Z" fill="#0A0517"/>
<path d="M168.166 194.852C169.605 194.852 170.789 193.668 170.789 192.229C170.789 190.791 169.605 189.606 168.166 189.606C166.728 189.606 165.544 190.791 165.544 192.229C165.544 193.668 166.728 194.852 168.166 194.852ZM168.166 190.199C169.294 190.199 170.225 191.129 170.225 192.257C170.225 193.385 169.294 194.316 168.166 194.316C167.038 194.316 166.108 193.385 166.108 192.257C166.108 191.129 167.038 190.199 168.166 190.199Z" fill="#0A0517"/>
<path d="M222.455 269.188C223.611 269.188 224.57 268.229 224.57 267.073C224.57 265.916 223.64 264.958 222.455 264.958C221.271 264.958 220.34 265.916 220.34 267.073C220.34 268.229 221.299 269.188 222.455 269.188ZM222.455 265.55C223.301 265.55 224.006 266.255 224.006 267.101C224.006 267.947 223.301 268.652 222.455 268.652C221.609 268.652 220.904 267.947 220.904 267.101C220.932 266.227 221.609 265.55 222.455 265.55Z" fill="#0A0517"/>
<path d="M273.9 161.456C275.507 161.456 276.805 160.158 276.805 158.551C276.805 156.943 275.507 155.646 273.9 155.646C272.292 155.646 270.995 156.943 270.995 158.551C270.967 160.158 272.292 161.456 273.9 161.456ZM273.9 156.21C275.197 156.21 276.241 157.253 276.241 158.551C276.241 159.848 275.197 160.892 273.9 160.892C272.603 160.892 271.559 159.848 271.559 158.551C271.559 157.253 272.603 156.21 273.9 156.21Z" fill="#0A0517"/>
<path d="M165.092 115.119C165.205 115.119 165.289 115.062 165.346 114.949C165.402 114.808 165.346 114.639 165.205 114.583C141.346 102.992 126.145 93.0931 115.908 82.4611C115.795 82.3483 115.626 82.3483 115.513 82.4611C115.4 82.5739 115.4 82.7431 115.513 82.8559C125.807 93.5444 141.036 103.5 164.979 115.091C165.007 115.091 165.064 115.119 165.092 115.119Z" fill="#0A0517"/>
<path d="M186.162 130.717C186.191 130.717 186.247 130.717 186.275 130.689C186.416 130.632 186.473 130.463 186.416 130.322C186.275 130.012 173.443 100.372 171.667 75.1596C174.29 76.5415 188.193 83.5637 206.073 88.2452C217.72 91.3192 228.775 92.8139 238.9 92.7011C251.591 92.5601 262.899 89.9091 272.488 84.7764C272.629 84.6918 272.685 84.5226 272.601 84.3816C272.516 84.2405 272.347 84.1841 272.206 84.2688C250.66 95.7751 224.432 92.4755 206.214 87.7094C186.444 82.5202 171.61 74.5109 171.469 74.4263C171.385 74.3699 171.272 74.3699 171.187 74.4263C171.103 74.4827 171.046 74.5673 171.046 74.6802C172.682 100.118 185.739 130.238 185.88 130.548C185.937 130.661 186.05 130.717 186.162 130.717Z" fill="#0A0517"/>
<path d="M145.602 62.1841C145.686 62.1841 145.771 62.1277 145.827 62.0713C145.912 61.9303 145.884 61.7611 145.743 61.6765C145.63 61.5919 134.039 53.639 127.665 49.3805C112.888 38.3536 94.2746 23.1247 89.5085 13.395C89.4521 13.254 89.2829 13.1976 89.1419 13.254C89.0009 13.3104 88.9445 13.4796 89.0009 13.6207C93.8234 23.4349 112.493 38.7202 127.327 49.8035C133.729 54.062 145.292 62.0149 145.404 62.0995C145.517 62.1559 145.574 62.1841 145.602 62.1841Z" fill="#0A0517"/>
<path d="M235.769 100.206C240.647 100.206 243.693 100.037 243.75 100.037C243.919 100.037 244.032 99.896 244.003 99.7268C244.003 99.5576 243.862 99.4448 243.693 99.473C243.58 99.473 231.313 100.178 216.535 98.7398C202.914 97.4143 184.3 93.9455 172.991 84.9491C172.879 84.8645 172.681 84.8645 172.597 85.0055C172.512 85.1183 172.512 85.3157 172.653 85.4003C184.075 94.4813 202.801 97.9783 216.507 99.3038C223.98 100.009 230.833 100.206 235.769 100.206Z" fill="#0A0517"/>
<path d="M207.421 109.342C207.562 109.342 207.703 109.229 207.703 109.088C207.703 108.919 207.59 108.806 207.449 108.778C207.252 108.749 188.216 107.255 176.371 100.43C176.23 100.345 176.061 100.402 175.976 100.543C175.892 100.684 175.948 100.853 176.089 100.938C188.046 107.819 207.195 109.342 207.421 109.342C207.393 109.342 207.393 109.342 207.421 109.342Z" fill="#0A0517"/>
<path d="M146.026 73.2723C146.11 73.2723 146.223 73.2159 146.28 73.1313C146.364 72.9903 146.308 72.8211 146.195 72.7365C146.026 72.6519 129.894 63.0351 126.144 58.974C126.031 58.8612 125.861 58.8612 125.749 58.9458C125.636 59.0586 125.636 59.2278 125.72 59.3406C129.528 63.4863 145.208 72.8211 145.885 73.2159C145.913 73.2723 145.969 73.2723 146.026 73.2723Z" fill="#0A0517"/>
<path d="M151.948 91.0108C152.032 91.0108 152.145 90.9544 152.201 90.8698C152.286 90.7288 152.23 90.5596 152.117 90.475C151.863 90.3057 125.269 74.3153 119.403 68.2238C119.29 68.111 119.121 68.111 119.008 68.2238C118.895 68.3366 118.895 68.5058 119.008 68.6186C124.93 74.7948 150.735 90.3057 151.835 90.9826C151.863 90.9826 151.891 91.0108 151.948 91.0108Z" fill="#0A0517"/>
<path d="M110.606 46.5135C110.69 46.5135 110.747 46.4853 110.803 46.4289C110.916 46.3161 110.888 46.1469 110.775 46.0341C110.606 45.8931 93.7693 30.5795 91.2876 25.2776C91.2312 25.1366 91.062 25.0802 90.921 25.1366C90.7799 25.193 90.7235 25.3622 90.7799 25.5032C93.3181 30.8898 109.703 45.8085 110.408 46.4289C110.465 46.4853 110.549 46.5135 110.606 46.5135Z" fill="#0A0517"/>
<path d="M244.452 191.8L251.897 199.612L254.125 187.514L244.79 190.841L244.452 191.8Z" fill="#CBC7F7"/>
<path d="M228.542 181.197L229.359 174.005L217.486 179.42L228.542 181.197Z" fill="#CBC7F7"/>
<path d="M227.281 193.581L225.815 200.688L216.198 191.861L227.281 193.581Z" fill="#CBC7F7"/>
<path d="M227.508 192.452L216.255 191.945L226.803 195.865L227.508 192.452Z" fill="#0A0517"/>
<path d="M245.805 191.516C245.805 191.516 225.189 170.139 199.526 182.801C199.497 182.801 220.367 201.443 245.805 191.516Z" fill="#CBC7F7"/>
<path d="M215.322 191.663L215.492 191.437C220.145 184.443 214.533 178.803 214.476 178.746L214.279 178.549L213.884 178.944L214.081 179.141C214.307 179.367 219.412 184.528 215.04 191.099L214.871 191.324L215.322 191.663Z" fill="#0A0517"/>
<path d="M211.877 185.028C212.103 185.028 212.328 184.972 212.526 184.831C212.78 184.662 212.977 184.408 213.034 184.098C213.09 183.788 213.034 183.477 212.864 183.195C212.695 182.941 212.441 182.744 212.131 182.688C211.821 182.631 211.511 182.688 211.229 182.857C210.975 183.026 210.777 183.28 210.721 183.59C210.665 183.9 210.721 184.211 210.89 184.493C211.059 184.746 211.313 184.944 211.623 185C211.708 185.028 211.793 185.028 211.877 185.028ZM211.877 183.252C211.934 183.252 211.962 183.252 212.018 183.28C212.187 183.308 212.328 183.421 212.413 183.562C212.498 183.703 212.526 183.872 212.498 184.013C212.47 184.182 212.357 184.323 212.216 184.408C212.075 184.493 211.905 184.521 211.736 184.493C211.567 184.464 211.426 184.352 211.341 184.211C211.257 184.07 211.229 183.9 211.257 183.731C211.285 183.562 211.398 183.421 211.539 183.336C211.652 183.28 211.764 183.252 211.877 183.252Z" fill="#0A0517"/>
<path d="M203.813 184.275C203.925 184.275 204.038 184.19 204.095 184.077C204.151 183.936 204.038 183.767 203.897 183.739L199.921 182.583C199.78 182.526 199.61 182.639 199.582 182.78C199.526 182.921 199.639 183.09 199.78 183.119L203.756 184.275C203.756 184.247 203.784 184.275 203.813 184.275Z" fill="#0A0517"/>
<path d="M152.513 44.5116C150.624 47.2472 155.672 50.998 155.672 50.998C161.763 50.152 160.804 43.4963 160.804 43.4963C159.056 42.5093 155.079 40.8172 152.513 44.5116Z" fill="#0A0517"/>
<path d="M256.183 238.343C257.762 238.343 259.031 237.073 259.031 235.494C259.031 233.915 257.762 232.646 256.183 232.646C254.604 232.646 253.334 233.915 253.334 235.494C253.334 237.073 254.632 238.343 256.183 238.343ZM256.183 233.182C257.452 233.182 258.467 234.197 258.467 235.466C258.467 236.735 257.452 237.75 256.183 237.75C254.914 237.75 253.899 236.735 253.899 235.466C253.899 234.197 254.942 233.182 256.183 233.182Z" fill="#0A0517"/>
<path d="M157.651 230.696C159.005 230.696 160.133 229.596 160.133 228.214C160.133 226.86 159.033 225.732 157.651 225.732C156.269 225.732 155.169 226.832 155.169 228.214C155.197 229.596 156.297 230.696 157.651 230.696ZM157.651 226.324C158.695 226.324 159.569 227.17 159.569 228.242C159.569 229.286 158.723 230.16 157.651 230.16C156.608 230.16 155.733 229.314 155.733 228.242C155.762 227.17 156.608 226.324 157.651 226.324Z" fill="#0A0517"/>
<path d="M196.907 128.772C198.571 128.772 199.953 127.419 199.953 125.726C199.953 124.063 198.599 122.681 196.907 122.681C195.243 122.681 193.862 124.034 193.862 125.726C193.862 127.419 195.215 128.772 196.907 128.772ZM196.907 123.273C198.261 123.273 199.389 124.373 199.389 125.755C199.389 127.137 198.289 128.236 196.907 128.236C195.554 128.236 194.426 127.137 194.426 125.755C194.426 124.373 195.525 123.273 196.907 123.273Z" fill="#0A0517"/>
<path d="M163.202 228.091C163.089 229.953 164.302 235.621 164.302 235.621C164.838 239.485 170.507 246.253 170.507 246.253C174.991 253.868 173.524 258.944 173.524 258.944C173.129 264.697 167.207 267.151 166.079 267.828C164.951 268.504 164.5 269.068 164.5 269.068C164.669 269.266 164.725 269.435 165.007 269.915C165.261 270.338 166.558 277.952 166.558 277.952L166.953 277.473C168.955 274.37 170.901 272.058 176.739 271.691C182.408 271.325 185.764 265.853 185.764 265.853C185.764 265.853 187.315 271.014 183.846 273.722C182.323 274.906 176.908 276.091 173.891 278.544C170.563 281.252 169.717 285.538 169.717 285.538L160.072 284.297C160.974 281.562 161.228 278.375 160.664 276.175C160.213 274.427 159.931 273.412 159.931 273.412C156.011 277.219 157.195 283.846 157.223 283.931L151.95 283.254C151.527 282.493 151.075 279.87 152.204 277.275C154.008 273.158 157.9 268.674 157.9 268.674C157.759 268.081 157.421 266.305 153.191 264.387C148.96 262.441 147.522 258.013 147.099 254.122C146.676 250.23 150.963 243.856 150.963 243.856C151.217 248.65 150.088 252.852 152.542 257.816C154.685 262.103 161.708 264.979 161.708 264.979C162.638 264.105 164.782 262.159 166.389 257.647C168.025 253.134 164.753 247.41 162.272 244.73C161.595 243.997 159.085 240.472 159.282 237.624C159.677 232.801 163.202 228.091 163.202 228.091Z" fill="#454FDB"/>
<path d="M164.5 269.049C163.118 269.726 159.903 273.42 159.903 273.42L160.665 276.043L165.008 269.923L164.5 269.049Z" fill="#0A0517"/>
<path d="M166.59 277.931L166.449 285.038L168.508 285.377L167.013 277.452L166.59 277.931Z" fill="#0A0517"/>
<path d="M294.796 242.465C294.683 244.327 295.896 249.995 295.896 249.995C296.432 253.859 302.1 260.627 302.1 260.627C306.584 268.242 305.118 273.318 305.118 273.318C304.723 279.071 298.801 281.525 297.673 282.202C296.545 282.878 296.093 283.443 296.093 283.443C296.262 283.64 296.319 283.809 296.601 284.289C296.855 284.712 298.152 292.326 298.152 292.326L298.547 291.847C300.549 288.744 302.495 286.432 308.333 286.065C314.001 285.699 317.357 280.228 317.357 280.228C317.357 280.228 318.909 285.388 315.44 288.096C313.917 289.28 308.502 290.465 305.484 292.918C302.157 295.626 301.311 299.912 301.311 299.912L291.666 298.671C292.568 295.936 292.822 292.749 292.258 290.549C291.807 288.801 291.525 287.786 291.525 287.786C287.605 291.593 288.789 298.22 288.817 298.305L283.543 297.628C283.12 296.867 282.669 294.244 283.797 291.649C285.602 287.532 289.494 283.048 289.494 283.048C289.353 282.455 289.015 280.679 284.784 278.761C280.554 276.815 279.116 272.387 278.693 268.496C278.27 264.604 282.556 258.23 282.556 258.23C282.81 263.024 281.682 267.226 284.136 272.19C286.279 276.477 293.301 279.353 293.301 279.353C294.232 278.479 296.375 276.533 297.983 272.021C299.619 267.509 296.347 261.784 293.865 259.104C293.188 258.371 290.679 254.846 290.876 251.998C291.271 247.175 294.796 242.465 294.796 242.465Z" fill="#454FDB"/>
<path d="M296.094 283.431C294.712 284.108 291.497 287.802 291.497 287.802L292.258 290.425L296.602 284.305L296.094 283.431Z" fill="#0A0517"/>
<path d="M298.176 292.313L298.035 299.42L300.094 299.758L298.599 291.833L298.176 292.313Z" fill="#0A0517"/>
<path d="M53.7496 19.3764C56.9928 19.3764 61.9281 18.0228 64.2124 17.0639C66.1301 16.246 66.243 14.3847 65.7071 12.9182C65.2277 11.5363 64.0714 10.2391 63.169 10.5211C61.4487 11.0287 53.4394 13.3131 52.1703 13.5105C50.8166 13.7361 42.0741 14.977 41.9894 14.977C41.8766 15.0052 41.7638 15.0898 41.7638 15.2026C41.5382 16.4999 41.9894 18.0792 41.9894 18.1356C42.0177 18.2202 42.0741 18.2766 42.1305 18.3048C42.2151 18.333 42.2714 18.333 42.3561 18.3048C42.4125 18.2766 49.0963 15.682 50.8448 18.4458C51.2396 19.1226 52.3395 19.3764 53.7496 19.3764ZM63.451 11.0287C63.9304 11.0287 64.7764 11.903 65.2277 13.0874C65.5097 13.8489 65.9327 15.7102 64.0432 16.5281C60.4334 18.051 52.3959 19.8277 51.3524 18.1638C49.5757 15.3436 43.8789 17.1767 42.4971 17.6843C42.3843 17.2331 42.215 16.3024 42.3279 15.5128C43.6815 15.3154 51.0704 14.2719 52.3113 14.0745C53.7214 13.8489 62.0973 11.4517 63.3946 11.0569C63.3664 11.0287 63.3946 11.0287 63.451 11.0287Z" fill="#0A0517"/>
<path d="M50.5133 22.676C56.3793 28.965 60.9198 27.8652 60.9198 27.8652L61.1172 30.7699C54.0385 30.1777 50.3441 23.8041 50.3441 23.8041L50.5133 22.676Z" fill="#0A0517"/>
<path d="M50.1986 20.3389C50.255 20.3389 50.2832 20.3389 50.3396 20.3107C50.4806 20.2261 50.537 20.0569 50.4524 19.9159C50.4242 19.8595 49.7192 18.5622 48.7321 17.7726C48.6193 17.688 48.4219 17.688 48.3373 17.829C48.2527 17.9418 48.2527 18.1392 48.3937 18.2238C49.2962 18.9571 49.973 20.1979 49.973 20.1979C50.0012 20.2825 50.114 20.3389 50.1986 20.3389Z" fill="#0A0517"/>
<path d="M53.7003 15.344C53.7285 15.344 53.7567 15.344 53.7849 15.344C53.8695 15.3158 61.4558 13.3417 63.5709 12.6084C63.7119 12.552 63.7965 12.411 63.7401 12.2418C63.6837 12.1008 63.5427 12.0162 63.3735 12.0726C61.2584 12.7776 53.7003 14.78 53.6157 14.8082C53.4747 14.8364 53.3619 15.0056 53.4183 15.1466C53.4747 15.2594 53.5875 15.344 53.7003 15.344Z" fill="#0A0517"/>
<path d="M51.4969 18.6435C52.0045 19.0947 56.8552 18.8127 60.6343 17.9667C63.4262 17.3462 65.4286 16.0208 65.4286 16.0208C66.754 20.674 51.0174 20.8433 50.82 19.9126C50.6226 18.9819 49.5791 17.318 49.5791 17.318C49.5791 17.318 50.5944 17.8539 51.4969 18.6435Z" fill="#0A0517"/>
<path d="M42.5265 13.7089C35.4761 10.7477 31.133 31.2504 18.6396 33.4219C6.14623 35.5934 4.1721 17.5443 4.1721 17.5443C16.1014 24.1153 20.5291 18.1365 30.4562 9.05557C40.3832 -0.0253959 46.5312 8.46334 46.5312 8.46334C46.5312 8.46334 49.6051 16.6701 42.5265 13.7089Z" fill="#0A0517"/>
<path d="M87.7623 94.5029C87.7905 94.5029 87.847 94.5029 87.8752 94.4747C93.9949 91.5418 98.8456 89.1728 99.4379 88.8626C101.835 88.919 112.89 89.06 113.313 86.7757C113.37 86.4372 113.285 86.127 113.059 85.9014C112.382 85.1964 110.408 85.14 108.575 85.281C111.621 84.3221 115.739 82.7992 116.415 81.3891C116.556 81.1071 116.556 80.8251 116.444 80.5713C116.105 79.838 115.033 79.697 113.652 79.838C116.162 78.6818 118.136 77.4127 117.966 76.3692C117.938 76.2282 117.882 76.0308 117.628 75.8898C116.613 75.2975 112.665 76.4538 109.224 77.6101C111.734 76.2564 114.131 74.6207 113.962 73.5208C113.934 73.2952 113.793 73.126 113.595 72.985C112.157 72.1671 105.586 74.5925 102.709 75.7206C103.978 74.3669 105.924 71.9979 105.586 70.6161C105.501 70.3058 105.276 69.8828 104.571 69.6854C103.668 69.4316 101.384 70.9545 96.6459 74.9591L96.2229 75.3257C95.5178 75.918 84.7729 78.5689 67.4571 82.3762C67.3161 82.4044 67.2033 82.5736 67.2315 82.7146C67.2597 82.8556 67.4007 82.9684 67.5699 82.9402C80.2325 80.1482 95.546 76.623 96.5613 75.777L96.9843 75.4104C101.243 71.8005 103.725 70.0802 104.373 70.2494C104.853 70.3904 104.937 70.616 104.994 70.7853C105.332 72.1107 102.455 75.2411 101.327 76.3128C101.243 76.3974 101.215 76.5666 101.299 76.6794C101.384 76.7922 101.525 76.8486 101.638 76.7922C105.529 75.1847 112.157 72.8722 113.285 73.5208C113.37 73.5772 113.37 73.6054 113.37 73.6336C113.539 74.8181 107.927 77.8357 103.894 79.5842C103.753 79.6406 103.696 79.8098 103.753 79.9508C103.809 80.0918 103.978 80.1482 104.119 80.0918C108.632 78.3151 116.19 75.7206 117.318 76.3974C117.374 76.4256 117.374 76.4538 117.374 76.4538C117.515 77.3845 114.469 78.9638 110.831 80.4021C108.124 81.1353 105.276 82.2916 104.345 82.6864C104.204 82.7428 104.148 82.912 104.204 83.053C104.26 83.194 104.401 83.2786 104.542 83.2222C105.558 82.912 108.321 82.0378 111.057 80.9379C113.482 80.2893 115.541 80.0354 115.88 80.7969C115.908 80.8533 115.936 80.9661 115.851 81.1635C115.09 82.7992 107.842 84.9989 105.106 85.7322C104.965 85.7604 104.881 85.9296 104.909 86.0706C104.937 86.2116 105.078 86.3244 105.219 86.2962C106.968 85.986 111.677 85.422 112.608 86.3526C112.721 86.4654 112.749 86.5782 112.721 86.7475C112.467 88.1011 104.74 88.496 99.3251 88.3832C99.2687 88.3832 99.2405 88.3832 99.1841 88.4114C99.1276 88.4396 94.0795 90.9213 87.5649 94.0517C87.4239 94.1081 87.3675 94.2773 87.4239 94.4183C87.5649 94.4465 87.6777 94.5029 87.7623 94.5029Z" fill="#0A0517"/>
<path d="M65.7647 300.973C65.9057 300.973 66.0467 300.86 66.0467 300.691C66.0467 300.409 66.1878 294.036 57.276 288.367C48.7309 282.924 41.0318 277.735 40.6652 274.125C40.637 273.984 40.5242 273.871 40.3549 273.871C40.2139 273.9 40.0729 274.012 40.1011 274.182C40.4959 278.045 47.9694 283.122 56.9658 288.846C64.5521 293.669 65.3699 299.14 65.4545 300.409L22.6442 300.155L16.7783 288.029C16.7219 287.916 16.6091 287.859 16.4963 287.859C16.3834 287.888 16.2706 287.972 16.2706 288.085L14.1273 300.268L3.94647 300.212L3.60803 274.351C3.60803 274.21 3.46702 274.069 3.32601 274.069C3.1568 274.069 3.04399 274.21 3.04399 274.351L3.38243 300.494C3.38243 300.635 3.49524 300.776 3.66445 300.776L14.3529 300.832C14.4939 300.832 14.6067 300.748 14.6349 300.607L16.6655 289.072L22.2212 300.578C22.2776 300.663 22.3622 300.748 22.475 300.748L65.7647 300.973Z" fill="#0A0517"/>
<path d="M9.92481 286.621C12.745 286.621 15.255 285.944 17.4547 284.59C23.2079 281.037 24.6461 273.958 24.6743 273.873C24.7025 273.732 24.6179 273.563 24.4487 273.535C24.3077 273.507 24.1385 273.591 24.1103 273.761C24.1103 273.817 22.7002 280.698 17.1445 284.111C13.6474 286.254 9.30437 286.621 4.14344 285.21C4.00243 285.182 3.83324 285.267 3.80503 285.408C3.77683 285.549 3.86143 285.718 4.00243 285.746C6.08937 286.339 8.06349 286.621 9.92481 286.621Z" fill="#0A0517"/>
<path d="M119.718 300.92C119.859 300.92 120 300.807 120 300.638C120 300.356 120.141 293.983 111.229 288.314C102.684 282.871 94.9849 277.682 94.6183 274.072C94.5901 273.931 94.4773 273.818 94.3081 273.818C94.1671 273.847 94.026 273.959 94.0542 274.129C94.4491 278.02 101.923 283.069 110.919 288.794C118.505 293.616 119.323 299.087 119.408 300.356L76.5973 300.102L70.7314 287.976C70.675 287.863 70.5622 287.806 70.4493 287.806C70.3365 287.835 70.2238 287.919 70.2238 288.032L68.0804 300.215L57.8996 300.159L57.5612 274.298C57.5612 274.157 57.4201 274.016 57.2791 274.016C57.1099 274.016 56.9971 274.157 56.9971 274.298L57.3355 300.441C57.3355 300.582 57.4483 300.723 57.6175 300.723L68.306 300.779C68.447 300.779 68.5598 300.695 68.588 300.554L70.6468 289.019L76.2025 300.525C76.2589 300.61 76.3435 300.695 76.4563 300.695L119.718 300.92Z" fill="#0A0517"/>
<path d="M63.8545 286.59C66.6747 286.59 69.1846 285.914 71.3844 284.56C77.1375 281.007 78.5758 273.928 78.604 273.843C78.6322 273.702 78.5476 273.533 78.3784 273.505C78.2374 273.477 78.0682 273.561 78.04 273.73C78.04 273.787 76.6299 280.668 71.0742 284.081C67.5772 286.224 63.2341 286.59 58.0732 285.18C57.9322 285.152 57.7629 285.237 57.7347 285.378C57.7065 285.519 57.7911 285.688 57.9322 285.716C60.0473 286.308 62.0214 286.59 63.8545 286.59Z" fill="#0A0517"/>
<path d="M49.4959 207.934L51.047 225.137L57.3359 151.954L49.4959 207.934Z" fill="#0A0517"/>
<path d="M56.8565 87.2311C56.9129 87.2311 56.9693 87.2029 57.0257 87.1747L61.5944 84.1572C61.7354 84.0725 61.7636 83.9033 61.679 83.7623C61.5944 83.6213 61.4251 83.5931 61.2841 83.6777L56.7155 86.6953C56.5745 86.7799 56.5462 86.9491 56.6308 87.0901C56.659 87.1747 56.7437 87.2311 56.8565 87.2311Z" fill="#0A0517"/>
<path d="M16.3296 273.818C16.4706 273.818 16.5834 273.706 16.6116 273.565C16.6116 273.565 16.7808 272.352 17.0628 270.152C17.091 270.011 16.9782 269.87 16.809 269.842C16.668 269.814 16.527 269.927 16.4988 270.096C16.2167 272.296 16.0475 273.48 16.0475 273.48C16.0193 273.621 16.1321 273.762 16.3013 273.79L16.3296 273.818ZM17.2038 267.022C17.3448 267.022 17.4576 266.909 17.4858 266.768L17.9089 263.384C17.9371 263.243 17.8242 263.102 17.655 263.074C17.514 263.045 17.373 263.158 17.3448 263.327L16.9218 266.712C16.8936 266.853 17.0064 266.994 17.1756 267.022C17.2038 267.022 17.2038 267.022 17.2038 267.022ZM18.0781 260.282C18.2191 260.282 18.3319 260.169 18.3601 260.028L18.7831 256.672C18.8113 256.531 18.6985 256.39 18.5293 256.362C18.3601 256.333 18.2473 256.446 18.2191 256.615L17.796 259.971C17.7678 260.112 17.8806 260.253 18.0499 260.282H18.0781ZM18.9523 253.57C19.0933 253.57 19.2061 253.457 19.2343 253.316L19.6573 249.96C19.6855 249.819 19.5727 249.678 19.4035 249.65C19.2343 249.621 19.1215 249.734 19.0933 249.903L18.6703 253.259C18.6421 253.4 18.7549 253.541 18.9241 253.57C18.9241 253.57 18.9241 253.57 18.9523 253.57ZM19.7984 246.829C19.9394 246.829 20.0522 246.717 20.0804 246.576L20.5034 243.22C20.5316 243.079 20.4188 242.938 20.2496 242.909C20.0804 242.881 19.9676 242.994 19.9394 243.163L19.5163 246.519C19.4881 246.66 19.6009 246.801 19.7702 246.829H19.7984ZM20.6444 240.089C20.7854 240.089 20.8982 239.976 20.9264 239.835L21.3495 236.479C21.3777 236.338 21.2648 236.197 21.0956 236.169C20.9264 236.141 20.8136 236.254 20.7854 236.423L20.3624 239.779C20.3342 239.92 20.447 240.061 20.6162 240.089H20.6444ZM21.4905 233.377C21.6315 233.377 21.7443 233.264 21.7725 233.123L22.1673 229.767C22.1955 229.626 22.0827 229.485 21.9135 229.457C21.7725 229.429 21.6315 229.542 21.6033 229.711L21.1802 233.067C21.152 233.208 21.2649 233.349 21.4341 233.377C21.4623 233.377 21.4623 233.377 21.4905 233.377ZM22.3083 226.637C22.4493 226.637 22.5621 226.524 22.5903 226.383C22.7313 225.283 22.8724 224.155 23.0134 223.027C23.0416 222.886 22.9288 222.745 22.7595 222.717C22.5903 222.689 22.4775 222.802 22.4493 222.971C22.3083 224.099 22.1673 225.227 22.0263 226.327C21.9981 226.468 22.1109 226.609 22.2801 226.637H22.3083ZM23.1262 219.925C23.2672 219.925 23.38 219.812 23.4082 219.671C23.5492 218.543 23.6902 217.443 23.803 216.315C23.8312 216.174 23.7184 216.033 23.5492 216.005C23.38 215.977 23.2672 216.089 23.239 216.259C23.098 217.387 22.957 218.515 22.8442 219.615C22.816 219.756 22.9288 219.897 23.098 219.925C23.098 219.897 23.1262 219.925 23.1262 219.925ZM23.944 213.185C24.085 213.185 24.1979 213.072 24.2261 212.931C24.3671 211.803 24.4798 210.703 24.6208 209.575C24.6491 209.434 24.5363 209.293 24.3671 209.265C24.2261 209.236 24.085 209.349 24.0568 209.518C23.9158 210.647 23.803 211.775 23.662 212.874C23.6338 213.015 23.7466 213.157 23.9158 213.185C23.9158 213.185 23.9158 213.185 23.944 213.185ZM24.7337 206.444C24.8747 206.444 24.9875 206.332 25.0157 206.191C25.1567 205.063 25.2695 203.935 25.4105 202.835C25.4387 202.694 25.3259 202.553 25.1567 202.524C24.9875 202.496 24.8747 202.609 24.8465 202.778C24.7055 203.906 24.5927 205.034 24.4516 206.134C24.4234 206.275 24.5363 206.416 24.7055 206.444H24.7337ZM25.5233 199.704C25.6643 199.704 25.7771 199.591 25.8053 199.45C25.9464 198.322 26.0592 197.194 26.2002 196.094C26.2284 195.953 26.1156 195.812 25.9464 195.784C25.8053 195.756 25.6643 195.869 25.6361 196.038C25.4951 197.166 25.3823 198.266 25.2413 199.394C25.2131 199.535 25.3259 199.676 25.4951 199.704C25.4951 199.704 25.4951 199.704 25.5233 199.704ZM26.2848 192.992C26.4258 192.992 26.5386 192.879 26.5668 192.738C26.7078 191.61 26.8206 190.482 26.9334 189.382C26.9616 189.241 26.8488 189.1 26.6796 189.072C26.5386 189.044 26.3976 189.157 26.3694 189.326C26.2566 190.454 26.1155 191.554 26.0027 192.682C25.9745 192.823 26.0874 192.964 26.2566 192.992H26.2848ZM27.0462 186.252C27.1872 186.252 27.3 186.139 27.3282 185.998C27.4411 184.87 27.582 183.742 27.6948 182.614C27.723 182.473 27.6102 182.332 27.441 182.304C27.3 182.276 27.159 182.388 27.1308 182.558C27.018 183.686 26.877 184.786 26.7642 185.914C26.736 186.055 26.8488 186.196 27.018 186.224C27.018 186.252 27.018 186.252 27.0462 186.252ZM27.7795 179.512C27.9205 179.512 28.0333 179.399 28.0615 179.258C28.1743 178.13 28.3153 177.002 28.4281 175.874C28.4563 175.733 28.3435 175.592 28.1743 175.564C28.0051 175.535 27.8923 175.648 27.8641 175.817C27.7512 176.917 27.6385 178.045 27.4974 179.202C27.4692 179.343 27.5821 179.484 27.7513 179.512C27.7513 179.512 27.7513 179.512 27.7795 179.512ZM28.4845 172.772C28.6255 172.772 28.7383 172.659 28.7665 172.518C28.8793 171.39 28.9921 170.262 29.1049 169.134C29.1331 168.993 29.0203 168.852 28.8511 168.823C28.7101 168.823 28.5691 168.908 28.5409 169.077C28.4281 170.177 28.3153 171.305 28.2025 172.461C28.1743 172.602 28.2871 172.743 28.4563 172.772C28.4563 172.743 28.4563 172.772 28.4845 172.772ZM29.1331 166.003C29.2741 166.003 29.3869 165.89 29.4151 165.749C29.528 164.593 29.6408 163.465 29.7254 162.365C29.7536 162.224 29.6126 162.083 29.4716 162.055C29.3024 162.027 29.1896 162.168 29.1614 162.309C29.0486 163.409 28.9639 164.537 28.8511 165.693C28.8511 165.862 28.9639 166.003 29.1331 166.003ZM29.7536 159.263C29.8946 159.263 30.0074 159.15 30.0356 159.009C30.1484 157.853 30.233 156.725 30.3176 155.625C30.3176 155.456 30.2048 155.343 30.0638 155.315C29.8946 155.315 29.7818 155.427 29.7536 155.568C29.669 156.668 29.5562 157.796 29.4716 158.953C29.4716 159.094 29.5844 159.235 29.7536 159.263ZM30.3176 152.494C30.4586 152.494 30.5996 152.382 30.5996 152.241C30.6842 151.056 30.7688 149.9 30.8252 148.856C30.8252 148.687 30.7125 148.574 30.5714 148.546C30.4022 148.546 30.2894 148.659 30.2612 148.8C30.2048 149.844 30.1202 151 30.0356 152.184C30.0356 152.353 30.1484 152.466 30.3176 152.494C30.2894 152.494 30.3176 152.494 30.3176 152.494ZM30.7407 145.698C30.8817 145.698 31.0227 145.585 31.0227 145.416C31.0791 144.119 31.1073 142.962 31.1073 142.003C31.1073 141.834 30.9944 141.721 30.8252 141.721C30.6842 141.721 30.5432 141.834 30.5432 142.003C30.5432 142.962 30.515 144.09 30.4586 145.388C30.4304 145.557 30.5714 145.698 30.7407 145.698C30.7125 145.698 30.7407 145.698 30.7407 145.698ZM30.8535 138.929C30.9945 138.929 31.1355 138.817 31.1355 138.647C31.1637 137.548 31.2201 136.419 31.3047 135.291C31.3047 135.122 31.1919 135.009 31.0509 134.981C30.8817 134.981 30.7689 135.094 30.7407 135.235C30.656 136.363 30.5997 137.519 30.5714 138.619C30.5714 138.788 30.6843 138.929 30.8535 138.929Z" fill="#0A0517"/>
<path d="M30.7689 100.2L49.382 100.115C49.5513 100.115 49.6641 99.9742 49.6641 99.8332C49.6641 99.664 49.5231 99.5512 49.382 99.5512L31.0509 99.6358L31.4175 64.44C31.4175 64.2708 31.3047 64.158 31.1355 64.158C30.9945 64.158 30.8535 64.2708 30.8535 64.44L30.4869 99.9178C30.4869 100.002 30.5151 100.059 30.5715 100.115C30.6279 100.172 30.7125 100.2 30.7689 100.2Z" fill="#0A0517"/>
<path d="M40.6966 134.833C45.9985 134.833 51.0466 134.325 53.9232 133.056C55.5589 132.323 56.4614 131.364 56.5742 130.207C57.3074 123.383 54.9385 107.195 53.1336 104.036C53.049 103.895 52.8797 103.867 52.7387 103.923C52.5977 104.008 52.5695 104.177 52.6259 104.318C54.3744 107.336 56.7152 123.552 56.0101 130.151C55.8973 131.082 55.1359 131.9 53.6694 132.548C46.2523 135.876 24.7062 133.761 21.6604 131.561C17.7403 128.741 20.8989 117.629 25.7778 107.872C28.3724 102.711 30.9105 100.032 30.9387 100.003C31.0516 99.8905 31.0516 99.7213 30.9387 99.6085C30.8259 99.4957 30.6567 99.4957 30.5439 99.6085C30.4311 99.7213 27.9212 102.372 25.2984 107.618C20.6733 116.84 16.8943 128.769 21.3783 132.012C23.5499 133.592 32.4334 134.833 40.6966 134.833Z" fill="#0A0517"/>
<path d="M40.527 114.592C48.1696 114.592 54.9099 113.746 55.0509 113.746C55.1919 113.718 55.3047 113.577 55.3047 113.436C55.2765 113.295 55.1355 113.182 54.9945 113.182C54.7971 113.21 33.8996 115.805 24.1135 111.8C23.9725 111.744 23.8033 111.8 23.7469 111.941C23.6905 112.082 23.7469 112.251 23.8879 112.308C28.2028 114.085 34.6328 114.592 40.527 114.592Z" fill="#0A0517"/>
<path d="M103.246 72.4271C104.487 72.4271 105.502 70.9324 105.531 70.876C105.615 70.735 105.587 70.5658 105.446 70.4812C105.305 70.3966 105.136 70.4248 105.051 70.5658C104.797 70.9324 104.008 71.8631 103.218 71.8631C102.851 71.8631 102.513 71.6375 102.203 71.1862C102.118 71.0452 101.949 71.017 101.808 71.1298C101.667 71.2144 101.639 71.3836 101.751 71.5246C102.175 72.1451 102.682 72.4271 103.246 72.4271Z" fill="#0A0517"/>
<path d="M112.048 74.8538C112.809 74.8538 113.543 74.4308 113.571 74.4026C113.712 74.318 113.74 74.1488 113.684 74.0078C113.599 73.8667 113.43 73.8385 113.289 73.8949C113.289 73.8949 112.274 74.459 111.569 74.177C111.258 74.0359 111.061 73.7539 110.948 73.2745C110.92 73.1335 110.751 73.0207 110.61 73.0771C110.469 73.1053 110.356 73.2745 110.412 73.4155C110.582 74.0642 110.892 74.4872 111.371 74.6846C111.597 74.8256 111.822 74.8538 112.048 74.8538Z" fill="#0A0517"/>
<path d="M114.585 82.2374C115.121 82.2374 115.713 81.8708 115.797 81.8426C115.939 81.758 115.967 81.5888 115.882 81.4478C115.797 81.3068 115.628 81.2786 115.487 81.3632C115.205 81.5324 114.698 81.7298 114.472 81.6734C114.416 81.6452 114.387 81.617 114.359 81.5606C114.246 81.3068 114.331 81.1094 114.387 80.9683C114.528 80.6863 114.867 80.4889 115.233 80.4325C115.374 80.4043 115.487 80.2633 115.459 80.1223C115.431 79.9813 115.29 79.8685 115.149 79.8967C114.613 79.9813 114.134 80.2915 113.908 80.7145C113.711 81.053 113.682 81.4478 113.852 81.8144C113.936 82.04 114.105 82.181 114.331 82.2374C114.387 82.2374 114.472 82.2374 114.585 82.2374Z" fill="#0A0517"/>
<path d="M116.22 78.2311C116.869 78.2311 117.461 77.5542 117.545 77.4696C117.658 77.3568 117.63 77.1876 117.517 77.0748C117.404 76.962 117.235 76.9902 117.122 77.103C116.953 77.3004 116.389 77.808 116.051 77.6388C115.825 77.526 115.656 77.2158 115.684 76.9338C115.712 76.6236 115.938 76.3979 116.333 76.2851C116.474 76.2287 116.558 76.0877 116.53 75.9467C116.474 75.8057 116.333 75.7211 116.192 75.7493C115.571 75.9185 115.205 76.3415 115.148 76.8774C115.092 77.385 115.374 77.9208 115.797 78.1464C115.938 78.2029 116.079 78.2311 116.22 78.2311Z" fill="#0A0517"/>
<path d="M112.212 87.7125C112.24 87.7125 112.268 87.7125 112.296 87.7125C112.465 87.7125 112.578 87.5715 112.578 87.4305C112.578 87.2613 112.437 87.1485 112.296 87.1485C112.014 87.1485 111.45 87.0921 111.337 86.8383C111.281 86.6691 111.309 86.4717 111.422 86.3024C111.563 86.105 111.845 86.0204 112.155 86.0204C112.324 86.0204 112.437 85.9076 112.465 85.7666C112.465 85.5974 112.353 85.4846 112.212 85.4564C111.704 85.4282 111.253 85.5974 110.971 85.964C110.745 86.2742 110.689 86.6691 110.83 87.0357C111.027 87.6561 111.929 87.7125 112.212 87.7125Z" fill="#0A0517"/>
<path d="M165.57 115.034L155.474 110.296C150.849 102.597 145.773 61.9014 145.773 61.9014C156.292 106.488 165.57 115.034 165.57 115.034Z" fill="#0A0517"/>
<path d="M240.874 216.532C240.958 216.532 241.043 216.504 241.099 216.42C241.184 216.307 241.156 216.109 241.043 216.025C240.93 215.94 228.324 206.887 219.525 213.233C211.093 219.324 204.352 211.315 204.296 211.23C204.183 211.118 204.014 211.089 203.901 211.202C203.788 211.315 203.76 211.484 203.873 211.597C203.929 211.682 211.036 220.086 219.863 213.684C228.324 207.564 240.592 216.363 240.733 216.476C240.761 216.532 240.817 216.532 240.874 216.532Z" fill="#0A0517"/>
<path d="M324.514 211.883C324.599 211.883 324.683 211.854 324.74 211.77C324.824 211.657 324.796 211.46 324.683 211.375C324.571 211.29 311.964 202.238 303.166 208.583C294.761 214.675 288.219 206.919 287.937 206.581C287.824 206.468 287.655 206.44 287.542 206.553C287.429 206.665 287.401 206.835 287.514 206.947C287.598 207.032 294.677 215.436 303.504 209.034C311.964 202.915 324.232 211.713 324.373 211.826C324.401 211.883 324.458 211.883 324.514 211.883Z" fill="#0A0517"/>
<path d="M254.241 143.096C254.325 143.096 254.41 143.068 254.466 142.983C254.551 142.87 254.523 142.673 254.41 142.588C254.297 142.504 241.691 133.451 232.892 139.796C224.488 145.888 217.945 138.132 217.663 137.794C217.55 137.681 217.381 137.653 217.268 137.766C217.155 137.878 217.127 138.048 217.24 138.161C217.325 138.245 224.375 146.649 233.231 140.247C241.691 134.128 253.959 142.927 254.1 143.039C254.128 143.096 254.184 143.096 254.241 143.096Z" fill="#0A0517"/>
<path d="M38.4679 111.77C40.3856 111.77 42.2187 111.629 42.3597 111.6C42.5007 111.6 42.6418 111.459 42.6136 111.29C42.6136 111.121 42.4726 111.008 42.3033 111.036C42.2469 111.036 36.7476 111.516 34.8299 110.839C34.6889 110.783 34.5196 110.867 34.4632 111.008C34.4068 111.149 34.4914 111.318 34.6324 111.375C35.5349 111.685 37.0296 111.77 38.4679 111.77Z" fill="#0A0517"/>
<path d="M279.961 55.2464C280.018 55.2464 280.046 55.2464 280.102 55.2182C280.243 55.1336 280.271 54.9644 280.215 54.8234C279.03 52.7929 279.059 48.9292 279.059 48.8728C279.059 48.7036 278.946 48.5908 278.777 48.5908C278.607 48.5908 278.495 48.7036 278.495 48.8728C278.495 49.042 278.438 52.9339 279.707 55.1054C279.792 55.19 279.877 55.2464 279.961 55.2464Z" fill="#0A0517"/>
<path d="M303.764 49.5244C303.821 49.5244 303.877 49.5244 303.905 49.468L307.938 46.9299C308.079 46.8452 308.107 46.676 308.023 46.535C307.938 46.394 307.769 46.3658 307.628 46.4504L303.595 48.9886C303.454 49.0732 303.426 49.2424 303.51 49.3834C303.567 49.468 303.651 49.5244 303.764 49.5244Z" fill="#0A0517"/>
<path d="M327.589 80.8584C327.73 80.8584 327.842 80.7456 327.871 80.6046C327.899 80.4636 327.786 80.3226 327.617 80.2944C313.008 78.5459 292.449 63.1759 292.252 63.0067C292.139 62.9221 291.942 62.9503 291.857 63.0631C291.772 63.1759 291.801 63.3733 291.913 63.4579C292.111 63.6271 312.811 79.0817 327.56 80.8584C327.589 80.8584 327.589 80.8584 327.589 80.8584Z" fill="#0A0517"/>
<path d="M123.443 13.6806C123.556 13.6806 123.668 13.5959 123.725 13.4831C123.781 13.3421 123.697 13.1729 123.527 13.1447C123.443 13.1165 115.462 10.8322 108.919 11.227C108.75 11.227 108.637 11.368 108.665 11.5372C108.665 11.7064 108.806 11.8192 108.975 11.791C115.433 11.3962 123.33 13.6806 123.386 13.7088C123.386 13.6806 123.415 13.6806 123.443 13.6806Z" fill="#0A0517"/>
<path d="M60.9131 23.1314C62.4924 23.1314 63.5359 22.229 63.5641 22.229C63.6769 22.1162 63.7051 21.947 63.5922 21.8341C63.4794 21.7213 63.3102 21.6931 63.1974 21.8059C63.1128 21.8623 61.3925 23.3006 59.08 22.1162C58.939 22.0316 58.7697 22.088 58.7133 22.229C58.6287 22.37 58.6851 22.5392 58.8261 22.5956C59.5594 22.9904 60.2644 23.1314 60.9131 23.1314Z" fill="#0A0517"/>
</svg>
