<svg width="76" height="125" viewBox="0 0 76 125" fill="none" xmlns="http://www.w3.org/2000/svg">
<mask id="mask0_1965_11998" style="mask-type:alpha" maskUnits="userSpaceOnUse" x="0" y="17" width="76" height="108">
<path d="M4.31356 17.75C1.86133 22.7467 0.484375 28.3667 0.484375 34.3084C0.484375 54.0789 15.7301 70.2886 35.1064 71.8223V118.996C21.5724 119.134 11.0215 120.255 11.0215 121.616C11.0215 123.071 23.0683 124.25 37.9288 124.25C52.7894 124.25 64.8362 123.071 64.8362 121.616C64.8362 120.255 54.2853 119.134 40.7513 118.996V71.8502C60.3062 70.4981 75.7496 54.2067 75.7496 34.3084C75.7496 28.3667 74.3727 22.7467 71.9205 17.75H4.31356Z" fill="#D9D9D9"/>
</mask>
<g mask="url(#mask0_1965_11998)">
<rect x="-13.6562" y="71.5996" width="103.492" height="52.6485" fill="#1D1D1B"/>
<rect x="-13.6562" y="10.832" width="103.492" height="64.9833" fill="#652FEB"/>
</g>
<path fill-rule="evenodd" clip-rule="evenodd" d="M61.1882 35.5001C67.4621 35.5001 72.5482 27.5531 72.5482 17.7501C72.5482 7.94697 67.4621 0 61.1882 0C54.9142 0 49.8281 7.94695 49.8281 17.75H61.1882L61.1882 35.5001Z" fill="#FAB13C"/>
</svg>
