<svg width="88" height="50" viewBox="0 0 88 50" fill="none" xmlns="http://www.w3.org/2000/svg">
<path fill-rule="evenodd" clip-rule="evenodd" d="M40.7026 14.59C40.7026 16.4251 41.2824 17.9746 42.4434 19.2387C43.603 20.504 45.0771 21.1354 46.8656 21.1354C48.5058 21.1354 49.8566 20.5493 50.9207 19.3745H50.971V20.7732H55.197V0H50.9207V9.564C49.8566 8.53516 48.5058 8.01948 46.8656 8.01948C45.0771 8.01948 43.603 8.65716 42.4434 9.93127C41.2824 11.2029 40.7026 12.7562 40.7026 14.59ZM45.2456 14.59C45.2456 13.7347 45.5224 13.0342 46.0758 12.487C46.6317 11.9412 47.3209 11.667 48.1435 11.667C48.9485 11.667 49.6277 11.9412 50.1811 12.487C50.737 13.0342 51.0162 13.7347 51.0162 14.59C51.0162 15.4289 50.7458 16.122 50.2062 16.6678C49.6692 17.215 48.9812 17.4879 48.1435 17.4879C47.2744 17.4879 46.5738 17.2187 46.0405 16.6779C45.5098 16.1383 45.2456 15.4428 45.2456 14.59ZM26.8389 20.7733V8.38187H31.1152V9.68491H31.1605C32.2736 8.57557 33.4572 8.01964 34.7124 8.01964C35.3262 8.01964 35.935 8.10013 36.5387 8.26112C37.1424 8.42212 37.721 8.67241 38.2744 9.01075C38.8303 9.35035 39.2819 9.82955 39.6278 10.4496C39.9724 11.0672 40.146 11.7866 40.146 12.6079V20.7733H35.8746V13.7701C35.8746 13.1261 35.6683 12.5627 35.2558 12.0797C34.8458 11.5967 34.3112 11.3552 33.6509 11.3552C33.0069 11.3552 32.4233 11.6055 31.9001 12.1048C31.3769 12.6017 31.1152 13.1563 31.1152 13.7701V20.7733H26.8389ZM5.4134 12.4169C5.99323 11.8207 6.68625 11.5213 7.49122 11.5213C8.34272 11.5213 9.03575 11.715 9.56904 12.0999L11.018 9.1819L10.6054 8.8901C10.3161 8.69641 9.82562 8.50271 9.13134 8.31153C8.43957 8.11784 7.68365 8.01973 6.86234 8.01973C5.0411 8.01973 3.44123 8.66874 2.06273 9.96674C0.686737 11.2622 0 12.8118 0 14.6154C0 16.404 0.686737 17.9384 2.06273 19.2188C3.44123 20.4967 5.0411 21.1357 6.86234 21.1357C7.68365 21.1357 8.45215 21.03 9.16655 20.8187C9.88348 20.6112 10.3438 20.4464 10.5451 20.3257C10.7463 20.2049 10.9035 20.1043 11.018 20.0238L9.56904 17.0555L9.34767 17.1963C9.18668 17.2945 8.93261 17.3913 8.58798 17.4881C8.2421 17.5863 7.87609 17.634 7.49122 17.634C6.68625 17.634 5.99323 17.3372 5.4134 16.7436C4.83231 16.1474 4.54303 15.4204 4.54303 14.5651C4.54303 13.7274 4.83231 13.0105 5.4134 12.4169ZM10.6529 14.5903C10.6529 16.4253 11.2327 17.9749 12.3936 19.2389C13.5533 20.5043 15.0273 21.1357 16.8159 21.1357C18.456 21.1357 19.8068 20.5495 20.8709 19.3748H20.9212V20.7734H25.1473V8.38197H20.8709V9.56426C19.8068 8.53541 18.456 8.01973 16.8159 8.01973C15.0273 8.01973 13.5533 8.65742 12.3936 9.93153C11.2327 11.2031 10.6529 12.7565 10.6529 14.5903ZM15.1959 14.5903C15.1959 13.735 15.4726 13.0344 16.026 12.4873C16.5819 11.9414 17.2712 11.6672 18.0938 11.6672C18.8987 11.6672 19.5779 11.9414 20.1313 12.4873C20.6873 13.0344 20.9665 13.735 20.9665 14.5903C20.9665 15.4292 20.6961 16.1222 20.1565 16.6681C19.6194 17.2152 18.9314 17.4881 18.0938 17.4881C17.2247 17.4881 16.5241 17.219 15.9908 16.6782C15.46 16.1386 15.1959 15.443 15.1959 14.5903ZM58.056 19.2992C56.68 18.0754 55.9933 16.5057 55.9933 14.5902C55.9933 12.6759 56.7089 11.1024 58.1415 9.87106C59.5766 8.6372 61.3488 8.01964 63.4593 8.01964C65.5346 8.01964 67.2854 8.64097 68.7117 9.88112C70.1368 11.1188 70.8499 12.6884 70.8499 14.5902C70.8499 16.4894 70.1519 18.0553 68.757 19.2892C67.3647 20.5205 65.5988 21.1356 63.4593 21.1356C61.2356 21.1356 59.4345 20.5243 58.056 19.2992ZM61.3664 12.4872C60.813 13.0343 60.5363 13.7349 60.5363 14.5902C60.5363 15.4429 60.8004 16.1385 61.3312 16.6781C61.8645 17.2189 62.565 17.4881 63.4342 17.4881C64.2718 17.4881 64.9598 17.2151 65.4969 16.668C66.0365 16.1221 66.3069 15.4291 66.3069 14.5902C66.3069 13.7349 66.0277 13.0343 65.4717 12.4872C64.9183 11.9413 64.2391 11.6671 63.4342 11.6671C62.6116 11.6671 61.9223 11.9413 61.3664 12.4872ZM71.648 8.38187V20.7733H75.9244V14.2531C75.9244 14.1223 75.9558 13.9449 76.02 13.7198C76.0829 13.4959 76.191 13.2217 76.342 12.8997C76.4954 12.5778 76.757 12.3048 77.1268 12.0797C77.4991 11.852 77.9431 11.7376 78.46 11.7376C79.4084 11.7376 80.1505 11.964 80.6837 12.4168L82.4698 8.79442L82.1327 8.5982C81.9214 8.47117 81.5893 8.34414 81.1365 8.21585C80.6863 8.08504 80.2284 8.01964 79.7631 8.01964C79.3128 8.01964 78.8701 8.09762 78.4349 8.25106C78.0022 8.40199 77.6475 8.57557 77.3733 8.76926C77.0979 8.96421 76.84 9.18181 76.5985 9.4233C76.3571 9.66479 76.1986 9.83458 76.1256 9.93143C76.0552 10.0258 76.0024 10.105 75.9697 10.1679H75.9244V8.38187H71.648ZM85.2219 15.6059C85.9967 15.6059 86.652 15.8763 87.189 16.4159C87.7286 16.953 87.999 17.6083 87.999 18.3831C87.999 19.1377 87.7286 19.7855 87.189 20.325C86.652 20.8646 85.9967 21.135 85.2219 21.135C84.4672 21.135 83.8195 20.8646 83.2799 20.325C82.7391 19.7855 82.4699 19.1377 82.4699 18.3831C82.4699 17.6083 82.7391 16.953 83.2799 16.4159C83.8195 15.8763 84.4672 15.6059 85.2219 15.6059ZM15.3901 37.5131C15.3901 35.6793 14.809 34.1297 13.6494 32.8644C12.4885 31.6004 11.0144 30.9677 9.22709 30.9677C7.58697 30.9677 6.23488 31.5563 5.17207 32.7336H5.12176V31.3299H0.895691V50.0001H5.17207V42.5391C6.23488 43.5692 7.58697 44.0836 9.22709 44.0836C11.0144 44.0836 12.4885 43.4485 13.6494 42.1769C14.809 40.9027 15.3901 39.3482 15.3901 37.5131ZM10.8471 37.5181C10.8471 38.3709 10.5679 39.0702 10.0119 39.6161C9.45852 40.1632 8.77052 40.4361 7.94921 40.4361C7.14424 40.4361 6.46253 40.1632 5.90661 39.6161C5.35319 39.0702 5.07648 38.3684 5.07648 37.5131C5.07648 36.6754 5.34439 35.9824 5.88145 35.4353C6.42103 34.8894 7.11028 34.6152 7.94921 34.6152C8.81706 34.6152 9.51638 34.8856 10.0472 35.4252C10.5804 35.966 10.8471 36.6628 10.8471 37.5181ZM16.1861 43.7216V22.9484H20.4625V43.7216H16.1861ZM21.2572 37.5382C21.2572 39.3733 21.837 40.9229 22.9979 42.1869C24.1576 43.4522 25.6317 44.0836 27.4202 44.0836C29.0603 44.0836 30.4112 43.4975 31.4752 42.3228H31.5256V43.7214H35.7516V31.3299H31.4752V32.5122C30.4112 31.4834 29.0603 30.9677 27.4202 30.9677C25.6317 30.9677 24.1576 31.6054 22.9979 32.8795C21.837 34.1511 21.2572 35.7044 21.2572 37.5382ZM25.8002 37.5382C25.8002 36.683 26.0769 35.9824 26.6304 35.4353C27.1863 34.8894 27.8755 34.6152 28.6981 34.6152C29.5031 34.6152 30.1823 34.8894 30.7357 35.4353C31.2916 35.9824 31.5708 36.683 31.5708 37.5382C31.5708 38.3772 31.3004 39.0702 30.7608 39.6161C30.2238 40.1632 29.5358 40.4361 28.6981 40.4361C27.829 40.4361 27.1284 40.167 26.5951 39.6261C26.0644 39.0865 25.8002 38.391 25.8002 37.5382ZM44.0391 34.4693C43.2341 34.4693 42.5411 34.7687 41.9612 35.3648C41.3802 35.9585 41.0909 36.6754 41.0909 37.5131C41.0909 38.3684 41.3802 39.0953 41.9612 39.6915C42.5411 40.2852 43.2341 40.582 44.0391 40.582C44.4239 40.582 44.7899 40.5342 45.1358 40.4361C45.4804 40.3393 45.7345 40.2424 45.8955 40.1443L46.1169 40.0034L47.5658 42.9718C47.4514 43.0523 47.2941 43.1529 47.0929 43.2736C46.8917 43.3944 46.4313 43.5591 45.7144 43.7667C45 43.978 44.2315 44.0836 43.4102 44.0836C41.5889 44.0836 39.9891 43.4447 38.6106 42.1668C37.2346 40.8864 36.5478 39.3519 36.5478 37.5634C36.5478 35.7598 37.2346 34.2102 38.6106 32.9147C39.9891 31.6167 41.5889 30.9677 43.4102 30.9677C44.2315 30.9677 44.9874 31.0658 45.6792 31.2595C46.3735 31.4507 46.864 31.6444 47.1533 31.8381L47.5658 32.1299L46.1169 35.0479C45.5836 34.663 44.8906 34.4693 44.0391 34.4693ZM51.648 38.1168H60.6334C60.6498 38.02 60.6586 37.8275 60.6586 37.5382C60.6586 35.429 60.041 33.8077 58.8072 32.6732C57.5758 31.5362 55.9772 30.9677 54.0126 30.9677C52.1436 30.9677 50.5412 31.6117 49.2029 32.8996C47.8672 34.1876 47.2006 35.7346 47.2006 37.5382C47.2006 39.3431 47.8672 40.8864 49.2029 42.1668C50.5412 43.4447 52.1436 44.0836 54.0126 44.0836C57.0073 44.0836 59.1493 43.0057 60.4372 40.8487L57.3482 39.2991C56.8312 39.85 56.3722 40.2173 55.9697 40.4009C55.5672 40.5858 55.0201 40.6776 54.3296 40.6776C53.668 40.6776 53.0567 40.4688 52.4932 40.0487C51.9297 39.6299 51.648 38.9859 51.648 38.1168ZM56.4778 35.7522H51.7688C51.7989 35.156 52.0228 34.6731 52.4429 34.3033C52.8617 33.931 53.4252 33.7448 54.1333 33.7448C54.7773 33.7448 55.3031 33.9197 55.7131 34.2681C56.1256 34.6139 56.3797 35.1082 56.4778 35.7522Z" fill="white"/>
</svg>
