<svg width="435" height="250" viewBox="0 0 435 250" fill="none" xmlns="http://www.w3.org/2000/svg">
<path d="M198.727 48.8413C208.448 48.3677 216.082 49.5044 226.704 57.8402C239.982 68.2599 239.033 80.1005 257.527 83.4159" stroke="#0A0517" stroke-width="2"/>
<path d="M197.781 66.1276C209.399 65.0891 217.909 71.9567 224.336 80.3365C234.604 93.7251 232.635 116.332 251.128 119.647" stroke="#0A0517" stroke-width="2"/>
<path d="M253.266 44.1948C243.545 43.7212 235.91 44.8579 225.288 53.1937C224.071 54.1491 223.447 54.7357 222.443 55.7073M194.465 78.7694C203.34 77.1784 207.738 73.6241 211.379 69.2056" stroke="#0A0517" stroke-width="2"/>
<path d="M196.832 111.597C213.712 108.571 217.397 94.0647 225.047 80.5742" stroke="#0A0517" stroke-width="2"/>
<path d="M233.352 63.0493C234.142 62.181 235.96 60.3496 236.908 59.9707" stroke="#0A0517" stroke-width="2"/>
<path fill-rule="evenodd" clip-rule="evenodd" d="M131.059 14.7361C132.134 10.0522 136.642 1.17974 146.164 1.58885L144.501 21.5259C140.071 21.3934 130.352 20.9591 126.921 20.2819C123.49 19.6047 121.865 17.0847 121.832 15.6642C121.832 15.6642 121.297 13.7986 122.933 12.0851C123.859 11.1158 125.759 11.2487 126.483 11.7646C126.991 12.1268 127.249 13.0531 127.485 13.8984C127.697 14.6586 127.891 15.3533 128.232 15.5135C129.767 16.2353 130.909 15.0555 131.059 14.7361ZM160.995 17.3814C160.754 12.582 157.864 3.06062 148.416 1.80576L146.575 21.7272C150.96 22.368 160.606 23.6321 164.102 23.5626C167.599 23.4931 169.639 21.2946 169.92 19.9017C169.92 19.9017 170.772 18.1578 169.46 16.1856C168.717 15.0699 166.823 14.87 166.02 15.252C165.457 15.5202 165.041 16.3873 164.661 17.1787C164.32 17.8903 164.008 18.5406 163.644 18.6391C162.007 19.0826 161.088 17.7221 160.995 17.3814Z" fill="#0A0517"/>
<path d="M146.164 1.58885L147.161 1.67206L147.247 0.634469L146.207 0.589776L146.164 1.58885ZM131.059 14.7361L131.964 15.1626L132.01 15.0651L132.034 14.9599L131.059 14.7361ZM144.501 21.5259L144.471 22.5254L145.418 22.5538L145.497 21.6091L144.501 21.5259ZM126.921 20.2819L127.115 19.3008L127.115 19.3008L126.921 20.2819ZM121.832 15.6642L122.831 15.6407L122.828 15.5121L122.793 15.3885L121.832 15.6642ZM122.933 12.0851L123.656 12.7758L123.656 12.7758L122.933 12.0851ZM126.483 11.7646L125.902 12.5789L126.483 11.7646ZM127.485 13.8984L128.448 13.6298L127.485 13.8984ZM128.232 15.5135L127.806 16.4184L127.806 16.4184L128.232 15.5135ZM148.416 1.80576L148.547 0.814467L147.516 0.677452L147.42 1.71369L148.416 1.80576ZM160.995 17.3814L159.997 17.4316L160.002 17.5393L160.03 17.6435L160.995 17.3814ZM146.575 21.7272L145.579 21.6352L145.492 22.5796L146.43 22.7167L146.575 21.7272ZM164.102 23.5626L164.082 22.5628L164.102 23.5626ZM169.92 19.9017L169.021 19.4624L168.965 19.5779L168.939 19.7039L169.92 19.9017ZM169.46 16.1856L168.627 16.7396L168.627 16.7396L169.46 16.1856ZM166.02 15.252L166.45 16.1549L166.45 16.1549L166.02 15.252ZM164.661 17.1787L163.759 16.746L163.759 16.746L164.661 17.1787ZM163.644 18.6391L163.906 19.6043L163.644 18.6391ZM146.207 0.589776C141.083 0.369639 137.303 2.66219 134.697 5.58747C132.113 8.48864 130.652 12.0395 130.085 14.5124L132.034 14.9599C132.541 12.7489 133.872 9.52152 136.191 6.91774C138.489 4.33808 141.723 2.39895 146.121 2.58793L146.207 0.589776ZM145.497 21.6091L147.161 1.67206L145.168 1.50564L143.504 21.4427L145.497 21.6091ZM126.728 21.263C128.52 21.6167 131.875 21.8972 135.275 22.1063C138.7 22.3168 142.248 22.4589 144.471 22.5254L144.531 20.5263C142.324 20.4603 138.797 20.319 135.398 20.11C131.973 19.8995 128.753 19.6242 127.115 19.3008L126.728 21.263ZM120.832 15.6878C120.856 16.713 121.42 17.9224 122.374 18.937C123.354 19.9786 124.804 20.8833 126.728 21.263L127.115 19.3008C125.608 19.0033 124.529 18.3094 123.831 17.5667C123.107 16.7968 122.841 16.0359 122.831 15.6407L120.832 15.6878ZM122.21 11.3944C121.215 12.4356 120.864 13.5485 120.774 14.4138C120.73 14.8411 120.749 15.2043 120.781 15.467C120.797 15.5988 120.817 15.7068 120.833 15.7866C120.842 15.8266 120.85 15.8597 120.856 15.8854C120.859 15.8982 120.862 15.9092 120.865 15.9183C120.866 15.9229 120.867 15.927 120.868 15.9306C120.868 15.9324 120.869 15.9341 120.869 15.9356C120.87 15.9364 120.87 15.9372 120.87 15.9379C120.87 15.9383 120.87 15.9388 120.87 15.939C120.87 15.9395 120.871 15.94 121.832 15.6642C122.793 15.3885 122.793 15.389 122.793 15.3895C122.793 15.3896 122.793 15.3901 122.794 15.3904C122.794 15.391 122.794 15.3916 122.794 15.3922C122.794 15.3933 122.795 15.3943 122.795 15.3952C122.795 15.397 122.796 15.3984 122.796 15.3993C122.797 15.4013 122.797 15.4016 122.796 15.4004C122.796 15.3979 122.794 15.3893 122.791 15.3749C122.784 15.346 122.775 15.2948 122.766 15.2249C122.749 15.0843 122.737 14.874 122.763 14.6207C122.815 14.1248 123.014 13.4482 123.656 12.7758L122.21 11.3944ZM127.063 10.9504C126.46 10.5204 125.559 10.3406 124.749 10.3685C123.923 10.3969 122.92 10.651 122.21 11.3944L123.656 12.7758C123.872 12.5499 124.282 12.3858 124.818 12.3673C125.371 12.3483 125.782 12.4929 125.902 12.5789L127.063 10.9504ZM128.448 13.6298C128.334 13.2206 128.195 12.7173 128.011 12.2695C127.836 11.8449 127.556 11.3013 127.063 10.9504L125.902 12.5789C125.9 12.5773 125.931 12.5998 125.985 12.6816C126.039 12.7624 126.098 12.8768 126.162 13.0312C126.292 13.3484 126.4 13.7309 126.522 14.167L128.448 13.6298ZM128.657 14.6085C128.788 14.67 128.835 14.7475 128.821 14.7286C128.811 14.7136 128.781 14.6628 128.736 14.5539C128.645 14.3296 128.559 14.0274 128.448 13.6298L126.522 14.167C126.623 14.5295 126.74 14.9548 126.884 15.3079C126.957 15.4877 127.052 15.6882 127.181 15.8723C127.306 16.0525 127.505 16.2768 127.806 16.4184L128.657 14.6085ZM130.155 14.3097C130.192 14.23 130.192 14.264 130.082 14.3679C129.992 14.4528 129.869 14.5462 129.722 14.6183C129.452 14.7515 129.105 14.8192 128.657 14.6085L127.806 16.4184C128.893 16.9295 129.884 16.7683 130.607 16.4122C130.957 16.2397 131.243 16.0233 131.458 15.8198C131.652 15.6352 131.851 15.402 131.964 15.1626L130.155 14.3097ZM148.284 2.79705C152.648 3.37669 155.495 5.84909 157.307 8.78906C159.136 11.7566 159.883 15.166 159.997 17.4316L161.994 17.3312C161.867 14.7974 161.048 11.0464 159.009 7.73968C156.954 4.40539 153.631 1.48969 148.547 0.814467L148.284 2.79705ZM147.571 21.8193L149.412 1.89783L147.42 1.71369L145.579 21.6352L147.571 21.8193ZM164.082 22.5628C162.412 22.596 159.194 22.3066 155.785 21.9177C152.401 21.5317 148.904 21.0569 146.719 20.7377L146.43 22.7167C148.631 23.0383 152.15 23.516 155.559 23.9048C158.943 24.2908 162.295 24.5987 164.122 24.5624L164.082 22.5628ZM168.939 19.7039C168.861 20.0916 168.467 20.7947 167.619 21.4268C166.801 22.0366 165.619 22.5323 164.082 22.5628L164.122 24.5624C166.083 24.5235 167.668 23.8851 168.815 23.0301C169.932 22.1972 170.697 21.1046 170.9 20.0994L168.939 19.7039ZM168.627 16.7396C169.142 17.5133 169.22 18.2141 169.185 18.7114C169.166 18.9653 169.118 19.1704 169.076 19.3059C169.056 19.3732 169.037 19.422 169.026 19.4493C169.021 19.463 169.017 19.4711 169.016 19.4735C169.016 19.4746 169.016 19.4743 169.017 19.4725C169.017 19.4716 169.018 19.4703 169.018 19.4686C169.019 19.4678 169.019 19.4668 169.02 19.4658C169.02 19.4653 169.02 19.4647 169.021 19.4642C169.021 19.4639 169.021 19.4634 169.021 19.4633C169.021 19.4628 169.021 19.4624 169.92 19.9017C170.818 20.3409 170.818 20.3405 170.819 20.34C170.819 20.3398 170.819 20.3393 170.819 20.339C170.819 20.3383 170.82 20.3376 170.82 20.3369C170.821 20.3354 170.822 20.3338 170.822 20.3322C170.824 20.3288 170.826 20.325 170.828 20.3207C170.832 20.3121 170.837 20.3018 170.842 20.2897C170.853 20.2655 170.866 20.2343 170.881 20.1964C170.912 20.1207 170.95 20.0178 170.989 19.8909C171.066 19.6378 171.149 19.2835 171.179 18.855C171.242 17.9873 171.09 16.8301 170.292 15.6316L168.627 16.7396ZM166.45 16.1549C166.584 16.0912 167.014 16.0204 167.555 16.1353C168.079 16.2468 168.455 16.4798 168.627 16.7396L170.292 15.6316C169.723 14.7757 168.779 14.3509 167.97 14.179C167.178 14.0105 166.259 14.0308 165.59 14.3491L166.45 16.1549ZM165.563 17.6113C165.759 17.203 165.932 16.8452 166.116 16.5555C166.205 16.4145 166.284 16.3122 166.35 16.2419C166.418 16.1706 166.452 16.1539 166.45 16.1549L165.59 14.3491C165.045 14.6088 164.674 15.0952 164.428 15.4828C164.168 15.8916 163.943 16.363 163.759 16.746L165.563 17.6113ZM163.906 19.6043C164.227 19.5173 164.461 19.3311 164.616 19.1756C164.775 19.0167 164.904 18.8359 165.007 18.6716C165.21 18.349 165.4 17.9506 165.563 17.6113L163.759 16.746C163.581 17.1183 163.444 17.4009 163.315 17.606C163.252 17.7055 163.213 17.7502 163.2 17.7633C163.184 17.7796 163.243 17.7116 163.383 17.6739L163.906 19.6043ZM160.03 17.6435C160.1 17.8989 160.255 18.1632 160.414 18.3789C160.59 18.6168 160.834 18.8797 161.149 19.1105C161.798 19.587 162.746 19.9183 163.906 19.6043L163.383 17.6739C162.905 17.8034 162.575 17.6761 162.332 17.4981C162.201 17.4017 162.095 17.2883 162.022 17.1891C161.932 17.0678 161.937 17.0343 161.961 17.1193L160.03 17.6435Z" fill="#0A0517"/>
<path d="M110.382 126.855L65.5703 167.35L80.9816 175.165" stroke="#0A0517" stroke-width="2"/>
<path d="M78.603 173.986C61.532 165.224 31.9129 151.051 29.998 150.778C26.6787 150.304 25.9674 153.146 27.3899 155.277L79.7889 235.607C83.2441 240.904 91.3187 239.722 93.1108 233.657L121.518 137.516C121.518 137.516 122.703 133.254 126.26 135.148C129.816 137.043 171.308 193.167 171.308 193.167C177.947 201.456 192.173 206.192 202.131 199.088C211.115 192.678 211.14 175.88 202.131 168.302C199.837 166.373 172.019 142.253 156.845 131.359" stroke="#0A0517" stroke-width="2"/>
<path d="M77.6903 70.6364L83.5558 52.2241C89.8247 32.5455 108.812 19.7685 129.402 21.3722L159.158 23.6898C181.233 25.4092 198.684 43.1001 200.102 65.1967L201.377 85.0616C203.139 112.512 179.819 134.968 152.455 132.171L115.559 128.401C87.463 125.53 69.1177 97.5463 77.6903 70.6364Z" fill="#FF99C2"/>
<path d="M86.6675 43.499C73.7852 40.6573 41.6219 40.9784 23.1253 61.26C1.31243 85.1778 0.126849 124.726 1.31243 136.093C1.62856 137.987 2.97202 146.039 9.13656 146.039C15.3011 146.039 16.4076 141.381 16.2496 140.592L16.6052 136.093L16.9609 131.593C16.9609 136.093 16.9629 145.877 23.1253 146.039C32.135 146.276 30.8485 134.909 30.9495 131.593C30.9495 135.283 30.9496 144.144 37.8254 144.144C44.7013 144.144 45.6599 134.328 45.4125 119.753C45.1755 105.781 35.4544 82.8099 46.598 68.3643C54.5389 58.0705 73.153 57.7078 81.2143 58.4182" stroke="#0A0517" stroke-width="2"/>
<path d="M119.938 74.043C120.439 75.8018 122.401 78.5519 126.054 78.8899C129.435 79.2029 131.914 76.6676 132.686 75.2229" stroke="#0A0517" stroke-width="2" stroke-linecap="round" stroke-linejoin="round"/>
<path d="M145.898 76.4473C146.4 78.2061 148.362 80.9562 152.015 81.2942C155.396 81.6072 157.875 79.0719 158.647 77.6272" stroke="#0A0517" stroke-width="2" stroke-linecap="round" stroke-linejoin="round"/>
<path d="M131.641 86.543C132.174 88.4949 134.272 91.5431 138.195 91.9062C141.827 92.2423 144.499 89.4177 145.334 87.8103" stroke="#0A0517" stroke-width="2" stroke-linecap="round" stroke-linejoin="round"/>
<path d="M151.164 166.406C151.164 166.406 156.143 182.746 167.287 204.296C178.43 225.846 200.006 242.423 203.563 241.239C208.779 239.502 206.171 215.347 202.14 200.507" stroke="#0A0517" stroke-width="2"/>
<path fill-rule="evenodd" clip-rule="evenodd" d="M302.941 14.7361C301.866 10.0522 297.358 1.17974 287.836 1.58885L289.499 21.5259C293.929 21.3934 303.648 20.9591 307.079 20.2819C310.51 19.6047 312.135 17.0847 312.168 15.6642C312.168 15.6642 312.703 13.7986 311.067 12.0851C310.141 11.1158 308.241 11.2487 307.517 11.7646C307.009 12.1268 306.751 13.0531 306.515 13.8984C306.303 14.6586 306.109 15.3533 305.768 15.5135C304.233 16.2353 303.091 15.0555 302.941 14.7361ZM273.005 17.3814C273.246 12.582 276.136 3.06062 285.584 1.80576L287.425 21.7272C283.04 22.368 273.394 23.6321 269.898 23.5626C266.401 23.4931 264.361 21.2946 264.08 19.9017C264.08 19.9017 263.228 18.1578 264.54 16.1856C265.283 15.0699 267.177 14.87 267.98 15.252C268.543 15.5202 268.959 16.3873 269.339 17.1787C269.68 17.8903 269.992 18.5406 270.356 18.6391C271.993 19.0826 272.912 17.7221 273.005 17.3814Z" fill="#0A0517"/>
<path d="M287.836 1.58885L286.839 1.67206L286.753 0.634469L287.793 0.589776L287.836 1.58885ZM302.941 14.7361L302.036 15.1626L301.99 15.0651L301.966 14.9599L302.941 14.7361ZM289.499 21.5259L289.529 22.5254L288.582 22.5538L288.503 21.6091L289.499 21.5259ZM307.079 20.2819L306.885 19.3008L306.885 19.3008L307.079 20.2819ZM312.168 15.6642L311.169 15.6407L311.172 15.5121L311.207 15.3885L312.168 15.6642ZM311.067 12.0851L310.344 12.7758L310.344 12.7758L311.067 12.0851ZM307.517 11.7646L308.098 12.5789L308.098 12.5789L307.517 11.7646ZM306.515 13.8984L305.552 13.6298L305.552 13.6298L306.515 13.8984ZM305.768 15.5135L306.194 16.4184L306.194 16.4184L305.768 15.5135ZM285.584 1.80576L285.453 0.814467L286.484 0.677452L286.58 1.71369L285.584 1.80576ZM273.005 17.3814L274.003 17.4316L273.998 17.5393L273.97 17.6435L273.005 17.3814ZM287.425 21.7272L288.421 21.6352L288.508 22.5796L287.57 22.7167L287.425 21.7272ZM269.898 23.5626L269.918 22.5628L269.898 23.5626ZM264.08 19.9017L264.979 19.4624L265.035 19.5779L265.061 19.7039L264.08 19.9017ZM264.54 16.1856L265.373 16.7396L265.373 16.7396L264.54 16.1856ZM267.98 15.252L267.55 16.1549L267.55 16.1549L267.98 15.252ZM269.339 17.1787L270.241 16.746L270.241 16.746L269.339 17.1787ZM270.356 18.6391L270.094 19.6043L270.094 19.6043L270.356 18.6391ZM287.793 0.589776C292.917 0.369639 296.697 2.66219 299.303 5.58747C301.887 8.48864 303.348 12.0395 303.915 14.5124L301.966 14.9599C301.459 12.7489 300.128 9.52152 297.809 6.91774C295.511 4.33808 292.277 2.39895 287.879 2.58793L287.793 0.589776ZM288.503 21.6091L286.839 1.67206L288.832 1.50564L290.496 21.4427L288.503 21.6091ZM307.272 21.263C305.48 21.6167 302.125 21.8972 298.725 22.1063C295.3 22.3168 291.752 22.4589 289.529 22.5254L289.469 20.5263C291.676 20.4603 295.203 20.319 298.602 20.11C302.027 19.8995 305.247 19.6242 306.885 19.3008L307.272 21.263ZM313.168 15.6878C313.144 16.713 312.58 17.9224 311.626 18.937C310.646 19.9786 309.196 20.8833 307.272 21.263L306.885 19.3008C308.392 19.0033 309.471 18.3094 310.169 17.5667C310.893 16.7968 311.159 16.0359 311.169 15.6407L313.168 15.6878ZM311.79 11.3944C312.785 12.4356 313.136 13.5485 313.226 14.4138C313.27 14.8411 313.251 15.2043 313.219 15.467C313.203 15.5988 313.183 15.7068 313.167 15.7866C313.158 15.8266 313.15 15.8597 313.144 15.8854C313.141 15.8982 313.138 15.9092 313.135 15.9183C313.134 15.9229 313.133 15.927 313.132 15.9306C313.132 15.9324 313.131 15.9341 313.131 15.9356C313.13 15.9364 313.13 15.9372 313.13 15.9379C313.13 15.9383 313.13 15.9388 313.13 15.939C313.13 15.9395 313.129 15.94 312.168 15.6642C311.207 15.3885 311.207 15.389 311.207 15.3895C311.207 15.3896 311.207 15.3901 311.206 15.3904C311.206 15.391 311.206 15.3916 311.206 15.3922C311.206 15.3933 311.205 15.3943 311.205 15.3952C311.205 15.397 311.204 15.3984 311.204 15.3993C311.203 15.4013 311.203 15.4016 311.204 15.4004C311.204 15.3979 311.206 15.3893 311.209 15.3749C311.216 15.346 311.225 15.2948 311.234 15.2249C311.251 15.0843 311.263 14.874 311.237 14.6207C311.185 14.1248 310.986 13.4482 310.344 12.7758L311.79 11.3944ZM306.937 10.9504C307.54 10.5204 308.441 10.3406 309.251 10.3685C310.077 10.3969 311.08 10.651 311.79 11.3944L310.344 12.7758C310.128 12.5499 309.718 12.3858 309.182 12.3673C308.629 12.3483 308.218 12.4929 308.098 12.5789L306.937 10.9504ZM305.552 13.6298C305.666 13.2206 305.805 12.7173 305.989 12.2695C306.164 11.8449 306.444 11.3013 306.937 10.9504L308.098 12.5789C308.1 12.5773 308.069 12.5998 308.015 12.6816C307.961 12.7624 307.902 12.8768 307.838 13.0312C307.708 13.3484 307.6 13.7309 307.478 14.167L305.552 13.6298ZM305.343 14.6085C305.212 14.67 305.165 14.7475 305.179 14.7286C305.189 14.7136 305.219 14.6628 305.264 14.5539C305.355 14.3296 305.441 14.0274 305.552 13.6298L307.478 14.167C307.377 14.5295 307.26 14.9548 307.116 15.3079C307.043 15.4877 306.948 15.6882 306.819 15.8723C306.694 16.0525 306.495 16.2768 306.194 16.4184L305.343 14.6085ZM303.845 14.3097C303.808 14.23 303.808 14.264 303.918 14.3679C304.008 14.4528 304.131 14.5462 304.278 14.6183C304.548 14.7515 304.895 14.8192 305.343 14.6085L306.194 16.4184C305.107 16.9295 304.116 16.7683 303.393 16.4122C303.043 16.2397 302.757 16.0233 302.542 15.8198C302.348 15.6352 302.149 15.402 302.036 15.1626L303.845 14.3097ZM285.716 2.79705C281.352 3.37669 278.505 5.84909 276.693 8.78906C274.864 11.7566 274.117 15.166 274.003 17.4316L272.006 17.3312C272.133 14.7974 272.952 11.0464 274.991 7.73968C277.046 4.40539 280.369 1.48969 285.453 0.814467L285.716 2.79705ZM286.429 21.8193L284.588 1.89783L286.58 1.71369L288.421 21.6352L286.429 21.8193ZM269.918 22.5628C271.588 22.596 274.806 22.3066 278.215 21.9177C281.599 21.5317 285.096 21.0569 287.281 20.7377L287.57 22.7167C285.369 23.0383 281.85 23.516 278.441 23.9048C275.057 24.2908 271.705 24.5987 269.878 24.5624L269.918 22.5628ZM265.061 19.7039C265.139 20.0916 265.533 20.7947 266.381 21.4268C267.199 22.0366 268.381 22.5323 269.918 22.5628L269.878 24.5624C267.917 24.5235 266.332 23.8851 265.185 23.0301C264.068 22.1972 263.303 21.1046 263.1 20.0994L265.061 19.7039ZM265.373 16.7396C264.858 17.5133 264.78 18.2141 264.815 18.7114C264.834 18.9653 264.882 19.1704 264.924 19.3059C264.944 19.3732 264.963 19.422 264.974 19.4493C264.979 19.463 264.983 19.4712 264.984 19.4735C264.984 19.4746 264.984 19.4743 264.983 19.4725C264.983 19.4716 264.982 19.4703 264.982 19.4686C264.981 19.4678 264.981 19.4668 264.98 19.4658C264.98 19.4653 264.98 19.4647 264.979 19.4642C264.979 19.4639 264.979 19.4634 264.979 19.4633C264.979 19.4628 264.979 19.4624 264.08 19.9017C263.182 20.3409 263.182 20.3405 263.181 20.34C263.181 20.3398 263.181 20.3393 263.181 20.339C263.181 20.3383 263.18 20.3376 263.18 20.3369C263.179 20.3354 263.178 20.3338 263.178 20.3322C263.176 20.3288 263.174 20.325 263.172 20.3207C263.168 20.3121 263.163 20.3018 263.158 20.2897C263.147 20.2655 263.134 20.2343 263.119 20.1964C263.088 20.1207 263.05 20.0178 263.011 19.8909C262.934 19.6378 262.851 19.2835 262.821 18.855C262.758 17.9873 262.91 16.8301 263.708 15.6316L265.373 16.7396ZM267.55 16.1549C267.416 16.0912 266.986 16.0204 266.445 16.1353C265.921 16.2468 265.545 16.4798 265.373 16.7396L263.708 15.6316C264.277 14.7757 265.221 14.3509 266.03 14.179C266.822 14.0105 267.741 14.0308 268.41 14.3491L267.55 16.1549ZM268.437 17.6113C268.241 17.203 268.068 16.8452 267.884 16.5555C267.795 16.4145 267.716 16.3122 267.65 16.2419C267.582 16.1706 267.548 16.1539 267.55 16.1549L268.41 14.3491C268.955 14.6088 269.326 15.0952 269.572 15.4828C269.832 15.8916 270.057 16.363 270.241 16.746L268.437 17.6113ZM270.094 19.6043C269.773 19.5173 269.539 19.3311 269.384 19.1756C269.225 19.0167 269.096 18.8359 268.993 18.6716C268.79 18.349 268.6 17.9506 268.437 17.6113L270.241 16.746C270.419 17.1183 270.556 17.4009 270.685 17.606C270.748 17.7055 270.787 17.7502 270.8 17.7633C270.816 17.7796 270.757 17.7116 270.617 17.6739L270.094 19.6043ZM273.97 17.6435C273.9 17.8989 273.745 18.1632 273.586 18.3789C273.41 18.6168 273.166 18.8797 272.851 19.1105C272.202 19.587 271.254 19.9183 270.094 19.6043L270.617 17.6739C271.095 17.8034 271.425 17.6761 271.668 17.4981C271.799 17.4017 271.905 17.2883 271.978 17.1891C272.068 17.0678 272.063 17.0343 272.039 17.1193L273.97 17.6435Z" fill="#0A0517"/>
<path d="M323.157 127.805L367.969 168.3L352.557 176.114" stroke="#0A0517" stroke-width="2"/>
<path d="M354.936 174.931C372.007 166.169 401.626 151.997 403.541 151.723C406.86 151.25 407.572 154.091 406.149 156.223L353.75 236.552C350.295 241.849 342.22 240.667 340.428 234.602L312.021 138.462C312.021 138.462 310.836 134.199 307.279 136.094C303.723 137.988 262.231 194.113 262.231 194.113C255.592 202.401 241.366 207.137 231.408 200.033C222.424 193.624 222.399 176.825 231.408 169.247C233.702 167.318 261.52 143.198 276.694 132.305" stroke="#0A0517" stroke-width="2"/>
<path d="M356.318 70.6364L350.452 52.2241C344.183 32.5455 325.196 19.7685 304.606 21.3722L274.85 23.6898C252.775 25.4092 235.324 43.1001 233.906 65.1967L232.631 85.0616C230.869 112.512 254.189 134.968 281.553 132.171L318.449 128.401C346.545 125.53 364.89 97.5463 356.318 70.6364Z" fill="#CBC7F7"/>
<path d="M347.34 43.499C360.223 40.6573 392.386 40.9784 410.882 61.26C432.695 85.1778 433.881 124.726 432.695 136.093C432.379 137.987 431.036 146.039 424.871 146.039C418.707 146.039 417.6 141.381 417.758 140.592L417.403 136.093L417.047 131.593C417.047 136.093 417.045 145.877 410.883 146.039C401.873 146.276 403.159 134.909 403.058 131.593C403.058 135.283 403.058 144.144 396.182 144.144C389.307 144.144 388.358 133.725 388.595 119.753C388.832 105.781 398.553 82.8099 387.41 68.3643C379.469 58.0705 360.855 57.7078 352.794 58.4182" stroke="#0A0517" stroke-width="2"/>
<path d="M314.094 74.043C313.592 75.8018 311.63 78.5519 307.978 78.8899C304.596 79.2029 302.117 76.6676 301.345 75.2229" stroke="#0A0517" stroke-width="2" stroke-linecap="round" stroke-linejoin="round"/>
<path d="M288.133 76.4473C287.631 78.2061 285.669 80.9562 282.017 81.2942C278.635 81.6072 276.157 79.0719 275.384 77.6272" stroke="#0A0517" stroke-width="2" stroke-linecap="round" stroke-linejoin="round"/>
<path d="M302.391 86.543C301.857 88.4949 299.759 91.5431 295.836 91.9062C292.204 92.2423 289.532 89.4177 288.698 87.8103" stroke="#0A0517" stroke-width="2" stroke-linecap="round" stroke-linejoin="round"/>
<path d="M282.844 166.406C282.844 166.406 277.865 182.746 266.721 204.296C255.578 225.846 234.002 242.423 230.445 241.239C225.229 239.502 227.837 215.347 231.868 200.507" stroke="#0A0517" stroke-width="2"/>
</svg>
