<svg width="217" height="129" viewBox="0 0 217 129" fill="none" xmlns="http://www.w3.org/2000/svg">
<path d="M211.826 69.9387L198.12 74.8723H171.82L178.161 44.8203L211.826 69.9387Z" fill="#FDAB96"/>
<path d="M198.776 70.4102V128.004H170.32C170.748 114.346 170.717 99.6435 171.226 86.1695C171.343 83.0687 171.49 80.0319 171.676 77.0896C172.767 59.8199 175.276 45.7489 181.646 40.4766L198.776 70.4102Z" fill="#FDAB96"/>
<path d="M179.673 46.3773C179.311 45.3318 179.64 44.1776 179.985 43.1201C180.995 40.0443 182.244 37.4483 184.458 35.1389C186.374 33.1455 189.134 32.3345 191.37 30.7146C191.815 30.3889 192.263 30.0501 192.788 29.8894C193.201 29.7613 193.639 29.7548 194.069 29.7353C198.727 29.5246 203.369 27.1957 207.867 26.0524C208.726 25.8353 209.674 25.7267 210.465 26.1371C211.337 26.5975 211.836 27.6474 211.845 28.668C211.853 29.6886 211.437 30.669 210.869 31.5017C208.688 34.697 204.118 36.0488 200.834 37.6339C200.18 37.9499 199.512 38.2626 198.956 38.7414C198.4 39.2202 197.974 39.8575 197.562 40.4883C196.3 42.4426 195.122 44.4762 193.56 46.1797C191.639 48.2752 188.77 49.9505 185.925 49.7257C183.756 49.5607 180.514 48.8018 179.673 46.3773Z" fill="#FDAB96"/>
<path d="M145.329 35.6953C145.11 35.742 132.348 35.7279 123.382 35.7127C118.617 35.7051 114.75 40.1066 114.75 45.5386V60.1167C114.75 65.5453 118.609 69.9425 123.367 69.9425H147.043V35.8245L145.329 35.6953Z" fill="#FDAB96"/>
<path d="M5.17188 69.9387L18.8785 74.8723H45.178L38.8374 44.8203L5.17188 69.9387Z" fill="#FDAB96"/>
<path d="M46.6791 128.004H18.2188V70.4102L35.3525 40.4766C41.7215 45.7456 44.2248 59.8026 45.3211 77.0657C45.5152 80.1057 45.6636 83.2457 45.7836 86.4551C46.2788 99.8487 46.2537 114.441 46.6791 128.004Z" fill="#FDAB96"/>
<path d="M45.7923 86.4519C39.0154 83.9417 25.1954 78.804 22.9844 77.8453L45.3299 77.0625C45.524 80.1036 45.6724 83.2425 45.7923 86.4519Z" fill="#231F20"/>
<path d="M193.156 77.8416C191.025 78.7656 178.103 83.5721 171.109 86.1659C171.227 83.0651 171.373 80.0283 171.56 77.0859L193.156 77.8416Z" fill="#231F20"/>
<path d="M37.3251 46.3773C37.6873 45.3318 37.359 44.1776 37.0132 43.1201C36.0031 40.0443 34.7531 37.4483 32.5345 35.1389C30.6191 33.1455 27.8595 32.3345 25.6234 30.7146C25.1783 30.3889 24.73 30.0501 24.2054 29.8894C23.792 29.7613 23.3546 29.7548 22.9237 29.7353C18.2661 29.5246 13.6238 27.1957 9.1266 26.0524C8.26708 25.8353 7.3192 25.7267 6.5284 26.1371C5.65578 26.5975 5.1573 27.6474 5.14857 28.668C5.13985 29.6886 5.55651 30.669 6.12371 31.5017C8.30525 34.697 12.8756 36.0488 16.1588 37.6339C16.8132 37.9499 17.4819 38.2626 18.0382 38.7414C18.5945 39.2202 19.0253 39.8575 19.4322 40.4883C20.6942 42.4426 21.8711 44.4762 23.4342 46.1797C25.3551 48.2752 28.2238 49.9505 31.0696 49.7257C33.2424 49.5607 36.4842 48.8018 37.3251 46.3773Z" fill="#FDAB96"/>
<path d="M6.88874 35.6953C7.1069 35.742 19.8689 35.7279 28.835 35.7127C33.6006 35.7051 37.4663 40.1066 37.4663 45.5386V60.1167C37.4663 65.5453 33.6082 69.9425 28.8492 69.9425H5.17188V35.8245L6.88874 35.6953Z" fill="#FDAB96"/>
<path d="M196.773 0H13.8516V80.2355H196.773V0Z" fill="#652FEB"/>
<path d="M18.1417 69.9714C14.6742 69.9714 11.2034 69.9258 7.7358 69.9714C5.69061 69.9986 4.10464 70.1517 2.78154 68.2343C1.72131 66.6925 1.21955 64.355 1.80966 62.5298C1.96129 62.0499 2.18172 61.5943 2.46412 61.177C1.48243 59.8166 0.305489 58.15 0.0644289 56.4628C-0.176631 54.7755 0.253125 52.9265 1.44861 51.7594C0.339296 50.9027 0.0589745 49.4012 0.268402 47.981C0.47783 46.5609 1.19555 45.2798 1.96891 44.0898C1.39734 43.1224 0.723247 42.0682 0.69925 40.9336C0.668709 39.4885 1.51515 38.1335 2.64082 37.2844C3.7665 36.4354 5.14086 36.025 6.5065 35.7546C6.82282 35.6917 6.60141 35.7611 6.92427 35.7611H15.3712C19.13 35.7611 28.1659 34.4865 29.3494 39.9716C29.5523 40.9129 29.2403 41.9259 28.6371 42.6631C28.0339 43.4003 27.1777 43.8705 26.28 44.1126C32.2246 46.0843 30.7041 51.9972 26.3345 52.907C31.4306 54.9894 29.1705 60.734 24.4802 60.645C26.0313 61.0793 26.8908 63.3593 26.6257 65.0075C26.3607 66.6556 25.1445 68.0117 23.7166 68.7793C22.2888 69.5469 19.7506 69.9714 18.1417 69.9714Z" fill="#FDAB96"/>
<path d="M7.74113 70.3023C7.65435 70.3023 7.57111 70.268 7.50974 70.2069C7.44838 70.1459 7.4139 70.063 7.4139 69.9766C7.4139 69.8902 7.44838 69.8074 7.50974 69.7463C7.57111 69.6852 7.65435 69.6509 7.74113 69.6509C10.0557 69.6205 12.4085 69.6314 14.6839 69.6411C15.8205 69.6411 16.9963 69.6509 18.1514 69.6509C19.7527 69.6509 22.2189 69.2166 23.5715 68.4881C25.0604 67.6868 26.0802 66.3655 26.3126 64.9519C26.5547 63.4514 25.7563 61.3342 24.4026 60.9542C24.3258 60.933 24.2593 60.8845 24.2158 60.818C24.1723 60.7514 24.1547 60.6713 24.1664 60.5928C24.1781 60.5142 24.2181 60.4426 24.2791 60.3914C24.3401 60.3402 24.4178 60.3129 24.4975 60.3147C26.9147 60.3592 28.5181 58.7817 28.8475 57.1976C29.1987 55.5125 28.216 54.0196 26.2188 53.2043C26.1536 53.178 26.0987 53.1315 26.0622 53.0717C26.0256 53.0119 26.0094 52.942 26.0159 52.8724C26.0224 52.8027 26.0512 52.7369 26.0982 52.6849C26.1451 52.6328 26.2077 52.5972 26.2766 52.5832C28.2836 52.1674 29.767 50.5822 29.8696 48.7278C29.9786 46.8332 28.6032 45.2231 26.1849 44.4207C26.1183 44.3986 26.0606 44.3557 26.0204 44.2984C25.9801 44.2412 25.9595 44.1725 25.9614 44.1026C25.9634 44.0328 25.9879 43.9654 26.0313 43.9104C26.0746 43.8555 26.1346 43.8159 26.2024 43.7975C26.8427 43.6248 27.7425 43.2546 28.3916 42.4566C28.9609 41.7607 29.2085 40.8345 29.0373 40.0398C28.0796 35.5991 21.5743 35.8597 17.2701 36.0323C16.5742 36.0595 15.9186 36.0866 15.3798 36.0866H6.93287C6.84182 36.0899 6.75075 36.0804 6.66236 36.0584C6.64382 36.0584 6.61764 36.066 6.57946 36.0736C6.49427 36.0906 6.40578 36.0732 6.33347 36.0252C6.26116 35.9773 6.21095 35.9027 6.19389 35.8179C6.17682 35.7331 6.19429 35.645 6.24246 35.5731C6.29063 35.5011 6.36556 35.4511 6.45076 35.4341C6.62419 35.4004 6.72236 35.3842 6.84343 35.4341C6.85543 35.4341 6.8827 35.4341 6.93287 35.4341H15.3798C15.9055 35.4341 16.5251 35.4091 17.2428 35.3798C19.4505 35.2919 22.1971 35.1822 24.6001 35.6892C27.4982 36.3016 29.2064 37.7185 29.6776 39.9019C29.8957 40.8997 29.6023 42.0082 28.8999 42.867C28.4469 43.4099 27.8728 43.84 27.2233 44.1232C29.4202 45.1004 30.6385 46.7941 30.5229 48.7647C30.4138 50.6408 29.1049 52.276 27.2506 52.9763C29.3089 54.1358 29.779 55.9338 29.4889 57.3289C29.1616 58.9206 27.7437 60.508 25.5818 60.8836C26.654 61.8228 27.1906 63.6164 26.9594 65.0539C26.6987 66.6662 25.549 68.1635 23.8834 69.0603C22.3847 69.8659 19.8116 70.3013 18.1514 70.3013C16.9941 70.3013 15.8183 70.3013 14.6817 70.2915C12.4085 70.2817 10.0579 70.2709 7.74986 70.3013L7.74113 70.3023Z" fill="#231F20"/>
<path d="M26.2831 44.4317H26.2754L8.71407 44.0343C8.62728 44.0333 8.54445 43.998 8.4838 43.9362C8.42315 43.8744 8.38963 43.7911 8.39065 43.7048C8.39166 43.6184 8.42711 43.5359 8.48919 43.4756C8.55128 43.4152 8.63491 43.3818 8.7217 43.3828H8.72933L26.2907 43.7813C26.3775 43.7823 26.4603 43.8176 26.521 43.8794C26.5816 43.9412 26.6151 44.0244 26.6141 44.1108C26.6131 44.1972 26.5777 44.2797 26.5156 44.34C26.4535 44.4004 26.3699 44.4337 26.2831 44.4327V44.4317Z" fill="#231F20"/>
<path d="M26.3385 53.2273H26.3254L9.93002 52.4955C9.84324 52.4916 9.76157 52.4536 9.70296 52.3898C9.64436 52.3259 9.61361 52.2415 9.61752 52.1552C9.62142 52.0688 9.65966 51.9875 9.72379 51.9291C9.78792 51.8708 9.87269 51.8402 9.95948 51.8441L26.3548 52.5759C26.4416 52.5777 26.5241 52.6138 26.5841 52.6763C26.6442 52.7387 26.6768 52.8223 26.675 52.9086C26.6731 52.995 26.6368 53.0771 26.5741 53.1369C26.5114 53.1967 26.4274 53.2292 26.3406 53.2273H26.3385Z" fill="#231F20"/>
<path d="M9.03036 61.2341C8.94357 61.2341 8.86033 61.1998 8.79897 61.1387C8.7376 61.0776 8.70312 60.9947 8.70312 60.9084C8.70312 60.822 8.7376 60.7391 8.79897 60.678C8.86033 60.617 8.94357 60.5826 9.03036 60.5826L24.4876 60.3047H24.4931C24.5799 60.3047 24.6631 60.339 24.7245 60.4001C24.7858 60.4612 24.8203 60.544 24.8203 60.6304C24.8203 60.7168 24.7858 60.7996 24.7245 60.8607C24.6631 60.9218 24.5799 60.9561 24.4931 60.9561L9.03689 61.2341H9.03036Z" fill="#231F20"/>
<path d="M24.474 37.5469C25.2571 37.6066 26.0545 37.7249 26.7493 38.106C27.4441 38.4871 28.0222 39.1776 28.1029 39.9898C28.1913 40.8692 27.6732 41.7269 26.9631 42.2166C26.253 42.7063 25.3826 42.868 24.5329 42.9158C24.3943 41.5435 24.4576 38.511 24.474 37.5469Z" fill="#652FEB"/>
<path d="M24.474 54.0859C25.2571 54.1457 26.0545 54.264 26.7482 54.6451C27.4419 55.0262 28.0211 55.7167 28.1029 56.5288C28.1913 57.4083 27.6721 58.266 26.9631 58.7557C26.2541 59.2453 25.3826 59.4071 24.5329 59.4549C24.3943 58.0825 24.4576 55.0501 24.474 54.0859Z" fill="#652FEB"/>
<path d="M21.9258 62.1406C22.7079 62.1993 23.5064 62.3187 24.2001 62.6998C24.8938 63.0809 25.473 63.7714 25.5548 64.5835C25.6432 65.463 25.1185 66.3207 24.415 66.8104C23.7114 67.3 22.8345 67.4618 21.9847 67.5096C21.8495 66.1372 21.9095 63.1091 21.9258 62.1406Z" fill="#652FEB"/>
<path d="M25.3244 45.9922C26.0781 46.0497 26.8515 46.1637 27.5169 46.5351C28.1822 46.9064 28.7429 47.5676 28.8258 48.3504C28.9109 49.1983 28.4113 50.0268 27.7274 50.4969C27.0435 50.967 26.2003 51.1277 25.3855 51.17C25.247 49.8433 25.3081 46.9205 25.3244 45.9922Z" fill="#652FEB"/>
<path d="M198.857 69.9636C202.324 69.9636 205.795 69.918 209.263 69.9636C211.308 69.9908 212.894 70.1438 214.217 68.2264C215.277 66.6847 215.779 64.3471 215.189 62.522C215.037 62.0423 214.816 61.5867 214.534 61.1692C215.521 59.8088 216.693 58.1422 216.934 56.455C217.175 54.7677 216.746 52.9187 215.551 51.7516C216.66 50.8949 216.941 49.3934 216.731 47.9732C216.522 46.5531 215.804 45.2719 215.031 44.082C215.602 43.1146 216.275 42.0603 216.3 40.9258C216.331 39.4806 215.484 38.1257 214.359 37.2766C213.233 36.4276 211.859 36.0172 210.493 35.7468C210.176 35.6838 210.397 35.7533 210.075 35.7533H201.628C197.868 35.7533 188.834 34.4787 187.65 39.9638C187.447 40.9051 187.759 41.9181 188.362 42.6553C188.966 43.3925 189.822 43.8627 190.72 44.1048C184.774 46.0765 186.295 51.9894 190.665 52.8992C185.569 54.9816 187.829 60.7262 192.519 60.6372C190.967 61.0715 190.109 63.3515 190.374 64.9997C190.639 66.6478 191.855 68.0039 193.283 68.7715C194.711 69.5391 197.246 69.9636 198.857 69.9636Z" fill="#FDAB96"/>
<path d="M209.265 70.2856C206.956 70.2552 204.605 70.2661 202.333 70.2759C201.197 70.2759 200.021 70.2856 198.863 70.2856C197.203 70.2856 194.63 69.8513 193.131 69.0446C191.466 68.1478 190.315 66.656 190.055 65.0383C189.824 63.6008 190.361 61.8072 191.432 60.868C189.271 60.4923 187.858 58.905 187.526 57.3133C187.236 55.9182 187.706 54.1202 189.764 52.9606C187.91 52.2603 186.601 50.6252 186.492 48.7491C186.376 46.7785 187.595 45.0891 189.791 44.1076C189.142 43.8244 188.568 43.3943 188.115 42.8514C187.413 41.9926 187.122 40.884 187.337 39.8863C187.808 37.7028 189.519 36.286 192.415 35.6736C194.814 35.1666 197.564 35.2762 199.771 35.3642C200.49 35.3935 201.109 35.4185 201.635 35.4185H210.082C210.133 35.4185 210.159 35.4185 210.171 35.4185C210.299 35.3776 210.436 35.3776 210.563 35.4185C210.605 35.4268 210.645 35.4433 210.681 35.4671C210.717 35.4909 210.748 35.5214 210.771 35.557C210.795 35.5926 210.812 35.6326 210.82 35.6745C210.829 35.7165 210.829 35.7597 210.82 35.8017C210.812 35.8437 210.795 35.8837 210.772 35.9193C210.748 35.9549 210.717 35.9854 210.681 36.0092C210.645 36.033 210.605 36.0496 210.563 36.0579C210.521 36.0663 210.478 36.0663 210.435 36.058L210.352 36.0428C210.264 36.0646 210.173 36.0741 210.082 36.071H201.635C201.096 36.071 200.435 36.0439 199.745 36.0167C195.441 35.8441 188.935 35.5824 187.978 40.0241C187.806 40.8189 188.053 41.745 188.622 42.441C189.277 43.2368 190.172 43.6092 190.812 43.7819C190.88 43.8003 190.94 43.8398 190.984 43.8948C191.027 43.9498 191.051 44.0171 191.053 44.087C191.055 44.1569 191.035 44.2255 190.994 44.2828C190.954 44.3401 190.897 44.3829 190.83 44.4051C188.412 45.2074 187.034 46.8176 187.145 48.7122C187.254 50.5666 188.731 52.1518 190.738 52.5676C190.807 52.5815 190.87 52.6172 190.917 52.6692C190.964 52.7213 190.992 52.7871 190.999 52.8567C191.005 52.9264 190.989 52.9963 190.953 53.0561C190.916 53.1159 190.861 53.1623 190.796 53.1886C188.799 54.004 187.816 55.4969 188.166 57.1819C188.493 58.766 190.098 60.3436 192.517 60.2991H192.524C192.603 60.2989 192.68 60.3274 192.739 60.3791C192.799 60.4308 192.838 60.5024 192.849 60.5804C192.859 60.6585 192.841 60.7378 192.798 60.8036C192.754 60.8695 192.688 60.9174 192.612 60.9386C191.259 61.3186 190.46 63.4358 190.701 64.9362C190.929 66.3477 191.955 67.6712 193.442 68.4725C194.796 69.201 197.26 69.6353 198.863 69.6353C200.019 69.6353 201.194 69.6353 202.33 69.6255C204.606 69.6157 206.959 69.6049 209.274 69.6353C209.361 69.6353 209.444 69.6696 209.505 69.7307C209.566 69.7918 209.601 69.8746 209.601 69.961C209.601 70.0474 209.566 70.1302 209.505 70.1913C209.444 70.2524 209.361 70.2867 209.274 70.2867L209.265 70.2856Z" fill="#231F20"/>
<path d="M190.722 44.4327C190.635 44.4337 190.551 44.4004 190.489 44.34C190.427 44.2797 190.392 44.1972 190.391 44.1108C190.39 44.0244 190.423 43.9412 190.484 43.8794C190.544 43.8176 190.627 43.7823 190.714 43.7813L208.275 43.3828H208.283C208.37 43.3818 208.453 43.4152 208.516 43.4756C208.578 43.5359 208.613 43.6184 208.614 43.7048C208.615 43.7911 208.582 43.8744 208.521 43.9362C208.46 43.998 208.377 44.0333 208.291 44.0343L190.729 44.4317L190.722 44.4327Z" fill="#231F20"/>
<path d="M190.67 53.2117C190.584 53.2135 190.5 53.181 190.437 53.1212C190.374 53.0615 190.338 52.9794 190.336 52.893C190.334 52.8066 190.367 52.723 190.427 52.6606C190.487 52.5982 190.569 52.5621 190.656 52.5602L207.052 51.8284C207.138 51.8247 207.223 51.8554 207.287 51.9139C207.351 51.9723 207.389 52.0537 207.393 52.14C207.397 52.2264 207.366 52.3108 207.307 52.3745C207.248 52.4382 207.167 52.4761 207.08 52.4799L190.686 53.2117H190.67Z" fill="#231F20"/>
<path d="M207.975 61.2341H207.968L192.512 60.9561C192.425 60.9554 192.342 60.9204 192.281 60.8588C192.221 60.7972 192.187 60.7141 192.188 60.6277C192.188 60.5413 192.223 60.4588 192.285 60.3982C192.347 60.3376 192.431 60.304 192.517 60.3047L207.975 60.5827C208.062 60.5827 208.145 60.617 208.206 60.6781C208.267 60.7391 208.302 60.822 208.302 60.9084C208.302 60.9948 208.267 61.0776 208.206 61.1387C208.145 61.1998 208.062 61.2341 207.975 61.2341Z" fill="#231F20"/>
<path d="M192.529 37.5312C191.746 37.591 190.949 37.7093 190.254 38.0904C189.559 38.4715 188.981 39.162 188.9 39.9741C188.812 40.8536 189.33 41.7113 190.04 42.201C190.75 42.6906 191.621 42.8524 192.471 42.9002C192.609 41.5278 192.546 38.4954 192.529 37.5312Z" fill="#652FEB"/>
<path d="M192.529 54.0625C191.746 54.1222 190.949 54.2406 190.254 54.6217C189.559 55.0027 188.981 55.6933 188.9 56.5054C188.812 57.3848 189.33 58.2426 190.04 58.7322C190.75 59.2219 191.621 59.3837 192.471 59.4314C192.609 58.0591 192.546 55.0266 192.529 54.0625Z" fill="#652FEB"/>
<path d="M195.076 62.1328C194.293 62.1914 193.496 62.3109 192.802 62.692C192.108 63.0731 191.529 63.7636 191.447 64.5757C191.359 65.4551 191.877 66.3129 192.587 66.8025C193.297 67.2922 194.168 67.454 195.017 67.5018C195.156 66.1294 195.093 63.1013 195.076 62.1328Z" fill="#652FEB"/>
<path d="M191.675 45.9844C190.92 46.0419 190.148 46.1559 189.482 46.5272C188.817 46.8986 188.256 47.5598 188.174 48.3426C188.088 49.1905 188.588 50.0189 189.272 50.4891C189.956 50.9592 190.799 51.1199 191.614 51.1622C191.752 49.8355 191.691 46.9127 191.675 45.9844Z" fill="#652FEB"/>
<path d="M68.881 16.6758C69.3173 19.5422 69.7027 21.1997 70.0372 21.6485C70.2263 21.8512 70.4226 22.0683 70.6262 22.2999C70.8299 22.5315 70.9317 22.7632 70.9317 22.9948C70.9317 24.1819 70.6262 24.9129 70.0154 25.188C69.5646 25.4051 68.3284 25.5137 66.3068 25.5137C64.6779 25.5137 63.5944 25.3544 63.0563 25.036C62.5182 24.703 62.2491 24.0733 62.2491 23.1468C62.2491 22.9296 62.38 22.6908 62.6418 22.4302C62.9763 22.1117 63.1727 21.9018 63.2308 21.8005C63.4199 21.4241 63.6381 20.5266 63.8853 19.1079C64.1034 17.8919 64.2416 16.9581 64.2998 16.3067C64.2998 16.2488 64.1907 16.0606 63.9726 15.7421C63.6962 15.3512 63.4853 14.9604 63.3399 14.5695C63.0781 14.0918 62.7654 13.491 62.4018 12.7672C62.2564 12.579 62.0455 12.3836 61.7692 12.1809C61.3038 11.848 61.0711 11.6815 61.0711 11.6815C60.9402 11.6091 60.7584 11.5005 60.5257 11.3558C60.3657 11.182 60.2858 10.9359 60.2858 10.6175C60.2858 10.0239 60.6639 9.58239 61.4202 9.29286C62.031 9.04677 62.8018 8.93096 63.7326 8.94543C65.0124 8.95991 65.9214 9.11191 66.4595 9.40144C66.8958 9.63306 67.114 9.98773 67.114 10.4655C67.114 10.755 67.0485 10.9649 66.9176 11.0952C66.7867 11.2255 66.6486 11.3485 66.5031 11.4643C66.3577 11.5801 66.2414 11.7321 66.1541 11.9203C66.0814 12.1085 66.0668 12.3112 66.1105 12.5283C66.285 13.4259 66.6704 13.8746 67.2667 13.8746C67.4848 13.8746 67.7539 13.6141 68.0738 13.0929C68.1466 12.8323 68.2702 12.5283 68.4447 12.1809C68.5756 11.9203 68.641 11.7466 68.641 11.6598C68.641 11.6163 68.612 11.5801 68.5538 11.5512C68.5102 11.5222 68.4156 11.4571 68.2702 11.3558C68.0957 11.182 68.0084 10.9359 68.0084 10.6175C68.0084 9.50277 69.1573 8.94543 71.4552 8.94543C73.2295 8.94543 74.1167 9.3942 74.1167 10.2917C74.1167 10.5813 74.044 10.7912 73.8985 10.9215C73.7677 11.0517 73.6368 11.1676 73.5059 11.2689C73.3895 11.3702 73.1568 11.4933 72.8078 11.638C72.2697 11.8407 71.9279 11.9927 71.7825 12.0941C71.6516 12.1954 71.4698 12.4053 71.2371 12.7238C70.3935 13.6358 69.87 14.2293 69.6664 14.5044C69.1428 15.1848 68.881 15.7855 68.881 16.3067C68.881 16.408 68.881 16.5311 68.881 16.6758Z" fill="white"/>
<path d="M87.9811 19.4553C87.9811 21.2793 87.2902 22.8066 85.9086 24.0371C84.5997 25.1952 83.0217 25.7743 81.1747 25.7743C79.1095 25.7743 77.4515 24.9636 76.2008 23.3422C75.0809 21.8656 74.521 20.0633 74.521 17.9353C74.521 15.5901 75.0882 13.5417 76.2226 11.79C77.5315 9.76335 79.2985 8.75 81.5237 8.75C83.6762 8.75 85.3414 9.9805 86.5194 12.4415C87.4938 14.4537 87.9811 16.7916 87.9811 19.4553ZM83.2035 16.6107C83.2035 15.6552 82.9926 14.5985 82.5708 13.4404C82.0473 11.9927 81.4001 11.2689 80.6293 11.2689C80.1784 11.2689 79.8294 11.6019 79.5821 12.2678C79.3931 12.7744 79.2985 13.3173 79.2985 13.8964C79.2985 14.8808 79.4585 15.8 79.7785 16.6541C80.2148 17.7978 80.8547 18.3696 81.6982 18.3696C82.7017 18.3696 83.2035 17.7833 83.2035 16.6107Z" fill="white"/>
<path d="M102.535 15.1124C102.535 15.6046 102.542 16.3429 102.557 17.3273C102.586 18.2972 102.6 19.0283 102.6 19.5205C102.6 20.9247 101.982 22.2637 100.746 23.5377C99.5097 24.7971 98.179 25.4268 96.7537 25.4268C94.1795 25.4268 92.3688 24.9419 91.3217 23.9719C90.2309 22.9731 89.6855 21.2287 89.6855 18.7387C89.6855 18.261 89.7074 17.5444 89.751 16.589C89.8092 15.6335 89.8383 14.917 89.8383 14.4392C89.8383 13.3825 89.7219 12.608 89.4892 12.1158C89.3729 11.8841 89.1474 11.638 88.8129 11.3775C88.5657 11.1893 88.4421 10.9359 88.4421 10.6175C88.4421 9.99497 88.8566 9.53896 89.6855 9.24944C90.2527 9.04677 90.929 8.94543 91.7144 8.94543C94.0995 8.94543 95.2921 9.45211 95.2921 10.4655C95.2921 10.7839 95.1685 11.0517 94.9212 11.2689C94.5867 11.5584 94.3831 11.7828 94.3104 11.942C94.0632 12.5211 93.9395 13.491 93.9395 14.8518L93.9177 14.8084C93.9323 16.1402 94.0632 17.0377 94.3104 17.501C94.6885 18.1669 95.4957 18.4999 96.7319 18.4999C97.7791 18.4999 98.4844 18.2827 98.848 17.8484C99.2261 17.4141 99.4152 16.6614 99.4152 15.5901C99.4152 14.4899 99.3716 13.6286 99.2843 13.0061C99.1825 12.2533 98.928 11.7539 98.5208 11.5078C98.1572 11.3051 97.9754 11.0083 97.9754 10.6175C97.9754 9.50277 99.1243 8.94543 101.422 8.94543C102.019 8.94543 102.542 9.03953 102.993 9.22772C103.589 9.4883 103.887 9.87916 103.887 10.4003C103.887 10.7188 103.764 10.9866 103.516 11.2038C103.197 11.4788 103 11.6959 102.927 11.8552C102.666 12.4922 102.535 13.5779 102.535 15.1124Z" fill="white"/>
<path d="M127.121 23.2988C127.063 24.1384 126.452 24.732 125.288 25.0794C124.532 25.3255 123.608 25.4485 122.518 25.4485C121.427 25.4485 120.642 25.3544 120.162 25.1663C119.362 24.8622 118.962 24.2687 118.962 23.3857C118.962 23.0527 119.013 22.6763 119.114 22.2565C119.769 21.6051 120.096 20.6062 120.096 19.2599C120.096 18.7966 119.776 18.442 119.136 18.1959C118.656 18.0077 118.133 17.9136 117.566 17.9136C117.566 17.9136 117.362 17.9498 116.955 18.0221C116.417 18.3406 116.148 18.9486 116.148 19.8462C116.148 20.4976 116.286 21.0622 116.562 21.5399C116.678 21.7136 116.947 22.0249 117.369 22.4736C117.646 22.7776 117.784 23.0599 117.784 23.3205C117.784 24.3194 117.26 24.9636 116.213 25.2531C115.704 25.3979 114.78 25.4703 113.442 25.4703C111.435 25.4703 110.432 24.9708 110.432 23.9719C110.417 23.0889 110.803 22.3723 111.588 21.8222C112.504 21.1708 113.312 19.7738 114.01 17.6313C114.606 15.7638 114.904 14.1352 114.904 12.7455C114.904 12.2099 114.81 11.7611 114.621 11.3992C114.519 11.1965 114.351 10.9866 114.119 10.7695C113.93 10.5957 113.835 10.4655 113.835 10.3786C113.835 9.90087 114.613 9.4883 116.169 9.14086C117.493 8.85133 118.46 8.73552 119.071 8.79343C120.103 8.89476 120.889 9.20601 121.427 9.72716C121.674 9.97326 122.038 10.5378 122.518 11.4209C122.663 11.7104 122.845 12.275 123.063 13.1146C123.907 16.4587 124.757 18.9776 125.615 20.6713C125.732 20.9174 125.95 21.1708 126.27 21.4313C126.59 21.6774 126.801 21.8801 126.903 22.0393C127.077 22.3434 127.15 22.7632 127.121 23.2988ZM119.398 14.9604C119.398 14.8446 119.267 14.4609 119.005 13.8095C118.758 13.216 118.431 12.9192 118.024 12.9192C117.776 12.9192 117.515 13.2304 117.238 13.8529C117.006 14.3886 116.889 14.8011 116.889 15.0907C116.889 15.221 117.078 15.2861 117.457 15.2861C117.544 15.2861 117.689 15.2789 117.893 15.2644C118.096 15.2354 118.242 15.221 118.329 15.221C118.62 15.221 118.802 15.2427 118.875 15.2861C119.224 15.2571 119.398 15.1486 119.398 14.9604Z" fill="white"/>
<path d="M134.014 11.182C133.825 11.182 133.651 11.2544 133.491 11.3992C133.345 11.5295 133.287 11.6887 133.316 11.8769L133.491 14.1135C133.52 14.4899 133.651 14.6781 133.883 14.6781C134.32 14.6781 134.669 14.4682 134.93 14.0484C135.163 13.672 135.279 13.2522 135.279 12.7889C135.279 11.7177 134.858 11.182 134.014 11.182ZM133.949 17.9136C134.254 19.9692 134.567 21.2142 134.887 21.6485C135.076 21.8512 135.272 22.0683 135.476 22.2999C135.679 22.5315 135.781 22.7632 135.781 22.9948C135.781 24.1819 135.483 24.9129 134.887 25.188C134.421 25.4051 133.178 25.5137 131.156 25.5137C129.498 25.5137 128.393 25.3617 127.84 25.0577C127.302 24.7392 127.055 24.1022 127.099 23.1468C127.113 22.9296 127.251 22.6908 127.513 22.4302C127.833 22.1117 128.022 21.9018 128.08 21.8005C128.284 21.3951 128.531 20.3456 128.822 18.6519C129.084 17.1318 129.28 15.6914 129.411 14.3307C129.368 12.8541 129.171 11.971 128.822 11.6815C128.691 11.6091 128.509 11.5005 128.277 11.3558C128.102 11.182 128.015 10.9359 128.015 10.6175C128.015 10.0239 128.393 9.58239 129.149 9.29286C129.76 9.04677 130.531 8.93096 131.462 8.94543C131.796 8.95991 132.102 8.97438 132.378 8.98886C133.672 8.93095 134.487 8.902 134.821 8.902C136.028 8.902 137.09 9.14086 138.006 9.61858C139.141 10.1976 139.708 11.0373 139.708 12.1375C139.708 13.5127 138.966 14.6057 137.483 15.4164C137.628 15.8652 137.941 16.1981 138.421 16.4153C139.134 16.7337 139.497 16.893 139.512 16.893C140.108 17.3852 140.552 17.8991 140.842 18.4347C141.104 18.9124 141.322 19.5566 141.497 20.3673C141.744 21.5689 142.115 22.5894 142.609 23.4291C142.639 23.487 142.828 23.6969 143.177 24.0588C143.438 24.3339 143.569 24.5655 143.569 24.7537C143.569 24.8984 143.446 25.0432 143.198 25.188C143.024 25.2893 142.849 25.3979 142.675 25.5137C142.413 25.5282 141.984 25.5861 141.388 25.6874C140.893 25.7743 140.472 25.8177 140.123 25.8177C138.61 25.8177 137.57 25.2242 137.003 24.0371C136.727 23.458 136.465 22.2348 136.218 20.3673C135.999 18.8039 135.629 17.7905 135.105 17.3273C134.93 17.1825 134.72 17.1391 134.472 17.197C134.065 17.2983 133.891 17.5372 133.949 17.9136Z" fill="white"/>
<path d="M145.754 13.1146C145.667 12.3619 145.492 11.8841 145.23 11.6815C145.099 11.6091 144.918 11.5005 144.685 11.3558C144.51 11.182 144.423 10.9359 144.423 10.6175C144.423 10.0239 144.801 9.58239 145.558 9.29286C146.183 9.04677 146.954 8.93096 147.87 8.94543C148.045 8.94543 148.306 8.95991 148.655 8.98886C149.019 9.01781 149.295 9.03229 149.484 9.03229C149.979 9.03229 150.786 8.9961 151.906 8.92372C153.026 8.85133 153.818 8.81514 154.284 8.81514C154.909 8.81514 155.396 9.20601 155.745 9.98773C156.007 10.5957 156.138 11.2544 156.138 11.9638C156.138 12.4125 156.051 12.7889 155.876 13.0929C155.644 13.4693 155.324 13.6575 154.916 13.6575C154.524 13.6575 154.189 13.4765 153.913 13.1146C153.506 12.579 153.193 12.2388 152.975 12.0941C152.437 11.7177 151.644 11.5295 150.597 11.5295C150.292 11.5295 150.132 11.5295 150.117 11.5295C149.972 11.5874 149.87 11.7611 149.812 12.0506C149.783 12.152 149.768 12.2533 149.768 12.3546C149.768 12.8323 150.008 13.2232 150.488 13.5272C150.91 13.7878 151.411 13.9181 151.993 13.9181C152.109 13.9181 152.248 13.8385 152.408 13.6792C152.582 13.52 152.728 13.4404 152.844 13.4404C153.062 13.4404 153.171 13.5996 153.171 13.9181C153.171 14.4248 153.106 14.9097 152.975 15.373C152.786 16.0244 152.509 16.3501 152.146 16.3501C151.913 16.3501 151.688 16.1692 151.47 15.8073C151.266 15.4453 150.961 15.2644 150.553 15.2644C150.088 15.2644 149.855 15.648 149.855 16.4153C149.855 18.2248 150.91 19.1296 153.018 19.1296C153.106 19.1296 153.244 19.1079 153.433 19.0644C153.622 19.021 153.767 19.0138 153.869 19.0427C153.971 19.0572 154.058 19.0644 154.131 19.0644C154.495 19.0644 154.793 18.8907 155.025 18.5433C155.273 18.1959 155.469 18.0221 155.614 18.0221C155.833 18.0221 156.022 18.1669 156.182 18.4564C156.342 18.746 156.422 19.0138 156.422 19.2599C156.422 19.4046 156.436 19.781 156.465 20.389C156.509 20.9826 156.531 21.4748 156.531 21.8656C156.531 23.6318 156.167 24.7754 155.44 25.2965C155.164 25.4847 154.24 25.5788 152.669 25.5788C152.233 25.5788 151.637 25.5861 150.881 25.6005C150.255 25.615 149.644 25.615 149.048 25.6005L144.947 25.5788C144.205 25.5644 143.834 25.2097 143.834 24.5148C143.834 24.2398 143.943 23.9937 144.161 23.7765C144.525 23.4146 144.729 23.1902 144.772 23.1034L145.187 22.4519C145.39 22.119 145.514 21.2938 145.558 19.9765L145.732 14.3741C145.761 13.8964 145.768 13.4765 145.754 13.1146Z" fill="white"/>
<path d="M32.3685 33.5047C32.194 33.0125 32.1067 32.7664 32.1067 32.7664C32.1067 32.1439 32.5139 31.6879 33.3284 31.3983C33.8956 31.1957 34.5791 31.0943 35.379 31.0943C36.7461 31.0943 37.6405 31.1812 38.0623 31.3549C38.4404 31.4997 38.6949 31.8326 38.8258 32.3538C39.1312 33.4829 39.3421 34.1778 39.4585 34.4384C39.633 34.9451 39.8148 35.4517 40.0039 35.9584C40.3093 36.6967 40.6001 37.0659 40.8765 37.0659C41.2691 37.0659 41.5527 36.4361 41.7273 35.1767C41.8291 34.3805 41.9309 33.577 42.0327 32.7664C42.2508 32.0281 42.7017 31.5431 43.3852 31.3115C43.7779 31.1812 44.476 31.1088 45.4795 31.0943C47.7483 31.0943 48.8827 31.601 48.8827 32.6144C48.8827 32.8749 48.6718 33.2368 48.2501 33.7001C47.8428 34.1633 47.6392 34.6628 47.6392 35.1984C47.6392 36.371 47.7992 37.9055 48.1192 39.8019C48.4246 41.3219 48.7227 42.8419 49.0136 44.362C49.0572 44.637 49.2754 44.9338 49.6681 45.2523C50.0607 45.5563 50.2571 45.8675 50.2571 46.186C50.2571 46.8519 49.6972 47.2862 48.5773 47.4889C48.0828 47.5902 47.2829 47.6409 46.1776 47.6409C45.0868 47.6409 44.2942 47.5902 43.7997 47.4889C42.709 47.2862 42.1636 46.8591 42.1636 46.2077C42.1636 46.005 42.229 45.8313 42.3599 45.6866C42.5054 45.5418 42.6435 45.4043 42.7744 45.274C42.9053 45.1292 43.0216 44.637 43.1235 43.7974C43.2107 43.0591 43.2543 42.5018 43.2543 42.1254C43.2543 41.3726 43.2543 40.9745 43.2543 40.9311C43.1816 40.4244 42.9707 40.171 42.6217 40.171C42.4472 40.1855 42.2945 40.4389 42.1636 40.9311C41.9163 41.7707 41.7782 42.2339 41.7491 42.3208C41.5309 42.8275 41.2546 43.0808 40.9201 43.0808C40.542 43.0808 40.2438 42.8347 40.0257 42.3425C39.953 42.1977 39.8148 41.7345 39.6112 40.9528C39.4657 40.4606 39.313 40.2145 39.1531 40.2145C38.7895 40.2145 38.5931 41.0903 38.564 42.8419C38.6949 43.3341 38.8113 43.6526 38.9131 43.7974C39.1022 44.0001 39.2985 44.2172 39.5021 44.4488C39.7203 44.6805 39.8293 44.9121 39.8293 45.1437C39.8293 45.7951 39.7566 46.2873 39.6112 46.6203C39.4948 47.0835 39.0513 47.3875 38.2804 47.5323C37.9896 47.5902 37.6187 47.6264 37.1679 47.6409C36.7316 47.6553 36.0698 47.6626 35.1827 47.6626C33.5538 47.6626 32.4703 47.5033 31.9322 47.1849C31.3941 46.8519 31.125 46.2222 31.125 45.2957C31.125 45.0786 31.2632 44.8397 31.5395 44.5791C31.874 44.2606 32.0631 44.0507 32.1067 43.9494C32.383 43.3993 32.6957 42.0675 33.0448 39.9539C33.3647 37.9562 33.5247 36.5302 33.5247 35.6761C33.5247 34.6628 33.1393 33.939 32.3685 33.5047Z" fill="white"/>
<path d="M53.2289 36.4796C53.2144 35.0174 53.018 34.1344 52.6399 33.8304C52.509 33.758 52.3272 33.6494 52.0945 33.5047C51.92 33.3309 51.8327 33.0848 51.8327 32.7664C51.8327 32.1728 52.2109 31.7313 52.9671 31.4418C53.5925 31.1957 54.3633 31.0799 55.2796 31.0943C56.5739 31.1088 57.4829 31.2608 58.0065 31.5503C58.4573 31.782 58.6828 32.1366 58.6828 32.6144C58.6828 32.9039 58.61 33.1138 58.4646 33.2441C58.3337 33.3744 58.1955 33.4974 58.0501 33.6132C57.9047 33.729 57.7956 33.8883 57.7229 34.091C57.4611 34.7279 57.3302 35.6978 57.3302 37.0007V37.1093C57.4611 38.3543 57.6647 39.6644 57.941 41.0396C58.2319 42.5886 58.4864 43.5079 58.7046 43.7974C58.8936 44.0001 59.09 44.2172 59.2936 44.4488C59.5117 44.6805 59.6208 44.9121 59.6208 45.1437C59.6208 46.3308 59.3154 47.0618 58.7046 47.3369C58.2392 47.554 56.9957 47.6626 54.9741 47.6626C53.3453 47.6626 52.2618 47.5033 51.7236 47.1849C51.1855 46.8519 50.9165 46.2222 50.9165 45.2957C50.9165 45.0786 51.0546 44.8397 51.331 44.5791C51.6655 44.2606 51.8545 44.0507 51.8982 43.9494C52.1018 43.5441 52.349 42.4945 52.6399 40.8008C52.9017 39.2807 53.098 37.8403 53.2289 36.4796Z" fill="white"/>
<path d="M67.0109 40.0842C67.0109 40.4461 67.1418 41.112 67.4036 42.0819C67.6799 43.0374 67.8908 43.6164 68.0363 43.8191C68.1962 44.0218 68.3635 44.2244 68.538 44.4271C68.7562 44.6732 68.8871 44.9121 68.9307 45.1437C68.9743 45.4332 68.9961 45.6938 68.9961 45.9254C68.9961 46.5624 68.7634 47.0112 68.298 47.2717C67.9199 47.4744 67.2436 47.5974 66.2692 47.6409C65.8184 47.6988 64.8367 47.7277 63.3241 47.7277C62.7424 47.7277 62.1461 47.6119 61.5353 47.3803C60.9972 47.1921 60.6409 46.9243 60.4663 46.5769C60.3064 46.3308 60.2264 46.0412 60.2264 45.7083C60.2264 45.6504 60.2264 45.5925 60.2264 45.5346C60.2264 45.4622 60.2264 45.3826 60.2264 45.2957C60.2264 45.1075 60.3209 44.9121 60.51 44.7094C60.6699 44.5502 60.8372 44.3837 61.0117 44.21C61.448 42.5597 61.7607 41.0252 61.9498 39.6065C62.1098 38.4628 62.2188 37.4205 62.277 36.4796C62.3643 35.1043 62.1679 34.2212 61.688 33.8304C61.5571 33.758 61.3753 33.6494 61.1426 33.5047C60.9681 33.3309 60.8808 33.0848 60.8808 32.7664C60.8808 32.1728 61.259 31.7313 62.0152 31.4418C62.6261 31.1957 63.3969 31.0799 64.3277 31.0943C65.9129 31.1233 66.931 31.3477 67.3818 31.7675C68.0653 32.2163 68.6835 33.2875 69.2361 34.9813C69.8469 36.8053 70.4432 37.9996 71.025 38.5642C71.1704 38.6945 71.3304 38.7306 71.5049 38.6727C71.6794 38.4556 71.7667 38.1371 71.7667 37.7173C71.7667 37.5581 71.7449 37.312 71.7012 36.979C71.7012 36.95 71.7012 36.9139 71.7012 36.8704L71.6794 36.827C71.6358 36.4796 71.5849 36.1104 71.5267 35.7196C71.2795 34.9089 70.8795 34.2792 70.3269 33.8304C70.196 33.758 70.0142 33.6494 69.7815 33.5047C69.6215 33.3309 69.5415 33.0848 69.5415 32.7664C69.5415 32.1728 69.9197 31.7313 70.6759 31.4418C71.2868 31.1957 72.0576 31.0799 72.9884 31.0943C74.2682 31.1088 75.1772 31.2608 75.7153 31.5503C76.1516 31.782 76.3697 32.1366 76.3697 32.6144C76.3697 32.9039 76.3043 33.1138 76.1734 33.2441C76.0425 33.3744 75.9043 33.4974 75.7589 33.6132C75.6135 33.729 75.4971 33.8883 75.4099 34.091C75.2353 34.395 75.0608 34.7062 74.8863 35.0247C74.6245 35.5603 74.4936 36.1611 74.4936 36.827C74.4936 36.798 74.4936 36.8921 74.4936 37.1093C74.5227 37.9055 74.7481 39.107 75.1699 40.7139C75.5626 42.2484 75.7589 43.4427 75.7589 44.2968C75.7589 45.426 75.6644 46.2077 75.4753 46.642C75.1699 47.3224 74.5372 47.6626 73.5774 47.6626C72.5157 47.6626 71.5558 46.975 70.6977 45.5997C70.4796 45.2378 69.8833 43.9639 68.9089 41.7779C68.298 40.4027 67.7454 39.715 67.2509 39.715C67.0909 39.715 67.0109 39.8381 67.0109 40.0842Z" fill="white"/>
<path d="M83.8062 33.3961C83.7335 33.4395 83.639 33.5119 83.5226 33.6132C83.3626 33.729 83.239 33.8883 83.1518 34.091C83.079 34.2936 83.0136 34.5252 82.9554 34.7858C82.9554 37.3771 82.97 38.9695 82.9991 39.563C83.0281 40.7646 83.3699 41.3654 84.0244 41.3654C84.7806 41.3654 85.3406 40.9383 85.7042 40.0842C85.9805 39.4617 86.1186 38.7089 86.1186 37.8259C86.1186 36.7401 85.9805 35.8281 85.7042 35.0898C85.3115 34.0041 84.6788 33.4395 83.8062 33.3961ZM78.6796 36.5013C78.6796 35.0392 78.4833 34.1489 78.0906 33.8304C77.9597 33.758 77.7779 33.6494 77.5452 33.5047C77.3707 33.3309 77.2834 33.0848 77.2834 32.7664C77.2834 32.1728 77.6616 31.7313 78.4178 31.4418C79.0432 31.1957 79.814 31.0799 80.7303 31.0943C80.9193 31.0943 81.3193 31.1161 81.9301 31.1595C84.7661 31.3477 86.8967 32.0353 88.322 33.2224C90.0236 34.6555 90.8744 36.8921 90.8744 39.9322C90.8744 42.2339 90.2927 44.0724 89.1292 45.4477C87.8784 46.9243 86.1259 47.6626 83.8717 47.6626C80.8902 47.6626 79.9449 47.6698 81.0357 47.6843C79.5959 47.6698 78.5705 47.5613 77.9597 47.3586C77.407 47.1849 77.0653 47.0546 76.9344 46.9677C76.6726 46.8085 76.5635 46.5624 76.6071 46.2294C76.6799 45.549 76.8689 45.0424 77.1743 44.7094C77.5816 44.2751 77.8506 43.877 77.9815 43.5151C78.4615 42.1398 78.6941 39.8019 78.6796 36.5013Z" fill="white"/>
<path d="M93.2303 36.5013V36.4796C93.2157 35.0174 93.0194 34.1344 92.6413 33.8304C92.5104 33.758 92.3286 33.6494 92.0959 33.5047C91.9214 33.3309 91.8341 33.0848 91.8341 32.7664C91.8341 32.1728 92.2122 31.7313 92.9685 31.4418C93.5939 31.1957 94.3647 31.0799 95.2809 31.0943C95.3536 31.0943 95.4627 31.1016 95.6082 31.1161C95.7391 31.1161 95.8409 31.1161 95.9136 31.1161C95.8118 31.1161 96.3135 31.1161 97.4188 31.1161C97.9279 31.1161 98.6769 31.0581 99.6658 30.9423C100.655 30.812 101.382 30.7469 101.847 30.7469C102.458 30.7469 102.938 31.1378 103.287 31.9195C103.563 32.5275 103.702 33.1862 103.702 33.8955C103.702 34.3443 103.607 34.7207 103.418 35.0247C103.2 35.4011 102.887 35.5893 102.48 35.5893C102.131 35.5893 101.833 35.3938 101.586 35.003C101.222 34.4094 100.96 34.0475 100.8 33.9172C100.364 33.5264 99.7385 33.3382 98.9241 33.3527C97.9206 33.3816 97.4188 33.6567 97.4188 34.1778C97.4188 34.7134 97.6297 35.126 98.0515 35.4155C98.4296 35.6616 98.9023 35.7847 99.4695 35.7847C99.5858 35.7847 99.7385 35.7196 99.9276 35.5893C100.117 35.4445 100.277 35.3721 100.408 35.3721C100.64 35.3721 100.757 36.2335 100.757 37.9562C100.757 38.1733 100.691 38.3687 100.56 38.5425C100.429 38.7162 100.255 38.803 100.037 38.803C99.8767 38.803 99.6222 38.6076 99.2731 38.2167C98.9241 37.8259 98.5387 37.6304 98.1169 37.6304C97.7824 37.6304 97.5715 37.739 97.4843 37.9562C97.4407 38.072 97.4116 38.347 97.397 38.7813C97.3389 40.5764 97.4916 42.2339 97.8551 43.754C97.9279 44.0869 98.3278 44.5936 99.055 45.274C99.7095 45.8965 100.015 46.4321 99.9712 46.8809C99.9276 47.3586 99.4622 47.5974 98.5751 47.5974C98.3424 47.5974 98.0006 47.5757 97.5497 47.5323C97.0989 47.5033 96.7789 47.4889 96.5899 47.4889L92.4886 47.5323C91.7468 47.5323 91.376 47.1704 91.376 46.4466C91.376 46.157 91.5505 45.8096 91.8995 45.4043C92.1759 45.1003 92.4522 44.7963 92.7285 44.4923C93.1358 44.0001 93.3321 43.4282 93.3175 42.7768L93.2303 36.5013Z" fill="white"/>
<path d="M117.629 37.2613C117.629 37.7535 117.636 38.4918 117.651 39.4762C117.68 40.4461 117.694 41.1772 117.694 41.6694C117.694 43.0736 117.076 44.4126 115.84 45.6866C114.604 46.946 113.273 47.5757 111.848 47.5757C109.273 47.5757 107.463 47.0908 106.416 46.1209C105.325 45.122 104.779 43.3776 104.779 40.8876C104.779 40.4099 104.801 39.6933 104.845 38.7379C104.903 37.7824 104.932 37.0659 104.932 36.5881C104.932 35.5314 104.816 34.7569 104.583 34.2647C104.467 34.0331 104.241 33.787 103.907 33.5264C103.66 33.3382 103.536 33.0848 103.536 32.7664C103.536 32.1439 103.95 31.6879 104.779 31.3983C105.347 31.1957 106.023 31.0943 106.808 31.0943C109.193 31.0943 110.386 31.601 110.386 32.6144C110.386 32.9328 110.262 33.2007 110.015 33.4178C109.681 33.7073 109.477 33.9317 109.404 34.091C109.157 34.67 109.033 35.6399 109.033 37.0007L109.012 36.9573C109.026 38.2891 109.157 39.1867 109.404 39.6499C109.782 40.3158 110.59 40.6488 111.826 40.6488C112.873 40.6488 113.578 40.4316 113.942 39.9973C114.32 39.563 114.509 38.8103 114.509 37.739C114.509 36.6388 114.465 35.7775 114.378 35.155C114.276 34.4022 114.022 33.9028 113.615 33.6567C113.251 33.454 113.069 33.1572 113.069 32.7664C113.069 31.6517 114.218 31.0943 116.516 31.0943C117.112 31.0943 117.636 31.1884 118.087 31.3766C118.683 31.6372 118.981 32.0281 118.981 32.5492C118.981 32.8677 118.858 33.1355 118.61 33.3527C118.29 33.6277 118.094 33.8449 118.021 34.0041C117.76 34.6411 117.629 35.7268 117.629 37.2613Z" fill="white"/>
<path d="M128.129 47.5106L127.017 47.554C126.348 47.6409 125.475 47.6698 124.399 47.6409C122.566 47.5974 121.686 47.5757 121.759 47.5757C119.927 47.5757 119.01 46.8953 119.01 45.5346C119.01 45.2306 119.207 44.6805 119.599 43.8843C120.036 43.0157 120.29 42.3859 120.363 41.9951C120.654 40.2579 120.799 38.5425 120.799 36.8487C120.785 35.1839 120.567 34.1778 120.145 33.8304C120.014 33.758 119.832 33.6494 119.599 33.5047C119.425 33.3309 119.338 33.0848 119.338 32.7664C119.338 32.1728 119.716 31.7313 120.472 31.4418C121.097 31.1957 121.868 31.0799 122.784 31.0943C124.079 31.1088 124.988 31.2608 125.511 31.5503C125.962 31.782 126.188 32.1366 126.188 32.6144C126.188 32.9039 126.115 33.1138 125.97 33.2441C125.839 33.3744 125.7 33.4974 125.555 33.6132C125.41 33.729 125.301 33.8883 125.228 34.091C124.966 34.7134 124.835 35.5893 124.835 36.7184C124.835 38.2964 124.85 39.1722 124.879 39.3459C125.199 41.3292 125.679 42.3208 126.319 42.3208C126.74 42.3208 127.148 42.1905 127.54 41.9299C128.122 41.5535 128.515 41.3219 128.718 41.2351C129.111 41.0758 129.402 40.9962 129.591 40.9962C129.78 40.9962 129.969 41.0613 130.158 41.1916C130.507 41.4377 130.711 41.6115 130.769 41.7128C130.885 41.9444 130.943 42.4294 130.943 43.1677C130.943 45.0062 130.667 46.2801 130.114 46.9894C129.824 47.3513 129.416 47.5323 128.893 47.5323C128.806 47.5323 128.667 47.5251 128.478 47.5106C128.318 47.4961 128.202 47.4961 128.129 47.5106Z" fill="white"/>
<path d="M137.953 40.0842C137.953 40.4461 138.084 41.112 138.346 42.0819C138.622 43.0374 138.833 43.6164 138.979 43.8191C139.139 44.0218 139.306 44.2244 139.481 44.4271C139.699 44.6732 139.83 44.9121 139.873 45.1437C139.917 45.4332 139.939 45.6938 139.939 45.9254C139.939 46.5624 139.706 47.0112 139.241 47.2717C138.862 47.4744 138.186 47.5974 137.212 47.6409C136.761 47.6988 135.779 47.7277 134.267 47.7277C133.685 47.7277 133.089 47.6119 132.478 47.3803C131.94 47.1921 131.583 46.9243 131.409 46.5769C131.249 46.3308 131.169 46.0412 131.169 45.7083C131.169 45.6504 131.169 45.5925 131.169 45.5346C131.169 45.4622 131.169 45.3826 131.169 45.2957C131.169 45.1075 131.263 44.9121 131.453 44.7094C131.613 44.5502 131.78 44.3837 131.954 44.21C132.391 42.5597 132.703 41.0252 132.892 39.6065C133.052 38.4628 133.161 37.4205 133.22 36.4796C133.307 35.1043 133.11 34.2212 132.631 33.8304C132.5 33.758 132.318 33.6494 132.085 33.5047C131.911 33.3309 131.823 33.0848 131.823 32.7664C131.823 32.1728 132.202 31.7313 132.958 31.4418C133.569 31.1957 134.339 31.0799 135.27 31.0943C136.855 31.1233 137.874 31.3477 138.324 31.7675C139.008 32.2163 139.626 33.2875 140.179 34.9813C140.789 36.8053 141.386 37.9996 141.968 38.5642C142.113 38.6945 142.273 38.7306 142.447 38.6727C142.622 38.4556 142.709 38.1371 142.709 37.7173C142.709 37.5581 142.687 37.312 142.644 36.979C142.644 36.95 142.644 36.9139 142.644 36.8704L142.622 36.827C142.578 36.4796 142.527 36.1104 142.469 35.7196C142.222 34.9089 141.822 34.2792 141.269 33.8304C141.139 33.758 140.957 33.6494 140.724 33.5047C140.564 33.3309 140.484 33.0848 140.484 32.7664C140.484 32.1728 140.862 31.7313 141.618 31.4418C142.229 31.1957 143 31.0799 143.931 31.0943C145.211 31.1088 146.12 31.2608 146.658 31.5503C147.094 31.782 147.312 32.1366 147.312 32.6144C147.312 32.9039 147.247 33.1138 147.116 33.2441C146.985 33.3744 146.847 33.4974 146.701 33.6132C146.556 33.729 146.44 33.8883 146.352 34.091C146.178 34.395 146.003 34.7062 145.829 35.0247C145.567 35.5603 145.436 36.1611 145.436 36.827C145.436 36.798 145.436 36.8921 145.436 37.1093C145.465 37.9055 145.691 39.107 146.112 40.7139C146.505 42.2484 146.701 43.4427 146.701 44.2968C146.701 45.426 146.607 46.2077 146.418 46.642C146.112 47.3224 145.48 47.6626 144.52 47.6626C143.458 47.6626 142.498 46.975 141.64 45.5997C141.422 45.2378 140.826 43.9639 139.851 41.7779C139.241 40.4027 138.688 39.715 138.193 39.715C138.033 39.715 137.953 39.8381 137.953 40.0842Z" fill="white"/>
<path d="M149.557 35.2635C149.469 34.5108 149.295 34.0331 149.033 33.8304C148.902 33.758 148.72 33.6494 148.488 33.5047C148.313 33.3309 148.226 33.0848 148.226 32.7664C148.226 32.1728 148.604 31.7313 149.36 31.4418C149.986 31.1957 150.757 31.0799 151.673 31.0943C151.847 31.0943 152.109 31.1088 152.458 31.1378C152.822 31.1667 153.098 31.1812 153.287 31.1812C153.782 31.1812 154.589 31.145 155.709 31.0726C156.829 31.0002 157.621 30.9641 158.087 30.9641C158.712 30.9641 159.199 31.3549 159.548 32.1366C159.81 32.7446 159.941 33.4033 159.941 34.1127C159.941 34.5614 159.854 34.9378 159.679 35.2418C159.446 35.6182 159.126 35.8064 158.719 35.8064C158.326 35.8064 157.992 35.6255 157.716 35.2635C157.308 34.7279 156.996 34.3877 156.778 34.243C156.239 33.8666 155.447 33.6784 154.4 33.6784C154.094 33.6784 153.934 33.6784 153.92 33.6784C153.774 33.7363 153.673 33.91 153.614 34.1995C153.585 34.3009 153.571 34.4022 153.571 34.5035C153.571 34.9813 153.811 35.3721 154.291 35.6761C154.712 35.9367 155.214 36.067 155.796 36.067C155.912 36.067 156.05 35.9874 156.21 35.8281C156.385 35.6689 156.53 35.5893 156.647 35.5893C156.865 35.5893 156.974 35.7485 156.974 36.067C156.974 36.5737 156.908 37.0586 156.778 37.5219C156.589 38.1733 156.312 38.499 155.949 38.499C155.716 38.499 155.49 38.3181 155.272 37.9562C155.069 37.5942 154.763 37.4133 154.356 37.4133C153.891 37.4133 153.658 37.7969 153.658 38.5642C153.658 40.3737 154.712 41.2785 156.821 41.2785C156.908 41.2785 157.047 41.2568 157.236 41.2134C157.425 41.1699 157.57 41.1627 157.672 41.1916C157.774 41.2061 157.861 41.2134 157.934 41.2134C158.297 41.2134 158.596 41.0396 158.828 40.6922C159.075 40.3448 159.272 40.171 159.417 40.171C159.635 40.171 159.824 40.3158 159.984 40.6053C160.144 40.8949 160.224 41.1627 160.224 41.4088C160.224 41.5535 160.239 41.9299 160.268 42.5379C160.312 43.1315 160.333 43.6237 160.333 44.0145C160.333 45.7807 159.97 46.9243 159.243 47.4454C158.966 47.6336 158.043 47.7277 156.472 47.7277C156.036 47.7277 155.44 47.735 154.683 47.7494C154.058 47.7639 153.447 47.7639 152.851 47.7494L148.75 47.7277C148.008 47.7133 147.637 47.3586 147.637 46.6637C147.637 46.3887 147.746 46.1426 147.964 45.9254C148.328 45.5635 148.531 45.3391 148.575 45.2523L148.99 44.6008C149.193 44.2679 149.317 43.4427 149.36 42.1254L149.535 36.523C149.564 36.0453 149.571 35.6255 149.557 35.2635Z" fill="white"/>
<path d="M164.359 41.7128C165.362 41.7128 165.864 41.2351 165.864 40.2796C165.864 39.9611 165.53 39.5196 164.861 38.955C163.857 38.0864 163.253 37.5363 163.05 37.3047C162.381 36.5664 162.046 35.8281 162.046 35.0898C162.046 33.7725 162.577 32.7302 163.639 31.9629C164.584 31.2825 165.74 30.9423 167.108 30.9423C167.544 30.9423 168.169 31.022 168.984 31.1812C169.813 31.3404 170.453 31.4201 170.903 31.4201C171.689 31.4201 172.081 32.3176 172.081 34.1127C172.081 35.1405 171.674 35.6544 170.86 35.6544C170.293 35.6544 169.747 35.2418 169.224 34.4167C168.715 33.5915 168.22 33.1789 167.74 33.1789C166.678 33.1789 166.148 33.5626 166.148 34.3298C166.148 34.7786 166.744 35.2853 167.936 35.8498C169.551 36.6026 170.649 37.2323 171.231 37.739C172.423 38.7668 173.019 40.0842 173.019 41.6911C173.019 43.4427 172.445 44.8831 171.296 46.0123C170.162 47.1414 168.722 47.706 166.977 47.706C165.188 47.706 163.733 47.2717 162.614 46.4031C161.377 45.4622 160.759 44.1231 160.759 42.3859C160.759 41.5174 161.21 41.0831 162.112 41.0831C162.403 41.0831 162.701 41.1916 163.006 41.4088C163.326 41.6115 163.777 41.7128 164.359 41.7128Z" fill="white"/>
<path d="M176.907 41.7128C177.91 41.7128 178.412 41.2351 178.412 40.2796C178.412 39.9611 178.078 39.5196 177.409 38.955C176.405 38.0864 175.802 37.5363 175.598 37.3047C174.929 36.5664 174.594 35.8281 174.594 35.0898C174.594 33.7725 175.125 32.7302 176.187 31.9629C177.132 31.2825 178.289 30.9423 179.656 30.9423C180.092 30.9423 180.717 31.022 181.532 31.1812C182.361 31.3404 183.001 31.4201 183.451 31.4201C184.237 31.4201 184.63 32.3176 184.63 34.1127C184.63 35.1405 184.222 35.6544 183.408 35.6544C182.841 35.6544 182.295 35.2418 181.772 34.4167C181.263 33.5915 180.768 33.1789 180.288 33.1789C179.227 33.1789 178.696 33.5626 178.696 34.3298C178.696 34.7786 179.292 35.2853 180.485 35.8498C182.099 36.6026 183.197 37.2323 183.779 37.739C184.971 38.7668 185.568 40.0842 185.568 41.6911C185.568 43.4427 184.993 44.8831 183.844 46.0123C182.71 47.1414 181.27 47.706 179.525 47.706C177.736 47.706 176.282 47.2717 175.162 46.4031C173.925 45.4622 173.307 44.1231 173.307 42.3859C173.307 41.5174 173.758 41.0831 174.66 41.0831C174.951 41.0831 175.249 41.1916 175.554 41.4088C175.874 41.6115 176.325 41.7128 176.907 41.7128Z" fill="white"/>
<path d="M72.5079 55.4147C72.1443 55.4147 71.9625 55.6608 71.9625 56.153C71.9625 57.1808 71.9771 57.854 72.0061 58.1725C72.0207 58.3462 72.028 58.5199 72.028 58.6936C72.0425 58.8673 72.137 58.9976 72.3116 59.0845C72.3407 59.099 72.4206 59.1134 72.5515 59.1279C73.0315 59.1279 73.4096 58.9108 73.6859 58.4765C73.9332 58.0856 74.0568 57.6441 74.0568 57.1519C74.0568 55.9938 73.5405 55.4147 72.5079 55.4147ZM72.6388 61.9942C73.0169 64.2526 73.3442 65.5699 73.6205 65.9463C73.8096 66.149 74.0059 66.3661 74.2095 66.5977C74.4131 66.8294 74.5149 67.061 74.5149 67.2926C74.5149 68.1901 74.3695 68.8054 74.0786 69.1383C73.7877 69.4713 73.2278 69.674 72.3988 69.7464C71.9771 69.8622 71.4171 69.9201 70.719 69.9201C70.021 69.9201 69.2283 69.8622 68.3412 69.7464C67.3522 69.645 66.6832 69.4279 66.3342 69.0949C65.9997 68.762 65.8324 68.2119 65.8324 67.4446C65.8324 67.2275 65.9633 66.9886 66.2251 66.728C66.5596 66.4095 66.7559 66.1996 66.8141 66.0983C67.2359 65.2587 67.6576 62.9497 68.0794 59.1713V57.7382C68.0939 56.8696 67.9121 56.2833 67.534 55.9793C67.4031 55.9069 67.2213 55.7983 66.9886 55.6536C66.8141 55.4799 66.7268 55.2338 66.7268 54.9153C66.7268 54.3217 67.105 53.8802 67.8612 53.5907C68.4866 53.3446 69.2574 53.2288 70.1737 53.2432C70.4354 53.2577 70.5373 53.265 70.4791 53.265C70.5954 53.2505 70.7627 53.2432 70.9808 53.2432C71.0681 53.2288 71.4317 53.1926 72.0716 53.1347C72.5079 53.1057 72.9515 53.0985 73.4023 53.113C76.7619 53.2432 78.4417 54.6837 78.4417 57.4342C78.4417 58.9831 78.049 60.0616 77.2637 60.6696C76.7692 61.0605 75.9475 61.3211 74.7985 61.4514C73.6496 61.5672 72.9297 61.7481 72.6388 61.9942Z" fill="white"/>
<path d="M80.4037 57.4125C80.3164 56.6597 80.1419 56.182 79.8801 55.9793C79.7492 55.9069 79.5674 55.7983 79.3348 55.6536C79.1602 55.4799 79.073 55.2338 79.073 54.9153C79.073 54.3217 79.4511 53.8802 80.2074 53.5907C80.8327 53.3446 81.6035 53.2288 82.5198 53.2432C82.6943 53.2432 82.9561 53.2577 83.3051 53.2867C83.6687 53.3156 83.9451 53.3301 84.1341 53.3301C84.6286 53.3301 85.4358 53.2939 86.5556 53.2215C87.6755 53.1492 88.4681 53.113 88.9335 53.113C89.5589 53.113 90.0461 53.5038 90.3951 54.2855C90.6569 54.8936 90.7878 55.5522 90.7878 56.2616C90.7878 56.7103 90.7006 57.0867 90.526 57.3907C90.2933 57.7671 89.9734 57.9553 89.5662 57.9553C89.1735 57.9553 88.839 57.7744 88.5627 57.4125C88.1554 56.8768 87.8427 56.5366 87.6246 56.3919C87.0865 56.0155 86.2938 55.8273 85.2467 55.8273C84.9413 55.8273 84.7813 55.8273 84.7668 55.8273C84.6213 55.8852 84.5195 56.0589 84.4614 56.3484C84.4323 56.4498 84.4177 56.5511 84.4177 56.6524C84.4177 57.1302 84.6577 57.521 85.1376 57.825C85.5594 58.0856 86.0612 58.2159 86.6429 58.2159C86.7592 58.2159 86.8974 58.1363 87.0574 57.977C87.2319 57.8178 87.3774 57.7382 87.4937 57.7382C87.7119 57.7382 87.8209 57.8974 87.8209 58.2159C87.8209 58.7226 87.7555 59.2075 87.6246 59.6708C87.4355 60.3222 87.1592 60.6479 86.7956 60.6479C86.5629 60.6479 86.3375 60.467 86.1193 60.1051C85.9157 59.7432 85.6103 59.5622 85.2031 59.5622C84.7377 59.5622 84.505 59.9458 84.505 60.7131C84.505 62.5226 85.5594 63.4274 87.6682 63.4274C87.7555 63.4274 87.8936 63.4057 88.0827 63.3623C88.2718 63.3188 88.4172 63.3116 88.519 63.3405C88.6208 63.355 88.7081 63.3623 88.7808 63.3623C89.1444 63.3623 89.4425 63.1885 89.6752 62.8411C89.9225 62.4937 90.1188 62.32 90.2642 62.32C90.4824 62.32 90.6715 62.4647 90.8314 62.7542C90.9914 63.0438 91.0714 63.3116 91.0714 63.5577C91.0714 63.7025 91.086 64.0788 91.115 64.6869C91.1587 65.2804 91.1805 65.7726 91.1805 66.1634C91.1805 67.9296 90.8169 69.0732 90.0897 69.5944C89.8134 69.7826 88.8899 69.8766 87.3192 69.8766C86.8829 69.8766 86.2866 69.8839 85.5303 69.8984C84.9049 69.9128 84.2941 69.9128 83.6978 69.8984L79.5965 69.8766C78.8548 69.8622 78.4839 69.5075 78.4839 68.8126C78.4839 68.5376 78.593 68.2915 78.8112 68.0743C79.1748 67.7124 79.3784 67.488 79.422 67.4012L79.8365 66.7497C80.0401 66.4168 80.1637 65.5916 80.2074 64.2743L80.3819 58.6719C80.411 58.1942 80.4182 57.7744 80.4037 57.4125Z" fill="white"/>
<path d="M98.0636 55.4799C97.8745 55.4799 97.7 55.5522 97.54 55.697C97.3946 55.8273 97.3364 55.9865 97.3655 56.1747L97.54 58.4113C97.5691 58.7877 97.7 58.9759 97.9327 58.9759C98.369 58.9759 98.718 58.766 98.9798 58.3462C99.2125 57.9698 99.3289 57.55 99.3289 57.0867C99.3289 56.0155 98.9071 55.4799 98.0636 55.4799ZM97.9981 62.2114C98.3036 64.267 98.6162 65.512 98.9362 65.9463C99.1253 66.149 99.3216 66.3661 99.5252 66.5977C99.7288 66.8294 99.8306 67.061 99.8306 67.2926C99.8306 68.4797 99.5325 69.2107 98.9362 69.4858C98.4708 69.7029 97.2273 69.8115 95.2058 69.8115C93.5478 69.8115 92.4425 69.6595 91.8898 69.3555C91.3517 69.037 91.1045 68.4001 91.1481 67.4446C91.1627 67.2275 91.3008 66.9886 91.5626 66.728C91.8826 66.4095 92.0716 66.1996 92.1298 66.0983C92.3334 65.693 92.5807 64.6434 92.8715 62.9497C93.1333 61.4297 93.3297 59.9893 93.4605 58.6285C93.4169 57.1519 93.2206 56.2688 92.8715 55.9793C92.7406 55.9069 92.5588 55.7983 92.3261 55.6536C92.1516 55.4799 92.0644 55.2338 92.0644 54.9153C92.0644 54.3217 92.4425 53.8802 93.1988 53.5907C93.8096 53.3446 94.5804 53.2288 95.5112 53.2432C95.8457 53.2577 96.1511 53.2722 96.4274 53.2867C97.7218 53.2288 98.5363 53.1998 98.8708 53.1998C100.078 53.1998 101.14 53.4387 102.056 53.9164C103.19 54.4955 103.757 55.3351 103.757 56.4353C103.757 57.8106 103.016 58.9035 101.532 59.7142C101.678 60.163 101.99 60.4959 102.47 60.7131C103.183 61.0316 103.547 61.1908 103.561 61.1908C104.157 61.683 104.601 62.1969 104.892 62.7325C105.154 63.2103 105.372 63.8545 105.546 64.6651C105.793 65.8667 106.164 66.8873 106.659 67.7269C106.688 67.7848 106.877 67.9947 107.226 68.3566C107.488 68.6317 107.619 68.8633 107.619 69.0515C107.619 69.1963 107.495 69.341 107.248 69.4858C107.073 69.5871 106.899 69.6957 106.724 69.8115C106.463 69.826 106.033 69.8839 105.437 69.9852C104.943 70.0721 104.521 70.1155 104.172 70.1155C102.659 70.1155 101.619 69.522 101.052 68.3349C100.776 67.7559 100.514 66.5326 100.267 64.6651C100.049 63.1017 99.6779 62.0883 99.1544 61.6251C98.9798 61.4803 98.7689 61.4369 98.5217 61.4948C98.1145 61.5961 97.94 61.835 97.9981 62.2114Z" fill="white"/>
<path d="M111.439 63.8617C112.443 63.8617 112.945 63.384 112.945 62.4285C112.945 62.1101 112.61 61.6685 111.941 61.1039C110.938 60.2354 110.334 59.6852 110.131 59.4536C109.462 58.7153 109.127 57.977 109.127 57.2387C109.127 55.9214 109.658 54.8791 110.72 54.1118C111.665 53.4314 112.821 53.0912 114.188 53.0912C114.625 53.0912 115.25 53.1709 116.064 53.3301C116.893 53.4893 117.533 53.569 117.984 53.569C118.769 53.569 119.162 54.4665 119.162 56.2616C119.162 57.2894 118.755 57.8033 117.94 57.8033C117.373 57.8033 116.828 57.3907 116.304 56.5656C115.795 55.7404 115.301 55.3279 114.821 55.3279C113.759 55.3279 113.228 55.7115 113.228 56.4787C113.228 56.9275 113.825 57.4342 115.017 57.9987C116.632 58.7515 117.73 59.3812 118.311 59.8879C119.504 60.9157 120.1 62.2331 120.1 63.84C120.1 65.5916 119.526 67.032 118.377 68.1612C117.242 69.2904 115.803 69.8549 114.057 69.8549C112.268 69.8549 110.814 69.4206 109.694 68.5521C108.458 67.6111 107.84 66.272 107.84 64.5349C107.84 63.6663 108.291 63.232 109.192 63.232C109.483 63.232 109.782 63.3405 110.087 63.5577C110.407 63.7604 110.858 63.8617 111.439 63.8617Z" fill="white"/>
<path d="M134.328 63.7531C134.328 65.5772 133.637 67.1044 132.256 68.3349C130.947 69.493 129.369 70.0721 127.522 70.0721C125.456 70.0721 123.799 69.2614 122.548 67.64C121.428 66.1634 120.868 64.3611 120.868 62.2331C120.868 59.8879 121.435 57.8395 122.57 56.0879C123.878 54.0612 125.646 53.0478 127.871 53.0478C130.023 53.0478 131.688 54.2783 132.866 56.7393C133.841 58.7515 134.328 61.0895 134.328 63.7531ZM129.55 60.9085C129.55 59.9531 129.34 58.8963 128.918 57.7382C128.394 56.2905 127.747 55.5667 126.976 55.5667C126.525 55.5667 126.176 55.8997 125.929 56.5656C125.74 57.0723 125.646 57.6151 125.646 58.1942C125.646 59.1786 125.806 60.0978 126.125 60.9519C126.562 62.0956 127.202 62.6674 128.045 62.6674C129.049 62.6674 129.55 62.0811 129.55 60.9085Z" fill="white"/>
<path d="M141.639 62.2331C141.639 62.595 141.77 63.2609 142.032 64.2308C142.308 65.1863 142.519 65.7653 142.664 65.968C142.824 66.1707 142.992 66.3734 143.166 66.576C143.384 66.8221 143.515 67.061 143.559 67.2926C143.602 67.5821 143.624 67.8427 143.624 68.0743C143.624 68.7113 143.392 69.1601 142.926 69.4206C142.548 69.6233 141.872 69.7464 140.897 69.7898C140.447 69.8477 139.465 69.8766 137.952 69.8766C137.371 69.8766 136.774 69.7608 136.163 69.5292C135.625 69.341 135.269 69.0732 135.094 68.7258C134.935 68.4797 134.855 68.1901 134.855 67.8572C134.855 67.7993 134.855 67.7414 134.855 67.6835C134.855 67.6111 134.855 67.5315 134.855 67.4446C134.855 67.2564 134.949 67.061 135.138 66.8583C135.298 66.6991 135.465 66.5326 135.64 66.3589C136.076 64.7086 136.389 63.1741 136.578 61.7554C136.738 60.6117 136.847 59.5694 136.905 58.6285C136.992 57.2532 136.796 56.3702 136.316 55.9793C136.185 55.9069 136.003 55.7983 135.771 55.6536C135.596 55.4799 135.509 55.2338 135.509 54.9153C135.509 54.3217 135.887 53.8802 136.643 53.5907C137.254 53.3446 138.025 53.2288 138.956 53.2432C140.541 53.2722 141.559 53.4966 142.01 53.9164C142.694 54.3652 143.312 55.4364 143.864 57.1302C144.475 58.9542 145.071 60.1485 145.653 60.7131C145.799 60.8434 145.959 60.8796 146.133 60.8216C146.308 60.6045 146.395 60.286 146.395 59.8662C146.395 59.707 146.373 59.4609 146.329 59.1279C146.329 59.099 146.329 59.0628 146.329 59.0193L146.308 58.9759C146.264 58.6285 146.213 58.2593 146.155 57.8685C145.908 57.0578 145.508 56.4281 144.955 55.9793C144.824 55.9069 144.642 55.7983 144.41 55.6536C144.25 55.4799 144.17 55.2338 144.17 54.9153C144.17 54.3217 144.548 53.8802 145.304 53.5907C145.915 53.3446 146.686 53.2288 147.617 53.2432C148.896 53.2577 149.805 53.4097 150.343 53.6993C150.78 53.9309 150.998 54.2855 150.998 54.7633C150.998 55.0528 150.932 55.2627 150.802 55.393C150.671 55.5233 150.532 55.6463 150.387 55.7621C150.242 55.878 150.125 56.0372 150.038 56.2399C149.863 56.5439 149.689 56.8551 149.514 57.1736C149.253 57.7092 149.122 58.31 149.122 58.9759C149.122 58.9469 149.122 59.041 149.122 59.2582C149.151 60.0544 149.376 61.2559 149.798 62.8628C150.191 64.3973 150.387 65.5916 150.387 66.4457C150.387 67.5749 150.293 68.3566 150.103 68.7909C149.798 69.4713 149.165 69.8115 148.206 69.8115C147.144 69.8115 146.184 69.1239 145.326 67.7486C145.108 67.3867 144.511 66.1128 143.537 63.9268C142.926 62.5516 142.374 61.8639 141.879 61.8639C141.719 61.8639 141.639 61.987 141.639 62.2331Z" fill="white"/>
</svg>
