<svg width="141" height="121" viewBox="0 0 141 121" fill="none" xmlns="http://www.w3.org/2000/svg">
<path d="M136.346 65.5723L124.011 70.1976H100.344L106.05 42.0234L136.346 65.5723Z" fill="#FDAB96"/>
<path d="M124.601 66.0085V120.003H98.9922C99.377 107.199 99.3495 93.4151 99.8069 80.7831C99.9129 77.876 100.044 75.029 100.212 72.2705C101.194 56.08 103.452 42.8882 109.184 37.9453L124.601 66.0085Z" fill="#FDAB96"/>
<path d="M107.408 43.4781C107.082 42.4978 107.377 41.4158 107.688 40.4244C108.597 37.5407 109.721 35.107 111.713 32.9419C113.438 31.0731 115.921 30.3127 117.933 28.794C118.334 28.4886 118.737 28.1711 119.21 28.0204C119.582 27.9003 119.975 27.8942 120.363 27.8759C124.554 27.6784 128.732 25.495 132.779 24.4232C133.553 24.2196 134.406 24.1178 135.118 24.5026C135.903 24.9342 136.352 25.9185 136.359 26.8753C136.367 27.8321 135.992 28.7513 135.482 29.532C133.519 32.5276 129.406 33.7949 126.451 35.281C125.862 35.5772 125.261 35.8704 124.761 36.3193C124.26 36.7681 123.877 37.3656 123.506 37.957C122.37 39.7892 121.31 41.6957 119.905 43.2928C118.176 45.2573 115.594 46.8279 113.033 46.6172C111.082 46.4625 108.164 45.751 107.408 43.4781Z" fill="#FDAB96"/>
<path d="M130.784 33.4688C130.588 33.5125 119.103 33.4993 111.034 33.485C106.745 33.4779 103.266 37.6044 103.266 42.6969V56.3641C103.266 61.4535 106.739 65.576 111.02 65.576H132.327V33.5899L130.784 33.4688Z" fill="#FDAB96"/>
<path d="M4.65625 65.5723L16.9912 70.1976H40.659L34.9528 42.0234L4.65625 65.5723Z" fill="#FDAB96"/>
<path d="M42.0107 120.003H16.3984V66.0085L31.8176 37.9453C37.5493 42.8851 39.8021 56.0637 40.7886 72.2481C40.9634 75.0982 41.0969 78.0419 41.2048 81.0508C41.6505 93.6075 41.6279 107.288 42.0107 120.003Z" fill="#FDAB96"/>
<path d="M41.2053 81.0371C35.1065 78.6837 22.6694 73.8671 20.6797 72.9683L40.7891 72.2344C40.9638 75.0855 41.0973 78.0282 41.2053 81.0371Z" fill="#231F20"/>
<path d="M119.544 72.9741C117.625 73.8403 105.997 78.3465 99.7031 80.7782C99.8091 77.8711 99.9407 75.0241 100.109 72.2656L119.544 72.9741Z" fill="#231F20"/>
<path d="M33.5896 43.4781C33.9155 42.4978 33.62 41.4158 33.3089 40.4244C32.3999 37.5407 31.275 35.107 29.2783 32.9419C27.5546 31.0731 25.0711 30.3127 23.0588 28.794C22.6583 28.4886 22.2549 28.1711 21.7827 28.0204C21.4107 27.9003 21.0171 27.8942 20.6293 27.8759C16.4378 27.6784 12.2601 25.495 8.21288 24.4232C7.43937 24.2196 6.58635 24.1178 5.87468 24.5026C5.08939 24.9342 4.64079 25.9185 4.63293 26.8753C4.62508 27.8321 5.00005 28.7513 5.51049 29.532C7.47372 32.5276 11.5867 33.7949 14.5414 35.281C15.1303 35.5772 15.7321 35.8704 16.2327 36.3193C16.7333 36.7681 17.121 37.3656 17.4872 37.957C18.6229 39.7892 19.6821 41.6957 21.0887 43.2928C22.8174 45.2573 25.399 46.8279 27.96 46.6172C29.9154 46.4625 32.8328 45.751 33.5896 43.4781Z" fill="#FDAB96"/>
<path d="M6.20131 33.4688C6.39763 33.5125 17.8825 33.4993 25.9514 33.485C30.2401 33.4779 33.7189 37.6044 33.7189 42.6969V56.3641C33.7189 61.4535 30.247 65.576 25.9642 65.576H4.65625V33.5899L6.20131 33.4688Z" fill="#FDAB96"/>
<path d="M132.324 0H12.4688V75.2219H132.324V0Z" fill="#FE5122"/>
<path d="M16.3263 65.5992C13.2057 65.5992 10.0822 65.5564 6.96168 65.5992C5.12115 65.6246 3.69389 65.7682 2.50319 63.9706C1.54906 62.5252 1.09751 60.3337 1.62857 58.6226C1.76503 58.1726 1.96339 57.7455 2.21754 57.3543C1.33408 56.0789 0.274918 54.5164 0.0579815 52.9346C-0.158955 51.3528 0.227795 49.6194 1.30365 48.5251C0.305343 47.722 0.053073 46.3143 0.241543 44.9829C0.430013 43.6515 1.07591 42.4504 1.77188 41.3348C1.25751 40.4278 0.650872 39.4395 0.629276 38.3758C0.601791 37.021 1.36353 35.7506 2.37656 34.9547C3.38958 34.1587 4.62641 33.7739 5.8554 33.5205C6.14006 33.4614 5.9408 33.5266 6.23136 33.5266H13.833C17.2156 33.5266 25.3473 32.3316 26.4124 37.4739C26.595 38.3564 26.3142 39.3061 25.7714 39.9973C25.2286 40.6884 24.458 41.1292 23.6501 41.3562C28.9999 43.2046 27.6316 48.7481 23.6992 49.601C28.2853 51.5534 26.2514 56.939 22.0305 56.8555C23.4263 57.2627 24.1998 59.4003 23.9613 60.9454C23.7228 62.4906 22.6283 63.7619 21.3433 64.4815C20.0584 65.2012 17.7742 65.5992 16.3263 65.5992Z" fill="#FDAB96"/>
<path d="M6.96066 65.9045C6.88256 65.9045 6.80765 65.8724 6.75243 65.8151C6.6972 65.7578 6.66618 65.6802 6.66618 65.5992C6.66618 65.5182 6.6972 65.4405 6.75243 65.3833C6.80765 65.326 6.88256 65.2938 6.96066 65.2938C9.04365 65.2653 11.161 65.2755 13.2086 65.2847C14.2315 65.2847 15.2897 65.2938 16.3292 65.2938C17.7702 65.2938 19.9896 64.8867 21.2068 64.2037C22.5467 63.4525 23.4646 62.2137 23.6736 60.8884C23.8916 59.4817 23.173 57.4968 21.9548 57.1405C21.8857 57.1206 21.8259 57.0752 21.7867 57.0128C21.7476 56.9504 21.7318 56.8753 21.7423 56.8017C21.7527 56.728 21.7888 56.6609 21.8437 56.6129C21.8986 56.5649 21.9685 56.5393 22.0402 56.541C24.2155 56.5827 25.6585 55.1037 25.9549 53.6186C26.271 52.0389 25.3866 50.6393 23.5892 49.8748C23.5306 49.8502 23.4812 49.8066 23.4483 49.7506C23.4154 49.6945 23.4008 49.629 23.4067 49.5637C23.4125 49.4984 23.4385 49.4367 23.4807 49.3879C23.523 49.3391 23.5793 49.3057 23.6413 49.2926C25.4474 48.9028 26.7824 47.4166 26.8747 45.6781C26.9729 43.9019 25.735 42.3924 23.5588 41.6401C23.4988 41.6194 23.4469 41.5792 23.4107 41.5255C23.3745 41.4718 23.3559 41.4075 23.3576 41.342C23.3594 41.2765 23.3814 41.2133 23.4205 41.1618C23.4595 41.1102 23.5135 41.0731 23.5745 41.0559C24.1507 40.894 24.9605 40.5469 25.5446 39.7988C26.057 39.1463 26.2798 38.278 26.1257 37.533C25.2639 33.3698 19.4095 33.6141 15.536 33.7759C14.9098 33.8014 14.3198 33.8268 13.8349 33.8268H6.23328C6.15134 33.8299 6.06939 33.821 5.98984 33.8004C5.97316 33.8004 5.9496 33.8075 5.91524 33.8146C5.83857 33.8305 5.75894 33.8142 5.69386 33.7693C5.62878 33.7243 5.58361 33.6544 5.56825 33.5749C5.55289 33.4954 5.56861 33.4128 5.61196 33.3453C5.65531 33.2779 5.72274 33.231 5.79941 33.2151C5.95549 33.1835 6.04383 33.1683 6.15279 33.2151C6.16359 33.2151 6.18813 33.2151 6.23328 33.2151H13.8349C14.3081 33.2151 14.8656 33.1917 15.5115 33.1642C17.4983 33.0817 19.97 32.9789 22.1325 33.4543C24.7407 34.0284 26.2779 35.3567 26.7019 37.4037C26.8982 38.3391 26.6342 39.3784 26.002 40.1835C25.5944 40.6925 25.0777 41.0958 24.4933 41.3612C26.4703 42.2773 27.5667 43.8652 27.4627 45.7127C27.3645 47.4716 26.1866 49.0046 24.5178 49.6611C26.3701 50.7482 26.7932 52.4338 26.5321 53.7418C26.2376 55.234 24.9615 56.7222 23.016 57.0744C23.9809 57.9548 24.4638 59.6364 24.2557 60.9841C24.0211 62.4956 22.9865 63.8993 21.4876 64.7401C20.1388 65.4954 17.8232 65.9035 16.3292 65.9035C15.2877 65.9035 14.2295 65.9035 13.2067 65.8944C11.161 65.8852 9.04561 65.875 6.96851 65.9035L6.96066 65.9045Z" fill="#231F20"/>
<path d="M23.6488 41.6552H23.642L7.83795 41.2826C7.75985 41.2817 7.68531 41.2486 7.63073 41.1907C7.57614 41.1327 7.54598 41.0547 7.5469 40.9737C7.54781 40.8927 7.57971 40.8154 7.63558 40.7588C7.69145 40.7022 7.76672 40.671 7.84482 40.6719H7.85168L23.6557 41.0455C23.7338 41.0464 23.8083 41.0795 23.8629 41.1374C23.9175 41.1954 23.9477 41.2734 23.9467 41.3544C23.9458 41.4354 23.9139 41.5127 23.8581 41.5693C23.8022 41.6259 23.7269 41.6571 23.6488 41.6562V41.6552Z" fill="#231F20"/>
<path d="M23.7042 49.8909H23.6924L8.93778 49.2048C8.85968 49.2011 8.78618 49.1655 8.73344 49.1056C8.6807 49.0458 8.65303 48.9667 8.65655 48.8857C8.66006 48.8047 8.69447 48.7285 8.75218 48.6738C8.80989 48.6191 8.88618 48.5904 8.96429 48.5941L23.719 49.2801C23.7971 49.2819 23.8713 49.3157 23.9253 49.3742C23.9793 49.4327 24.0087 49.5111 24.0071 49.5921C24.0054 49.6731 23.9727 49.7501 23.9163 49.8061C23.8599 49.8621 23.7843 49.8926 23.7062 49.8909H23.7042Z" fill="#231F20"/>
<path d="M8.12261 57.4104C8.04451 57.4104 7.9696 57.3782 7.91438 57.3209C7.85915 57.2637 7.82812 57.186 7.82812 57.105C7.82812 57.024 7.85915 56.9464 7.91438 56.8891C7.9696 56.8318 8.04451 56.7996 8.12261 56.7996L22.0331 56.5391H22.038C22.1161 56.5391 22.191 56.5712 22.2462 56.6285C22.3014 56.6858 22.3325 56.7634 22.3325 56.8444C22.3325 56.9254 22.3014 57.0031 22.2462 57.0604C22.191 57.1176 22.1161 57.1498 22.038 57.1498L8.12849 57.4104H8.12261Z" fill="#231F20"/>
<path d="M22.0258 35.1953C22.7306 35.2513 23.4481 35.3622 24.0734 35.7195C24.6987 36.0768 25.219 36.7242 25.2916 37.4856C25.3711 38.31 24.9049 39.1142 24.2658 39.5732C23.6268 40.0323 22.8435 40.184 22.0788 40.2288C21.9541 38.9422 22.0111 36.0992 22.0258 35.1953Z" fill="#FE5122"/>
<path d="M22.0258 50.7031C22.7306 50.7591 23.4481 50.8701 24.0725 51.2273C24.6968 51.5846 25.218 52.232 25.2916 52.9934C25.3711 53.8179 24.9039 54.622 24.2658 55.0811C23.6278 55.5401 22.8435 55.6918 22.0788 55.7366C21.9541 54.45 22.0111 51.607 22.0258 50.7031Z" fill="#FE5122"/>
<path d="M19.7356 58.2656C20.4394 58.3206 21.158 58.4326 21.7823 58.7898C22.4066 59.1471 22.9278 59.7945 23.0014 60.5559C23.0809 61.3804 22.6088 62.1845 21.9757 62.6436C21.3425 63.1026 20.5533 63.2543 19.7886 63.2991C19.6669 62.0125 19.7209 59.1736 19.7356 58.2656Z" fill="#FE5122"/>
<path d="M22.7904 43.1172C23.4687 43.1711 24.1647 43.278 24.7635 43.6261C25.3622 43.9742 25.8668 44.5941 25.9414 45.328C26.018 46.123 25.5684 46.8997 24.9529 47.3404C24.3374 47.7811 23.5786 47.9318 22.8454 47.9715C22.7207 46.7276 22.7757 43.9875 22.7904 43.1172Z" fill="#FE5122"/>
<path d="M124.674 65.5992C127.795 65.5992 130.918 65.5564 134.039 65.5992C135.879 65.6246 137.307 65.7682 138.497 63.9706C139.451 62.5252 139.903 60.3337 139.372 58.6226C139.235 58.1728 139.037 57.7457 138.783 57.3543C139.671 56.0789 140.725 54.5164 140.942 52.9346C141.159 51.3528 140.774 49.6194 139.698 48.5251C140.696 47.722 140.948 46.3143 140.76 44.9829C140.571 43.6515 139.925 42.4504 139.23 41.3348C139.744 40.4278 140.35 39.4395 140.372 38.3758C140.4 37.021 139.638 35.7506 138.625 34.9547C137.612 34.1587 136.375 33.7739 135.146 33.5205C134.86 33.4614 135.06 33.5266 134.77 33.5266H127.168C123.785 33.5266 115.654 32.3316 114.589 37.4739C114.406 38.3564 114.687 39.3061 115.23 39.9973C115.773 40.6884 116.543 41.1292 117.351 41.3562C112 43.2046 113.37 48.7481 117.302 49.601C112.716 51.5534 114.75 56.939 118.971 56.8555C117.574 57.2627 116.802 59.4003 117.04 60.9454C117.279 62.4906 118.373 63.7619 119.658 64.4815C120.943 65.2012 123.224 65.5992 124.674 65.5992Z" fill="#FDAB96"/>
<path d="M134.04 65.9035C131.962 65.875 129.847 65.8852 127.802 65.8944C126.779 65.8944 125.721 65.9035 124.679 65.9035C123.185 65.9035 120.87 65.4964 119.521 64.7401C118.022 63.8993 116.986 62.5007 116.753 60.9841C116.545 59.6364 117.028 57.9548 117.992 57.0744C116.047 56.7222 114.775 55.234 114.476 53.7418C114.215 52.4338 114.638 50.7482 116.491 49.6611C114.822 49.0046 113.644 47.4716 113.546 45.7127C113.442 43.8652 114.538 42.2814 116.515 41.3612C115.931 41.0958 115.414 40.6925 115.007 40.1835C114.374 39.3784 114.113 38.3391 114.307 37.4037C114.731 35.3567 116.27 34.0284 118.876 33.4543C121.036 32.9789 123.51 33.0817 125.496 33.1642C126.143 33.1917 126.7 33.2151 127.174 33.2151H134.775C134.821 33.2151 134.845 33.2151 134.856 33.2151C134.97 33.1767 135.094 33.1767 135.208 33.2151C135.246 33.2229 135.282 33.2384 135.314 33.2607C135.347 33.283 135.374 33.3116 135.396 33.345C135.417 33.3783 135.432 33.4158 135.44 33.4551C135.447 33.4945 135.447 33.535 135.44 33.5744C135.432 33.6138 135.417 33.6512 135.396 33.6846C135.374 33.718 135.347 33.7466 135.315 33.7689C135.282 33.7912 135.246 33.8067 135.208 33.8146C135.17 33.8224 135.131 33.8224 135.093 33.8146L135.019 33.8004C134.939 33.8209 134.857 33.8298 134.775 33.8268H127.174C126.689 33.8268 126.094 33.8014 125.472 33.7759C121.599 33.6141 115.745 33.3688 114.883 37.533C114.729 38.278 114.951 39.1463 115.463 39.7988C116.052 40.5449 116.858 40.894 117.434 41.0559C117.495 41.0731 117.549 41.1102 117.588 41.1618C117.627 41.2133 117.649 41.2765 117.651 41.342C117.653 41.4075 117.634 41.4718 117.598 41.5255C117.562 41.5792 117.51 41.6194 117.45 41.6401C115.273 42.3923 114.034 43.9019 114.134 45.6781C114.232 47.4166 115.561 48.9028 117.367 49.2926C117.429 49.3057 117.486 49.3391 117.528 49.3879C117.57 49.4367 117.596 49.4984 117.602 49.5637C117.608 49.629 117.593 49.6945 117.56 49.7506C117.527 49.8066 117.478 49.8502 117.419 49.8748C115.622 50.6393 114.738 52.0389 115.053 53.6186C115.347 55.1037 116.791 56.5827 118.968 56.541H118.974C119.045 56.5409 119.114 56.5675 119.168 56.616C119.222 56.6645 119.257 56.7316 119.266 56.8048C119.276 56.8779 119.26 56.9523 119.221 57.014C119.182 57.0758 119.122 57.1207 119.054 57.1405C117.836 57.4968 117.117 59.4817 117.334 60.8884C117.539 62.2117 118.462 63.4525 119.801 64.2037C121.019 64.8867 123.236 65.2938 124.679 65.2938C125.719 65.2938 126.777 65.2938 127.799 65.2847C129.848 65.2755 131.965 65.2653 134.048 65.2938C134.126 65.2938 134.201 65.326 134.256 65.3833C134.311 65.4405 134.342 65.5182 134.342 65.5992C134.342 65.6802 134.311 65.7578 134.256 65.8151C134.201 65.8724 134.126 65.9045 134.048 65.9045L134.04 65.9035Z" fill="#231F20"/>
<path d="M117.353 41.6562C117.275 41.6571 117.199 41.6259 117.143 41.5693C117.088 41.5127 117.056 41.4354 117.055 41.3544C117.054 41.2734 117.084 41.1954 117.139 41.1374C117.193 41.0795 117.268 41.0464 117.346 41.0455L133.15 40.6719H133.157C133.235 40.671 133.31 40.7022 133.366 40.7588C133.422 40.8154 133.454 40.8927 133.455 40.9737C133.455 41.0547 133.425 41.1327 133.371 41.1907C133.316 41.2486 133.242 41.2817 133.164 41.2826L117.359 41.6552L117.353 41.6562Z" fill="#231F20"/>
<path d="M117.301 49.8908C117.223 49.8926 117.147 49.8621 117.091 49.8061C117.034 49.75 117.002 49.6731 117 49.5921C116.998 49.5111 117.028 49.4327 117.082 49.3742C117.136 49.3157 117.21 49.2819 117.288 49.2801L132.043 48.594C132.121 48.5905 132.197 48.6193 132.255 48.6741C132.312 48.7289 132.347 48.8052 132.35 48.8862C132.353 48.9672 132.326 49.0462 132.273 49.106C132.22 49.1657 132.146 49.2013 132.068 49.2048L117.315 49.8908H117.301Z" fill="#231F20"/>
<path d="M132.879 57.4104H132.873L118.964 57.1498C118.886 57.1491 118.811 57.1163 118.756 57.0586C118.702 57.0008 118.671 56.9229 118.672 56.8419C118.673 56.7609 118.704 56.6835 118.76 56.6267C118.816 56.5699 118.891 56.5384 118.969 56.5391L132.879 56.7997C132.957 56.7997 133.032 56.8318 133.088 56.8891C133.143 56.9464 133.174 57.024 133.174 57.105C133.174 57.186 133.143 57.2637 133.088 57.321C133.032 57.3782 132.957 57.4104 132.879 57.4104Z" fill="#231F20"/>
<path d="M118.978 35.1875C118.273 35.2435 117.555 35.3544 116.93 35.7117C116.305 36.069 115.785 36.7164 115.712 37.4777C115.632 38.3022 116.099 39.1064 116.738 39.5654C117.377 40.0245 118.16 40.1762 118.925 40.221C119.049 38.9344 118.993 36.0914 118.978 35.1875Z" fill="#FE5122"/>
<path d="M118.978 50.7031C118.273 50.7591 117.555 50.8701 116.93 51.2273C116.305 51.5846 115.785 52.232 115.712 52.9934C115.632 53.8179 116.099 54.622 116.738 55.0811C117.377 55.5401 118.16 55.6918 118.925 55.7366C119.049 54.45 118.993 51.607 118.978 50.7031Z" fill="#FE5122"/>
<path d="M121.275 58.2578C120.57 58.3128 119.852 58.4247 119.228 58.782C118.604 59.1393 118.082 59.7867 118.009 60.5481C117.929 61.3725 118.396 62.1767 119.035 62.6357C119.674 63.0948 120.457 63.2465 121.222 63.2913C121.346 62.0047 121.289 59.1658 121.275 58.2578Z" fill="#FE5122"/>
<path d="M118.214 43.1172C117.535 43.1711 116.84 43.278 116.241 43.6261C115.642 43.9742 115.138 44.5941 115.063 45.328C114.987 46.123 115.436 46.8997 116.052 47.3404C116.667 47.7811 117.426 47.9318 118.159 47.9715C118.284 46.7276 118.229 43.9875 118.214 43.1172Z" fill="#FE5122"/>
<path d="M35.3367 15.0165C35.7293 17.7037 36.0762 19.2577 36.3772 19.6784C36.5474 19.8685 36.724 20.072 36.9073 20.2892C37.0905 20.5063 37.1821 20.7235 37.1821 20.9406C37.1821 22.0535 36.9073 22.7389 36.3576 22.9968C35.9518 23.2003 34.8393 23.3021 33.0201 23.3021C31.5542 23.3021 30.5791 23.1528 30.0949 22.8543C29.6106 22.5421 29.3685 21.9517 29.3685 21.0831C29.3685 20.8796 29.4863 20.6556 29.7219 20.4113C30.0229 20.1127 30.1996 19.916 30.2519 19.821C30.4221 19.4681 30.6184 18.6266 30.8409 17.2966C31.0372 16.1566 31.1616 15.2812 31.2139 14.6704C31.2139 14.6162 31.1157 14.4397 30.9194 14.1411C30.6707 13.7747 30.481 13.4083 30.3501 13.0418C30.1145 12.5939 29.8331 12.0307 29.5059 11.3521C29.375 11.1757 29.1852 10.9925 28.9366 10.8025C28.5177 10.4903 28.3083 10.3342 28.3083 10.3342C28.1905 10.2664 28.0269 10.1646 27.8175 10.0289C27.6735 9.86601 27.6016 9.63528 27.6016 9.3367C27.6016 8.78026 27.9419 8.36632 28.6224 8.09488C29.1721 7.86416 29.8658 7.75559 30.7035 7.76916C31.8552 7.78273 32.6732 7.92523 33.1575 8.19667C33.5502 8.41382 33.7465 8.74633 33.7465 9.1942C33.7465 9.46564 33.6876 9.66243 33.5698 9.78457C33.452 9.90672 33.3277 10.0221 33.1968 10.1307C33.0659 10.2392 32.9612 10.3817 32.8827 10.5582C32.8172 10.7346 32.8041 10.9246 32.8434 11.1282C33.0004 11.9696 33.3473 12.3904 33.8839 12.3904C34.0802 12.3904 34.3224 12.1461 34.6103 11.6575C34.6757 11.4132 34.787 11.1282 34.944 10.8025C35.0618 10.5582 35.1207 10.3953 35.1207 10.3139C35.1207 10.2732 35.0946 10.2392 35.0422 10.2121C35.0029 10.1849 34.9179 10.1239 34.787 10.0289C34.6299 9.86601 34.5514 9.63528 34.5514 9.3367C34.5514 8.29167 35.5854 7.76916 37.6533 7.76916C39.2501 7.76916 40.0484 8.18988 40.0484 9.03134C40.0484 9.30278 39.983 9.49957 39.8521 9.62171C39.7343 9.74386 39.6165 9.85243 39.4987 9.94744C39.394 10.0424 39.1846 10.1578 38.8705 10.2935C38.3862 10.4835 38.0787 10.626 37.9478 10.721C37.83 10.816 37.6664 11.0128 37.457 11.3114C36.6979 12.1664 36.2267 12.7229 36.0435 12.9807C35.5723 13.6186 35.3367 14.1819 35.3367 14.6704C35.3367 14.7654 35.3367 14.8808 35.3367 15.0165Z" fill="white"/>
<path d="M52.5254 17.6223C52.5254 19.3324 51.9037 20.7642 50.6603 21.9178C49.4824 23.0035 48.0623 23.5464 46.4001 23.5464C44.5416 23.5464 43.0495 22.7864 41.9239 21.2664C40.9162 19.882 40.4123 18.1923 40.4123 16.1973C40.4123 13.9986 40.9227 12.0782 41.9436 10.436C43.1215 8.53597 44.7117 7.58594 46.7142 7.58594C48.6513 7.58594 50.1499 8.73954 51.21 11.0468C52.0869 12.9332 52.5254 15.1251 52.5254 17.6223ZM48.2259 14.9554C48.2259 14.0597 48.0361 13.069 47.6566 11.9832C47.1854 10.626 46.603 9.94744 45.9093 9.94744C45.5036 9.94744 45.1895 10.2596 44.967 10.8839C44.7968 11.3589 44.7117 11.8679 44.7117 12.4107C44.7117 13.3336 44.8557 14.1954 45.1436 14.9962C45.5363 16.0683 46.1122 16.6044 46.8713 16.6044C47.7744 16.6044 48.2259 16.0548 48.2259 14.9554Z" fill="white"/>
<path d="M65.6227 13.5508C65.6227 14.0122 65.6293 14.7044 65.6424 15.6273C65.6686 16.5366 65.6816 17.2219 65.6816 17.6834C65.6816 18.9999 65.1254 20.2552 64.0129 21.4496C62.9004 22.6303 61.7028 23.2207 60.4202 23.2207C58.1036 23.2207 56.4741 22.766 55.5317 21.8567C54.5501 20.9203 54.0593 19.2849 54.0593 16.9505C54.0593 16.5026 54.079 15.8308 54.1182 14.9351C54.1706 14.0393 54.1967 13.3675 54.1967 12.9197C54.1967 11.9289 54.092 11.2028 53.8826 10.7414C53.7779 10.5242 53.5751 10.2935 53.274 10.0492C53.0515 9.87279 52.9403 9.63528 52.9403 9.3367C52.9403 8.75312 53.3133 8.3256 54.0593 8.05417C54.5698 7.86416 55.1784 7.76916 55.8851 7.76916C58.0316 7.76916 59.1048 8.24417 59.1048 9.1942C59.1048 9.49278 58.9936 9.74386 58.7711 9.94744C58.47 10.2189 58.2868 10.4292 58.2214 10.5785C57.9989 11.1214 57.8876 12.0307 57.8876 13.3065L57.868 13.2658C57.8811 14.5144 57.9989 15.3558 58.2214 15.7901C58.5617 16.4144 59.2881 16.7266 60.4006 16.7266C61.3429 16.7266 61.9777 16.523 62.3049 16.1158C62.6452 15.7087 62.8153 15.0029 62.8153 13.9986C62.8153 12.9672 62.7761 12.1596 62.6975 11.5761C62.6059 10.8703 62.3769 10.4021 62.0104 10.1714C61.6832 9.98137 61.5196 9.70314 61.5196 9.3367C61.5196 8.29167 62.5536 7.76916 64.6215 7.76916C65.1581 7.76916 65.6293 7.85737 66.035 8.03381C66.5716 8.2781 66.84 8.64454 66.84 9.13313C66.84 9.43171 66.7287 9.68279 66.5062 9.88636C66.2183 10.1442 66.0416 10.3478 65.9761 10.4971C65.7405 11.0943 65.6227 12.1121 65.6227 13.5508Z" fill="white"/>
<path d="M87.7484 21.2256C87.696 22.0128 87.1463 22.5692 86.0992 22.895C85.4187 23.1257 84.5876 23.2411 83.6059 23.2411C82.6243 23.2411 81.9176 23.1528 81.4857 22.9764C80.7658 22.6914 80.4059 22.1349 80.4059 21.3071C80.4059 20.9949 80.4517 20.642 80.5433 20.2485C81.1323 19.6377 81.4268 18.7013 81.4268 17.4391C81.4268 17.0048 81.1388 16.6723 80.5629 16.4416C80.131 16.2651 79.6598 16.1769 79.1494 16.1769C79.1494 16.1769 78.9662 16.2108 78.5997 16.2787C78.1154 16.5773 77.8733 17.1473 77.8733 17.9888C77.8733 18.5995 77.9976 19.1288 78.2463 19.5767C78.351 19.7395 78.5932 20.0313 78.9727 20.452C79.2214 20.737 79.3457 21.0017 79.3457 21.246C79.3457 22.1825 78.8746 22.7864 77.9322 23.0578C77.4741 23.1936 76.643 23.2614 75.4389 23.2614C73.6327 23.2614 72.7296 22.7932 72.7296 21.8567C72.7166 21.0288 73.0634 20.357 73.7702 19.8413C74.5947 19.2306 75.3211 17.9209 75.9493 15.9123C76.486 14.1615 76.7543 12.6347 76.7543 11.3318C76.7543 10.8296 76.6692 10.4089 76.499 10.0696C76.4074 9.87958 76.2569 9.68279 76.0475 9.47921C75.8774 9.31635 75.7923 9.1942 75.7923 9.11277C75.7923 8.6649 76.4925 8.2781 77.8929 7.95238C79.084 7.68094 79.9543 7.57237 80.504 7.62665C81.4333 7.72166 82.1401 8.01345 82.6243 8.50204C82.8468 8.73276 83.174 9.26206 83.6059 10.0899C83.7368 10.3614 83.9004 10.8907 84.0967 11.6778C84.8559 14.8129 85.6215 17.1744 86.3937 18.7623C86.4984 18.9931 86.6948 19.2306 86.9827 19.4749C87.2706 19.7056 87.4604 19.8956 87.552 20.0449C87.7091 20.3299 87.7745 20.7235 87.7484 21.2256ZM80.7985 13.4083C80.7985 13.2997 80.6807 12.94 80.4451 12.3293C80.2226 11.7728 79.9282 11.4946 79.5617 11.4946C79.3392 11.4946 79.1036 11.7864 78.8549 12.37C78.6455 12.8722 78.5408 13.259 78.5408 13.5304C78.5408 13.6525 78.711 13.7136 79.0512 13.7136C79.1298 13.7136 79.2607 13.7068 79.4439 13.6933C79.6271 13.6661 79.758 13.6525 79.8365 13.6525C80.0983 13.6525 80.2619 13.6729 80.3273 13.7136C80.6415 13.6865 80.7985 13.5847 80.7985 13.4083Z" fill="white"/>
<path d="M93.952 9.86601C93.7819 9.86601 93.6248 9.93387 93.4808 10.0696C93.35 10.1917 93.2976 10.341 93.3238 10.5175L93.4808 12.6143C93.507 12.9672 93.6248 13.1436 93.8342 13.1436C94.2269 13.1436 94.541 12.9468 94.7766 12.5532C94.986 12.2004 95.0907 11.8068 95.0907 11.3725C95.0907 10.3682 94.7111 9.86601 93.952 9.86601ZM93.8931 16.1769C94.168 18.1041 94.4494 19.2713 94.7373 19.6784C94.9074 19.8685 95.0841 20.072 95.2674 20.2892C95.4506 20.5063 95.5422 20.7235 95.5422 20.9406C95.5422 22.0535 95.2739 22.7389 94.7373 22.9968C94.3185 23.2003 93.1994 23.3021 91.3802 23.3021C89.8881 23.3021 88.8934 23.1596 88.3961 22.8746C87.9118 22.576 87.6893 21.9789 87.7286 21.0831C87.7417 20.8796 87.866 20.6556 88.1016 20.4113C88.3895 20.1127 88.5597 19.916 88.612 19.821C88.7953 19.4409 89.0178 18.457 89.2795 16.8691C89.5151 15.444 89.6918 14.0936 89.8096 12.8179C89.7703 11.4336 89.5936 10.6057 89.2795 10.3342C89.1617 10.2664 88.9981 10.1646 88.7887 10.0289C88.6317 9.86601 88.5531 9.63528 88.5531 9.3367C88.5531 8.78026 88.8934 8.36632 89.574 8.09488C90.1237 7.86416 90.8174 7.75559 91.655 7.76916C91.9561 7.78273 92.2309 7.7963 92.4796 7.80987C93.6444 7.75558 94.3774 7.72844 94.6784 7.72844C95.7647 7.72844 96.7202 7.95238 97.5447 8.40025C98.5656 8.94312 99.076 9.73029 99.076 10.7617C99.076 12.0511 98.4086 13.0757 97.0736 13.8358C97.2044 14.2565 97.4858 14.5686 97.9177 14.7722C98.5591 15.0708 98.8863 15.2201 98.8994 15.2201C99.436 15.6815 99.8352 16.1633 100.097 16.6655C100.333 17.1134 100.529 17.7173 100.686 18.4773C100.908 19.6038 101.242 20.5606 101.687 21.3478C101.713 21.4021 101.883 21.5989 102.198 21.9382C102.433 22.196 102.551 22.4132 102.551 22.5896C102.551 22.7253 102.44 22.861 102.217 22.9968C102.06 23.0918 101.903 23.1936 101.746 23.3021C101.51 23.3157 101.124 23.37 100.588 23.465C100.143 23.5464 99.7632 23.5871 99.4491 23.5871C98.0879 23.5871 97.1521 23.0307 96.6416 21.9178C96.393 21.3749 96.1574 20.2281 95.9349 18.4773C95.7386 17.0116 95.4048 16.0616 94.9336 15.6273C94.7766 15.4915 94.5868 15.4508 94.3643 15.5051C93.9978 15.6001 93.8408 15.824 93.8931 16.1769Z" fill="white"/>
<path d="M104.517 11.6778C104.438 10.9721 104.281 10.5242 104.046 10.3342C103.928 10.2664 103.764 10.1646 103.555 10.0289C103.398 9.86601 103.319 9.63528 103.319 9.3367C103.319 8.78026 103.66 8.36632 104.34 8.09488C104.903 7.86416 105.597 7.75559 106.421 7.76916C106.578 7.76916 106.814 7.78273 107.128 7.80987C107.455 7.83702 107.704 7.85059 107.874 7.85059C108.319 7.85059 109.045 7.81666 110.053 7.7488C111.061 7.68094 111.774 7.64701 112.193 7.64701C112.756 7.64701 113.194 8.01345 113.509 8.74633C113.744 9.31635 113.862 9.93387 113.862 10.5989C113.862 11.0196 113.783 11.3725 113.626 11.6575C113.417 12.0104 113.129 12.1868 112.763 12.1868C112.409 12.1868 112.108 12.0171 111.859 11.6778C111.493 11.1757 111.212 10.8568 111.015 10.721C110.531 10.3682 109.818 10.1917 108.875 10.1917C108.6 10.1917 108.457 10.1917 108.443 10.1917C108.313 10.246 108.221 10.4089 108.169 10.6803C108.142 10.7753 108.129 10.8703 108.129 10.9653C108.129 11.4132 108.345 11.7796 108.777 12.0646C109.157 12.3089 109.608 12.4311 110.132 12.4311C110.237 12.4311 110.361 12.3564 110.505 12.2071C110.662 12.0579 110.793 11.9832 110.897 11.9832C111.094 11.9832 111.192 12.1325 111.192 12.4311C111.192 12.9061 111.133 13.3608 111.015 13.7951C110.845 14.4058 110.596 14.7112 110.269 14.7112C110.06 14.7112 109.857 14.5415 109.661 14.2022C109.477 13.8629 109.203 13.6933 108.836 13.6933C108.417 13.6933 108.208 14.0529 108.208 14.7722C108.208 16.4687 109.157 17.3169 111.055 17.3169C111.133 17.3169 111.257 17.2966 111.428 17.2559C111.598 17.2152 111.729 17.2084 111.82 17.2355C111.912 17.2491 111.99 17.2559 112.056 17.2559C112.383 17.2559 112.651 17.093 112.861 16.7673C113.083 16.4416 113.26 16.2787 113.391 16.2787C113.587 16.2787 113.757 16.4144 113.901 16.6859C114.045 16.9573 114.117 17.2084 114.117 17.4391C114.117 17.5748 114.13 17.9277 114.156 18.4977C114.196 19.0541 114.215 19.5156 114.215 19.882C114.215 21.5378 113.888 22.61 113.234 23.0985C112.985 23.275 112.154 23.3632 110.74 23.3632C110.348 23.3632 109.811 23.37 109.131 23.3836C108.568 23.3971 108.018 23.3971 107.481 23.3836L103.791 23.3632C103.123 23.3496 102.789 23.0171 102.789 22.3657C102.789 22.1078 102.887 21.8771 103.084 21.6735C103.411 21.3342 103.594 21.1238 103.634 21.0424L104.007 20.4317C104.19 20.1195 104.301 19.3459 104.34 18.1109L104.497 12.8586C104.523 12.4107 104.53 12.0171 104.517 11.6778Z" fill="white"/>
<path d="M34.2198 30.5698C33.8926 30.5698 33.729 30.8006 33.729 31.262C33.729 32.2256 33.7421 32.8567 33.7683 33.1553C33.7813 33.3181 33.7879 33.481 33.7879 33.6439C33.801 33.8067 33.886 33.9289 34.0431 34.0103C34.0693 34.0239 34.1413 34.0374 34.2591 34.051C34.691 34.051 35.0313 33.8474 35.2799 33.4403C35.5024 33.0739 35.6137 32.6599 35.6137 32.1985C35.6137 31.1127 35.1491 30.5698 34.2198 30.5698ZM34.3376 36.7382C34.6779 38.8555 34.9724 40.0905 35.221 40.4434C35.3912 40.6334 35.5679 40.8369 35.7511 41.0541C35.9344 41.2712 36.026 41.4884 36.026 41.7055C36.026 42.547 35.8951 43.1238 35.6333 43.4359C35.3716 43.7481 34.8677 43.9381 34.1216 44.006C33.7421 44.1145 33.2382 44.1688 32.6099 44.1688C31.9817 44.1688 31.2684 44.1145 30.47 44.006C29.58 43.911 28.978 43.7074 28.6639 43.3952C28.3628 43.0831 28.2123 42.5673 28.2123 41.848C28.2123 41.6445 28.3301 41.4205 28.5657 41.1762C28.8667 40.8777 29.0434 40.6809 29.0958 40.5859C29.4753 39.7987 29.8549 37.634 30.2344 34.0917V32.7481C30.2475 31.9338 30.0839 31.3842 29.7436 31.0991C29.6258 31.0313 29.4622 30.9295 29.2528 30.7938C29.0958 30.6309 29.0172 30.4002 29.0172 30.1016C29.0172 29.5452 29.3575 29.1312 30.0381 28.8598C30.6009 28.6291 31.2946 28.5205 32.1191 28.5341C32.3547 28.5476 32.4463 28.5544 32.394 28.5544C32.4987 28.5409 32.6492 28.5341 32.8455 28.5341C32.9241 28.5205 33.2513 28.4866 33.8272 28.4323C34.2198 28.4051 34.619 28.3983 35.0247 28.4119C38.0481 28.5341 39.5598 29.8845 39.5598 32.4631C39.5598 33.9153 39.2064 34.9264 38.4996 35.4964C38.0546 35.8629 37.3152 36.1072 36.2812 36.2293C35.2472 36.3379 34.5994 36.5075 34.3376 36.7382Z" fill="white"/>
<path d="M54.7147 41.9905C54.6624 42.7777 54.1126 43.3342 53.0656 43.6599C52.385 43.8906 51.5539 44.006 50.5723 44.006C49.5907 44.006 48.8839 43.9177 48.452 43.7413C47.7321 43.4563 47.3722 42.8999 47.3722 42.072C47.3722 41.7598 47.418 41.407 47.5096 41.0134C48.0986 40.4026 48.3931 39.4662 48.3931 38.204C48.3931 37.7697 48.1052 37.4372 47.5293 37.2065C47.0974 37.03 46.6262 36.9418 46.1158 36.9418C46.1158 36.9418 45.9325 36.9758 45.566 37.0436C45.0818 37.3422 44.8397 37.9122 44.8397 38.7537C44.8397 39.3644 44.964 39.8937 45.2127 40.3416C45.3174 40.5044 45.5595 40.7962 45.9391 41.2169C46.1877 41.502 46.3121 41.7666 46.3121 42.0109C46.3121 42.9474 45.8409 43.5513 44.8985 43.8227C44.4405 43.9585 43.6094 44.0263 42.4052 44.0263C40.5991 44.0263 39.696 43.5581 39.696 42.6216C39.6829 41.7938 40.0297 41.1219 40.7365 40.6062C41.5611 39.9955 42.2874 38.6858 42.9157 36.6772C43.4523 34.9264 43.7206 33.3996 43.7206 32.0967C43.7206 31.5945 43.6355 31.1738 43.4654 30.8345C43.3738 30.6445 43.2233 30.4477 43.0138 30.2441C42.8437 30.0813 42.7586 29.9591 42.7586 29.8777C42.7586 29.4298 43.4588 29.043 44.8593 28.7173C46.0503 28.4459 46.9207 28.3373 47.4704 28.3916C48.3996 28.4866 49.1064 28.7784 49.5907 29.2669C49.8132 29.4977 50.1404 30.027 50.5723 30.8549C50.7032 31.1263 50.8668 31.6556 51.0631 32.4428C51.8222 35.5779 52.5879 37.9394 53.3601 39.5273C53.4648 39.758 53.6611 39.9955 53.949 40.2398C54.237 40.4705 54.4268 40.6605 54.5184 40.8098C54.6754 41.0948 54.7409 41.4884 54.7147 41.9905ZM47.7649 34.1732C47.7649 34.0646 47.6471 33.7049 47.4115 33.0942C47.189 32.5378 46.8945 32.2595 46.528 32.2595C46.3055 32.2595 46.0699 32.5513 45.8213 33.1349C45.6119 33.6371 45.5071 34.0239 45.5071 34.2953C45.5071 34.4175 45.6773 34.4785 46.0176 34.4785C46.0961 34.4785 46.227 34.4717 46.4102 34.4582C46.5935 34.431 46.7244 34.4175 46.8029 34.4175C47.0646 34.4175 47.2282 34.4378 47.2937 34.4785C47.6078 34.4514 47.7649 34.3496 47.7649 34.1732Z" fill="white"/>
<path d="M58.3465 38.489C59.2496 38.489 59.7012 38.0411 59.7012 37.1454C59.7012 36.8468 59.4001 36.4329 58.7981 35.9036C57.895 35.0893 57.3518 34.5735 57.1686 34.3564C56.5665 33.6642 56.2655 32.9721 56.2655 32.2799C56.2655 31.0449 56.7432 30.0677 57.6987 29.3484C58.5494 28.7105 59.5899 28.3916 60.8202 28.3916C61.2128 28.3916 61.7756 28.4662 62.5086 28.6155C63.2546 28.7648 63.8305 28.8394 64.2362 28.8394C64.943 28.8394 65.2964 29.6809 65.2964 31.3638C65.2964 32.3274 64.9299 32.8092 64.1969 32.8092C63.6865 32.8092 63.1957 32.4224 62.7245 31.6488C62.2664 30.8752 61.8214 30.4884 61.3895 30.4884C60.4341 30.4884 59.9564 30.8481 59.9564 31.5674C59.9564 31.9881 60.493 32.4631 61.5662 32.9924C63.019 33.6982 64.0072 34.2885 64.5307 34.7635C65.6039 35.7271 66.1405 36.9622 66.1405 38.4687C66.1405 40.1108 65.6236 41.4612 64.5896 42.5198C63.5687 43.5784 62.273 44.1077 60.7024 44.1077C59.0926 44.1077 57.7837 43.7006 56.7759 42.8863C55.6634 42.0041 55.1072 40.7487 55.1072 39.1201C55.1072 38.3058 55.5129 37.8986 56.3244 37.8986C56.5862 37.8986 56.8545 38.0004 57.1293 38.204C57.4173 38.394 57.823 38.489 58.3465 38.489Z" fill="white"/>
<path d="M69.6389 38.489C70.542 38.489 70.9936 38.0411 70.9936 37.1454C70.9936 36.8468 70.6925 36.4329 70.0905 35.9036C69.1874 35.0893 68.6442 34.5735 68.461 34.3564C67.8589 33.6642 67.5579 32.9721 67.5579 32.2799C67.5579 31.0449 68.0356 30.0677 68.9911 29.3484C69.8418 28.7105 70.8823 28.3916 72.1126 28.3916C72.5052 28.3916 73.068 28.4662 73.801 28.6155C74.547 28.7648 75.1229 28.8394 75.5286 28.8394C76.2354 28.8394 76.5888 29.6809 76.5888 31.3638C76.5888 32.3274 76.2223 32.8092 75.4894 32.8092C74.9789 32.8092 74.4881 32.4224 74.0169 31.6488C73.5589 30.8752 73.1139 30.4884 72.6819 30.4884C71.7265 30.4884 71.2488 30.8481 71.2488 31.5674C71.2488 31.9881 71.7854 32.4631 72.8586 32.9924C74.3114 33.6982 75.2996 34.2885 75.8231 34.7635C76.8963 35.7271 77.433 36.9622 77.433 38.4687C77.433 40.1108 76.916 41.4612 75.882 42.5198C74.8611 43.5784 73.5654 44.1077 71.9948 44.1077C70.385 44.1077 69.0761 43.7006 68.0684 42.8863C66.9559 42.0041 66.3996 40.7487 66.3996 39.1201C66.3996 38.3058 66.8053 37.8986 67.6168 37.8986C67.8786 37.8986 68.1469 38.0004 68.4217 38.204C68.7097 38.394 69.1154 38.489 69.6389 38.489Z" fill="white"/>
<path d="M79.8123 33.5828C79.7992 32.212 79.6225 31.3842 79.2822 31.0991C79.1644 31.0313 79.0008 30.9295 78.7914 30.7938C78.6344 30.6309 78.5558 30.4002 78.5558 30.1016C78.5558 29.5452 78.8961 29.1312 79.5767 28.8598C80.1395 28.6291 80.8332 28.5205 81.6577 28.5341C82.8226 28.5476 83.6406 28.6901 84.1118 28.9616C84.5175 29.1787 84.7204 29.5112 84.7204 29.9591C84.7204 30.2305 84.6549 30.4273 84.5241 30.5495C84.4063 30.6716 84.2819 30.787 84.151 30.8956C84.0202 31.0041 83.922 31.1534 83.8566 31.3434C83.621 31.9406 83.5032 32.8499 83.5032 34.0714V34.1732C83.621 35.3403 83.8042 36.5686 84.0529 37.8579C84.3146 39.3101 84.5437 40.1719 84.74 40.4434C84.9102 40.6334 85.0868 40.8369 85.2701 41.0541C85.4664 41.2712 85.5646 41.4884 85.5646 41.7055C85.5646 42.8184 85.2897 43.5038 84.74 43.7617C84.3212 43.9652 83.2021 44.067 81.3829 44.067C79.917 44.067 78.9419 43.9177 78.4577 43.6192C77.9734 43.307 77.7313 42.7166 77.7313 41.848C77.7313 41.6445 77.8556 41.4205 78.1043 41.1762C78.4053 40.8777 78.5755 40.6809 78.6147 40.5859C78.798 40.2058 79.0205 39.2219 79.2822 37.634C79.5178 36.2089 79.6945 34.8585 79.8123 33.5828Z" fill="white"/>
<path d="M98.6153 38.3872C98.6153 40.0973 97.9936 41.5291 96.7502 42.6827C95.5723 43.7685 94.1522 44.3113 92.49 44.3113C90.6315 44.3113 89.1394 43.5513 88.0139 42.0313C87.0061 40.6469 86.5022 38.9572 86.5022 36.9622C86.5022 34.7635 87.0126 32.8431 88.0335 31.2009C89.2114 29.3009 90.8016 28.3508 92.8041 28.3508C94.7412 28.3508 96.2398 29.5045 97.2999 31.8117C98.1768 33.6982 98.6153 35.89 98.6153 38.3872ZM94.3158 35.7204C94.3158 34.8246 94.126 33.8339 93.7465 32.7481C93.2753 31.3909 92.6929 30.7123 91.9992 30.7123C91.5935 30.7123 91.2794 31.0245 91.0569 31.6488C90.8867 32.1238 90.8016 32.6328 90.8016 33.1756C90.8016 34.0985 90.9456 34.9603 91.2336 35.7611C91.6262 36.8332 92.2021 37.3693 92.9612 37.3693C93.8643 37.3693 94.3158 36.8197 94.3158 35.7204Z" fill="white"/>
<path d="M105.195 36.9622C105.195 37.3015 105.313 37.9258 105.548 38.8351C105.797 39.7308 105.987 40.2737 106.117 40.4637C106.261 40.6537 106.412 40.8437 106.569 41.0337C106.765 41.2645 106.883 41.4884 106.922 41.7055C106.962 41.977 106.981 42.2213 106.981 42.4384C106.981 43.0356 106.772 43.4563 106.353 43.7006C106.013 43.8906 105.404 44.006 104.527 44.0467C104.121 44.101 103.238 44.1281 101.877 44.1281C101.353 44.1281 100.817 44.0195 100.267 43.8024C99.7828 43.6259 99.4621 43.3749 99.305 43.0491C99.1611 42.8184 99.0891 42.547 99.0891 42.2348C99.0891 42.1805 99.0891 42.1263 99.0891 42.072C99.0891 42.0041 99.0891 41.9295 99.0891 41.848C99.0891 41.6716 99.1742 41.4884 99.3443 41.2984C99.4883 41.1491 99.6388 40.993 99.7958 40.8302C100.188 39.283 100.47 37.8443 100.64 36.5143C100.784 35.4421 100.882 34.465 100.935 33.5828C101.013 32.2935 100.836 31.4656 100.404 31.0991C100.287 31.0313 100.123 30.9295 99.9136 30.7938C99.7566 30.6309 99.6781 30.4002 99.6781 30.1016C99.6781 29.5452 100.018 29.1312 100.699 28.8598C101.249 28.6291 101.942 28.5205 102.78 28.5341C104.207 28.5612 105.123 28.7716 105.528 29.1652C106.144 29.5859 106.7 30.5902 107.197 32.1781C107.747 33.8882 108.284 35.0078 108.807 35.5371C108.938 35.6593 109.082 35.6932 109.239 35.6389C109.396 35.4353 109.475 35.1368 109.475 34.7432C109.475 34.5939 109.455 34.3632 109.416 34.051C109.416 34.0239 109.416 33.9899 109.416 33.9492L109.396 33.9085C109.357 33.5828 109.311 33.2367 109.259 32.8703C109.036 32.1102 108.676 31.5199 108.179 31.0991C108.061 31.0313 107.897 30.9295 107.688 30.7938C107.544 30.6309 107.472 30.4002 107.472 30.1016C107.472 29.5452 107.812 29.1312 108.493 28.8598C109.043 28.6291 109.736 28.5205 110.574 28.5341C111.726 28.5476 112.544 28.6901 113.028 28.9616C113.421 29.1787 113.617 29.5112 113.617 29.9591C113.617 30.2305 113.558 30.4273 113.44 30.5495C113.323 30.6716 113.198 30.787 113.067 30.8956C112.936 31.0041 112.832 31.1534 112.753 31.3434C112.596 31.6284 112.439 31.9202 112.282 32.2188C112.046 32.721 111.929 33.2842 111.929 33.9085C111.929 33.8814 111.929 33.9696 111.929 34.1732C111.955 34.9196 112.158 36.0461 112.537 37.5526C112.891 38.9912 113.067 40.1108 113.067 40.9116C113.067 41.9702 112.982 42.7031 112.812 43.1102C112.537 43.7481 111.968 44.067 111.104 44.067C110.149 44.067 109.285 43.4224 108.513 42.133C108.316 41.7938 107.78 40.5994 106.903 38.5501C106.353 37.2608 105.856 36.6161 105.411 36.6161C105.267 36.6161 105.195 36.7315 105.195 36.9622Z" fill="white"/>
<path d="M38.6006 51.3348C38.2734 51.3348 38.1098 51.5655 38.1098 52.0269C38.1098 52.9905 38.1229 53.6216 38.1491 53.9202C38.1622 54.083 38.1687 54.2459 38.1687 54.4088C38.1818 54.5716 38.2669 54.6938 38.424 54.7752C38.4501 54.7888 38.5221 54.8024 38.6399 54.8159C39.0718 54.8159 39.4121 54.6124 39.6608 54.2052C39.8833 53.8388 39.9945 53.4248 39.9945 52.9634C39.9945 51.8776 39.5299 51.3348 38.6006 51.3348ZM38.7184 57.5032C39.0587 59.6204 39.3532 60.8554 39.6019 61.2083C39.772 61.3983 39.9487 61.6019 40.132 61.819C40.3152 62.0362 40.4068 62.2533 40.4068 62.4705C40.4068 63.3119 40.2759 63.8887 40.0142 64.2009C39.7524 64.513 39.2485 64.703 38.5025 64.7709C38.1229 64.8795 37.619 64.9337 36.9908 64.9337C36.3626 64.9337 35.6493 64.8795 34.8509 64.7709C33.9609 64.6759 33.3588 64.4723 33.0447 64.1601C32.7437 63.848 32.5932 63.3323 32.5932 62.613C32.5932 62.4094 32.7109 62.1854 32.9465 61.9411C33.2476 61.6426 33.4243 61.4458 33.4766 61.3508C33.8562 60.5636 34.2357 58.3989 34.6153 54.8566V53.513C34.6284 52.6987 34.4648 52.1491 34.1245 51.8641C34.0067 51.7962 33.8431 51.6944 33.6337 51.5587C33.4766 51.3958 33.3981 51.1651 33.3981 50.8665C33.3981 50.3101 33.7384 49.8961 34.419 49.6247C34.9818 49.394 35.6754 49.2854 36.5 49.299C36.7356 49.3125 36.8272 49.3193 36.7748 49.3193C36.8795 49.3058 37.0301 49.299 37.2264 49.299C37.3049 49.2854 37.6321 49.2515 38.208 49.1972C38.6006 49.17 38.9998 49.1633 39.4056 49.1768C42.4289 49.299 43.9406 50.6494 43.9406 53.228C43.9406 54.6802 43.5872 55.6913 42.8805 56.2613C42.4355 56.6278 41.696 56.8721 40.662 56.9942C39.6281 57.1028 38.9802 57.2724 38.7184 57.5032Z" fill="white"/>
<path d="M45.7063 53.2077C45.6278 52.5019 45.4707 52.0541 45.2351 51.8641C45.1173 51.7962 44.9537 51.6944 44.7443 51.5587C44.5873 51.3958 44.5087 51.1651 44.5087 50.8665C44.5087 50.3101 44.849 49.8961 45.5296 49.6247C46.0924 49.394 46.7861 49.2854 47.6106 49.299C47.7677 49.299 48.0033 49.3125 48.3174 49.3397C48.6446 49.3668 48.8933 49.3804 49.0634 49.3804C49.5084 49.3804 50.2348 49.3465 51.2426 49.2786C52.2504 49.2108 52.9637 49.1768 53.3825 49.1768C53.9453 49.1768 54.3838 49.5433 54.6979 50.2762C54.9335 50.8462 55.0513 51.4637 55.0513 52.1287C55.0513 52.5494 54.9728 52.9023 54.8157 53.1873C54.6063 53.5402 54.3183 53.7166 53.9519 53.7166C53.5985 53.7166 53.2975 53.547 53.0488 53.2077C52.6823 52.7055 52.4009 52.3866 52.2046 52.2509C51.7203 51.898 51.007 51.7216 50.0647 51.7216C49.7898 51.7216 49.6459 51.7216 49.6328 51.7216C49.5019 51.7758 49.4103 51.9387 49.3579 52.2101C49.3317 52.3051 49.3187 52.4001 49.3187 52.4951C49.3187 52.943 49.5346 53.3095 49.9665 53.5945C50.3461 53.8388 50.7976 53.9609 51.3211 53.9609C51.4259 53.9609 51.5502 53.8863 51.6942 53.737C51.8512 53.5877 51.9821 53.513 52.0868 53.513C52.2831 53.513 52.3813 53.6623 52.3813 53.9609C52.3813 54.4359 52.3224 54.8906 52.2046 55.3249C52.0345 55.9356 51.7858 56.241 51.4586 56.241C51.2492 56.241 51.0463 56.0713 50.85 55.732C50.6667 55.3927 50.3919 55.2231 50.0254 55.2231C49.6066 55.2231 49.3972 55.5827 49.3972 56.302C49.3972 57.9985 50.3461 58.8468 52.2439 58.8468C52.3224 58.8468 52.4467 58.8264 52.6169 58.7857C52.787 58.745 52.9179 58.7382 53.0095 58.7653C53.1011 58.7789 53.1797 58.7857 53.2451 58.7857C53.5723 58.7857 53.8406 58.6228 54.05 58.2971C54.2725 57.9714 54.4492 57.8085 54.5801 57.8085C54.7764 57.8085 54.9466 57.9442 55.0906 58.2157C55.2345 58.4871 55.3065 58.7382 55.3065 58.9689C55.3065 59.1046 55.3196 59.4575 55.3458 60.0275C55.385 60.584 55.4047 61.0454 55.4047 61.4118C55.4047 63.0676 55.0775 64.1398 54.4231 64.6284C54.1744 64.8048 53.3433 64.893 51.9297 64.893C51.5371 64.893 51.0005 64.8998 50.3199 64.9134C49.7571 64.927 49.2074 64.927 48.6708 64.9134L44.9799 64.893C44.3124 64.8794 43.9787 64.5469 43.9787 63.8955C43.9787 63.6376 44.0768 63.4069 44.2732 63.2033C44.6004 62.864 44.7836 62.6537 44.8229 62.5722L45.1959 61.9615C45.3791 61.6494 45.4904 60.8758 45.5296 59.6407L45.6867 54.3884C45.7129 53.9405 45.7194 53.547 45.7063 53.2077Z" fill="white"/>
<path d="M61.599 51.3958C61.4288 51.3958 61.2718 51.4637 61.1278 51.5994C60.9969 51.7216 60.9446 51.8708 60.9707 52.0473L61.1278 54.1441C61.154 54.497 61.2718 54.6734 61.4812 54.6734C61.8738 54.6734 62.1879 54.4766 62.4235 54.0831C62.6329 53.7302 62.7376 53.3366 62.7376 52.9023C62.7376 51.898 62.3581 51.3958 61.599 51.3958ZM61.5401 57.7067C61.8149 59.6339 62.0963 60.8011 62.3843 61.2083C62.5544 61.3983 62.7311 61.6019 62.9143 61.819C63.0976 62.0362 63.1892 62.2533 63.1892 62.4705C63.1892 63.5833 62.9209 64.2687 62.3843 64.5266C61.9654 64.7302 60.8464 64.832 59.0271 64.832C57.5351 64.832 56.5404 64.6894 56.043 64.4044C55.5588 64.1059 55.3363 63.5087 55.3755 62.613C55.3886 62.4094 55.513 62.1854 55.7485 61.9411C56.0365 61.6426 56.2066 61.4458 56.259 61.3508C56.4422 60.9708 56.6647 59.9868 56.9265 58.3989C57.1621 56.9739 57.3388 55.6235 57.4566 54.3477C57.4173 52.9634 57.2406 52.1355 56.9265 51.8641C56.8087 51.7962 56.6451 51.6944 56.4357 51.5587C56.2786 51.3958 56.2001 51.1651 56.2001 50.8665C56.2001 50.3101 56.5404 49.8961 57.221 49.6247C57.7707 49.394 58.4643 49.2854 59.302 49.299C59.603 49.3125 59.8779 49.3261 60.1265 49.3397C61.2914 49.2854 62.0243 49.2583 62.3254 49.2583C63.4117 49.2583 64.3671 49.4822 65.1917 49.9301C66.2126 50.4729 66.723 51.2601 66.723 52.2916C66.723 53.5809 66.0555 54.6056 64.7205 55.3656C64.8514 55.7863 65.1328 56.0985 65.5647 56.302C66.206 56.6006 66.5332 56.7499 66.5463 56.7499C67.0829 57.2114 67.4821 57.6932 67.7439 58.1953C67.9795 58.6432 68.1758 59.2471 68.3329 60.0072C68.5554 61.1336 68.8891 62.0904 69.3341 62.8776C69.3603 62.9319 69.5304 63.1287 69.8445 63.468C70.0801 63.7258 70.1979 63.943 70.1979 64.1194C70.1979 64.2551 70.0867 64.3909 69.8642 64.5266C69.7071 64.6216 69.5501 64.7234 69.393 64.832C69.1574 64.8455 68.7713 64.8998 68.2347 64.9948C67.7897 65.0762 67.4101 65.117 67.096 65.117C65.7348 65.117 64.799 64.5605 64.2886 63.4476C64.0399 62.9048 63.8043 61.7579 63.5818 60.0072C63.3855 58.5414 63.0518 57.5914 62.5806 57.1571C62.4235 57.0214 62.2337 56.9806 62.0112 57.0349C61.6448 57.1299 61.4877 57.3539 61.5401 57.7067Z" fill="white"/>
<path d="M73.6363 59.2539C74.5394 59.2539 74.991 58.8061 74.991 57.9103C74.991 57.6117 74.6899 57.1978 74.0879 56.6685C73.1848 55.8542 72.6416 55.3384 72.4584 55.1213C71.8563 54.4291 71.5553 53.737 71.5553 53.0448C71.5553 51.8098 72.033 50.8326 72.9885 50.1133C73.8392 49.4754 74.8797 49.1565 76.11 49.1565C76.5026 49.1565 77.0654 49.2311 77.7984 49.3804C78.5444 49.5297 79.1203 49.6043 79.526 49.6043C80.2328 49.6043 80.5862 50.4458 80.5862 52.1287C80.5862 53.0923 80.2197 53.5741 79.4868 53.5741C78.9763 53.5741 78.4855 53.1873 78.0143 52.4137C77.5563 51.6401 77.1113 51.2533 76.6793 51.2533C75.7239 51.2533 75.2462 51.613 75.2462 52.3323C75.2462 52.753 75.7828 53.228 76.856 53.7573C78.3088 54.4631 79.297 55.0534 79.8205 55.5285C80.8937 56.4921 81.4304 57.7271 81.4304 59.2336C81.4304 60.8758 80.9134 62.2262 79.8794 63.2848C78.8585 64.3434 77.5628 64.8727 75.9922 64.8727C74.3824 64.8727 73.0735 64.4655 72.0658 63.6512C70.9533 62.769 70.397 61.5136 70.397 59.885C70.397 59.0707 70.8027 58.6635 71.6142 58.6635C71.876 58.6635 72.1443 58.7653 72.4191 58.9689C72.7071 59.1589 73.1128 59.2539 73.6363 59.2539Z" fill="white"/>
<path d="M94.2345 59.1521C94.2345 60.8622 93.6128 62.294 92.3694 63.4476C91.1915 64.5334 89.7714 65.0762 88.1092 65.0762C86.2507 65.0762 84.7586 64.3162 83.633 62.7962C82.6252 61.4118 82.1213 59.7221 82.1213 57.7271C82.1213 55.5285 82.6318 53.608 83.6526 51.9658C84.8306 50.0658 86.4208 49.1158 88.4233 49.1158C90.3604 49.1158 91.8589 50.2694 92.9191 52.5766C93.796 54.4631 94.2345 56.6549 94.2345 59.1521ZM89.935 56.4853C89.935 55.5895 89.7452 54.5988 89.3656 53.513C88.8945 52.1558 88.312 51.4773 87.6184 51.4773C87.2126 51.4773 86.8985 51.7894 86.676 52.4137C86.5059 52.8887 86.4208 53.3977 86.4208 53.9405C86.4208 54.8634 86.5648 55.7252 86.8527 56.526C87.2454 57.5982 87.8212 58.1342 88.5804 58.1342C89.4834 58.1342 89.935 57.5846 89.935 56.4853Z" fill="white"/>
<path d="M100.814 57.7271C100.814 58.0664 100.932 58.6907 101.167 59.6C101.416 60.4957 101.606 61.0386 101.737 61.2286C101.881 61.4186 102.031 61.6086 102.188 61.7986C102.384 62.0294 102.502 62.2533 102.542 62.4705C102.581 62.7419 102.6 62.9862 102.6 63.2033C102.6 63.8005 102.391 64.2212 101.972 64.4655C101.632 64.6555 101.023 64.7709 100.146 64.8116C99.7407 64.8659 98.8572 64.893 97.496 64.893C96.9725 64.893 96.4359 64.7845 95.8862 64.5673C95.4019 64.3909 95.0813 64.1398 94.9242 63.8141C94.7802 63.5833 94.7082 63.3119 94.7082 62.9998C94.7082 62.9455 94.7082 62.8912 94.7082 62.8369C94.7082 62.769 94.7082 62.6944 94.7082 62.613C94.7082 62.4365 94.7933 62.2533 94.9635 62.0633C95.1074 61.914 95.2579 61.7579 95.415 61.5951C95.8076 60.0479 96.089 58.6093 96.2592 57.2792C96.4032 56.207 96.5013 55.2299 96.5537 54.3477C96.6322 53.0584 96.4555 52.2305 96.0236 51.8641C95.9058 51.7962 95.7422 51.6944 95.5328 51.5587C95.3757 51.3958 95.2972 51.1651 95.2972 50.8665C95.2972 50.3101 95.6375 49.8961 96.3181 49.6247C96.8678 49.394 97.5615 49.2854 98.3991 49.299C99.8257 49.3261 100.742 49.5365 101.148 49.9301C101.763 50.3508 102.319 51.3551 102.816 52.943C103.366 54.6531 103.903 55.7727 104.426 56.302C104.557 56.4242 104.701 56.4581 104.858 56.4038C105.015 56.2003 105.094 55.9017 105.094 55.5081C105.094 55.3588 105.074 55.1281 105.035 54.8159C105.035 54.7888 105.035 54.7549 105.035 54.7141L105.015 54.6734C104.976 54.3477 104.93 54.0016 104.878 53.6352C104.655 52.8752 104.295 52.2848 103.798 51.8641C103.68 51.7962 103.517 51.6944 103.307 51.5587C103.163 51.3958 103.091 51.1651 103.091 50.8665C103.091 50.3101 103.432 49.8961 104.112 49.6247C104.662 49.394 105.355 49.2854 106.193 49.299C107.345 49.3125 108.163 49.4551 108.647 49.7265C109.04 49.9436 109.236 50.2761 109.236 50.724C109.236 50.9955 109.177 51.1922 109.059 51.3144C108.942 51.4365 108.817 51.5519 108.686 51.6605C108.556 51.7691 108.451 51.9183 108.372 52.1083C108.215 52.3934 108.058 52.6852 107.901 52.9837C107.666 53.4859 107.548 54.0491 107.548 54.6734C107.548 54.6463 107.548 54.7345 107.548 54.9381C107.574 55.6845 107.777 56.811 108.156 58.3175C108.51 59.7561 108.686 60.8758 108.686 61.6765C108.686 62.7351 108.601 63.468 108.431 63.8751C108.156 64.513 107.587 64.832 106.723 64.832C105.768 64.832 104.904 64.1873 104.132 62.898C103.935 62.5587 103.399 61.3643 102.522 59.315C101.972 58.0257 101.475 57.381 101.03 57.381C100.886 57.381 100.814 57.4964 100.814 57.7271Z" fill="white"/>
</svg>
