<svg width="248" height="244" viewBox="0 0 248 244" fill="none" xmlns="http://www.w3.org/2000/svg">
<g id="Group 289631">
<circle id="Ellipse 64" cx="122.398" cy="122.476" r="120.296" fill="#FFD583" stroke="#F24EB6" stroke-width="2.45502"/>
<g id="Group 289437">
<path id="Vector" d="M42.2298 130.681C56.1627 136.374 72.0725 129.694 77.7652 115.761C83.458 101.828 76.778 85.9183 62.845 80.2256C48.9121 74.5328 33.0023 81.2129 27.3096 95.1458C21.6168 109.079 28.2968 124.989 42.2298 130.681Z" fill="#FF997E"/>
<path id="Vector_2" d="M175.288 185.045C189.221 190.737 205.131 184.057 210.824 170.124C216.517 156.191 209.837 140.282 195.904 134.589C181.971 128.896 166.061 135.576 160.368 149.509C154.675 163.442 161.355 179.352 175.288 185.045Z" fill="#FF997E"/>
<path id="Vector_3" d="M41.8583 154.258L25.7934 147.176C32.8643 138.701 40.2588 130.517 47.9769 122.626C44.6397 132.761 43.1221 143.646 41.8583 154.258Z" fill="#652FEB"/>
<path id="Vector_4" d="M176.022 212.965L159.957 205.883C167.028 197.408 174.423 189.224 182.141 181.333C178.804 191.468 177.286 202.353 176.022 212.965Z" fill="#652FEB"/>
<path id="Vector_5" d="M50.1035 124.972C49.85 125.593 49.418 126.124 48.8623 126.5C48.3067 126.875 47.6522 127.077 46.9817 127.08C46.3112 127.083 45.6548 126.887 45.0955 126.518C44.5362 126.148 44.0992 125.621 43.8397 125.002C43.5801 124.384 43.5097 123.703 43.6373 123.045C43.7649 122.386 44.0849 121.781 44.5567 121.304C45.0285 120.828 45.631 120.502 46.288 120.368C46.9449 120.234 47.6269 120.298 48.2475 120.552C49.0799 120.892 49.7429 121.549 50.091 122.378C50.4391 123.207 50.4436 124.14 50.1035 124.972Z" fill="#652FEB"/>
<path id="Vector_6" d="M184.268 183.679C184.014 184.3 183.582 184.831 183.026 185.207C182.471 185.582 181.816 185.784 181.146 185.787C180.475 185.79 179.819 185.595 179.26 185.225C178.7 184.855 178.263 184.328 178.004 183.709C177.744 183.091 177.674 182.41 177.801 181.752C177.929 181.093 178.249 180.488 178.721 180.011C179.193 179.535 179.795 179.209 180.452 179.075C181.109 178.941 181.791 179.005 182.412 179.259C183.244 179.599 183.907 180.256 184.255 181.085C184.603 181.914 184.608 182.847 184.268 183.679Z" fill="#652FEB"/>
<path id="Vector_7" d="M195.388 81.7031C190.936 64.3286 175.576 50.3656 157.786 43.3173C140.156 35.8936 119.422 35.0833 104.069 44.3919C81.4782 58.0872 63.1685 81.627 57.5346 107.52C49.6248 143.774 50.8769 175.974 92.9939 197.486L96.1154 198.761C142.789 212.277 164.694 190.789 184.429 159.367C198.511 136.926 201.926 107.294 195.388 81.7031Z" fill="#FF997E"/>
<path id="Vector_8" d="M156.853 118.663C150.562 117.388 143.834 114.374 139.748 110.254C139.181 109.781 138.792 109.128 138.645 108.403C138.542 107.305 139.462 106.404 140.369 105.77C149.626 99.1818 161.018 104.297 168.334 111.473C173.92 116.996 167.615 119.372 162.278 119.265C160.456 119.223 158.64 119.022 156.853 118.663Z" fill="#231F20"/>
<path id="Vector_9" d="M99.2881 97.0131C105.351 99.1336 112.688 99.8952 118.291 98.4446C119.021 98.3226 119.688 97.9549 120.181 97.4023C120.83 96.5134 120.482 95.2696 120.037 94.2647C115.401 83.8794 102.986 82.521 93.0447 84.9926C85.4326 86.9186 89.6604 92.1654 94.3152 94.7803C95.9049 95.6675 97.5688 96.4146 99.2881 97.0131Z" fill="#231F20"/>
<path id="Vector_10" d="M125.422 114.338L115.814 137.855C108.786 132.099 105.425 140.325 111.323 148.847" stroke="#231F20" stroke-width="3.27336" stroke-linecap="round" stroke-linejoin="round"/>
<path id="Vector_11" d="M149.023 134.858C147.956 137.469 145.831 139.07 144.27 138.432C142.709 137.794 142.319 135.165 143.385 132.555C144.452 129.944 146.577 128.343 148.132 128.979C149.688 129.614 150.089 132.248 149.023 134.858Z" fill="#231F20"/>
<path id="Vector_12" d="M147.517 126.606C149.117 127.034 150.529 127.984 151.528 129.306C152.528 130.628 153.057 132.245 153.033 133.902" stroke="#231F20" stroke-width="3.27336" stroke-linecap="round" stroke-linejoin="round"/>
<path id="Vector_13" d="M95.9867 113.192C94.9201 115.802 95.3163 118.434 96.8771 119.071C98.4379 119.709 100.558 118.106 101.624 115.495C102.691 112.884 102.295 110.253 100.74 109.618C99.1844 108.982 97.0533 110.581 95.9867 113.192Z" fill="#231F20"/>
<path id="Vector_14" d="M102.841 108.351C101.399 107.535 99.7253 107.225 98.0864 107.469C96.4475 107.713 94.9368 108.497 93.794 109.697" stroke="#231F20" stroke-width="3.27336" stroke-linecap="round" stroke-linejoin="round"/>
<path id="Vector_15" d="M130.043 153.731C130.719 154.043 131.282 154.556 131.654 155.2C132.071 156.087 132.165 157.093 131.918 158.043C131.065 162.082 126.244 165.758 122.262 166.477C120.111 166.811 117.911 166.578 115.877 165.8C113.844 165.023 112.049 163.729 110.669 162.045C110.336 161.7 110.075 161.291 109.902 160.843C109.728 160.395 109.647 159.916 109.661 159.436C109.774 158.951 109.997 158.498 110.314 158.114C110.631 157.729 111.032 157.423 111.487 157.22C114.037 155.818 115.741 155.931 118.437 155.25C121.898 154.377 126.614 151.987 130.043 153.731Z" fill="white"/>
</g>
</g>
</svg>
