<svg width="93" height="31" viewBox="0 0 93 31" fill="none" xmlns="http://www.w3.org/2000/svg">
<path fill-rule="evenodd" clip-rule="evenodd" d="M93.0018 16.0148C93.0018 10.7314 89.8071 6.5625 83.7011 6.5625C77.5693 6.5625 73.8594 10.7314 73.8594 15.9735C73.8594 22.1856 78.2392 25.3227 84.5255 25.3227C87.5914 25.3227 89.9101 24.7654 91.6621 23.9812V19.8535C89.9101 20.5552 87.9006 20.9886 85.35 20.9886C82.8509 20.9886 80.6352 20.2869 80.3518 17.8516H92.9502C92.9502 17.5833 93.0018 16.5101 93.0018 16.0148ZM80.2745 14.0542C80.2745 11.7221 82.0522 10.7521 83.6753 10.7521C85.2469 10.7521 86.9215 11.7221 86.9215 14.0542H80.2745Z" fill="#0A0517"/>
<path fill-rule="evenodd" clip-rule="evenodd" d="M63.912 6.5625C61.3871 6.5625 59.764 7.51186 58.8623 8.17228L58.5274 6.89271H52.8594V30.9569L59.3003 29.8631L59.326 24.0224C60.2535 24.559 61.619 25.3227 63.8862 25.3227C68.4979 25.3227 72.6974 22.3508 72.6974 15.8084C72.6716 9.82334 68.4206 6.5625 63.912 6.5625ZM62.3662 20.7822C60.8461 20.7822 59.9444 20.3488 59.326 19.8122L59.3003 12.1555C59.9701 11.557 60.8976 11.1442 62.3662 11.1442C64.7107 11.1442 66.3338 13.2493 66.3338 15.9529C66.3338 18.7184 64.7364 20.7822 62.3662 20.7822Z" fill="#0A0517"/>
<path fill-rule="evenodd" clip-rule="evenodd" d="M43.9922 5.34699L50.4589 4.23253V0.0429688L43.9922 1.13679V5.34699Z" fill="#0A0517"/>
<path d="M50.4589 6.92188H43.9922V24.9803H50.4589V6.92188Z" fill="#0A0517"/>
<path fill-rule="evenodd" clip-rule="evenodd" d="M37.0631 8.43978L36.6509 6.91255H31.0859V24.971H37.5269V12.7325C39.0469 11.1434 41.6233 11.4323 42.422 11.6593V6.91255C41.5975 6.66489 38.5832 6.21085 37.0631 8.43978Z" fill="#0A0517"/>
<path fill-rule="evenodd" clip-rule="evenodd" d="M24.1871 2.45312L17.9008 3.52631L17.875 20.0575C17.875 23.112 20.7348 25.3616 24.5478 25.3616C26.6604 25.3616 28.2062 25.052 29.0564 24.6805V20.4909C28.232 20.7592 24.1613 21.7086 24.1613 18.6541V11.3276H29.0564V6.93162H24.1613L24.1871 2.45312Z" fill="#0A0517"/>
<path fill-rule="evenodd" clip-rule="evenodd" d="M6.76821 12.1555C6.76821 11.3506 7.59264 11.041 8.95812 11.041C10.9162 11.041 13.3895 11.5157 15.3475 12.3618V7.51186C13.2091 6.8308 11.0965 6.5625 8.95812 6.5625C3.7281 6.5625 0.25 8.75015 0.25 12.4031C0.25 18.0993 10.0402 17.1912 10.0402 19.6471C10.0402 20.5965 9.00965 20.9061 7.56688 20.9061C5.4285 20.9061 2.69755 20.2044 0.5334 19.255V24.1669C2.92942 24.9924 5.35121 25.3433 7.56688 25.3433C12.9257 25.3433 16.6099 23.2176 16.6099 19.5233C16.5842 13.3731 6.76821 14.4669 6.76821 12.1555Z" fill="#0A0517"/>
</svg>
