<svg width="279" height="524" viewBox="0 0 279 524" fill="none" xmlns="http://www.w3.org/2000/svg">
<path d="M48.0037 123.087C47.6603 122.095 46.8119 122.455 46.1662 122.452C38.6103 122.417 31.0543 122.582 23.4983 122.366C16.6293 122.17 10.8249 119.405 6.35318 114.075C2.69884 109.72 1.26319 104.664 1.27349 99.0282C1.32845 74.9865 1.33878 50.9334 1.30443 26.8688C1.30443 25.2751 1.30443 23.6815 1.30443 22.0879C1.28383 15.9538 3.56779 10.7333 7.83004 6.45045C9.758 4.56706 11.9986 3.03306 14.4518 1.91689C18.6042 -0.0442294 22.9763 -0.102631 27.4069 0.055357C28.1281 0.0828332 28.8459 0.0725464 29.5672 0.0725464C104.703 0.0725464 179.839 0.0656572 254.975 0.0519191C263.634 0.0519191 270.276 3.76467 274.824 10.9806C276.783 13.9798 277.855 17.472 277.915 21.0541C277.944 47.4175 277.944 73.7833 277.915 100.151C277.915 102.556 277.448 104.826 276.005 106.965C274.861 108.662 274.559 110.877 273.22 112.564C270.19 116.422 266.023 119.229 261.309 120.587C259.09 121.253 256.868 121.274 254.622 121.274C246.245 121.274 237.868 121.274 229.491 121.274H226.146C226.62 122.215 227.784 121.514 227.932 122.469C226.936 122.637 226.012 121.954 225.15 121.985C222.526 122.084 220.06 121.044 217.429 121.222C214.798 121.401 212.085 121.188 209.416 121.281C206.478 121.327 203.605 122.157 201.094 123.685C198.192 125.467 196.715 128.177 195.709 131.114C194.844 133.635 195.07 136.427 195.496 139.047C196.09 142.719 196.046 146.442 196.767 150.107C197.186 152.236 196.767 154.513 196.898 156.718C196.966 158.006 196.303 158.58 195.304 159.023C194.232 159.497 193.487 158.638 193.092 158.071C191.478 155.746 190.42 153.095 188.936 150.67C187.006 147.51 185.46 144.113 183.729 140.83C182.356 138.189 181.054 135.482 179.481 132.955C177.805 130.262 176.988 126.965 173.945 125.182C171.338 123.654 168.831 122.386 165.592 122.407C145.967 122.538 126.342 122.318 106.717 122.517C87.1574 122.699 67.5531 121.648 48.0037 123.087ZM139.06 94.055C137.312 93.9864 135.536 93.9108 134.097 95.1163C131.597 97.2079 131.947 100 133.479 102.614C134.959 105.131 137.398 106.162 140.19 105.739C142.8 105.344 144.689 103.799 145.744 101.206C147.279 97.4277 145.077 94.2645 141.059 94.055C140.393 94.0207 139.706 94.0516 139.05 94.055H139.06ZM150.322 88.0721C150.322 87.447 150.322 86.8803 150.322 86.317C150.287 85.4513 149.923 84.6314 149.305 84.0245C148.687 83.4176 147.86 83.0693 146.994 83.0508C145.469 82.9855 143.741 84.6272 143.662 86.2621C143.611 87.2924 143.618 88.3228 143.624 89.3531C143.624 90.9433 144.555 91.9634 145.926 92.4649C147.296 92.9663 148.491 92.6091 149.546 91.51C150.6 90.411 150.188 89.202 150.311 88.0721H150.322ZM128.949 87.2684C128.949 87.9004 128.949 88.3606 128.949 88.8243C129 90.5621 129.835 91.7642 131.133 91.9874C133.101 92.3309 134.417 91.6096 135.152 89.8374C135.749 88.4018 135.495 86.894 135.347 85.4653C135.2 84.0365 134.042 83.0611 132.624 82.7486C131.205 82.436 130.22 83.2878 129.399 84.3353C128.629 85.2832 129.103 86.4098 128.938 87.2684H128.949Z" fill="#FE5122"/>
<path d="M260.765 364.335C260.988 365.258 261.761 364.905 262.29 364.915C264.694 364.97 267.122 364.874 269.533 364.967C272.847 365.09 274.956 367.12 276.718 369.696C278.161 371.805 277.951 374.161 277.951 376.513C277.951 410.124 277.96 443.732 277.979 477.337C277.979 481.232 276.526 484.124 273.239 486.126C271.793 486.974 270.137 487.395 268.461 487.339C224.424 487.316 180.387 487.316 136.352 487.339C128.642 487.339 120.931 487.222 113.228 487.383C108.227 487.487 104.257 489.746 101.794 494.232C98.5003 500.229 95.2683 506.253 92.0227 512.28C90.1406 515.76 88.2825 519.256 86.397 522.735C85.7719 523.889 84.7621 524.184 83.5291 523.899C82.2068 523.59 82.0283 522.477 81.9252 521.437C81.702 519.132 82.5126 516.92 82.6396 514.626C82.8938 510.079 83.5017 505.552 83.9207 501.012C84.2494 497.975 83.4594 494.922 81.6986 492.425C79.2154 489.015 75.8599 486.638 71.2988 486.638C51.1496 486.638 31.0071 486.647 10.8716 486.666C8.29706 486.696 5.81305 485.717 3.95106 483.939C2.23379 482.386 1.27213 480.563 1.29617 478.151C1.36143 471.626 1.29617 465.1 1.29617 458.575C1.29617 430.57 1.32711 402.561 1.23438 374.556C1.23438 370.743 2.63564 367.927 5.84693 366.213C8.16523 364.98 10.8717 364.942 13.5025 364.925C14.0692 364.925 14.9107 365.368 15.1545 364.338C15.4568 364.355 15.8414 364.266 16.0509 364.41C18.5066 365.983 21.2851 366.079 24.0362 366.083C48.9091 366.115 73.7819 366.122 98.6548 366.103C120.805 366.103 142.955 366.103 165.103 366.103C171.378 366.103 175.602 369.115 178.291 374.604C179.047 376.146 179.83 377.671 180.658 379.175C182.413 382.362 184.302 385.481 185.957 388.716C188.114 392.924 190.213 397.158 192.685 401.197C193.647 402.764 194.574 403.224 195.821 402.636C196.161 402.49 196.467 402.276 196.721 402.006C196.975 401.737 197.17 401.418 197.295 401.07C197.42 400.722 197.472 400.351 197.448 399.982C197.423 399.613 197.323 399.253 197.154 398.924C196.921 398.361 196.814 397.753 196.841 397.145C196.697 392.745 196.092 388.387 195.718 384.011C195.45 380.858 195.117 377.733 195.996 374.453C197.408 369.177 203.995 365.179 208.931 365.094C226.21 364.778 243.513 366.145 260.765 364.335ZM144.925 388.847C144.987 388.503 144.86 388.352 144.52 388.369L144.028 388.201C143.238 387.356 142.469 387.366 141.72 388.256C141.265 388.666 140.952 389.21 140.828 389.811C140.705 390.411 140.777 391.035 141.034 391.591C141.899 393.796 143.623 394.991 145.911 395.345C148.267 395.709 150.104 394.606 151.433 392.831C151.615 392.611 151.749 392.356 151.827 392.082C151.905 391.808 151.925 391.52 151.887 391.238C151.848 390.955 151.751 390.684 151.602 390.441C151.453 390.198 151.255 389.988 151.021 389.826C150.173 389.183 149.015 388.96 148.229 389.578C146.185 391.186 145.821 391.179 144.925 388.847ZM142.387 400.524C142.768 397.34 139.478 394.613 136.455 394.651C133.433 394.689 130.781 397.608 130.799 400.617C130.799 403.193 133.134 406.366 136.606 406.353C139.862 406.353 142.727 403.571 142.387 400.534V400.524ZM130.472 392.989C133.326 392.776 134.982 391.928 136.184 390.409C136.627 389.846 137.304 389.163 136.627 388.105C135.597 386.474 134.298 386.161 132.849 387.47C131.623 388.575 131.132 388.479 130.191 386.961C130.027 386.769 129.873 386.568 129.73 386.36C129.102 385.059 127.986 385.33 126.966 385.56C125.946 385.79 125.76 386.559 125.592 387.504C125.187 389.688 128.989 393.205 130.472 392.999V392.989Z" fill="#652FEB"/>
<path d="M225.988 243.36C188.74 243.882 151.489 243.442 114.242 243.6C111.494 243.6 109.007 244.524 106.476 245.661C102.77 247.316 101.888 250.967 99.9713 253.856C98.254 256.452 96.9764 259.351 95.5064 262.126C93.2602 266.405 91.0415 270.695 88.785 274.974C88.0122 276.444 86.92 277.705 86.1232 279.171C85.5909 280.15 84.3819 280.439 83.2451 280.058C82.1083 279.676 82.3315 278.684 82.3315 277.835C82.3315 272.739 83.0459 267.707 83.6366 262.662C83.9595 260.265 84.0137 257.84 83.798 255.432C83.4099 251.819 81.6893 248.875 78.763 246.585C75.6926 244.18 72.2374 243.452 68.4594 243.493C64.0426 243.528 59.6224 243.459 55.2056 243.435C54.8209 242.913 54.2474 242.903 53.6807 242.875C48.5632 242.649 43.8201 240.945 39.1216 239.118C30.4426 235.742 23.0996 230.401 16.9106 223.515C13.4811 219.748 10.5714 215.539 8.25899 210.999C6.35626 207.221 4.59438 203.443 3.39573 199.442C1.11177 191.804 0.548473 183.987 1.30407 176.019C1.74025 171.437 2.87019 167.051 4.28178 162.751C7.76051 152.521 13.9055 143.403 22.083 136.34C27.3322 131.899 33.254 128.322 39.6266 125.741C42.3586 124.702 45.1487 123.822 47.9827 123.106C67.5596 121.667 87.1364 122.718 106.713 122.523C126.338 122.323 145.963 122.543 165.588 122.413C168.827 122.392 171.334 123.659 173.941 125.188C176.984 126.97 177.801 130.267 179.477 132.96C181.05 135.488 182.338 138.194 183.726 140.835C185.443 144.119 187.002 147.516 188.932 150.675C190.416 153.1 191.474 155.752 193.088 158.077C193.483 158.643 194.229 159.502 195.3 159.028C196.3 158.585 196.962 157.998 196.894 156.724C196.777 154.519 197.182 152.259 196.763 150.112C196.042 146.447 196.076 142.724 195.492 139.053C195.066 136.432 194.84 133.64 195.705 131.119C196.712 128.183 198.188 125.473 201.091 123.69C203.601 122.163 206.474 121.333 209.413 121.286C212.081 121.193 214.764 121.406 217.425 121.228C220.087 121.049 222.522 122.09 225.146 121.99C226.008 121.959 226.932 122.643 227.928 122.474C231.246 122.619 234.261 123.927 237.37 124.879C241.646 126.197 245.513 128.392 249.339 130.607C251.441 131.82 253.337 133.431 255.25 134.98C258.915 137.933 262.233 141.294 265.138 144.998C269.18 150.186 272.362 155.99 274.562 162.188C277.554 170.462 278.443 178.969 277.828 187.662C277.473 191.977 276.64 196.239 275.345 200.37C274.266 204.123 272.795 207.753 270.956 211.199C268.552 215.56 265.907 219.84 262.349 223.422C258.358 227.447 254.254 231.322 249.384 234.323C245.237 236.845 240.843 238.935 236.271 240.56C233.544 241.561 230.724 242.282 227.852 242.714C227.185 242.763 226.542 242.986 225.988 243.36ZM138.751 156.466C140.166 156.686 141.447 156.198 142.765 155.813C143.94 155.47 144.558 154.635 144.902 153.619C145.166 152.839 144.689 152.187 144.029 151.685C143.622 151.342 143.12 151.13 142.591 151.076C142.061 151.022 141.527 151.129 141.059 151.383C140.341 151.744 139.551 151.935 138.748 151.941C137.945 151.947 137.151 151.768 136.429 151.417C135.007 150.73 133.571 150.96 133.059 151.994C132.448 153.231 133.149 155.175 134.488 155.676C135.828 156.177 137.215 156.779 138.737 156.466H138.751ZM149.082 143.957H149.037C149.037 143.549 149.037 143.137 149.037 142.728C149.033 141.86 148.711 141.024 148.132 140.379C147.553 139.733 146.756 139.322 145.894 139.225C144.864 139.063 143.394 140.162 142.783 141.488C142.061 143.04 142.371 144.613 142.735 146.149C143.16 147.965 144.572 148.745 146.609 148.481C148.185 148.275 149.044 147.186 149.078 145.342C149.075 144.881 149.068 144.421 149.068 143.957H149.082ZM127.733 144.236C127.733 144.85 127.733 145.462 127.733 146.077C127.733 147.584 128.849 148.385 129.955 148.896C131.061 149.408 132.191 149.209 133.132 148.165C134.688 146.447 134.811 142.669 133.255 140.866C132.101 139.52 130.786 139.42 129.223 140.258C127.475 141.189 127.685 142.714 127.719 144.236H127.733Z" fill="#FF99C2"/>
<path d="M260.765 364.335C243.513 366.145 226.21 364.778 208.934 365.06C203.999 365.139 197.411 369.143 196 374.419C195.12 377.699 195.454 380.824 195.722 383.977C196.096 388.353 196.7 392.711 196.845 397.111C196.818 397.719 196.925 398.327 197.157 398.89C197.327 399.219 197.427 399.579 197.451 399.948C197.475 400.317 197.423 400.688 197.298 401.036C197.173 401.384 196.978 401.703 196.724 401.973C196.471 402.242 196.165 402.456 195.825 402.602C194.578 403.19 193.651 402.73 192.689 401.163C190.216 397.124 188.117 392.89 185.961 388.682C184.305 385.447 182.416 382.328 180.661 379.141C179.833 377.637 179.05 376.112 178.295 374.57C175.606 369.075 171.381 366.063 165.106 366.069C142.956 366.099 120.806 366.099 98.6583 366.069C73.7854 366.069 48.9125 366.063 24.0397 366.049C21.292 366.049 18.5101 365.949 16.0544 364.376C15.8311 364.232 15.4602 364.321 15.158 364.304L14.6394 364.167C14.6188 363.755 14.3921 363.61 14.0005 363.679C8.64953 361.151 4.95741 357.116 2.75588 351.613C1.51258 348.491 1.23097 345.301 1.23441 341.997C1.26646 316.664 1.27327 291.331 1.25495 265.997C1.25495 258.167 4.80286 252.046 10.9953 247.592C14.5365 245.023 18.7992 243.639 23.1741 243.639C32.3169 243.615 41.4631 243.639 50.6092 243.639C52.1445 243.639 53.6797 243.494 55.2149 243.415C59.6317 243.439 64.052 243.508 68.4688 243.474C72.2468 243.439 75.7053 244.161 78.7724 246.565C81.6986 248.856 83.4193 251.799 83.8074 255.412C84.023 257.821 83.9689 260.246 83.646 262.642C83.0552 267.687 82.3305 272.719 82.3408 277.816C82.3408 278.671 82.1656 279.67 83.2544 280.038C84.3431 280.405 85.6002 280.131 86.1325 279.152C86.9294 277.685 88.0215 276.425 88.7943 274.955C91.0405 270.675 93.2592 266.386 95.5157 262.106C96.9719 259.331 98.2633 256.432 99.9806 253.836C101.897 250.947 102.78 247.31 106.486 245.641C109.017 244.514 111.503 243.604 114.251 243.58C151.498 243.422 188.749 243.862 225.997 243.34C226.636 243.621 227.312 243.532 227.975 243.532C237.07 243.532 246.178 243.481 255.259 243.494C260.155 243.508 264.919 245.085 268.857 247.995C272.794 250.906 275.698 254.998 277.147 259.674C277.681 261.386 277.948 263.17 277.937 264.964C277.951 291.274 277.951 317.586 277.937 343.899C277.937 344.511 277.862 345.126 277.82 345.74C277.058 346.211 276.965 346.881 277.264 347.66C276.278 352.98 273.349 357.071 269.169 360.337C266.662 362.302 263.924 363.779 260.765 364.335ZM151.038 345.764H151.725C152.738 345.764 153.91 345.964 154.215 344.61C154.521 343.257 154.274 342.169 152.817 341.447C150.472 340.283 144.482 341.842 143.074 344.116C142.431 345.146 142.548 346.915 143.417 347.53C144.485 348.292 145.478 348.055 146.457 347.186C147.067 346.624 147.795 346.205 148.587 345.959C149.38 345.713 150.217 345.646 151.038 345.764ZM152.756 337.762C154.177 337.923 155.039 337.154 155.634 335.986C156.849 333.582 155.458 331.645 154.346 329.804C153.576 328.527 152.12 328.626 150.722 329.018C149.414 329.382 148.95 330.24 148.833 331.466C148.706 332.84 149.249 334.07 149.654 335.334C149.875 335.998 150.287 336.583 150.839 337.015C151.391 337.447 152.057 337.707 152.756 337.762ZM141.806 338.902C141.837 337.526 141.467 336.17 140.742 335.001C140.024 333.799 138.07 332.847 137.142 333.246C135.013 334.156 134.14 336.409 135.081 338.6C135.26 339.026 135.518 339.421 135.658 339.854C136.273 341.719 137.688 342.697 139.378 342.395C140.924 342.117 141.81 340.85 141.813 338.902H141.806Z" fill="#F24EB6"/>
<path d="M277.248 347.684C276.949 346.904 277.042 346.234 277.804 345.764C277.897 346.481 277.887 347.172 277.248 347.684Z" fill="#F24EB6"/>
<path d="M14 363.684C14.3915 363.616 14.6183 363.76 14.6389 364.172C14.2164 364.289 14.024 364.093 14 363.684Z" fill="#652FEB"/>
<path d="M139.051 94.0564C139.714 94.0564 140.384 94.0255 141.05 94.0564C145.069 94.2659 147.27 97.4222 145.735 101.207C144.681 103.8 142.792 105.346 140.181 105.741C137.389 106.163 134.951 105.133 133.47 102.615C131.938 100.002 131.588 97.2093 134.088 95.1177C135.527 93.9156 137.303 93.9911 139.051 94.0564ZM139.869 98.7342C138.917 98.7342 138.406 98.7136 137.901 98.7342C136.87 98.7892 136.812 99.5104 137.241 100.108C137.856 100.963 138.814 101.509 139.889 101.077C140.655 100.767 141.531 100.139 141.421 99.2563C141.318 98.4354 140.329 98.8544 139.728 98.7273C139.632 98.7067 139.525 98.7136 139.869 98.7342Z" fill="#0A0517"/>
<path d="M150.311 88.0735C150.187 89.2034 150.544 90.4467 149.534 91.508C148.525 92.5693 147.254 92.954 145.914 92.4628C144.575 91.9717 143.62 90.9413 143.613 89.3511C143.613 88.3208 143.613 87.2904 143.651 86.26C143.73 84.6252 145.458 82.9835 146.983 83.0488C147.849 83.0673 148.675 83.4155 149.294 84.0224C149.912 84.6293 150.276 85.4492 150.311 86.315C150.324 86.8817 150.311 87.4484 150.311 88.0735Z" fill="#0A0517"/>
<path d="M128.937 87.2685C129.102 86.4098 128.628 85.2936 129.391 84.3354C130.222 83.305 131.228 82.4601 132.616 82.7486C134.003 83.0371 135.198 84.0022 135.339 85.4653C135.48 86.9284 135.741 88.4019 135.144 89.8375C134.409 91.6097 133.083 92.3275 131.125 91.9875C129.827 91.7643 128.992 90.5622 128.941 88.8243C128.927 88.3744 128.937 87.9004 128.937 87.2685Z" fill="#0A0517"/>
<path d="M142.389 400.531C142.732 403.567 139.865 406.349 136.609 406.37C133.136 406.37 130.811 403.21 130.801 400.634C130.784 397.626 133.428 394.71 136.458 394.668C139.487 394.627 142.77 397.347 142.389 400.531ZM136.681 399.326C136.359 399.356 136.058 399.501 135.834 399.735C135.61 399.968 135.476 400.273 135.458 400.596C135.417 401.259 135.939 401.689 136.602 401.737C136.763 401.758 136.928 401.743 137.083 401.692C137.238 401.641 137.379 401.555 137.496 401.441C137.613 401.327 137.702 401.188 137.757 401.035C137.812 400.881 137.832 400.717 137.814 400.555C137.818 400.244 137.703 399.943 137.492 399.715C137.282 399.486 136.991 399.347 136.681 399.326Z" fill="#0A0517"/>
<path d="M130.474 392.997C128.99 393.204 125.188 389.687 125.583 387.502C125.755 386.558 125.985 385.785 126.957 385.558C127.929 385.332 129.093 385.057 129.722 386.359C129.865 386.567 130.019 386.767 130.182 386.96C131.123 388.478 131.614 388.574 132.84 387.468C134.297 386.159 135.588 386.472 136.618 388.103C137.305 389.161 136.618 389.845 136.175 390.408C134.984 391.936 133.328 392.785 130.474 392.997Z" fill="#0A0517"/>
<path d="M144.032 388.209L144.52 388.377C144.451 388.721 144.52 388.916 144.929 388.855C145.825 391.187 146.189 391.194 148.233 389.586C149.019 388.968 150.177 389.191 151.025 389.834C151.259 389.996 151.457 390.206 151.606 390.449C151.755 390.692 151.852 390.963 151.891 391.246C151.929 391.528 151.909 391.816 151.831 392.09C151.753 392.364 151.619 392.619 151.437 392.839C150.108 394.614 148.271 395.717 145.915 395.353C143.627 395.009 141.903 393.804 141.037 391.599C140.781 391.043 140.709 390.419 140.832 389.818C140.956 389.218 141.269 388.673 141.724 388.264L144.032 388.209Z" fill="#0A0517"/>
<path d="M144.031 388.209L141.723 388.264C142.471 387.364 143.241 387.354 144.031 388.209Z" fill="#F24EB6"/>
<path d="M144.927 388.848C144.532 388.91 144.449 388.704 144.518 388.37C144.858 388.353 144.988 388.518 144.927 388.848Z" fill="#F24EB6"/>
<path d="M151.038 345.762C150.213 345.64 149.371 345.704 148.574 345.95C147.777 346.197 147.045 346.618 146.432 347.184C145.45 348.053 144.461 348.29 143.392 347.527C142.534 346.912 142.417 345.154 143.049 344.113C144.457 341.839 150.447 340.28 152.793 341.445C154.249 342.166 154.51 343.272 154.191 344.608C153.871 345.944 152.714 345.758 151.701 345.762H151.038Z" fill="#0A0517"/>
<path d="M152.755 337.762C152.057 337.703 151.391 337.439 150.842 337.004C150.292 336.57 149.882 335.983 149.664 335.317C149.259 334.053 148.716 332.827 148.843 331.45C148.96 330.223 149.423 329.365 150.732 329.001C152.13 328.609 153.586 328.51 154.355 329.787C155.468 331.642 156.859 333.593 155.643 335.969C155.046 337.151 154.184 337.92 152.755 337.762Z" fill="#0A0517"/>
<path d="M141.814 338.901C141.814 340.848 140.925 342.116 139.372 342.394C137.682 342.696 136.281 341.707 135.653 339.852C135.512 339.42 135.254 339.025 135.076 338.599C134.148 336.408 135.021 334.155 137.136 333.244C138.064 332.846 140.018 333.797 140.736 335C141.466 336.168 141.841 337.523 141.814 338.901Z" fill="#0A0517"/>
<path d="M138.738 156.465C137.217 156.777 135.843 156.183 134.476 155.675C133.109 155.166 132.436 153.229 133.047 151.993C133.559 150.963 134.995 150.739 136.416 151.416C137.139 151.766 137.932 151.946 138.735 151.94C139.538 151.934 140.329 151.743 141.046 151.382C141.514 151.128 142.048 151.021 142.578 151.075C143.108 151.129 143.61 151.341 144.017 151.684C144.677 152.185 145.154 152.838 144.889 153.617C144.546 154.648 143.928 155.469 142.753 155.812C141.424 156.197 140.153 156.684 138.738 156.465Z" fill="#0A0517"/>
<path d="M149.07 143.958C149.07 144.422 149.07 144.882 149.07 145.332C149.036 147.176 148.177 148.265 146.601 148.471C144.564 148.736 143.166 147.956 142.726 146.139C142.362 144.604 142.039 143.048 142.774 141.478C143.386 140.153 144.835 139.054 145.886 139.215C146.748 139.313 147.544 139.723 148.124 140.369C148.703 141.015 149.025 141.851 149.029 142.718C149.029 143.127 149.029 143.539 149.029 143.948L149.07 143.958Z" fill="#0A0517"/>
<path d="M127.72 144.235C127.679 142.713 127.476 141.188 129.214 140.258C130.777 139.42 132.092 139.519 133.246 140.865C134.802 142.682 134.678 146.44 133.122 148.164C132.181 149.194 131.017 149.39 129.946 148.895C128.874 148.401 127.734 147.583 127.723 146.076C127.717 145.461 127.72 144.849 127.72 144.235Z" fill="#0A0517"/>
<path d="M139.866 98.731C139.522 98.7104 139.629 98.7035 139.725 98.731C140.326 98.8581 141.315 98.439 141.418 99.2599C141.528 100.143 140.652 100.771 139.886 101.08C138.811 101.513 137.853 100.967 137.238 100.112C136.809 99.521 136.874 98.7997 137.898 98.7379C138.403 98.7104 138.914 98.731 139.866 98.731Z" fill="#FE5122"/>
<path d="M136.678 399.33C136.988 399.351 137.279 399.49 137.49 399.719C137.701 399.948 137.816 400.249 137.812 400.56C137.829 400.722 137.81 400.886 137.754 401.039C137.699 401.193 137.61 401.332 137.493 401.446C137.376 401.559 137.235 401.645 137.08 401.696C136.925 401.748 136.761 401.763 136.599 401.741C135.936 401.693 135.414 401.264 135.455 400.601C135.474 400.278 135.607 399.972 135.831 399.739C136.056 399.506 136.356 399.361 136.678 399.33Z" fill="#652FEB"/>
</svg>
