<svg width="157" height="158" viewBox="0 0 157 158" fill="none" xmlns="http://www.w3.org/2000/svg">
<path d="M26.5053 69.5301C26.3107 68.9694 25.8299 69.1731 25.464 69.1712C21.1817 69.1517 16.8994 69.2449 12.6172 69.1226C8.72422 69.0121 5.43469 67.4503 2.90037 64.4392C0.829313 61.9791 0.0156761 59.1233 0.0215156 55.9396C0.0526593 42.3588 0.0585158 28.7715 0.039051 15.1778C0.039051 14.2775 0.039051 13.3773 0.039051 12.4771C0.0273721 9.01207 1.32178 6.06309 3.73736 3.64376C4.83001 2.57986 6.09985 1.71333 7.49018 1.08282C9.84348 -0.0249845 12.3213 -0.057975 14.8323 0.0312703C15.2411 0.0467912 15.6479 0.0409804 16.0566 0.0409804C58.6392 0.0409804 101.222 0.0370887 143.804 0.0293283C148.711 0.0293283 152.476 2.12661 155.053 6.20279C156.163 7.89697 156.771 9.86965 156.805 11.8931C156.822 26.7855 156.822 41.6791 156.805 56.574C156.805 57.9321 156.54 59.2145 155.722 60.4232C155.074 61.3816 154.903 62.633 154.144 63.5856C152.427 65.7649 150.065 67.3504 147.393 68.1177C146.136 68.4941 144.877 68.5057 143.604 68.5057C138.856 68.5057 134.109 68.5057 129.361 68.5057H127.465C127.734 69.0373 128.394 68.6415 128.478 69.1809C127.913 69.2759 127.39 68.8898 126.901 68.9073C125.414 68.9636 124.016 68.3757 122.525 68.4766C121.034 68.5775 119.497 68.4572 117.984 68.5096C116.319 68.5361 114.691 69.0049 113.268 69.8677C111.623 70.8746 111.931 74.8412 111.36 76.5C110.87 77.924 110.998 79.5014 111.24 80.9817C111.576 83.0557 111.551 85.1587 111.96 87.2289C112.197 88.4317 111.96 89.718 112.034 90.9636C112.073 91.6911 111.697 92.0151 111.131 92.2654C110.523 92.5331 110.101 92.0481 109.877 91.728C108.962 90.4145 107.218 86.4809 106.377 85.1111C105.283 83.3262 104.407 81.4075 103.426 79.5527C102.648 78.0608 101.91 76.532 101.019 75.104C100.069 73.583 99.6054 71.7205 97.8808 70.7136C96.4035 69.8502 94.9826 69.1343 93.147 69.1459C82.0248 69.2197 70.9026 69.0955 59.7804 69.208C48.6952 69.3109 37.5847 68.7172 26.5053 69.5301ZM78.1105 53.1303C77.1197 53.0915 76.1133 53.0488 75.2978 53.7298C73.8807 54.9113 74.0793 56.4886 74.9474 57.965C75.7864 59.3871 77.1683 59.9692 78.7508 59.7306C80.2301 59.5075 81.3007 58.6344 81.8983 57.1696C82.7684 55.0355 81.5207 53.2486 79.2433 53.1303C78.8657 53.1109 78.4764 53.1283 78.1046 53.1303H78.1105ZM84.4929 49.7506C84.4929 49.3975 84.4929 49.0774 84.4929 48.7592C84.4732 48.2702 84.2672 47.807 83.9167 47.4642C83.5662 47.1213 83.0977 46.9246 82.6068 46.9142C81.7426 46.8773 80.7635 47.8047 80.7187 48.7282C80.6895 49.3102 80.6934 49.8922 80.6973 50.4743C80.6973 51.3725 81.2248 51.9488 82.0015 52.232C82.7781 52.5153 83.4555 52.3135 84.053 51.6927C84.6506 51.0718 84.417 50.3889 84.4871 49.7506H84.4929ZM72.38 49.2966C72.38 49.6536 72.38 49.9136 72.38 50.1755C72.4092 51.1572 72.8822 51.8362 73.618 51.9623C74.7333 52.1563 75.4788 51.7489 75.8953 50.7478C76.234 49.9369 76.09 49.0852 76.0063 48.2781C75.9226 47.471 75.2666 46.92 74.4627 46.7434C73.6588 46.5669 73.1002 47.048 72.635 47.6398C72.199 48.1752 72.4676 48.8116 72.3741 49.2966H72.38Z" fill="#FE5122"/>
<path d="M147.86 68C149.222 68.031 150.689 68.1119 152.055 68.1643C153.934 68.2342 155.129 69.3808 156.127 70.8359C156.945 72.0271 156.826 73.358 156.826 74.687C156.826 93.6729 156.831 112.658 156.842 131.641C156.842 133.841 156.018 135.475 154.155 136.606C153.336 137.085 152.397 137.322 151.448 137.291C126.49 137.278 101.533 137.278 76.5765 137.291C72.2066 137.291 67.8368 137.225 63.4708 137.316C60.6367 137.374 58.3866 138.651 56.991 141.184C55.1243 144.572 53.2927 147.975 51.4532 151.38C50.3866 153.345 49.3335 155.32 48.2649 157.285C47.9107 157.937 47.3384 158.104 46.6396 157.943C45.8902 157.769 45.789 157.14 45.7306 156.552C45.6041 155.25 46.0635 154.001 46.1355 152.705C46.2795 150.136 46.6241 147.579 46.8615 145.014C47.0478 143.299 46.6001 141.574 45.6022 140.164C44.1949 138.237 42.2931 136.895 39.7082 136.895C28.2889 136.895 16.8734 136.9 5.46179 136.91C4.0027 136.927 2.59491 136.374 1.53965 135.37C0.566409 134.493 0.021398 133.463 0.0350234 132.101C0.0720065 128.415 0.0350234 124.728 0.0350234 121.042C0.0350234 105.222 0.052555 89.4008 0 73.5811C0 71.4276 0.794151 69.8367 2.61411 68.8686C3.92799 68.1721 5.46182 68.1507 6.95282 68.141C6.95282 68.141 11.3635 68.7929 12.9227 68.7949C27.0191 68.813 41.1155 68.8168 55.2119 68.8065C67.7654 68.8065 80.3183 68.8065 92.8705 68.8065C96.4267 68.8065 98.8209 70.508 100.345 73.6083C100.773 74.4794 101.217 75.3408 101.686 76.1906C102.681 77.991 103.751 79.7526 104.689 81.5802C105.912 83.9568 107.101 86.349 108.503 88.6306C109.048 89.5153 109.573 89.7753 110.28 89.4435C110.472 89.361 110.646 89.2399 110.79 89.0876C110.933 88.9354 111.044 88.7553 111.115 88.5586C111.186 88.3619 111.215 88.1527 111.202 87.9441C111.188 87.7356 111.131 87.532 111.035 87.3462C110.903 87.0281 110.843 86.6851 110.858 86.3413C110.776 83.856 110.434 81.394 110.221 78.9223C110.07 77.1412 109.881 75.3757 110.379 73.5229C111.179 70.5429 114.912 68.2846 117.71 68.2361C127.502 68.0576 138.083 69.0224 147.86 68ZM81.4349 81.654C81.4699 81.4599 81.3979 81.3746 81.2052 81.3843L80.9269 81.2892C80.4792 80.8119 80.0432 80.8177 79.6189 81.3202C79.3606 81.5516 79.1834 81.8593 79.1133 82.1983C79.0433 82.5373 79.084 82.8898 79.2296 83.2041C79.7201 84.4497 80.6972 85.1248 81.9936 85.3246C83.3288 85.5303 84.3702 84.9075 85.1235 83.9045C85.2264 83.7803 85.3024 83.6363 85.3467 83.4814C85.3909 83.3265 85.4024 83.1642 85.3804 83.0046C85.3585 82.845 85.3036 82.6917 85.2191 82.5544C85.1347 82.4171 85.0226 82.2988 84.8899 82.2069C84.4091 81.8441 83.7532 81.718 83.3074 82.0672C82.1493 82.9752 81.9429 82.9713 81.4349 81.654ZM79.9965 88.2503C80.2125 86.4519 78.3478 84.9114 76.6349 84.9327C74.922 84.9541 73.4193 86.6032 73.429 88.3027C73.429 89.7578 74.7526 91.5505 76.7205 91.5427C78.5658 91.5427 80.1892 89.9712 79.9965 88.2561V88.2503ZM73.2441 83.9937C74.8617 83.8734 75.7998 83.3942 76.4811 82.5367C76.7322 82.2185 77.1157 81.8324 76.7322 81.2349C76.1483 80.3133 75.4125 80.1368 74.5911 80.876C73.8962 81.5007 73.6178 81.4464 73.0845 80.5888C72.9918 80.4802 72.9047 80.3669 72.8237 80.2493C72.4675 79.514 71.8348 79.6673 71.2567 79.7973C70.6786 79.9272 70.5735 80.3618 70.4781 80.8953C70.2485 82.1293 72.4033 84.1159 73.2441 83.9995V83.9937Z" fill="#652FEB"/>
<path d="M78.1055 53.1308C78.4812 53.1308 78.8607 53.1133 79.2383 53.1308C81.5157 53.2491 82.7634 55.0321 81.8934 57.1701C81.2958 58.6349 80.2252 59.508 78.7459 59.7311C77.1634 59.9697 75.7814 59.3876 74.9425 57.9655C74.0744 56.4891 73.8758 54.9118 75.2928 53.7303C76.1084 53.0512 77.1148 53.0939 78.1055 53.1308ZM78.5688 55.7732C78.0296 55.7732 77.7396 55.7616 77.4534 55.7732C76.8695 55.8043 76.8364 56.2117 77.0797 56.5493C77.4281 57.0324 77.9712 57.3408 78.5804 57.0964C79.0145 56.9218 79.5109 56.5667 79.4486 56.0681C79.3902 55.6044 78.8296 55.8411 78.489 55.7693C78.4345 55.7577 78.3741 55.7616 78.5688 55.7732Z" fill="#0A0517"/>
<path d="M84.487 49.7516C84.417 50.3899 84.6194 51.0922 84.0472 51.6917C83.4749 52.2912 82.7547 52.5085 81.9956 52.231C81.2365 51.9536 80.6953 51.3716 80.6914 50.4733C80.6914 49.8912 80.6914 49.3092 80.7128 48.7272C80.7576 47.8037 81.7367 46.8763 82.6009 46.9132C83.0919 46.9236 83.5603 47.1204 83.9108 47.4632C84.2613 47.806 84.4673 48.2692 84.487 48.7582C84.4948 49.0783 84.487 49.3985 84.487 49.7516Z" fill="#0A0517"/>
<path d="M72.3732 49.2965C72.4666 48.8114 72.198 48.1809 72.6301 47.6396C73.1012 47.0576 73.6715 46.5803 74.4579 46.7433C75.2443 46.9062 75.9217 47.4514 76.0015 48.2779C76.0813 49.1044 76.2292 49.9367 75.8905 50.7477C75.474 51.7488 74.7226 52.1542 73.6131 51.9622C72.8774 51.8361 72.4043 51.157 72.3751 50.1753C72.3674 49.9212 72.3732 49.6534 72.3732 49.2965Z" fill="#0A0517"/>
<path d="M79.9972 88.2554C80.1918 89.9704 78.5665 91.5419 76.7212 91.5536C74.7533 91.5536 73.4356 89.7687 73.4297 88.3136C73.42 86.614 74.9188 84.9669 76.6356 84.9436C78.3524 84.9203 80.2132 86.4569 79.9972 88.2554ZM76.7621 87.5744C76.5796 87.5918 76.4093 87.6737 76.2822 87.8054C76.1551 87.9371 76.0795 88.1098 76.0691 88.2923C76.0458 88.6667 76.3416 88.9092 76.7173 88.9363C76.8089 88.9487 76.9022 88.9401 76.99 88.9111C77.0777 88.8822 77.1577 88.8338 77.2239 88.7695C77.2902 88.7052 77.3408 88.6267 77.3721 88.5399C77.4033 88.4532 77.4144 88.3606 77.4044 88.269C77.4068 88.0933 77.3416 87.9234 77.2221 87.7942C77.1026 87.665 76.938 87.5863 76.7621 87.5744Z" fill="#0A0517"/>
<path d="M73.2431 83.9977C72.4022 84.1142 70.2474 82.1275 70.4713 80.8936C70.5686 80.36 70.699 79.9235 71.2499 79.7955C71.8007 79.6674 72.4606 79.5122 72.8168 80.2475C72.8978 80.3651 72.9849 80.4784 73.0776 80.5871C73.611 81.4446 73.8893 81.4989 74.5842 80.8742C75.4095 80.135 76.1414 80.3115 76.7254 81.2331C77.1146 81.8306 76.7253 82.2167 76.4742 82.5349C75.7988 83.3982 74.8606 83.8775 73.2431 83.9977Z" fill="#0A0517"/>
<path d="M80.9271 81.293L81.2034 81.388C81.1645 81.582 81.2034 81.6926 81.4351 81.6577C81.9431 82.975 82.1494 82.9789 83.3076 82.071C83.7533 81.7217 84.4093 81.8478 84.8901 82.2106C85.0227 82.3026 85.1349 82.4209 85.2193 82.5582C85.3037 82.6955 85.3586 82.8488 85.3806 83.0083C85.4025 83.1679 85.3911 83.3303 85.3468 83.4852C85.3026 83.6401 85.2266 83.7841 85.1236 83.9082C84.3703 84.9113 83.329 85.5341 81.9937 85.3284C80.6974 85.1344 79.7202 84.4534 79.2297 83.2079C79.0842 82.8936 79.0434 82.5411 79.1135 82.2021C79.1835 81.8631 79.3607 81.5554 79.619 81.324L80.9271 81.293Z" fill="#0A0517"/>
<path d="M80.9272 81.2951L79.6191 81.3262C80.0435 80.8162 80.4795 80.8104 80.9272 81.2951Z" fill="#0A0517"/>
<path d="M81.4354 81.6541C81.2115 81.6891 81.1648 81.5723 81.2038 81.3835C81.3965 81.3738 81.4704 81.4672 81.4354 81.6541Z" fill="#0A0517"/>
<path d="M78.5682 55.7719C78.3735 55.7603 78.4339 55.7564 78.4884 55.7719C78.829 55.8437 79.3896 55.6071 79.448 56.0705C79.5103 56.5688 79.0139 56.9236 78.5799 57.0981C77.9706 57.3424 77.4276 57.0341 77.0792 56.5513C76.8358 56.2179 76.8728 55.8107 77.4529 55.7758C77.739 55.7603 78.029 55.7719 78.5682 55.7719Z" fill="#FE5122"/>
<path d="M76.7607 87.5762C76.9365 87.5881 77.1012 87.6666 77.2207 87.7958C77.3402 87.9249 77.4054 88.0946 77.403 88.2702C77.413 88.3618 77.4019 88.4544 77.3706 88.541C77.3394 88.6277 77.2887 88.7061 77.2225 88.7704C77.1563 88.8347 77.0763 88.8831 76.9885 88.912C76.9007 88.9409 76.8075 88.9495 76.7159 88.9372C76.3402 88.91 76.0443 88.6677 76.0677 88.2935C76.078 88.1112 76.1537 87.9386 76.2808 87.807C76.4079 87.6754 76.5781 87.5935 76.7607 87.5762Z" fill="#652FEB"/>
</svg>
