<svg width="184" height="32" viewBox="0 0 184 32" fill="none" xmlns="http://www.w3.org/2000/svg">
<path d="M16 0L9.63311 7.23673L0.783096 11.0557L5.69816 19.3473L6.59544 28.9443L16 26.832L25.4046 28.9443L26.3018 19.3473L31.2169 11.0557L22.3669 7.23673L16 0Z" fill="#FFD583"/>
<path d="M54 0L47.6331 7.23673L38.7831 11.0557L43.6982 19.3473L44.5954 28.9443L54 26.832L63.4046 28.9443L64.3018 19.3473L69.2169 11.0557L60.3669 7.23673L54 0Z" fill="#FFD583"/>
<path d="M92 0L85.6331 7.23673L76.7831 11.0557L81.6982 19.3473L82.5954 28.9443L92 26.832L101.405 28.9443L102.302 19.3473L107.217 11.0557L98.3669 7.23673L92 0Z" fill="#FFD583"/>
<path d="M130 0L123.633 7.23673L114.783 11.0557L119.698 19.3473L120.595 28.9443L130 26.832L139.405 28.9443L140.302 19.3473L145.217 11.0557L136.367 7.23673L130 0Z" fill="#FFD583"/>
<path d="M168 0L161.633 7.23673L152.783 11.0557L157.698 19.3473L158.595 28.9443L168 26.832L177.405 28.9443L178.302 19.3473L183.217 11.0557L174.367 7.23673L168 0Z" fill="#FFD583"/>
</svg>
