<svg width="54" height="54" viewBox="0 0 54 54" fill="none" xmlns="http://www.w3.org/2000/svg">
<path d="M-1.18021e-06 27L2.85279 24.2793L0.676945 20.9919L4.06363 18.9742L2.67384 15.2851L6.4246 14.0716L5.89055 10.1658L9.8173 9.81731L10.1658 5.89055L14.0716 6.4246L15.2851 2.67384L18.9742 4.06364L20.9919 0.676948L24.2793 2.85279L27 -1.18021e-06L29.7207 2.85279L33.0081 0.676947L35.0258 4.06364L38.7149 2.67384L39.9284 6.4246L43.8342 5.89055L44.1827 9.8173L48.1094 10.1658L47.5754 14.0716L51.3262 15.2851L49.9364 18.9742L53.3231 20.9919L51.1472 24.2793L54 27L51.1472 29.7207L53.3231 33.0081L49.9364 35.0258L51.3262 38.7149L47.5754 39.9284L48.1095 43.8342L44.1827 44.1827L43.8342 48.1094L39.9284 47.5754L38.7149 51.3262L35.0258 49.9364L33.0081 53.3231L29.7207 51.1472L27 54L24.2793 51.1472L20.9919 53.3231L18.9742 49.9364L15.2851 51.3262L14.0716 47.5754L10.1658 48.1094L9.81731 44.1827L5.89055 43.8342L6.4246 39.9284L2.67384 38.7149L4.06363 35.0258L0.676946 33.0081L2.85279 29.7207L-1.18021e-06 27Z" fill="#FDAB96"/>
<path d="M40.9813 27.2063C41.3757 26.8196 41.382 26.1865 40.9953 25.7921L34.6948 19.3654C34.3081 18.971 33.675 18.9648 33.2806 19.3514C32.8862 19.738 32.88 20.3712 33.2666 20.7655L38.8671 26.4782L33.1545 32.0787C32.7601 32.4653 32.7538 33.0985 33.1404 33.4928C33.5271 33.8872 34.1602 33.8935 34.5546 33.5068L40.9813 27.2063ZM40.2912 25.4922L15.2943 25.2445L15.2745 27.2444L40.2713 27.4921L40.2912 25.4922Z" fill="#1D1D1B"/>
</svg>
