<svg width="54" height="54" viewBox="0 0 54 54" fill="none" xmlns="http://www.w3.org/2000/svg">
<path d="M54 27L51.1472 24.2793L53.3231 20.9919L49.9364 18.9742L51.3262 15.2851L47.5754 14.0716L48.1095 10.1658L44.1827 9.81731L43.8342 5.89055L39.9284 6.4246L38.7149 2.67384L35.0258 4.06364L33.0081 0.676948L29.7207 2.85279L27 -1.18021e-06L24.2793 2.85279L20.9919 0.676947L18.9742 4.06364L15.2851 2.67384L14.0716 6.4246L10.1658 5.89055L9.81731 9.8173L5.89055 10.1658L6.4246 14.0716L2.67385 15.2851L4.06364 18.9742L0.67695 20.9919L2.8528 24.2793L1.18021e-06 27L2.8528 29.7207L0.676949 33.0081L4.06364 35.0258L2.67384 38.7149L6.4246 39.9284L5.89055 43.8342L9.81731 44.1827L10.1658 48.1094L14.0716 47.5754L15.2851 51.3262L18.9742 49.9364L20.9919 53.3231L24.2793 51.1472L27 54L29.7207 51.1472L33.0081 53.3231L35.0258 49.9364L38.7149 51.3262L39.9284 47.5754L43.8342 48.1094L44.1827 44.1827L48.1094 43.8342L47.5754 39.9284L51.3262 38.7149L49.9364 35.0258L53.3231 33.0081L51.1472 29.7207L54 27Z" fill="#FDAB96"/>
<path d="M13.0187 27.2063C12.6243 26.8196 12.618 26.1865 13.0047 25.7921L19.3052 19.3654C19.6919 18.971 20.325 18.9648 20.7194 19.3514C21.1138 19.738 21.12 20.3712 20.7334 20.7655L15.1329 26.4782L20.8455 32.0787C21.2399 32.4653 21.2462 33.0985 20.8596 33.4928C20.4729 33.8872 19.8398 33.8935 19.4454 33.5068L13.0187 27.2063ZM13.7088 25.4922L38.7057 25.2445L38.7255 27.2444L13.7287 27.4921L13.7088 25.4922Z" fill="#1D1D1B"/>
</svg>
