<svg width="26" height="35" viewBox="0 0 26 35" fill="none" xmlns="http://www.w3.org/2000/svg">
<path fill-rule="evenodd" clip-rule="evenodd" d="M10.5442 0.0524364C10.4623 0.102654 10.4612 0.2204 10.537 0.796606C10.6651 1.76936 10.5952 3.05949 10.3686 3.90745C9.86835 5.77981 8.8771 7.22498 6.08667 10.1506C3.91721 12.4251 3.28599 13.166 2.41438 14.4608C-0.394851 18.634 -0.784551 23.9548 1.41317 28.1302C3.96053 32.9699 9.48303 35.6992 14.9994 34.8446C19.3485 34.1709 23.1471 31.2621 24.9315 27.239C25.6433 25.6344 25.9295 24.397 25.9909 22.6589C26.0812 20.1006 25.5002 17.6245 24.268 15.316C23.8141 14.4657 23.0171 13.2959 22.8483 13.2326C22.6073 13.142 22.548 13.2682 22.548 13.8722C22.548 14.9405 22.226 15.7044 21.5058 16.3445C20.219 17.4883 18.3879 17.4129 17.1837 16.1666C16.2542 15.2044 16.1423 14.4907 16.5676 12.2373C16.7061 11.5035 16.8393 10.6876 16.8637 10.4242C16.9175 9.84411 16.7975 8.52716 16.6144 7.68755C15.9716 4.74022 14.0787 2.17842 11.0881 0.208495C10.731 -0.0267218 10.6917 -0.0380106 10.5442 0.0524364ZM11.5142 17.3514C11.5533 17.4233 11.5551 17.8405 11.5188 18.3948C11.4561 19.3525 11.531 20.839 11.6682 21.359C11.8068 21.8842 12.0394 22.3932 12.353 22.8573C13.6588 24.7897 16.4874 25.1939 18.4059 23.7222C18.5956 23.5767 18.7936 23.4576 18.8459 23.4576C19.0804 23.4576 19.3827 24.3098 19.5076 25.3229C19.7459 27.2556 18.9935 29.1903 17.451 30.6111C14.6811 33.1625 10.2689 32.8454 7.88529 29.9236C6.80085 28.5944 6.34049 27.0028 6.50605 25.1557C6.69563 23.0412 7.36388 21.5129 8.9342 19.6022C9.63679 18.7473 11.1685 17.2301 11.328 17.231C11.3946 17.2313 11.4784 17.2855 11.5142 17.3514Z" fill="#F53E6A"/>
</svg>
