<svg width="22" height="22" viewBox="0 0 22 22" fill="none" xmlns="http://www.w3.org/2000/svg">
<path d="M11.0032 22C9.0502 22.0007 7.13226 21.4808 5.44685 20.4939C4.63745 20.0161 3.89157 19.4381 3.22689 18.7736C2.56086 18.1078 1.98278 17.3595 1.50674 16.5469C1.02412 15.7339 0.65091 14.8608 0.39677 13.9501C-0.132257 12.0385 -0.132257 10.0191 0.39677 8.10748C0.651551 7.19705 1.02473 6.32401 1.50674 5.51074C1.98068 4.68099 2.55876 3.91524 3.22689 3.23211C3.88953 2.56156 4.63564 1.97901 5.44685 1.49879C6.28051 1.01636 7.1728 0.643259 8.10171 0.388689C10.0146 -0.129563 12.0309 -0.129563 13.9437 0.388689C14.8525 0.647923 15.7249 1.02091 16.5402 1.49879C17.3559 1.97809 18.1064 2.56067 18.7731 3.23211C19.4377 3.89915 20.0156 4.64728 20.4932 5.45881C20.9747 6.27318 21.3499 7.14585 21.6097 8.05554C22.1301 9.96832 22.1301 11.9854 21.6097 13.8982C21.0969 15.7336 20.12 17.406 18.7731 18.7541C18.1056 19.4264 17.3552 20.011 16.5402 20.4939C14.8566 21.4797 12.9411 21.9995 10.9903 22H11.0032ZM17.2477 12.7167H17.0919C16.9262 12.7153 16.7645 12.7677 16.631 12.866C16.4901 12.9613 16.3922 13.1082 16.3584 13.275C16.1409 14.1581 15.7056 14.9726 15.0921 15.644C14.4786 16.3153 13.7066 16.8222 12.8467 17.1181C12.2623 17.3213 11.6479 17.4244 11.0292 17.4233C9.79527 17.4216 8.59674 17.0106 7.62137 16.2547C7.14834 15.8934 6.74009 15.4544 6.41402 14.9564C6.07685 14.434 5.82897 13.8592 5.68053 13.2555C5.65319 13.0894 5.56243 12.9405 5.42738 12.84C5.29837 12.738 5.13735 12.6851 4.97299 12.6907C4.91916 12.6832 4.86455 12.6832 4.81072 12.6907C4.64566 12.7164 4.49687 12.8048 4.39529 12.9374C4.29338 13.0668 4.23845 13.2271 4.23951 13.3918V13.4827C4.23638 13.5086 4.23638 13.5347 4.23951 13.5606C4.59822 15.0955 5.45956 16.4665 6.68666 17.4557C7.9184 18.4212 9.43823 18.9459 11.0032 18.9459C12.5682 18.9459 14.0881 18.4212 15.3198 17.4557C15.9186 16.9824 16.436 16.4145 16.8517 15.7743C17.2841 15.1146 17.6002 14.3856 17.7864 13.619C17.7903 13.5542 17.7903 13.4891 17.7864 13.4243C17.788 13.2673 17.7327 13.1151 17.6307 12.9958C17.5348 12.8656 17.401 12.7681 17.2477 12.7167ZM5.82334 6.56242C5.64314 6.5612 5.46467 6.59751 5.29927 6.66904C5.13388 6.74057 4.98518 6.84576 4.86265 6.9779C4.7233 7.13223 4.61597 7.31269 4.54689 7.50882C4.4778 7.70496 4.44834 7.91285 4.4602 8.12046V8.58138C4.45938 8.72082 4.47243 8.86 4.49915 8.99686C4.52435 9.12822 4.58242 9.25105 4.66792 9.35391C4.70569 9.29898 4.7604 9.25794 4.8237 9.23706C4.91664 9.20007 5.01209 9.1697 5.10931 9.14617C5.2247 9.11881 5.3418 9.09929 5.45983 9.08774H5.82334H6.18034C6.30265 9.09933 6.42408 9.11884 6.54385 9.14617C6.64134 9.16875 6.73684 9.19914 6.82945 9.23706C6.89537 9.2562 6.95267 9.29746 6.99173 9.35391C7.06745 9.26289 7.11683 9.15288 7.13453 9.03581C7.14182 8.91041 7.14182 8.78469 7.13453 8.65928V8.12046C7.15988 7.70322 7.01998 7.29277 6.74507 6.9779C6.62977 6.84712 6.48793 6.74243 6.32899 6.67078C6.17005 6.59914 5.99767 6.5622 5.82334 6.56242ZM16.1767 6.56242C15.9965 6.5612 15.818 6.59751 15.6526 6.66904C15.4872 6.74057 15.3385 6.84576 15.216 6.9779C15.0766 7.13223 14.9693 7.31269 14.9002 7.50882C14.8311 7.70496 14.8017 7.91285 14.8135 8.12046V8.5684C14.8063 8.71113 14.8063 8.85413 14.8135 8.99686C14.8294 9.12623 14.8786 9.24926 14.9563 9.35391C14.9981 9.29737 15.0575 9.25628 15.1251 9.23706C15.2225 9.20019 15.3223 9.16983 15.4237 9.14617C15.5436 9.11983 15.665 9.10033 15.7872 9.08774H16.1507H16.5142C16.6323 9.09874 16.7494 9.11827 16.8647 9.14617C16.9619 9.1697 17.0574 9.20007 17.1503 9.23706C17.2136 9.25794 17.2683 9.29898 17.3061 9.35391C17.3808 9.26471 17.4301 9.15709 17.4489 9.0423C17.4593 8.92351 17.4593 8.80404 17.4489 8.68525V8.12046C17.4726 7.70457 17.3355 7.29548 17.0659 6.9779C16.954 6.85146 16.8174 6.74934 16.6644 6.67787C16.5114 6.60641 16.3454 6.56711 16.1767 6.56242Z" fill="#F9F3E9"/>
</svg>
