<svg width="136" height="136" viewBox="0 0 136 136" fill="none" xmlns="http://www.w3.org/2000/svg">
<path d="M46.6683 11.2022C46.8151 10.2532 48.104 9.97335 48.591 10.801C49.8751 12.9832 51.6092 16.0505 52.3509 17.9049C53.5984 21.0237 55.2759 25.3901 55.152 28.353C55.028 31.3159 36.2749 31.6278 38.946 28.353C41.6171 25.0782 42.6825 23.8307 44.5538 19.4643C45.6349 16.9416 46.2997 13.5862 46.6683 11.2022Z" fill="#F9F3E9"/>
<path d="M11.2031 46.6686C10.2541 46.8153 9.9742 48.1042 10.8018 48.5912C12.9841 49.8754 16.0513 51.6094 17.9057 52.3512C21.0246 53.5987 25.3909 55.2762 28.3538 55.1522C31.3167 55.0283 31.6286 36.2751 28.3538 38.9463C25.079 41.6174 23.8315 42.6828 19.4651 44.5541C16.9425 45.6352 13.587 46.3 11.2031 46.6686Z" fill="#F9F3E9"/>
<path fill-rule="evenodd" clip-rule="evenodd" d="M62.2366 62.7104C64.3108 60.6362 67.6812 60.6436 69.7645 62.7269L107.888 100.85L118.675 90.0626C120.75 87.9884 124.12 87.9958 126.203 90.0791C128.287 92.1625 128.294 95.5328 126.22 97.607L107.921 115.906L62.2531 70.2382C60.1698 68.1549 60.1624 64.7846 62.2366 62.7104Z" fill="#F9F3E9"/>
<path fill-rule="evenodd" clip-rule="evenodd" d="M87.6109 93.6783C85.5276 91.5949 85.5202 88.2246 87.5944 86.1504L97.6628 76.082C99.737 74.0078 103.107 74.0152 105.191 76.0985C107.274 78.1818 107.281 81.5522 105.207 83.6264L95.1388 93.6948C93.0646 95.769 89.6943 95.7616 87.6109 93.6783Z" fill="#F9F3E9"/>
<path fill-rule="evenodd" clip-rule="evenodd" d="M58.3845 59.0181C63.901 53.5016 63.8813 44.5379 58.3405 38.9972C52.7998 33.4564 43.8361 33.4367 38.3196 38.9532C32.8031 44.4697 32.8228 53.4334 38.3636 58.9741C43.9043 64.5149 52.868 64.5346 58.3845 59.0181ZM65.9289 66.5625C75.5938 56.8976 75.5593 41.1932 65.8519 31.4858C56.1445 21.7784 40.4401 21.7439 30.7752 31.4088C21.1103 41.0737 21.1448 56.7781 30.8522 66.4855C40.5597 76.1929 56.264 76.2274 65.9289 66.5625Z" fill="#F9F3E9"/>
</svg>
