<svg width="140" height="130" viewBox="0 0 140 130" fill="none" xmlns="http://www.w3.org/2000/svg">
<path d="M97.1437 11.1548C97.1092 10.1951 95.8619 9.76621 95.2813 10.5311C93.7504 12.5479 91.669 15.3909 90.7151 17.1456C89.1108 20.0969 86.9334 24.2367 86.7095 27.1937C86.4855 30.1507 105.073 32.6572 102.804 29.0921C100.535 25.5269 99.6228 24.1632 98.2759 19.6077C97.4977 16.9757 97.2306 13.5655 97.1437 11.1548Z" fill="#F9F3E9"/>
<path d="M128.21 50.5313C129.136 50.7882 129.263 52.1011 128.384 52.4878C126.066 53.5074 122.817 54.8702 120.888 55.3897C117.645 56.2633 113.112 57.4178 110.184 56.9476C107.256 56.4774 109.143 37.8168 112.082 40.8532C115.022 43.8895 116.136 45.0937 120.253 47.4636C122.632 48.8328 125.886 49.886 128.21 50.5313Z" fill="#F9F3E9"/>
<path fill-rule="evenodd" clip-rule="evenodd" d="M75.6488 60.4847C73.8318 58.1818 70.4838 57.7944 68.1708 59.6193L25.8443 93.0144L16.3946 81.0375C14.5777 78.7346 11.2297 78.3472 8.91665 80.1721C6.60363 81.9971 6.20148 85.3433 8.01844 87.6462L24.0479 107.963L74.7506 67.9588C77.0636 66.1338 77.4657 62.7876 75.6488 60.4847Z" fill="#F9F3E9"/>
<path fill-rule="evenodd" clip-rule="evenodd" d="M46.8216 88.2671C49.1347 86.4421 49.5368 83.0958 47.7198 80.793L38.9002 69.6145C37.0832 67.3116 33.7352 66.9242 31.4222 68.7491C29.1092 70.5741 28.707 73.9203 30.524 76.2232L39.3437 87.4017C41.1606 89.7046 44.5086 90.092 46.8216 88.2671Z" fill="#F9F3E9"/>
<path fill-rule="evenodd" clip-rule="evenodd" d="M79.9069 57.269C75.0746 51.1443 76.1441 42.2447 82.2958 37.3911C88.4474 32.5375 97.3517 33.568 102.184 39.6927C107.016 45.8174 105.947 54.717 99.7951 59.5706C93.6435 64.4242 84.7392 63.3937 79.9069 57.269ZM71.5307 63.8778C63.0645 53.1473 64.9383 37.5551 75.716 29.0516C86.4937 20.5481 102.094 22.3535 110.56 33.0839C119.026 43.8144 117.153 59.4066 106.375 67.9101C95.5972 76.4136 79.9969 74.6082 71.5307 63.8778Z" fill="#F9F3E9"/>
</svg>
