<svg width="32" height="28" viewBox="0 0 32 28" fill="none" xmlns="http://www.w3.org/2000/svg">
<path d="M25.4396 0.636719C25.0349 0.637204 24.6365 0.737345 24.2796 0.928298C23.9227 1.11925 23.6183 1.39514 23.3933 1.73161L18.2184 0.800422L17.3719 0.647311L17.0888 1.52746L14.6612 9.07613C11.391 9.33103 8.49897 10.4637 6.44133 12.1326C6.14094 11.7754 5.76615 11.4881 5.34317 11.2908C4.9202 11.0936 4.45923 10.9911 3.99252 10.9905C3.20523 10.9947 2.44702 11.2885 1.86251 11.8159C1.278 12.3433 0.908081 13.0675 0.823321 13.8502C0.738561 14.6329 0.944888 15.4194 1.40295 16.0598C1.861 16.7001 2.53874 17.1494 3.30689 17.322C3.27326 17.5914 3.25296 17.8639 3.25296 18.1395C3.25296 23.1784 8.99191 27.2607 16.0719 27.2607C23.1519 27.2607 28.8909 23.1784 28.8909 18.1395C28.8909 17.8645 28.8704 17.5927 28.837 17.3239C29.607 17.1531 30.287 16.7043 30.7468 16.0634C31.2066 15.4225 31.4139 14.6345 31.329 13.8503C31.2441 13.0661 30.873 12.3408 30.2867 11.8131C29.7004 11.2855 28.9401 10.9926 28.1513 10.9905C27.6846 10.9911 27.2237 11.0936 26.8007 11.2908C26.3777 11.4881 26.0029 11.7754 25.7025 12.1326C23.6811 10.4931 20.8528 9.37499 17.6531 9.09442L18.8289 2.91316L23.0419 3.67198C23.1701 4.21153 23.4765 4.69207 23.9116 5.03595C24.3467 5.37983 24.8851 5.56696 25.4396 5.56709C26.0934 5.56709 26.7205 5.30737 27.1828 4.84505C27.6451 4.38274 27.9048 3.75571 27.9048 3.1019C27.9048 2.4481 27.6451 1.82107 27.1828 1.35875C26.7205 0.896443 26.0934 0.636719 25.4396 0.636719ZM10.7227 13.9487C12.044 13.9487 13.1137 15.0531 13.1137 16.4139C13.1137 17.7747 12.044 18.8791 10.7227 18.8791C9.40626 18.9087 8.33163 17.7747 8.33163 16.4139C8.33163 15.0531 9.40626 13.9487 10.7227 13.9487ZM21.4212 13.9487C22.7376 13.9487 23.8122 15.0531 23.8122 16.4139C23.8122 17.7747 22.7376 18.9087 21.4212 18.8791C20.0998 18.8791 19.0301 17.7747 19.0301 16.4139C19.0301 15.0531 20.0998 13.9487 21.4212 13.9487ZM11.2398 21.0486C11.2546 21.0585 13.0299 22.5278 16.0719 22.5278C19.114 22.5278 21.0568 21.2752 21.0716 21.2653L22.0866 22.626C21.9929 22.695 19.8091 24.3025 16.0719 24.3025C12.3347 24.3025 10.1509 22.695 10.0573 22.626L11.2398 21.0486Z" fill="white"/>
</svg>
