<svg width="259" height="259" viewBox="0 0 259 259" fill="none" xmlns="http://www.w3.org/2000/svg">
<path d="M129.5 0L146.922 19.5011L169.518 6.33818L180.061 30.2686L205.618 24.7323L208.25 50.7495L234.268 53.3818L228.731 78.9391L252.662 89.4823L239.499 112.078L259 129.5L239.499 146.922L252.662 169.518L228.731 180.061L234.268 205.618L208.25 208.25L205.618 234.268L180.061 228.731L169.518 252.662L146.922 239.499L129.5 259L112.078 239.499L89.4823 252.662L78.9391 228.731L53.3818 234.268L50.7495 208.25L24.7323 205.618L30.2686 180.061L6.33818 169.518L19.5011 146.922L0 129.5L19.5011 112.078L6.33818 89.4823L30.2686 78.9391L24.7323 53.3818L50.7495 50.7495L53.3818 24.7323L78.9391 30.2686L89.4823 6.33818L112.078 19.5011L129.5 0Z" fill="#0A0517"/>
</svg>
