<svg width="246" height="210" viewBox="0 0 246 210" fill="none" xmlns="http://www.w3.org/2000/svg">
<path d="M123 0L137.404 18.2052L156.185 4.56117L165.143 25.9774L186.909 17.9064L189.756 40.9453L212.893 39.046L209.419 61.9988L232.21 66.412L222.672 87.5764L243.427 97.9749L228.533 115.781L245.713 131.394L226.568 144.522L238.898 164.19L216.921 171.666L223.487 193.932L200.308 195.2L200.624 218.412L177.962 213.38L172.003 235.817L151.539 224.857L139.749 244.854L123 228.78L106.252 244.854L94.4609 224.857L73.9967 235.817L68.0384 213.38L45.3762 218.412L45.6922 195.2L22.5127 193.932L29.0795 171.666L7.10191 164.19L19.4325 144.522L0.286743 131.394L17.4666 115.781L2.57265 97.9749L23.3276 87.5764L13.7901 66.412L36.5809 61.9988L33.1072 39.046L56.2435 40.9453L59.0912 17.9064L80.8571 25.9774L89.815 4.56117L108.596 18.2052L123 0Z" fill="#652FEB"/>
</svg>
