<svg width="174" height="174" viewBox="0 0 174 174" fill="none" xmlns="http://www.w3.org/2000/svg">
<path d="M93.3315 0.744841L107.059 18.6594L128.14 10.5991L133.394 32.5484L155.931 33.7594L151.804 55.9482L171.9 66.2211L159.104 84.8127L173.284 102.371L154.033 114.151L159.845 135.959L137.467 138.89L133.907 161.177L112.271 154.753L99.9539 173.665L82.8017 158.996L63.8571 171.263L54.1542 150.886L31.8579 154.387L31.282 131.825L9.48938 125.955L18.1401 105.109L0.619121 90.8824L17.0006 75.3574L6.78094 55.2343L28.0608 47.7145L26.9094 25.1745L49.4081 26.9601L57.5241 5.90044L77.3514 16.6827L93.3315 0.744841Z" fill="#F24EB6"/>
</svg>
