<svg width="170" height="169" viewBox="0 0 170 169" fill="none" xmlns="http://www.w3.org/2000/svg">
<path d="M85 0L99.138 18.486L119.573 7.34863L124.969 29.9868L148.167 28.1239L143.89 51L165.84 58.7336L152.627 77.8921L169.534 93.8849L149.672 106.013L158.612 127.5L135.534 130.501L134.962 153.766L112.658 147.121L102.672 168.143L85 153L67.3275 168.143L57.3419 147.121L35.0383 153.766L34.4662 130.501L11.3878 127.5L20.3282 106.013L0.465637 93.8849L17.3725 77.8921L4.16019 58.7336L26.1103 51L21.8327 28.1239L45.0306 29.9868L50.4274 7.34863L70.862 18.486L85 0Z" fill="#7F53E9"/>
<path d="M90 0L103.306 17.3986L122.539 6.91637L127.618 28.2229L149.452 26.4696L145.426 48L166.085 55.2786L153.649 73.3102L169.562 88.3623L150.868 99.7771L159.282 120L137.561 122.824L137.023 144.721L116.031 138.467L106.633 158.252L90 144L73.3671 158.252L63.9689 138.467L42.9772 144.721L42.4387 122.824L20.718 120L29.1324 99.7771L10.4382 88.3623L26.3506 73.3102L13.9155 55.2786L34.5744 48L30.5484 26.4696L52.3817 28.2229L57.4611 6.91637L76.6936 17.3986L90 0Z" fill="#F83D5E"/>

</svg>
