<svg width="114" height="62" viewBox="0 0 114 62" fill="none" xmlns="http://www.w3.org/2000/svg">
<path d="M5.42398 49.1645C10.0532 46.2473 21.4801 38.8232 30.8776 41.9608C40.2751 45.0984 44.2058 47.4227 54.6814 42.805C65.157 38.1872 65.5869 19.2683 55.9962 21.1832C46.7287 23.0336 55.9485 48.0485 75.463 42.8519C93.9417 37.9312 88.2727 21.8616 81.8918 18.0796C74.7831 13.8662 69.7422 22.0081 78.5096 29.8579C86.486 36.9994 97.0118 30.2217 101.965 22.5311C106.831 14.974 105.692 5.63509 105.035 0.999927" stroke="#1D1D1B" stroke-width="2"/>
<path d="M7.5529 47.8665C9.67832 47.5904 15.0829 45.9494 22.5865 50.3428" stroke="#1D1D1B" stroke-width="2"/>
<path d="M7.14689 48.0522C8.61451 46.4535 13.2994 43.2018 14.2413 34.402" stroke="#1D1D1B" stroke-width="2"/>
</svg>
