<svg width="338" height="228" viewBox="0 0 338 228" fill="none" xmlns="http://www.w3.org/2000/svg">
<path d="M3 0L0.113249 5L5.88675 5L3 0ZM2.5 4.5L2.50001 225.726L3.50001 225.726L3.5 4.5L2.5 4.5Z" fill="#0A0517"/>
<circle cx="3" cy="25" r="2" fill="#0A0517"/>
<circle cx="3" cy="45" r="2" fill="#0A0517"/>
<circle cx="3" cy="65" r="2" fill="#0A0517"/>
<circle cx="3" cy="85" r="2" fill="#0A0517"/>
<circle cx="3" cy="105" r="2" fill="#0A0517"/>
<circle cx="3" cy="125" r="2" fill="#0A0517"/>
<circle cx="3" cy="145" r="2" fill="#0A0517"/>
<circle cx="3" cy="165" r="2" fill="#0A0517"/>
<circle cx="3" cy="185" r="2" fill="#0A0517"/>
<circle cx="3" cy="205" r="2" fill="#0A0517"/>
<circle cx="3" cy="225" r="2" fill="#0A0517"/>
<circle cx="3" cy="225" r="2" fill="#0A0517"/>
<circle cx="22" cy="225" r="2" fill="#0A0517"/>
<circle cx="41" cy="225" r="2" fill="#0A0517"/>
<circle cx="60" cy="225" r="2" fill="#0A0517"/>
<circle cx="79" cy="225" r="2" fill="#0A0517"/>
<circle cx="98" cy="225" r="2" fill="#0A0517"/>
<circle cx="117" cy="225" r="2" fill="#0A0517"/>
<circle cx="136" cy="225" r="2" fill="#0A0517"/>
<circle cx="155" cy="225" r="2" fill="#0A0517"/>
<circle cx="174" cy="225" r="2" fill="#0A0517"/>
<circle cx="193" cy="225" r="2" fill="#0A0517"/>
<circle cx="212" cy="225" r="2" fill="#0A0517"/>
<circle cx="231" cy="225" r="2" fill="#0A0517"/>
<circle cx="250" cy="225" r="2" fill="#0A0517"/>
<circle cx="269" cy="225" r="2" fill="#0A0517"/>
<circle cx="288" cy="225" r="2" fill="#0A0517"/>
<circle cx="307" cy="225" r="2" fill="#0A0517"/>
<circle cx="326" cy="225" r="2" fill="#0A0517"/>
<path d="M338 224.998L332.999 222.114L333.001 227.888L338 224.998ZM2.00022 225.687L333.5 225.501L333.5 224.501L1.99978 224.688L2.00022 225.687Z" fill="#0A0517"/>
</svg>
