<svg width="141" height="141" viewBox="0 0 141 141" fill="none" xmlns="http://www.w3.org/2000/svg">
<path d="M103.442 132.628L85.8852 124.065L75.1755 140.401L62.6198 125.437L46.1915 136.004L40.8077 117.227L21.5014 120.199L24.2204 100.856L5.3743 95.7184L15.726 79.1531L0.598812 66.7944L16.7933 55.8716L8.00063 38.4287L27.2377 35.0371L26.2999 15.5259L45.2533 20.252L52.3325 2.04613L67.7251 14.0727L81.5972 0.320193L90.7674 17.5677L109.034 10.6465L110.396 30.1327L129.898 31.2395L123.217 49.5951L140.583 58.5385L127.014 72.5896L139.241 87.8233L121.129 95.1404L126.103 114.03L106.581 113.348L103.442 132.628Z" fill="#652FEB"/>
</svg>
