<svg width="400" height="354" viewBox="0 0 400 354" fill="none" xmlns="http://www.w3.org/2000/svg">
<path d="M312.844 315.003L333.497 315.308L351.444 315.572C356.452 315.646 361.606 316.052 366.583 315.335C375.491 314.055 380.376 307.663 384.017 300.315C363.066 300.315 342.113 300.163 321.16 299.858L312.844 315.003Z" fill="#FE5122"/>
<path d="M390.799 283.729C389.493 282.989 388.06 282.499 386.573 282.283C384.594 282.013 382.597 281.9 380.6 281.945C372.361 281.904 364.124 281.872 355.887 281.85L360.78 293.361L352.069 281.85L331.09 281.782L323.039 296.443C345.534 296.756 368.029 296.9 390.524 296.872C391.849 296.3 392.99 295.373 393.818 294.194C395.943 291.127 394.947 287.291 392.329 284.87C391.862 284.436 391.349 284.053 390.799 283.729Z" fill="#FE5122"/>
<path d="M255.047 298.406C257.427 304.226 260.724 309.715 266.769 312.369C271.056 314.252 275.853 314.438 280.463 314.522C286.409 314.634 292.362 314.698 298.298 314.786L310.782 314.969L310.966 299.689C292.324 299.378 273.684 298.95 255.047 298.406Z" fill="#FE5122"/>
<path d="M311.168 281.704H310.324L271.108 281.568L258.941 281.524H255.323H251.924C248.092 281.524 243.472 282.066 242.534 286.427C242.445 286.617 242.39 286.821 242.37 287.03C242.03 290.906 243.771 293.263 246.426 294.712C267.958 295.389 289.49 295.904 311.021 296.256L311.168 281.704Z" fill="#FE5122"/>
<path d="M306.316 145.974C310.831 134.722 315.477 123.526 320.255 112.387C319.426 144.89 318.381 177.383 317.121 209.866L320.52 211.447C321.382 189.46 322.144 167.469 322.808 145.473C323.128 134.823 323.421 124.174 323.689 113.525L346.069 173.598L348.3 169.687C345.238 161.467 342.178 153.248 339.12 145.032L324.161 104.925C324.102 104.762 324.018 104.609 323.913 104.471C323.913 104.417 323.944 104.356 323.913 104.309C323.706 103.91 323.536 103.493 323.407 103.063C323.219 90.6484 323.033 78.2261 322.849 65.7959C321.704 65.9923 320.537 66.0322 319.381 65.9144C319.572 78.7599 319.763 91.6065 319.956 104.454C319.868 104.572 319.792 104.699 319.732 104.833C306.942 134.375 295.049 164.283 284.055 194.556L287.199 196.015C293.296 179.213 299.669 162.532 306.316 145.974Z" fill="#353123"/>
<path d="M386.574 282.285C388.06 282.501 389.493 282.992 390.799 283.731C389.562 280.404 388.323 277.077 387.084 273.75L382.898 272.416C384.122 275.7 385.347 278.99 386.574 282.285Z" fill="#353123"/>
<path d="M283.286 206.956L280.784 203.662C275.999 217.117 271.394 230.627 266.967 244.193C266.576 245.395 266.196 246.597 265.805 247.802L269.932 246.333C274.216 233.146 278.667 220.021 283.286 206.956Z" fill="#353123"/>
<path d="M267.907 252.626L264.351 252.318C261.25 262.024 258.243 271.759 255.328 281.524H258.945C261.84 271.859 264.827 262.226 267.907 252.626Z" fill="#353123"/>
<path d="M373.863 248.144L378.004 259.263L383.386 263.813C379.007 252.053 374.627 240.295 370.246 228.537L367.594 231.313L373.863 248.144Z" fill="#353123"/>
<path d="M362.537 217.75L365.651 216.206C360.982 203.679 356.315 191.151 351.651 178.624L351.508 188.138C355.184 198.009 358.86 207.879 362.537 217.75Z" fill="#353123"/>
<path d="M189.733 30.4988C190.073 31.2708 190.386 32.0562 190.675 32.8451C190.675 32.7706 190.675 32.6928 190.675 32.6183C190.675 24.8074 189.498 9.35823 199.922 7.17104C211.508 4.73669 210.312 23.0637 210.485 29.5643C210.533 31.22 210.56 32.8756 210.577 34.5312C211.357 32.6414 212.266 30.8066 213.297 29.0396C215.738 24.8751 219.566 20.3788 224.934 21.0357C225.796 21.1452 226.64 21.3731 227.439 21.7128C225.335 16.6748 221.772 12.2564 217.998 8.36283C214.167 4.4049 209.458 0.802471 203.825 0.11178C197.365 -0.677098 191.606 2.84407 186.575 6.43973C182.325 9.4869 177.936 12.8252 175.25 17.3892C181.635 18.3508 187.21 24.7972 189.733 30.4988Z" fill="#FE5122"/>
<path d="M95.9979 24.7632C101.964 20.3956 110.229 20.2331 117.267 21.2556C124.304 22.2781 130.866 24.8106 136.842 28.3148C131.886 23.6562 127.475 18.4543 123.692 12.8082C109.971 6.34477 93.3733 5.44755 79.0808 10.1639C71.7917 12.5678 64.4279 20.9509 71.1152 28.1083C72.7616 29.8692 74.8245 31.1915 77.1157 31.9545C78.2475 32.3339 79.4133 32.6037 80.5971 32.7603C83.871 33.214 87.3693 32.933 90.7725 32.3303C91.5995 29.2896 93.4427 26.6204 95.9979 24.7632Z" fill="#FE5122"/>
<path d="M185.139 78.7591C185.01 78.9115 184.874 79.0537 184.758 79.2162C180.794 84.6334 183.694 90.8699 187.257 95.6709C197.177 93.8783 207.332 93.7935 217.28 95.4204C218.654 93.7688 219.567 91.7852 219.925 89.67C220.283 87.5549 220.074 85.383 219.32 83.3739C218.559 81.4201 217.366 79.6622 215.828 78.231C215.944 77.9737 216.056 77.7163 216.168 77.4624C205.88 75.2991 195.21 75.745 185.139 78.7591Z" fill="#FE5122"/>
<path d="M151.481 19.9412C146.354 15.235 142.556 7.75255 135.736 5.1997C130.334 3.16825 126.897 6.84856 126.938 11.5344C134.827 23.1002 145.419 32.5837 157.804 39.1688C161.942 40.0254 166.052 40.452 170.125 40.0187C169.581 36.3666 169.189 32.6998 168.948 29.0184C162.676 29.164 155.455 23.5978 151.481 19.9412Z" fill="#FE5122"/>
<path d="M187.926 99.0635C186.763 149.965 186.603 200.876 187.443 251.798C187.62 262.302 187.847 272.807 188.123 283.312C198.093 285.147 208.362 284.536 218.041 281.531C217.209 232.711 216.375 183.891 215.539 135.071L214.92 98.5692C205.953 97.2976 196.84 97.4645 187.926 99.0635Z" fill="#FE5122"/>
<path d="M186.739 286.592C185.258 288.143 184.409 290.188 184.359 292.328C196.058 297.704 209.487 296.15 221.444 291.163C221.308 288.834 220.344 286.629 218.724 284.943C208.36 288.101 197.375 288.667 186.739 286.592Z" fill="#FE5122"/>
<path d="M181.291 294.588C179.838 295.996 178.783 297.76 178.231 299.703C177.167 303.478 177.439 307.687 174.638 310.771C172.475 313.141 169.327 314.472 166.424 315.721C162.463 317.414 158.812 319.212 155.688 321.853C185.551 329.206 216.856 328.37 246.28 319.435C244.386 317.88 242.314 316.554 240.106 315.484C237.387 314.164 233.331 313.314 231.801 310.406C230.329 307.623 230.883 303.864 229.669 300.878C228.519 298.068 226.677 295.591 224.311 293.677C210.498 299.822 194.785 301.498 181.291 294.588Z" fill="#FE5122"/>
<path d="M152.847 324.7C152.507 325.09 152.191 325.492 151.881 325.916C148.092 331.053 146.259 337.363 146.707 343.721C146.722 344.058 146.838 344.383 147.04 344.654C147.242 344.924 147.52 345.129 147.839 345.241C147.853 345.587 147.979 345.919 148.198 346.187C148.418 346.455 148.719 346.645 149.056 346.728C184.541 356.91 222.259 356.389 257.447 345.231C257.814 344.965 258.111 344.614 258.311 344.208C258.512 343.802 258.611 343.354 258.599 342.902C257.932 335.121 254.628 327.798 249.23 322.134C217.989 332.032 184.574 332.922 152.847 324.7Z" fill="#FE5122"/>
<path d="M206.069 61.8845C206.069 61.2683 206.069 60.6487 206.069 60.0325V59.5348C206.1 55.5251 206.411 51.5225 207.001 47.556C207.075 44.2414 207.119 40.9267 207.113 37.6121C207.113 32.4691 206.987 27.3296 206.701 22.1968C206.48 18.2118 206.331 8.26108 199.684 10.8749C194.67 12.8454 194.656 19.6541 194.384 24.1267C194.094 28.9118 194.047 33.7015 194.245 38.4958C194.503 44.6855 195.144 50.8535 196.162 56.965L198.63 69.0521C198.668 69.2404 198.676 69.4335 198.654 69.6243L199.266 72.8103C201.53 72.6809 203.8 72.6662 206.066 72.7662L206.069 61.8845Z" fill="#FE5122"/>
<path d="M229.108 27.6311C226.728 24.611 223.464 22.9113 219.666 26.3174C216.212 29.4187 214.104 34.5075 212.66 38.7972C211.683 41.7191 210.952 44.7168 210.474 47.7593C210.378 51.9271 210.236 56.095 210.072 60.2628L209.641 73.0169C212.307 73.2775 214.954 73.6992 217.569 74.2798C220.699 67.2675 223.398 60.0719 225.65 52.7329L225.749 52.76C227.373 45.1402 228.576 37.4373 229.352 29.6862C229.298 28.9989 229.23 28.3116 229.108 27.6311Z" fill="#FE5122"/>
<path d="M195.294 70.0209L195.274 69.9668C194.526 66.8586 193.868 63.7325 193.299 60.5882L193.227 60.2497C192.932 58.6042 192.649 56.9587 192.401 55.3065C191.361 50.0044 190.276 44.7091 189.001 39.4714C187.835 34.6602 186.2 29.7814 182.93 25.9521C180.645 23.2774 177.181 20.8329 173.638 20.7686C172.862 23.0065 172.423 25.3466 172.336 27.7127C172.585 32.1249 173.057 36.5218 173.75 40.8866C176.113 52.6521 180.325 64.1263 185.122 75.1605C188.66 74.1669 192.276 73.4693 195.93 73.0749L195.294 70.0209Z" fill="#FE5122"/>
<path d="M104.41 24.8111C99.8072 25.8268 94.711 29.3006 93.8203 33.8679C95.0895 35.4236 96.8558 36.4991 98.8247 36.9151C104.071 38.0595 108.97 35.2831 113.675 33.4481C122.174 30.1267 130.816 31.6164 139.458 34.027C134.912 30.7998 129.91 28.2632 124.615 26.5006C118.251 24.4217 111.03 23.3417 104.41 24.8111Z" fill="#FE5122"/>
<path d="M276.525 35.2823C276.936 31.944 274.825 28.2163 271.105 28.2942C266.665 28.3822 262.606 33.5116 259.237 35.8308C251.03 41.4715 240.827 45.382 231.056 43.2795C230.49 46.7668 229.838 50.2405 229.102 53.7008C232.624 54.6947 236.198 55.4983 239.807 56.108C252.795 54.549 264.969 48.9851 274.624 40.1951C275.605 38.7129 276.254 37.0371 276.525 35.2823Z" fill="#FE5122"/>
<path d="M322.88 65.7764C323.404 65.6849 323.921 65.5559 324.426 65.3904C328.639 64.0361 331.015 60.0105 330.886 55.6937C330.733 51.0247 327.782 47.2293 324.178 44.497C311.218 34.7122 295.566 35.2201 280.573 39.2458C276.312 43.7453 271.438 47.6271 266.094 50.7776C271.733 49.6444 277.469 49.0503 283.222 49.0034C290.392 48.8917 298.051 49.7077 303.814 54.3834C306.428 56.4788 308.328 59.3275 309.253 62.5397C312.483 63.9447 315.927 65.5326 319.453 65.8814C320.595 65.9999 321.747 65.9646 322.88 65.7764Z" fill="#FE5122"/>
<path d="M298.006 54.8348C292.039 52.0111 285.005 52.2684 278.566 52.6476C271.933 53.037 265.209 54.0831 258.953 56.3042C264.794 55.4307 270.771 54.2727 276.632 55.5627C282.493 56.8527 286.783 61.0646 291.795 63.956C295.327 65.9874 300.243 68.1577 303.901 65.1918C304.7 64.553 305.299 63.7002 305.628 62.7337C304.397 59.3412 301.528 56.504 298.006 54.8348Z" fill="#FE5122"/>
<path d="M138.271 245.601C117.222 245.499 96.1732 245.427 75.1243 245.384H71.6532H68.0019L28.7859 245.252L16.6148 245.208C15.4113 245.208 14.2044 245.208 12.9975 245.208C11.862 245.208 10.723 245.208 9.59773 245.208C5.76622 245.208 1.14597 245.746 0.207646 250.111C0.119091 250.301 0.0638928 250.505 0.0444545 250.713C-0.295519 254.482 1.34656 256.808 3.87256 258.267C52.0605 259.772 100.263 260.492 148.48 260.427C149.693 259.855 150.735 258.977 151.503 257.881C153.628 254.813 152.632 250.977 150.014 248.557C149.545 248.129 149.032 247.752 148.484 247.432C147.178 246.693 145.745 246.203 144.258 245.987C142.276 245.7 140.274 245.571 138.271 245.601Z" fill="#FE5122"/>
<path d="M24.4295 276.026C28.7132 277.909 33.5137 278.095 38.1237 278.179C44.0698 278.288 50.0228 278.355 55.9587 278.444L91.1596 278.962L109.107 279.226C114.115 279.3 119.269 279.703 124.246 278.989C133.208 277.699 138.096 271.239 141.744 263.837C98.7082 263.837 55.6788 263.205 12.6562 261.941C15.0599 267.809 18.3406 273.355 24.4295 276.026Z" fill="#FE5122"/>
<path d="M77.6539 68.1037C77.5643 68.2209 77.489 68.3481 77.4295 68.4829C57.6815 114.1 40.0845 160.559 24.6383 207.86C20.604 220.248 16.7271 232.687 13.0078 245.178C14.2147 245.178 15.4216 245.178 16.6251 245.178C30.3646 199.317 46.1575 154.13 64.0039 109.616C68.5188 98.3643 73.1651 87.1688 77.9428 76.0297C76.7756 121.36 75.1981 166.683 73.2104 211.998C72.7163 223.13 72.1973 234.26 71.6533 245.388H75.1245C77.3275 199.983 79.1158 154.56 80.4893 109.119C80.8088 98.4671 81.1035 87.8178 81.3732 77.1707C98.0931 122.05 114.812 166.929 131.53 211.808L144.238 245.943C145.724 246.159 147.158 246.649 148.464 247.389C131.238 201.151 114.013 154.913 96.7876 108.675L81.8288 68.5642C81.7681 68.403 81.6846 68.2514 81.5806 68.1139C81.5806 68.0597 81.6112 67.9988 81.5806 67.9514C81.3737 67.552 81.203 67.135 81.0706 66.7054C80.9029 55.3903 80.734 44.0774 80.5641 32.7667C79.3803 32.6101 78.2145 32.3403 77.0827 31.9609L77.6539 68.1037Z" fill="#353123"/>
<path d="M228.279 42.5406C229.157 38.3288 229.711 33.9612 229.354 29.6748C228.577 37.4259 227.374 45.1287 225.75 52.7486C226.865 53.0849 227.98 53.4055 229.095 53.7102C229.836 50.2522 230.488 46.7784 231.05 43.2889C230.113 43.0929 229.188 42.8431 228.279 42.5406Z" fill="#353123"/>
<path d="M172.329 28.3002C171.263 28.7605 170.115 29.0067 168.953 29.0248C169.18 32.704 169.572 36.3707 170.129 40.0251C171.258 39.9071 172.379 39.7205 173.485 39.4664C173.573 39.9472 173.675 40.4246 173.771 40.9054C173.077 36.5405 172.605 32.1436 172.356 27.7314C172.346 27.921 172.332 28.1106 172.329 28.3002Z" fill="#353123"/>
<path d="M187.258 95.6717C187.496 96.0103 187.737 96.3082 187.979 96.613C187.979 97.4323 187.948 98.2517 187.928 99.071C196.84 97.4664 205.954 97.2938 214.922 98.5598C214.922 98.2212 214.922 97.8555 214.905 97.5C215.797 96.9287 216.599 96.228 217.284 95.4212C207.335 93.7939 197.179 93.8787 187.258 95.6717Z" fill="#353123"/>
<path d="M303.789 54.3964C298.01 49.7207 290.367 48.9048 283.197 49.0165C277.444 49.0634 271.709 49.6574 266.069 50.7906C271.413 47.6402 276.287 43.7584 280.549 39.2588C278.322 39.8547 276.129 40.5284 273.926 41.2564C274.171 40.9178 274.402 40.5792 274.606 40.2136C264.95 49.0036 252.777 54.5675 239.789 56.1266C245.535 57.0644 251.348 57.359 257.389 56.5295L258.943 56.306C265.199 54.0849 271.923 53.0388 278.556 52.6494C284.995 52.2702 292.029 52.0129 297.996 54.8366C301.518 56.5058 304.388 59.343 305.605 62.7355C305.777 62.2215 305.877 61.6858 305.9 61.1442L308.348 62.187L309.205 62.5561C308.286 59.3458 306.395 56.4961 303.789 54.3964Z" fill="#353123"/>
<path d="M126.943 11.5361C126.953 12.4766 127.095 13.4112 127.365 14.3124C127.412 14.4716 127.467 14.6239 127.518 14.7797C126.274 14.0687 124.995 13.4254 123.693 12.7956C127.475 18.4417 131.887 23.6437 136.843 28.3023C130.853 24.7981 124.336 22.2723 117.268 21.243C110.2 20.2138 101.969 20.3831 95.9988 24.7507C93.4404 26.6122 91.597 29.2878 90.7734 32.3347C91.433 32.2162 92.0926 32.091 92.7453 31.9522C92.9944 32.6475 93.3586 33.2964 93.823 33.8719C94.7137 29.3045 99.8099 25.8375 104.413 24.815C111.032 23.3456 118.254 24.4392 124.618 26.5079C129.913 28.2706 134.915 30.8071 139.461 34.0344C145.581 35.7476 151.731 37.9178 157.82 39.1739C145.431 32.5892 134.835 23.1043 126.943 11.5361Z" fill="#353123"/>
<path d="M184.357 292.329C184.357 292.451 184.357 292.569 184.357 292.688C183.208 293.088 182.163 293.737 181.297 294.587C194.797 301.497 210.511 299.821 224.331 293.686C223.439 292.956 222.483 292.307 221.475 291.746C221.475 291.55 221.458 291.357 221.448 291.164C209.484 296.151 196.055 297.705 184.357 292.329Z" fill="#353123"/>
<path d="M188.13 283.319C188.13 283.996 188.161 284.673 188.178 285.377C187.658 285.728 187.179 286.135 186.75 286.593C197.377 288.663 208.352 288.097 218.708 284.944C218.51 284.734 218.317 284.527 218.099 284.331C218.099 283.403 218.068 282.476 218.051 281.548C208.37 284.55 198.1 285.157 188.13 283.319Z" fill="#353123"/>
<path d="M155.701 321.847C154.672 322.717 153.719 323.672 152.852 324.701C184.578 332.922 217.994 332.033 249.234 322.134C248.311 321.172 247.329 320.267 246.293 319.426C216.869 328.362 185.564 329.198 155.701 321.847Z" fill="#353123"/>
<path d="M321.156 299.854C342.108 300.156 363.06 300.308 384.014 300.311C384.388 299.552 384.755 298.784 385.109 298.008C386.965 297.893 388.848 297.602 390.525 296.854C368.027 296.881 345.532 296.738 323.04 296.424L321.156 299.854Z" fill="#353123"/>
<path d="M311.001 296.235C289.47 295.876 267.938 295.362 246.406 294.691C248.653 295.917 251.55 296.489 254.385 296.78C254.593 297.322 254.81 297.864 255.031 298.406C273.669 298.95 292.308 299.377 310.95 299.689L311.001 296.235Z" fill="#353123"/>
<path d="M323.037 296.421L331.088 281.761L339.89 265.733L352.071 281.828L360.778 293.34L355.886 281.842L346.999 260.965L382.897 272.409L387.082 273.743L399.997 277.86L383.379 263.813L377.998 259.259L357.47 241.9L367.588 231.313L370.239 228.537L396.774 200.767L365.646 216.203L362.532 217.746L350.97 223.482L351.503 188.135L351.646 178.621L351.874 163.412L348.311 169.666L346.081 173.576L323.67 212.881L320.532 211.425L317.125 209.848L287.224 195.976L284.08 194.52L268.288 187.197L280.792 203.658L283.298 206.956L304.009 234.225L269.93 246.332L265.803 247.798L255.328 251.519L264.351 252.305L267.911 252.613L307.208 256.026L288.173 275.236L311.417 261.169L311.172 281.703L310.999 296.235L310.958 299.688L310.774 314.968L310.727 318.838L312.838 314.995L321.154 299.851L323.037 296.421Z" fill="#FF9072"/>
<path d="M12.0609 260.436C12.2513 260.937 12.4519 261.452 12.6559 261.94C55.6717 263.197 98.701 263.829 141.744 263.836C142.084 263.118 142.441 262.397 142.764 261.665C144.722 261.544 146.728 261.222 148.452 260.379C100.239 260.442 52.0362 259.722 3.84375 258.219C6.12838 259.532 9.12695 260.135 12.0609 260.436Z" fill="#353123"/>
<path d="M210.077 60.2616C210.24 56.0937 210.383 51.9259 210.478 47.758C210.956 44.7155 211.687 41.7179 212.664 38.796C214.109 34.5063 216.217 29.4175 219.671 26.3162C223.468 22.9101 226.746 24.6233 229.112 27.6298C228.904 26.2698 228.584 24.9291 228.156 23.6211C227.93 22.971 227.688 22.3311 227.432 21.7014C226.632 21.3617 225.789 21.1338 224.927 21.0242C219.559 20.3674 215.747 24.8637 213.289 29.0281C212.259 30.7952 211.35 32.63 210.57 34.5198C210.57 32.8642 210.525 31.2085 210.478 29.5529C210.304 23.0523 211.498 4.72527 199.915 7.15962C189.491 9.34681 190.671 24.7959 190.668 32.6068C190.668 32.6813 190.668 32.7592 190.668 32.8337C190.379 32.0448 190.066 31.2593 189.726 30.4874C187.203 24.7858 181.634 18.3393 175.233 17.3642C175.08 17.625 174.93 17.8856 174.787 18.1531C174.345 18.9973 173.965 19.8719 173.648 20.7703C177.191 20.8346 180.655 23.2791 182.94 25.9539C186.21 29.7831 187.846 34.662 189.012 39.4731C190.283 44.7109 191.368 50.0062 192.412 55.3083C192.66 56.9605 192.942 58.606 193.238 60.2514L193.309 60.59C193.883 63.732 194.541 66.8581 195.284 69.9685L195.305 70.0227L195.954 73.0901C192.3 73.4846 188.684 74.1822 185.146 75.1758C185.503 76.0019 185.864 76.8212 186.227 77.6406C185.841 77.9867 185.479 78.3601 185.146 78.7579C195.213 75.746 205.878 75.3001 216.162 77.4612C216.643 76.4003 217.115 75.3394 217.58 74.2785C214.965 73.698 212.318 73.2763 209.652 73.0157L210.077 60.2616ZM199.259 72.8092L198.647 69.6232C198.669 69.4324 198.661 69.2393 198.623 69.051L196.172 56.9673C195.153 50.8558 194.513 44.6877 194.254 38.498C194.064 33.7106 194.11 28.9209 194.394 24.129C194.666 19.6564 194.679 12.8477 199.694 10.8772C206.34 8.26337 206.493 18.2141 206.711 22.1991C206.996 27.3319 207.115 32.4714 207.122 37.6144C207.122 40.929 207.085 44.2436 207.01 47.5583C206.421 51.5248 206.109 55.5274 206.079 59.537V60.0347C206.079 60.6509 206.079 61.2705 206.079 61.8867V72.7685C203.806 72.6667 201.53 72.6803 199.259 72.8092Z" fill="#353123"/>
</svg>
