<svg width="336" height="288" viewBox="0 0 336 288" fill="none" xmlns="http://www.w3.org/2000/svg">
<path d="M66.6183 249.35C66.5558 249.055 66.4888 248.756 66.4219 248.457L67.2701 248.43C68.4486 247.894 68.6897 246.604 69.4441 245.72C75.4127 238.694 83.3767 234.819 91.6933 231.475L93.0772 231.516C93.3451 232.207 93.6442 232.891 93.8763 233.591C98.2288 246.711 102.595 259.827 106.885 272.97C107.376 274.465 108.086 275.264 109.661 275.679C122.318 278.996 135.177 281.491 148.156 283.148C152.781 283.741 157.423 284.197 162.066 284.715C162.173 283.764 161.745 283.206 161.468 282.617C154.995 268.903 148.482 255.207 142.031 241.484C138.522 234.024 135.107 226.52 131.652 219.034H132.313C132.813 220.114 133.513 220.436 134.786 220.199C145.299 218.244 155.937 217.195 166.584 216.369C180.217 215.315 193.882 214.833 207.556 215.123C213.265 215.244 218.993 215.213 224.684 215.842L226.564 215.887C239.188 236.984 251.797 258.089 264.388 279.201C265.344 280.809 266.223 281.3 268.08 280.929C276.46 279.273 284.767 277.327 293.079 275.322L293.526 276.081C284.151 278.969 274.585 280.965 264.929 282.558C234.965 287.505 204.819 288.594 174.539 286.764C152.053 285.402 129.813 282.429 108.126 276.13C97.4119 273.005 86.9435 269.251 77.5376 263.072C73.0734 260.135 69.1763 256.635 67.096 251.51C66.8789 251.125 66.7898 250.681 66.8415 250.243C67.2433 249.859 67.1272 249.555 66.6183 249.35Z" fill="#17263F"/>
<path d="M226.546 215.879L224.667 215.835C225.609 215.098 224.774 214.495 224.453 213.96C223.006 211.473 221.444 209.049 220.069 206.536C219.372 205.255 218.484 204.817 217.069 204.848C215.457 204.88 213.846 204.656 212.234 204.545C212.234 204.326 212.234 204.098 212.234 203.889H217.904C218.006 202.88 217.484 202.389 217.158 201.839C209.42 188.989 201.683 176.142 193.945 163.301C189.989 156.761 186.356 149.962 181.892 143.81C177.265 137.54 172.965 131.037 169.008 124.324C166.472 119.985 164.437 115.365 160.562 111.856C153.272 105.258 145.473 99.3563 137.487 93.6511C132.232 89.9057 132.206 89.1201 137.389 85.2586C139.304 86.2229 137.357 86.4818 137.023 86.7407C133.813 89.2138 133.79 89.8879 137.134 92.2226C143.589 96.7314 149.906 101.432 155.924 106.508C159.723 109.713 163.745 112.758 166.191 117.222C168.941 122.24 171.731 127.23 174.771 132.074C176.843 135.373 179.003 138.614 181.775 141.556C181.209 133.19 184.726 125.86 187.088 118.257C188.365 114.146 189.606 110.021 190.945 105.932C191.44 104.419 190.998 104.088 189.548 104.334C187.57 104.669 185.574 104.865 183.592 105.155C180.677 105.579 178.329 104.687 176.088 102.7C170.977 98.1689 165.611 93.9324 160.075 89.9191C159.243 89.3193 158.303 88.8844 157.308 88.6379C152.397 87.3478 147.263 86.9951 142.67 84.6202C142.379 84.4684 141.951 84.589 141.585 84.58C141.606 84.3579 141.552 84.1351 141.433 83.9467C141.313 83.7584 141.134 83.6152 140.924 83.5399C138.482 82.2542 136.589 80.2856 134.59 78.4508L133.625 76.9285C131.536 72.4242 131.92 71.7501 136.75 72.1653C156.156 73.8259 175.557 75.5402 194.744 79.0356C195.463 79.1695 196.19 79.2409 197.248 79.3838C195.172 74.567 193.146 70.0091 190.36 65.9557C186.811 60.7862 184.807 54.9694 182.552 49.2464C180.7 44.5501 179.075 39.7646 177.043 35.1353C176.151 33.1309 176.066 30.9524 175.878 28.8051C175.338 23.4811 175.413 18.1125 176.102 12.8056C176.655 8.94863 178.905 7.00226 182.476 7.00226C183.878 7.00226 184.369 7.49778 184.628 8.86827C185.9 15.5645 187.266 22.2607 188.668 28.9569C189.367 32.4663 190.75 35.8036 192.739 38.778C195.989 43.5502 199.087 48.4116 202.364 54.0319C202.543 49.7374 202.596 46.0858 202.86 42.452C203.676 31.1354 204.395 19.801 207.324 8.77007C207.944 6.45765 208.864 4.2479 210.667 2.57385C211.975 1.3596 213.453 0.511415 215.31 1.31496C217.096 2.09172 217.136 3.68094 217.024 5.28802C216.698 10.0379 216.314 14.7788 216.033 19.5286C215.922 21.3768 216.033 23.2383 216.033 25.2427C217.221 24.3499 218.359 23.3812 219.605 22.6C221.707 21.2964 223.881 20.9572 226.082 22.4839C227.345 23.3767 227.774 24.2294 227.006 25.8141C225.042 29.8854 222.43 33.68 221.363 38.1441C220.377 42.26 219.243 46.376 218.765 50.5589C218.444 53.3757 219.069 56.322 219.417 59.1925C220.042 64.2816 220.801 69.3529 221.457 74.4375C221.611 75.6122 222.151 76.7023 222.993 77.5356C225.93 80.6605 227.711 84.2318 227.542 88.754C227.037 102.062 226.145 115.289 223.631 128.422C222.323 135.275 223.462 142.042 227.979 147.846C244.318 168.827 261.242 189.362 277.888 210.129C278.83 211.303 280.036 211.589 281.339 211.888C294.12 214.839 306.628 218.584 318.213 224.897C324.061 228.084 329.507 231.812 333.177 237.593C334.784 240.137 335.324 242.999 335.409 246.043C334.069 238.852 329.82 233.749 324.052 229.669C319.904 226.781 315.475 224.318 310.834 222.316C301.356 218.151 291.468 215.245 281.402 212.902C280.989 212.847 280.573 212.816 280.156 212.808C283.562 217.044 286.754 221.013 289.941 224.986C289.866 225.299 289.785 225.616 289.709 225.928C287.366 223.147 284.973 220.406 282.692 217.58C265.576 196.349 248.483 175.101 231.412 153.837C229.055 150.89 226.265 148.163 224.779 144.649C222.14 138.4 221.801 132.078 223.18 125.271C225.627 113.173 226.211 100.816 226.591 88.4728C226.657 86.6835 226.35 84.9002 225.689 83.2362C225.028 81.5723 224.028 80.0641 222.752 78.8079C221.301 77.3163 220.411 75.3682 220.234 73.2947C219.515 67.402 218.721 61.5228 217.939 55.5185C213.627 64.1611 214.368 73.692 212.69 83.2408C212.398 82.9176 212.186 82.53 212.072 82.1096C211.958 81.6891 211.945 81.2477 212.033 80.8212C212.48 76.5357 212.984 72.2546 213.408 67.969C214.047 61.4826 217.011 55.5631 217.962 49.1526C219.172 41.0056 221.511 33.2291 225.68 26.0552C226.77 24.1803 226.203 23.0955 224.064 22.6446C223.291 22.4919 222.494 22.5028 221.725 22.6765C220.957 22.8503 220.233 23.1831 219.6 23.6535C217.163 25.2695 215.614 27.631 214.399 30.1935C210.123 39.2244 207.462 48.7866 204.922 58.4247C202.967 65.8485 201.471 73.4197 198.177 80.4864C195.721 85.7541 195.007 91.5575 194.012 97.2894C192.271 107.343 188.61 116.896 185.311 126.525C184.271 129.469 183.549 132.516 183.159 135.614C182.691 139.712 182.619 143.788 185.066 147.462C186.999 150.368 188.9 153.301 190.713 156.283C199.665 171.015 208.593 185.763 217.497 200.527C220.636 205.589 223.569 210.754 226.546 215.879ZM136.148 73.0269C135.286 73.2188 134.183 72.5313 133.688 73.5447C133.268 74.3929 133.835 75.2812 134.313 76.0312C134.826 76.8492 135.399 77.6281 136.027 78.3615C139.277 82.0533 143.491 84.1068 148.08 85.58C153.848 87.4282 159.839 87.7317 165.785 88.3031C169.115 88.6201 172.356 88.937 175.508 90.3477C180.657 92.6662 185.969 94.6058 191.4 96.1511C192.494 96.4591 193.391 96.7001 193.489 94.977C193.735 90.5664 194.967 86.3478 196.462 82.223C196.994 80.7677 196.909 80.3079 195.213 80.0445C183.284 78.2008 171.383 76.2187 159.33 75.2812C151.602 74.6919 143.87 73.7902 136.161 73.0269H136.148ZM197.878 77.9374C199.735 75.8571 199.739 73.3661 200.498 71.1519C202.061 66.5806 202.203 61.8263 202.409 57.072C202.432 56.1048 202.143 55.1559 201.583 54.3667C199.561 51.1615 197.788 47.7688 195.516 44.7599C190.315 37.8762 187.396 30.1444 186.039 21.7071C185.387 17.6894 184.427 13.6717 183.807 9.65396C183.548 7.95759 182.695 7.78794 181.36 7.99329C178.856 8.37721 177.343 9.96198 177.03 13.1896C176.227 21.7205 175.843 30.1533 179.414 38.3851C183.699 48.2375 186.449 58.7461 192.556 67.8127C194.663 70.9421 196.096 74.4866 197.891 77.9508L197.878 77.9374ZM203.739 59.2327C203.935 58.5407 204.154 57.8577 204.319 57.1568C206.051 49.8535 207.958 42.568 211.016 35.729C213.462 30.2738 215.422 24.899 215.248 18.7653C215.118 14.1092 215.806 9.43521 216.091 4.76573C216.149 3.79701 216.091 2.73008 215.047 2.25689C214.568 2.04199 214.039 1.96129 213.518 2.02341C212.997 2.08552 212.502 2.28812 212.087 2.60954C210.997 3.38852 210.133 4.44203 209.583 5.66302C208.795 7.34584 208.181 9.10498 207.752 10.9129C206.203 17.2073 205.462 23.6178 204.877 30.0551C203.998 39.7467 203.333 49.4473 203.752 59.2327H203.739ZM160.995 89.2004C165.66 92.9324 170.325 96.0663 174.227 99.9634C178.365 104.093 182.771 104.91 188.164 103.611C192.628 102.535 191.565 103.646 192.838 99.0796C193.146 97.9591 192.931 97.4948 191.78 97.2135C187.313 96.1146 182.961 94.596 178.78 92.678C173.244 90.12 167.53 88.8031 161.008 89.2138L160.995 89.2004ZM160.834 88.9549L160.7 88.879V88.9995L160.834 88.9549Z" fill="#323D62" stroke="#323D62"/>
<path d="M133.646 76.9147L134.61 78.4369C132.53 78.178 130.566 77.4727 128.588 76.8388C120.807 74.3299 113.066 71.6515 104.826 71.0667C99.1785 70.6693 93.393 70.1158 88.1208 72.5621C79.9336 76.3611 73.8847 82.2225 72.0857 91.5392L70.9116 91.2222C71.7732 86.834 73.416 82.7404 76.6168 79.6155C78.4024 77.8298 78.5497 75.9772 78.1658 73.754C76.8668 66.2141 75.4873 58.6921 74.5945 51.0807C73.4963 41.7328 75.1793 33.4206 81.6925 26.2557C84.6845 23.0364 87.1941 19.4005 89.1432 15.4613C91.5806 10.4035 90.5851 8.42142 85.1254 7.30538C84.3253 7.14176 83.5131 7.04469 82.6969 7.0152C74.2508 6.72057 67.7689 10.7204 62.6396 16.8943C53.5149 27.8672 48.9123 40.6927 47.8767 54.8975C47.5508 59.3617 48.4079 63.058 51.4167 66.5489C55.8184 71.6648 59.1218 77.7093 63.9163 82.5082C66.3827 84.9799 68.1508 88.0603 69.0411 91.4365L67.9251 91.7534C66.7867 86.9143 64.0101 83.5573 59.1843 81.9993C57.9882 81.5978 56.8217 81.113 55.6934 80.5485C52.8944 79.2092 50.0061 79.0441 47.0106 79.7092C41.2787 80.977 36.1494 83.6153 31.3415 86.8518C27.4666 89.4634 23.5471 92.1552 21.0293 96.2265C17.2973 102.258 17.1455 109.016 17.5384 115.824C17.7006 115.876 17.8684 115.909 18.0384 115.922C17.9625 110.891 18.275 105.874 20.391 101.293C24.7703 91.8115 32.7298 86.1688 41.9885 82.169C46.1357 80.3833 47.9749 81.4145 49.2427 85.7983C50.2918 89.4455 50.7159 93.2132 51.1355 96.9586C49.2204 98.4006 47.3454 99.8916 44.9169 101.168C45.2473 95.4274 44.35 90.133 43.1313 84.8831C42.9884 84.2582 43.3322 82.9591 41.8456 83.5037C33.8102 87.2447 26.7568 92.182 22.315 100.052C19.9044 104.333 19.3196 109.186 19.3196 114.07C19.3196 116.94 18.1946 119.239 15.6724 120.601C12.5118 122.31 9.42257 121.828 6.81998 119.418C2.44959 115.373 0.864832 110.114 1.11036 104.311C1.46303 96.0033 5.19505 89.1999 11.0475 83.535C17.8955 76.9102 25.6408 71.8389 35.4128 70.7229C36.877 70.5533 38.3725 70.5934 39.8502 70.5399C40.1046 70.6961 40.5599 70.8479 40.5867 70.5399C40.7296 69.0087 41.3412 67.4373 40.4126 65.9418C38.1047 61.5402 35.1226 57.5225 31.1987 54.594C24.0962 49.304 19.4892 42.2506 15.5474 34.5902C13.9492 31.4653 12.1725 28.4743 10.9047 25.2155C7.91371 17.5238 10.0386 9.71602 16.5474 4.65815C17.1295 4.19895 17.7614 3.80662 18.4312 3.48855C19.6499 2.92161 20.9802 2.26982 22.2257 3.21622C23.4712 4.16262 23.0114 5.50633 22.7793 6.7429C22.0204 10.8097 23.0918 14.6132 24.7435 18.2157C30.8415 31.501 36.2431 45.1568 44.9303 57.1028C45.3366 57.6564 45.4794 58.4867 46.5508 58.7055C46.7695 55.1341 46.7517 51.5628 47.3767 48.0853C49.6757 35.2241 54.43 23.479 63.6574 14.0061C70.0232 7.4661 77.6792 4.01978 87.0495 6.41703C91.1877 7.48395 92.4868 9.88118 91.1252 13.9659C89.6387 18.43 86.5852 21.9433 83.8398 25.6351C82.0184 28.077 80.1077 30.443 78.4515 33.0143C75.1704 38.1213 75.4382 43.7684 75.8222 49.4334C76.2953 56.3395 77.5721 63.1383 78.8087 69.9417C79.1658 71.9104 79.4783 73.888 79.8443 76.0308C81.5095 74.946 83.1523 73.8746 84.7951 72.7943C88.0673 70.647 91.7368 69.8702 95.576 69.6292C105.397 69.0042 114.807 70.8702 124.039 74.0219C127.2 75.1335 130.352 76.2763 133.646 76.9147ZM20.7749 40.8668L20.7258 40.9069H20.8106L20.8419 41.0007C20.8167 40.9575 20.7943 40.9128 20.7749 40.8668ZM52.8631 70.9193C52.9301 71.1158 52.9613 71.397 53.2381 71.0845C53.2381 71.0845 53.064 70.9149 52.9702 70.8256C52.95 70.5476 52.8568 70.2799 52.7 70.0495C52.5432 69.8191 52.3285 69.6341 52.0774 69.5131C45.8272 60.9522 40.0249 52.073 34.6941 42.9113C31.2254 36.983 29.3683 30.3492 26.2122 24.2825C23.1498 18.43 20.2035 12.4257 21.7168 5.39919C21.9713 4.21619 21.1811 3.85013 20.0383 4.17155C14.6813 5.68043 10.4717 13.015 11.9761 18.3452C12.5162 20.2782 13.0698 22.2067 13.6769 24.1218C15.909 31.1305 18.7214 37.7508 24.4846 42.7506C29.538 47.1344 34.1494 51.9869 38.8011 56.7903C42.9215 61.0446 47.0731 65.2722 51.2069 69.5131C51.6221 70.1068 52.0372 70.7452 52.8408 70.9193H52.8631ZM58.8763 80.1288C58.8495 79.84 58.7419 79.5646 58.5659 79.334C58.3898 79.1035 58.1524 78.9272 57.8808 78.8253C51.6578 75.4058 45.225 72.4728 38.0243 72.0264C31.2522 71.6068 25.4176 74.4326 19.9222 78.0218C12.5341 82.843 6.45839 88.825 3.6683 97.4676C1.43623 104.338 1.71747 110.985 6.23518 116.98C8.64135 120.168 11.6725 120.998 14.8331 119.659C15.9447 119.212 16.4 118.574 16.3554 117.315C16.2527 114.418 16.1858 111.512 16.3554 108.619C16.7259 102.57 17.9937 96.7935 22.6052 92.3695C29.0827 86.1465 36.5378 81.5172 45.1625 78.8744C48.8231 77.7584 52.4569 77.6334 56.0416 79.3208C56.8585 79.7092 57.6978 80.2985 58.854 80.1288H58.8763ZM21.5293 42.0096C23.5973 45.8629 26.4703 49.2261 29.9531 51.8709C35.136 55.8886 39.7742 60.625 42.1224 66.6605C43.908 71.272 47.0329 73.0576 51.1578 74.2763C51.3654 74.357 51.577 74.427 51.7917 74.4862C52.4613 74.6022 53.2649 75.4326 53.7604 74.5755C54.1398 73.9192 53.2202 73.4594 52.7827 73.013C46.649 66.665 40.5034 60.3319 34.3459 54.0136C30.2389 49.8174 26.1095 45.6925 21.507 42.0096H21.5293ZM12.7707 25.4342L11.2931 20.4478C11.1651 22.2306 11.6815 24.0001 12.7484 25.4342H12.7707ZM59.5102 80.3431L59.3808 80.2762V80.5172C59.4254 80.5172 59.4834 80.5172 59.5147 80.4636C59.5459 80.4101 59.4879 80.4056 59.4879 80.361L59.5102 80.3431Z" fill="#454FDB" stroke="#454FDB"/>
<path d="M289.766 225.905C289.842 225.593 289.922 225.276 289.998 224.963C301.122 227.923 312.06 231.374 322.019 237.333C326.439 239.976 330.501 243.052 333.398 247.431C334.934 249.739 335.054 251.047 333.483 253.779C331.278 257.601 328.01 260.373 324.461 262.855C323.492 263.534 322.483 264.15 321.492 264.792L320.452 263.627L289.766 225.905Z" fill="#17263F"/>
<path d="M70.9065 91.2322L72.0806 91.5491C74.085 94.8973 73.8931 97.1472 71.2815 100.232C69.2012 102.687 66.6076 104.526 63.9871 106.352C60.4739 108.803 56.3981 110.441 53.3491 113.553C50.9519 115.08 48.9609 117.124 46.76 118.87C46.3136 119.245 45.8672 119.642 45.9386 120.347C46.0904 122.45 46.202 124.553 46.327 126.66C48.5189 122.731 51.934 121.41 56.0588 121.37C56.212 121.353 56.3622 121.315 56.5052 121.258C58.7864 121.03 61.1122 120.999 63.3443 120.539C71.6074 118.843 79.6339 119.146 87.4506 122.664C89.7184 123.682 92.0665 124.664 94.5932 124.963C95.2271 126.115 95.2004 127.387 95.2718 128.637C92.8969 133.012 91.196 133.847 86.0891 133.043C83.674 132.664 81.2812 132.15 78.8661 131.775C76.6697 131.441 74.2457 130.74 72.2949 131.842C68.9691 133.726 65.4067 134.909 61.8801 136.244C57.1972 137.061 57.1168 137.137 57.0454 141.708L62.3265 137.311C64.4068 136.253 66.7237 136.253 68.9379 135.775C75.9957 134.258 82.6071 135.008 88.8926 138.686C91.571 140.253 94.071 142.155 97.0128 143.266C97.6807 143.844 98.3976 144.362 99.1556 144.815C100.839 145.646 100.749 146.735 99.7627 147.994C98.9413 149.038 98.0485 150.029 97.1869 151.043C95.0408 151.365 92.8472 151.055 90.8746 150.15C88.0667 148.985 85.3034 147.708 82.5222 146.471C81.5758 146.025 80.6607 145.494 79.5536 145.748C75.3528 146.717 71.2726 147.98 67.5897 150.315C65.7014 152.226 64.2148 154.44 62.7327 156.659C61.9559 157.819 61.9738 158.556 63.5362 159.078C64.565 159.401 65.5021 159.964 66.2699 160.721C67.0377 161.478 67.6141 162.407 67.9513 163.431C66.0719 161.725 64.2193 160.105 61.6792 159.444C60.8221 159.225 60.8087 158.208 61.2328 157.534C63.3889 153.918 65.2505 150.003 69.4066 148.159C72.2728 146.915 75.2217 145.87 78.2322 145.034C78.9755 144.806 79.7576 144.731 80.5305 144.816C81.3035 144.9 82.0511 145.142 82.7276 145.525C85.0222 146.739 87.4417 147.721 89.8345 148.748C91.4494 149.512 93.1742 150.018 94.9459 150.248C96.495 150.4 98.6199 148.762 99.0351 147.074C99.4502 145.387 97.8699 145.208 96.9726 144.637C94.5933 143.114 92.0621 141.811 89.7273 140.248C84.5445 136.802 78.8661 135.641 72.7324 136.066C67.1388 136.454 62.0675 137.686 58.1034 142.204C52.8923 148.138 47.9906 154.303 43.3985 160.699C42.3495 162.158 42.3718 162.172 42.8584 163.886C42.8584 163.913 42.7155 163.998 42.6262 164.029C40.979 164.569 42.0548 165.663 42.2736 166.39C42.9178 168.625 44.1898 170.629 45.9386 172.163C54.791 179.752 63.072 188.068 73.6163 193.43C79.5045 196.425 83.6249 200.572 85.3569 207.34C87.4462 215.523 90.8389 223.353 93.1067 231.513L91.7228 231.473C91.7942 228.589 90.3836 226.116 89.5175 223.487C89.2631 222.71 88.6247 223.29 88.2229 223.487C82.058 226.464 76.1207 229.799 71.5271 235.018C68.1656 238.834 66.1701 243.16 67.2995 248.41L66.4513 248.437C64.8934 242.839 67.3442 238.401 70.7771 234.41C75.1118 229.357 80.7589 226.013 86.6739 223.165C88.4908 222.272 89.1693 221.607 88.3211 219.429C86.415 214.518 84.7498 209.51 83.2811 204.447C82.2812 200.974 80.1562 198.644 77.2501 196.782C76.0582 196.028 74.9019 195.202 73.6431 194.55C63.1523 189.26 54.8937 181.06 46.0592 173.569C43.22 171.158 41.2066 168.158 40.8317 164.292C40.8056 163.782 40.6604 163.285 40.4076 162.841C37.8585 158.993 37.6711 154.949 39.2781 150.721C39.4656 150.226 39.5862 149.686 39.171 149.248C36.4345 146.338 36.7247 142.472 36.0774 138.981C34.6087 131.026 33.4792 123.003 32.1176 115.022C31.7828 113.071 32.1177 111.548 33.7069 110.303C36.5193 108.107 39.1978 105.736 42.1039 103.683C43.653 102.589 44.1485 101.343 44.153 99.5801C44.153 94.1116 43.0548 88.8082 41.8986 83.5092C43.3851 82.9646 43.0414 84.2637 43.1843 84.8886C44.3985 90.1385 45.2958 95.4329 44.9699 101.174C47.3984 99.8971 49.2733 98.4061 51.1885 96.9641C54.0811 95.0208 57.3519 93.711 60.7863 93.1205C63.197 92.7455 65.5808 92.2277 67.9781 91.7411L69.0941 91.4241L70.9065 91.2322ZM40.9209 161.766C41.5548 161.654 41.7066 161.199 41.9656 160.85C45.2378 156.529 48.2957 152.02 51.8581 147.949C54.358 145.092 56.1615 142.172 56.349 138.36C56.4204 136.869 57.2418 136.244 58.6614 135.887C62.6791 134.887 66.804 133.999 70.3753 131.74C72.1266 130.583 74.251 130.131 76.3215 130.476C79.7723 131.008 83.2097 131.606 86.6426 132.208C88.1066 132.503 89.6211 132.428 91.0487 131.99C93.0844 131.329 93.8433 129.816 94.0129 127.753C94.1825 125.691 92.6737 125.579 91.3791 125.128C89.4193 124.436 87.4863 123.637 85.482 123.102C81.2991 121.99 77.3974 119.74 72.777 120.37C66.0094 121.298 59.2105 121.972 52.425 122.767C51.0858 122.928 50.1349 123.749 49.3537 124.794C46.2288 128.941 43.8762 133.481 42.6575 138.53C41.5325 143.293 40.8718 148.177 39.6085 152.891C38.729 156.194 39.3406 158.98 40.9209 161.757V161.766ZM32.8007 112.852C32.9033 113.745 32.9257 114.044 32.9748 114.339C34.323 122.624 35.6741 130.908 37.0282 139.19C37.4032 141.463 37.8362 143.726 38.3094 145.98C38.4434 146.614 38.7067 147.512 39.3942 147.525C40.354 147.525 40.0147 146.507 40.1263 145.945C40.8361 142.222 41.0861 138.302 42.8048 134.936C45.0241 130.639 45.7841 125.735 44.9699 120.968C44.8762 120.419 44.9396 119.855 45.1529 119.341C45.3662 118.826 45.7206 118.383 46.1752 118.062C50.6394 114.348 55.0187 110.584 60.0944 107.678C64.2282 105.317 68.2102 102.678 71.1878 98.8391C72.527 97.1382 73.0672 95.2053 71.9512 93.2232C70.9021 91.3661 69.2057 92.5937 67.9334 92.8214C63.5541 93.5982 58.8668 93.6651 54.9874 95.9463C47.4966 100.375 40.5995 105.7 34.006 111.37C33.3364 111.91 32.7292 112.495 32.8007 112.852Z" fill="#323D62" stroke="#323D62"/>
<path d="M320.444 263.638L321.485 264.803C312.672 269.861 303.275 273.459 293.485 276.084L293.039 275.325C293.704 275.019 294.385 274.749 295.079 274.517C303.293 272.24 311.088 268.896 318.739 265.142C319.436 264.816 320.369 264.696 320.444 263.638Z" fill="#323D62"/>
<path d="M40.3984 65.9785C41.327 67.474 40.7154 69.0454 40.5725 70.5766C40.5457 70.8757 40.0904 70.7239 39.8359 70.5766C39.9118 69.0231 39.6842 67.4428 40.3984 65.9785Z" fill="#323D62"/>
<path d="M66.6172 249.335C67.1261 249.541 67.2422 249.827 66.8047 250.228L66.6172 249.335Z" fill="#323D62"/>
<path d="M320.447 263.632C320.371 264.69 319.438 264.811 318.742 265.15C311.108 268.891 303.314 272.235 295.082 274.525C294.396 274.748 293.722 275.007 293.064 275.301C284.77 277.306 276.462 279.252 268.065 280.908C266.208 281.279 265.328 280.788 264.373 279.181C251.817 258.05 239.209 236.946 226.548 215.866C223.557 210.741 220.624 205.576 217.558 200.491C208.659 185.724 199.731 170.976 190.773 156.247C188.96 153.265 187.059 150.332 185.126 147.426C182.679 143.752 182.751 139.676 183.219 135.578C183.609 132.48 184.331 129.433 185.371 126.489C188.67 116.86 192.331 107.294 194.072 97.2538C195.067 91.5218 195.781 85.7184 198.237 80.4508C201.531 73.384 203.027 65.8128 204.982 58.389C207.522 48.7509 210.183 39.1932 214.459 30.1578C215.674 27.5954 217.223 25.2472 219.66 23.6178C220.293 23.1474 221.017 22.8146 221.785 22.6409C222.554 22.4671 223.351 22.4562 224.124 22.6089C226.263 23.0553 226.83 24.1446 225.74 26.0195C221.571 33.1934 219.232 40.9699 218.022 49.117C217.071 55.5275 214.107 61.4469 213.468 67.9333C213.022 72.2189 212.535 76.5 212.093 80.7856C212.005 81.2121 212.018 81.6535 212.132 82.0739C212.246 82.4944 212.458 82.8819 212.75 83.2051C214.424 73.6563 213.687 64.1254 217.999 55.4828C218.781 61.4871 219.575 67.3664 220.294 73.259C220.471 75.3325 221.361 77.2807 222.812 78.7722C224.088 80.0285 225.088 81.5366 225.749 83.2006C226.41 84.8645 226.717 86.6479 226.651 88.4371C226.272 100.78 225.687 113.137 223.24 125.235C221.861 132.043 222.2 138.373 224.839 144.614C226.325 148.127 229.115 150.864 231.472 153.801C248.516 175.086 265.609 196.334 282.752 217.544C285.033 220.37 287.426 223.111 289.769 225.892L320.447 263.632Z" fill="#454FDB"/>
<path d="M97.1736 151.037C98.0352 150.024 98.928 149.033 99.7494 147.988C100.736 146.73 100.825 145.64 99.1423 144.81C98.3843 144.357 97.6674 143.839 96.9995 143.261C96.7093 138.35 95.9996 133.489 95.2585 128.632C95.1871 127.382 95.2139 126.11 94.58 124.958C93.9862 122.279 93.4237 119.601 92.7943 116.923C91.089 109.615 89.3301 102.298 89.5846 94.7313C89.7989 88.294 90.9238 81.9996 96.3567 77.7185C102.888 72.5937 110.151 72.4463 117.597 75.5578C122.597 77.6426 127.499 79.9506 132.503 82.0219C135.418 83.2272 138.253 84.8566 141.601 84.5709C141.967 84.5709 142.395 84.4593 142.686 84.6111C147.279 86.9949 152.431 87.3476 157.323 88.6288C158.319 88.8753 159.259 89.3102 160.091 89.91C165.627 93.9277 170.993 98.1597 176.104 102.691C178.336 104.677 180.693 105.57 183.608 105.146C185.59 104.856 187.586 104.66 189.563 104.325C191.014 104.079 191.456 104.41 190.961 105.923C189.621 110.012 188.38 114.137 187.104 118.248C184.742 125.837 181.224 133.181 181.791 141.547C179.019 138.605 176.881 135.364 174.787 132.065C171.747 127.221 168.957 122.244 166.207 117.213C163.761 112.749 159.739 109.7 155.94 106.499C149.922 101.423 143.605 96.7223 137.15 92.2135C133.806 89.8788 133.829 89.2047 137.038 86.7316C137.373 86.4726 139.32 86.2137 137.404 85.2495C136.065 84.745 134.757 84.2718 133.454 83.7361C126.994 81.0577 120.793 77.8122 114.146 75.6158C104.325 72.3704 94.6916 77.4015 91.8256 87.2628C90.4551 91.9903 90.656 96.8205 91.0979 101.651C91.7274 108.561 93.8746 115.168 95.2005 121.94C95.1424 122.967 95.6067 123.779 96.1692 124.619C97.1523 126.016 98.0627 127.463 98.8968 128.953C105.472 141.091 109.164 154.252 112.365 167.559C113.981 174.255 114.445 181.211 117.432 187.572C119.418 191.808 121.115 196.179 123.048 200.442C125.865 206.661 128.78 212.839 131.65 219.04C135.105 226.526 138.52 234.03 142.029 241.49C148.48 255.213 154.975 268.909 161.466 282.622C161.743 283.212 162.171 283.77 162.064 284.721C157.422 284.203 152.779 283.747 148.154 283.154C135.175 281.497 122.317 279.002 109.66 275.685C108.084 275.27 107.374 274.471 106.883 272.975C102.593 259.833 98.2271 246.717 93.8746 233.597C93.6425 232.896 93.3434 232.213 93.0755 231.521C90.8078 223.361 87.415 215.531 85.3258 207.348C83.5937 200.558 79.4733 196.433 73.5851 193.438C63.0364 188.081 54.7554 179.746 45.9075 172.171C44.1587 170.637 42.8867 168.634 42.2424 166.399C42.0237 165.671 40.9478 164.577 42.5951 164.037C42.6844 164.006 42.8362 163.921 42.8272 163.894C42.3406 162.18 42.3183 162.167 43.3674 160.707C47.9714 154.305 52.873 148.14 58.0722 142.212C62.0364 137.694 67.1077 136.462 72.7012 136.074C78.8349 135.65 84.5133 136.81 89.6962 140.257C92.0443 141.819 94.5621 143.123 96.9415 144.645C97.8343 145.216 99.4191 145.413 99.0039 147.082C98.5887 148.752 96.4638 150.408 94.9148 150.256C93.143 150.026 91.4183 149.52 89.8033 148.756C87.4105 147.73 84.991 146.747 82.6964 145.533C82.02 145.15 81.2723 144.908 80.4994 144.824C79.7264 144.74 78.9443 144.814 78.201 145.042C75.1905 145.879 72.2416 146.923 69.3754 148.167C65.2015 150.033 63.3578 153.948 61.2016 157.542C60.7998 158.216 60.8132 159.234 61.648 159.452C64.1881 160.113 66.0407 161.733 67.9201 163.439C67.5829 162.415 67.0066 161.486 66.2388 160.729C65.471 159.972 64.5339 159.409 63.5051 159.086C61.9427 158.564 61.9248 157.827 62.7015 156.667C64.1836 154.435 65.6702 152.234 67.5585 150.323C67.9335 151.131 68.3353 151.926 68.688 152.747C72.3128 161.167 78.0939 167.809 85.4508 173.171C86.003 173.607 86.6358 173.93 87.3129 174.121C87.99 174.313 88.6983 174.369 89.3971 174.287C92.589 173.943 93.9639 171.836 94.7808 169.104C96.4762 163.235 97.2828 157.145 97.1736 151.037Z" fill="#454FDB"/>
<path d="M190.411 204.495C185.228 204.785 180.046 205.084 174.867 205.361C159.999 206.218 145.197 207.981 130.543 210.638C129.396 210.843 128.913 211.142 129.543 212.512C130.525 214.651 131.775 216.695 132.311 219.03H131.65C128.779 212.829 125.847 206.651 123.048 200.433C121.115 196.169 119.418 191.799 117.432 187.562C114.445 181.201 113.981 174.237 112.365 167.55C109.142 154.242 105.472 141.082 98.8965 128.944C98.0624 127.453 97.152 126.006 96.1689 124.609C95.6065 123.788 95.1422 122.975 95.2002 121.931C97.3877 124.109 98.8965 126.761 100.312 129.453C106.16 140.586 109.686 152.546 112.664 164.679C113.976 170.036 114.387 175.652 116.066 180.871C119.19 190.491 123.744 199.544 127.855 208.767C128.217 209.584 128.579 210.013 129.672 209.816C134.927 208.87 140.19 208.03 145.489 207.307C152.631 206.361 159.743 205.383 166.952 205.075C169.961 204.941 173.023 205.048 175.983 204.589C180.778 203.852 185.572 203.83 190.385 203.87L190.411 204.495Z" fill="#323D62" stroke="#323D62"/>
<path d="M141.609 84.5819C138.261 84.8677 135.426 83.2427 132.511 82.0329C127.506 79.9616 122.605 77.6536 117.605 75.5688C110.159 72.4439 102.873 72.6047 96.3646 77.7295C90.9139 82.0106 89.8068 88.305 89.5925 94.7423C89.3381 102.331 91.097 109.626 92.8023 116.934C93.4272 119.612 93.9897 122.29 94.5879 124.969C92.0568 124.67 89.7086 123.688 87.4453 122.67C79.6331 119.152 71.6065 118.849 63.339 120.545C61.1069 120.991 58.7811 121.036 56.4999 121.264C55.7321 118.585 54.4687 116.103 53.375 113.559C56.4374 110.434 60.5176 108.809 64.013 106.358C66.6335 104.532 69.2271 102.693 71.3074 100.238C73.919 97.1529 74.1109 94.903 72.1065 91.5549C73.8922 82.2383 79.9545 76.3769 88.1417 72.5779C93.4139 70.1315 99.1994 70.6851 104.847 71.0824C113.087 71.6672 120.828 74.3457 128.609 76.8545C130.587 77.4884 132.551 78.1938 134.631 78.4527C136.631 80.2875 138.524 82.2561 140.966 83.5418C141.173 83.6202 141.348 83.7647 141.464 83.9528C141.58 84.1408 141.631 84.362 141.609 84.5819Z" fill="#F9B720"/>
<path d="M136.161 73.0239C143.871 73.7872 151.602 74.689 159.375 75.2961C171.428 76.2336 183.329 78.2157 195.257 80.0594C196.936 80.3227 197.043 80.7825 196.507 82.2379C195.012 86.3627 193.78 90.5813 193.534 94.9919C193.436 96.715 192.539 96.474 191.445 96.1659C186.013 94.6207 180.702 92.6811 175.553 90.3626C172.401 88.9519 169.16 88.635 165.83 88.318C159.883 87.7466 153.893 87.4252 148.125 85.5949C143.518 84.1217 139.304 82.0682 136.072 78.3764C135.444 77.643 134.871 76.8641 134.357 76.0461C133.88 75.2961 133.313 74.4077 133.733 73.5595C134.197 72.5283 135.299 73.2158 136.161 73.0239Z" fill="#454FDB"/>
<path d="M197.896 77.9516C196.11 74.4874 194.668 70.9428 192.575 67.8358C186.468 58.7691 183.718 48.2605 179.432 38.4082C175.861 30.1942 176.245 21.7436 177.048 13.2126C177.352 9.98503 178.874 8.40029 181.379 8.01637C182.718 7.81102 183.566 7.98064 183.825 9.67702C184.445 13.6947 185.405 17.7125 186.057 21.7302C187.396 30.1674 190.334 37.8993 195.534 44.783C197.807 47.7918 199.579 51.1846 201.601 54.3898C202.161 55.1789 202.451 56.1279 202.427 57.0951C202.222 61.8494 202.079 66.6037 200.516 71.175C199.766 73.3803 199.766 75.8713 197.896 77.9516Z" fill="#454FDB"/>
<path d="M203.757 59.2242C203.31 49.4255 204.002 39.7249 204.886 30.0377C205.471 23.6004 206.225 17.1899 207.761 10.8955C208.189 9.09083 208.801 7.33473 209.587 5.6546C210.144 4.43093 211.016 3.37716 212.114 2.60112C212.529 2.27969 213.023 2.0771 213.545 2.01498C214.066 1.95286 214.594 2.03357 215.073 2.24846C216.122 2.72166 216.176 3.78858 216.118 4.7573C215.832 9.42679 215.145 14.1007 215.274 18.7568C215.448 24.8906 213.489 30.2654 211.042 35.7205C207.971 42.5685 206.065 49.854 204.346 57.1484C204.172 57.885 203.953 58.5457 203.757 59.2242Z" fill="#454FDB"/>
<path d="M190.391 203.876C197.685 203.617 204.976 203.617 212.265 203.876C212.265 204.095 212.265 204.322 212.265 204.532L190.426 204.478L190.391 203.876Z" fill="#323D62" stroke="#17263F"/>
<path d="M160.848 88.9674L160.695 89.0123L160.713 88.8911L160.848 88.9674Z" fill="#F8E1C9"/>
<path d="M70.9102 91.236L69.0576 91.4458C68.1673 88.0696 66.3991 84.9892 63.9328 82.5176C59.1606 77.7008 55.8571 71.6742 51.4332 66.5583C48.4243 63.0673 47.5672 59.3487 47.8931 54.9069C48.9288 40.702 53.5313 27.8765 62.656 16.9037C67.7853 10.7298 74.2628 6.72989 82.7134 7.02452C83.5295 7.05401 84.3418 7.15108 85.1419 7.3147C90.5837 8.43074 91.5792 10.4128 89.1596 15.4707C87.2106 19.4098 84.701 23.0457 81.709 26.265C75.1958 33.4076 73.5128 41.7421 74.611 51.09C75.5038 58.6791 76.8431 66.2234 78.1823 73.7634C78.5662 75.9954 78.4278 77.8481 76.6332 79.6248C73.428 82.7765 71.7718 86.8478 70.9102 91.236Z" fill="#FCEFE3"/>
<path d="M58.8551 80.1397C57.6989 80.3093 56.8597 79.7201 56.0249 79.3317C52.4536 77.6576 48.8064 77.7826 45.1458 78.8853C36.5211 81.528 29.0749 86.1573 22.5885 92.3803C17.9815 96.8043 16.7137 102.581 16.3387 108.63C16.1601 111.518 16.2271 114.433 16.3387 117.326C16.3833 118.585 15.928 119.205 14.8164 119.67C11.6558 121.009 8.62466 120.165 6.21849 116.991C1.70079 110.996 1.4374 104.349 3.65161 97.4784C6.4417 88.8358 12.5174 82.8539 19.9055 78.0326C25.4009 74.4613 31.2355 71.6176 38.0076 72.0373C45.2083 72.4837 51.6411 75.4166 57.8641 78.8362C58.1348 78.9387 58.3713 79.1153 58.5466 79.3458C58.7218 79.5763 58.8287 79.8513 58.8551 80.1397Z" fill="#FCEFE3"/>
<path d="M51.1734 69.5186C47.0396 65.2777 42.8879 61.0367 38.7675 56.7958C34.1159 51.9924 29.5045 47.1399 24.4511 42.7561C18.6879 37.7563 15.8576 31.1493 13.6434 24.1273C13.0363 22.2121 12.4827 20.2836 11.9426 18.3507C10.4381 13.0205 14.621 5.6859 20.0048 4.17702C21.1476 3.8556 21.9378 4.22166 21.6833 5.40466C20.17 12.4312 23.1163 18.4355 26.1787 24.288C29.3527 30.3547 31.2098 36.9884 34.6606 42.9168C39.9915 52.0785 45.7937 60.9577 52.0439 69.5186H51.1734Z" fill="#FCEFE3"/>
<path d="M67.9409 91.7549C65.5436 92.2013 63.1598 92.7593 60.7491 93.1343C57.3147 93.7247 54.0439 95.0346 51.1512 96.978C50.7316 93.2147 50.3075 89.447 49.2584 85.8176C47.9906 81.4338 46.1335 80.3937 42.0042 82.1883C32.7456 86.206 24.786 91.8308 20.4067 101.313C18.2907 105.893 17.9782 110.911 18.0541 115.942C17.8842 115.929 17.7163 115.896 17.5542 115.843C17.1613 109.036 17.3131 102.277 21.0451 96.2458C23.5629 92.1746 27.4824 89.4827 31.3573 86.8712C36.1651 83.6347 41.2944 80.9964 47.0264 79.7285C50.0218 79.0634 52.9101 79.2062 55.7091 80.5678C56.8375 81.1323 58.004 81.6171 59.2001 82.0186C64.0258 83.5588 66.8025 86.9068 67.9409 91.7549Z" fill="#F9B720"/>
<path d="M21.5078 42.0142C26.0925 45.6971 30.2397 49.8219 34.3244 54.0182C40.4819 60.3394 46.6275 66.6726 52.7612 73.0176C53.2076 73.464 54.1005 73.9104 53.7389 74.58C53.2434 75.4372 52.4398 74.6068 51.7702 74.4907C51.5555 74.4316 51.3439 74.3615 51.1363 74.2809C47.0159 73.0622 43.9044 71.2766 42.1009 66.6651C39.7438 60.6296 35.1145 55.8798 29.9316 51.8754C26.4488 49.2307 23.5758 45.8675 21.5078 42.0142Z" fill="#F9B720"/>
<path d="M12.7449 25.4415C11.6701 24.0104 11.1457 22.2407 11.2672 20.4551L12.7449 25.4415Z" fill="#F9B720"/>
<path d="M51.1719 69.5254H52.0647C52.3158 69.6463 52.5305 69.8313 52.6873 70.0618C52.844 70.2922 52.9373 70.5599 52.9575 70.8378L52.8459 70.9361C52.0379 70.7575 51.6228 70.1191 51.1719 69.5254Z" fill="#F8E1C9"/>
<path d="M52.9431 70.8384C53.0368 70.9277 53.2109 71.0928 53.2109 71.0973C52.9341 71.4098 52.9029 71.1285 52.8359 70.9366L52.9431 70.8384Z" fill="#F8E1C9"/>
<path d="M20.7656 40.8726L20.8414 41.0018L20.8102 40.9082L20.7656 40.8726Z" fill="#F9B720"/>
<path d="M20.8112 40.9254H20.7266C20.7266 40.9254 20.7756 40.8853 20.7711 40.8809L20.8112 40.9254Z" fill="#F9B720"/>
<path d="M40.9276 161.756C39.3473 158.979 38.7357 156.194 39.6374 152.881C40.9187 148.167 41.5615 143.283 42.6865 138.52C43.8829 133.471 46.2578 128.931 49.3827 124.784C50.1639 123.739 51.1058 122.918 52.454 122.757C59.2395 121.963 66.0384 121.289 72.806 120.36C77.4264 119.731 81.328 121.981 85.5109 123.092C87.5153 123.628 89.4483 124.431 91.4081 125.119C92.6937 125.565 94.216 125.663 94.0419 127.744C93.8678 129.824 93.1134 131.315 91.0777 131.98C89.6501 132.419 88.1356 132.494 86.6716 132.199C83.2387 131.596 79.8013 130.998 76.3505 130.467C74.28 130.122 72.1556 130.573 70.4043 131.73C66.833 133.989 62.7215 134.855 58.6904 135.877C57.2485 136.235 56.4583 136.86 56.378 138.351C56.1905 142.163 54.387 145.082 51.887 147.94C48.3157 152.011 45.2667 156.52 41.9945 160.841C41.7356 161.189 41.5615 161.644 40.9276 161.756Z" fill="#454FDB"/>
<path d="M32.8075 112.848C32.7584 112.491 33.3655 111.901 33.986 111.375C40.5974 105.705 47.4945 100.38 54.9675 95.9511C58.8379 93.661 63.5252 93.594 67.9135 92.8262C69.2036 92.5985 70.9 91.3709 71.9312 93.228C73.0472 95.2101 72.4892 97.143 71.1678 98.8439C68.1902 102.683 64.2082 105.321 60.0744 107.683C54.9987 110.589 50.6105 114.352 46.1553 118.066C45.7007 118.388 45.3462 118.831 45.133 119.345C44.9197 119.86 44.8562 120.424 44.9499 120.973C45.7641 125.74 45.0041 130.643 42.7848 134.941C41.0661 138.307 40.8161 142.226 40.1063 145.949C39.9947 146.512 40.334 147.548 39.3742 147.53C38.6868 147.53 38.4234 146.637 38.2895 145.985C37.8163 143.753 37.3966 141.467 37.0082 139.195C35.6422 130.913 34.2911 122.629 32.9548 114.343C32.9102 114.04 32.8878 113.741 32.8075 112.848Z" fill="#454FDB"/>
<path d="M97.1753 151.049C97.2899 157.155 96.4893 163.243 94.8004 169.111C93.9835 171.843 92.6085 173.95 89.4167 174.294C88.7178 174.376 88.0096 174.32 87.3325 174.128C86.6554 173.937 86.0226 173.614 85.4704 173.178C78.1135 167.821 72.3324 161.174 68.7075 152.754C68.3549 151.933 67.9531 151.138 67.5781 150.33C71.261 148.009 75.3413 146.732 79.542 145.764C80.6491 145.509 81.5643 146.063 82.5107 146.487C85.2918 147.723 88.0551 149 90.863 150.165C92.8365 151.067 95.0301 151.374 97.1753 151.049Z" fill="#F9B720"/>
<path d="M95.259 128.641C96 133.498 96.7098 138.36 97 143.27C94.0581 142.159 91.5582 140.257 88.8797 138.69C82.5942 135.011 75.9828 134.261 68.925 135.779C66.6929 136.257 64.3939 136.257 62.3136 137.315L61.8672 136.248C65.3939 134.909 68.9562 133.73 72.282 131.846C74.2329 130.744 76.6569 131.445 78.8533 131.779C81.2683 132.15 83.6611 132.672 86.0762 133.047C91.1832 133.851 92.884 133.016 95.259 128.641Z" fill="#F9B720"/>
<path d="M53.3449 113.557C54.452 116.101 55.7153 118.579 56.4698 121.262C56.3267 121.319 56.1765 121.357 56.0233 121.373C51.8985 121.413 48.4834 122.713 46.2915 126.663C46.1665 124.556 46.0549 122.454 45.9032 120.351C45.8496 119.646 46.2603 119.248 46.7245 118.873C48.97 117.106 50.961 115.083 53.3449 113.557Z" fill="#454FDB"/>
<path d="M61.8659 136.241L62.3123 137.308L57.0312 141.705C57.1027 137.142 57.183 137.058 61.8659 136.241Z" fill="#454FDB"/>
</svg>
