<svg width="400" height="404" viewBox="0 0 400 404" fill="none" xmlns="http://www.w3.org/2000/svg">
<mask id="mask0_2007_52448" style="mask-type:alpha" maskUnits="userSpaceOnUse" x="60" y="21" width="280" height="383">
<mask id="mask1_2007_52448" style="mask-type:alpha" maskUnits="userSpaceOnUse" x="60" y="9" width="280" height="395">
<path d="M74.7239 9.20703C65.6348 27.7296 60.5312 48.5628 60.5312 70.5881C60.5312 143.877 117.039 203.965 188.856 209.651V384.522C138.693 385.034 99.5865 389.186 99.5865 394.234C99.5865 399.627 144.237 403.999 199.317 403.999C254.396 403.999 299.047 399.627 299.047 394.234C299.047 389.186 259.941 385.034 209.778 384.522V209.754C282.257 204.742 339.497 144.35 339.497 70.5881C339.497 48.5628 334.394 27.7296 325.305 9.20703H74.7239Z" fill="#B40000"/>
</mask>
<g mask="url(#mask1_2007_52448)">
<rect x="51.3203" y="21.0527" width="411.842" height="461.906" fill="#FF0000"/>
</g>
</mask>
<g mask="url(#mask0_2007_52448)">
<rect x="47.375" y="15.7852" width="311.842" height="98.6979" fill="#FFB0D0"/>
<rect x="43.4297" y="107.899" width="311.842" height="296.094" fill="#FF99C2"/>
</g>
<path d="M0 23.0268C0 21.2101 1.47275 19.7373 3.28947 19.7373H396.711C398.527 19.7373 400 21.2101 400 23.0268C400 24.8435 398.527 26.3163 396.711 26.3163H3.28946C1.47273 26.3163 0 24.8435 0 23.0268Z" fill="#070707"/>
<ellipse cx="183.414" cy="14.9946" rx="8.65651" ry="8.65771" fill="#F24EB6"/>
<ellipse cx="192.071" cy="16.8931" rx="8.65651" ry="8.65771" fill="#F24EB6"/>
<ellipse cx="183.414" cy="25.5581" rx="8.65651" ry="8.65771" fill="#F24EB6"/>
<ellipse cx="171.992" cy="25.5581" rx="8.65651" ry="8.65771" fill="#F24EB6"/>
<ellipse cx="158.657" cy="23.6519" rx="8.65651" ry="8.65771" fill="#F24EB6"/>
<ellipse cx="170.078" cy="14.9946" rx="8.65651" ry="8.65771" fill="#F24EB6"/>
<ellipse cx="174.758" cy="9.97021" rx="8.65651" ry="8.65771" fill="#F24EB6"/>
<ellipse cx="161.43" cy="14.9946" rx="8.65651" ry="8.65771" fill="#F24EB6"/>
<path d="M198.835 18.0612C198.308 18.0508 197.827 17.774 197.536 17.3342C196.781 16.1912 197.655 14.6342 199.022 14.5538C200.109 14.4899 201.256 14.3516 202.111 14.0708C203.129 13.7368 204.234 13.0373 205.137 12.3736C206.159 11.6219 207.652 11.8003 208.351 12.8592C208.9 13.69 208.771 14.7957 207.988 15.411C207.012 16.1776 205.641 17.1284 204.4 17.5356C202.797 18.0619 200.17 18.0876 198.835 18.0612Z" fill="#F24EB6"/>
<ellipse cx="118.938" cy="14.9946" rx="8.65651" ry="8.65771" fill="#F24EB6"/>
<ellipse cx="127.594" cy="16.8931" rx="8.65651" ry="8.65771" fill="#F24EB6"/>
<ellipse cx="118.938" cy="25.5581" rx="8.65651" ry="8.65771" fill="#F24EB6"/>
<ellipse cx="107.516" cy="25.5581" rx="8.65651" ry="8.65771" fill="#F24EB6"/>
<ellipse cx="94.1799" cy="23.6519" rx="8.65651" ry="8.65771" fill="#F24EB6"/>
<ellipse cx="105.61" cy="14.9946" rx="8.65651" ry="8.65771" fill="#F24EB6"/>
<ellipse cx="110.282" cy="9.97021" rx="8.65651" ry="8.65771" fill="#F24EB6"/>
<ellipse cx="96.9534" cy="14.9946" rx="8.65651" ry="8.65771" fill="#F24EB6"/>
<path d="M134.358 18.0612C133.831 18.0508 133.35 17.774 133.06 17.3342C132.305 16.1912 133.178 14.6342 134.546 14.5538C135.632 14.4899 136.779 14.3516 137.635 14.0708C138.653 13.7368 139.758 13.0373 140.66 12.3736C141.683 11.6219 143.175 11.8003 143.875 12.8592C144.424 13.69 144.294 14.7957 143.511 15.411C142.536 16.1776 141.165 17.1284 139.924 17.5356C138.32 18.0619 135.694 18.0876 134.358 18.0612Z" fill="#F24EB6"/>
<ellipse cx="247.891" cy="13.6821" rx="8.65651" ry="8.65771" fill="#F24EB6"/>
<ellipse cx="256.547" cy="15.5806" rx="8.65651" ry="8.65771" fill="#F24EB6"/>
<ellipse cx="247.891" cy="24.2456" rx="8.65651" ry="8.65771" fill="#F24EB6"/>
<ellipse cx="236.469" cy="24.2456" rx="8.65651" ry="8.65771" fill="#F24EB6"/>
<ellipse cx="223.133" cy="22.3394" rx="8.65651" ry="8.65771" fill="#F24EB6"/>
<ellipse cx="234.563" cy="13.6821" rx="8.65651" ry="8.65771" fill="#F24EB6"/>
<ellipse cx="239.235" cy="8.65771" rx="8.65651" ry="8.65771" fill="#F24EB6"/>
<ellipse cx="225.907" cy="13.6821" rx="8.65651" ry="8.65771" fill="#F24EB6"/>
<path d="M263.311 16.7487C262.784 16.7383 262.303 16.4615 262.013 16.0217C261.258 14.8787 262.131 13.3217 263.499 13.2413C264.585 13.1774 265.732 13.0391 266.588 12.7583C267.606 12.4243 268.711 11.7248 269.613 11.0611C270.636 10.3094 272.128 10.4878 272.828 11.5467C273.377 12.3775 273.247 13.4832 272.465 14.0985C271.489 14.8651 270.118 15.8159 268.877 16.2231C267.273 16.7494 264.647 16.7751 263.311 16.7487Z" fill="#F24EB6"/>
<ellipse cx="312.36" cy="13.6821" rx="8.65651" ry="8.65771" fill="#F24EB6"/>
<ellipse cx="321.016" cy="15.5806" rx="8.65651" ry="8.65771" fill="#F24EB6"/>
<ellipse cx="312.36" cy="24.2456" rx="8.65651" ry="8.65771" fill="#F24EB6"/>
<ellipse cx="300.938" cy="24.2456" rx="8.65651" ry="8.65771" fill="#F24EB6"/>
<ellipse cx="287.602" cy="22.3394" rx="8.65651" ry="8.65771" fill="#F24EB6"/>
<ellipse cx="299.031" cy="13.6821" rx="8.65651" ry="8.65771" fill="#F24EB6"/>
<ellipse cx="303.703" cy="8.65771" rx="8.65651" ry="8.65771" fill="#F24EB6"/>
<ellipse cx="290.375" cy="13.6821" rx="8.65651" ry="8.65771" fill="#F24EB6"/>
<path d="M327.78 16.7487C327.253 16.7383 326.772 16.4615 326.482 16.0217C325.727 14.8787 326.6 13.3217 327.967 13.2413C329.054 13.1774 330.201 13.0391 331.057 12.7583C332.074 12.4243 333.179 11.7248 334.082 11.0611C335.105 10.3094 336.597 10.4878 337.297 11.5467C337.846 12.3775 337.716 13.4832 336.933 14.0985C335.958 14.8651 334.587 15.8159 333.346 16.2231C331.742 16.7494 329.116 16.7751 327.78 16.7487Z" fill="#F24EB6"/>
</svg>
