<svg width="141" height="121" viewBox="0 0 141 121" fill="none" xmlns="http://www.w3.org/2000/svg">
<path d="M136.209 65.572L123.512 70.1972H99.1484L105.022 42.0234L136.209 65.572Z" fill="#FDAB96"/>
<path d="M124.119 66.0082V120.002H97.7578C98.1539 107.199 98.1256 93.4145 98.5965 80.7826C98.7056 77.8756 98.841 75.0286 99.0138 72.2701C100.024 56.0798 102.348 42.8881 108.249 37.9453L124.119 66.0082Z" fill="#FDAB96"/>
<path d="M106.42 43.4857C106.084 42.5054 106.388 41.4234 106.709 40.432C107.644 37.5484 108.801 35.1146 110.851 32.9496C112.627 31.0808 115.183 30.3204 117.255 28.8018C117.667 28.4964 118.082 28.1788 118.568 28.0282C118.951 27.9081 119.356 27.902 119.756 27.8836C124.07 27.6862 128.371 25.5028 132.537 24.431C133.333 24.2274 134.211 24.1256 134.944 24.5104C135.752 24.942 136.214 25.9263 136.222 26.8831C136.23 27.8399 135.844 28.759 135.319 29.5397C133.298 32.5353 129.064 33.8026 126.022 35.2887C125.416 35.5849 124.798 35.878 124.282 36.3269C123.767 36.7758 123.373 37.3733 122.991 37.9647C121.822 39.7969 120.731 41.7033 119.284 43.3004C117.504 45.2649 114.847 46.8355 112.211 46.6248C110.202 46.4701 107.199 45.7586 106.42 43.4857Z" fill="#FDAB96"/>
<path d="M134.624 33.4688C134.422 33.5125 122.6 33.4993 114.294 33.485C109.879 33.4779 106.297 37.6044 106.297 42.6968V56.3638C106.297 61.4532 109.872 65.5756 114.279 65.5756H136.212V33.5899L134.624 33.4688Z" fill="#FDAB96"/>
<path d="M4.78906 65.572L17.4864 70.1972H41.8495L35.9758 42.0234L4.78906 65.572Z" fill="#FDAB96"/>
<path d="M43.2476 120.002H16.8828V66.0082L32.755 37.9453C38.6551 42.8851 40.9741 56.0635 41.9896 72.2477C42.1695 75.0978 42.3069 78.0415 42.418 81.0503C42.8768 93.6068 42.8535 107.287 43.2476 120.002Z" fill="#FDAB96"/>
<path d="M42.4177 81.0448C36.1397 78.6915 23.3373 73.8749 21.2891 72.9761L41.9893 72.2422C42.1691 75.0933 42.3065 78.0359 42.4177 81.0448Z" fill="#231F20"/>
<path d="M119.017 72.9741C117.043 73.8403 105.073 78.3464 98.5938 80.7781C98.7029 77.8711 98.8383 75.0241 99.0111 72.2656L119.017 72.9741Z" fill="#231F20"/>
<path d="M34.581 43.4857C34.9165 42.5054 34.6123 41.4234 34.292 40.432C33.3563 37.5484 32.1983 35.1146 30.1431 32.9496C28.3687 31.0808 25.8123 30.3204 23.7408 28.8018C23.3286 28.4964 22.9133 28.1788 22.4272 28.0282C22.0443 27.9081 21.6391 27.902 21.2399 27.8836C16.9253 27.6862 12.6248 25.5028 8.45869 24.431C7.66245 24.2274 6.78437 24.1256 6.05179 24.5104C5.24343 24.942 4.78165 25.9263 4.77356 26.8831C4.76548 27.8399 5.15147 28.759 5.6769 29.5397C7.69781 32.5353 11.9316 33.8026 14.9731 35.2887C15.5794 35.5849 16.1988 35.878 16.7141 36.3269C17.2294 36.7758 17.6286 37.3733 18.0055 37.9647C19.1746 39.7969 20.2649 41.7033 21.7128 43.3004C23.4923 45.2649 26.1497 46.8355 28.786 46.6248C30.7989 46.4701 33.8019 45.7586 34.581 43.4857Z" fill="#FDAB96"/>
<path d="M6.37952 33.4688C6.58161 33.5125 18.4039 33.4993 26.7099 33.485C31.1246 33.4779 34.7056 37.6044 34.7056 42.6968V56.3638C34.7056 61.4532 31.1316 65.5756 26.723 65.5756H4.78906V33.5899L6.37952 33.4688Z" fill="#FDAB96"/>
<path d="M127.219 0H12.8359V75.221H127.219V0Z" fill="#F24EB6"/>
<path d="M16.806 65.5988C13.5937 65.5988 10.3785 65.5561 7.16621 65.5988C5.27161 65.6243 3.80242 65.7678 2.57673 63.9702C1.59457 62.5248 1.12976 60.3333 1.67641 58.6223C1.81688 58.1724 2.02108 57.7452 2.28269 57.354C1.37328 56.0786 0.282996 54.5162 0.059685 52.9344C-0.163626 51.3526 0.234488 49.6192 1.34195 48.525C0.314314 47.7219 0.0546323 46.3141 0.24864 44.9828C0.442647 43.6514 1.10752 42.4503 1.82394 41.3347C1.29446 40.4278 0.669995 39.4394 0.647765 38.3757C0.619472 37.0209 1.40359 35.7506 2.44638 34.9546C3.48917 34.1587 4.76234 33.7739 6.02743 33.5205C6.32046 33.4614 6.11535 33.5266 6.41444 33.5266H14.2394C17.7214 33.5266 26.092 32.3316 27.1884 37.4739C27.3763 38.3564 27.0873 39.3061 26.5286 39.9972C25.9698 40.6883 25.1766 41.1291 24.345 41.3561C29.8519 43.2045 28.4434 48.7479 24.3955 49.6009C29.1163 51.5531 27.0227 56.9387 22.6777 56.8553C24.1146 57.2624 24.9108 59.3999 24.6653 60.9451C24.4197 62.4902 23.2931 63.7615 21.9704 64.4812C20.6477 65.2008 18.2964 65.5988 16.806 65.5988Z" fill="#FDAB96"/>
<path d="M7.1658 65.9042C7.08541 65.9042 7.0083 65.872 6.95145 65.8147C6.8946 65.7575 6.86267 65.6798 6.86267 65.5988C6.86267 65.5178 6.8946 65.4401 6.95145 65.3829C7.0083 65.3256 7.08541 65.2934 7.1658 65.2934C9.30999 65.2649 11.4895 65.2751 13.5974 65.2843C14.6502 65.2843 15.7395 65.2934 16.8096 65.2934C18.2929 65.2934 20.5776 64.8863 21.8305 64.2033C23.2098 63.4521 24.1546 62.2133 24.3698 60.8881C24.5941 59.4814 23.8545 57.4965 22.6005 57.1402C22.5293 57.1203 22.4678 57.0749 22.4275 57.0125C22.3872 56.9501 22.3709 56.875 22.3817 56.8014C22.3925 56.7277 22.4296 56.6606 22.4861 56.6126C22.5426 56.5646 22.6145 56.539 22.6884 56.5407C24.9276 56.5824 26.413 55.1035 26.7181 53.6184C27.0435 52.0387 26.1331 50.6391 24.2829 49.8746C24.2226 49.85 24.1717 49.8064 24.1379 49.7504C24.104 49.6943 24.089 49.6288 24.095 49.5635C24.101 49.4982 24.1277 49.4365 24.1712 49.3877C24.2147 49.3389 24.2727 49.3055 24.3365 49.2924C26.1957 48.9026 27.5699 47.4165 27.6649 45.6779C27.766 43.9018 26.4918 42.3923 24.2516 41.64C24.1899 41.6193 24.1364 41.5791 24.0992 41.5254C24.0619 41.4717 24.0427 41.4074 24.0445 41.3419C24.0463 41.2764 24.069 41.2132 24.1092 41.1617C24.1494 41.1102 24.205 41.073 24.2678 41.0558C24.8609 40.8939 25.6945 40.5468 26.2957 39.7987C26.8232 39.1462 27.0526 38.278 26.8939 37.5329C26.0068 33.3698 19.9804 33.6141 15.9931 33.7759C15.3485 33.8014 14.7412 33.8268 14.242 33.8268H6.41705C6.3327 33.8299 6.24834 33.821 6.16646 33.8004C6.14928 33.8004 6.12503 33.8075 6.08966 33.8146C6.01074 33.8305 5.92877 33.8142 5.86178 33.7693C5.79479 33.7243 5.74829 33.6544 5.73248 33.5749C5.71667 33.4954 5.73285 33.4128 5.77747 33.3453C5.8221 33.2779 5.89152 33.231 5.97044 33.2151C6.1311 33.1835 6.22204 33.1683 6.3342 33.2151C6.34531 33.2151 6.37057 33.2151 6.41705 33.2151H14.242C14.7291 33.2151 15.303 33.1917 15.9679 33.1642C18.013 33.0817 20.5574 32.9789 22.7834 33.4543C25.4682 34.0284 27.0506 35.3567 27.4871 37.4036C27.6892 38.3391 27.4173 39.3783 26.7666 40.1835C26.347 40.6924 25.8152 41.0957 25.2135 41.3611C27.2486 42.2772 28.3773 43.8651 28.2702 45.7126C28.1691 47.4714 26.9566 49.0044 25.2388 49.6609C27.1455 50.748 27.581 52.4336 27.3123 53.7416C27.0091 55.2338 25.6955 56.7219 23.6928 57.0741C24.6861 57.9545 25.1832 59.6361 24.969 60.9837C24.7275 62.4953 23.6625 63.8989 22.1195 64.7397C20.7312 65.495 18.3475 65.9031 16.8096 65.9031C15.7375 65.9031 14.6482 65.9031 13.5953 65.894C11.4895 65.8848 9.31201 65.8746 7.17388 65.9031L7.1658 65.9042Z" fill="#231F20"/>
<path d="M24.3485 41.663H24.3414L8.07307 41.2904C7.99267 41.2895 7.91594 41.2564 7.85975 41.1985C7.80357 41.1405 7.77252 41.0625 7.77346 40.9815C7.7744 40.9005 7.80723 40.8232 7.86475 40.7666C7.92226 40.71 7.99974 40.6788 8.08013 40.6797H8.0872L24.3555 41.0533C24.4359 41.0542 24.5127 41.0873 24.5688 41.1452C24.625 41.2032 24.6561 41.2812 24.6551 41.3622C24.6542 41.4432 24.6214 41.5205 24.5639 41.5771C24.5063 41.6337 24.4289 41.6649 24.3485 41.664V41.663Z" fill="#231F20"/>
<path d="M24.3963 49.8987H24.3842L9.19605 49.2126C9.11565 49.209 9.04 49.1733 8.98571 49.1134C8.93142 49.0536 8.90294 48.9745 8.90656 48.8935C8.91017 48.8125 8.94559 48.7363 9.005 48.6816C9.06441 48.6269 9.14294 48.5982 9.22334 48.6019L24.4115 49.2879C24.4919 49.2897 24.5683 49.3235 24.6239 49.382C24.6795 49.4405 24.7098 49.5189 24.7081 49.5999C24.7063 49.6809 24.6727 49.7579 24.6146 49.8139C24.5566 49.8699 24.4788 49.9004 24.3984 49.8987H24.3963Z" fill="#231F20"/>
<path d="M8.36564 57.4104C8.28524 57.4104 8.20813 57.3782 8.15128 57.3209C8.09444 57.2637 8.0625 57.186 8.0625 57.105C8.0625 57.024 8.09444 56.9463 8.15128 56.8891C8.20813 56.8318 8.28524 56.7996 8.36564 56.7996L22.6848 56.5391H22.6898C22.7702 56.5391 22.8473 56.5712 22.9042 56.6285C22.961 56.6858 22.993 56.7634 22.993 56.8444C22.993 56.9254 22.961 57.0031 22.9042 57.0604C22.8473 57.1176 22.7702 57.1498 22.6898 57.1498L8.37169 57.4104H8.36564Z" fill="#231F20"/>
<path d="M22.675 35.1953C23.4005 35.2513 24.1391 35.3622 24.7828 35.7195C25.4264 36.0768 25.962 36.7242 26.0368 37.4855C26.1186 38.31 25.6386 39.1141 24.9808 39.5732C24.323 40.0323 23.5167 40.1839 22.7295 40.2287C22.6012 38.9421 22.6598 36.0992 22.675 35.1953Z" fill="#F24EB6"/>
<path d="M22.675 50.7031C23.4005 50.7591 24.1391 50.8701 24.7818 51.2273C25.4244 51.5846 25.961 52.232 26.0368 52.9933C26.1186 53.8178 25.6376 54.6219 24.9808 55.081C24.324 55.5401 23.5167 55.6917 22.7295 55.7365C22.6012 54.4499 22.6598 51.607 22.675 50.7031Z" fill="#F24EB6"/>
<path d="M20.3144 58.2578C21.0389 58.3128 21.7786 58.4247 22.4213 58.782C23.0639 59.1393 23.6005 59.7867 23.6762 60.548C23.7581 61.3725 23.2721 62.1766 22.6203 62.6357C21.9686 63.0948 21.1562 63.2464 20.369 63.2912C20.2437 62.0046 20.2993 59.1658 20.3144 58.2578Z" fill="#F24EB6"/>
<path d="M23.463 43.1172C24.1612 43.1711 24.8777 43.278 25.494 43.6261C26.1104 43.9742 26.6298 44.5941 26.7066 45.328C26.7854 46.123 26.3226 46.8996 25.6891 47.3404C25.0555 47.7811 24.2744 47.9317 23.5196 47.9714C23.3913 46.7276 23.4479 43.9875 23.463 43.1172Z" fill="#F24EB6"/>
<path d="M124.196 65.5988C127.408 65.5988 130.623 65.5561 133.836 65.5988C135.73 65.6243 137.199 65.7678 138.425 63.9702C139.407 62.5248 139.872 60.3333 139.325 58.6223C139.185 58.1725 138.98 57.7454 138.719 57.354C139.634 56.0786 140.719 54.5162 140.942 52.9344C141.165 51.3526 140.768 49.6192 139.661 48.525C140.689 47.7219 140.948 46.3141 140.754 44.9828C140.56 43.6514 139.895 42.4503 139.179 41.3347C139.708 40.4278 140.332 39.4394 140.355 38.3757C140.383 37.0209 139.599 35.7506 138.556 34.9546C137.514 34.1587 136.241 33.7739 134.975 33.5205C134.681 33.4614 134.887 33.5266 134.588 33.5266H126.763C123.28 33.5266 114.911 32.3316 113.814 37.4739C113.627 38.3564 113.916 39.3061 114.474 39.9972C115.033 40.6883 115.826 41.1291 116.658 41.3561C111.15 43.2045 112.559 48.7479 116.607 49.6009C111.887 51.5531 113.98 56.9387 118.325 56.8553C116.887 57.2624 116.092 59.3999 116.338 60.9451C116.583 62.4902 117.71 63.7615 119.032 64.4812C120.355 65.2008 122.703 65.5988 124.196 65.5988Z" fill="#FDAB96"/>
<path d="M133.838 65.9031C131.699 65.8746 129.521 65.8848 127.416 65.894C126.363 65.894 125.274 65.9031 124.202 65.9031C122.664 65.9031 120.28 65.496 118.892 64.7397C117.349 63.8989 116.283 62.5004 116.043 60.9837C115.828 59.6361 116.325 57.9545 117.318 57.0741C115.316 56.7219 114.006 55.2338 113.699 53.7416C113.431 52.4336 113.866 50.748 115.773 49.6609C114.055 49.0044 112.842 47.4714 112.741 45.7126C112.634 43.8651 113.763 42.2813 115.798 41.3611C115.196 41.0957 114.665 40.6924 114.245 40.1835C113.594 39.3783 113.325 38.3391 113.524 37.4036C113.961 35.3567 115.545 34.0284 118.228 33.4543C120.451 32.9789 122.998 33.0817 125.043 33.1642C125.709 33.1917 126.282 33.2151 126.77 33.2151H134.594C134.642 33.2151 134.666 33.2151 134.677 33.2151C134.795 33.1767 134.922 33.1767 135.04 33.2151C135.079 33.2229 135.116 33.2384 135.149 33.2607C135.183 33.283 135.211 33.3116 135.233 33.345C135.255 33.3783 135.271 33.4158 135.279 33.4551C135.286 33.4945 135.286 33.535 135.279 33.5744C135.271 33.6137 135.255 33.6512 135.233 33.6846C135.211 33.7179 135.183 33.7466 135.15 33.7689C135.116 33.7912 135.079 33.8067 135.04 33.8146C135.001 33.8224 134.961 33.8224 134.922 33.8146L134.845 33.8004C134.763 33.8208 134.679 33.8298 134.594 33.8268H126.77C126.27 33.8268 125.658 33.8014 125.018 33.7759C121.031 33.6141 115.005 33.3688 114.118 37.5329C113.959 38.278 114.187 39.1462 114.715 39.7987C115.321 40.5448 116.151 40.8939 116.744 41.0558C116.807 41.073 116.862 41.1101 116.902 41.1617C116.943 41.2132 116.965 41.2764 116.967 41.3419C116.969 41.4074 116.95 41.4717 116.912 41.5254C116.875 41.5791 116.822 41.6193 116.76 41.64C114.52 42.3922 113.244 43.9018 113.347 45.6779C113.448 47.4165 114.816 48.9026 116.675 49.2924C116.739 49.3055 116.797 49.3389 116.84 49.3877C116.884 49.4365 116.911 49.4982 116.917 49.5635C116.923 49.6288 116.908 49.6943 116.874 49.7504C116.84 49.8064 116.789 49.85 116.729 49.8746C114.878 50.6391 113.968 52.0387 114.292 53.6184C114.596 55.1035 116.082 56.5824 118.323 56.5407H118.329C118.403 56.5406 118.473 56.5673 118.529 56.6158C118.584 56.6642 118.62 56.7313 118.63 56.8045C118.64 56.8777 118.623 56.952 118.583 57.0137C118.543 57.0755 118.482 57.1204 118.411 57.1402C117.157 57.4965 116.417 59.4814 116.641 60.8881C116.852 62.2113 117.802 63.4521 119.18 64.2033C120.434 64.8863 122.717 65.2934 124.202 65.2934C125.272 65.2934 126.361 65.2934 127.413 65.2843C129.522 65.2751 131.702 65.2649 133.846 65.2934C133.926 65.2934 134.003 65.3256 134.06 65.3829C134.117 65.4401 134.149 65.5178 134.149 65.5988C134.149 65.6798 134.117 65.7575 134.06 65.8147C134.003 65.872 133.926 65.9042 133.846 65.9042L133.838 65.9031Z" fill="#231F20"/>
<path d="M116.658 41.6562C116.578 41.6571 116.5 41.6259 116.443 41.5693C116.385 41.5127 116.353 41.4354 116.352 41.3544C116.351 41.2734 116.382 41.1954 116.438 41.1374C116.494 41.0795 116.571 41.0464 116.651 41.0455L132.92 40.6719H132.927C133.007 40.671 133.084 40.7022 133.142 40.7588C133.199 40.8154 133.232 40.8927 133.233 40.9737C133.234 41.0547 133.203 41.1327 133.147 41.1907C133.091 41.2486 133.014 41.2817 132.934 41.2826L116.665 41.6552L116.658 41.6562Z" fill="#231F20"/>
<path d="M116.607 49.8986C116.526 49.9004 116.448 49.8699 116.39 49.8139C116.332 49.7578 116.299 49.6809 116.297 49.5999C116.295 49.5189 116.325 49.4405 116.381 49.382C116.437 49.3235 116.513 49.2897 116.594 49.2879L131.782 48.6018C131.862 48.5983 131.941 48.6272 132 48.6819C132.059 48.7367 132.094 48.813 132.098 48.894C132.101 48.975 132.073 49.054 132.018 49.1138C131.964 49.1735 131.888 49.2091 131.808 49.2126L116.621 49.8986H116.607Z" fill="#231F20"/>
<path d="M132.64 57.4104H132.634L118.316 57.1498C118.236 57.1491 118.159 57.1163 118.103 57.0586C118.046 57.0008 118.015 56.9229 118.016 56.8419C118.016 56.7609 118.049 56.6835 118.106 56.6267C118.164 56.5699 118.241 56.5384 118.321 56.5391L132.64 56.7997C132.721 56.7997 132.798 56.8318 132.855 56.8891C132.912 56.9464 132.944 57.024 132.944 57.105C132.944 57.186 132.912 57.2637 132.855 57.3209C132.798 57.3782 132.721 57.4104 132.64 57.4104Z" fill="#231F20"/>
<path d="M118.324 35.1953C117.599 35.2513 116.86 35.3622 116.216 35.7195C115.573 36.0768 115.037 36.7242 114.962 37.4855C114.88 38.31 115.36 39.1141 116.018 39.5732C116.676 40.0323 117.482 40.1839 118.269 40.2287C118.398 38.9421 118.339 36.0992 118.324 35.1953Z" fill="#F24EB6"/>
<path d="M118.332 50.7031C117.606 50.7591 116.868 50.8701 116.224 51.2273C115.58 51.5846 115.045 52.232 114.97 52.9933C114.888 53.8178 115.368 54.6219 116.026 55.081C116.684 55.5401 117.49 55.6917 118.277 55.7365C118.406 54.4499 118.347 51.607 118.332 50.7031Z" fill="#F24EB6"/>
<path d="M120.691 58.2578C119.966 58.3128 119.227 58.4247 118.584 58.782C117.942 59.1393 117.405 59.7867 117.329 60.548C117.248 61.3725 117.728 62.1766 118.385 62.6357C119.043 63.0948 119.849 63.2464 120.637 63.2912C120.765 62.0046 120.706 59.1658 120.691 58.2578Z" fill="#F24EB6"/>
<path d="M117.541 43.1172C116.842 43.1711 116.127 43.278 115.51 43.6261C114.894 43.9742 114.375 44.5941 114.298 45.328C114.219 46.123 114.682 46.8996 115.315 47.3404C115.949 47.7811 116.73 47.9317 117.485 47.9714C117.613 46.7276 117.557 43.9875 117.541 43.1172Z" fill="#F24EB6"/>
<path d="M33.4468 15.0242C33.8509 17.7114 34.208 19.2654 34.5178 19.6861C34.693 19.8761 34.8749 20.0797 35.0635 20.2968C35.2521 20.514 35.3464 20.7311 35.3464 20.9483C35.3464 22.0612 35.0635 22.7465 34.4976 23.0044C34.08 23.208 32.9348 23.3098 31.0621 23.3098C29.5531 23.3098 28.5494 23.1605 28.0509 22.8619C27.5524 22.5497 27.3032 21.9594 27.3032 21.0908C27.3032 20.8872 27.4245 20.6633 27.667 20.419C27.9768 20.1204 28.1587 19.9236 28.2126 19.8286C28.3878 19.4758 28.5898 18.6343 28.8189 17.3043C29.021 16.1643 29.149 15.2889 29.2029 14.6782C29.2029 14.6239 29.1018 14.4474 28.8997 14.1489C28.6437 13.7824 28.4484 13.416 28.3137 13.0496C28.0711 12.6017 27.7815 12.0385 27.4447 11.3599C27.3099 11.1835 27.1146 11.0002 26.8586 10.8102C26.4275 10.4981 26.2119 10.342 26.2119 10.342C26.0906 10.2742 25.9222 10.1724 25.7067 10.0367C25.5585 9.87379 25.4844 9.64307 25.4844 9.3445C25.4844 8.78806 25.8347 8.37412 26.5352 8.10269C27.1011 7.87197 27.8152 7.7634 28.6774 7.77697C29.863 7.79054 30.7051 7.93304 31.2036 8.20448C31.6077 8.42162 31.8098 8.75413 31.8098 9.20199C31.8098 9.47343 31.7492 9.67022 31.6279 9.79236C31.5067 9.91451 31.3787 10.0299 31.244 10.1384C31.1092 10.247 31.0015 10.3895 30.9206 10.5659C30.8533 10.7424 30.8398 10.9324 30.8802 11.136C31.0419 11.9774 31.3989 12.3981 31.9513 12.3981C32.1534 12.3981 32.4026 12.1538 32.699 11.6653C32.7664 11.421 32.8809 11.136 33.0426 10.8102C33.1638 10.5659 33.2245 10.4031 33.2245 10.3217C33.2245 10.2809 33.1975 10.247 33.1436 10.2199C33.1032 10.1927 33.0156 10.1317 32.8809 10.0367C32.7192 9.87379 32.6384 9.64307 32.6384 9.3445C32.6384 8.29948 33.7027 7.77697 35.8314 7.77697C37.4751 7.77697 38.297 8.19769 38.297 9.03913C38.297 9.31057 38.2296 9.50736 38.0949 9.6295C37.9736 9.75165 37.8524 9.86022 37.7311 9.95522C37.6233 10.0502 37.4078 10.1656 37.0844 10.3013C36.5859 10.4913 36.2693 10.6338 36.1346 10.7288C36.0133 10.8238 35.8449 11.0206 35.6293 11.3192C34.8479 12.1742 34.3629 12.7306 34.1743 12.9885C33.6893 13.6264 33.4468 14.1896 33.4468 14.6782C33.4468 14.7732 33.4468 14.8885 33.4468 15.0242Z" fill="white"/>
<path d="M51.1405 17.63C51.1405 19.34 50.5005 20.7719 49.2206 21.9254C48.0081 23.0112 46.5463 23.554 44.8352 23.554C42.9221 23.554 41.3862 22.794 40.2276 21.274C39.1902 19.8897 38.6715 18.2 38.6715 16.205C38.6715 14.0064 39.1969 12.086 40.2478 10.4438C41.4603 8.54377 43.0972 7.59375 45.1586 7.59375C47.1525 7.59375 48.6952 8.74734 49.7865 11.0545C50.6891 12.941 51.1405 15.1328 51.1405 17.63ZM46.7147 14.9632C46.7147 14.0674 46.5193 13.0767 46.1286 11.991C45.6436 10.6338 45.0441 9.95522 44.33 9.95522C43.9123 9.95522 43.589 10.2674 43.36 10.8917C43.1848 11.3667 43.0972 11.8756 43.0972 12.4185C43.0972 13.3414 43.2454 14.2032 43.5418 15.0039C43.946 16.0761 44.5388 16.6121 45.3202 16.6121C46.2499 16.6121 46.7147 16.0625 46.7147 14.9632Z" fill="white"/>
<path d="M64.6226 13.5585C64.6226 14.0199 64.6294 14.7121 64.6428 15.635C64.6698 16.5443 64.6833 17.2296 64.6833 17.6911C64.6833 19.0075 64.1107 20.2629 62.9655 21.4572C61.8203 22.638 60.5875 23.2283 59.2672 23.2283C56.8825 23.2283 55.2052 22.7737 54.2352 21.8644C53.2247 20.9279 52.7195 19.2925 52.7195 16.9582C52.7195 16.5103 52.7397 15.8385 52.7801 14.9428C52.834 14.0471 52.8609 13.3753 52.8609 12.9274C52.8609 11.9367 52.7531 11.2106 52.5376 10.7492C52.4298 10.532 52.221 10.3013 51.9111 10.057C51.6821 9.88058 51.5675 9.64307 51.5675 9.3445C51.5675 8.76091 51.9515 8.33341 52.7195 8.06197C53.2449 7.87197 53.8714 7.77697 54.5989 7.77697C56.8084 7.77697 57.9132 8.25198 57.9132 9.20199C57.9132 9.50057 57.7987 9.75165 57.5697 9.95522C57.2598 10.2267 57.0712 10.437 57.0038 10.5863C56.7748 11.1292 56.6602 12.0385 56.6602 13.3142L56.64 13.2735C56.6535 14.5221 56.7748 15.3635 57.0038 15.7978C57.3541 16.4221 58.1018 16.7343 59.247 16.7343C60.217 16.7343 60.8705 16.5307 61.2073 16.1236C61.5576 15.7164 61.7327 15.0107 61.7327 14.0064C61.7327 12.9749 61.6923 12.1674 61.6115 11.5838C61.5172 10.8781 61.2814 10.4099 60.9042 10.1792C60.5673 9.98915 60.3989 9.71093 60.3989 9.3445C60.3989 8.29948 61.4633 7.77697 63.592 7.77697C64.1443 7.77697 64.6294 7.86518 65.047 8.04162C65.5994 8.28591 65.8756 8.65234 65.8756 9.14092C65.8756 9.4395 65.7611 9.69057 65.532 9.89415C65.2356 10.152 65.0538 10.3556 64.9864 10.5049C64.7439 11.102 64.6226 12.1199 64.6226 13.5585Z" fill="white"/>
<path d="M87.3983 21.2333C87.3444 22.0204 86.7785 22.5769 85.7007 22.9026C85.0001 23.1333 84.1446 23.2487 83.1342 23.2487C82.1237 23.2487 81.3962 23.1605 80.9516 22.984C80.2106 22.699 79.8401 22.1426 79.8401 21.3147C79.8401 21.0026 79.8872 20.6497 79.9816 20.2561C80.5878 19.6454 80.891 18.709 80.891 17.4468C80.891 17.0125 80.5946 16.68 80.0018 16.4493C79.5572 16.2728 79.0721 16.1846 78.5467 16.1846C78.5467 16.1846 78.3581 16.2186 77.9809 16.2864C77.4824 16.585 77.2331 17.155 77.2331 17.9964C77.2331 18.6072 77.3611 19.1365 77.6171 19.5843C77.7249 19.7472 77.9741 20.039 78.3648 20.4597C78.6208 20.7447 78.7488 21.0094 78.7488 21.2536C78.7488 22.1901 78.2638 22.794 77.2937 23.0655C76.8222 23.2012 75.9667 23.269 74.7272 23.269C72.868 23.269 71.9383 22.8008 71.9383 21.8644C71.9249 21.0365 72.2819 20.3647 73.0094 19.849C73.8582 19.2383 74.6059 17.9286 75.2526 15.92C75.805 14.1692 76.0812 12.6424 76.0812 11.3395C76.0812 10.8374 75.9936 10.4167 75.8185 10.0774C75.7242 9.88736 75.5692 9.69057 75.3537 9.487C75.1785 9.32414 75.091 9.20199 75.091 9.12056C75.091 8.6727 75.8117 8.28591 77.2533 7.96019C78.4793 7.68875 79.3753 7.58018 79.9411 7.63446C80.8977 7.72947 81.6252 8.02126 82.1237 8.50984C82.3528 8.74056 82.6896 9.26985 83.1342 10.0977C83.2689 10.3692 83.4373 10.8985 83.6394 11.6856C84.4208 14.8207 85.209 17.1821 86.0039 18.77C86.1117 19.0007 86.3137 19.2383 86.6101 19.4825C86.9065 19.7133 87.1019 19.9033 87.1962 20.0526C87.3579 20.3376 87.4252 20.7311 87.3983 21.2333ZM80.2443 13.416C80.2443 13.3074 80.123 12.9478 79.8805 12.3371C79.6515 11.7806 79.3483 11.5024 78.9711 11.5024C78.7421 11.5024 78.4996 11.7942 78.2436 12.3778C78.028 12.8799 77.9202 13.2667 77.9202 13.5381C77.9202 13.6603 78.0954 13.7214 78.4457 13.7214C78.5265 13.7214 78.6612 13.7146 78.8498 13.701C79.0385 13.6739 79.1732 13.6603 79.254 13.6603C79.5235 13.6603 79.6919 13.6806 79.7593 13.7214C80.0826 13.6942 80.2443 13.5924 80.2443 13.416Z" fill="white"/>
<path d="M93.7842 9.87379C93.6091 9.87379 93.4474 9.94165 93.2992 10.0774C93.1645 10.1995 93.1106 10.3488 93.1375 10.5252L93.2992 12.6221C93.3261 12.9749 93.4474 13.1514 93.663 13.1514C94.0671 13.1514 94.3905 12.9546 94.633 12.561C94.8486 12.2081 94.9563 11.8145 94.9563 11.3802C94.9563 10.3759 94.5656 9.87379 93.7842 9.87379ZM93.7236 16.1846C94.0065 18.1118 94.2962 19.279 94.5926 19.6861C94.7677 19.8761 94.9496 20.0797 95.1382 20.2968C95.3268 20.514 95.4212 20.7311 95.4212 20.9483C95.4212 22.0612 95.145 22.7465 94.5926 23.0044C94.1615 23.208 93.0095 23.3098 91.1368 23.3098C89.6009 23.3098 88.577 23.1673 88.065 22.8822C87.5665 22.5837 87.3375 21.9865 87.3779 21.0908C87.3914 20.8872 87.5194 20.6633 87.7619 20.419C88.0583 20.1204 88.2335 19.9236 88.2873 19.8286C88.476 19.4486 88.705 18.4647 88.9744 16.8768C89.217 15.4518 89.3988 14.1014 89.5201 12.8256C89.4797 11.4413 89.2978 10.6134 88.9744 10.342C88.8532 10.2742 88.6848 10.1724 88.4692 10.0367C88.3075 9.87379 88.2267 9.64307 88.2267 9.3445C88.2267 8.78806 88.577 8.37412 89.2776 8.10269C89.8434 7.87197 90.5575 7.7634 91.4198 7.77697C91.7296 7.79054 92.0126 7.80411 92.2685 7.81768C93.4676 7.7634 94.2221 7.73625 94.532 7.73625C95.6502 7.73625 96.6337 7.96018 97.4825 8.40805C98.5334 8.95092 99.0588 9.73808 99.0588 10.7695C99.0588 12.0588 98.3717 13.0835 96.9975 13.8435C97.1322 14.2642 97.4219 14.5764 97.8665 14.78C98.5266 15.0785 98.8634 15.2278 98.8769 15.2278C99.4293 15.6893 99.8402 16.1711 100.11 16.6732C100.352 17.1211 100.554 17.725 100.716 18.485C100.945 19.6115 101.289 20.5683 101.747 21.3554C101.774 21.4097 101.949 21.6065 102.272 21.9458C102.515 22.2037 102.636 22.4208 102.636 22.5972C102.636 22.733 102.521 22.8687 102.292 23.0044C102.131 23.0994 101.969 23.2012 101.807 23.3098C101.565 23.3233 101.167 23.3776 100.615 23.4726C100.157 23.554 99.7661 23.5948 99.4428 23.5948C98.0416 23.5948 97.0783 23.0383 96.5529 21.9254C96.2969 21.3826 96.0544 20.2358 95.8253 18.485C95.6232 17.0193 95.2797 16.0693 94.7947 15.635C94.633 15.4993 94.4376 15.4585 94.2086 15.5128C93.8314 15.6078 93.6697 15.8318 93.7236 16.1846Z" fill="white"/>
<path d="M104.66 11.6856C104.579 10.9799 104.417 10.532 104.175 10.342C104.053 10.2742 103.885 10.1724 103.669 10.0367C103.508 9.87379 103.427 9.64307 103.427 9.3445C103.427 8.78806 103.777 8.37412 104.478 8.10269C105.057 7.87197 105.771 7.7634 106.62 7.77697C106.782 7.77697 107.024 7.79054 107.347 7.81768C107.684 7.84483 107.94 7.8584 108.115 7.8584C108.573 7.8584 109.321 7.82447 110.359 7.75661C111.396 7.68875 112.13 7.65482 112.561 7.65482C113.141 7.65482 113.592 8.02126 113.915 8.75413C114.158 9.32414 114.279 9.94165 114.279 10.6067C114.279 11.0274 114.198 11.3802 114.037 11.6653C113.821 12.0181 113.525 12.1945 113.147 12.1945C112.784 12.1945 112.474 12.0249 112.218 11.6856C111.841 11.1835 111.551 10.8645 111.349 10.7288C110.85 10.3759 110.116 10.1995 109.146 10.1995C108.863 10.1995 108.715 10.1995 108.701 10.1995C108.567 10.2538 108.472 10.4167 108.418 10.6881C108.392 10.7831 108.378 10.8781 108.378 10.9731C108.378 11.421 108.6 11.7874 109.045 12.0724C109.436 12.3167 109.9 12.4388 110.439 12.4388C110.547 12.4388 110.675 12.3642 110.823 12.2149C110.985 12.0656 111.12 11.991 111.228 11.991C111.43 11.991 111.531 12.1403 111.531 12.4388C111.531 12.9138 111.47 13.3685 111.349 13.8028C111.174 14.4135 110.918 14.7189 110.581 14.7189C110.365 14.7189 110.156 14.5492 109.954 14.2099C109.766 13.8707 109.483 13.701 109.106 13.701C108.674 13.701 108.459 14.0607 108.459 14.78C108.459 16.4764 109.436 17.3246 111.389 17.3246C111.47 17.3246 111.598 17.3043 111.773 17.2636C111.948 17.2229 112.083 17.2161 112.177 17.2432C112.272 17.2568 112.352 17.2636 112.42 17.2636C112.757 17.2636 113.033 17.1007 113.248 16.775C113.477 16.4493 113.659 16.2864 113.794 16.2864C113.996 16.2864 114.171 16.4221 114.32 16.6936C114.468 16.965 114.542 17.2161 114.542 17.4468C114.542 17.5825 114.555 17.9354 114.582 18.5054C114.623 19.0618 114.643 19.5233 114.643 19.8897C114.643 21.5454 114.306 22.6176 113.632 23.1062C113.376 23.2826 112.521 23.3708 111.066 23.3708C110.662 23.3708 110.109 23.3776 109.409 23.3912C108.829 23.4048 108.264 23.4048 107.711 23.3912L103.912 23.3708C103.225 23.3573 102.881 23.0248 102.881 22.3733C102.881 22.1154 102.982 21.8847 103.184 21.6812C103.521 21.3419 103.71 21.1315 103.75 21.0501L104.134 20.4393C104.323 20.1272 104.437 19.3536 104.478 18.1186L104.639 12.8663C104.666 12.4185 104.673 12.0249 104.66 11.6856Z" fill="white"/>
<path d="M31.3127 32.4503C31.2319 31.7446 31.0702 31.2967 30.8277 31.1067C30.7065 31.0388 30.538 30.937 30.3225 30.8013C30.1608 30.6385 30.08 30.4077 30.08 30.1092C30.08 29.5527 30.4303 29.1388 31.1308 28.8674C31.7102 28.6366 32.4242 28.5281 33.273 28.5416C33.4347 28.5416 33.6772 28.5552 34.0005 28.5824C34.3374 28.6095 34.5933 28.6231 34.7685 28.6231C35.2266 28.6231 35.9743 28.5891 37.0117 28.5213C38.0491 28.4534 38.7834 28.4195 39.2145 28.4195C39.7938 28.4195 40.2452 28.7859 40.5685 29.5188C40.811 30.0888 40.9323 30.7063 40.9323 31.3713C40.9323 31.7921 40.8514 32.1449 40.6898 32.4299C40.4742 32.7828 40.1778 32.9592 39.8006 32.9592C39.4368 32.9592 39.1269 32.7896 38.8709 32.4503C38.4937 31.9481 38.204 31.6292 38.0019 31.4935C37.5035 31.1406 36.7692 30.9642 35.7992 30.9642C35.5162 30.9642 35.368 30.9642 35.3546 30.9642C35.2198 31.0185 35.1255 31.1813 35.0716 31.4528C35.0447 31.5478 35.0312 31.6428 35.0312 31.7378C35.0312 32.1856 35.2535 32.5521 35.6981 32.8371C36.0888 33.0814 36.5536 33.2035 37.0925 33.2035C37.2003 33.2035 37.3283 33.1289 37.4765 32.9796C37.6382 32.8303 37.7729 32.7556 37.8807 32.7556C38.0828 32.7556 38.1838 32.9049 38.1838 33.2035C38.1838 33.6785 38.1232 34.1332 38.0019 34.5675C37.8268 35.1782 37.5708 35.4836 37.234 35.4836C37.0184 35.4836 36.8096 35.3139 36.6075 34.9746C36.4189 34.6353 36.136 34.4657 35.7587 34.4657C35.3276 34.4657 35.112 34.8253 35.112 35.5446C35.112 37.2411 36.0888 38.0893 38.0424 38.0893C38.1232 38.0893 38.2512 38.069 38.4263 38.0282C38.6015 37.9875 38.7362 37.9807 38.8305 38.0079C38.9248 38.0215 39.0057 38.0282 39.073 38.0282C39.4098 38.0282 39.686 37.8654 39.9016 37.5397C40.1306 37.2139 40.3125 37.0511 40.4472 37.0511C40.6493 37.0511 40.8245 37.1868 40.9727 37.4582C41.1209 37.7297 41.195 37.9807 41.195 38.2115C41.195 38.3472 41.2085 38.7 41.2354 39.2701C41.2758 39.8265 41.296 40.2879 41.296 40.6544C41.296 42.3101 40.9592 43.3823 40.2856 43.8709C40.0296 44.0473 39.1741 44.1355 37.719 44.1355C37.3148 44.1355 36.7625 44.1423 36.0619 44.1559C35.4825 44.1694 34.9167 44.1694 34.3643 44.1559L30.565 44.1355C29.8779 44.1219 29.5343 43.7894 29.5343 43.138C29.5343 42.8801 29.6354 42.6494 29.8375 42.4458C30.1743 42.1065 30.3629 41.8962 30.4033 41.8147L30.7873 41.204C30.9759 40.8919 31.0904 40.1183 31.1308 38.8833L31.2925 33.631C31.3195 33.1832 31.3262 32.7896 31.3127 32.4503Z" fill="white"/>
<path d="M48.0159 36.9697C48.0159 37.3089 48.1371 37.9332 48.3796 38.8425C48.6356 39.7383 48.831 40.2811 48.9657 40.4711C49.1139 40.6611 49.2688 40.8512 49.4305 41.0412C49.6326 41.2719 49.7539 41.4958 49.7943 41.713C49.8347 41.9844 49.8549 42.2287 49.8549 42.4458C49.8549 43.043 49.6393 43.4637 49.2082 43.708C48.8579 43.898 48.2314 44.0134 47.3288 44.0541C46.9111 44.1084 46.0017 44.1355 44.6005 44.1355C44.0616 44.1355 43.5092 44.0269 42.9434 43.8098C42.4449 43.6333 42.1148 43.3823 41.9531 43.0565C41.8049 42.8258 41.7308 42.5544 41.7308 42.2422C41.7308 42.188 41.7308 42.1337 41.7308 42.0794C41.7308 42.0115 41.7308 41.9369 41.7308 41.8555C41.7308 41.679 41.8184 41.4958 41.9936 41.3058C42.1418 41.1565 42.2967 41.0004 42.4584 40.8376C42.8626 39.2904 43.1522 37.8518 43.3274 36.5218C43.4756 35.4496 43.5766 34.4725 43.6305 33.5903C43.7113 32.301 43.5295 31.4731 43.0849 31.1067C42.9636 31.0388 42.7952 30.937 42.5796 30.8013C42.418 30.6385 42.3371 30.4077 42.3371 30.1092C42.3371 29.5527 42.6874 29.1388 43.388 28.8674C43.9538 28.6366 44.6679 28.5281 45.5302 28.5416C46.9987 28.5688 47.9418 28.7791 48.3594 29.1727C48.9926 29.5934 49.5652 30.5977 50.0772 32.1856C50.6431 33.8957 51.1954 35.0153 51.7343 35.5446C51.8691 35.6668 52.0173 35.7007 52.179 35.6464C52.3406 35.4428 52.4215 35.1443 52.4215 34.7507C52.4215 34.6014 52.4013 34.3707 52.3608 34.0585C52.3608 34.0314 52.3608 33.9975 52.3608 33.9567L52.3406 33.916C52.3002 33.5903 52.2531 33.2442 52.1992 32.8778C51.9701 32.1178 51.5996 31.5274 51.0877 31.1067C50.9664 31.0388 50.798 30.937 50.5824 30.8013C50.4342 30.6385 50.3601 30.4077 50.3601 30.1092C50.3601 29.5527 50.7104 29.1388 51.411 28.8674C51.9769 28.6366 52.6909 28.5281 53.5532 28.5416C54.7388 28.5552 55.5808 28.6977 56.0793 28.9691C56.4835 29.1863 56.6856 29.5188 56.6856 29.9667C56.6856 30.2381 56.625 30.4349 56.5037 30.557C56.3824 30.6792 56.2545 30.7945 56.1197 30.9031C55.985 31.0117 55.8772 31.161 55.7964 31.351C55.6347 31.636 55.473 31.9278 55.3114 32.2264C55.0689 32.7285 54.9476 33.2917 54.9476 33.916C54.9476 33.8889 54.9476 33.9771 54.9476 34.1807C54.9745 34.9271 55.1834 36.0536 55.5741 37.56C55.9378 38.9986 56.1197 40.1183 56.1197 40.919C56.1197 41.9776 56.0322 42.7105 55.857 43.1176C55.5741 43.7555 54.988 44.0744 54.0988 44.0744C53.1153 44.0744 52.2261 43.4298 51.4312 42.1405C51.2291 41.8012 50.6767 40.6069 49.7741 38.5575C49.2082 37.2682 48.6962 36.6236 48.2382 36.6236C48.09 36.6236 48.0159 36.7389 48.0159 36.9697Z" fill="white"/>
<path d="M58.7648 32.4503C58.6839 31.7446 58.5222 31.2967 58.2797 31.1067C58.1585 31.0388 57.9901 30.937 57.7745 30.8013C57.6128 30.6385 57.532 30.4077 57.532 30.1092C57.532 29.5527 57.8823 29.1388 58.5829 28.8674C59.1622 28.6366 59.8763 28.5281 60.725 28.5416C60.8867 28.5416 61.1292 28.5552 61.4526 28.5824C61.7894 28.6095 62.0454 28.6231 62.2205 28.6231C62.6786 28.6231 63.4263 28.5891 64.4637 28.5213C65.5011 28.4534 66.2354 28.4195 66.6665 28.4195C67.2458 28.4195 67.6972 28.7859 68.0205 29.5188C68.263 30.0888 68.3843 30.7063 68.3843 31.3713C68.3843 31.7921 68.3035 32.1449 68.1418 32.4299C67.9262 32.7828 67.6298 32.9592 67.2526 32.9592C66.8888 32.9592 66.5789 32.7896 66.323 32.4503C65.9457 31.9481 65.6561 31.6292 65.454 31.4935C64.9555 31.1406 64.2212 30.9642 63.2512 30.9642C62.9682 30.9642 62.82 30.9642 62.8066 30.9642C62.6718 31.0185 62.5775 31.1813 62.5237 31.4528C62.4967 31.5478 62.4832 31.6428 62.4832 31.7378C62.4832 32.1856 62.7055 32.5521 63.1501 32.8371C63.5408 33.0814 64.0056 33.2035 64.5446 33.2035C64.6523 33.2035 64.7803 33.1289 64.9285 32.9796C65.0902 32.8303 65.2249 32.7556 65.3327 32.7556C65.5348 32.7556 65.6359 32.9049 65.6359 33.2035C65.6359 33.6785 65.5752 34.1332 65.454 34.5675C65.2788 35.1782 65.0228 35.4836 64.686 35.4836C64.4705 35.4836 64.2616 35.3139 64.0595 34.9746C63.8709 34.6353 63.588 34.4657 63.2108 34.4657C62.7796 34.4657 62.5641 34.8253 62.5641 35.5446C62.5641 37.2411 63.5408 38.0893 65.4944 38.0893C65.5752 38.0893 65.7032 38.069 65.8784 38.0282C66.0535 37.9875 66.1882 37.9807 66.2825 38.0079C66.3769 38.0215 66.4577 38.0282 66.5251 38.0282C66.8619 38.0282 67.1381 37.8654 67.3536 37.5397C67.5827 37.2139 67.7645 37.0511 67.8993 37.0511C68.1014 37.0511 68.2765 37.1868 68.4247 37.4582C68.5729 37.7297 68.647 37.9807 68.647 38.2115C68.647 38.3472 68.6605 38.7 68.6874 39.2701C68.7278 39.8265 68.7481 40.2879 68.7481 40.6544C68.7481 42.3101 68.4112 43.3823 67.7376 43.8709C67.4816 44.0473 66.6261 44.1355 65.171 44.1355C64.7669 44.1355 64.2145 44.1423 63.5139 44.1559C62.9346 44.1694 62.3687 44.1694 61.8163 44.1559L58.017 44.1355C57.3299 44.1219 56.9863 43.7894 56.9863 43.138C56.9863 42.8801 57.0874 42.6494 57.2895 42.4458C57.6263 42.1065 57.8149 41.8962 57.8553 41.8147L58.2393 41.204C58.4279 40.8919 58.5425 40.1183 58.5829 38.8833L58.7445 33.631C58.7715 33.1832 58.7782 32.7896 58.7648 32.4503Z" fill="white"/>
<path d="M75.1243 30.6385C74.9492 30.6385 74.7875 30.7063 74.6393 30.842C74.5046 30.9642 74.4507 31.1135 74.4776 31.2899L74.6393 33.3867C74.6663 33.7396 74.7875 33.916 75.0031 33.916C75.4073 33.916 75.7306 33.7192 75.9731 33.3257C76.1887 32.9728 76.2965 32.5792 76.2965 32.1449C76.2965 31.1406 75.9058 30.6385 75.1243 30.6385ZM75.0637 36.9493C75.3466 38.8765 75.6363 40.0436 75.9327 40.4508C76.1078 40.6408 76.2897 40.8444 76.4784 41.0615C76.667 41.2787 76.7613 41.4958 76.7613 41.713C76.7613 42.8258 76.4851 43.5112 75.9327 43.7691C75.5016 43.9726 74.3497 44.0744 72.477 44.0744C70.9411 44.0744 69.9171 43.9319 69.4052 43.6469C68.9067 43.3483 68.6776 42.7512 68.7181 41.8555C68.7315 41.6519 68.8595 41.4279 69.102 41.1837C69.3984 40.8851 69.5736 40.6883 69.6275 40.5933C69.8161 40.2133 70.0451 39.2293 70.3146 37.6414C70.5571 36.2164 70.739 34.866 70.8602 33.5903C70.8198 32.206 70.6379 31.3781 70.3146 31.1067C70.1933 31.0388 70.0249 30.937 69.8093 30.8013C69.6477 30.6385 69.5668 30.4077 69.5668 30.1092C69.5668 29.5527 69.9171 29.1388 70.6177 28.8674C71.1836 28.6366 71.8976 28.5281 72.7599 28.5416C73.0698 28.5552 73.3527 28.5688 73.6087 28.5824C74.8077 28.5281 75.5622 28.5009 75.8721 28.5009C76.9903 28.5009 77.9738 28.7249 78.8226 29.1727C79.8735 29.7156 80.3989 30.5027 80.3989 31.5342C80.3989 32.8235 79.7118 33.8482 78.3376 34.6082C78.4723 35.0289 78.762 35.3411 79.2066 35.5446C79.8667 35.8432 80.2036 35.9925 80.217 35.9925C80.7694 36.4539 81.1803 36.9357 81.4498 37.4379C81.6923 37.8857 81.8944 38.4897 82.0561 39.2497C82.2851 40.3761 82.6287 41.3329 83.0867 42.1201C83.1137 42.1744 83.2888 42.3712 83.6122 42.7105C83.8547 42.9683 83.9759 43.1855 83.9759 43.3619C83.9759 43.4976 83.8614 43.6333 83.6324 43.7691C83.4707 43.8641 83.309 43.9659 83.1474 44.0744C82.9049 44.088 82.5074 44.1423 81.955 44.2373C81.4969 44.3187 81.1062 44.3594 80.7829 44.3594C79.3817 44.3594 78.4184 43.803 77.893 42.6901C77.637 42.1472 77.3945 41.0004 77.1655 39.2497C76.9634 37.784 76.6198 36.8339 76.1348 36.3996C75.9731 36.2639 75.7778 36.2232 75.5487 36.2775C75.1715 36.3725 75.0098 36.5964 75.0637 36.9493Z" fill="white"/>
<path d="M93.3558 35.9925C93.3558 35.8703 93.2211 35.7075 92.9516 35.5039C92.6822 35.3003 92.5474 35.0968 92.5474 34.8932C92.5474 34.3232 93.3019 34.0382 94.8109 34.0382C94.7974 34.0382 94.9186 34.0314 95.1746 34.0178C95.4306 33.9907 95.6664 33.9771 95.8819 33.9771C96.9867 33.9771 97.5526 34.201 97.5795 34.6489C97.593 34.9475 97.4987 35.2257 97.2966 35.4836C97.0136 35.85 96.852 36.0671 96.8116 36.135C96.6229 36.5964 96.569 37.0511 96.6499 37.4989C96.9463 39.114 97.0945 40.2269 97.0945 40.8376C97.0945 41.109 97.0541 41.2854 96.9732 41.3669C96.7846 41.5569 96.5084 41.6858 96.1447 41.7537C95.7809 41.8215 95.5653 41.8826 95.498 41.9369C94.3393 42.8598 93.605 43.4026 93.2952 43.5655C92.6215 43.9048 91.6717 44.0744 90.4457 44.0744C88.5999 44.0744 87.091 43.2262 85.9188 41.5297C84.868 40.0233 84.3425 38.2929 84.3425 36.3386C84.3425 34.3707 84.9084 32.5996 86.0401 31.0253C87.2931 29.2745 88.8761 28.3991 90.7892 28.3991C91.0722 28.3991 91.4763 28.467 92.0018 28.6027C92.5407 28.7384 92.9381 28.8063 93.1941 28.8063C93.3288 28.8063 93.5309 28.7452 93.8004 28.6231C94.0699 28.5009 94.2719 28.4399 94.4067 28.4399C94.8378 28.4399 95.1611 28.6909 95.3767 29.1931C95.5384 29.5731 95.6192 30.0006 95.6192 30.4756C95.6192 31.2899 95.5586 31.8667 95.4373 32.206C95.2218 32.776 94.7772 33.061 94.1035 33.061C93.5646 33.061 93.1739 32.8846 92.9314 32.5317C92.7563 32.1924 92.5879 31.8531 92.4262 31.5138C92.1702 31.161 91.766 30.9845 91.2136 30.9845C90.5939 30.9845 90.055 31.317 89.5969 31.9821C89.1658 32.5928 88.9502 33.2171 88.9502 33.855C88.9502 34.7914 89.3409 35.5039 90.1223 35.9925C90.7556 36.3725 91.5572 36.5625 92.5272 36.5625C93.0796 36.5625 93.3558 36.3725 93.3558 35.9925Z" fill="white"/>
<path d="M105.965 35.7889C106.369 38.4761 106.726 40.0301 107.036 40.4508C107.211 40.6408 107.393 40.8444 107.581 41.0615C107.77 41.2787 107.864 41.4958 107.864 41.713C107.864 42.8258 107.581 43.5112 107.016 43.7691C106.598 43.9726 105.453 44.0744 103.58 44.0744C102.071 44.0744 101.067 43.9251 100.569 43.6266C100.07 43.3144 99.8211 42.724 99.8211 41.8555C99.8211 41.6519 99.9424 41.4279 100.185 41.1837C100.495 40.8851 100.677 40.6883 100.731 40.5933C100.906 40.2404 101.108 39.399 101.337 38.069C101.539 36.9289 101.667 36.0536 101.721 35.4428C101.721 35.3885 101.62 35.2121 101.418 34.9135C101.162 34.5471 100.966 34.1807 100.832 33.8142C100.589 33.3664 100.299 32.8031 99.9626 32.1246C99.8279 31.9481 99.6325 31.7649 99.3765 31.5749C98.9454 31.2628 98.7299 31.1067 98.7299 31.1067C98.6086 31.0388 98.4402 30.937 98.2246 30.8013C98.0764 30.6385 98.0023 30.4077 98.0023 30.1092C98.0023 29.5527 98.3526 29.1388 99.0532 28.8674C99.619 28.6366 100.333 28.5281 101.195 28.5416C102.381 28.5552 103.223 28.6977 103.721 28.9691C104.126 29.1863 104.328 29.5188 104.328 29.9667C104.328 30.2381 104.267 30.4349 104.146 30.557C104.025 30.6792 103.897 30.7945 103.762 30.9031C103.627 31.0117 103.519 31.1542 103.439 31.3306C103.371 31.5071 103.358 31.6971 103.398 31.9006C103.56 32.7421 103.917 33.1628 104.469 33.1628C104.671 33.1628 104.921 32.9185 105.217 32.4299C105.284 32.1856 105.399 31.9006 105.561 31.5749C105.682 31.3306 105.742 31.1678 105.742 31.0863C105.742 31.0456 105.715 31.0117 105.662 30.9845C105.621 30.9574 105.534 30.8963 105.399 30.8013C105.237 30.6385 105.156 30.4077 105.156 30.1092C105.156 29.0641 106.221 28.5416 108.349 28.5416C109.993 28.5416 110.815 28.9624 110.815 29.8038C110.815 30.0752 110.748 30.272 110.613 30.3942C110.492 30.5163 110.37 30.6249 110.249 30.7199C110.141 30.8149 109.926 30.9303 109.602 31.066C109.104 31.256 108.787 31.3985 108.653 31.4935C108.531 31.5885 108.363 31.7853 108.147 32.0838C107.366 32.9389 106.881 33.4953 106.692 33.7532C106.207 34.391 105.965 34.9543 105.965 35.4428C105.965 35.5378 105.965 35.6532 105.965 35.7889Z" fill="white"/>
<path d="M36.8066 51.3421C36.4698 51.3421 36.3014 51.5728 36.3014 52.0342C36.3014 52.9978 36.3149 53.6289 36.3418 53.9275C36.3553 54.0903 36.362 54.2532 36.362 54.416C36.3755 54.5789 36.4631 54.701 36.6247 54.7825C36.6517 54.7961 36.7258 54.8096 36.847 54.8232C37.2916 54.8232 37.6419 54.6196 37.8979 54.2125C38.1269 53.846 38.2415 53.4321 38.2415 52.9707C38.2415 51.8849 37.7632 51.3421 36.8066 51.3421ZM36.9279 57.5104C37.2782 59.6276 37.5813 60.8626 37.8373 61.2155C38.0124 61.4055 38.1943 61.609 38.3829 61.8262C38.5715 62.0433 38.6658 62.2605 38.6658 62.4776C38.6658 63.3191 38.5311 63.8959 38.2617 64.208C37.9922 64.5202 37.4735 64.7102 36.7056 64.778C36.3149 64.8866 35.7962 64.9409 35.1495 64.9409C34.5028 64.9409 33.7685 64.8866 32.9467 64.778C32.0305 64.683 31.4108 64.4795 31.0874 64.1673C30.7776 63.8552 30.6226 63.3394 30.6226 62.6201C30.6226 62.4166 30.7439 62.1926 30.9864 61.9483C31.2963 61.6498 31.4781 61.453 31.532 61.358C31.9227 60.5708 32.3134 58.4061 32.7042 54.8639V53.5203C32.7176 52.706 32.5492 52.1564 32.1989 51.8714C32.0777 51.8035 31.9093 51.7017 31.6937 51.566C31.532 51.4031 31.4512 51.1724 31.4512 50.8738C31.4512 50.3174 31.8015 49.9035 32.5021 49.632C33.0814 49.4013 33.7955 49.2927 34.6442 49.3063C34.8867 49.3199 34.9811 49.3267 34.9272 49.3267C35.0349 49.3131 35.1899 49.3063 35.392 49.3063C35.4728 49.2927 35.8096 49.2588 36.4024 49.2045C36.8066 49.1774 37.2175 49.1706 37.6352 49.1842C40.7474 49.3063 42.3035 50.6567 42.3035 53.2353C42.3035 54.6875 41.9397 55.6986 41.2122 56.2686C40.7541 56.635 39.9929 56.8793 38.9286 57.0015C37.8642 57.11 37.1973 57.2797 36.9279 57.5104Z" fill="white"/>
<path d="M44.121 53.215C44.0402 52.5092 43.8785 52.0614 43.636 51.8714C43.5148 51.8035 43.3464 51.7017 43.1308 51.566C42.9691 51.4031 42.8883 51.1724 42.8883 50.8738C42.8883 50.3174 43.2386 49.9035 43.9392 49.632C44.5185 49.4013 45.2325 49.2927 46.0813 49.3063C46.243 49.3063 46.4855 49.3199 46.8089 49.347C47.1457 49.3742 47.4017 49.3877 47.5768 49.3877C48.0349 49.3877 48.7826 49.3538 49.82 49.286C50.8574 49.2181 51.5917 49.1842 52.0228 49.1842C52.6021 49.1842 53.0535 49.5506 53.3768 50.2835C53.6193 50.8535 53.7406 51.471 53.7406 52.136C53.7406 52.5567 53.6597 52.9096 53.4981 53.1946C53.2825 53.5475 52.9861 53.7239 52.6089 53.7239C52.2451 53.7239 51.9352 53.5542 51.6792 53.215C51.302 52.7128 51.0124 52.3939 50.8103 52.2581C50.3118 51.9053 49.5775 51.7289 48.6075 51.7289C48.3245 51.7289 48.1763 51.7289 48.1629 51.7289C48.0281 51.7831 47.9338 51.946 47.8799 52.2174C47.853 52.3124 47.8395 52.4074 47.8395 52.5024C47.8395 52.9503 48.0618 53.3167 48.5064 53.6017C48.8971 53.846 49.3619 53.9682 49.9008 53.9682C50.0086 53.9682 50.1366 53.8935 50.2848 53.7442C50.4465 53.595 50.5812 53.5203 50.689 53.5203C50.8911 53.5203 50.9921 53.6696 50.9921 53.9682C50.9921 54.4432 50.9315 54.8978 50.8103 55.3321C50.6351 55.9429 50.3791 56.2482 50.0423 56.2482C49.8267 56.2482 49.6179 56.0786 49.4158 55.7393C49.2272 55.4 48.9443 55.2304 48.567 55.2304C48.1359 55.2304 47.9204 55.59 47.9204 56.3093C47.9204 58.0058 48.8971 58.854 50.8507 58.854C50.9315 58.854 51.0595 58.8336 51.2347 58.7929C51.4098 58.7522 51.5445 58.7454 51.6388 58.7726C51.7331 58.7861 51.814 58.7929 51.8813 58.7929C52.2182 58.7929 52.4944 58.6301 52.7099 58.3043C52.939 57.9786 53.1208 57.8158 53.2556 57.8158C53.4577 57.8158 53.6328 57.9515 53.781 58.2229C53.9292 58.4943 54.0033 58.7454 54.0033 58.9761C54.0033 59.1119 54.0168 59.4647 54.0437 60.0347C54.0841 60.5912 54.1043 61.0526 54.1043 61.419C54.1043 63.0748 53.7675 64.1469 53.0939 64.6355C52.8379 64.812 51.9824 64.9002 50.5273 64.9002C50.1231 64.9002 49.5708 64.907 48.8702 64.9205C48.2909 64.9341 47.725 64.9341 47.1726 64.9205L43.3733 64.9002C42.6862 64.8866 42.3426 64.5541 42.3426 63.9027C42.3426 63.6448 42.4437 63.4141 42.6458 63.2105C42.9826 62.8712 43.1712 62.6608 43.2116 62.5794L43.5956 61.9687C43.7842 61.6565 43.8987 60.883 43.9392 59.6479L44.1008 54.3957C44.1278 53.9478 44.1345 53.5542 44.121 53.215Z" fill="white"/>
<path d="M60.4806 51.4031C60.3055 51.4031 60.1438 51.471 59.9956 51.6067C59.8609 51.7289 59.807 51.8781 59.8339 52.0546L59.9956 54.1514C60.0226 54.5043 60.1438 54.6807 60.3594 54.6807C60.7636 54.6807 61.0869 54.4839 61.3294 54.0903C61.545 53.7375 61.6528 53.3439 61.6528 52.9096C61.6528 51.9053 61.2621 51.4031 60.4806 51.4031ZM60.42 57.714C60.7029 59.6411 60.9926 60.8083 61.289 61.2155C61.4641 61.4055 61.646 61.609 61.8346 61.8262C62.0233 62.0433 62.1176 62.2605 62.1176 62.4776C62.1176 63.5905 61.8414 64.2759 61.289 64.5337C60.8579 64.7373 59.706 64.8391 57.8332 64.8391C56.2973 64.8391 55.2734 64.6966 54.7615 64.4116C54.263 64.113 54.0339 63.5159 54.0743 62.6201C54.0878 62.4166 54.2158 62.1926 54.4583 61.9483C54.7547 61.6498 54.9299 61.453 54.9838 61.358C55.1724 60.978 55.4014 59.994 55.6709 58.4061C55.9134 56.9811 56.0953 55.6307 56.2165 54.355C56.1761 52.9707 55.9942 52.1428 55.6709 51.8714C55.5496 51.8035 55.3812 51.7017 55.1656 51.566C55.004 51.4031 54.9231 51.1724 54.9231 50.8738C54.9231 50.3174 55.2734 49.9035 55.974 49.632C56.5399 49.4013 57.2539 49.2927 58.1162 49.3063C58.426 49.3199 58.709 49.3335 58.965 49.347C60.164 49.2927 60.9185 49.2656 61.2284 49.2656C62.3466 49.2656 63.3301 49.4895 64.1789 49.9374C65.2298 50.4803 65.7552 51.2674 65.7552 52.2989C65.7552 53.5882 65.0681 54.6128 63.6939 55.3729C63.8286 55.7936 64.1183 56.1057 64.5629 56.3093C65.223 56.6079 65.5599 56.7572 65.5733 56.7572C66.1257 57.2186 66.5366 57.7004 66.8061 58.2025C67.0486 58.6504 67.2507 59.2544 67.4124 60.0144C67.6414 61.1408 67.985 62.0976 68.443 62.8848C68.47 62.9391 68.6451 63.1359 68.9685 63.4751C69.211 63.733 69.3322 63.9502 69.3322 64.1266C69.3322 64.2623 69.2177 64.398 68.9887 64.5337C68.827 64.6287 68.6653 64.7305 68.5036 64.8391C68.2611 64.8527 67.8637 64.907 67.3113 65.002C66.8532 65.0834 66.4625 65.1241 66.1392 65.1241C64.738 65.1241 63.7747 64.5677 63.2493 63.4548C62.9933 62.9119 62.7508 61.7651 62.5218 60.0144C62.3197 58.5486 61.9761 57.5986 61.4911 57.1643C61.3294 57.0286 61.1341 56.9879 60.905 57.0422C60.5278 57.1372 60.3661 57.3611 60.42 57.714Z" fill="white"/>
<path d="M72.8717 59.2611C73.8013 59.2611 74.2661 58.8133 74.2661 57.9175C74.2661 57.619 73.9562 57.205 73.3365 56.6757C72.4068 55.8614 71.8477 55.3457 71.6591 55.1286C71.0394 54.4364 70.7295 53.7443 70.7295 53.0521C70.7295 51.8171 71.2212 50.8399 72.2048 50.1206C73.0805 49.4827 74.1516 49.1638 75.418 49.1638C75.8222 49.1638 76.4015 49.2385 77.156 49.3877C77.9239 49.537 78.5167 49.6117 78.9344 49.6117C79.6619 49.6117 80.0257 50.4531 80.0257 52.136C80.0257 53.0996 79.6484 53.5814 78.894 53.5814C78.3685 53.5814 77.8633 53.1946 77.3783 52.421C76.9067 51.6474 76.4487 51.2606 76.0041 51.2606C75.0206 51.2606 74.5288 51.6203 74.5288 52.3396C74.5288 52.7603 75.0812 53.2353 76.186 53.7646C77.6814 54.4703 78.6986 55.0607 79.2375 55.5357C80.3423 56.4993 80.8947 57.7343 80.8947 59.2408C80.8947 60.883 80.3625 62.2333 79.2982 63.2919C78.2473 64.3505 76.9135 64.8798 75.2968 64.8798C73.6396 64.8798 72.2923 64.4727 71.2549 63.6584C70.1097 62.7762 69.5372 61.5208 69.5372 59.8922C69.5372 59.0779 69.9548 58.6708 70.7901 58.6708C71.0596 58.6708 71.3358 58.7726 71.6187 58.9761C71.9151 59.1661 72.3327 59.2611 72.8717 59.2611Z" fill="white"/>
<path d="M94.075 59.1594C94.075 60.8694 93.435 62.3012 92.1551 63.4548C90.9426 64.5405 89.4808 65.0834 87.7697 65.0834C85.8566 65.0834 84.3207 64.3234 83.162 62.8033C82.1246 61.419 81.6059 59.7294 81.6059 57.7343C81.6059 55.5357 82.1314 53.6153 83.1823 51.9731C84.3948 50.0731 86.0317 49.1231 88.0931 49.1231C90.087 49.1231 91.6297 50.2767 92.7209 52.5839C93.6236 54.4703 94.075 56.6622 94.075 59.1594ZM89.6492 56.4925C89.6492 55.5968 89.4538 54.606 89.0631 53.5203C88.5781 52.1631 87.9785 51.4846 87.2645 51.4846C86.8468 51.4846 86.5235 51.7967 86.2945 52.421C86.1193 52.896 86.0317 53.405 86.0317 53.9478C86.0317 54.8707 86.1799 55.7325 86.4763 56.5332C86.8805 57.6054 87.4733 58.1415 88.2547 58.1415C89.1844 58.1415 89.6492 57.5918 89.6492 56.4925Z" fill="white"/>
<path d="M100.848 57.7343C100.848 58.0736 100.969 58.6979 101.211 59.6072C101.467 60.5029 101.663 61.0458 101.798 61.2358C101.946 61.4258 102.101 61.6158 102.262 61.8058C102.464 62.0365 102.586 62.2605 102.626 62.4776C102.667 62.7491 102.687 62.9934 102.687 63.2105C102.687 63.8077 102.471 64.2284 102.04 64.4727C101.69 64.6627 101.063 64.778 100.161 64.8187C99.7429 64.873 98.8335 64.9002 97.4324 64.9002C96.8934 64.9002 96.3411 64.7916 95.7752 64.5745C95.2767 64.398 94.9466 64.1469 94.785 63.8212C94.6368 63.5905 94.5627 63.3191 94.5627 63.0069C94.5627 62.9526 94.5627 62.8984 94.5627 62.8441C94.5627 62.7762 94.5627 62.7016 94.5627 62.6201C94.5627 62.4437 94.6502 62.2605 94.8254 62.0705C94.9736 61.9212 95.1285 61.7651 95.2902 61.6023C95.6944 60.0551 95.984 58.6165 96.1592 57.2865C96.3074 56.2143 96.4084 55.2371 96.4623 54.355C96.5432 53.0657 96.3613 52.2378 95.9167 51.8714C95.7954 51.8035 95.627 51.7017 95.4114 51.566C95.2498 51.4031 95.1689 51.1724 95.1689 50.8738C95.1689 50.3174 95.5192 49.9035 96.2198 49.632C96.7857 49.4013 97.4997 49.2927 98.362 49.3063C99.8305 49.3335 100.774 49.5438 101.191 49.9374C101.824 50.3581 102.397 51.3624 102.909 52.9503C103.475 54.6603 104.027 55.78 104.566 56.3093C104.701 56.4314 104.849 56.4654 105.011 56.4111C105.172 56.2075 105.253 55.9089 105.253 55.5154C105.253 55.3661 105.233 55.1353 105.193 54.8232C105.193 54.7961 105.193 54.7621 105.193 54.7214L105.172 54.6807C105.132 54.355 105.085 54.0089 105.031 53.6425C104.802 52.8824 104.431 52.2921 103.919 51.8714C103.798 51.8035 103.63 51.7017 103.414 51.566C103.266 51.4031 103.192 51.1724 103.192 50.8738C103.192 50.3174 103.542 49.9035 104.243 49.632C104.809 49.4013 105.523 49.2927 106.385 49.3063C107.571 49.3199 108.413 49.4624 108.911 49.7338C109.315 49.951 109.517 50.2835 109.517 50.7313C109.517 51.0028 109.457 51.1996 109.336 51.3217C109.214 51.4438 109.086 51.5592 108.952 51.6678C108.817 51.7764 108.709 51.9256 108.628 52.1156C108.467 52.4007 108.305 52.6924 108.143 52.991C107.901 53.4932 107.779 54.0564 107.779 54.6807C107.779 54.6535 107.779 54.7418 107.779 54.9453C107.806 55.6918 108.015 56.8182 108.406 58.3247C108.77 59.7633 108.952 60.883 108.952 61.6837C108.952 62.7423 108.864 63.4751 108.689 63.8823C108.406 64.5202 107.82 64.8391 106.931 64.8391C105.947 64.8391 105.058 64.1944 104.263 62.9051C104.061 62.5658 103.509 61.3715 102.606 59.3222C102.04 58.0329 101.528 57.3882 101.07 57.3882C100.922 57.3882 100.848 57.5036 100.848 57.7343Z" fill="white"/>
</svg>
