<svg width="319" height="447" viewBox="0 0 319 447" fill="none" xmlns="http://www.w3.org/2000/svg">
<path d="M263.92 245.182C261.772 245.158 257.763 232.996 257.05 230.768C255.584 226.186 255.462 219.71 260.681 217.771C267.333 215.305 272.946 222.716 276.52 227.393C278.881 230.486 281.024 233.518 283.98 236.053C288.72 240.113 293.21 244.356 295.541 250.385C298.497 258.022 300.95 265.242 304.581 272.631C308.065 279.727 307.69 285.982 308.372 293.572C308.758 297.875 309.169 302.175 309.566 306.477C310.768 319.448 311.969 332.418 313.17 345.387L318.851 406.768C318.851 406.899 318.875 446.203 318.889 446.333H260.809L257.33 327.345L230.039 318.46L233.591 244.834L263.92 245.182Z" fill="#FDAB96"/>
<path d="M272.51 331.478C266.657 331.478 261.087 329.574 255.7 327.714C255.495 327.644 255.327 327.495 255.231 327.3C255.136 327.106 255.122 326.881 255.193 326.677C255.263 326.472 255.412 326.303 255.606 326.208C255.801 326.113 256.025 326.099 256.23 326.169C261.623 328.024 267.215 329.941 272.931 329.841C277.783 329.759 284.082 327.785 287.218 322.498C287.742 321.566 288.212 320.605 288.624 319.618C289.109 318.437 289.683 317.294 290.34 316.199C290.397 316.109 290.472 316.03 290.56 315.969C290.647 315.907 290.747 315.863 290.851 315.84C290.956 315.817 291.064 315.814 291.17 315.833C291.275 315.851 291.376 315.89 291.467 315.948C291.557 316.005 291.636 316.08 291.697 316.168C291.759 316.255 291.803 316.354 291.826 316.459C291.85 316.564 291.852 316.672 291.834 316.778C291.815 316.883 291.776 316.984 291.718 317.075C291.104 318.099 290.568 319.17 290.117 320.276C289.679 321.322 289.179 322.341 288.621 323.327C285.714 328.244 279.714 331.369 272.959 331.486L272.51 331.478Z" fill="#231F20"/>
<path d="M299.005 300.977C298.819 300.977 298.638 300.914 298.492 300.797C298.347 300.68 298.246 300.517 298.206 300.335C298.167 300.152 298.19 299.962 298.274 299.795C298.357 299.629 298.495 299.496 298.665 299.418C306.677 295.763 306.957 286.223 306.707 282.285C306.7 282.178 306.714 282.07 306.749 281.968C306.783 281.867 306.838 281.773 306.908 281.692C306.979 281.612 307.065 281.546 307.162 281.498C307.258 281.451 307.363 281.423 307.47 281.416C307.577 281.409 307.684 281.423 307.786 281.458C307.888 281.492 307.982 281.546 308.062 281.617C308.143 281.688 308.209 281.774 308.256 281.87C308.304 281.967 308.332 282.071 308.339 282.179C308.91 291.069 305.546 298.067 299.348 300.895C299.241 300.947 299.124 300.975 299.005 300.977Z" fill="#231F20"/>
<path d="M263.263 0H252.656V400.871H263.263V0Z" fill="#454FDB"/>
<path d="M257.6 318.413C250.178 318.413 242.748 318.315 235.324 318.413C230.948 318.47 227.548 318.802 224.717 314.666C222.449 311.35 221.375 306.322 222.637 302.395C222.96 301.364 223.429 300.385 224.029 299.488C221.916 296.561 219.406 292.977 218.9 289.349C218.394 285.721 219.302 281.734 221.862 279.232C219.487 277.388 218.886 274.16 219.335 271.106C219.784 268.051 221.32 265.296 222.977 262.737C221.753 260.657 220.311 258.386 220.257 255.938C220.192 252.83 222.003 249.917 224.415 248.092C226.828 246.267 229.768 245.373 232.691 244.799C233.368 244.663 232.895 244.799 233.586 244.799H251.669C259.716 244.799 279.061 242.06 281.584 253.858C282.02 255.881 281.348 258.065 280.061 259.645C278.775 261.225 276.937 262.242 275.014 262.762C287.742 267.004 284.486 279.721 275.131 281.669C286.042 286.148 281.201 298.503 271.166 298.313C274.486 299.248 276.333 304.149 275.759 307.695C275.185 311.242 272.596 314.184 269.545 315.816C266.493 317.448 261.04 318.413 257.6 318.413Z" fill="#FDAB96"/>
<path d="M235.333 319.227C235.116 319.227 234.909 319.141 234.756 318.988C234.603 318.835 234.517 318.628 234.517 318.411C234.517 318.195 234.603 317.987 234.756 317.834C234.909 317.681 235.116 317.595 235.333 317.595C240.291 317.53 245.327 317.552 250.201 317.574C252.672 317.584 255.145 317.592 257.62 317.595C261.036 317.595 266.293 316.665 269.173 315.11C272.328 313.402 274.498 310.59 274.982 307.584C275.491 304.405 273.818 299.918 270.973 299.116C270.786 299.061 270.624 298.94 270.517 298.776C270.411 298.612 270.367 298.415 270.393 298.221C270.42 298.027 270.516 297.849 270.663 297.72C270.809 297.591 270.998 297.518 271.194 297.516H271.21C276.337 297.601 279.712 294.253 280.408 290.902C281.147 287.337 279.07 284.177 274.849 282.442C274.688 282.375 274.552 282.259 274.462 282.109C274.371 281.96 274.331 281.786 274.347 281.612C274.364 281.438 274.435 281.274 274.551 281.144C274.667 281.014 274.822 280.924 274.993 280.889C279.238 280.005 282.366 276.638 282.594 272.703C282.828 268.683 279.91 265.265 274.784 263.557C274.616 263.502 274.472 263.394 274.371 263.25C274.27 263.106 274.218 262.933 274.223 262.757C274.228 262.582 274.29 262.412 274.399 262.274C274.509 262.137 274.66 262.038 274.83 261.993C276.19 261.626 278.093 260.837 279.453 259.151C280.65 257.677 281.172 255.724 280.813 254.049C278.781 244.593 264.914 245.15 255.735 245.52C254.248 245.58 252.842 245.634 251.686 245.634H233.603C233.405 245.642 233.206 245.622 233.013 245.577L232.866 245.604C232.759 245.63 232.648 245.634 232.54 245.616C232.432 245.598 232.328 245.558 232.236 245.498C232.143 245.439 232.063 245.362 232.001 245.271C231.94 245.18 231.897 245.078 231.875 244.97C231.854 244.863 231.854 244.752 231.877 244.644C231.899 244.537 231.943 244.435 232.006 244.345C232.069 244.254 232.149 244.178 232.242 244.12C232.335 244.061 232.439 244.022 232.548 244.005C232.837 243.914 233.148 243.914 233.437 244.005H251.686C252.809 244.005 254.134 243.954 255.67 243.891C264.803 243.524 280.09 242.909 282.407 253.709C282.874 255.885 282.244 258.308 280.721 260.182C279.795 261.299 278.633 262.197 277.318 262.811C281.92 264.954 284.468 268.582 284.221 272.801C283.987 276.804 281.264 280.304 277.364 281.873C281.648 284.397 282.624 288.243 282.004 291.237C281.297 294.645 278.325 298.036 273.775 298.931C275.983 301.019 277.079 304.8 276.589 307.846C276.026 311.348 273.543 314.601 269.945 316.548C266.72 318.292 261.188 319.233 257.617 319.233C255.143 319.233 252.667 319.225 250.19 319.211C245.325 319.189 240.293 319.167 235.352 319.233L235.333 319.227Z" fill="#231F20"/>
<path d="M275.028 263.598H275.009L237.408 262.741C237.301 262.74 237.195 262.718 237.096 262.675C236.998 262.633 236.909 262.572 236.834 262.495C236.759 262.419 236.7 262.328 236.66 262.229C236.62 262.129 236.6 262.023 236.602 261.916C236.603 261.809 236.625 261.703 236.667 261.604C236.71 261.506 236.771 261.417 236.847 261.342C236.924 261.267 237.015 261.208 237.114 261.168C237.214 261.128 237.32 261.108 237.427 261.109H237.446L275.047 261.966C275.264 261.969 275.47 262.057 275.622 262.212C275.773 262.367 275.856 262.575 275.854 262.792C275.851 263.008 275.763 263.214 275.608 263.366C275.453 263.517 275.245 263.6 275.028 263.598Z" fill="#231F20"/>
<path d="M275.144 282.512H275.106L240.007 280.937C239.79 280.928 239.587 280.832 239.44 280.672C239.294 280.512 239.218 280.301 239.227 280.085C239.237 279.868 239.332 279.665 239.492 279.519C239.652 279.372 239.864 279.296 240.08 279.306L275.179 280.88C275.287 280.883 275.392 280.906 275.49 280.949C275.588 280.992 275.677 281.054 275.751 281.132C275.825 281.209 275.883 281.3 275.922 281.4C275.961 281.5 275.98 281.607 275.978 281.714C275.975 281.821 275.952 281.927 275.909 282.025C275.866 282.123 275.804 282.211 275.726 282.285C275.649 282.36 275.557 282.418 275.458 282.457C275.358 282.495 275.251 282.514 275.144 282.512Z" fill="#231F20"/>
<path d="M238.09 299.743C237.983 299.744 237.876 299.724 237.777 299.684C237.677 299.644 237.587 299.585 237.51 299.51C237.356 299.358 237.268 299.152 237.266 298.935C237.265 298.828 237.285 298.722 237.325 298.622C237.365 298.523 237.424 298.433 237.499 298.356C237.65 298.201 237.857 298.113 238.073 298.111L271.166 297.516C271.273 297.515 271.379 297.535 271.479 297.575C271.578 297.615 271.668 297.674 271.745 297.749C271.821 297.824 271.883 297.913 271.925 298.012C271.966 298.11 271.989 298.216 271.99 298.323C271.991 298.431 271.971 298.537 271.931 298.636C271.891 298.736 271.832 298.826 271.757 298.903C271.682 298.979 271.592 299.04 271.494 299.082C271.395 299.124 271.289 299.146 271.182 299.147L238.09 299.743Z" fill="#231F20"/>
<path d="M271.164 248.656C272.839 248.784 274.55 249.037 276.035 249.858C277.52 250.68 278.755 252.162 278.934 253.908C279.122 255.812 278.012 257.653 276.487 258.7C274.961 259.747 273.103 260.109 271.284 260.204C270.993 257.253 271.129 250.729 271.164 248.656Z" fill="#F24EB6"/>
<path d="M271.164 284.234C272.839 284.362 274.55 284.615 276.035 285.436C277.52 286.258 278.755 287.74 278.934 289.486C279.122 291.39 278.012 293.231 276.486 294.278C274.961 295.325 273.103 295.687 271.284 295.782C270.993 292.831 271.129 286.307 271.164 284.234Z" fill="#F24EB6"/>
<path d="M265.703 300.156C267.381 300.284 269.089 300.537 270.574 301.358C272.059 302.18 273.294 303.662 273.473 305.408C273.664 307.312 272.551 309.153 271.026 310.2C269.5 311.247 267.642 311.609 265.823 311.704C265.532 308.753 265.668 302.229 265.703 300.156Z" fill="#F24EB6"/>
<path d="M272.986 266.836C274.598 266.958 276.249 267.206 277.677 267.997C279.105 268.789 280.304 270.216 280.473 271.9C280.652 273.722 279.583 275.506 278.12 276.523C276.657 277.54 274.857 277.883 273.105 277.973C272.812 275.12 272.95 268.835 272.986 266.836Z" fill="#F24EB6"/>
<path d="M263.294 160.859V176.598L252.688 170.859V161.806L263.294 160.859Z" fill="#231F20"/>
<path d="M263.259 20.3984H0L54.5483 94.8856L2.54476 165.898H263.259V20.3984Z" fill="#F24EB6"/>
<path d="M77.4323 51.7961C78.2482 57.181 78.9689 60.295 79.5944 61.138C79.948 61.5188 80.3151 61.9267 80.6958 62.3619C81.0766 62.797 81.267 63.2321 81.267 63.6673C81.267 65.8974 80.6958 67.2708 79.5536 67.7875C78.7105 68.1954 76.3989 68.3994 72.6186 68.3994C69.5726 68.3994 67.5465 68.1002 66.5402 67.5019C65.534 66.8764 65.0309 65.6934 65.0309 63.9528C65.0309 63.5449 65.2756 63.0962 65.7652 62.6066C66.3907 62.0083 66.7578 61.614 66.8666 61.4236C67.2201 60.7165 67.6281 59.0303 68.0904 56.3651C68.4984 54.0806 68.7567 52.3265 68.8655 51.1026C68.8655 50.9939 68.6615 50.6403 68.2536 50.042C67.7369 49.3077 67.3425 48.5734 67.0706 47.8391C66.581 46.9416 65.9963 45.813 65.3164 44.4532C65.0445 44.0996 64.6501 43.7325 64.1334 43.3517C63.2631 42.7262 62.828 42.4135 62.828 42.4135C62.5832 42.2775 62.2432 42.0735 61.8081 41.8016C61.509 41.4752 61.3594 41.0129 61.3594 40.4146C61.3594 39.2995 62.0665 38.47 63.4807 37.9261C64.6229 37.4638 66.0643 37.2462 67.8049 37.2734C70.1981 37.3006 71.8979 37.5862 72.9041 38.1301C73.72 38.5652 74.128 39.2315 74.128 40.129C74.128 40.6729 74.0056 41.0673 73.7608 41.312C73.5161 41.5568 73.2577 41.788 72.9857 42.0055C72.7138 42.2231 72.4962 42.5087 72.333 42.8622C72.197 43.2158 72.1699 43.5965 72.2514 44.0044C72.5778 45.6906 73.2985 46.5337 74.4135 46.5337C74.8215 46.5337 75.3246 46.0442 75.9229 45.0651C76.0589 44.5756 76.2901 44.0044 76.6164 43.3517C76.8612 42.8622 76.9836 42.5359 76.9836 42.3727C76.9836 42.2911 76.9292 42.2231 76.8204 42.1687C76.7388 42.1143 76.562 41.9919 76.2901 41.8016C75.9637 41.4752 75.8005 41.0129 75.8005 40.4146C75.8005 38.3204 77.949 37.2734 82.246 37.2734C85.564 37.2734 87.2229 38.1165 87.2229 39.8026C87.2229 40.3466 87.0869 40.7409 86.815 40.9857C86.5702 41.2304 86.3255 41.448 86.0807 41.6384C85.8631 41.8288 85.428 42.0599 84.7753 42.3319C83.769 42.7126 83.1299 42.9982 82.8579 43.1886C82.6132 43.3789 82.2732 43.7733 81.8381 44.3716C80.2607 46.085 79.2816 47.2 78.9009 47.7167C77.9218 48.9949 77.4323 50.1236 77.4323 51.1026C77.4323 51.293 77.4323 51.5242 77.4323 51.7961Z" fill="white"/>
<path d="M113.149 57.0178C113.149 60.4445 111.857 63.3137 109.273 65.6254C106.826 67.8011 103.875 68.8889 100.421 68.8889C96.5593 68.8889 93.4589 67.366 91.12 64.32C89.0259 61.546 87.9789 58.1601 87.9789 54.1622C87.9789 49.7564 89.0395 45.9082 91.1608 42.6174C93.6085 38.81 96.9128 36.9062 101.074 36.9062C105.099 36.9062 108.213 39.2179 110.416 43.8413C112.238 47.6215 113.149 52.0137 113.149 57.0178ZM104.215 51.6738C104.215 49.8788 103.821 47.8935 103.032 45.7178C102.053 42.9982 100.843 41.6384 99.4013 41.6384C98.5582 41.6384 97.9055 42.2639 97.4432 43.5149C97.0896 44.4668 96.9128 45.4866 96.9128 46.5745C96.9128 48.4238 97.212 50.1508 97.8103 51.7554C98.6262 53.9039 99.8228 54.9781 101.4 54.9781C103.277 54.9781 104.215 53.8767 104.215 51.6738Z" fill="white"/>
<path d="M140.364 48.859C140.364 49.7836 140.378 51.1706 140.405 53.02C140.459 54.8421 140.487 56.2155 140.487 57.1402C140.487 59.7782 139.331 62.2939 137.019 64.6871C134.707 67.0532 132.219 68.2362 129.554 68.2362C124.74 68.2362 121.354 67.3252 119.396 65.503C117.356 63.6265 116.336 60.3493 116.336 55.6716C116.336 54.7741 116.377 53.4279 116.459 51.633C116.567 49.838 116.622 48.4918 116.622 47.5943C116.622 45.609 116.404 44.154 115.969 43.2294C115.752 42.7942 115.33 42.3319 114.705 41.8424C114.242 41.4888 114.011 41.0129 114.011 40.4146C114.011 39.2451 114.786 38.3884 116.336 37.8445C117.397 37.4638 118.662 37.2734 120.13 37.2734C124.59 37.2734 126.82 38.2253 126.82 40.129C126.82 40.7273 126.589 41.2304 126.127 41.6384C125.501 42.1823 125.121 42.6038 124.985 42.903C124.522 43.9908 124.291 45.813 124.291 48.3694L124.25 48.2878C124.278 50.7899 124.522 52.4761 124.985 53.3463C125.692 54.5974 127.201 55.2229 129.513 55.2229C131.471 55.2229 132.79 54.8149 133.47 53.999C134.177 53.1832 134.531 51.769 134.531 49.7564C134.531 47.6895 134.449 46.0714 134.286 44.9019C134.095 43.4877 133.619 42.5495 132.858 42.0871C132.178 41.7064 131.838 41.1488 131.838 40.4146C131.838 38.3204 133.987 37.2734 138.284 37.2734C139.399 37.2734 140.378 37.4502 141.221 37.8037C142.336 38.2933 142.893 39.0275 142.893 40.0066C142.893 40.6049 142.662 41.1081 142.2 41.516C141.602 42.0327 141.234 42.4407 141.098 42.7398C140.609 43.9365 140.364 45.9762 140.364 48.859Z" fill="white"/>
<path d="M186.339 64.2384C186.23 65.8158 185.088 66.9308 182.913 67.5835C181.498 68.0459 179.771 68.277 177.732 68.277C175.692 68.277 174.223 68.1003 173.326 67.7467C171.83 67.1756 171.082 66.0605 171.082 64.4016C171.082 63.7761 171.177 63.069 171.368 62.2803C172.592 61.0564 173.203 59.1799 173.203 56.6507C173.203 55.7804 172.605 55.1141 171.409 54.6517C170.511 54.2982 169.532 54.1214 168.471 54.1214C168.471 54.1214 168.091 54.1894 167.329 54.3254C166.323 54.9237 165.82 56.0659 165.82 57.7521C165.82 58.9759 166.078 60.0366 166.595 60.9341C166.812 61.2604 167.316 61.8451 168.104 62.6882C168.621 63.2593 168.879 63.7897 168.879 64.2792C168.879 66.1557 167.9 67.366 165.942 67.9099C164.99 68.1818 163.263 68.3178 160.761 68.3178C157.008 68.3178 155.132 67.3796 155.132 65.503C155.104 63.844 155.825 62.4978 157.294 61.4644C159.007 60.2406 160.516 57.6161 161.822 53.5911C162.937 50.0828 163.494 47.0232 163.494 44.4124C163.494 43.4061 163.318 42.5631 162.964 41.8831C162.774 41.5024 162.461 41.1081 162.026 40.7001C161.672 40.3738 161.496 40.129 161.496 39.9658C161.496 39.0683 162.951 38.2933 165.861 37.6405C168.335 37.0966 170.144 36.8791 171.286 36.9878C173.217 37.1782 174.686 37.7629 175.692 38.742C176.154 39.2043 176.834 40.265 177.732 41.9239C178.004 42.4679 178.344 43.5285 178.752 45.1059C180.329 51.3882 181.92 56.1203 183.524 59.3023C183.742 59.7646 184.15 60.2406 184.748 60.7301C185.347 61.1924 185.741 61.5732 185.931 61.8723C186.258 62.4434 186.394 63.2321 186.339 64.2384ZM171.898 48.5734C171.898 48.3558 171.653 47.6351 171.164 46.4113C170.701 45.2963 170.09 44.7387 169.328 44.7387C168.866 44.7387 168.376 45.3235 167.859 46.4929C167.424 47.4992 167.207 48.2742 167.207 48.8182C167.207 49.0629 167.56 49.1853 168.267 49.1853C168.431 49.1853 168.703 49.1717 169.083 49.1445C169.464 49.0901 169.736 49.0629 169.899 49.0629C170.443 49.0629 170.783 49.1037 170.919 49.1853C171.572 49.1309 171.898 48.927 171.898 48.5734Z" fill="white"/>
<path d="M199.23 41.4752C198.876 41.4752 198.55 41.6112 198.251 41.8831C197.979 42.1279 197.87 42.4271 197.924 42.7806L198.251 46.9824C198.305 47.6895 198.55 48.0431 198.985 48.0431C199.801 48.0431 200.454 47.6487 200.943 46.86C201.378 46.1529 201.596 45.3643 201.596 44.494C201.596 42.4815 200.807 41.4752 199.23 41.4752ZM199.108 54.1214C199.679 57.9833 200.263 60.3221 200.862 61.138C201.215 61.5188 201.582 61.9267 201.963 62.3619C202.344 62.797 202.534 63.2321 202.534 63.6673C202.534 65.8974 201.977 67.2708 200.862 67.7875C199.991 68.1954 197.666 68.3994 193.886 68.3994C190.785 68.3994 188.719 68.1138 187.685 67.5427C186.679 66.9444 186.217 65.7478 186.298 63.9528C186.325 63.5449 186.584 63.0962 187.073 62.6066C187.672 62.0083 188.025 61.614 188.134 61.4236C188.515 60.6621 188.977 58.6904 189.521 55.5084C190.01 52.6528 190.378 49.9468 190.622 47.3904C190.541 44.6164 190.174 42.9574 189.521 42.4135C189.276 42.2775 188.936 42.0735 188.501 41.8016C188.175 41.4752 188.011 41.0129 188.011 40.4146C188.011 39.2995 188.719 38.47 190.133 37.9261C191.275 37.4638 192.716 37.2462 194.457 37.2734C195.082 37.3006 195.654 37.3278 196.17 37.355C198.591 37.2462 200.114 37.1918 200.739 37.1918C202.997 37.1918 204.982 37.6405 206.695 38.538C208.817 39.6259 209.877 41.2032 209.877 43.2702C209.877 45.8538 208.49 47.9071 205.716 49.4301C205.988 50.2732 206.573 50.8987 207.47 51.3066C208.803 51.9049 209.483 52.2041 209.51 52.2041C210.625 53.1288 211.455 54.0942 211.998 55.1005C212.488 55.998 212.896 57.2082 213.222 58.7312C213.685 60.9885 214.378 62.9058 215.303 64.4832C215.357 64.5919 215.711 64.9863 216.363 65.6662C216.853 66.1829 217.098 66.6181 217.098 66.9716C217.098 67.2436 216.867 67.5155 216.404 67.7875C216.078 67.9779 215.752 68.1818 215.425 68.3994C214.936 68.4266 214.133 68.5354 213.018 68.7258C212.094 68.8889 211.305 68.9705 210.652 68.9705C207.824 68.9705 205.879 67.8555 204.819 65.6254C204.302 64.5376 203.812 62.2395 203.35 58.7312C202.942 55.794 202.249 53.8903 201.27 53.02C200.943 52.748 200.549 52.6664 200.087 52.7752C199.325 52.9656 198.999 53.4143 199.108 54.1214Z" fill="white"/>
<path d="M221.183 45.1059C221.02 43.6917 220.693 42.7942 220.204 42.4135C219.959 42.2775 219.619 42.0735 219.184 41.8016C218.858 41.4752 218.694 41.0129 218.694 40.4146C218.694 39.2995 219.402 38.47 220.816 37.9261C221.985 37.4638 223.427 37.2462 225.14 37.2734C225.466 37.2734 225.956 37.3006 226.609 37.355C227.288 37.4094 227.805 37.4366 228.159 37.4366C229.083 37.4366 230.593 37.3686 232.687 37.2326C234.781 37.0966 236.263 37.0286 237.133 37.0286C238.303 37.0286 239.214 37.7629 239.867 39.2315C240.356 40.3738 240.601 41.6112 240.601 42.9438C240.601 43.7869 240.438 44.494 240.111 45.0651C239.676 45.7722 239.078 46.1257 238.317 46.1257C237.582 46.1257 236.957 45.7858 236.44 45.1059C235.678 44.0996 235.094 43.4605 234.686 43.1886C233.68 42.4815 232.197 42.1279 230.239 42.1279C229.668 42.1279 229.369 42.1279 229.342 42.1279C229.07 42.2367 228.879 42.5631 228.771 43.107C228.716 43.2973 228.689 43.4877 228.689 43.6781C228.689 44.5756 229.138 45.3099 230.035 45.881C230.824 46.3705 231.762 46.6153 232.85 46.6153C233.068 46.6153 233.326 46.4657 233.625 46.1665C233.952 45.8674 234.223 45.7178 234.441 45.7178C234.849 45.7178 235.053 46.017 235.053 46.6153C235.053 47.5671 234.931 48.4782 234.686 49.3485C234.332 50.5723 233.816 51.1842 233.136 51.1842C232.701 51.1842 232.279 50.8443 231.871 50.1644C231.49 49.4845 230.919 49.1445 230.158 49.1445C229.287 49.1445 228.852 49.8652 228.852 51.3066C228.852 54.7061 230.824 56.4059 234.767 56.4059C234.931 56.4059 235.189 56.3651 235.542 56.2835C235.896 56.2019 236.168 56.1883 236.358 56.2427C236.549 56.2699 236.712 56.2835 236.848 56.2835C237.528 56.2835 238.085 55.9572 238.52 55.3045C238.983 54.6517 239.35 54.3254 239.622 54.3254C240.03 54.3254 240.383 54.5974 240.683 55.1413C240.982 55.6852 241.131 56.1883 241.131 56.6507C241.131 56.9226 241.159 57.6297 241.213 58.772C241.294 59.887 241.335 60.8117 241.335 61.546C241.335 64.8639 240.655 67.0124 239.296 67.9915C238.779 68.345 237.052 68.5218 234.115 68.5218C233.299 68.5218 232.184 68.5354 230.77 68.5626C229.6 68.5898 228.458 68.5898 227.343 68.5626L219.674 68.5218C218.287 68.4946 217.593 67.8283 217.593 66.5229C217.593 66.0061 217.797 65.5438 218.205 65.1359C218.885 64.456 219.266 64.0344 219.347 63.8712L220.122 62.6474C220.503 62.0219 220.734 60.4717 220.816 57.9969L221.142 47.472C221.197 46.5745 221.21 45.7858 221.183 45.1059Z" fill="white"/>
<path d="M81.7893 86.716C81.6261 85.3018 81.2998 84.4044 80.8103 84.0236C80.5655 83.8876 80.2255 83.6837 79.7904 83.4117C79.4641 83.0853 79.3009 82.623 79.3009 82.0247C79.3009 80.9096 80.008 80.0802 81.4222 79.5362C82.5916 79.0739 84.033 78.8563 85.7464 78.8835C86.0727 78.8835 86.5623 78.9107 87.215 78.9651C87.8949 79.0195 88.4116 79.0467 88.7651 79.0467C89.6898 79.0467 91.1992 78.9787 93.2933 78.8427C95.3874 78.7067 96.8696 78.6388 97.7399 78.6388C98.9093 78.6388 99.8204 79.3731 100.473 80.8417C100.963 81.9839 101.207 83.2213 101.207 84.5539C101.207 85.397 101.044 86.1041 100.718 86.6752C100.283 87.3823 99.6844 87.7359 98.9229 87.7359C98.1886 87.7359 97.5631 87.3959 97.0464 86.716C96.2849 85.7098 95.7002 85.0707 95.2922 84.7987C94.286 84.0916 92.8038 83.738 90.8456 83.738C90.2745 83.738 89.9754 83.738 89.9482 83.738C89.6762 83.8468 89.4858 84.1732 89.3771 84.7171C89.3227 84.9075 89.2955 85.0978 89.2955 85.2882C89.2955 86.1857 89.7442 86.92 90.6417 87.4911C91.4304 87.9806 92.3686 88.2254 93.4565 88.2254C93.674 88.2254 93.9324 88.0758 94.2316 87.7767C94.5579 87.4775 94.8299 87.3279 95.0475 87.3279C95.4554 87.3279 95.6594 87.6271 95.6594 88.2254C95.6594 89.1773 95.537 90.0883 95.2922 90.9586C94.9387 92.1824 94.4219 92.7944 93.742 92.7944C93.3069 92.7944 92.8854 92.4544 92.4774 91.7745C92.0967 91.0946 91.5256 90.7547 90.7641 90.7547C89.8938 90.7547 89.4586 91.4753 89.4586 92.9167C89.4586 96.3163 91.4304 98.016 95.3738 98.016C95.537 98.016 95.7953 97.9752 96.1489 97.8936C96.5024 97.8121 96.7744 97.7985 96.9648 97.8529C97.1552 97.8801 97.3183 97.8936 97.4543 97.8936C98.1342 97.8936 98.6917 97.5673 99.1269 96.9146C99.5892 96.2619 99.9564 95.9355 100.228 95.9355C100.636 95.9355 100.99 96.2075 101.289 96.7514C101.588 97.2953 101.738 97.7985 101.738 98.2608C101.738 98.5328 101.765 99.2399 101.819 100.382C101.901 101.497 101.942 102.422 101.942 103.156C101.942 106.474 101.262 108.623 99.902 109.602C99.3852 109.955 97.6583 110.132 94.7211 110.132C93.9052 110.132 92.7902 110.146 91.376 110.173C90.2065 110.2 89.0643 110.2 87.9493 110.173L80.2799 110.132C78.8929 110.105 78.1994 109.438 78.1994 108.133C78.1994 107.616 78.4034 107.154 78.8113 106.746C79.4912 106.066 79.872 105.645 79.9536 105.481L80.7287 104.258C81.1094 103.632 81.3406 102.082 81.4222 99.607L81.7485 89.0821C81.8029 88.1846 81.8165 87.3959 81.7893 86.716Z" fill="white"/>
<path d="M115.506 95.7723C115.506 96.4522 115.751 97.7033 116.241 99.5254C116.757 101.32 117.152 102.408 117.424 102.789C117.723 103.17 118.036 103.55 118.362 103.931C118.77 104.394 119.015 104.842 119.096 105.277C119.178 105.821 119.219 106.311 119.219 106.746C119.219 107.943 118.784 108.786 117.913 109.275C117.206 109.656 115.942 109.887 114.119 109.969C113.276 110.078 111.441 110.132 108.612 110.132C107.524 110.132 106.409 109.914 105.267 109.479C104.261 109.126 103.594 108.623 103.268 107.97C102.969 107.507 102.819 106.964 102.819 106.338C102.819 106.229 102.819 106.12 102.819 106.012C102.819 105.876 102.819 105.726 102.819 105.563C102.819 105.209 102.996 104.842 103.35 104.462C103.649 104.162 103.962 103.85 104.288 103.523C105.104 100.423 105.689 97.5401 106.042 94.8749C106.341 92.7264 106.545 90.7682 106.654 89.0005C106.817 86.4169 106.45 84.7579 105.553 84.0236C105.308 83.8876 104.968 83.6837 104.533 83.4117C104.206 83.0853 104.043 82.623 104.043 82.0247C104.043 80.9096 104.75 80.0802 106.165 79.5362C107.307 79.0739 108.748 78.8563 110.489 78.8835C113.453 78.9379 115.357 79.3595 116.2 80.1481C117.478 80.9912 118.634 83.0037 119.667 86.1857C120.81 89.6124 121.925 91.8561 123.013 92.9167C123.285 93.1615 123.584 93.2295 123.91 93.1207C124.236 92.7128 124.4 92.1145 124.4 91.3258C124.4 91.0266 124.359 90.5643 124.277 89.9388C124.277 89.8844 124.277 89.8164 124.277 89.7348L124.236 89.6532C124.155 89.0005 124.06 88.307 123.951 87.5727C123.488 86.0497 122.741 84.8667 121.707 84.0236C121.462 83.8876 121.122 83.6837 120.687 83.4117C120.388 83.0853 120.239 82.623 120.239 82.0247C120.239 80.9096 120.946 80.0802 122.36 79.5362C123.502 79.0739 124.943 78.8563 126.684 78.8835C129.077 78.9107 130.777 79.1963 131.783 79.7402C132.599 80.1753 133.007 80.8417 133.007 81.7391C133.007 82.2831 132.885 82.6774 132.64 82.9222C132.395 83.1669 132.137 83.3981 131.865 83.6157C131.593 83.8332 131.375 84.1324 131.212 84.5131C130.886 85.0843 130.559 85.669 130.233 86.2673C129.744 87.2735 129.499 88.4022 129.499 89.6532C129.499 89.5988 129.499 89.7756 129.499 90.1835C129.553 91.6793 129.975 93.9366 130.763 96.9554C131.498 99.8382 131.865 102.082 131.865 103.686C131.865 105.808 131.688 107.276 131.335 108.092C130.763 109.37 129.58 110.01 127.785 110.01C125.8 110.01 124.005 108.718 122.401 106.134C121.993 105.454 120.878 103.061 119.056 98.9543C117.913 96.3707 116.88 95.0788 115.955 95.0788C115.656 95.0788 115.506 95.31 115.506 95.7723Z" fill="white"/>
<path d="M137.204 86.716C137.041 85.3018 136.715 84.4044 136.225 84.0236C135.98 83.8876 135.64 83.6837 135.205 83.4117C134.879 83.0853 134.716 82.623 134.716 82.0247C134.716 80.9096 135.423 80.0802 136.837 79.5362C138.006 79.0739 139.448 78.8563 141.161 78.8835C141.488 78.8835 141.977 78.9107 142.63 78.9651C143.31 79.0195 143.826 79.0467 144.18 79.0467C145.105 79.0467 146.614 78.9787 148.708 78.8427C150.802 78.7067 152.284 78.6388 153.155 78.6388C154.324 78.6388 155.235 79.3731 155.888 80.8417C156.377 81.9839 156.622 83.2213 156.622 84.5539C156.622 85.397 156.459 86.1041 156.133 86.6752C155.698 87.3823 155.099 87.7359 154.338 87.7359C153.603 87.7359 152.978 87.3959 152.461 86.716C151.7 85.7098 151.115 85.0707 150.707 84.7987C149.701 84.0916 148.219 83.738 146.26 83.738C145.689 83.738 145.39 83.738 145.363 83.738C145.091 83.8468 144.901 84.1732 144.792 84.7171C144.738 84.9075 144.71 85.0978 144.71 85.2882C144.71 86.1857 145.159 86.92 146.057 87.4911C146.845 87.9806 147.783 88.2254 148.871 88.2254C149.089 88.2254 149.347 88.0758 149.646 87.7767C149.973 87.4775 150.245 87.3279 150.462 87.3279C150.87 87.3279 151.074 87.6271 151.074 88.2254C151.074 89.1773 150.952 90.0883 150.707 90.9586C150.354 92.1824 149.837 92.7944 149.157 92.7944C148.722 92.7944 148.3 92.4544 147.892 91.7745C147.512 91.0946 146.94 90.7547 146.179 90.7547C145.309 90.7547 144.873 91.4753 144.873 92.9167C144.873 96.3163 146.845 98.016 150.789 98.016C150.952 98.016 151.21 97.9752 151.564 97.8936C151.917 97.8121 152.189 97.7985 152.38 97.8529C152.57 97.8801 152.733 97.8936 152.869 97.8936C153.549 97.8936 154.107 97.5673 154.542 96.9146C155.004 96.2619 155.371 95.9355 155.643 95.9355C156.051 95.9355 156.405 96.2075 156.704 96.7514C157.003 97.2953 157.153 97.7985 157.153 98.2608C157.153 98.5328 157.18 99.2399 157.234 100.382C157.316 101.497 157.357 102.422 157.357 103.156C157.357 106.474 156.677 108.623 155.317 109.602C154.8 109.955 153.073 110.132 150.136 110.132C149.32 110.132 148.205 110.146 146.791 110.173C145.621 110.2 144.479 110.2 143.364 110.173L135.695 110.132C134.308 110.105 133.614 109.438 133.614 108.133C133.614 107.616 133.818 107.154 134.226 106.746C134.906 106.066 135.287 105.645 135.368 105.481L136.144 104.258C136.524 103.632 136.755 102.082 136.837 99.607L137.163 89.0821C137.218 88.1846 137.231 87.3959 137.204 86.716Z" fill="white"/>
<path d="M170.228 83.0853C169.874 83.0853 169.548 83.2213 169.249 83.4933C168.977 83.738 168.868 84.0372 168.922 84.3907L169.249 88.5926C169.303 89.2997 169.548 89.6532 169.983 89.6532C170.799 89.6532 171.452 89.2589 171.941 88.4702C172.376 87.7631 172.594 86.9744 172.594 86.1041C172.594 84.0916 171.805 83.0853 170.228 83.0853ZM170.105 95.7316C170.676 99.5934 171.261 101.932 171.86 102.748C172.213 103.129 172.58 103.537 172.961 103.972C173.342 104.407 173.532 104.842 173.532 105.277C173.532 107.507 172.975 108.881 171.86 109.398C170.989 109.806 168.664 110.01 164.884 110.01C161.783 110.01 159.716 109.724 158.683 109.153C157.677 108.555 157.214 107.358 157.296 105.563C157.323 105.155 157.582 104.706 158.071 104.217C158.669 103.618 159.023 103.224 159.132 103.034C159.512 102.272 159.975 100.301 160.519 97.1186C161.008 94.263 161.375 91.5569 161.62 89.0005C161.539 86.2265 161.171 84.5675 160.519 84.0236C160.274 83.8876 159.934 83.6837 159.499 83.4117C159.173 83.0853 159.009 82.623 159.009 82.0247C159.009 80.9096 159.716 80.0802 161.131 79.5362C162.273 79.0739 163.714 78.8563 165.455 78.8835C166.08 78.9107 166.651 78.9379 167.168 78.9651C169.589 78.8563 171.112 78.8019 171.737 78.8019C173.994 78.8019 175.98 79.2507 177.693 80.1481C179.814 81.236 180.875 82.8134 180.875 84.8803C180.875 87.4639 179.488 89.5172 176.714 91.0402C176.986 91.8833 177.571 92.5088 178.468 92.9167C179.801 93.5151 180.481 93.8142 180.508 93.8142C181.623 94.7389 182.452 95.7044 182.996 96.7106C183.486 97.6081 183.894 98.8183 184.22 100.341C184.683 102.599 185.376 104.516 186.301 106.093C186.355 106.202 186.709 106.596 187.361 107.276C187.851 107.793 188.096 108.228 188.096 108.582C188.096 108.854 187.864 109.126 187.402 109.398C187.076 109.588 186.749 109.792 186.423 110.01C185.934 110.037 185.131 110.146 184.016 110.336C183.092 110.499 182.303 110.581 181.65 110.581C178.822 110.581 176.877 109.466 175.817 107.236C175.3 106.148 174.81 103.85 174.348 100.341C173.94 97.4041 173.247 95.5004 172.267 94.6301C171.941 94.3581 171.547 94.2766 171.084 94.3853C170.323 94.5757 169.997 95.0245 170.105 95.7316Z" fill="white"/>
<path d="M207.03 93.8142C207.03 93.5695 206.758 93.2431 206.214 92.8352C205.67 92.4272 205.398 92.0193 205.398 91.6113C205.398 90.4691 206.921 89.898 209.967 89.898C209.94 89.898 210.185 89.8844 210.701 89.8572C211.218 89.8028 211.694 89.7756 212.129 89.7756C214.359 89.7756 215.501 90.2243 215.556 91.1218C215.583 91.7201 215.393 92.2776 214.985 92.7944C214.414 93.5287 214.087 93.9638 214.006 94.0998C213.625 95.0245 213.516 95.9355 213.679 96.833C214.278 100.069 214.577 102.299 214.577 103.523C214.577 104.067 214.495 104.421 214.332 104.584C213.951 104.965 213.394 105.223 212.66 105.359C211.925 105.495 211.49 105.617 211.354 105.726C209.015 107.575 207.533 108.663 206.908 108.99C205.548 109.67 203.63 110.01 201.156 110.01C197.43 110.01 194.384 108.31 192.018 104.91C189.896 101.891 188.836 98.424 188.836 94.5077C188.836 90.5643 189.978 87.0152 192.262 83.8604C194.792 80.3521 197.987 78.598 201.849 78.598C202.42 78.598 203.236 78.7339 204.297 79.0059C205.385 79.2779 206.187 79.4139 206.704 79.4139C206.975 79.4139 207.383 79.2915 207.927 79.0467C208.471 78.8019 208.879 78.6796 209.151 78.6796C210.021 78.6796 210.674 79.1827 211.109 80.1889C211.436 80.9504 211.599 81.8071 211.599 82.759C211.599 84.3907 211.476 85.5466 211.232 86.2265C210.797 87.3687 209.899 87.9398 208.539 87.9398C207.451 87.9398 206.663 87.5863 206.173 86.8792C205.82 86.1993 205.48 85.5194 205.153 84.8395C204.637 84.1324 203.821 83.7788 202.706 83.7788C201.455 83.7788 200.367 84.4451 199.442 85.7778C198.572 87.0016 198.137 88.2526 198.137 89.5308C198.137 91.4074 198.925 92.8352 200.503 93.8142C201.781 94.5757 203.399 94.9565 205.357 94.9565C206.472 94.9565 207.03 94.5757 207.03 93.8142Z" fill="white"/>
<path d="M232.482 93.4063C233.298 98.7911 234.019 101.905 234.644 102.748C234.998 103.129 235.365 103.537 235.746 103.972C236.127 104.407 236.317 104.842 236.317 105.277C236.317 107.507 235.746 108.881 234.604 109.398C233.761 109.806 231.449 110.01 227.669 110.01C224.623 110.01 222.596 109.71 221.59 109.112C220.584 108.487 220.081 107.304 220.081 105.563C220.081 105.155 220.326 104.706 220.815 104.217C221.441 103.618 221.808 103.224 221.917 103.034C222.27 102.327 222.678 100.64 223.14 97.9752C223.548 95.6908 223.807 93.9366 223.916 92.7128C223.916 92.604 223.712 92.2504 223.304 91.6521C222.787 90.9178 222.393 90.1835 222.121 89.4492C221.631 88.5518 221.046 87.4231 220.366 86.0633C220.094 85.7098 219.7 85.3426 219.183 84.9619C218.313 84.3364 217.878 84.0236 217.878 84.0236C217.633 83.8876 217.293 83.6837 216.858 83.4117C216.559 83.0853 216.409 82.623 216.409 82.0247C216.409 80.9096 217.116 80.0802 218.531 79.5362C219.673 79.0739 221.114 78.8563 222.855 78.8835C225.248 78.9107 226.948 79.1963 227.954 79.7402C228.77 80.1753 229.178 80.8417 229.178 81.7391C229.178 82.2831 229.056 82.6774 228.811 82.9222C228.566 83.1669 228.308 83.3981 228.036 83.6157C227.764 83.8332 227.546 84.1188 227.383 84.4723C227.247 84.8259 227.22 85.2066 227.301 85.6146C227.628 87.3007 228.348 88.1438 229.464 88.1438C229.871 88.1438 230.375 87.6543 230.973 86.6752C231.109 86.1857 231.34 85.6146 231.666 84.9619C231.911 84.4723 232.034 84.146 232.034 83.9828C232.034 83.9012 231.979 83.8332 231.87 83.7788C231.789 83.7244 231.612 83.6021 231.34 83.4117C231.014 83.0853 230.851 82.623 230.851 82.0247C230.851 79.9306 232.999 78.8835 237.296 78.8835C240.614 78.8835 242.273 79.7266 242.273 81.4128C242.273 81.9567 242.137 82.351 241.865 82.5958C241.62 82.8406 241.375 83.0581 241.131 83.2485C240.913 83.4389 240.478 83.6701 239.825 83.942C238.819 84.3228 238.18 84.6083 237.908 84.7987C237.663 84.9891 237.323 85.3834 236.888 85.9817C235.311 87.6951 234.332 88.8101 233.951 89.3269C232.972 90.6051 232.482 91.7337 232.482 92.7128C232.482 92.9031 232.482 93.1343 232.482 93.4063Z" fill="white"/>
<path d="M94.8314 124.573C94.1515 124.573 93.8115 125.035 93.8115 125.96C93.8115 127.891 93.8387 129.156 93.8931 129.754C93.9203 130.08 93.9339 130.407 93.9339 130.733C93.9611 131.059 94.1379 131.304 94.4642 131.467C94.5186 131.495 94.6682 131.522 94.913 131.549C95.8104 131.549 96.5175 131.141 97.0343 130.325C97.4966 129.591 97.7278 128.761 97.7278 127.837C97.7278 125.661 96.7623 124.573 94.8314 124.573ZM95.0761 136.934C95.7832 141.176 96.3951 143.651 96.9119 144.358C97.2654 144.739 97.6326 145.147 98.0133 145.582C98.3941 146.017 98.5844 146.452 98.5844 146.888C98.5844 148.574 98.3125 149.73 97.7686 150.355C97.2246 150.981 96.1776 151.361 94.6274 151.497C93.8387 151.715 92.7917 151.824 91.4862 151.824C90.1808 151.824 88.6986 151.715 87.0397 151.497C85.1903 151.307 83.9393 150.899 83.2866 150.273C82.6611 149.648 82.3483 148.614 82.3483 147.173C82.3483 146.765 82.5931 146.316 83.0826 145.827C83.7081 145.229 84.0753 144.834 84.1841 144.644C84.9728 143.066 85.7614 138.729 86.5501 131.63V128.938C86.5773 127.306 86.2374 126.205 85.5303 125.634C85.2855 125.498 84.9456 125.294 84.5104 125.022C84.1841 124.695 84.0209 124.233 84.0209 123.635C84.0209 122.52 84.728 121.69 86.1422 121.146C87.3116 120.684 88.753 120.466 90.4664 120.494C90.9559 120.521 91.1463 120.534 91.0375 120.534C91.2551 120.507 91.5678 120.494 91.9758 120.494C92.1389 120.466 92.8189 120.398 94.0155 120.29C94.8314 120.235 95.6609 120.222 96.5039 120.249C102.786 120.494 105.927 123.2 105.927 128.367C105.927 131.277 105.193 133.303 103.725 134.445C102.8 135.18 101.263 135.669 99.1148 135.914C96.9663 136.131 95.6201 136.471 95.0761 136.934Z" fill="white"/>
<path d="M109.596 128.326C109.433 126.912 109.107 126.014 108.617 125.634C108.373 125.498 108.033 125.294 107.597 125.022C107.271 124.695 107.108 124.233 107.108 123.635C107.108 122.52 107.815 121.69 109.229 121.146C110.399 120.684 111.84 120.466 113.553 120.494C113.88 120.494 114.369 120.521 115.022 120.575C115.702 120.63 116.219 120.657 116.572 120.657C117.497 120.657 119.006 120.589 121.1 120.453C123.194 120.317 124.677 120.249 125.547 120.249C126.716 120.249 127.627 120.983 128.28 122.452C128.77 123.594 129.014 124.831 129.014 126.164C129.014 127.007 128.851 127.714 128.525 128.285C128.09 128.992 127.491 129.346 126.73 129.346C125.996 129.346 125.37 129.006 124.853 128.326C124.092 127.32 123.507 126.681 123.099 126.409C122.093 125.702 120.611 125.348 118.653 125.348C118.082 125.348 117.782 125.348 117.755 125.348C117.483 125.457 117.293 125.783 117.184 126.327C117.13 126.518 117.102 126.708 117.102 126.898C117.102 127.796 117.551 128.53 118.449 129.101C119.237 129.591 120.176 129.836 121.263 129.836C121.481 129.836 121.739 129.686 122.039 129.387C122.365 129.088 122.637 128.938 122.854 128.938C123.262 128.938 123.466 129.237 123.466 129.836C123.466 130.787 123.344 131.698 123.099 132.569C122.746 133.793 122.229 134.404 121.549 134.404C121.114 134.404 120.692 134.065 120.284 133.385C119.904 132.705 119.333 132.365 118.571 132.365C117.701 132.365 117.266 133.085 117.266 134.527C117.266 137.926 119.237 139.626 123.181 139.626C123.344 139.626 123.602 139.585 123.956 139.504C124.309 139.422 124.581 139.409 124.772 139.463C124.962 139.49 125.125 139.504 125.261 139.504C125.941 139.504 126.499 139.177 126.934 138.525C127.396 137.872 127.763 137.546 128.035 137.546C128.443 137.546 128.797 137.818 129.096 138.362C129.395 138.905 129.545 139.409 129.545 139.871C129.545 140.143 129.572 140.85 129.626 141.992C129.708 143.107 129.749 144.032 129.749 144.766C129.749 148.084 129.069 150.233 127.709 151.212C127.192 151.565 125.465 151.742 122.528 151.742C121.712 151.742 120.597 151.756 119.183 151.783C118.014 151.81 116.871 151.81 115.756 151.783L108.087 151.742C106.7 151.715 106.006 151.049 106.006 149.743C106.006 149.226 106.21 148.764 106.618 148.356C107.298 147.676 107.679 147.255 107.761 147.092L108.536 145.868C108.916 145.242 109.148 143.692 109.229 141.217L109.556 130.692C109.61 129.795 109.624 129.006 109.596 128.326Z" fill="white"/>
<path d="M142.62 124.695C142.266 124.695 141.94 124.831 141.641 125.103C141.369 125.348 141.26 125.647 141.314 126.001L141.641 130.203C141.695 130.91 141.94 131.263 142.375 131.263C143.191 131.263 143.844 130.869 144.333 130.08C144.768 129.373 144.986 128.585 144.986 127.714C144.986 125.702 144.197 124.695 142.62 124.695ZM142.498 137.342C143.069 141.204 143.653 143.542 144.252 144.358C144.605 144.739 144.972 145.147 145.353 145.582C145.734 146.017 145.924 146.452 145.924 146.888C145.924 149.118 145.367 150.491 144.252 151.008C143.381 151.416 141.056 151.62 137.276 151.62C134.176 151.62 132.109 151.334 131.075 150.763C130.069 150.165 129.607 148.968 129.688 147.173C129.715 146.765 129.974 146.316 130.463 145.827C131.062 145.229 131.415 144.834 131.524 144.644C131.905 143.882 132.367 141.911 132.911 138.729C133.4 135.873 133.768 133.167 134.012 130.611C133.931 127.837 133.564 126.178 132.911 125.634C132.666 125.498 132.326 125.294 131.891 125.022C131.565 124.695 131.402 124.233 131.402 123.635C131.402 122.52 132.109 121.69 133.523 121.146C134.665 120.684 136.106 120.466 137.847 120.494C138.473 120.521 139.044 120.548 139.56 120.575C141.981 120.466 143.504 120.412 144.129 120.412C146.387 120.412 148.372 120.861 150.085 121.758C152.207 122.846 153.267 124.424 153.267 126.49C153.267 129.074 151.88 131.127 149.106 132.65C149.378 133.493 149.963 134.119 150.86 134.527C152.193 135.125 152.873 135.424 152.9 135.424C154.015 136.349 154.845 137.314 155.389 138.321C155.878 139.218 156.286 140.428 156.612 141.951C157.075 144.209 157.768 146.126 158.693 147.703C158.747 147.812 159.101 148.207 159.754 148.886C160.243 149.403 160.488 149.838 160.488 150.192C160.488 150.464 160.257 150.736 159.794 151.008C159.468 151.198 159.142 151.402 158.815 151.62C158.326 151.647 157.523 151.756 156.408 151.946C155.484 152.109 154.695 152.191 154.042 152.191C151.214 152.191 149.269 151.076 148.209 148.846C147.692 147.758 147.202 145.46 146.74 141.951C146.332 139.014 145.639 137.111 144.66 136.24C144.333 135.968 143.939 135.887 143.477 135.995C142.715 136.186 142.389 136.635 142.498 137.342Z" fill="white"/>
<path d="M167.633 140.442C169.509 140.442 170.447 139.545 170.447 137.75C170.447 137.151 169.822 136.322 168.571 135.261C166.694 133.629 165.566 132.596 165.185 132.161C163.934 130.774 163.308 129.387 163.308 128C163.308 125.525 164.301 123.567 166.286 122.125C168.054 120.847 170.216 120.208 172.773 120.208C173.588 120.208 174.758 120.358 176.281 120.657C177.831 120.956 179.028 121.106 179.871 121.106C181.339 121.106 182.074 122.792 182.074 126.164C182.074 128.095 181.312 129.06 179.789 129.06C178.729 129.06 177.709 128.285 176.73 126.735C175.778 125.185 174.853 124.41 173.956 124.41C171.97 124.41 170.978 125.131 170.978 126.572C170.978 127.415 172.093 128.367 174.323 129.428C177.342 130.842 179.395 132.025 180.483 132.977C182.713 134.908 183.828 137.382 183.828 140.401C183.828 143.692 182.754 146.398 180.605 148.519C178.484 150.641 175.791 151.701 172.528 151.701C169.183 151.701 166.463 150.885 164.369 149.254C162.057 147.486 160.901 144.97 160.901 141.707C160.901 140.075 161.745 139.259 163.431 139.259C163.975 139.259 164.532 139.463 165.103 139.871C165.702 140.252 166.545 140.442 167.633 140.442Z" fill="white"/>
<path d="M210.434 140.238C210.434 143.665 209.142 146.534 206.558 148.846C204.111 151.021 201.16 152.109 197.706 152.109C193.844 152.109 190.744 150.586 188.405 147.54C186.311 144.766 185.264 141.38 185.264 137.382C185.264 132.977 186.324 129.128 188.446 125.838C190.893 122.03 194.198 120.127 198.359 120.127C202.384 120.127 205.498 122.438 207.7 127.062C209.523 130.842 210.434 135.234 210.434 140.238ZM201.5 134.894C201.5 133.099 201.105 131.114 200.317 128.938C199.338 126.218 198.127 124.859 196.686 124.859C195.843 124.859 195.19 125.484 194.728 126.735C194.374 127.687 194.198 128.707 194.198 129.795C194.198 131.644 194.497 133.371 195.095 134.976C195.911 137.124 197.108 138.198 198.685 138.198C200.561 138.198 201.5 137.097 201.5 134.894Z" fill="white"/>
<path d="M224.105 137.382C224.105 138.062 224.35 139.313 224.839 141.136C225.356 142.93 225.751 144.018 226.022 144.399C226.322 144.78 226.634 145.161 226.961 145.541C227.369 146.004 227.613 146.452 227.695 146.888C227.777 147.431 227.817 147.921 227.817 148.356C227.817 149.553 227.382 150.396 226.512 150.885C225.805 151.266 224.54 151.497 222.718 151.579C221.875 151.688 220.039 151.742 217.211 151.742C216.123 151.742 215.008 151.524 213.866 151.089C212.86 150.736 212.193 150.233 211.867 149.58C211.568 149.118 211.418 148.574 211.418 147.948C211.418 147.839 211.418 147.731 211.418 147.622C211.418 147.486 211.418 147.336 211.418 147.173C211.418 146.82 211.595 146.452 211.948 146.072C212.248 145.772 212.56 145.46 212.887 145.133C213.703 142.033 214.287 139.15 214.641 136.485C214.94 134.337 215.144 132.378 215.253 130.611C215.416 128.027 215.049 126.368 214.151 125.634C213.907 125.498 213.567 125.294 213.132 125.022C212.805 124.695 212.642 124.233 212.642 123.635C212.642 122.52 213.349 121.69 214.763 121.146C215.906 120.684 217.347 120.466 219.087 120.494C222.052 120.548 223.956 120.97 224.799 121.758C226.077 122.601 227.233 124.614 228.266 127.796C229.408 131.223 230.523 133.466 231.611 134.527C231.883 134.772 232.182 134.84 232.509 134.731C232.835 134.323 232.998 133.725 232.998 132.936C232.998 132.637 232.957 132.174 232.876 131.549C232.876 131.495 232.876 131.427 232.876 131.345L232.835 131.263C232.754 130.611 232.658 129.917 232.55 129.183C232.087 127.66 231.339 126.477 230.306 125.634C230.061 125.498 229.721 125.294 229.286 125.022C228.987 124.695 228.837 124.233 228.837 123.635C228.837 122.52 229.544 121.69 230.959 121.146C232.101 120.684 233.542 120.466 235.283 120.494C237.676 120.521 239.376 120.806 240.382 121.35C241.198 121.785 241.606 122.452 241.606 123.349C241.606 123.893 241.483 124.288 241.239 124.532C240.994 124.777 240.736 125.008 240.464 125.226C240.192 125.443 239.974 125.743 239.811 126.123C239.485 126.694 239.158 127.279 238.832 127.877C238.342 128.884 238.098 130.012 238.098 131.263C238.098 131.209 238.098 131.386 238.098 131.794C238.152 133.289 238.573 135.547 239.362 138.566C240.096 141.448 240.464 143.692 240.464 145.297C240.464 147.418 240.287 148.886 239.933 149.702C239.362 150.981 238.179 151.62 236.384 151.62C234.399 151.62 232.604 150.328 230.999 147.744C230.591 147.064 229.476 144.671 227.654 140.564C226.512 137.981 225.479 136.689 224.554 136.689C224.255 136.689 224.105 136.92 224.105 137.382Z" fill="white"/>
</svg>
