<svg width="280" height="269" viewBox="0 0 280 269" fill="none" xmlns="http://www.w3.org/2000/svg">
<path d="M139.859 227.058C216.531 227.058 278.686 217.262 278.686 205.178C278.686 193.093 216.531 183.297 139.859 183.297C63.1864 183.297 1.03125 193.093 1.03125 205.178C1.03125 217.262 63.1864 227.058 139.859 227.058Z" fill="#242426"/>
<path d="M139.864 227.28C102.77 227.28 67.8948 225.003 41.6636 220.869C26.4067 218.464 0.8125 213.227 0.8125 205.175C0.8125 197.124 26.4067 191.887 41.6636 189.482C67.8948 185.347 102.77 183.07 139.864 183.07C176.957 183.07 211.833 185.347 238.064 189.482C253.321 191.887 278.915 197.122 278.915 205.175C278.915 213.228 253.321 218.464 238.064 220.869C211.827 225.002 176.952 227.28 139.864 227.28ZM139.864 183.517C102.793 183.517 67.9422 185.793 41.7282 189.923C16.0063 193.977 1.2544 199.536 1.2544 205.175C1.2544 210.815 16.0049 216.377 41.7282 220.426C67.9379 224.558 102.789 226.833 139.864 226.833C176.939 226.833 211.785 224.558 237.999 220.426C263.721 216.372 278.473 210.813 278.473 205.175C278.473 199.537 263.721 193.977 237.999 189.923C211.78 185.793 176.929 183.517 139.864 183.517Z" fill="#242426"/>
<path d="M97.3234 52.5491C97.0398 51.5642 97.9004 50.632 98.7283 50.0279C99.5562 49.4239 100.531 48.7444 100.606 47.73C100.681 46.7157 99.7844 45.8491 99.4096 44.8708C98.9793 43.7448 99.2662 42.4679 99.7355 41.3517C100.205 40.2356 100.827 39.1852 101.111 38.0132C101.743 35.3871 100.43 32.5344 98.3795 30.7683C96.3292 29.0022 93.6531 28.1421 90.9998 27.63C88.3465 27.1179 85.5172 27.1705 82.9062 26.4844C85.4998 27.7221 87.5088 29.9338 88.5025 32.6454C89.4963 35.357 89.3958 38.3528 88.2226 40.9907C87.7826 41.9755 87.2024 42.8979 86.8308 43.909C86.4592 44.92 86.3158 46.0854 86.7689 47.0637C87.499 48.6492 89.4222 49.1843 91.0976 49.6406C92.773 50.0969 94.6832 50.9537 95.0091 52.6475C95.6936 52.5162 96.6389 52.6705 97.3234 52.5491Z" fill="#E79052"/>
<path d="M95.0208 53.213C94.903 53.213 94.7889 53.1721 94.698 53.0973C94.607 53.0226 94.5449 52.9186 94.5221 52.8031C94.2891 51.6521 93.0849 50.7732 90.9389 50.1796C89.2261 49.7173 87.09 49.1368 86.2533 47.3299C85.6693 46.0805 85.9547 44.7064 86.2993 43.7849C86.5407 43.1708 86.8213 42.5727 87.1393 41.9944C87.3361 41.6107 87.5363 41.2303 87.7135 40.8368C88.8404 38.3232 88.937 35.4684 87.9826 32.8845C87.0281 30.3006 85.0987 28.1933 82.6079 27.0144C82.4964 26.9577 82.4096 26.8623 82.3638 26.746C82.3179 26.6298 82.3162 26.5008 82.359 26.3834C82.4018 26.266 82.4861 26.1683 82.5961 26.1087C82.706 26.0492 82.8339 26.0319 82.9557 26.0601C84.4504 26.407 85.9698 26.6373 87.5002 26.7488C88.6847 26.8635 89.9086 26.9816 91.0899 27.2079C94.486 27.8637 96.9206 28.8935 98.7516 30.4577C101.16 32.5171 102.305 35.5571 101.665 38.2002C101.435 39.0156 101.121 39.8047 100.727 40.5548C100.56 40.909 100.399 41.2598 100.241 41.6173C99.7163 42.8766 99.6113 43.9325 99.9132 44.7523C100.051 45.0743 100.217 45.3837 100.409 45.6771C100.786 46.2936 101.216 46.9888 101.153 47.8316C101.058 49.0614 99.9886 49.8353 99.1256 50.4551C98.6072 50.8322 97.5933 51.6685 97.8131 52.4752C97.8353 52.5448 97.8422 52.6184 97.8333 52.691C97.8244 52.7635 97.8 52.8333 97.7617 52.8955C97.7234 52.9578 97.6721 53.011 97.6113 53.0517C97.5506 53.0923 97.4818 53.1194 97.4096 53.1311C96.9907 53.184 96.568 53.2005 96.1463 53.1802C95.7915 53.1598 95.4357 53.1718 95.0832 53.2163L95.0208 53.213ZM95.7525 52.144H96.1955C96.3957 52.144 96.5958 52.144 96.7861 52.144C96.8156 51.3045 97.3931 50.4485 98.4661 49.6746C99.3028 49.0679 100.107 48.5006 100.146 47.7398C100.185 47.2315 99.8902 46.756 99.5522 46.1952C99.3275 45.8503 99.1343 45.4859 98.9747 45.1065C98.5613 44.0342 98.6695 42.7224 99.3028 41.2139C99.457 40.8401 99.631 40.4695 99.8082 40.1055C100.163 39.4189 100.448 38.6981 100.658 37.9543C101.203 35.7112 100.163 33.0057 98.0724 31.2218C96.3825 29.7789 94.0988 28.818 90.8832 28.2015C89.7478 27.9818 88.5469 27.8736 87.3854 27.7522C86.7291 27.6867 86.0236 27.6211 85.3378 27.5325C87.3303 29.1316 88.736 31.3458 89.3351 33.8285C89.9342 36.3112 89.6927 38.9223 88.6486 41.2533C88.4649 41.6665 88.2549 42.0666 88.0482 42.4666C87.7497 43.0065 87.4866 43.5651 87.2607 44.1391C87.0343 44.7491 86.7226 45.9198 87.1819 46.9003C87.8382 48.2743 89.6199 48.7662 91.208 49.1958C93.541 49.8288 94.9191 50.7962 95.4014 52.1472C95.513 52.144 95.6311 52.144 95.7525 52.144Z" fill="#242426"/>
<path d="M142.408 125.053C145.362 126.614 142.935 125.332 142.291 124.871C141.786 124.507 141.295 123.956 140.77 123.591C140.669 123.479 140.566 123.37 140.468 123.256C139.965 122.67 139.491 122.059 139.034 121.432C138.869 121.19 138.723 120.937 138.595 120.674C138.672 120.856 138.764 121.071 138.872 121.327C138.57 120.608 138.085 119.931 137.732 119.235C137.004 117.798 136.357 116.322 135.76 114.825C133.045 108.01 131.288 100.851 128.691 93.9894C122.998 78.9528 113.104 64.3676 97.504 58.4938C92.3002 56.5344 85.6158 58.892 83.6732 64.3992C81.7908 69.7382 84.0089 76.164 89.5685 78.257C90.3504 78.5517 91.1223 78.8622 91.8813 79.213C92.0649 79.2978 92.2457 79.3913 92.4279 79.4804C92.9516 79.9404 93.8225 80.2969 94.3691 80.6764C95.054 81.1556 95.7235 81.6549 96.3778 82.1743C96.9516 82.6343 97.4954 83.1202 98.0463 83.6119C98.2171 83.7872 98.3907 83.9626 98.5585 84.1409C99.7099 85.3746 100.793 86.6703 101.804 88.0222C102.31 88.6931 102.799 89.3802 103.27 90.0837C103.505 90.4325 103.736 90.7847 103.963 91.1402L104.064 91.3012C104.835 92.7287 106.173 95.3666 106.326 95.69C108.048 99.3083 109.47 103.059 110.774 106.847C113.049 113.491 114.739 120.403 117.762 126.767C121.493 134.63 126.761 140.751 134.477 144.828C136.773 146.041 140.466 145.69 142.737 144.693C145.077 143.659 147.441 141.386 148.308 138.922C150.387 133.001 147.677 127.839 142.408 125.053Z" fill="#F24EB6"/>
<path d="M138.128 145.815C136.772 145.815 135.436 145.578 134.361 145.01C127.006 141.122 121.508 135.182 117.551 126.847C115.452 122.431 113.974 117.684 112.543 113.094C111.909 111.057 111.252 108.95 110.552 106.904C109.038 102.489 107.63 98.9515 106.119 95.7703C105.975 95.4583 104.627 92.8061 103.863 91.3915L103.769 91.2478C103.544 90.897 103.314 90.5472 103.08 90.1984C102.605 89.4954 102.113 88.804 101.621 88.1456C100.615 86.7978 99.5367 85.5064 98.3898 84.2772C98.2665 84.1449 98.1416 84.0155 98.0154 83.8876L97.6897 83.5828C97.2177 83.1674 96.7299 82.7376 96.232 82.3379C95.5806 81.8147 94.9121 81.3144 94.2435 80.8501C93.9976 80.6884 93.7438 80.5392 93.4831 80.403C93.067 80.1944 92.6728 79.9444 92.3066 79.6569L92.1416 79.5764C92.0239 79.5189 91.9077 79.46 91.7901 79.4053C91.1272 79.0991 90.397 78.7973 89.4945 78.4566C84.1344 76.444 81.4299 70.0944 83.4686 64.3141C84.3367 61.853 86.2032 59.8491 88.7269 58.6718C91.5017 57.378 94.8145 57.2342 97.5878 58.2736C107.07 61.8516 120.206 70.9311 128.901 93.9086C130.118 97.1201 131.165 100.449 132.179 103.668C133.327 107.329 134.525 111.117 135.968 114.737C136.618 116.367 137.26 117.803 137.934 119.13C138.077 119.406 138.241 119.689 138.403 119.963C138.501 120.129 138.6 120.298 138.69 120.47C138.733 120.492 138.767 120.527 138.789 120.569C138.911 120.822 139.052 121.065 139.209 121.297C139.67 121.939 140.146 122.547 140.624 123.105C140.683 123.174 140.745 123.24 140.805 123.306L140.905 123.418C141.185 123.625 141.451 123.848 141.703 124.087C141.927 124.299 142.163 124.498 142.409 124.685C142.696 124.886 143.346 125.26 143.7 125.464C143.788 125.513 143.859 125.555 143.917 125.593C144.016 125.661 144.06 125.718 144.06 125.792C148.614 128.92 150.314 133.842 148.499 138.981C147.653 141.38 145.366 143.752 142.808 144.882C141.325 145.5 139.734 145.817 138.128 145.815ZM93.6854 58.0364C92.0374 58.0351 90.4088 58.3921 88.912 59.0829C86.4988 60.2099 84.714 62.1218 83.8905 64.4693C81.9335 70.0211 84.5174 76.1134 89.6523 78.0426C90.5677 78.3876 91.308 78.6938 91.9823 79.0057C92.1029 79.0618 92.2234 79.1221 92.3439 79.1811L92.5318 79.2745C92.5499 79.2833 92.5668 79.2944 92.5821 79.3076C92.9305 79.5808 93.3054 79.8182 93.7011 80.0163C93.9761 80.1593 94.2433 80.3167 94.5017 80.4878C95.1789 80.9579 95.8561 81.4653 96.5104 81.9943C97.0154 82.4012 97.5075 82.8339 97.9824 83.2522L98.3325 83.5799C98.4616 83.7108 98.5893 83.843 98.7141 83.9767C99.8719 85.214 100.961 86.5141 101.977 87.871C102.475 88.5337 102.971 89.2309 103.449 89.941C103.685 90.2918 103.917 90.6454 104.146 91.0019L104.228 91.1313L104.255 91.1773C105.04 92.6307 106.368 95.2527 106.522 95.5762C108.041 98.7733 109.454 102.333 110.97 106.757C111.673 108.809 112.33 110.926 112.965 112.96C114.391 117.535 115.865 122.265 117.948 126.654C121.863 134.897 127.298 140.772 134.567 144.613C136.773 145.779 140.399 145.456 142.631 144.47C145.046 143.403 147.287 141.084 148.083 138.829C150.014 133.356 147.796 128.151 142.296 125.244C142.262 125.226 142.234 125.2 142.213 125.168C142.193 125.136 142.18 125.099 142.178 125.062L142.153 125.044C141.893 124.849 141.644 124.638 141.407 124.415C141.163 124.183 140.905 123.967 140.634 123.768C140.62 123.758 140.607 123.746 140.595 123.733L140.481 123.605C140.416 123.536 140.351 123.462 140.291 123.394C139.803 122.819 139.32 122.208 138.856 121.554C138.853 121.551 138.85 121.547 138.848 121.542C138.809 121.538 138.772 121.523 138.741 121.499C138.709 121.475 138.685 121.444 138.67 121.407C138.67 121.407 138.67 121.407 138.67 121.396C138.48 120.98 138.265 120.576 138.024 120.187C137.859 119.908 137.689 119.612 137.542 119.324C136.862 117.986 136.214 116.537 135.559 114.894C134.11 111.255 132.915 107.46 131.759 103.79C130.747 100.577 129.701 97.2552 128.489 94.0553C119.851 71.2373 106.833 62.2297 97.4343 58.6919C96.234 58.2501 94.9641 58.0281 93.6854 58.0364Z" fill="#242426"/>
<path d="M138.599 120.665C138.025 119.322 138.232 119.946 138.599 120.665V120.665Z" fill="#FC328E"/>
<path d="M138.599 120.887C138.557 120.888 138.517 120.876 138.482 120.855C138.446 120.833 138.418 120.802 138.399 120.765C137.957 119.891 137.986 119.848 138.056 119.746C138.079 119.713 138.11 119.686 138.146 119.669C138.183 119.652 138.223 119.645 138.263 119.65C138.406 119.664 138.406 119.664 138.804 120.575C138.819 120.609 138.825 120.647 138.822 120.684C138.819 120.721 138.807 120.757 138.787 120.788C138.766 120.819 138.738 120.844 138.705 120.862C138.673 120.879 138.636 120.888 138.599 120.887Z" fill="#242426"/>
<path d="M96.7544 51.8786C96.6599 51.994 96.5395 52.084 96.4035 52.1409C96.2675 52.1979 96.1201 52.22 95.974 52.2054C95.8278 52.1909 95.6874 52.1401 95.5646 52.0574C95.4418 51.9747 95.3405 51.8625 95.2693 51.7307C95.0612 51.3685 94.7937 51.046 94.4786 50.7774C93.752 50.1496 92.8782 49.7584 92.078 49.2062C91.2778 48.6539 90.58 47.8486 90.5128 46.8756C90.4424 45.827 91.1274 44.9033 91.854 44.1539C92.5806 43.4044 93.4192 42.7306 93.8033 41.7576C94.3538 40.3638 93.8353 38.8386 93.1631 37.458C93.1027 37.3302 93.0717 37.1898 93.0725 37.0478C93.0733 36.9057 93.1059 36.7657 93.1678 36.6386C93.2296 36.5116 93.3191 36.4008 93.4293 36.3149C93.5395 36.229 93.6674 36.1702 93.8033 36.1432C94.1347 36.0842 94.4749 36.1026 94.7985 36.1971C95.1221 36.2915 95.4209 36.4596 95.6726 36.6888C96.4536 37.435 96.7352 38.6019 96.7128 39.6965C96.6904 40.7912 96.3928 41.8628 96.2135 42.9409C96.0343 44.0191 95.9574 45.163 96.3447 46.1853C96.732 47.2076 97.5034 47.9768 97.7627 49.0057C98.0156 50.0871 97.4618 50.9976 96.7544 51.8786Z" fill="#FDDC68"/>
<path d="M96.1057 52.6536H95.982C95.7485 52.6334 95.5232 52.5566 95.3254 52.4298C95.1276 52.303 94.9631 52.13 94.846 51.9254C94.6644 51.6151 94.4309 51.3387 94.1559 51.1086C93.7269 50.7686 93.2695 50.4668 92.7887 50.2065C92.4372 50.0032 92.0856 49.7998 91.7536 49.5702C90.6566 48.8092 90.0121 47.8481 89.9438 46.8607C89.8754 45.8734 90.3669 44.827 91.4574 43.7478C91.5876 43.6166 91.7243 43.4854 91.8578 43.3575C92.4697 42.7736 93.0426 42.2225 93.3258 41.5271C93.8401 40.2511 93.251 38.7881 92.6748 37.6565C92.5717 37.4534 92.5179 37.2285 92.5179 37.0004C92.5179 36.7723 92.5717 36.5474 92.6748 36.3444C92.7723 36.145 92.9162 35.9723 93.0942 35.841C93.2721 35.7096 93.4789 35.6235 93.6969 35.5899C94.1088 35.5164 94.5319 35.5372 94.9348 35.6508C95.3376 35.7644 95.71 35.9678 96.0243 36.246C96.8414 37.0135 97.2743 38.2141 97.2418 39.6344C97.2036 40.4461 97.0947 41.2529 96.9162 42.0454C96.8544 42.3439 96.7958 42.6457 96.7437 42.9474C96.5191 44.23 96.5517 45.1452 96.8479 45.8996C97.0216 46.2988 97.2296 46.6818 97.4696 47.0444C97.8373 47.5718 98.1206 48.154 98.3094 48.7698C98.6545 50.0983 97.9839 51.1578 97.2092 52.1058C97.0791 52.2761 96.912 52.4141 96.7207 52.509C96.5294 52.604 96.319 52.6535 96.1057 52.6536ZM94.1526 36.5806C94.0512 36.5811 93.95 36.5899 93.8499 36.6068C93.7927 36.6173 93.7388 36.6411 93.6924 36.6764C93.646 36.7118 93.6086 36.7576 93.583 36.8102C93.5534 36.8709 93.538 36.9377 93.538 37.0053C93.538 37.073 93.5534 37.1398 93.583 37.2005C94.2503 38.5126 94.9306 40.2577 94.2633 41.9142C93.8987 42.8162 93.2152 43.469 92.5544 44.1021L92.167 44.476C91.3011 45.3354 90.9073 46.0931 90.9561 46.7918C91.018 47.6972 91.8415 48.3959 92.3265 48.7304C92.652 48.9469 92.9775 49.1372 93.303 49.3241C93.836 49.6143 94.3425 49.9513 94.8167 50.3312C95.1829 50.6366 95.4935 51.0041 95.7346 51.4169C95.7673 51.4775 95.8139 51.5294 95.8705 51.5682C95.9272 51.607 95.9922 51.6316 96.0601 51.64C96.1219 51.6436 96.1836 51.6324 96.2401 51.6073C96.2967 51.5822 96.3466 51.5439 96.3857 51.4956C97.0823 50.6428 97.5022 49.9015 97.2873 49.065C97.1223 48.5513 96.8808 48.0657 96.5712 47.625C96.2934 47.2116 96.0558 46.7722 95.8616 46.3129C95.3928 45.0927 95.5361 43.797 95.7021 42.7998C95.7574 42.4915 95.8193 42.1799 95.8811 41.8715C96.0555 41.1393 96.1644 40.3928 96.2066 39.641C96.2327 38.5323 95.9072 37.581 95.3115 37.0168C94.9943 36.7292 94.5826 36.5703 94.1559 36.5707L94.1526 36.5806Z" fill="#242426"/>
<path d="M99.247 52.2844L93.7185 53.1014C93.572 53.1231 93.4707 53.2597 93.4923 53.4066L94.0374 57.1098C94.059 57.2567 94.1954 57.3582 94.342 57.3366L99.8704 56.5196C100.017 56.4979 100.118 56.3613 100.097 56.2144L99.5516 52.5111C99.53 52.3643 99.3936 52.2628 99.247 52.2844Z" fill="#242426"/>
<path d="M93.983 55.6868C94.1231 54.6074 93.3634 53.6186 92.2861 53.4782C91.2088 53.3378 90.2219 54.099 90.0818 55.1784C89.9417 56.2578 90.7014 57.2466 91.7787 57.387C92.856 57.5274 93.8429 56.7662 93.983 55.6868Z" fill="#242426"/>
<path d="M132.189 158.512C128.677 145.641 119.624 133.576 107.576 127.561C103.52 125.535 99.1614 124 94.5645 124.056C89.6347 124.117 85.1856 125.88 81.3291 128.866C75.0421 133.732 71.2472 141.035 68.2831 148.257C65.2156 155.732 63.4624 168.239 62.5944 176.246C62.3074 178.833 64.0061 182.157 65.7666 183.922C67.6461 185.804 70.7293 187.229 73.428 187.101C84.1455 186.619 84.2689 170.957 86.1283 163.371C87.2 159 89.4611 146.561 95.4095 146.086C102.325 145.536 108.364 155.535 110.157 161.081C110.032 160.663 109.913 160.243 109.787 159.826C111.813 166.462 116.45 174.514 124.622 171.864C130.215 170.052 133.793 164.381 132.189 158.512Z" fill="#F24EB6"/>
<path d="M73.1015 187.322C70.5448 187.322 67.5749 186.043 65.6051 184.071C63.8174 182.278 62.0756 178.916 62.3683 176.213C63.321 167.437 65.0828 155.448 68.0728 148.163C70.6854 141.796 74.5377 133.829 81.1891 128.68C85.2752 125.517 89.7731 123.883 94.5579 123.822C98.568 123.768 102.75 124.893 107.671 127.35C119.265 133.146 128.74 145.053 132.403 158.447C133.969 164.175 130.581 170.16 124.69 172.07C122.121 172.904 119.716 172.75 117.541 171.615C113.565 169.539 111.228 164.686 110.021 161.253C109.985 161.225 109.959 161.187 109.944 161.144C109.162 158.727 107.277 154.734 104.532 151.434C102.448 148.929 99.172 146.006 95.4274 146.302C90.2021 146.719 87.8233 157.025 86.6755 161.972C86.5521 162.512 86.4388 162.998 86.3384 163.409C85.9854 164.847 85.6927 166.593 85.3828 168.44C84.0772 176.233 82.2881 186.907 73.4315 187.305C73.3239 187.32 73.212 187.322 73.1015 187.322ZM94.8133 124.268H94.5637C89.8778 124.327 85.4689 125.93 81.4617 129.032C74.8935 134.116 71.0771 142.016 68.486 148.331C65.5161 155.572 63.7614 167.515 62.8188 176.261C62.5505 178.733 64.189 182.011 65.9279 183.755C67.8691 185.698 70.9494 186.979 73.4215 186.868C81.918 186.486 83.6009 176.445 84.9524 168.377C85.2638 166.517 85.5579 164.762 85.9151 163.308C86.0155 162.897 86.1275 162.413 86.2523 161.871C87.4962 156.434 89.8377 146.297 95.3872 145.854C102.099 145.321 107.712 154.256 109.855 159.607C109.888 159.618 109.919 159.637 109.944 159.662C109.969 159.687 109.987 159.717 109.999 159.751C111.003 163.045 113.35 168.918 117.746 171.213C119.811 172.292 122.1 172.435 124.551 171.645C130.215 169.809 133.474 164.063 131.971 158.563C128.344 145.292 118.957 133.485 107.473 127.752C102.72 125.383 98.6871 124.268 94.8133 124.268Z" fill="#242426"/>
<path d="M90.3813 58.077C91.1302 57.2821 90.5793 55.8316 89.5764 55.4003C88.5735 54.9691 87.3999 55.3026 86.4544 55.8474C83.5505 57.5164 82.0067 61.2597 82.902 64.4942C83.024 64.9398 83.4171 65.4401 83.8633 65.5623C84.3095 65.6845 84.7815 65.6169 85.2335 65.5292C87.0197 65.1785 88.8059 64.4583 90.0097 63.0854C91.2134 61.7126 91.2837 59.6598 90.3813 58.077Z" fill="#F24EB6"/>
<path d="M84.3925 65.8615C84.193 65.8635 83.9941 65.8384 83.8014 65.7868C83.2519 65.643 82.8157 65.0436 82.6837 64.562C81.7641 61.2154 83.3337 57.3959 86.3466 55.6622C87.0467 55.2583 88.4112 54.6559 89.668 55.2036C89.9838 55.3504 90.2609 55.5692 90.4772 55.8425C90.6935 56.1159 90.8428 56.4362 90.9133 56.7777C90.969 57.0063 90.9743 57.2443 90.929 57.4752C90.8837 57.706 90.7887 57.9242 90.6508 58.1147C91.5489 59.8153 91.3681 61.9054 90.1773 63.251C89.0826 64.493 87.4341 65.3368 85.2763 65.7595C84.9856 65.8219 84.6897 65.8561 84.3925 65.8615ZM88.5733 55.4351C87.7799 55.4351 87.0166 55.7887 86.5647 56.0504C83.7296 57.6791 82.2476 61.2873 83.1213 64.4427C83.2203 64.8035 83.5517 65.2535 83.9262 65.3555C84.3408 65.4691 84.7985 65.3958 85.1959 65.3181C87.2548 64.9156 88.8186 64.1192 89.8473 62.952C90.9392 61.7114 91.0812 59.7563 90.1917 58.1966C90.168 58.1549 90.1583 58.1067 90.164 58.0591C90.1697 58.0115 90.1904 57.967 90.2232 57.9321C90.3504 57.7898 90.4402 57.6181 90.4845 57.4324C90.5288 57.2467 90.5263 57.0528 90.4772 56.8683C90.4203 56.5976 90.3019 56.3437 90.1312 56.1263C89.9605 55.9089 89.7421 55.7339 89.493 55.6148C89.202 55.4922 88.8889 55.431 88.5733 55.4351Z" fill="#242426"/>
<path d="M103.758 83.6359L94.7986 84.9598C94.7241 84.9702 94.6486 84.9508 94.5882 84.9059C94.5278 84.861 94.4874 84.7942 94.4757 84.7198L90.3308 56.5642C90.3205 56.4894 90.34 56.4135 90.3852 56.353C90.4303 56.2924 90.4973 56.2521 90.5718 56.2408L99.5317 54.9168C99.6062 54.9064 99.6818 54.9258 99.7421 54.9707C99.8025 55.0156 99.8429 55.0824 99.8546 55.1568L103.999 83.3124C104.01 83.3873 103.99 83.4631 103.945 83.5237C103.9 83.5842 103.833 83.6245 103.758 83.6359Z" fill="#67518B"/>
<path d="M95.2553 85.0428C95.0029 85.0425 94.759 84.9516 94.5679 84.7864C94.3768 84.6213 94.2511 84.393 94.2137 84.1429L90.2452 57.1776C90.2054 56.9011 90.2764 56.6201 90.4428 56.3959C90.6093 56.1718 90.8575 56.0228 91.1333 55.9816L98.9052 54.8316C99.1811 54.7908 99.4618 54.8615 99.6857 55.0281C99.9095 55.1947 100.058 55.4436 100.099 55.72L104.069 82.6824C104.109 82.9591 104.038 83.2403 103.871 83.4647C103.705 83.689 103.457 83.8383 103.181 83.8799L95.4088 85.0299C95.358 85.0377 95.3067 85.0421 95.2553 85.0428ZM99.0588 55.1565C99.0237 55.1565 98.9886 55.1594 98.954 55.1651L91.1821 56.3151C91.0888 56.3288 90.9991 56.3608 90.9182 56.4093C90.8372 56.4578 90.7666 56.5218 90.7104 56.5976C90.6542 56.6734 90.6134 56.7596 90.5905 56.8513C90.5675 56.9429 90.5628 57.0382 90.5766 57.1316L94.5451 84.0969C94.5588 84.1904 94.5907 84.2803 94.6391 84.3614C94.6875 84.4425 94.7513 84.5132 94.827 84.5695C94.9027 84.6259 94.9888 84.6667 95.0802 84.6897C95.1717 84.7127 95.2668 84.7174 95.36 84.7036L103.132 83.5536C103.225 83.5398 103.315 83.5078 103.396 83.4593C103.477 83.4109 103.547 83.3469 103.604 83.2711C103.66 83.1952 103.701 83.109 103.724 83.0174C103.747 82.9258 103.751 82.8305 103.737 82.737L99.7675 55.7703C99.7424 55.5998 99.657 55.4441 99.527 55.3314C99.3969 55.2188 99.2307 55.1567 99.0588 55.1565Z" fill="#242426"/>
<path d="M190.728 188.01C190.423 182.116 185.296 177.472 178.364 177.333L78.4118 175.312L50.0543 174.737C43.5836 174.606 37.3957 179.741 37.6898 185.413C37.9954 191.307 43.1202 195.949 50.0543 196.09L150.005 198.111L178.364 198.686C184.834 198.816 191.022 193.681 190.728 188.01Z" fill="#F24EB6"/>
<path d="M178.612 198.912H178.365L50.0553 196.324C43.0839 196.18 37.7912 191.603 37.4713 185.435C37.3464 183.03 38.3565 180.59 40.3149 178.565C41.586 177.27 43.1043 176.245 44.7792 175.551C46.4541 174.857 48.2514 174.507 50.0639 174.524L178.373 177.112C185.345 177.255 190.636 181.832 190.956 187.999C191.081 190.404 190.072 192.845 188.114 194.869C186.874 196.137 185.396 197.147 183.765 197.841C182.135 198.534 180.383 198.898 178.612 198.912ZM49.8157 174.96C48.1037 174.973 46.4112 175.325 44.8354 175.996C43.2597 176.667 41.8317 177.643 40.6334 178.868C38.7683 180.803 37.797 183.123 37.916 185.403C38.2231 191.33 43.3321 195.732 50.0625 195.867L178.372 198.455C181.847 198.537 185.359 197.065 187.791 194.549C189.656 192.614 190.627 190.292 190.517 188.014C190.208 182.085 185.101 177.685 178.371 177.549L50.0524 174.962L49.8157 174.96Z" fill="#242426"/>
<path d="M104.242 73.9917C108.082 70.8838 108.91 66.0177 105.82 62.0602C102.313 57.5564 95.603 55.8227 90.2917 57.7015C85.7522 59.3073 82.227 63.7723 82.1955 68.5966C82.1696 72.6217 85.3146 77.8731 89.6561 78.4093C93.9746 78.9368 100.193 77.2693 104.242 73.9917Z" fill="#F24EB6"/>
<path d="M91.382 78.7237C90.7999 78.7252 90.2182 78.6911 89.6403 78.6216C85.2959 78.084 81.9573 72.7852 81.9845 68.5847C82.0161 63.8293 85.4838 59.1602 90.2314 57.4797C95.7393 55.5319 102.523 57.4352 106.013 61.9117C109.089 65.862 108.424 70.9006 104.395 74.1609C100.96 76.9411 95.7479 78.7237 91.382 78.7237ZM94.7953 57.1606C93.2921 57.1544 91.7988 57.4043 90.3792 57.8995C85.8038 59.5182 82.4609 64.0119 82.4307 68.5847C82.4049 72.6012 85.5728 77.6656 89.6948 78.1745C94.2285 78.7352 100.295 76.8994 104.11 73.8102C107.939 70.7123 108.574 65.931 105.656 62.1848C103.177 59.0021 98.9775 57.1635 94.7953 57.1635V57.1606Z" fill="#242426"/>
<path d="M116.536 177.468C128.146 187.201 149.977 191.987 160.245 194.267C178.273 198.276 200.23 196.68 218.012 191.688C235.794 186.695 256.606 179.2 265.113 162.773C273.619 146.346 274.714 120.954 263.263 106.436C251.813 91.9184 223.137 86.6757 207.617 96.704C211.376 89.42 207.043 78.2446 200.679 73.0824C194.314 67.9202 185.65 66.497 177.481 65.9809C164.158 65.1386 153.225 69.7487 143.291 78.6845C135.49 85.7011 127.401 99.2973 125.97 109.704C124.538 120.11 126.063 126.748 127.079 137.202C120.206 141.702 114.898 147.029 111.226 154.387C106.355 164.166 109.645 171.69 116.536 177.468Z" fill="#F24EB6"/>
<path d="M182.602 196.757C174.69 196.757 167.071 196.004 160.203 194.477L159.903 194.411C149.529 192.111 127.939 187.306 116.399 177.631C108.448 170.961 106.639 163.103 111.031 154.272C114.461 147.385 119.496 141.918 126.847 137.077C126.628 134.833 126.387 132.78 126.153 130.793C125.303 123.538 124.631 117.806 125.752 109.661C127.276 98.5823 135.796 85.1198 143.146 78.5057C153.582 69.1186 164.817 64.9454 177.499 65.7447C184.83 66.2119 194.102 67.4453 200.826 72.9079C207.056 77.9652 211.341 88.7582 208.152 96.1083C223.818 86.6206 251.944 91.7152 263.445 106.296C268.797 113.081 271.798 122.878 271.9 133.885C271.992 144.046 269.593 154.612 265.319 162.875C256.91 179.127 236.719 186.669 218.079 191.901C206.524 195.108 194.592 196.741 182.602 196.757ZM116.686 177.289C128.143 186.893 149.659 191.676 160 193.974L160.299 194.04C177.241 197.808 198.795 196.844 217.958 191.464C236.507 186.256 256.591 178.762 264.921 162.662C275.439 142.334 272.253 118.177 263.095 106.566C257.729 99.764 247.95 94.5342 236.934 92.5777C225.706 90.5839 215.066 92.1536 207.745 96.8903C207.703 96.9171 207.654 96.9294 207.605 96.9252C207.556 96.9211 207.51 96.9007 207.473 96.8673C207.437 96.834 207.413 96.7897 207.404 96.7412C207.395 96.6926 207.402 96.6425 207.425 96.5985C211.122 89.4353 206.842 78.3662 200.546 73.2544C193.921 67.8765 184.736 66.6604 177.475 66.2018C164.751 65.3997 153.933 69.4161 143.447 78.8521C136.154 85.413 127.708 98.7577 126.197 109.735C125.084 117.825 125.752 123.535 126.6 130.756C126.837 132.784 127.084 134.882 127.308 137.182C127.312 137.222 127.304 137.263 127.286 137.3C127.269 137.337 127.241 137.368 127.207 137.39C119.857 142.206 114.844 147.638 111.425 154.487C107.143 163.093 108.91 170.768 116.686 177.289Z" fill="#242426"/>
<path d="M174.257 150.319C173.482 150.194 172.643 150.227 172.058 150.524C171.472 150.822 171.224 151.426 171.627 151.907C171.955 152.297 172.6 152.521 173.216 152.666C173.873 152.822 174.542 152.92 175.216 152.961C175.746 152.992 176.302 152.982 176.722 152.801C177.142 152.62 177.363 152.297 177.326 151.952C177.229 151.003 175.395 150.503 174.257 150.319Z" fill="#242426"/>
<path d="M168.605 117.727C167.283 117.277 165.968 116.783 164.677 116.252C160.868 114.752 157.169 112.988 153.606 110.972C152.015 110.085 150.45 109.141 148.915 108.156C146.62 109.377 144.724 111.235 143.454 113.506C142.184 115.777 141.593 118.367 141.752 120.965C141.911 123.564 142.813 126.062 144.35 128.161C145.887 130.26 147.995 131.871 150.421 132.803C152.663 133.668 155.095 133.919 157.467 133.531C159.838 133.143 162.063 132.13 163.915 130.595C165.766 129.06 167.176 127.06 168 124.798C168.825 122.537 169.033 120.096 168.605 117.727Z" fill="white"/>
<path d="M155.274 133.925C152.203 133.921 149.222 132.89 146.804 130.995C144.386 129.1 142.668 126.45 141.925 123.465C141.182 120.48 141.456 117.332 142.702 114.521C143.949 111.71 146.097 109.396 148.806 107.948C148.841 107.93 148.88 107.921 148.919 107.922C148.958 107.924 148.997 107.936 149.03 107.957C150.693 109.018 152.223 109.937 153.71 110.767C157.266 112.777 160.958 114.536 164.757 116.033C166.048 116.564 167.364 117.058 168.675 117.505C168.712 117.518 168.745 117.541 168.77 117.571C168.796 117.601 168.812 117.638 168.819 117.676C169.173 119.662 169.089 121.702 168.572 123.652C168.056 125.602 167.119 127.415 165.828 128.964C164.536 130.512 162.922 131.758 161.099 132.615C159.276 133.471 157.287 133.917 155.274 133.92V133.925ZM148.901 108.404C146.749 109.577 144.962 111.32 143.735 113.444C142.508 115.567 141.889 117.988 141.945 120.441C142.002 122.895 142.732 125.285 144.055 127.349C145.379 129.414 147.245 131.073 149.448 132.144C151.651 133.216 154.106 133.659 156.543 133.424C158.981 133.189 161.307 132.286 163.266 130.813C165.224 129.34 166.74 127.355 167.647 125.076C168.553 122.796 168.815 120.311 168.404 117.892C167.126 117.461 165.842 116.97 164.588 116.454C160.771 114.949 157.063 113.179 153.492 111.157C152.031 110.342 150.528 109.441 148.901 108.404Z" fill="#242426"/>
<path d="M165.383 123.965C164.912 125.195 164.196 126.317 163.277 127.26C162.359 128.204 161.259 128.95 160.044 129.454C158.828 129.957 157.523 130.207 156.208 130.189C154.893 130.17 153.595 129.883 152.395 129.346C147.947 127.359 145.64 122.22 147.118 117.565C147.619 115.98 148.519 114.551 149.729 113.413C150.94 112.276 152.422 111.47 154.033 111.07C157.596 113.086 161.295 114.85 165.104 116.35C165.66 117.535 165.972 118.821 166.02 120.129C166.068 121.438 165.851 122.742 165.383 123.965Z" fill="#242426"/>
<path d="M172.792 119.053C171.388 118.64 169.983 118.19 168.602 117.719L172.792 119.053Z" fill="white"/>
<path d="M172.794 119.29C172.773 119.29 172.751 119.287 172.731 119.282C171.338 118.871 169.924 118.419 168.531 117.943C168.503 117.934 168.476 117.92 168.453 117.9C168.431 117.881 168.412 117.857 168.398 117.83C168.385 117.803 168.377 117.774 168.375 117.744C168.374 117.714 168.378 117.684 168.388 117.656C168.397 117.627 168.412 117.601 168.431 117.578C168.451 117.556 168.475 117.537 168.501 117.524C168.528 117.51 168.557 117.503 168.587 117.501C168.617 117.498 168.647 117.502 168.675 117.512C170.061 117.988 171.467 118.435 172.856 118.843C172.902 118.862 172.941 118.896 172.966 118.94C172.991 118.983 173.001 119.034 172.993 119.084C172.986 119.134 172.962 119.179 172.926 119.214C172.889 119.249 172.842 119.27 172.793 119.275L172.794 119.29Z" fill="#242426"/>
<path d="M148.91 108.158C148.128 107.65 147.349 107.131 146.578 106.594L148.91 108.158Z" fill="white"/>
<path d="M148.908 108.375C148.865 108.375 148.823 108.363 148.788 108.339C147.909 107.764 147.143 107.255 146.449 106.771C146.403 106.736 146.371 106.685 146.362 106.627C146.353 106.57 146.366 106.511 146.399 106.463C146.433 106.416 146.483 106.383 146.54 106.371C146.597 106.36 146.656 106.371 146.704 106.403C147.394 106.886 148.156 107.396 149.03 107.964C149.071 107.99 149.102 108.029 149.119 108.074C149.136 108.12 149.138 108.169 149.124 108.216C149.111 108.262 149.082 108.303 149.043 108.332C149.004 108.361 148.957 108.376 148.908 108.375Z" fill="#242426"/>
<path d="M229.245 148.149C227.924 147.699 226.607 147.205 225.316 146.674C221.508 145.174 217.809 143.41 214.247 141.394C212.655 140.507 211.09 139.563 209.555 138.578C206.668 140.103 204.436 142.63 203.277 145.687C202.523 147.642 202.232 149.746 202.425 151.834C202.619 153.921 203.293 155.935 204.393 157.718C205.494 159.5 206.992 161.003 208.769 162.109C210.547 163.215 212.556 163.893 214.639 164.091C216.722 164.288 218.822 164 220.775 163.248C222.728 162.496 224.481 161.301 225.896 159.757C227.311 158.212 228.349 156.361 228.93 154.347C229.512 152.333 229.619 150.212 229.245 148.149Z" fill="white"/>
<path d="M215.902 164.355C212.831 164.354 209.848 163.325 207.428 161.43C205.009 159.534 203.291 156.883 202.549 153.897C201.806 150.911 202.082 147.762 203.332 144.951C204.582 142.14 206.734 139.829 209.446 138.385C209.481 138.366 209.52 138.358 209.559 138.36C209.599 138.361 209.637 138.373 209.67 138.395C211.331 139.454 212.862 140.373 214.35 141.204C217.906 143.214 221.597 144.974 225.397 146.471C226.689 147 228.003 147.496 229.317 147.943C229.354 147.956 229.386 147.979 229.412 148.009C229.437 148.039 229.454 148.075 229.46 148.114C229.82 150.102 229.739 152.146 229.224 154.1C228.708 156.053 227.769 157.869 226.475 159.419C225.181 160.969 223.562 162.215 221.734 163.069C219.905 163.922 217.912 164.362 215.895 164.358L215.902 164.355ZM209.548 138.842C207.397 140.014 205.61 141.758 204.384 143.881C203.157 146.004 202.538 148.425 202.595 150.878C202.652 153.33 203.382 155.72 204.705 157.784C206.029 159.848 207.894 161.507 210.097 162.578C212.299 163.65 214.754 164.093 217.191 163.858C219.628 163.623 221.954 162.72 223.912 161.248C225.871 159.775 227.387 157.791 228.293 155.512C229.2 153.233 229.462 150.748 229.052 148.33C227.77 147.89 226.486 147.407 225.234 146.892C221.418 145.388 217.71 143.62 214.139 141.6C212.677 140.778 211.168 139.877 209.548 138.842Z" fill="#242426"/>
<path d="M226.032 154.386C225.56 155.617 224.844 156.738 223.926 157.681C223.008 158.625 221.908 159.371 220.693 159.875C219.477 160.378 218.172 160.629 216.857 160.61C215.542 160.591 214.245 160.305 213.044 159.767C208.597 157.78 206.288 152.64 207.766 147.979C208.268 146.394 209.167 144.965 210.379 143.827C211.59 142.69 213.072 141.884 214.683 141.484C218.246 143.5 221.945 145.264 225.753 146.764C226.31 147.95 226.622 149.237 226.67 150.547C226.718 151.857 226.501 153.163 226.032 154.386Z" fill="#242426"/>
<path d="M233.439 149.498C232.035 149.086 230.632 148.636 229.25 148.164L233.439 149.498Z" fill="white"/>
<path d="M233.443 149.711C233.422 149.711 233.401 149.708 233.38 149.701C231.981 149.29 230.57 148.839 229.182 148.364C229.155 148.355 229.129 148.34 229.107 148.321C229.085 148.301 229.067 148.278 229.054 148.251C229.041 148.225 229.034 148.197 229.032 148.167C229.03 148.138 229.034 148.109 229.043 148.081C229.053 148.053 229.067 148.028 229.087 148.006C229.106 147.984 229.129 147.966 229.156 147.953C229.182 147.94 229.21 147.932 229.24 147.93C229.269 147.928 229.298 147.932 229.326 147.942C230.707 148.415 232.113 148.863 233.507 149.273C233.553 149.292 233.592 149.325 233.617 149.369C233.642 149.413 233.652 149.463 233.644 149.513C233.637 149.563 233.613 149.609 233.577 149.643C233.54 149.678 233.493 149.699 233.443 149.704V149.711Z" fill="#242426"/>
<path d="M209.559 138.58C208.776 138.072 207.998 137.553 207.227 137.016L209.559 138.58Z" fill="white"/>
<path d="M209.566 138.813C209.523 138.813 209.48 138.8 209.444 138.777C208.564 138.202 207.8 137.691 207.105 137.208C207.059 137.174 207.028 137.122 207.018 137.065C207.009 137.007 207.023 136.949 207.056 136.901C207.089 136.853 207.139 136.82 207.196 136.809C207.253 136.798 207.312 136.809 207.361 136.84C208.051 137.322 208.811 137.832 209.686 138.402C209.727 138.427 209.758 138.466 209.775 138.511C209.793 138.557 209.794 138.606 209.781 138.653C209.767 138.699 209.739 138.74 209.7 138.769C209.661 138.798 209.614 138.813 209.566 138.813Z" fill="#242426"/>
<path d="M228.049 182.476C229.613 183.747 235.699 189.376 237.142 190.778C236.127 191.037 235.105 191.276 234.078 191.497C232.366 191.857 230.645 192.132 228.913 192.414L227.926 192.53C226.837 192.652 225.747 192.759 224.656 192.852C208.319 194.26 191.835 193.15 175.691 196.617C170.722 197.685 165.763 199.185 161.693 202.336C155.831 206.874 153.072 213.961 154.767 221.254C156.03 226.685 162.531 230.415 167.844 228.693C172.479 227.189 175.407 223.26 175.571 218.69C175.858 218.585 176.102 218.495 176.145 218.482C179.854 217.332 183.643 216.81 187.438 216.094L188.634 215.961C189.607 215.858 190.581 215.766 191.555 215.686C193.511 215.522 195.469 215.398 197.429 215.301C201.484 215.097 205.544 215 209.603 214.887C218.264 214.644 226.871 214.181 235.442 212.822C239.395 212.217 243.293 211.298 247.1 210.074C252.197 208.406 257.379 206.029 260.299 201.255C267.329 189.73 256.077 178.556 247.66 171.713C245.401 169.875 243.167 168.594 240.144 168.594" fill="#F24EB6"/>
<path d="M165.104 229.328C163.212 229.31 161.357 228.803 159.718 227.857C157.058 226.35 155.178 223.958 154.553 221.293C152.858 214.011 155.478 206.853 161.558 202.147C165.863 198.813 171.097 197.364 175.646 196.386C186.082 194.145 196.834 193.807 207.232 193.481C212.943 193.301 218.853 193.116 224.639 192.619C225.764 192.522 226.862 192.413 227.902 192.297C228.174 192.266 228.446 192.233 228.717 192.202L229.233 192.124C230.812 191.868 232.437 191.602 234.027 191.262C234.906 191.076 235.802 190.871 236.692 190.649C234.892 188.924 229.385 183.842 227.903 182.638C227.881 182.619 227.862 182.596 227.848 182.57C227.834 182.543 227.826 182.515 227.823 182.485C227.82 182.456 227.823 182.426 227.832 182.398C227.841 182.37 227.855 182.344 227.874 182.321C227.893 182.298 227.916 182.279 227.942 182.265C227.968 182.252 227.997 182.243 228.026 182.24C228.055 182.238 228.085 182.241 228.113 182.25C228.141 182.258 228.168 182.272 228.19 182.291C229.768 183.575 235.902 189.249 237.298 190.606C237.327 190.634 237.347 190.669 237.358 190.707C237.369 190.745 237.369 190.786 237.358 190.825C237.348 190.863 237.328 190.898 237.3 190.926C237.271 190.954 237.236 190.974 237.198 190.984C236.173 191.246 235.139 191.486 234.124 191.703C232.526 192.039 230.89 192.305 229.311 192.565L228.776 192.646L227.958 192.742C226.913 192.859 225.806 192.967 224.682 193.064C218.882 193.565 212.969 193.75 207.252 193.927C196.873 194.252 186.143 194.589 175.745 196.822C171.244 197.789 166.074 199.221 161.837 202.499C155.898 207.099 153.34 214.084 154.993 221.187C155.584 223.731 157.386 226.018 159.937 227.463C162.465 228.901 165.325 229.26 167.782 228.469C172.29 227.007 175.191 223.254 175.356 218.673C175.357 218.628 175.372 218.585 175.397 218.549C175.423 218.513 175.458 218.486 175.5 218.47L175.769 218.371L176.081 218.257C178.94 217.364 181.897 216.844 184.758 216.341C185.638 216.186 186.518 216.03 187.399 215.865L187.873 215.81L188.612 215.728C189.547 215.629 190.504 215.539 191.539 215.452C193.362 215.3 195.285 215.174 197.421 215.067C200.917 214.89 204.474 214.793 207.915 214.699L209.6 214.652C217.291 214.436 226.371 214.024 235.41 212.59C239.35 211.99 243.237 211.073 247.031 209.85C251.538 208.377 257.097 206.052 260.104 201.127C265.327 192.575 261.209 183.007 247.516 171.875C245.559 170.281 243.311 168.799 240.144 168.799C240.088 168.794 240.036 168.769 239.998 168.727C239.96 168.686 239.939 168.631 239.939 168.575C239.939 168.519 239.96 168.464 239.998 168.423C240.036 168.382 240.088 168.356 240.144 168.352C243.444 168.352 245.777 169.875 247.802 171.521C261.698 182.819 265.849 192.577 260.489 201.353C257.406 206.403 251.753 208.771 247.173 210.266C243.356 211.496 239.446 212.417 235.482 213.022C226.417 214.459 217.319 214.873 209.613 215.089L207.929 215.136C204.486 215.23 200.936 215.327 197.445 215.503C195.316 215.611 193.397 215.736 191.579 215.888C190.547 215.974 189.593 216.063 188.662 216.163C188.417 216.188 188.171 216.217 187.927 216.245L187.467 216.296C186.606 216.46 185.719 216.615 184.837 216.771C181.992 217.272 179.049 217.79 176.217 218.674C176.188 218.683 176.074 218.724 175.93 218.78L175.798 218.829C175.57 223.465 172.498 227.403 167.923 228.892C167.012 229.184 166.06 229.331 165.104 229.328Z" fill="#242426"/>
<path d="M179.387 147.818C176.002 147.818 172.616 146.734 169.926 144.636C169.901 144.619 169.879 144.597 169.863 144.571C169.846 144.545 169.836 144.516 169.831 144.485C169.826 144.455 169.828 144.424 169.835 144.394C169.843 144.365 169.857 144.337 169.876 144.312C169.895 144.288 169.918 144.268 169.945 144.254C169.972 144.239 170.002 144.23 170.033 144.227C170.063 144.225 170.094 144.228 170.123 144.238C170.152 144.248 170.179 144.264 170.202 144.284C174.586 147.704 180.885 148.351 185.87 145.89C185.924 145.864 185.985 145.86 186.041 145.879C186.097 145.898 186.143 145.939 186.169 145.992C186.195 146.045 186.199 146.107 186.18 146.163C186.161 146.219 186.12 146.265 186.067 146.291C183.986 147.304 181.701 147.827 179.387 147.818Z" fill="#242426"/>
<path d="M188.146 151.384C188.093 151.383 188.042 151.363 188.002 151.327C185.364 148.935 184.928 144.499 187.051 141.639C187.088 141.597 187.14 141.57 187.195 141.564C187.251 141.558 187.308 141.573 187.353 141.606C187.398 141.64 187.429 141.689 187.44 141.745C187.45 141.8 187.439 141.858 187.41 141.905C185.417 144.589 185.831 148.752 188.301 150.995C188.334 151.025 188.358 151.064 188.369 151.107C188.38 151.151 188.377 151.197 188.362 151.239C188.346 151.281 188.318 151.317 188.282 151.343C188.245 151.369 188.202 151.384 188.157 151.384H188.146Z" fill="#242426"/>
<path d="M210.062 169.995C216.005 163.106 225.11 159.07 234.195 159.307L210.062 169.995Z" fill="#F24EB6"/>
<path d="M210.068 170.207C210.025 170.207 209.983 170.195 209.947 170.172C209.911 170.149 209.882 170.115 209.864 170.076C209.846 170.037 209.84 169.994 209.846 169.951C209.852 169.909 209.87 169.869 209.898 169.836C215.917 162.859 225.016 158.838 234.205 159.072C234.235 159.073 234.263 159.079 234.29 159.091C234.317 159.103 234.341 159.12 234.361 159.142C234.381 159.163 234.397 159.188 234.407 159.215C234.418 159.242 234.423 159.272 234.422 159.301C234.422 159.33 234.417 159.36 234.405 159.387C234.393 159.414 234.377 159.439 234.355 159.459C234.334 159.48 234.308 159.496 234.281 159.506C234.253 159.516 234.223 159.521 234.194 159.519C225.124 159.285 216.169 163.257 210.234 170.13C210.213 170.154 210.188 170.173 210.159 170.186C210.13 170.2 210.099 170.207 210.068 170.207Z" fill="#242426"/>
<path d="M232.05 171.995C232.007 171.995 231.964 171.982 231.928 171.958C231.892 171.934 231.864 171.9 231.846 171.86C231.829 171.82 231.824 171.776 231.831 171.733C231.839 171.69 231.858 171.651 231.888 171.619C232.954 170.489 234.329 169.7 235.84 169.349C235.87 169.338 235.901 169.334 235.933 169.337C235.964 169.339 235.994 169.348 236.021 169.363C236.049 169.378 236.073 169.399 236.092 169.424C236.111 169.449 236.124 169.478 236.131 169.508C236.139 169.539 236.139 169.57 236.133 169.601C236.127 169.632 236.115 169.661 236.097 169.687C236.079 169.712 236.056 169.734 236.029 169.75C236.002 169.766 235.972 169.776 235.941 169.78C234.514 170.11 233.217 170.855 232.211 171.921C232.19 171.943 232.166 171.962 232.138 171.975C232.11 171.987 232.08 171.994 232.05 171.995Z" fill="#242426"/>
<path d="M47.3327 174.66C47.1548 174.827 46.9152 174.836 46.4718 175.008C42.3441 176.598 41.3283 181.151 41.7128 185.144C41.9224 187.249 42.4492 189.31 43.2753 191.257C43.632 192.149 44.0751 193.004 44.5981 193.81C45.007 194.414 46.4905 195.579 46.2681 196.357C46.1031 196.932 44.2207 197.53 43.7085 197.742C41.4316 198.673 39.005 199.183 36.5464 199.248C34.8433 199.294 31.3139 199.366 30.2221 197.714C29.7271 196.965 30.004 194.757 29.948 193.908C29.5597 188.013 29.1718 182.119 28.7845 176.226L26.8906 147.425L26.9337 147.415C29.4889 146.84 32.2823 146.93 34.8132 147.559C40.1935 148.9 43.9338 153.021 45.7875 158.15C47.3657 162.506 47.743 167.246 47.6727 171.847C47.6627 172.521 47.8162 173.546 47.5952 174.18C47.547 174.359 47.457 174.524 47.3327 174.66Z" fill="white"/>
<path d="M35.4379 199.501C33.5727 199.501 30.9902 199.3 30.0347 197.848C29.6416 197.254 29.6832 195.95 29.7162 194.904C29.7276 194.507 29.7391 194.164 29.7162 193.932L26.6645 147.444C26.6613 147.391 26.6764 147.34 26.7074 147.297C26.7383 147.255 26.783 147.225 26.8338 147.212L26.8811 147.201C29.379 146.637 32.2155 146.689 34.864 147.344C39.9257 148.607 43.9817 152.52 45.9932 158.077C47.3734 161.892 47.9774 166.271 47.8913 171.853C47.8913 172.047 47.9 172.27 47.9114 172.504C47.9401 173.096 47.9731 173.768 47.8024 174.257C47.7448 174.47 47.6348 174.665 47.4824 174.824C47.3256 174.954 47.1394 175.044 46.9401 175.086C46.8296 175.119 46.7005 175.159 46.5441 175.22C41.5599 177.137 41.7493 183.286 41.9272 185.124C42.1326 187.207 42.6537 189.246 43.4724 191.171C43.8266 192.051 44.2643 192.894 44.7794 193.691C44.9438 193.907 45.1226 194.112 45.3146 194.304C45.9502 194.982 46.6718 195.742 46.4781 196.425C46.3217 196.967 45.2371 197.412 44.1381 197.821C43.9946 197.875 43.8741 197.92 43.7894 197.954C41.4869 198.895 39.0339 199.411 36.5484 199.478C36.2342 199.491 35.8554 199.501 35.4379 199.501ZM27.125 147.606L30.1695 193.905C30.1853 194.158 30.1695 194.51 30.1624 194.92C30.1322 195.851 30.0921 197.126 30.4077 197.602C31.445 199.172 35.0161 199.077 36.5397 199.04C38.9711 198.974 41.3707 198.469 43.623 197.549C43.7091 197.513 43.8354 197.467 43.9846 197.405C44.5212 197.205 45.9458 196.675 46.052 196.304C46.1754 195.873 45.4925 195.145 44.9918 194.615C44.7856 194.405 44.5939 194.181 44.4179 193.945C43.8865 193.125 43.4349 192.255 43.0692 191.349C42.2329 189.381 41.7007 187.296 41.491 185.167C40.9989 180.048 42.831 176.174 46.392 174.803C46.5613 174.738 46.7005 174.696 46.8225 174.659C46.9551 174.635 47.0803 174.58 47.1883 174.5C47.2854 174.388 47.3552 174.255 47.3921 174.111C47.5355 173.705 47.504 173.079 47.4767 172.53C47.4652 172.286 47.4538 172.053 47.4566 171.852C47.5413 166.323 46.9459 161.996 45.5915 158.234C43.6015 152.738 39.7607 149.026 34.7722 147.783C32.2685 147.151 29.6553 147.09 27.125 147.605V147.606Z" fill="#242426"/>
<path d="M26.5473 196.687L23.0695 149.032C22.8873 146.525 24.4053 144.352 26.4454 144.203C28.4856 144.059 30.3034 145.981 30.4871 148.488L32.1944 171.894L33.9649 196.144C34.1471 198.65 32.6291 200.823 30.5889 200.973C28.5488 201.122 26.731 199.193 26.5473 196.687Z" fill="#FFA9D8"/>
<path d="M30.3603 201.202C29.3904 201.202 28.4564 200.77 27.706 199.977C26.8839 199.076 26.3952 197.919 26.3215 196.701L22.8437 149.045C22.6515 146.41 24.2584 144.136 26.4306 143.978C27.4779 143.9 28.5124 144.331 29.3258 145.194C30.148 146.094 30.6367 147.25 30.7104 148.469L34.1882 196.124C34.3804 198.761 32.7735 201.035 30.6013 201.193C30.521 201.199 30.4406 201.202 30.3603 201.202ZM26.6644 144.416C26.5956 144.416 26.5209 144.416 26.4564 144.416C24.5353 144.56 23.1135 146.616 23.2871 149.005L26.7677 196.675C26.8325 197.791 27.2783 198.851 28.0303 199.676C28.7476 200.438 29.6472 200.826 30.5698 200.755C32.4909 200.611 33.9127 198.555 33.7391 196.165L30.2599 148.502C30.1953 147.385 29.749 146.324 28.9959 145.499C28.3316 144.796 27.5109 144.416 26.6644 144.416Z" fill="#242426"/>
<path d="M130.252 149.095C130.214 149.095 130.176 149.085 130.142 149.066C130.109 149.048 130.081 149.02 130.061 148.987C128.08 145.667 127.03 141.818 126.852 137.217C126.851 137.187 126.855 137.158 126.865 137.131C126.876 137.103 126.891 137.078 126.911 137.056C126.931 137.035 126.955 137.017 126.982 137.005C127.009 136.993 127.038 136.986 127.067 136.985C127.097 136.982 127.126 136.986 127.155 136.995C127.183 137.005 127.209 137.02 127.23 137.041C127.252 137.061 127.269 137.085 127.281 137.113C127.293 137.14 127.298 137.17 127.298 137.2C127.473 141.723 128.502 145.504 130.444 148.757C130.459 148.782 130.469 148.81 130.474 148.839C130.478 148.869 130.476 148.898 130.469 148.927C130.462 148.955 130.449 148.982 130.432 149.005C130.414 149.029 130.392 149.049 130.367 149.064C130.332 149.084 130.292 149.095 130.252 149.095Z" fill="#242426"/>
<path d="M201.567 103.13C201.528 103.13 201.489 103.12 201.456 103.1C201.422 103.081 201.394 103.053 201.374 103.019C201.354 102.985 201.344 102.947 201.344 102.908C201.344 102.869 201.354 102.83 201.373 102.796C202.874 100.158 205.038 97.958 207.649 96.4152C207.674 96.3976 207.703 96.3854 207.733 96.3793C207.763 96.3733 207.794 96.3736 207.824 96.3802C207.854 96.3867 207.883 96.3995 207.908 96.4176C207.933 96.4357 207.954 96.4588 207.969 96.4854C207.985 96.512 207.995 96.5415 207.999 96.5722C208.002 96.6028 208 96.6339 207.991 96.6635C207.982 96.6931 207.967 96.7205 207.947 96.7441C207.928 96.7677 207.903 96.7869 207.875 96.8005C205.331 98.3039 203.223 100.447 201.761 103.018C201.741 103.052 201.713 103.081 201.679 103.1C201.645 103.12 201.606 103.13 201.567 103.13Z" fill="#242426"/>
<path d="M255.73 121.517C256.273 124.725 256.1 128.019 255.91 131.267C255.803 133.113 255.694 135.005 256.126 136.798C256.557 138.59 257.651 140.294 259.18 140.769C260.748 141.258 262.431 140.327 263.44 138.866C264.448 137.406 264.893 135.508 265.139 133.634C266.111 126.204 264.203 118.252 260.048 112.421C259.127 111.127 258.071 109.908 256.77 109.208C255.468 108.508 253.88 108.398 252.679 109.263C250.451 110.869 251.359 112.657 252.593 114.279C254.226 116.391 255.304 118.879 255.73 121.517Z" fill="white"/>
<path d="M244.14 105.82C244.483 106.417 244.989 106.905 245.6 107.224C246.21 107.543 246.898 107.681 247.584 107.621C248.266 107.539 248.908 107.256 249.43 106.808C249.952 106.361 250.329 105.768 250.515 105.105C250.675 104.436 250.626 103.733 250.373 103.093C250.121 102.453 249.678 101.906 249.104 101.527C246.422 99.8509 242.449 102.791 244.14 105.82Z" fill="white"/>
<path d="M140.668 128.633C140.629 128.633 140.591 128.623 140.557 128.604C140.523 128.584 140.495 128.556 140.476 128.523C139.196 126.317 138.626 123.77 138.841 121.229C138.844 121.199 138.852 121.171 138.865 121.144C138.878 121.118 138.897 121.095 138.919 121.076C138.942 121.057 138.968 121.042 138.996 121.034C139.024 121.025 139.053 121.022 139.082 121.024C139.141 121.03 139.196 121.058 139.234 121.104C139.272 121.149 139.291 121.208 139.286 121.267C139.08 123.717 139.631 126.171 140.864 128.297C140.884 128.331 140.895 128.369 140.895 128.409C140.896 128.448 140.886 128.487 140.866 128.521C140.846 128.555 140.818 128.584 140.784 128.603C140.75 128.623 140.711 128.633 140.672 128.633H140.668Z" fill="#242426"/>
<path d="M124.693 146.225H124.673C124.614 146.22 124.56 146.192 124.522 146.147C124.483 146.101 124.465 146.043 124.469 145.984C124.727 142.944 125.55 139.979 126.896 137.242C126.909 137.216 126.926 137.192 126.948 137.173C126.97 137.154 126.996 137.139 127.024 137.129C127.051 137.12 127.081 137.116 127.11 137.118C127.139 137.12 127.168 137.127 127.194 137.14C127.22 137.153 127.244 137.171 127.263 137.193C127.282 137.215 127.297 137.241 127.307 137.268C127.316 137.296 127.32 137.326 127.318 137.355C127.316 137.384 127.309 137.413 127.296 137.439C125.975 140.127 125.167 143.038 124.914 146.023C124.909 146.078 124.884 146.129 124.843 146.167C124.802 146.204 124.749 146.225 124.693 146.225Z" fill="#242426"/>
<path d="M106.211 153.261C109.353 146.765 118.079 141.414 122.347 139.586C122.511 139.804 122.761 140.017 122.921 140.233C116.621 144.704 111.834 151.266 109.406 158.607C108.911 158.249 108.689 157.72 108.471 157.151C107.806 155.418 107.362 154.699 106.211 153.261Z" fill="#242426"/>
<path d="M176.251 196.121C173.812 196.861 171.341 198.325 168.79 198.302C163.852 198.259 167.912 198.413 162.65 198.352C147.585 196.353 126.614 185.558 114.615 176.214C114.615 176.089 113.766 176.188 113.766 176.07C114.144 176.033 114.583 175.983 114.962 175.945C123.149 182.26 132.49 187.065 142.46 189.782C153.546 192.803 164.808 195.09 176.251 196.121Z" fill="#242426"/>
<path d="M42.3769 179.023C42.5893 186 46.7443 192.722 52.882 196.022C50.5621 196.249 48.2407 196.216 45.9724 195.677C42.0312 191.301 40.7471 184.687 42.3769 179.023Z" fill="#242426"/>
<path d="M63.1052 171.984L84.2502 172.769C84.0723 173.294 83.9633 174.782 83.9217 175.332C76.8155 175.304 69.7006 175.248 62.6016 174.928C62.9861 174.247 63.2113 172.758 63.1052 171.984Z" fill="#242426"/>
<path d="M33.8242 191.539C33.9381 194.492 35.2088 197.281 37.3609 199.302C36.0708 199.3 34.7819 199.227 33.5 199.082C33.8228 196.51 34.0682 194.114 33.8242 191.539Z" fill="#242426"/>
<path d="M120.854 132.67C120.461 120.255 122.862 110.201 129.063 99.4453C125.974 105.525 125.763 110.227 125.587 117.045C125.41 123.863 126.234 130.667 127.06 137.438C126.562 137.671 126.096 137.767 125.598 137.999C123.779 136.378 122.152 134.731 120.854 132.67Z" fill="#242426"/>
<path d="M227.859 182.539C228.822 184.254 229.592 186.07 230.155 187.954C231.09 187.503 232.058 187.123 233.05 186.819C231.321 185.279 229.585 184.079 227.859 182.539Z" fill="#242426"/>
<path d="M279.63 146.413C271.827 148.109 272.158 149.698 271.422 161.076C271.419 161.122 271.399 161.165 271.367 161.197C271.334 161.229 271.291 161.248 271.245 161.25C271.199 161.252 271.154 161.237 271.119 161.208C271.083 161.179 271.059 161.138 271.052 161.093C269.256 149.797 269.904 148.177 262.039 146.982C261.996 146.975 261.958 146.954 261.929 146.921C261.901 146.888 261.884 146.847 261.883 146.804C261.882 146.76 261.895 146.718 261.922 146.684C261.948 146.649 261.986 146.625 262.028 146.616C269.798 144.921 269.058 143.345 270.124 131.953C270.129 131.908 270.151 131.866 270.185 131.836C270.22 131.806 270.263 131.789 270.309 131.789C270.354 131.789 270.398 131.806 270.432 131.836C270.466 131.866 270.488 131.908 270.494 131.953C271.952 143.255 271.724 144.86 279.619 146.055C279.659 146.064 279.694 146.087 279.72 146.118C279.746 146.15 279.76 146.189 279.762 146.23C279.763 146.27 279.751 146.31 279.727 146.344C279.703 146.377 279.669 146.401 279.63 146.413Z" fill="#FDDC68"/>
<path d="M271.24 161.471C271.142 161.472 271.047 161.437 270.974 161.373C270.9 161.31 270.851 161.221 270.838 161.124C270.651 159.954 270.491 158.886 270.346 157.913C269.089 149.533 268.897 148.245 262.01 147.199C261.916 147.184 261.83 147.137 261.766 147.065C261.703 146.994 261.667 146.902 261.664 146.807C261.661 146.711 261.692 146.617 261.751 146.542C261.809 146.467 261.892 146.414 261.986 146.394C268.789 144.91 268.901 143.612 269.62 135.171C269.704 134.189 269.795 133.114 269.907 131.934C269.915 131.833 269.961 131.739 270.035 131.67C270.109 131.602 270.206 131.563 270.307 131.563C270.408 131.559 270.507 131.593 270.584 131.659C270.661 131.726 270.709 131.818 270.72 131.919L270.94 133.636C272.186 143.461 272.346 144.723 279.657 145.829C279.751 145.843 279.838 145.891 279.901 145.962C279.964 146.034 280.001 146.125 280.004 146.221C280.007 146.316 279.976 146.41 279.918 146.485C279.859 146.561 279.776 146.613 279.683 146.634C272.458 148.205 272.377 149.475 271.759 159.359L271.65 161.084C271.645 161.185 271.602 161.28 271.53 161.351C271.458 161.422 271.362 161.463 271.261 161.466L271.24 161.471ZM262.277 146.792C269.293 147.886 269.529 149.462 270.786 157.85C270.918 158.729 271.062 159.685 271.225 160.725L271.314 159.335C271.918 149.683 272.032 147.873 279.392 146.243C271.943 145.093 271.714 143.289 270.496 133.695L270.32 132.31C270.222 133.361 270.141 134.323 270.064 135.211C269.344 143.664 269.209 145.251 262.277 146.792Z" fill="#242426"/>
<path d="M50.2311 255.093C43.3774 256.582 43.6687 257.978 43.023 267.965C43.0217 268.006 43.005 268.045 42.9762 268.074C42.9473 268.104 42.9085 268.121 42.8675 268.123C42.8264 268.125 42.7861 268.111 42.7546 268.085C42.7231 268.059 42.7026 268.021 42.6974 267.98C41.1192 258.061 41.693 256.637 34.7819 255.587C34.7437 255.582 34.7085 255.564 34.6827 255.535C34.6568 255.507 34.6419 255.47 34.6407 255.431C34.6395 255.393 34.652 255.355 34.6761 255.325C34.7001 255.295 34.7341 255.274 34.7719 255.267C41.5969 253.778 40.9412 252.392 41.8824 242.392C41.8877 242.353 41.907 242.317 41.9368 242.291C41.9666 242.264 42.0049 242.25 42.0445 242.25C42.0842 242.25 42.1225 242.264 42.1523 242.291C42.1821 242.317 42.2014 242.353 42.2067 242.392C43.4879 252.318 43.287 253.729 50.2211 254.778C50.2563 254.786 50.288 254.805 50.3111 254.833C50.3341 254.861 50.3473 254.895 50.3484 254.932C50.3496 254.968 50.3387 255.003 50.3174 255.032C50.2962 255.062 50.2658 255.083 50.2311 255.093Z" fill="#FDDC68"/>
<path d="M42.8571 268.336C42.7649 268.337 42.6755 268.305 42.6055 268.245C42.5355 268.185 42.4898 268.101 42.4768 268.01C42.3133 266.98 42.1727 266.043 42.0464 265.188C40.9474 257.848 40.7781 256.719 34.7508 255.803C34.6615 255.79 34.5796 255.746 34.5195 255.678C34.4595 255.61 34.425 255.524 34.4221 255.433C34.4192 255.343 34.448 255.254 34.5037 255.183C34.5593 255.112 34.6381 255.062 34.7264 255.043C40.682 253.749 40.7796 252.599 41.4108 245.21C41.484 244.348 41.5644 243.403 41.6619 242.367C41.6698 242.271 41.7131 242.183 41.7832 242.118C41.8533 242.053 41.9452 242.016 42.0407 242.016C42.1363 242.012 42.2301 242.044 42.3027 242.106C42.3752 242.169 42.4211 242.257 42.4309 242.352L42.6232 243.86C43.7165 252.471 43.8556 253.578 50.256 254.546C50.3453 254.559 50.4272 254.603 50.4872 254.671C50.5473 254.739 50.5818 254.825 50.5847 254.916C50.5876 255.006 50.5587 255.095 50.5031 255.166C50.4475 255.237 50.3687 255.287 50.2804 255.306C43.9546 256.682 43.8857 257.794 43.3434 266.458L43.2473 267.974C43.2423 268.069 43.2017 268.16 43.1334 268.227C43.0651 268.294 42.9741 268.333 42.8786 268.336H42.8571ZM35.131 255.41C41.1741 256.374 41.3879 257.794 42.4855 265.122C42.5916 265.825 42.705 266.584 42.8327 267.403L42.8943 266.43C43.4223 257.997 43.5242 256.367 49.87 254.938C43.4467 253.919 43.2416 252.299 42.177 243.916L42.0536 242.948C41.9776 243.774 41.9101 244.539 41.8527 245.248C41.2229 252.631 41.1009 254.063 35.131 255.41Z" fill="#242426"/>
<path d="M220.825 13.0772C213.971 14.5665 214.262 15.9624 213.617 25.9489C213.615 25.9901 213.599 26.0293 213.57 26.0586C213.541 26.088 213.502 26.1054 213.461 26.1074C213.42 26.1094 213.38 26.0958 213.348 26.0694C213.317 26.043 213.296 26.0056 213.291 25.9647C211.713 16.0457 212.287 14.6211 205.376 13.5717C205.337 13.5668 205.302 13.5484 205.276 13.5198C205.251 13.4912 205.236 13.4543 205.234 13.4157C205.233 13.3772 205.246 13.3394 205.27 13.3093C205.294 13.2791 205.328 13.2585 205.366 13.2512C212.191 11.7619 211.535 10.3761 212.476 0.376602C212.481 0.337238 212.501 0.301114 212.531 0.274955C212.56 0.248796 212.599 0.234375 212.638 0.234375C212.678 0.234375 212.716 0.248796 212.746 0.274955C212.776 0.301114 212.795 0.337238 212.8 0.376602C214.082 10.3028 213.881 11.713 220.815 12.7624C220.85 12.7701 220.882 12.7894 220.905 12.8172C220.928 12.8451 220.941 12.8798 220.942 12.9159C220.943 12.952 220.932 12.9875 220.911 13.0168C220.89 13.046 220.86 13.0673 220.825 13.0772Z" fill="#FDDC68"/>
<path d="M213.451 26.3203C213.359 26.3215 213.269 26.2891 213.199 26.229C213.129 26.169 213.084 26.0854 213.071 25.994C212.907 24.9647 212.766 24.0274 212.64 23.1721C211.541 15.832 211.372 14.7035 205.345 13.7878C205.255 13.7745 205.173 13.7301 205.113 13.6625C205.053 13.5949 205.019 13.5083 205.016 13.4178C205.013 13.3273 205.042 13.2387 205.097 13.1673C205.153 13.096 205.232 13.0465 205.32 13.0274C211.276 11.7336 211.373 10.5836 212.005 3.19462C212.078 2.3321 212.158 1.38765 212.256 0.351181C212.264 0.255838 212.307 0.166926 212.377 0.10199C212.447 0.0370545 212.539 0.000813627 212.634 0.000422008C212.73 -0.00412464 212.824 0.0282045 212.896 0.0907682C212.969 0.153332 213.015 0.241381 213.025 0.336809L213.217 1.84478C214.31 10.4556 214.449 11.5625 220.85 12.53C220.939 12.5434 221.021 12.5877 221.081 12.6553C221.141 12.723 221.176 12.8095 221.178 12.9C221.181 12.9905 221.152 13.0791 221.097 13.1505C221.041 13.2218 220.962 13.2714 220.874 13.2904C214.548 14.6662 214.479 15.7788 213.937 24.4429L213.841 25.958C213.836 26.0537 213.795 26.144 213.727 26.2111C213.659 26.2782 213.568 26.3172 213.472 26.3203H213.451ZM205.725 13.3939C211.768 14.3585 211.982 15.7788 213.079 23.1059C213.185 23.8089 213.299 24.5679 213.426 25.3873L213.488 24.4141C214.016 15.9815 214.118 14.3514 220.464 12.9224C214.04 11.9032 213.835 10.2831 212.771 1.90084L212.647 0.931943C212.571 1.75853 212.504 2.5233 212.446 3.232C211.817 10.6152 211.695 12.047 205.725 13.3939Z" fill="#242426"/>
<path d="M117.926 67.233C112.89 68.3269 113.104 69.3519 112.629 76.692C112.627 76.7208 112.613 76.7476 112.592 76.7676C112.572 76.7875 112.544 76.7993 112.515 76.8007C112.486 76.8021 112.458 76.793 112.435 76.7752C112.412 76.7573 112.397 76.7319 112.391 76.7035C111.232 69.4123 111.648 68.3658 106.573 67.5952C106.545 67.5918 106.519 67.5783 106.5 67.5572C106.481 67.5362 106.47 67.5089 106.469 67.4804C106.468 67.4519 106.477 67.4241 106.495 67.4019C106.513 67.3797 106.538 67.3647 106.566 67.3595C111.588 66.2655 111.098 65.2492 111.791 57.8991C111.796 57.8706 111.81 57.8446 111.832 57.8259C111.854 57.8072 111.882 57.7969 111.911 57.7969C111.939 57.7969 111.967 57.8072 111.989 57.8259C112.011 57.8446 112.025 57.8706 112.03 57.8991C112.971 65.1931 112.823 66.2368 117.912 67.0001C117.938 67.0054 117.962 67.0191 117.979 67.0391C117.996 67.0592 118.007 67.0845 118.008 67.111C118.01 67.1376 118.003 67.1639 117.988 67.186C117.973 67.208 117.952 67.2245 117.926 67.233Z" fill="#FDDC68"/>
<path d="M112.506 77.021C112.425 77.0217 112.346 76.993 112.284 76.9402C112.222 76.8875 112.18 76.8141 112.168 76.7335C112.047 75.9774 111.944 75.2873 111.851 74.6577C111.029 69.1821 110.924 68.4763 106.542 67.8122C106.463 67.8002 106.39 67.7608 106.337 67.7007C106.283 67.6406 106.253 67.5637 106.25 67.4833C106.248 67.4029 106.273 67.3242 106.323 67.2608C106.372 67.1975 106.442 67.1535 106.521 67.1365C110.855 66.1906 110.915 65.4819 111.386 59.9646C111.44 59.3307 111.499 58.6364 111.571 57.873C111.578 57.7886 111.616 57.7099 111.679 57.6525C111.741 57.595 111.822 57.5629 111.907 57.5625C111.991 57.5617 112.072 57.5915 112.136 57.6466C112.2 57.7016 112.242 57.778 112.254 57.8615L112.397 58.9699C113.196 65.2591 113.298 66.0655 117.957 66.7699C118.036 66.7825 118.108 66.8222 118.161 66.8822C118.214 66.9423 118.244 67.0189 118.247 67.099C118.25 67.1791 118.225 67.2576 118.176 67.3211C118.127 67.3846 118.058 67.4291 117.98 67.447C113.376 68.4533 113.324 69.2597 112.93 75.5878L112.858 76.7019C112.854 76.7867 112.817 76.8669 112.757 76.9263C112.696 76.9857 112.615 77.02 112.531 77.0224L112.506 77.021ZM107.13 67.4499C111.33 68.1687 111.515 69.4093 112.295 74.5858C112.35 74.9452 112.407 75.3257 112.468 75.7272L112.479 75.5547C112.861 69.4509 112.941 68.1672 117.357 67.1221C112.884 66.3617 112.722 65.0866 111.953 59.0216L111.93 58.8491C111.894 59.2531 111.862 59.634 111.831 59.9991C111.382 65.216 111.275 66.4609 107.13 67.4499Z" fill="#242426"/>
</svg>
