<svg width="436" height="366" viewBox="0 0 436 366" fill="none" xmlns="http://www.w3.org/2000/svg">
<path d="M373.871 351.011L432.296 100.46C434.104 92.7047 429.284 84.952 421.528 83.1436L79.0154 3.27481C71.2603 1.46644 63.5076 6.28723 61.6992 14.0423L3.27463 264.593C1.46626 272.348 6.28703 280.101 14.0421 281.909L356.555 361.778C364.31 363.586 372.063 358.766 373.871 351.011Z" fill="white"/>
<path d="M416.515 87.3714L81.6522 9.2866C74.6128 7.64513 67.5756 12.021 65.9341 19.0604L9.294 261.958C7.65253 268.998 12.0284 276.035 19.0678 277.676L353.93 355.761C360.97 357.403 368.007 353.027 369.648 345.987L426.288 103.089C427.93 96.0501 423.554 89.0129 416.515 87.3714Z" fill="#949AF6"/>
<path d="M149.916 89.7235L149.832 90.0842C149.367 93.5923 151.511 96.8523 154.764 97.6109L150.702 115.029L117.493 107.285L121.556 89.8583L126.228 90.9477C128.752 81.6386 130.962 72.1629 132.921 62.6266L128.169 61.5185L132.231 44.1006L166.103 51.9992L162.042 69.417L160.707 69.1058C157.787 68.4248 154.736 70.1889 153.666 73.2714C153.477 73.701 153.309 74.0421 153.309 74.0421L174.587 79.0037C175.011 75.2972 172.805 71.9268 169.468 71.1487L168.893 71.0147L172.955 53.5968L206.823 61.4943L202.761 78.9122L198.009 77.8041C195.549 87.2236 193.339 96.6993 191.483 106.164L196.153 107.253L192.091 124.671L156.961 116.479L161.023 99.0613L162.693 99.4507C166.03 100.229 169.588 98.2027 170.779 94.5793L149.916 89.7235Z" fill="white"/>
<path d="M201.376 93.521C205.059 77.7274 221.842 64.9864 248.125 71.115C300.86 83.4121 286.295 146.627 233.393 134.292C207.109 128.169 197.692 109.321 201.376 93.521ZM243.528 94.9763C218.747 89.1977 215.906 101.382 240.687 107.161C264.467 112.713 266.725 100.392 243.527 94.9828L243.528 94.9763Z" fill="white"/>
<path d="M331.012 124.615L333.329 114.679C333.46 114.149 333.4 113.591 333.161 113.1C332.921 112.61 332.517 112.219 332.019 111.996C331.719 111.892 331.398 111.859 331.083 111.901C330.768 111.943 330.467 112.058 330.205 112.238C329.904 112.41 329.643 112.645 329.441 112.926C329.239 113.207 329.099 113.529 329.032 113.869C327.807 120.625 324.581 137.477 324.581 137.477L334.517 139.794L330.518 156.942L287.298 146.863L291.295 129.722L300.151 131.787C300.151 131.787 304.669 115.808 306.597 109.024C306.717 108.652 306.755 108.258 306.709 107.87C306.663 107.481 306.533 107.107 306.33 106.773C305.957 106.115 305.329 105.779 304.58 105.605C303.201 105.472 301.907 106.12 301.548 107.658L299.508 116.406L282.57 112.456L289.688 80.8086L355.437 96.1403L347.966 128.559L331.012 124.615Z" fill="white"/>
<path d="M131.272 169.673L131.187 170.036C130.723 173.542 132.866 176.804 136.119 177.563L132.057 194.98L98.8478 187.237L102.91 169.816L107.582 170.906C110.106 161.597 112.315 152.121 114.274 142.587L109.522 141.479L113.582 124.067L147.455 131.966L143.393 149.384L142.058 149.073C139.138 148.392 136.088 150.154 135.018 153.236C134.829 153.668 134.66 154.009 134.66 154.009L155.938 158.971C156.363 155.262 154.156 151.894 150.819 151.115L150.245 150.981L154.306 133.564L188.174 141.461L184.113 158.879L179.361 157.771C176.901 167.188 174.691 176.664 172.835 186.129L177.505 187.218L173.443 204.636L138.314 196.444L142.377 179.019L144.046 179.409C147.383 180.187 150.941 178.163 152.133 174.537L131.272 169.673Z" fill="white"/>
<path d="M182.722 173.487C186.405 157.693 203.186 144.961 229.468 151.09C282.204 163.387 267.639 226.6 214.737 214.264C188.456 208.129 179.039 189.281 182.722 173.487ZM224.874 174.942C200.093 169.164 197.252 181.348 222.033 187.127C245.814 192.672 248.072 180.352 224.874 174.942Z" fill="white"/>
<path d="M312.363 204.58L314.68 194.644C314.811 194.114 314.751 193.555 314.512 193.065C314.272 192.574 313.869 192.183 313.371 191.959C313.07 191.855 312.749 191.822 312.434 191.865C312.119 191.907 311.818 192.023 311.556 192.203C311.255 192.375 310.995 192.609 310.792 192.89C310.59 193.171 310.451 193.492 310.383 193.831C309.159 200.588 305.932 217.442 305.932 217.442L315.868 219.759L311.87 236.904L268.649 226.826L272.647 209.682L281.503 211.748C281.503 211.748 286.022 195.766 287.949 188.985C288.069 188.613 288.108 188.219 288.061 187.83C288.015 187.442 287.886 187.068 287.681 186.734C287.309 186.076 286.682 185.738 285.932 185.563C284.553 185.433 283.259 186.079 282.9 187.616L280.859 196.371L263.921 192.421L271.023 160.779L336.773 176.111L329.302 208.53L312.363 204.58Z" fill="white"/>
<path d="M112.911 248.414L112.826 248.775C112.361 252.283 114.505 255.543 117.758 256.301L113.697 273.717L80.4874 265.973L84.549 248.555L89.221 249.645C91.7448 240.336 93.9543 230.86 95.9139 221.324L91.162 220.216L95.2231 202.8L129.096 210.698L125.034 228.116L123.699 227.805C120.779 227.124 117.728 228.888 116.659 231.968C116.469 232.4 116.301 232.741 116.301 232.741L137.579 237.703C138.004 233.996 135.797 230.626 132.46 229.848L131.885 229.714L135.947 212.296L169.815 220.194L165.753 237.611L161.002 236.503C158.541 245.923 156.331 255.399 154.475 264.863L159.145 265.952L155.084 283.368L119.954 275.176L124.016 257.758L125.685 258.148C129.023 258.926 132.581 256.9 133.772 253.276L112.911 248.414Z" fill="white"/>
<path d="M164.36 252.232C168.043 236.438 184.827 223.697 211.109 229.826C263.844 242.123 249.279 305.338 196.377 293.003C170.095 286.872 160.678 268.026 164.36 252.232ZM206.513 253.687C181.732 247.909 178.89 260.093 203.672 265.872C227.453 271.417 229.711 259.097 206.513 253.687Z" fill="white"/>
<path d="M294.006 283.316L296.323 273.38C296.454 272.85 296.394 272.291 296.155 271.801C295.915 271.31 295.511 270.92 295.013 270.697C294.713 270.592 294.392 270.559 294.077 270.601C293.762 270.643 293.461 270.759 293.198 270.939C292.898 271.111 292.637 271.345 292.435 271.626C292.233 271.908 292.093 272.229 292.026 272.569C290.801 279.325 287.575 296.177 287.575 296.177L297.511 298.494L293.511 315.649L250.29 305.57L254.288 288.422L263.144 290.487C263.144 290.487 267.663 274.508 269.591 267.725C269.711 267.352 269.749 266.959 269.703 266.57C269.657 266.182 269.527 265.808 269.323 265.474C268.951 264.815 268.323 264.48 267.573 264.305C266.195 264.173 264.9 264.82 264.542 266.356L262.5 275.113L245.562 271.163L252.68 239.516L318.429 254.847L310.958 287.266L294.006 283.316Z" fill="white"/>
<path d="M359.24 293.521C355.754 283.077 345.087 279.767 335.217 278.317C320.762 276.192 306.285 274.185 291.821 272.117L206.233 259.903C195.434 258.359 192.508 275.086 203.352 276.635L279.292 287.483L316.671 292.809C322.806 293.686 329.004 294.375 335.107 295.461C337.949 295.969 342.317 296.389 343.345 299.475C346.787 309.852 362.694 303.898 359.24 293.521Z" fill="#E74E39"/>
<path d="M202.445 276.765C199.795 276.147 197.83 274.521 196.867 272.117C195.657 269.102 196.237 265.307 198.314 262.662C200.229 260.22 203.064 259.13 206.29 259.591L291.88 271.806C296.707 272.496 301.536 273.182 306.368 273.863C315.848 275.204 325.644 276.589 335.275 278.006C343.918 279.272 355.831 282.252 359.543 293.414C361.374 298.913 357.961 303.246 353.643 304.68C349.794 305.962 344.839 304.905 343.06 299.564C342.19 296.949 338.712 296.371 335.916 295.903C335.618 295.852 335.33 295.805 335.059 295.756C330.933 295.021 326.692 294.458 322.59 293.914C320.601 293.65 318.613 293.387 316.63 293.102L203.316 276.928C203.012 276.884 202.719 276.829 202.445 276.765ZM340.612 279.628C338.733 279.19 336.894 278.873 335.184 278.62C325.554 277.206 315.755 275.818 306.279 274.478C301.451 273.794 296.621 273.109 291.789 272.422L206.195 260.195C203.193 259.766 200.56 260.776 198.784 263.04C196.84 265.515 196.297 269.064 197.424 271.887C198.408 274.337 200.53 275.914 203.398 276.323L316.709 292.508C318.693 292.791 320.681 293.056 322.669 293.32C326.776 293.863 331.024 294.427 335.163 295.165L336.013 295.311C338.812 295.777 342.651 296.417 343.638 299.382C345.291 304.352 349.763 305.342 353.448 304.113C357.477 302.775 360.664 298.736 358.963 293.618C356.08 284.964 348.038 281.36 340.604 279.626L340.612 279.628Z" fill="#222224"/>
<path d="M105.182 204.563C101.625 212.98 93.5076 216.022 84.8272 215.929C81.4788 215.893 76.6959 215.885 75.0483 212.412C73.5633 209.287 74.8597 205.115 75.732 202.048C78.123 193.66 81.6812 185.257 78.2596 176.559C74.7158 167.545 66.4781 166.902 57.6576 167.673C47.8938 168.526 48.2563 180.576 58.083 179.718C62.1441 179.364 64.6564 180.339 64.4348 185.323C64.2087 190.424 61.5785 195.404 60.3497 200.312C58.0621 209.449 59.0654 220.177 67.0287 226.274C74.7732 232.207 86.461 232.07 95.5616 230.106C105.536 227.95 114.609 221.359 118.635 211.84C122.441 202.823 109.006 195.498 105.182 204.563Z" fill="#E74E39"/>
<path d="M76.0539 230.7C72.7967 229.94 69.6061 228.631 66.8371 226.501C59.811 221.121 57.2753 211.29 60.0455 200.221C60.4891 198.445 61.1268 196.629 61.7477 194.874C62.8446 191.753 63.9801 188.524 64.1209 185.302C64.2136 183.245 63.8313 181.837 62.9583 181C62.0294 180.1 60.527 179.805 58.1024 180.016C53.0512 180.455 50.4776 177.555 50.2288 174.657C49.9416 171.376 52.3904 167.818 57.6237 167.36C66.3341 166.602 74.8951 167.177 78.5359 176.438C81.5102 184.008 79.2558 191.409 77.0756 198.571C76.7152 199.756 76.3547 200.94 76.019 202.126L75.9089 202.51C75.0333 205.572 73.942 209.383 75.3152 212.274C76.8647 215.532 81.3926 215.579 84.7045 215.616L84.8251 215.617C94.673 215.722 101.798 211.751 104.892 204.438C105.938 201.967 107.809 200.445 110.16 200.153C112.927 199.808 116.053 201.247 117.922 203.724C118.812 204.877 119.374 206.25 119.549 207.696C119.723 209.143 119.504 210.61 118.914 211.942C115.062 221.048 106.138 228.115 95.6215 230.387C91.7138 231.245 83.698 232.482 76.0539 230.7ZM61.3889 179.536C62.1331 179.689 62.821 180.043 63.3774 180.56C64.3864 181.527 64.8373 183.089 64.731 185.333C64.5834 188.642 63.4244 191.913 62.3218 195.079C61.7082 196.821 61.0761 198.623 60.6306 200.378C57.9197 211.212 60.3757 220.799 67.2008 226.025C76.2823 232.982 90.0031 230.983 95.4831 229.799C105.796 227.567 114.565 220.638 118.341 211.712C119.856 208.146 118.414 205.412 117.422 204.101C115.683 201.792 112.78 200.45 110.228 200.77C108.722 200.956 106.672 201.788 105.443 204.685C102.246 212.241 94.9159 216.35 84.8037 216.236L84.6853 216.235C81.2142 216.198 76.4633 216.14 74.7493 212.552C73.2766 209.453 74.4493 205.351 75.305 202.356L75.4129 201.971C75.7513 200.784 76.1144 199.598 76.4716 198.408C78.6216 191.346 80.8453 184.046 77.9474 176.677C74.4689 167.783 66.1472 167.237 57.6841 167.98C52.8511 168.402 50.5848 171.636 50.8451 174.611C51.0777 177.296 53.4011 179.824 58.0557 179.415C59.401 179.301 60.5033 179.33 61.3889 179.536Z" fill="#222224"/>
<path d="M73.743 147.364C78.9585 133.465 90.5195 122.093 104.501 117.109C118.483 112.125 134.632 113.62 147.462 121.085C174.419 136.772 173.223 178.106 192.726 200.486C226.121 238.813 273.498 237.922 319 220.022C321.277 219.125 323.613 221.599 322.662 223.852C307.845 258.844 278.67 284.283 242.261 284.178C197.966 284.049 154.947 266.933 119.309 241.301C95.0256 223.835 60.6874 182.158 73.743 147.364Z" fill="#E74E39"/>
<path d="M201.093 279.538C172.964 272.979 144.832 260.043 119.133 241.547C108.253 233.72 92.8529 218.953 82.2649 200.984C74.1937 187.283 66.1137 166.84 73.4527 147.253C78.7173 133.222 90.283 121.849 104.396 116.818C118.51 111.788 134.667 113.285 147.613 120.82C163.236 129.91 169.544 147.797 175.644 165.09C180.108 177.746 184.723 190.836 192.945 200.28C229.955 242.752 281.852 234.298 318.877 219.732C319.448 219.512 320.072 219.469 320.668 219.608C321.264 219.747 321.805 220.062 322.221 220.511C322.671 220.95 322.98 221.515 323.106 222.132C323.231 222.748 323.169 223.388 322.926 223.969C315.37 241.822 304.236 256.844 290.732 267.414C276.405 278.628 259.64 284.532 242.246 284.48C228.733 284.442 214.912 282.761 201.093 279.538ZM133.417 115.854C123.93 113.642 113.83 114.11 104.608 117.396C90.6635 122.366 79.2351 133.609 74.0356 147.469C66.7699 166.829 74.7878 187.089 82.7926 200.675C93.3314 218.562 108.658 233.261 119.491 241.05C157.716 268.547 201.312 283.753 242.265 283.869C259.518 283.921 276.154 278.064 290.373 266.934C303.795 256.429 314.864 241.49 322.383 223.733C322.574 223.262 322.621 222.745 322.517 222.248C322.414 221.75 322.165 221.295 321.802 220.94C321.467 220.58 321.032 220.329 320.554 220.217C320.075 220.106 319.574 220.139 319.115 220.313C281.909 234.953 229.741 243.427 192.51 200.698C184.194 191.152 179.559 178.008 175.076 165.297C169.012 148.105 162.734 130.326 147.314 121.349C142.981 118.837 138.297 116.985 133.417 115.854Z" fill="#222224"/>
<path d="M237.629 238.634C224.854 245.562 206.356 254.115 199.101 258.698C190.912 263.873 177.471 276.884 186.337 287.252C190.608 292.252 199.041 294.917 204.921 297.411C211.927 300.384 219.139 302.849 226.39 305.135C234.027 307.542 241.726 309.747 249.367 312.146C252.832 313.234 256.298 314.34 259.73 315.562C259.816 315.582 262.908 316.945 263.652 317.297C259.795 325.254 269.92 335.176 276.557 327.675C281.12 322.522 282.456 315.983 279.166 309.65C276.311 304.149 270.475 301.397 264.932 299.394C250.23 294.078 234.966 290.448 220.245 285.175C216.84 283.955 213.462 282.659 210.132 281.245C209.127 280.82 208.107 280.318 207.108 279.786C206.75 279.593 206.445 279.314 206.219 278.975C205.993 278.636 205.854 278.247 205.814 277.842C205.773 277.437 205.833 277.028 205.987 276.651C206.142 276.274 206.386 275.941 206.699 275.681C217.109 266.987 235.571 258.391 246.792 252.303" fill="#E74E39"/>
<path d="M269.609 330.441C268.669 330.217 267.776 329.826 266.974 329.287C263.524 326.988 261.239 321.974 263.243 317.444C262.228 316.98 259.75 315.899 259.616 315.845C256.042 314.572 252.403 313.418 249.279 312.437C245.555 311.268 241.752 310.126 238.076 309.023C234.211 307.86 230.214 306.661 226.3 305.427C217.502 302.652 210.877 300.269 204.808 297.683C203.771 297.245 202.675 296.807 201.527 296.348C195.975 294.143 189.684 291.624 186.111 287.443C183.692 284.601 182.74 281.389 183.267 277.861C184.522 269.547 193.713 261.736 198.943 258.431C203.105 255.8 210.95 251.866 219.272 247.705C225.542 244.567 232.025 241.321 237.489 238.357L237.781 238.894C232.306 241.862 225.821 245.11 219.545 248.252C211.245 252.408 203.405 256.33 199.269 258.948C194.127 262.197 185.097 269.857 183.872 277.952C183.366 281.296 184.276 284.355 186.575 287.045C190.049 291.112 196.267 293.591 201.753 295.781C202.905 296.241 204.013 296.684 205.046 297.121C211.095 299.688 217.707 302.066 226.477 304.833C230.389 306.066 234.382 307.264 238.244 308.427C241.922 309.53 245.728 310.673 249.454 311.842C252.586 312.825 256.227 313.982 259.816 315.261C259.937 315.302 263.06 316.673 263.77 317.007L264.051 317.141L263.916 317.419C261.83 321.715 264.001 326.567 267.305 328.767C270.401 330.831 273.77 330.341 276.318 327.453C281.024 322.135 281.96 315.689 278.884 309.768C276.054 304.326 270.187 301.591 264.819 299.656C257.38 296.965 249.665 294.669 242.203 292.447C234.928 290.281 227.407 288.042 220.136 285.438C216.446 284.122 213.133 282.83 210.006 281.502C208.999 281.074 207.975 280.573 206.956 280.03C206.556 279.816 206.215 279.508 205.963 279.131C205.71 278.755 205.554 278.322 205.508 277.871C205.462 277.414 205.528 276.953 205.702 276.528C205.875 276.104 206.15 275.728 206.502 275.434C214.594 268.666 227.646 261.917 238.14 256.486C241.214 254.896 244.12 253.392 246.644 252.022L246.936 252.559C244.406 253.933 241.5 255.437 238.421 257.03C227.957 262.447 214.932 269.189 206.894 275.903C206.618 276.133 206.403 276.427 206.267 276.759C206.131 277.092 206.079 277.452 206.114 277.81C206.148 278.163 206.268 278.503 206.465 278.798C206.662 279.094 206.93 279.336 207.243 279.503C208.255 280.046 209.253 280.532 210.242 280.951C213.35 282.271 216.663 283.556 220.339 284.873C227.593 287.475 235.109 289.711 242.376 291.872C249.846 294.097 257.568 296.396 265.026 299.092C270.501 301.072 276.497 303.858 279.424 309.493C282.623 315.65 281.664 322.348 276.773 327.862C274.493 330.462 271.87 330.968 269.609 330.441Z" fill="#222224"/>
<path d="M94.1954 120.911C91.3976 120.486 88.6255 121.953 86.5488 123.876C84.472 125.799 82.882 128.184 80.9069 130.208C78.9318 132.232 76.3741 133.952 73.5465 133.957C80.7584 137.418 90.1596 135.581 95.5502 129.653C94.1928 132.358 94.0509 135.721 94.9929 138.596C95.9607 141.503 98.0249 143.916 100.746 145.324C99.4115 142.735 100.537 139.568 102.076 137.098C103.616 134.629 105.601 132.297 106.107 129.432C110.286 130.682 114.609 133.2 118.643 134.86C122.676 136.52 127.419 137.362 131.306 135.374C128.621 132.853 126.315 129.947 123.603 127.458C120.89 124.969 117.632 122.855 113.976 122.41C116.621 121.182 119.442 120.61 122.355 120.492C125.268 120.374 128.252 120.273 130.967 119.198C133.682 118.123 136.119 115.845 136.521 112.962C132.25 115.113 126.841 114.303 122.134 113.463C117.426 112.622 112.238 111.95 108.146 114.421C105.736 115.875 103.966 118.292 101.408 119.454C98.7275 120.676 97.0991 121.36 94.1954 120.911Z" fill="#555D20"/>
<path d="M101.444 146.03L100.596 145.604C97.7999 144.164 95.6799 141.685 94.6902 138.7C93.871 136.188 93.8645 133.482 94.6716 130.966C89.1002 136.078 80.2403 137.517 73.4108 134.244L72.2019 133.666L73.5414 133.664C76.5035 133.658 79.0618 131.672 80.6843 130.007C81.5488 129.122 82.3483 128.145 83.1324 127.214C84.1223 125.962 85.1944 124.777 86.3417 123.667C87.8113 122.307 90.7896 120.102 94.241 120.624C97.0345 121.048 98.5745 120.421 101.274 119.188C102.666 118.551 103.802 117.547 105.006 116.485C105.928 115.624 106.924 114.846 107.982 114.161C112.154 111.645 117.282 112.29 122.182 113.163C127.135 114.047 132.309 114.739 136.378 112.693L136.894 112.431L136.815 113.007C136.363 116.29 133.553 118.507 131.075 119.484C128.401 120.542 125.475 120.668 122.643 120.789L122.364 120.801C119.858 120.875 117.383 121.376 115.046 122.283C117.944 122.883 120.875 124.553 123.806 127.238C125.224 128.539 126.55 129.973 127.831 131.365C129.01 132.64 130.228 133.958 131.501 135.161L131.817 135.463L131.43 135.659C127.114 137.859 122.019 136.599 118.512 135.152C116.991 134.527 115.397 133.763 113.857 133.026C111.376 131.839 108.815 130.614 106.327 129.833C105.862 131.966 104.618 133.816 103.412 135.607C103.04 136.158 102.67 136.71 102.32 137.271C101.224 139.044 99.5773 142.431 101.004 145.192L101.444 146.03ZM96.8136 127.797L95.8129 129.793C94.5323 132.355 94.3247 135.609 95.2734 138.504C96.1178 141.051 97.8329 143.219 100.117 144.628C99.2116 141.793 100.739 138.651 101.806 136.939C102.165 136.376 102.524 135.813 102.908 135.258C104.142 133.425 105.417 131.529 105.795 129.381L105.855 129.044L106.186 129.142C108.817 129.929 111.514 131.218 114.124 132.466C115.728 133.235 117.244 133.959 118.749 134.579C122.034 135.93 126.738 137.125 130.764 135.292C129.585 134.159 128.467 132.935 127.377 131.77C126.104 130.393 124.787 128.97 123.385 127.685C120.195 124.763 117.025 123.093 113.929 122.715L112.866 122.585L113.838 122.129C116.374 120.953 119.153 120.314 122.335 120.177L122.615 120.165C125.394 120.045 128.27 119.921 130.848 118.896C133.018 118.036 135.454 116.188 136.1 113.475C131.962 115.289 126.908 114.609 122.069 113.745C117.288 112.892 112.284 112.26 108.295 114.667C107.267 115.332 106.3 116.087 105.407 116.924C104.223 117.969 102.998 119.05 101.525 119.724C98.792 120.973 97.105 121.654 94.1438 121.208C90.9474 120.724 88.1405 122.809 86.752 124.096C85.626 125.188 84.573 126.353 83.5999 127.583C82.8124 128.538 82.0097 129.519 81.1164 130.42C79.6347 131.94 77.4017 133.712 74.7635 134.156C81.6773 136.873 90.3084 134.95 95.3092 129.443L96.8136 127.797Z" fill="#222224"/>
<path d="M177.463 207.559L200.175 219.389L205.861 222.35C206.94 222.912 210.821 224.345 211.548 225.309C212.841 227.041 211.471 229.817 210.238 231.902C204.516 241.527 184.45 253.539 199.91 265.967C206.634 271.374 210.836 263.308 207.566 256.909C207.655 256.772 207.743 256.627 207.835 256.457C208.516 255.705 209.229 254.981 209.974 254.287C211.408 252.886 212.911 251.555 214.35 250.171C217.308 247.352 220.307 244.412 222.545 240.966C226.526 234.835 229.144 226.634 226.084 219.557C222.963 212.335 214.181 209.533 207.677 206.144L183.058 193.33" fill="#E74E39"/>
<path d="M202.949 267.906C201.754 267.587 200.644 267.005 199.702 266.204C196.041 263.259 194.139 260.206 193.884 256.865C193.409 250.689 198.881 244.705 203.708 239.424C206.187 236.713 208.529 234.151 209.961 231.743C211.092 229.82 212.482 227.093 211.293 225.49C210.823 224.861 208.61 223.901 207.145 223.268C206.545 223.007 206.027 222.779 205.72 222.621L177.32 207.83L177.603 207.288L205.995 222.077C206.281 222.228 206.792 222.45 207.381 222.704C209.473 223.61 211.247 224.418 211.775 225.124C213.162 226.987 211.821 229.808 210.478 232.055C209.013 234.517 206.65 237.099 204.15 239.834C199.405 245.023 194.029 250.911 194.483 256.815C194.726 259.981 196.554 262.894 200.076 265.724C202.471 267.649 204.702 267.966 206.358 266.619C208.609 264.778 209.027 260.485 207.271 257.039L207.189 256.883L207.285 256.735C207.37 256.605 207.455 256.463 207.543 256.301C208.265 255.492 208.99 254.755 209.743 254.054C210.554 253.261 211.393 252.489 212.231 251.714C212.867 251.127 213.502 250.542 214.127 249.943C217.182 247.03 220.104 244.138 222.275 240.793C224.559 237.279 229.472 228.185 225.791 219.672C223.309 213.926 217.268 211.08 211.429 208.314C210.057 207.666 208.762 207.054 207.522 206.407L182.916 193.596L183.2 193.054L207.813 205.872C209.03 206.511 210.332 207.122 211.698 207.768C217.364 210.445 223.787 213.479 226.361 219.434C230.157 228.226 225.125 237.529 222.789 241.131C220.581 244.531 217.632 247.444 214.548 250.392C213.919 250.99 213.281 251.579 212.645 252.168C211.81 252.937 210.976 253.708 210.163 254.5C209.418 255.194 208.694 255.916 208.036 256.657C208 256.733 207.949 256.826 207.892 256.922C209.682 260.578 209.172 265.107 206.744 267.092C205.667 267.968 204.359 268.235 202.949 267.906Z" fill="#222224"/>
<path d="M109.437 121.773C111.125 117.7 108.309 113.238 105.434 109.894C102.559 106.55 99.2533 102.734 99.8822 98.3669C100.306 95.405 102.548 92.9716 105.123 91.4517C107.697 89.9319 110.632 89.1471 113.462 88.1741C119.829 85.983 125.798 82.7715 131.136 78.6652C132.8 77.3863 134.444 75.9544 135.304 74.0417C136.165 72.1289 136.017 69.6167 134.44 68.2354C132.334 66.3779 128.914 67.4366 126.852 69.3378C124.789 71.239 123.432 73.8284 121.263 75.607C116.657 79.3837 109.894 78.5083 104.239 80.3848C96.397 82.9879 91.221 91.0136 90.1926 99.2229C89.1642 107.432 91.68 115.698 95.3067 123.126C97.7344 128.087 107.324 126.871 109.437 121.773Z" fill="#555D20"/>
<path d="M99.2198 126.353C97.2866 125.902 95.7894 124.822 95.0265 123.259C90.6611 114.312 88.9785 106.438 89.8973 99.1868C91.016 90.2288 96.7346 82.562 104.142 80.0965C106.26 79.3925 108.546 79.0737 110.758 78.7561C114.602 78.2109 118.231 77.6975 121.069 75.3714C122.199 74.4324 123.147 73.237 124.055 72.0798C124.837 71.0235 125.702 70.0319 126.643 69.1148C128.862 67.0701 132.461 66.0941 134.645 68.0063C136.392 69.5387 136.441 72.2672 135.586 74.1696C134.705 76.1279 133.017 77.6041 131.324 78.9082C125.964 83.0386 119.966 86.2669 113.566 88.4658C112.977 88.6678 112.38 88.8725 111.788 89.0578C109.571 89.7774 107.296 90.5269 105.283 91.7156C102.413 93.4101 100.555 95.8509 100.187 98.4116C99.5867 102.619 102.799 106.356 105.635 109.655C109.809 114.5 111.131 118.497 109.725 121.893C108.433 125.008 104.761 126.49 101.694 126.584C100.863 126.615 100.031 126.537 99.2198 126.353ZM132.712 67.6922C130.872 67.2631 128.609 68.1361 127.061 69.5627C126.143 70.457 125.3 71.4241 124.539 72.4547C123.612 73.639 122.652 74.8636 121.462 75.8364C118.492 78.2706 114.606 78.8198 110.849 79.3535C108.664 79.6615 106.405 79.982 104.339 80.6685C97.1529 83.0535 91.5899 90.522 90.4988 99.2542C89.606 106.384 91.2712 114.146 95.5843 122.986C96.5364 124.939 98.8131 126.055 101.674 125.966C105.071 125.863 108.149 124.09 109.159 121.652C110.471 118.489 109.184 114.709 105.208 110.088C102.25 106.649 98.9364 102.8 99.5834 98.3163C99.9777 95.5706 101.941 92.9722 104.97 91.1826C107.041 89.9596 109.359 89.2019 111.597 88.4691C112.189 88.2768 112.781 88.0823 113.365 87.8815C119.702 85.7067 125.642 82.5116 130.95 78.4224C132.58 77.1672 134.198 75.7637 135.029 73.9079C135.792 72.2092 135.762 69.7903 134.25 68.4586C133.809 68.0776 133.278 67.8137 132.708 67.6912L132.712 67.6922Z" fill="#222224"/>
<path d="M95.7406 168.871C93.8795 167.073 91.4349 166.001 88.851 165.852C86.2671 165.703 83.7154 166.486 81.6598 168.059C81.0816 168.496 80.5489 168.991 80.0699 169.535C79.8273 169.811 79.6015 170.101 79.3934 170.404C79.1773 170.704 78.9938 171.026 78.846 171.365C78.8303 171.432 78.9026 171.513 78.9522 171.447C79.1483 171.192 79.3242 170.926 79.5143 170.667C79.7045 170.409 79.903 170.172 80.109 169.934C81.3598 168.482 82.968 167.383 84.7743 166.745C87.1407 165.948 89.7121 166.013 92.0353 166.928C93.3235 167.422 94.5014 168.165 95.5013 169.116C95.5338 169.148 95.5775 169.165 95.6229 169.165C95.6683 169.164 95.7116 169.146 95.7434 169.113C95.7751 169.081 95.7926 169.037 95.7921 168.992C95.7916 168.946 95.7731 168.903 95.7406 168.871Z" fill="#222224"/>
<path d="M81.7301 189.026C81.8365 189.137 81.951 189.239 82.0728 189.333C82.2551 189.472 82.446 189.6 82.6443 189.715C83.0623 189.956 83.5041 190.153 83.9626 190.302C84.8767 190.604 85.8442 190.708 86.8016 190.609C86.847 190.6 86.8876 190.575 86.9156 190.538C86.9436 190.501 86.9571 190.456 86.9535 190.409C86.9499 190.363 86.9295 190.32 86.8961 190.288C86.8627 190.256 86.8187 190.237 86.7725 190.236C85.8687 190.308 84.9596 190.199 84.0979 189.917C83.6713 189.778 83.2598 189.595 82.8697 189.373C82.6678 189.263 82.4689 189.139 82.2893 189.01C82.1104 188.874 81.9198 188.753 81.7198 188.65C81.698 188.641 81.6742 188.64 81.6514 188.645C81.6287 188.651 81.6082 188.663 81.5929 188.681C81.5775 188.698 81.568 188.72 81.5657 188.744C81.5633 188.767 81.5683 188.79 81.5798 188.811" fill="#222224"/>
<path d="M97.9201 174.016C98.5847 175.642 98.8302 177.408 98.634 179.153C98.4378 180.898 97.8061 182.566 96.7971 184.003C95.788 185.44 94.434 186.601 92.8593 187.378C91.2847 188.155 89.54 188.524 87.7855 188.451C86.031 188.377 84.3231 187.864 82.8187 186.959C81.3142 186.053 80.0616 184.784 79.1757 183.268C78.2899 181.752 77.7993 180.037 77.7492 178.282C77.699 176.527 78.0907 174.787 78.8885 173.222L81.2642 172.918L90.2943 171.765L96.0488 171.025C96.8401 171.907 97.4732 172.919 97.9201 174.016Z" fill="white"/>
<path d="M85.7929 188.488C84.1964 188.119 82.7051 187.39 81.4323 186.358C80.1594 185.326 79.1385 184.017 78.447 182.532C77.7555 181.046 77.4116 179.422 77.4415 177.784C77.4713 176.145 77.8741 174.535 78.6193 173.076L78.6934 172.934L96.1705 170.696L96.2794 170.815C97.0961 171.726 97.75 172.77 98.2125 173.903C98.9625 175.733 99.1945 177.734 98.8832 179.687C98.5719 181.64 97.7292 183.47 96.4475 184.976C95.1658 186.482 93.4944 187.607 91.6163 188.226C89.7382 188.846 87.7258 188.937 85.7994 188.49L85.7929 188.488ZM79.0909 173.505C78.3426 175.029 77.9879 176.717 78.0593 178.414C78.1307 180.111 78.6259 181.764 79.4997 183.22C80.3735 184.677 81.598 185.891 83.0617 186.753C84.5253 187.615 86.1815 188.097 87.8791 188.154C89.5767 188.212 91.2616 187.844 92.7803 187.083C94.299 186.322 95.603 185.193 96.5735 183.799C97.5439 182.405 98.1499 180.79 98.3361 179.102C98.5223 177.414 98.2828 175.706 97.6395 174.134C97.2255 173.119 96.6477 172.178 95.9291 171.35L79.0909 173.505Z" fill="#222224"/>
<path d="M95.2285 174.564C95.7275 175.78 95.8964 177.106 95.718 178.408C95.5397 179.711 95.0204 180.943 94.2129 181.98C93.4053 183.017 92.3381 183.822 91.1192 184.314C89.9004 184.806 88.5731 184.968 87.2719 184.782C85.9706 184.596 84.7415 184.07 83.709 183.257C82.6764 182.443 81.8771 181.372 81.3919 180.15C80.9067 178.928 80.7528 177.6 80.9459 176.3C81.1389 175 81.672 173.774 82.4913 172.746L92.789 171.43C93.877 172.228 94.7216 173.313 95.2285 174.564Z" fill="#222224"/>
<path d="M130.975 164.535C129.118 162.761 126.698 161.693 124.135 161.519C122.481 161.423 120.826 161.704 119.297 162.342C117.767 162.98 116.402 163.957 115.306 165.199C115.063 165.475 114.838 165.766 114.632 166.069C114.414 166.368 114.23 166.69 114.082 167.03C114.066 167.097 114.139 167.177 114.19 167.112C114.384 166.856 114.56 166.59 114.75 166.331C114.941 166.073 115.139 165.837 115.345 165.598C115.758 165.118 116.211 164.675 116.701 164.274C117.689 163.464 118.811 162.833 120.017 162.41C122.378 161.617 124.944 161.681 127.263 162.59C128.551 163.084 129.729 163.828 130.729 164.778C130.761 164.809 130.805 164.826 130.85 164.826C130.895 164.825 130.938 164.807 130.97 164.776C131.002 164.744 131.02 164.701 131.021 164.656C131.022 164.611 131.005 164.568 130.975 164.535Z" fill="#222224"/>
<path d="M130.836 184.051C130.979 183.998 131.117 183.935 131.251 183.863C131.454 183.756 131.649 183.636 131.836 183.503C132.231 183.225 132.596 182.906 132.924 182.552C133.583 181.854 134.087 181.025 134.402 180.118C134.414 180.073 134.409 180.026 134.388 179.984C134.367 179.943 134.331 179.911 134.287 179.895C134.243 179.879 134.195 179.879 134.152 179.897C134.109 179.914 134.074 179.947 134.054 179.989C133.739 180.84 133.26 181.619 132.642 182.284C132.337 182.612 132 182.91 131.636 183.172C131.452 183.304 131.261 183.431 131.069 183.55C130.871 183.656 130.682 183.779 130.505 183.919C130.487 183.935 130.475 183.956 130.47 183.979C130.465 184.002 130.467 184.026 130.477 184.048C130.487 184.07 130.503 184.088 130.524 184.099C130.545 184.111 130.569 184.116 130.592 184.113" fill="#222224"/>
<path d="M133.154 169.69C133.819 171.316 134.065 173.082 133.868 174.827C133.672 176.572 133.04 178.24 132.031 179.677C131.022 181.114 129.668 182.274 128.094 183.051C126.519 183.829 124.774 184.198 123.02 184.124C121.265 184.051 119.557 183.538 118.053 182.633C116.549 181.727 115.296 180.458 114.41 178.942C113.524 177.425 113.034 175.711 112.984 173.956C112.933 172.2 113.325 170.461 114.123 168.896L116.496 168.591L125.527 167.438L131.281 166.698C132.072 167.581 132.706 168.593 133.154 169.69Z" fill="white"/>
<path d="M121.015 184.164C119.42 183.794 117.931 183.066 116.659 182.035C115.388 181.004 114.368 179.697 113.676 178.213C112.985 176.729 112.64 175.107 112.669 173.47C112.697 171.833 113.098 170.224 113.841 168.765L113.913 168.623L131.39 166.376L131.496 166.494C132.312 167.403 132.964 168.446 133.424 169.576C134.174 171.406 134.406 173.407 134.095 175.361C133.783 177.314 132.941 179.143 131.659 180.649C130.377 182.156 128.706 183.28 126.828 183.9C124.95 184.52 122.937 184.611 121.011 184.163L121.015 184.164ZM114.314 169.179C113.566 170.703 113.212 172.391 113.284 174.087C113.356 175.784 113.852 177.436 114.726 178.892C115.599 180.348 116.824 181.562 118.287 182.423C119.751 183.285 121.406 183.766 123.103 183.824C124.801 183.882 126.485 183.514 128.004 182.753C129.522 181.993 130.826 180.865 131.797 179.471C132.767 178.078 133.374 176.464 133.56 174.776C133.747 173.088 133.509 171.38 132.867 169.809C132.455 168.792 131.877 167.852 131.156 167.025L114.314 169.179Z" fill="#222224"/>
<path d="M130.466 170.236C130.965 171.453 131.135 172.779 130.956 174.082C130.778 175.385 130.259 176.618 129.451 177.655C128.643 178.693 127.576 179.499 126.356 179.991C125.137 180.483 123.809 180.645 122.507 180.459C121.206 180.273 119.976 179.747 118.943 178.933C117.91 178.119 117.111 177.047 116.625 175.825C116.14 174.603 115.986 173.274 116.18 171.973C116.373 170.673 116.907 169.446 117.727 168.418L128.024 167.102C129.112 167.901 129.958 168.986 130.466 170.236Z" fill="#222224"/>
<path d="M107.203 186.72C107.501 186.703 107.789 186.606 108.036 186.438C108.183 186.343 108.321 186.234 108.447 186.112C108.602 185.998 108.719 185.838 108.781 185.655C108.803 185.48 108.615 185.389 108.464 185.41C108.393 185.342 108.301 185.301 108.203 185.292C107.597 185.243 106.99 185.373 106.457 185.667C106.379 185.706 106.319 185.773 106.287 185.854C106.256 185.935 106.255 186.026 106.286 186.107C106.296 186.133 106.308 186.156 106.325 186.178C106.369 186.553 106.833 186.733 107.203 186.72Z" fill="#222224"/>
<path d="M103.23 184.375C103.157 184.357 103.094 184.312 103.052 184.25C103.01 184.188 102.992 184.112 103.002 184.038C103.012 183.963 103.049 183.895 103.106 183.846C103.163 183.797 103.237 183.771 103.312 183.773C105.409 183.86 107.463 183.166 109.077 181.824C109.107 181.794 109.143 181.771 109.182 181.756C109.221 181.741 109.263 181.734 109.306 181.736C109.348 181.738 109.389 181.748 109.427 181.767C109.465 181.785 109.498 181.812 109.526 181.844C109.553 181.876 109.573 181.913 109.585 181.954C109.597 181.994 109.601 182.036 109.596 182.078C109.591 182.12 109.577 182.161 109.556 182.197C109.535 182.233 109.506 182.265 109.472 182.289C107.743 183.731 105.539 184.478 103.29 184.385L103.23 184.375Z" fill="#222224"/>
<path d="M110.84 183.072C109.403 182.737 108.342 181.381 108.423 179.97C108.425 179.929 108.435 179.89 108.452 179.854C108.47 179.817 108.494 179.785 108.524 179.758C108.554 179.731 108.589 179.711 108.627 179.697C108.665 179.684 108.705 179.678 108.745 179.68C108.786 179.682 108.825 179.691 108.862 179.708C108.898 179.725 108.931 179.75 108.958 179.78C108.985 179.81 109.005 179.845 109.018 179.883C109.031 179.922 109.036 179.962 109.032 180.002C108.97 181.108 109.843 182.211 110.981 182.477L111.022 182.486C111.101 182.505 111.169 182.554 111.212 182.623C111.255 182.692 111.269 182.775 111.25 182.854C111.232 182.933 111.183 183.001 111.114 183.044C111.045 183.087 110.962 183.101 110.883 183.083L110.84 183.072Z" fill="#222224"/>
<path d="M100.836 182.869L100.58 181.115C100.395 179.864 99.7222 178.738 98.7087 177.982C97.6953 177.226 96.4237 176.901 95.1719 177.08L81.0704 179.13C79.8178 179.315 78.6896 179.989 77.933 181.005C77.1763 182.02 76.8528 183.294 77.0334 184.547L77.2893 186.301C77.4746 187.552 78.1475 188.679 79.161 189.435C80.1745 190.191 81.4461 190.515 82.6978 190.336L96.7993 188.286C98.0519 188.101 99.1801 187.427 99.9368 186.412C100.693 185.396 101.017 184.123 100.836 182.869Z" fill="#222224"/>
<path d="M131.805 172.348L111.091 175.272C110.415 175.368 109.945 175.993 110.04 176.67L111.272 185.397C111.368 186.073 111.993 186.544 112.669 186.448L133.383 183.524C134.059 183.429 134.53 182.803 134.434 182.127L133.202 173.4C133.107 172.724 132.481 172.253 131.805 172.348Z" fill="#222224"/>
<path d="M112.825 179.866L112.586 178.224C112.573 178.137 112.492 178.077 112.404 178.089L98.8803 180.059C98.7931 180.071 98.7326 180.152 98.7453 180.24L98.9844 181.881C98.9971 181.969 99.0781 182.029 99.1654 182.016L112.69 180.047C112.777 180.034 112.837 179.953 112.825 179.866Z" fill="#222224"/>
<path d="M133.414 176.038C133.377 175.778 133.445 175.515 133.602 175.305C133.759 175.095 133.992 174.955 134.251 174.917L156.267 168.636C156.527 168.599 156.791 168.666 157.001 168.823C157.211 168.98 157.35 169.214 157.388 169.474C157.426 169.733 157.359 169.997 157.202 170.207C157.046 170.417 156.812 170.557 156.553 170.595L134.534 176.88C134.274 176.916 134.01 176.848 133.8 176.69C133.59 176.533 133.451 176.298 133.414 176.038Z" fill="#222224"/>
<path d="M80.7678 184.891C80.7293 184.632 80.5896 184.398 80.3795 184.242C80.1693 184.085 79.9057 184.018 79.6463 184.055L76.0303 184.961C75.7706 185 75.5366 185.14 75.3796 185.35C75.2225 185.56 75.1552 185.825 75.1922 186.084C75.2308 186.344 75.3704 186.577 75.5806 186.734C75.7908 186.89 76.0544 186.957 76.3138 186.92L79.9302 186.012C80.0589 185.993 80.1826 185.95 80.2943 185.883C80.406 185.817 80.5035 185.729 80.5813 185.625C80.6591 185.521 80.7156 185.402 80.7476 185.276C80.7796 185.15 80.7865 185.019 80.7678 184.891Z" fill="#222224"/>
<path d="M274.509 248.565C274.289 248.513 274.079 248.427 273.885 248.31C273.579 248.127 273.331 247.86 273.172 247.541C273.014 247.221 272.951 246.862 272.992 246.507C273.03 246.182 273.164 245.876 273.378 245.628C273.591 245.38 273.873 245.201 274.189 245.115L274.262 245.093C274.384 245.052 274.509 245.017 274.635 244.989C274.481 244.706 274.387 244.396 274.357 244.075C274.327 243.755 274.362 243.432 274.461 243.126C274.74 242.342 275.64 241.673 276.558 241.887L276.625 241.902C277.132 242.075 277.564 242.417 277.848 242.871C278.313 243.589 278.682 244.364 278.948 245.177C279.113 245.619 279.283 246.073 279.488 246.494C279.522 246.567 279.527 246.65 279.5 246.726C279.473 246.802 279.418 246.865 279.345 246.9C279.317 246.915 279.286 246.925 279.254 246.929C279.034 247.012 277.954 247.553 277.362 247.854C276.944 248.064 276.604 248.233 276.523 248.269C275.92 248.5 275.216 248.729 274.509 248.565ZM275.02 245.525C274.828 245.557 274.64 245.604 274.456 245.667L274.375 245.693C274.173 245.746 273.991 245.858 273.855 246.016C273.718 246.173 273.632 246.369 273.609 246.576C273.581 246.815 273.623 247.057 273.73 247.272C273.837 247.487 274.005 247.667 274.212 247.789C274.876 248.195 275.607 247.969 276.29 247.668C276.368 247.636 276.695 247.471 277.098 247.269C278.005 246.818 278.51 246.564 278.806 246.428C278.661 246.076 278.518 245.712 278.373 245.357C278.126 244.596 277.78 243.871 277.345 243.2C277.14 242.862 276.826 242.604 276.455 242.468C275.834 242.306 275.219 242.775 275.03 243.305C274.936 243.617 274.927 243.949 275.002 244.267C275.077 244.584 275.234 244.877 275.457 245.115C275.506 245.176 275.529 245.253 275.522 245.331C275.515 245.409 275.478 245.481 275.42 245.533C275.362 245.584 275.286 245.612 275.208 245.61C275.13 245.608 275.056 245.576 275 245.52L275.02 245.525Z" fill="#222224"/>
<path d="M168.232 158.651C166.24 151.566 163.176 144.53 158.583 138.724C155.769 135.166 150.028 127.772 144.815 128.681C144.706 128.715 144.612 128.784 144.546 128.877C144.481 128.97 144.447 129.082 144.451 129.195C144.458 131.363 145.518 132.562 146.883 134.169C149.131 136.863 151.191 139.709 153.045 142.687C156.689 148.412 159.6 154.201 161.497 160.743C162.762 165.094 169.458 163.023 168.232 158.651Z" fill="white"/>
<path d="M177.478 185.279C177.561 182.794 175.483 180.161 174.397 177.982C173.278 175.71 172.114 173.931 169.886 172.687C169.746 172.611 169.581 172.594 169.429 172.639C169.276 172.685 169.148 172.788 169.071 172.927C167.872 175.406 168.219 177.803 169.279 180.318C170.274 182.682 171.626 186.258 174.106 187.365C175.748 188.108 177.419 187.083 177.478 185.279Z" fill="white"/>
<path d="M309.092 228.099C304.499 229.077 299.944 229.953 295.431 231.242C292.094 232.192 288.229 233.14 286.267 236.199C285.904 236.78 286.198 237.647 286.784 237.948C290.058 239.622 293.988 238.357 297.325 237.368C301.829 236.034 306.089 234.173 310.388 232.288C312.954 231.16 311.893 227.504 309.092 228.099Z" fill="white"/>
<path d="M95.6625 129.892C95.6687 129.842 95.6564 129.792 95.6278 129.751C95.5993 129.71 95.5567 129.682 95.5081 129.67C95.4595 129.659 95.4085 129.666 95.3648 129.69C95.3212 129.714 95.2879 129.754 95.2716 129.801C95.1477 130.237 94.9261 130.639 94.6237 130.977C94.5631 130.979 94.504 130.997 94.4524 131.028C94.474 130.936 94.3734 130.83 94.2808 130.895C91.9112 132.614 89.3723 134.087 86.7037 135.291C86.6765 135.289 86.6491 135.288 86.6219 135.29C84.9999 135.635 83.3349 135.731 81.6839 135.576C81.138 135.514 80.6259 135.454 80.1691 135.821C79.8068 136.115 79.6572 136.551 79.4304 136.938C79.3388 137.005 79.274 137.102 79.2481 137.212C79.2276 137.245 79.2117 137.28 79.2008 137.317C79.1003 137.369 78.9962 137.414 78.8893 137.452C78.8297 137.468 78.7757 137.5 78.7333 137.545C78.6909 137.59 78.6618 137.646 78.6491 137.706C78.6364 137.767 78.6407 137.83 78.6615 137.888C78.6822 137.946 78.7187 137.997 78.7668 138.036L78.7066 138.04C78.6476 138.034 78.5886 138.052 78.5427 138.089C78.4968 138.127 78.4677 138.181 78.4617 138.24C78.4558 138.299 78.4736 138.358 78.5112 138.404C78.5487 138.45 78.603 138.479 78.662 138.485C81.8796 139.122 85.4214 137.918 88.2462 136.45C89.7731 135.652 91.2154 134.702 92.5513 133.614C93.0878 133.179 93.691 132.712 94.2308 132.184C94.4178 132.036 94.6164 131.907 94.7996 131.756L94.8699 131.709C94.8976 131.688 94.9269 131.67 94.9523 131.648C95.0101 131.603 95.0507 131.539 95.0674 131.467C95.0842 131.395 95.0761 131.32 95.0445 131.253C95.3399 130.845 95.5501 130.382 95.6625 129.892Z" fill="#222224"/>
<path d="M107.632 129.901C107.31 129.826 106.989 129.726 106.67 129.659C106.56 129.637 106.446 129.658 106.35 129.717C106.255 129.776 106.186 129.87 106.156 129.978C105.986 130.863 105.667 131.712 105.215 132.492C105.166 132.576 105.11 132.658 105.059 132.742C104.544 133.387 104.002 134.012 103.426 134.607C103.38 134.663 103.349 134.731 103.338 134.803C103.326 134.875 103.334 134.949 103.359 135.017C103.385 135.086 103.428 135.146 103.485 135.192C103.541 135.239 103.609 135.269 103.681 135.281C102.93 136.035 102.238 136.845 101.61 137.704C101.303 138.139 101.042 138.605 100.831 139.094C100.606 139.618 100.576 140.098 100.469 140.645C100.466 140.678 100.475 140.71 100.494 140.737C100.513 140.764 100.541 140.783 100.573 140.79C100.605 140.798 100.639 140.793 100.668 140.778C100.697 140.762 100.719 140.737 100.731 140.706C100.923 140.169 101.18 139.658 101.496 139.183C101.78 138.702 102.102 138.244 102.457 137.813C103.176 136.972 103.941 136.171 104.749 135.416C106.258 133.946 107.948 132.334 108.49 130.217C108.614 129.741 107.825 129.406 107.632 129.901Z" fill="#222224"/>
<path d="M129.358 119.596C128.217 119.819 127.104 120.161 125.95 120.345C124.795 120.529 123.639 120.615 122.487 120.749C122.033 120.803 121.551 120.857 121.08 120.924C121.406 120.845 121.73 120.764 122.055 120.696C122.381 120.629 122.23 120.113 121.897 120.186C121.115 120.352 120.329 120.519 119.56 120.732C119.341 120.792 119.123 120.857 118.902 120.927C118.818 120.944 118.734 120.965 118.649 120.986C118.409 121.037 118.179 121.116 117.945 121.184C117.913 121.195 117.879 121.203 117.846 121.216C117.647 121.265 117.451 121.326 117.259 121.4C117.226 121.413 117.215 121.442 117.194 121.464C116.965 121.557 116.736 121.66 116.512 121.761C115.983 121.663 115.435 121.742 114.956 121.988C114.638 122.141 114.889 122.608 115.203 122.53C115.45 122.472 115.705 122.454 115.958 122.479C115.99 122.559 116.046 122.626 116.12 122.671C116.141 122.676 116.161 122.681 116.18 122.685C116.088 122.878 116.207 123.147 116.461 123.056C117.499 122.667 118.48 122.208 119.571 121.937C120.722 121.657 121.887 121.438 123.06 121.279C124.145 121.122 125.227 120.964 126.305 120.774C127.383 120.584 128.524 120.38 129.472 119.839C129.61 119.757 129.495 119.577 129.358 119.596Z" fill="#222224"/>
<path d="M102.159 226.632C102.144 226.221 101.799 225.851 101.516 225.532C100.298 224.209 98.9879 222.975 97.5952 221.837C97.5823 221.834 97.5693 221.831 97.5589 221.817C96.2169 219.833 94.6625 218 92.9234 216.352C92.9797 216.279 93.0196 216.194 93.0405 216.104C93.0724 215.924 93.033 215.739 92.9306 215.587C92.8281 215.436 92.6707 215.33 92.4917 215.293C92.2494 215.265 92.0042 215.273 91.7642 215.317L91.0862 215.373C90.8357 215.366 90.5875 215.423 90.3646 215.537C90.2705 215.601 90.1929 215.686 90.1383 215.785C90.1095 215.766 90.075 215.757 90.0404 215.759C90.0058 215.762 89.9731 215.776 89.9474 215.799C89.9218 215.823 89.9047 215.854 89.899 215.888C89.8932 215.922 89.899 215.958 89.9156 215.988C89.9512 216.06 89.9899 216.128 90.0255 216.2C90.0257 216.27 90.034 216.339 90.0503 216.407C90.1258 216.608 90.2239 216.799 90.3429 216.978C90.4392 217.151 90.5356 217.324 90.6331 217.501C90.8824 217.93 91.1454 218.355 91.4221 218.776C93.6781 222.52 96.6338 225.794 100.128 228.42C100.197 228.472 100.282 228.498 100.369 228.495C100.456 228.491 100.539 228.458 100.604 228.401C101.04 228.531 101.507 228.509 101.929 228.337C102.35 228.165 102.701 227.854 102.921 227.456C103.227 226.915 102.609 226.45 102.159 226.632Z" fill="#222224"/>
<path d="M78.0308 195.068L77.9804 194.943L78.3173 193.762C78.3997 193.467 78.5471 193.196 78.4246 192.901C78.3291 192.7 78.2011 192.517 78.0459 192.357C78.1336 192.281 78.1915 192.176 78.2096 192.061C78.2276 191.946 78.2046 191.829 78.1445 191.729C76.7943 189.364 75.7467 186.854 74.758 184.317C73.9986 182.368 73.2066 180.402 72.5273 178.413C71.9765 175.579 71.5947 172.713 71.3247 169.838C71.3069 169.563 71.3014 169.284 71.2669 169.011C71.2596 168.988 71.2486 168.966 71.2342 168.947C71.2287 168.895 71.2036 168.847 71.1641 168.813C71.1245 168.778 71.0735 168.76 71.0212 168.762C70.9689 168.764 70.9193 168.786 70.8825 168.823C70.8457 168.86 70.8244 168.91 70.8229 168.963C70.8245 169.063 70.8335 169.161 70.8356 169.259C70.4032 171.368 70.653 173.744 70.893 175.85C71.1657 178.073 71.6224 180.27 72.2584 182.417C73.5541 186.886 75.2382 191.232 77.2916 195.406C77.4856 195.834 78.2062 195.508 78.0308 195.068Z" fill="#222224"/>
<path d="M287.372 271.75C287.368 271.737 287.36 271.726 287.35 271.717C287.341 271.708 287.329 271.701 287.316 271.698C287.246 271.693 287.175 271.699 287.107 271.715C287.066 271.657 287.012 271.609 286.95 271.574C286.888 271.54 286.819 271.52 286.748 271.516C286.163 271.472 285.582 271.383 285.011 271.247C284.926 271.229 284.838 271.231 284.753 271.251C284.668 271.271 284.589 271.31 284.52 271.364C284.452 271.418 284.396 271.487 284.358 271.565C284.319 271.643 284.298 271.729 284.296 271.816C283.142 272.517 281.998 273.233 280.861 273.964C280.806 273.923 280.739 273.898 280.67 273.893C280.601 273.887 280.531 273.902 280.47 273.935C278.73 274.784 277.013 275.634 275.361 276.642C274.933 276.907 274.511 277.184 274.084 277.451C270.898 278.594 267.756 279.781 264.459 280.636C262.723 281.09 260.985 281.52 259.233 281.923C258.341 282.125 257.443 282.316 256.555 282.539C255.829 282.721 254.85 282.839 254.309 283.382C254.292 283.398 254.28 283.419 254.273 283.441C254.266 283.463 254.264 283.486 254.267 283.509C254.271 283.532 254.279 283.554 254.293 283.573C254.306 283.592 254.324 283.607 254.345 283.618C254.748 283.842 255.258 283.854 255.757 283.82C255.775 283.895 255.817 283.963 255.877 284.012C255.936 284.062 256.01 284.091 256.087 284.095C256.364 284.11 256.643 284.095 256.92 284.098C257.009 284.2 257.134 284.263 257.268 284.275C259.111 284.477 260.955 284.647 262.799 284.799C262.865 284.848 262.94 284.883 263.02 284.903C263.936 285.117 264.853 285.296 265.783 285.429C266.293 285.5 267.006 285.694 267.579 285.62C267.606 285.639 267.635 285.655 267.666 285.668C267.619 285.702 267.569 285.732 267.524 285.765C267.402 285.852 267.484 286.094 267.643 286.02C269.619 285.114 271.491 283.913 273.38 282.823C275.269 281.734 277.301 280.659 279.151 279.405C280.79 278.272 282.366 277.052 283.875 275.751C284.664 275.093 285.416 274.391 286.126 273.648C286.493 273.253 286.829 272.837 287.154 272.41C287.364 272.144 287.452 272.062 287.372 271.75Z" fill="#222224"/>
<path d="M203.134 267.64C202.556 267.455 201.966 267.317 201.382 267.156C201.389 267.116 201.385 267.074 201.371 267.035C201.283 266.865 201.141 266.729 200.968 266.647L200.566 266.415L200.14 266.165C200.14 266.165 200.14 266.165 200.127 266.162C199.906 266.015 199.694 265.849 199.486 265.685C199.279 265.52 199.078 265.307 198.863 265.134C198.648 264.961 198.441 264.785 198.243 264.6C198.241 264.476 198.2 264.356 198.127 264.256C197.918 263.98 197.686 263.735 197.462 263.477C197.366 263.368 197.272 263.258 197.181 263.148C197.172 263.137 197.164 263.126 197.157 263.115C197.107 263.055 197.06 262.994 197.015 262.933C196.659 262.476 196.329 261.999 196.027 261.505C196.015 261.487 195.997 261.478 195.983 261.459C196.12 261.126 195.801 260.696 195.434 260.95C195.324 261.022 195.218 261.105 195.108 261.179C195.073 261.185 195.039 261.193 195.006 261.203C194.892 261.263 194.794 261.35 194.72 261.455C194.262 261.77 193.802 262.08 193.358 262.411C191.435 263.764 189.534 265.138 187.724 266.661C186.49 267.694 185.3 268.781 184.11 269.863C182.919 270.945 181.777 272.052 180.884 273.365C180.699 273.638 181.1 273.852 181.312 273.676C181.324 273.666 181.336 273.655 181.347 273.644C181.39 273.76 181.469 273.859 181.571 273.928C181.674 273.998 181.796 274.033 181.92 274.03C182.48 274.009 183.04 274.054 183.59 274.162C183.702 274.239 183.811 274.322 183.915 274.411C183.978 274.469 184.053 274.513 184.136 274.538C184.218 274.563 184.305 274.569 184.39 274.555C184.475 274.542 184.556 274.509 184.626 274.46C184.697 274.41 184.755 274.346 184.797 274.27C185.732 272.211 187.026 270.269 188.379 268.479C188.462 268.377 188.507 268.25 188.505 268.119C188.503 267.988 188.454 267.862 188.368 267.763C188.811 267.323 189.265 266.892 189.729 266.47C191.246 265.102 192.903 263.924 194.523 262.692C194.52 262.705 194.516 262.722 194.53 262.739C194.544 262.756 194.595 262.829 194.623 262.875C194.674 262.966 194.729 263.055 194.789 263.141C194.84 263.214 194.905 263.277 194.968 263.349C195.825 264.572 196.955 265.578 198.269 266.287C199.716 267.045 201.451 267.965 203.106 268.007C203.323 268.014 203.323 267.7 203.134 267.64Z" fill="#222224"/>
<path d="M227.093 244.261C227.352 244.078 227.2 243.603 226.854 243.729C225.772 244.094 224.718 244.598 223.67 245.052C223.072 245.309 222.474 245.569 221.875 245.832L221.499 245.972C219.812 246.631 217.992 247.172 216.443 248.12C216.409 248.139 216.382 248.168 216.367 248.204C216.352 248.24 216.35 248.28 216.361 248.317L215.938 248.517C215.541 248.709 215.158 248.932 215.193 249.427C215.238 249.966 216.091 249.931 216.034 249.396C216.023 249.304 217.157 248.817 217.284 248.753L218.7 248.05C219.621 247.599 220.538 247.151 221.463 246.713C223.257 245.856 225.153 245.186 226.956 244.338L227.034 244.306L227.102 244.279L227.093 244.261Z" fill="#222224"/>
<path d="M97.0681 120.557C96.2371 118.755 95.3967 116.958 94.5469 115.166C93.7351 113.471 92.9745 111.752 92.5686 109.908C91.7858 106.351 92.1788 102.644 92.5916 99.0663C92.6225 98.8071 92.2186 98.7129 92.192 98.9732C91.8315 102.56 91.439 106.197 92.1151 109.773C92.8498 113.654 94.9845 117.274 96.709 120.778C96.8313 121.025 97.1779 120.799 97.0681 120.557Z" fill="#222224"/>
<path d="M96.6143 87.6132C95.5654 89.6893 94.4174 91.7217 93.2209 93.7178C93.1244 93.8775 93.381 94.008 93.4737 93.8542C94.7614 91.9111 95.9363 89.8956 96.9926 87.8175C97.1183 87.5713 96.7384 87.3643 96.6143 87.6132Z" fill="#222224"/>
<path d="M130.469 68.7913C129.677 69.0953 128.938 69.5242 128.281 70.0618C127.601 70.5776 126.981 71.168 126.433 71.8219C126.235 72.0558 126.58 72.3844 126.78 72.151C127.314 71.5247 127.906 70.9497 128.547 70.4336C129.192 69.9144 129.899 69.5191 130.589 69.0584C130.727 68.9652 130.635 68.7343 130.469 68.7913Z" fill="#222224"/>
<path d="M84.7837 127.751C83.5701 129.568 81.978 131.102 80.1165 132.246C79.9056 132.379 80.1002 132.678 80.3191 132.569C82.3481 131.525 84.0544 129.947 85.2547 128.006C85.4389 127.714 84.9685 127.466 84.7837 127.751Z" fill="#222224"/>
<path d="M78.0403 142.953C76.2491 147.361 74.7951 151.899 73.6906 156.528C73.6834 156.559 73.6888 156.591 73.7055 156.618C73.7223 156.645 73.7491 156.664 73.78 156.672C73.811 156.679 73.8435 156.673 73.8705 156.657C73.8975 156.64 73.9167 156.613 73.9239 156.582C75.1911 152.007 76.6401 147.492 78.2708 143.039C78.3172 142.908 78.0936 142.822 78.0403 142.953Z" fill="#222224"/>
<path d="M73.8899 167.378C73.6377 166.703 73.4599 166.001 73.3596 165.287C73.2801 164.566 73.3117 163.838 73.4533 163.127C73.4566 163.094 73.4479 163.062 73.4288 163.035C73.4097 163.008 73.3815 162.989 73.3494 162.982C73.3174 162.974 73.2837 162.979 73.2548 162.994C73.2258 163.01 73.2035 163.035 73.192 163.066C72.8575 164.5 72.9037 166.187 73.5817 167.518C73.6706 167.694 73.9563 167.562 73.8899 167.378Z" fill="#222224"/>
<path d="M67.5912 224.165C66.7858 223.58 66.0811 222.868 65.5048 222.057C65.2284 221.641 64.9854 221.203 64.7781 220.749C64.5533 220.3 64.3675 219.832 64.2228 219.351C64.2182 219.336 64.2086 219.324 64.1957 219.316C64.1827 219.309 64.1674 219.306 64.1526 219.308C64.1377 219.311 64.1243 219.319 64.1149 219.331C64.1055 219.343 64.1008 219.358 64.1015 219.373C64.1289 219.636 64.1444 219.902 64.183 220.166C64.2264 220.414 64.2922 220.658 64.3797 220.895C64.9186 222.408 65.9423 223.7 67.2916 224.571C67.5361 224.724 67.8249 224.345 67.5912 224.165Z" fill="#222224"/>
<path d="M224.392 220.866C224.276 220.182 224.045 219.523 223.708 218.916C223.677 218.88 223.635 218.855 223.588 218.845C223.541 218.834 223.492 218.84 223.449 218.859C223.405 218.879 223.369 218.913 223.346 218.955C223.323 218.997 223.314 219.045 223.321 219.092C223.41 219.416 223.535 219.727 223.626 220.049C223.715 220.359 223.785 220.673 223.837 220.991C223.947 221.641 223.992 222.301 223.97 222.96C223.957 223.328 224.53 223.305 224.542 222.939C224.577 222.244 224.527 221.548 224.392 220.866Z" fill="#222224"/>
<path d="M187.136 281.533C186.727 281.047 186.454 280.461 186.343 279.836C186.233 279.211 186.288 278.567 186.504 277.97C186.523 277.887 186.509 277.801 186.464 277.729C186.419 277.657 186.348 277.606 186.266 277.586C186.183 277.569 186.097 277.584 186.025 277.628C185.954 277.672 185.902 277.743 185.88 277.824C185.651 278.526 185.611 279.275 185.762 279.996C185.913 280.718 186.252 281.388 186.743 281.938C186.769 281.966 186.801 281.988 186.836 282.003C186.871 282.018 186.909 282.026 186.947 282.025C186.986 282.025 187.023 282.018 187.058 282.002C187.093 281.987 187.125 281.965 187.151 281.937C187.178 281.91 187.198 281.877 187.211 281.841C187.224 281.805 187.23 281.767 187.228 281.729C187.226 281.691 187.216 281.653 187.199 281.619C187.182 281.585 187.159 281.554 187.13 281.53L187.136 281.533Z" fill="#222224"/>
<path d="M356.782 293.165C356.405 291.262 355.43 289.529 353.998 288.22C353.839 288.072 353.627 288.305 353.768 288.463C354.387 289.152 354.925 289.91 355.373 290.721C355.806 291.536 356.159 292.39 356.427 293.273C356.499 293.509 356.823 293.393 356.782 293.165Z" fill="#222224"/>
<path d="M318.635 226.923C317.388 229.34 316.141 231.755 314.949 234.194C314.927 234.234 314.922 234.281 314.935 234.324C314.948 234.368 314.978 234.405 315.018 234.426C315.057 234.448 315.104 234.453 315.148 234.44C315.192 234.427 315.228 234.398 315.25 234.358C316.519 231.955 317.742 229.532 318.978 227.11C319.003 227.065 319.009 227.011 318.994 226.961C318.979 226.912 318.946 226.87 318.9 226.845C318.854 226.82 318.801 226.814 318.751 226.829C318.701 226.844 318.659 226.878 318.635 226.923Z" fill="#222224"/>
<path d="M311.461 239.521C310.049 241.378 308.848 243.373 307.583 245.332C306.415 247.135 305.283 249.08 303.412 250.24C303.402 250.246 303.393 250.254 303.386 250.264C303.379 250.274 303.374 250.285 303.371 250.296C303.368 250.308 303.368 250.32 303.37 250.332C303.372 250.344 303.376 250.355 303.382 250.365C303.389 250.375 303.397 250.384 303.407 250.391C303.416 250.398 303.427 250.403 303.439 250.406C303.451 250.408 303.463 250.409 303.475 250.407C303.486 250.405 303.498 250.401 303.508 250.394C305.258 249.343 306.373 247.619 307.474 245.954C308.875 243.853 310.34 241.801 311.568 239.598C311.606 239.534 311.511 239.455 311.461 239.521Z" fill="#222224"/>
<path d="M146.535 254.168C142.456 252.122 138.581 249.693 134.961 246.915C134.815 246.806 134.617 247.01 134.762 247.123C138.398 249.925 142.317 252.336 146.457 254.319C146.553 254.357 146.629 254.215 146.535 254.168Z" fill="#222224"/>
<path d="M157.545 260.016C156.173 259.176 154.739 258.441 153.257 257.818C153.031 257.72 152.848 258.057 153.074 258.153C154.56 258.78 155.978 259.525 157.417 260.25C157.448 260.267 157.485 260.271 157.519 260.261C157.553 260.251 157.581 260.228 157.598 260.197C157.615 260.166 157.619 260.129 157.609 260.095C157.599 260.061 157.576 260.033 157.545 260.016Z" fill="#222224"/>
<path d="M94.0244 102.793C86.1637 101.871 85.4292 102.433 82.5441 111.621C84.0187 102.104 83.6112 101.273 76.1508 98.625C84.0136 99.5475 84.746 98.985 87.6332 89.7971C86.1565 99.3139 86.5662 100.145 94.0244 102.793Z" fill="white"/>
</svg>
