<svg width="386" height="331" viewBox="0 0 386 331" fill="none" xmlns="http://www.w3.org/2000/svg">
<path d="M309.728 286.238C309.799 285.899 309.876 285.556 309.953 285.212L308.979 285.181C307.625 284.566 307.348 283.084 306.482 282.069C299.626 273.998 290.479 269.548 280.927 265.707L279.337 265.754C279.03 266.548 278.686 267.333 278.419 268.138C273.42 283.207 268.406 298.272 263.478 313.367C262.914 315.085 262.099 316.002 260.289 316.479C245.751 320.289 230.982 323.154 216.075 325.057C210.763 325.739 205.43 326.262 200.098 326.857C199.975 325.765 200.467 325.124 200.785 324.447C208.22 308.696 215.701 292.965 223.11 277.203C227.14 268.635 231.062 260.016 235.031 251.417H234.272C233.698 252.658 232.893 253.027 231.432 252.756C219.357 250.51 207.138 249.305 194.909 248.356C179.25 247.146 163.555 246.592 147.849 246.926C141.291 247.064 134.713 247.028 128.175 247.751L126.017 247.802C111.516 272.035 97.0349 296.275 82.5721 320.525C81.4748 322.371 80.4647 322.935 78.3317 322.509C68.7075 320.607 59.1653 318.371 49.6181 316.069L49.1053 316.941C59.8729 320.258 70.8611 322.55 81.9517 324.381C116.367 330.062 150.993 331.313 185.772 329.211C211.599 327.647 237.144 324.232 262.053 316.997C274.359 313.408 286.382 309.096 297.186 301.999C302.313 298.625 306.789 294.606 309.179 288.719C309.428 288.277 309.531 287.767 309.471 287.263C309.01 286.822 309.143 286.473 309.728 286.238Z" fill="#17263F"/>
<path d="M126.039 247.807L128.197 247.755C127.116 246.909 128.074 246.217 128.443 245.602C130.105 242.746 131.899 239.962 133.479 237.075C134.279 235.603 135.299 235.101 136.924 235.137C138.775 235.173 140.626 234.916 142.477 234.788C142.477 234.537 142.477 234.275 142.477 234.034H135.965C135.848 232.876 136.447 232.311 136.822 231.681C145.709 216.921 154.597 202.166 163.484 187.416C168.027 179.904 172.201 172.095 177.328 165.029C182.642 157.828 187.581 150.358 192.126 142.648C195.039 137.664 197.377 132.357 201.827 128.327C210.2 120.749 219.158 113.97 228.331 107.418C234.366 103.116 234.397 102.213 228.444 97.778C226.244 98.8855 228.48 99.1829 228.864 99.4803C232.551 102.321 232.576 103.095 228.736 105.777C221.322 110.955 214.066 116.355 207.155 122.185C202.791 125.866 198.171 129.363 195.362 134.49C192.203 140.254 188.998 145.986 185.507 151.549C183.128 155.339 180.646 159.061 177.462 162.44C178.113 152.831 174.073 144.412 171.36 135.68C169.894 130.958 168.468 126.22 166.93 121.523C166.361 119.785 166.868 119.405 168.535 119.687C170.806 120.072 173.098 120.298 175.375 120.631C178.723 121.118 181.42 120.093 183.994 117.811C189.865 112.606 196.028 107.741 202.386 103.131C203.342 102.442 204.421 101.942 205.565 101.659C211.205 100.178 217.102 99.7725 222.378 97.0447C222.711 96.8704 223.204 97.0089 223.624 96.9986C223.6 96.7435 223.661 96.4875 223.799 96.2712C223.936 96.0548 224.142 95.8904 224.383 95.8039C227.188 94.3272 229.362 92.066 231.659 89.9586L232.766 88.2102C235.166 83.0366 234.725 82.2623 229.177 82.7392C206.888 84.6466 184.604 86.6155 162.567 90.6303C161.741 90.7841 160.905 90.8662 159.69 91.0303C162.074 85.4978 164.402 80.2627 167.602 75.6069C171.678 69.6694 173.98 62.9883 176.57 56.415C178.697 51.0209 180.564 45.5243 182.897 40.2072C183.922 37.905 184.02 35.4028 184.235 32.9365C184.856 26.8214 184.77 20.6551 183.979 14.5598C183.343 10.1297 180.759 7.8941 176.657 7.8941C175.047 7.8941 174.483 8.46324 174.185 10.0374C172.724 17.7285 171.155 25.4197 169.545 33.1108C168.743 37.1416 167.154 40.9748 164.869 44.3911C161.136 49.8724 157.578 55.4561 153.814 61.9116C153.609 56.979 153.547 52.7847 153.245 48.611C152.307 35.613 151.481 22.5945 148.118 9.92457C147.405 7.26856 146.348 4.73048 144.277 2.8077C142.775 1.41303 141.078 0.438819 138.945 1.36176C136.894 2.25393 136.847 4.07928 136.976 5.92515C137.35 11.3807 137.791 16.8261 138.114 22.2817C138.242 24.4044 138.114 26.5426 138.114 28.8448C136.75 27.8193 135.442 26.7066 134.012 25.8093C131.597 24.3121 129.1 23.9224 126.572 25.676C125.121 26.7015 124.629 27.6809 125.511 29.5011C127.767 34.1773 130.766 38.5356 131.992 43.6631C133.125 48.3906 134.427 53.118 134.976 57.9224C135.345 61.1579 134.627 64.5419 134.227 67.8389C133.509 73.6842 132.638 79.5089 131.884 85.3491C131.708 86.6983 131.087 87.9503 130.12 88.9075C126.746 92.4967 124.701 96.5986 124.895 101.793C125.475 117.078 126.5 132.27 129.387 147.355C130.889 155.226 129.582 162.999 124.393 169.665C105.626 193.763 86.1884 217.35 67.0682 241.202C65.9863 242.551 64.6019 242.879 63.1047 243.223C48.4248 246.612 34.0578 250.914 20.7521 258.164C14.0352 261.825 7.77969 266.106 3.56496 272.746C1.71907 275.669 1.09866 278.956 1.00124 282.453C2.53946 274.192 7.42075 268.332 14.0454 263.645C18.8101 260.328 23.8965 257.499 29.2277 255.2C40.1132 250.416 51.4705 247.078 63.0329 244.387C63.5073 244.324 63.985 244.288 64.4635 244.279C60.5512 249.145 56.8851 253.703 53.2241 258.267C53.3113 258.625 53.4036 258.99 53.4907 259.348C56.1826 256.154 58.9309 253.006 61.551 249.76C81.2096 225.374 100.843 200.969 120.45 176.546C123.157 173.161 126.362 170.029 128.069 165.993C131.1 158.815 131.489 151.554 129.905 143.735C127.095 129.84 126.423 115.647 125.987 101.47C125.912 99.4146 126.265 97.3663 127.024 95.4551C127.783 93.5439 128.932 91.8117 130.397 90.3688C132.064 88.6556 133.086 86.418 133.289 84.0364C134.114 77.2682 135.027 70.5154 135.924 63.619C140.878 73.5457 140.026 84.4928 141.954 95.4604C142.29 95.0891 142.533 94.644 142.664 94.1611C142.795 93.6781 142.81 93.1711 142.708 92.6813C142.195 87.7589 141.616 82.8418 141.129 77.9194C140.396 70.4693 136.991 63.6703 135.899 56.3073C134.509 46.9497 131.822 38.0177 127.033 29.778C125.782 27.6244 126.434 26.3785 128.89 25.8606C129.778 25.6852 130.693 25.6977 131.576 25.8973C132.459 26.0969 133.291 26.4791 134.017 27.0194C136.817 28.8755 138.596 31.588 139.99 34.5311C144.903 44.9039 147.958 55.8869 150.876 66.957C153.122 75.4839 154.84 84.18 158.624 92.2967C161.444 98.3471 162.264 105.013 163.407 111.596C165.407 123.143 169.612 134.116 173.401 145.176C174.596 148.557 175.424 152.057 175.872 155.615C176.411 160.322 176.493 165.004 173.683 169.224C171.463 172.562 169.278 175.93 167.197 179.355C156.914 196.276 146.66 213.215 136.432 230.173C132.827 235.988 129.459 241.92 126.039 247.807ZM229.869 83.7288C230.859 83.9493 232.125 83.1597 232.694 84.3236C233.176 85.2978 232.525 86.3182 231.977 87.1796C231.387 88.1191 230.729 89.0137 230.008 89.8561C226.275 94.0965 221.435 96.4551 216.164 98.1471C209.539 100.27 202.658 100.619 195.828 101.275C192.003 101.639 188.281 102.003 184.661 103.623C178.746 106.286 172.646 108.514 166.407 110.289C165.151 110.643 164.12 110.92 164.007 108.94C163.725 103.874 162.31 99.0291 160.593 94.2913C159.982 92.6198 160.08 92.0916 162.028 91.7891C175.729 89.6715 189.398 87.3949 203.242 86.3181C212.118 85.6413 220.999 84.6056 229.854 83.7288H229.869ZM158.967 89.369C156.834 86.9796 156.829 84.1185 155.957 81.5753C154.163 76.3248 153.999 70.8641 153.763 65.4034C153.736 64.2924 154.068 63.2025 154.711 62.2961C157.034 58.6146 159.07 54.7178 161.68 51.2619C167.653 43.3554 171.006 34.4747 172.565 24.7839C173.314 20.1692 174.416 15.5545 175.129 10.9398C175.426 8.99137 176.405 8.79651 177.939 9.03237C180.815 9.47333 182.553 11.2936 182.912 15.0007C183.835 24.7992 184.276 34.4849 180.174 43.9399C175.252 55.2562 172.093 67.3261 165.079 77.7399C162.659 81.3343 161.013 85.4055 158.952 89.3844L158.967 89.369ZM152.235 67.885C152.009 67.0903 151.758 66.3058 151.568 65.5008C149.579 57.1123 147.389 48.7443 143.877 40.8891C141.067 34.6234 138.816 28.45 139.016 21.4049C139.165 16.057 138.375 10.6885 138.047 5.32525C137.981 4.2126 138.047 2.98714 139.247 2.44364C139.797 2.19682 140.404 2.10412 141.003 2.17547C141.602 2.24681 142.17 2.47951 142.647 2.84869C143.898 3.74342 144.89 4.95345 145.523 6.35587C146.428 8.28873 147.132 10.3092 147.625 12.3857C149.404 19.6154 150.256 26.9784 150.927 34.3722C151.937 45.5038 152.701 56.6457 152.219 67.885H152.235ZM201.33 102.305C195.972 106.592 190.614 110.191 186.132 114.668C181.379 119.411 176.318 120.349 170.124 118.857C164.997 117.621 166.217 118.898 164.756 113.652C164.402 112.366 164.648 111.832 165.971 111.509C171.101 110.247 176.1 108.503 180.902 106.3C187.26 103.362 193.823 101.849 201.315 102.321L201.33 102.305ZM201.515 102.023L201.668 101.936V102.075L201.515 102.023Z" fill="#323D62" stroke="#323D62" stroke-width="0.900503"/>
<path d="M232.744 88.2072L231.636 89.9557C234.025 89.6583 236.282 88.8481 238.553 88.12C247.49 85.2384 256.381 82.162 265.846 81.4903C272.333 81.0339 278.978 80.3981 285.033 83.208C294.437 87.5714 301.385 94.3037 303.451 105.005L304.799 104.641C303.81 99.6004 301.923 94.8985 298.247 91.3093C296.196 89.2584 296.026 87.1304 296.467 84.577C297.959 75.9167 299.544 67.277 300.569 58.5348C301.831 47.7979 299.898 38.2507 292.417 30.0211C288.98 26.3236 286.098 22.1474 283.859 17.623C281.059 11.8136 282.203 9.53705 288.474 8.25519C289.393 8.06725 290.326 7.95577 291.263 7.9219C300.964 7.58349 308.409 12.1777 314.301 19.2689C324.781 31.8721 330.067 46.6032 331.257 62.9187C331.631 68.0462 330.647 72.2916 327.191 76.3013C322.135 82.1773 318.341 89.1199 312.834 94.6319C310.001 97.4707 307.97 101.009 306.948 104.887L308.23 105.251C309.537 99.6926 312.726 95.8368 318.269 94.0474C319.643 93.5862 320.983 93.0293 322.279 92.3809C325.494 90.8427 328.811 90.653 332.252 91.417C338.835 92.8732 344.727 95.9035 350.249 99.6209C354.7 102.62 359.201 105.712 362.093 110.388C366.38 117.316 366.554 125.079 366.103 132.898C365.917 132.958 365.724 132.996 365.529 133.011C365.616 127.232 365.257 121.469 362.827 116.208C357.797 105.317 348.654 98.8364 338.02 94.2422C333.257 92.1912 331.144 93.3757 329.688 98.4108C328.483 102.6 327.996 106.927 327.514 111.229C329.714 112.886 331.867 114.598 334.656 116.065C334.277 109.471 335.308 103.39 336.707 97.3597C336.872 96.6418 336.477 95.1498 338.184 95.7753C347.414 100.072 355.515 105.743 360.617 114.783C363.385 119.7 364.057 125.273 364.057 130.883C364.057 134.18 365.349 136.82 368.246 138.384C371.876 140.348 375.425 139.794 378.414 137.025C383.434 132.38 385.254 126.34 384.972 119.674C384.567 110.132 380.28 102.318 373.558 95.8112C365.693 88.2021 356.797 82.3773 345.573 81.0955C343.891 80.9006 342.173 80.9468 340.476 80.8852C340.184 81.0647 339.661 81.239 339.63 80.8852C339.466 79.1265 338.764 77.3217 339.83 75.604C342.481 70.5483 345.906 65.9337 350.413 62.5701C358.571 56.4941 363.862 48.3927 368.39 39.594C370.225 36.0048 372.266 32.5695 373.722 28.8264C377.158 19.9919 374.717 11.024 367.241 5.21463C366.573 4.68719 365.847 4.23657 365.078 3.87124C363.678 3.22006 362.15 2.47143 360.719 3.55845C359.289 4.64546 359.817 6.18883 360.083 7.60913C360.955 12.2802 359.724 16.6488 357.827 20.7866C350.823 36.0459 344.619 51.7307 334.641 65.4517C334.175 66.0875 334.01 67.0412 332.78 67.2924C332.529 63.1905 332.549 59.0885 331.831 55.0943C329.191 40.3221 323.73 26.8319 313.132 15.9515C305.82 8.43978 297.026 4.48141 286.264 7.23484C281.511 8.46029 280.019 11.2137 281.582 15.9053C283.29 21.0327 286.797 25.068 289.95 29.3084C292.042 32.1131 294.237 34.8306 296.139 37.784C299.908 43.6498 299.6 50.136 299.159 56.6427C298.616 64.5749 297.149 72.384 295.729 80.1982C295.319 82.4594 294.96 84.7308 294.539 87.192C292.627 85.946 290.74 84.7154 288.853 83.4746C285.095 81.0083 280.88 80.1161 276.47 79.8392C265.19 79.1214 254.381 81.2647 243.778 84.8846C240.148 86.1614 236.528 87.474 232.744 88.2072ZM362.386 46.8032L362.442 46.8493H362.345L362.309 46.957C362.338 46.9075 362.363 46.8561 362.386 46.8032ZM325.53 81.3211C325.453 81.5467 325.417 81.8697 325.099 81.5108C325.099 81.5108 325.299 81.3159 325.407 81.2134C325.43 80.8941 325.537 80.5867 325.717 80.322C325.897 80.0573 326.144 79.8448 326.432 79.7059C333.611 69.873 340.275 59.6745 346.398 49.1516C350.382 42.3424 352.515 34.723 356.14 27.7548C359.658 21.0327 363.042 14.1363 361.304 6.06577C361.011 4.707 361.919 4.28655 363.232 4.65573C369.385 6.3888 374.22 14.8132 372.492 20.9353C371.871 23.1555 371.236 25.3705 370.538 27.5702C367.975 35.6203 364.744 43.2242 358.125 48.967C352.32 54.0021 347.024 59.5756 341.681 65.0927C336.948 69.9792 332.18 74.8349 327.432 79.7059C326.955 80.3879 326.478 81.1211 325.555 81.3211H325.53ZM318.623 91.8989C318.654 91.5672 318.777 91.2508 318.98 90.986C319.182 90.7213 319.454 90.5188 319.766 90.4018C326.914 86.4742 334.303 83.1054 342.573 82.5927C350.352 82.1107 357.053 85.3563 363.365 89.4788C371.851 95.0164 378.829 101.887 382.034 111.814C384.598 119.705 384.275 127.34 379.086 134.226C376.322 137.887 372.84 138.841 369.21 137.302C367.934 136.79 367.41 136.056 367.462 134.61C367.58 131.283 367.657 127.945 367.462 124.622C367.036 117.675 365.58 111.04 360.283 105.958C352.843 98.8107 344.281 93.4936 334.374 90.4582C330.17 89.1763 325.996 89.0327 321.879 90.9709C320.941 91.417 319.977 92.0938 318.649 91.8989H318.623ZM361.519 48.1158C359.144 52.5417 355.844 56.4046 351.844 59.4423C345.891 64.057 340.563 69.4972 337.866 76.4295C335.815 81.7261 332.226 83.7771 327.488 85.1769C327.25 85.2695 327.007 85.3499 326.76 85.4179C325.991 85.5512 325.068 86.5049 324.499 85.5204C324.063 84.7667 325.119 84.2386 325.622 83.7258C332.667 76.4346 339.726 69.1605 346.798 61.9035C351.515 57.0837 356.258 52.346 361.545 48.1158H361.519ZM371.579 29.0777L373.276 23.3503C373.423 25.3981 372.83 27.4305 371.605 29.0777H371.579ZM317.895 92.1451L318.044 92.0682V92.345C317.992 92.345 317.926 92.345 317.89 92.2835C317.854 92.222 317.921 92.2168 317.921 92.1656L317.895 92.1451Z" fill="#652FEB" stroke="#652FEB" stroke-width="0.900503"/>
<path d="M53.4297 259.318C53.3425 258.959 53.2502 258.595 53.1631 258.236C40.3855 261.636 27.8233 265.599 16.384 272.444C11.3078 275.48 6.64189 279.013 3.31419 284.043C1.55035 286.694 1.41188 288.196 3.21673 291.334C5.74968 295.723 9.50301 298.907 13.5793 301.758C14.692 302.537 15.8507 303.245 16.989 303.983L18.1837 302.645L53.4297 259.318Z" fill="#17263F"/>
<path d="M304.813 104.639L303.464 105.003C301.162 108.849 301.382 111.433 304.382 114.976C306.771 117.796 309.75 119.909 312.76 122.006C316.795 124.821 321.477 126.703 324.979 130.276C327.732 132.03 330.019 134.378 332.547 136.383C333.06 136.814 333.572 137.27 333.49 138.08C333.316 140.495 333.188 142.91 333.044 145.331C330.527 140.818 326.604 139.301 321.866 139.255C321.69 139.235 321.518 139.192 321.354 139.126C318.734 138.865 316.062 138.829 313.498 138.301C304.008 136.352 294.788 136.701 285.81 140.742C283.206 141.911 280.509 143.039 277.606 143.382C276.878 144.705 276.909 146.166 276.827 147.602C279.555 152.627 281.508 153.586 287.374 152.663C290.148 152.227 292.896 151.637 295.67 151.207C298.193 150.822 300.977 150.017 303.218 151.284C307.038 153.447 311.13 154.806 315.18 156.339C320.559 157.278 320.651 157.365 320.733 162.615L314.668 157.565C312.278 156.349 309.617 156.349 307.074 155.801C298.967 154.057 291.374 154.919 284.154 159.144C281.078 160.944 278.206 163.128 274.827 164.405C274.06 165.068 273.237 165.663 272.366 166.184C270.433 167.138 270.536 168.389 271.669 169.835C272.612 171.034 273.638 172.173 274.627 173.337C277.092 173.707 279.612 173.351 281.878 172.311C285.103 170.973 288.277 169.506 291.471 168.086C292.558 167.573 293.609 166.963 294.881 167.256C299.706 168.368 304.392 169.819 308.622 172.501C310.791 174.695 312.499 177.239 314.201 179.787C315.093 181.12 315.073 181.966 313.278 182.566C312.096 182.937 311.02 183.583 310.138 184.453C309.256 185.322 308.594 186.389 308.207 187.565C310.366 185.607 312.493 183.745 315.411 182.986C316.395 182.735 316.411 181.566 315.924 180.792C313.447 176.639 311.309 172.142 306.535 170.024C303.243 168.595 299.856 167.396 296.398 166.435C295.545 166.173 294.646 166.088 293.759 166.185C292.871 166.282 292.012 166.559 291.235 166.999C288.6 168.394 285.821 169.522 283.072 170.701C281.217 171.579 279.236 172.16 277.201 172.424C275.422 172.598 272.982 170.717 272.505 168.778C272.028 166.84 273.843 166.635 274.874 165.979C277.606 164.23 280.514 162.733 283.195 160.938C289.148 156.98 295.67 155.647 302.715 156.134C309.14 156.58 314.965 157.995 319.518 163.184C325.504 170 331.133 177.081 336.408 184.427C337.613 186.104 337.587 186.119 337.028 188.088C337.028 188.119 337.192 188.216 337.295 188.252C339.187 188.873 337.951 190.129 337.7 190.965C336.96 193.532 335.499 195.833 333.49 197.594C323.323 206.311 313.811 215.864 301.7 222.022C294.937 225.462 290.205 230.225 288.215 237.999C285.815 247.397 281.919 256.391 279.314 265.764L280.903 265.718C280.821 262.405 282.442 259.565 283.436 256.545C283.729 255.652 284.462 256.319 284.923 256.545C292.004 259.965 298.824 263.795 304.1 269.789C307.961 274.173 310.253 279.141 308.956 285.171L309.93 285.202C311.719 278.772 308.904 273.675 304.961 269.091C299.983 263.287 293.496 259.447 286.703 256.175C284.616 255.15 283.836 254.386 284.811 251.884C287 246.244 288.912 240.491 290.599 234.676C291.748 230.687 294.189 228.01 297.527 225.872C298.896 225.006 300.224 224.057 301.67 223.309C313.719 217.233 323.205 207.813 333.352 199.21C336.613 196.441 338.925 192.995 339.356 188.555C339.386 187.969 339.553 187.398 339.843 186.888C342.771 182.469 342.986 177.823 341.14 172.967C340.925 172.398 340.787 171.778 341.264 171.275C344.407 167.932 344.073 163.492 344.817 159.482C346.504 150.345 347.801 141.131 349.365 131.963C349.749 129.723 349.365 127.974 347.539 126.544C344.309 124.021 341.233 121.298 337.895 118.94C336.116 117.683 335.546 116.253 335.541 114.228C335.541 107.946 336.803 101.855 338.131 95.7688C336.423 95.1433 336.818 96.6354 336.654 97.3532C335.259 103.383 334.229 109.464 334.603 116.058C331.814 114.592 329.66 112.879 327.46 111.223C324.138 108.991 320.381 107.486 316.436 106.808C313.668 106.378 310.93 105.783 308.176 105.224L306.894 104.86L304.813 104.639ZM339.254 185.653C338.525 185.525 338.351 185.002 338.054 184.602C334.295 179.638 330.783 174.46 326.691 169.783C323.82 166.502 321.749 163.148 321.533 158.77C321.451 157.057 320.508 156.339 318.877 155.929C314.262 154.78 309.525 153.76 305.423 151.166C303.411 149.836 300.971 149.318 298.593 149.715C294.63 150.325 290.681 151.012 286.738 151.704C285.057 152.043 283.317 151.956 281.678 151.453C279.34 150.694 278.468 148.956 278.273 146.587C278.078 144.218 279.811 144.09 281.298 143.572C283.549 142.777 285.769 141.859 288.072 141.244C292.876 139.967 297.357 137.383 302.664 138.106C310.437 139.173 318.246 139.947 326.04 140.859C327.578 141.044 328.671 141.987 329.568 143.187C333.157 147.951 335.859 153.165 337.259 158.964C338.551 164.435 339.31 170.045 340.761 175.459C341.771 179.254 341.069 182.453 339.254 185.642V185.653ZM348.58 129.471C348.462 130.497 348.437 130.84 348.38 131.179C346.832 140.695 345.28 150.21 343.725 159.723C343.294 162.333 342.797 164.933 342.253 167.522C342.099 168.25 341.797 169.281 341.007 169.296C339.905 169.296 340.294 168.127 340.166 167.481C339.351 163.205 339.064 158.703 337.09 154.837C334.541 149.901 333.668 144.269 334.603 138.793C334.711 138.163 334.638 137.515 334.393 136.924C334.148 136.334 333.741 135.824 333.219 135.455C328.091 131.189 323.061 126.867 317.231 123.529C312.483 120.816 307.91 117.786 304.49 113.376C302.951 111.423 302.331 109.203 303.613 106.926C304.818 104.793 306.766 106.203 308.227 106.465C313.257 107.357 318.641 107.434 323.097 110.054C331.701 115.14 339.623 121.257 347.196 127.769C347.965 128.39 348.662 129.061 348.58 129.471Z" fill="#323D62" stroke="#323D62" stroke-width="0.900503"/>
<path d="M18.1868 302.646L16.992 303.985C27.1136 309.794 37.9069 313.927 49.1513 316.942L49.6641 316.07C48.9002 315.719 48.118 315.409 47.3208 315.142C37.8863 312.527 28.9338 308.687 20.1454 304.374C19.3455 304 18.2739 303.862 18.1868 302.646Z" fill="#323D62"/>
<path d="M339.854 75.627C338.787 77.3446 339.49 79.1495 339.654 80.9082C339.685 81.2518 340.208 81.0774 340.5 80.9082C340.413 79.1239 340.674 77.3088 339.854 75.627Z" fill="#323D62"/>
<path d="M309.727 286.238C309.142 286.474 309.009 286.802 309.511 287.264L309.727 286.238Z" fill="#323D62"/>
<path d="M18.1875 302.645C18.2747 303.861 19.3463 303.999 20.1462 304.389C28.9141 308.686 37.8666 312.526 47.3215 315.156C48.1093 315.413 48.8829 315.71 49.6392 316.049C59.1659 318.351 68.7081 320.586 78.3528 322.489C80.4858 322.914 81.4959 322.35 82.5932 320.504C97.0149 296.234 111.496 271.994 126.038 247.782C129.473 241.896 132.842 235.963 136.365 230.123C146.585 213.162 156.84 196.222 167.129 179.305C169.211 175.88 171.395 172.511 173.615 169.173C176.425 164.953 176.343 160.272 175.805 155.565C175.357 152.007 174.528 148.507 173.333 145.126C169.544 134.066 165.34 123.078 163.34 111.546C162.197 104.963 161.376 98.2969 158.556 92.2465C154.772 84.1298 153.054 75.4336 150.809 66.9067C147.891 55.8366 144.835 44.8588 139.923 34.4809C138.528 31.5377 136.749 28.8407 133.95 26.9692C133.223 26.4289 132.392 26.0466 131.508 25.8471C130.625 25.6475 129.71 25.635 128.822 25.8104C126.366 26.3231 125.715 27.5742 126.966 29.7277C131.755 37.9675 134.442 46.8995 135.831 56.2571C136.923 63.6201 140.328 70.419 141.061 77.8692C141.574 82.7915 142.133 87.7087 142.64 92.6311C142.742 93.1209 142.727 93.6279 142.596 94.1108C142.465 94.5937 142.222 95.0389 141.887 95.4101C139.964 84.4425 140.81 73.4955 135.857 63.5688C134.96 70.4652 134.047 77.218 133.221 83.9862C133.018 86.3677 131.996 88.6054 130.33 90.3186C128.864 91.7615 127.715 93.4937 126.956 95.4049C126.197 97.3161 125.844 99.3644 125.92 101.419C126.356 115.597 127.027 129.79 129.837 143.685C131.422 151.504 131.032 158.775 128.002 165.943C126.294 169.978 123.09 173.121 120.382 176.495C100.806 200.943 81.1728 225.348 61.4835 249.71C58.8634 252.956 56.1151 256.104 53.4232 259.298L18.1875 302.645Z" fill="#652FEB"/>
<path d="M274.63 173.339C273.641 172.175 272.615 171.037 271.672 169.837C270.538 168.391 270.436 167.14 272.369 166.186C273.24 165.666 274.063 165.071 274.83 164.407C275.163 158.767 275.979 153.183 276.83 147.605C276.912 146.169 276.881 144.708 277.609 143.385C278.291 140.308 278.937 137.232 279.66 134.155C281.619 125.762 283.639 117.358 283.347 108.667C283.101 101.273 281.809 94.0435 275.568 89.1263C268.067 83.24 259.725 83.0708 251.172 86.6446C245.429 89.0391 239.799 91.69 234.052 94.0692C230.703 95.4536 227.448 97.3251 223.602 96.9969C223.181 96.9969 222.689 96.8687 222.356 97.043C217.08 99.7811 211.163 100.186 205.543 101.658C204.399 101.941 203.32 102.44 202.364 103.129C196.006 107.744 189.843 112.605 183.972 117.809C181.408 120.091 178.701 121.116 175.353 120.629C173.076 120.296 170.784 120.07 168.513 119.686C166.846 119.404 166.339 119.783 166.908 121.521C168.446 126.218 169.872 130.956 171.338 135.678C174.05 144.395 178.091 152.83 177.44 162.438C180.624 159.059 183.08 155.337 185.485 151.548C188.976 145.984 192.181 140.267 195.34 134.489C198.149 129.361 202.769 125.859 207.133 122.183C214.044 116.353 221.3 110.954 228.714 105.775C232.554 103.093 232.529 102.319 228.842 99.4786C228.458 99.1812 226.222 98.8838 228.422 97.7763C229.96 97.1969 231.462 96.6534 232.959 96.0381C240.379 92.9616 247.501 89.234 255.136 86.7113C266.416 82.9836 277.481 88.7623 280.773 100.089C282.347 105.519 282.116 111.067 281.609 116.614C280.886 124.552 278.419 132.14 276.896 139.919C276.963 141.098 276.43 142.031 275.784 142.995C274.655 144.6 273.609 146.261 272.651 147.974C265.098 161.915 260.858 177.031 257.181 192.316C255.325 200.007 254.792 207.996 251.362 215.302C249.08 220.168 247.132 225.188 244.912 230.084C241.676 237.227 238.328 244.323 235.031 251.445C231.062 260.044 227.14 268.663 223.11 277.231C215.701 292.993 208.24 308.724 200.785 324.475C200.467 325.152 199.975 325.793 200.098 326.885C205.43 326.29 210.763 325.768 216.075 325.086C230.982 323.182 245.751 320.317 260.289 316.507C262.099 316.031 262.914 315.113 263.478 313.395C268.405 298.3 273.42 283.235 278.419 268.166C278.686 267.361 279.029 266.576 279.337 265.782C281.942 256.409 285.839 247.415 288.238 238.017C290.228 230.218 294.96 225.48 301.723 222.04C313.84 215.887 323.351 206.314 333.514 197.612C335.522 195.851 336.983 193.55 337.723 190.983C337.974 190.147 339.21 188.891 337.318 188.27C337.216 188.234 337.041 188.137 337.051 188.106C337.61 186.137 337.636 186.122 336.431 184.445C331.143 177.092 325.513 170.012 319.541 163.202C314.988 158.013 309.163 156.598 302.739 156.152C295.694 155.665 289.172 156.998 283.219 160.956C280.522 162.751 277.63 164.248 274.897 165.997C273.871 166.653 272.051 166.879 272.528 168.796C273.005 170.714 275.445 172.616 277.225 172.442C279.26 172.178 281.241 171.597 283.096 170.719C285.844 169.54 288.623 168.412 291.258 167.017C292.035 166.577 292.894 166.3 293.782 166.203C294.67 166.106 295.568 166.191 296.422 166.453C299.88 167.414 303.267 168.613 306.559 170.042C311.353 172.186 313.47 176.682 315.947 180.81C316.408 181.584 316.393 182.753 315.434 183.004C312.517 183.763 310.389 185.625 308.23 187.583C308.617 186.407 309.279 185.34 310.161 184.471C311.043 183.601 312.12 182.954 313.301 182.584C315.096 181.984 315.116 181.138 314.224 179.805C312.522 177.241 310.814 174.713 308.646 172.519C308.215 173.447 307.753 174.36 307.348 175.303C303.185 184.973 296.545 192.603 288.095 198.761C287.46 199.262 286.734 199.633 285.956 199.853C285.178 200.073 284.365 200.137 283.562 200.043C279.896 199.648 278.317 197.228 277.378 194.09C275.431 187.349 274.505 180.355 274.63 173.339Z" fill="#652FEB"/>
<path d="M167.543 234.726C173.496 235.06 179.449 235.403 185.396 235.721C202.474 236.706 219.475 238.73 236.307 241.782C237.625 242.018 238.178 242.361 237.455 243.935C236.327 246.391 234.892 248.74 234.276 251.421H235.035C238.332 244.299 241.701 237.203 244.916 230.06C247.136 225.164 249.084 220.144 251.366 215.278C254.796 207.971 255.33 199.973 257.186 192.292C260.888 177.007 265.102 161.891 272.655 147.95C273.613 146.237 274.659 144.576 275.788 142.971C276.434 142.028 276.967 141.094 276.901 139.895C274.388 142.397 272.655 145.442 271.03 148.534C264.313 161.322 260.262 175.058 256.842 188.995C255.335 195.148 254.863 201.598 252.935 207.592C249.346 218.642 244.116 229.04 239.393 239.633C238.978 240.572 238.563 241.064 237.307 240.838C231.272 239.751 225.226 238.787 219.14 237.957C210.936 236.87 202.768 235.747 194.487 235.393C191.032 235.239 187.514 235.362 184.115 234.834C178.608 233.988 173.101 233.962 167.574 234.009L167.543 234.726Z" fill="#323D62" stroke="#323D62" stroke-width="0.900503"/>
<path d="M223.609 96.9933C227.455 97.3214 230.711 95.4551 234.059 94.0655C239.807 91.6864 245.437 89.0355 251.18 86.6409C259.732 83.0517 268.1 83.2364 275.576 89.1227C281.837 94.0399 283.108 101.27 283.354 108.663C283.647 117.38 281.626 125.758 279.668 134.152C278.95 137.228 278.304 140.305 277.617 143.381C280.524 143.038 283.221 141.91 285.821 140.74C294.794 136.7 304.013 136.351 313.509 138.3C316.072 138.813 318.744 138.864 321.364 139.125C322.246 136.049 323.697 133.198 324.953 130.275C321.436 126.686 316.749 124.82 312.734 122.005C309.725 119.908 306.746 117.795 304.356 114.975C301.357 111.432 301.136 108.848 303.438 105.002C301.387 94.3014 294.424 87.569 285.021 83.2056C278.965 80.3958 272.32 81.0316 265.834 81.4879C256.369 82.1596 247.478 85.236 238.541 88.1177C236.269 88.8457 234.013 89.6559 231.624 89.9533C229.327 92.0607 227.152 94.3218 224.348 95.7985C224.11 95.8887 223.909 96.0546 223.776 96.2706C223.642 96.4866 223.584 96.7406 223.609 96.9933Z" fill="#F9B720"/>
<path d="M229.847 83.7265C220.992 84.6033 212.111 85.639 203.184 86.3363C189.34 87.4131 175.671 89.6897 161.97 91.8073C160.042 92.1099 159.919 92.638 160.534 94.3095C162.252 99.0473 163.667 103.893 163.949 108.959C164.062 110.938 165.093 110.661 166.349 110.307C172.587 108.532 178.688 106.304 184.603 103.641C188.222 102.021 191.945 101.657 195.77 101.293C202.6 100.637 209.481 100.268 216.105 98.1654C221.397 96.4733 226.237 94.1147 229.95 89.8743C230.671 89.0319 231.329 88.1373 231.918 87.1978C232.467 86.3364 233.118 85.316 232.636 84.3418C232.103 83.1573 230.837 83.947 229.847 83.7265Z" fill="#652FEB"/>
<path d="M158.957 89.3881C161.008 85.4093 162.665 81.3381 165.069 77.7694C172.084 67.3556 175.242 55.2856 180.165 43.9693C184.266 34.5349 183.826 24.8286 182.903 15.0301C182.554 11.323 180.805 9.50275 177.929 9.0618C176.391 8.82593 175.417 9.02076 175.119 10.9692C174.406 15.5839 173.304 20.1986 172.555 24.8132C171.017 34.5041 167.643 43.3848 161.67 51.2913C159.06 54.7472 157.024 58.6441 154.702 62.3256C154.059 63.2319 153.726 64.3218 153.753 65.4328C153.989 70.8935 154.153 76.3542 155.948 81.6047C156.809 84.1376 156.809 86.9988 158.957 89.3881Z" fill="#652FEB"/>
<path d="M152.223 67.8814C152.735 56.6267 151.941 45.4848 150.925 34.3582C150.254 26.9645 149.387 19.6015 147.623 12.3718C147.131 10.299 146.429 8.28199 145.526 6.35222C144.887 4.94674 143.885 3.73639 142.624 2.84504C142.147 2.47585 141.579 2.24316 140.98 2.17181C140.382 2.10047 139.775 2.19316 139.225 2.43998C138.02 2.98349 137.958 4.20894 138.025 5.3216C138.353 10.6849 139.143 16.0533 138.994 21.4012C138.794 28.4463 141.045 34.6197 143.855 40.8854C147.382 48.7509 149.572 57.1189 151.546 65.4971C151.746 66.3431 151.997 67.102 152.223 67.8814Z" fill="#652FEB"/>
<path d="M167.578 234.02C159.2 233.723 150.825 233.723 142.454 234.02C142.454 234.271 142.454 234.533 142.454 234.774L167.537 234.712L167.578 234.02Z" fill="#323D62" stroke="#17263F" stroke-width="0.900503"/>
<path d="M201.497 102.037L201.672 102.088L201.651 101.949L201.497 102.037Z" fill="#F8E1C9"/>
<path d="M304.801 104.636L306.929 104.877C307.951 100.999 309.982 97.4609 312.815 94.622C318.296 89.0895 322.091 82.1675 327.172 76.2915C330.628 72.2818 331.612 68.0107 331.238 62.9089C330.048 46.5934 324.762 31.8623 314.281 19.2591C308.39 12.1678 300.95 7.57363 291.244 7.91204C290.307 7.94591 289.374 8.0574 288.455 8.24534C282.204 9.5272 281.061 11.8038 283.84 17.6132C286.078 22.1376 288.961 26.3137 292.398 30.0113C299.878 38.2152 301.812 47.7881 300.55 58.5249C299.525 67.2416 297.986 75.9069 296.448 84.5671C296.007 87.1308 296.166 89.2588 298.227 91.2995C301.909 94.9194 303.811 99.5957 304.801 104.636Z" fill="#FCEFE3"/>
<path d="M318.655 91.8985C319.983 92.0933 320.947 91.4165 321.906 90.9704C326.008 89.0477 330.197 89.1912 334.402 90.4577C344.308 93.4931 352.86 98.8103 360.311 105.958C365.602 111.039 367.058 117.674 367.489 124.622C367.694 127.939 367.617 131.287 367.489 134.61C367.438 136.056 367.961 136.769 369.237 137.302C372.868 138.84 376.349 137.871 379.113 134.225C384.302 127.339 384.604 119.705 382.061 111.813C378.857 101.887 371.878 95.016 363.392 89.4783C357.08 85.3764 350.379 82.1102 342.6 82.5922C334.33 83.105 326.941 86.4737 319.794 90.4013C319.483 90.5191 319.211 90.7219 319.01 90.9867C318.808 91.2514 318.686 91.5673 318.655 91.8985Z" fill="#FCEFE3"/>
<path d="M327.467 79.7032C332.215 74.8322 336.984 69.9611 341.716 65.09C347.059 59.5729 352.356 53.9994 358.16 48.9643C364.779 43.2215 368.03 35.6329 370.573 27.5675C371.271 25.3678 371.907 23.1528 372.527 20.9326C374.255 14.8104 369.451 6.38607 363.267 4.653C361.954 4.28383 361.047 4.70428 361.339 6.06305C363.077 14.1336 359.693 21.03 356.176 27.7521C352.53 34.7203 350.397 42.3396 346.434 49.1489C340.311 59.6718 333.646 69.8703 326.467 79.7032H327.467Z" fill="#FCEFE3"/>
<path d="M308.215 105.247C310.968 105.759 313.706 106.4 316.475 106.831C320.42 107.509 324.176 109.014 327.499 111.246C327.981 106.923 328.468 102.596 329.673 98.4271C331.129 93.392 333.262 92.1973 338.005 94.2585C348.639 98.8732 357.782 105.334 362.812 116.224C365.242 121.485 365.601 127.248 365.514 133.027C365.709 133.012 365.902 132.974 366.088 132.914C366.539 125.095 366.365 117.332 362.078 110.405C359.186 105.729 354.685 102.637 350.234 99.6372C344.712 95.9198 338.82 92.8895 332.237 91.4333C328.796 90.6693 325.479 90.8334 322.264 92.3973C320.968 93.0457 319.628 93.6025 318.254 94.0637C312.711 95.8327 309.522 99.6782 308.215 105.247Z" fill="#F9B720"/>
<path d="M361.539 48.1133C356.273 52.3434 351.51 57.0812 346.818 61.9009C339.746 69.1614 332.687 76.4355 325.642 83.7233C325.129 84.236 324.104 84.7488 324.519 85.5179C325.088 86.5024 326.011 85.5487 326.78 85.4153C327.027 85.3474 327.27 85.2669 327.508 85.1743C332.241 83.7745 335.815 81.7236 337.886 76.4269C340.594 69.4947 345.911 64.0391 351.864 59.4398C355.864 56.4021 359.164 52.5391 361.539 48.1133Z" fill="#F9B720"/>
<path d="M371.596 29.075C372.83 27.4313 373.432 25.3986 373.293 23.3477L371.596 29.075Z" fill="#F9B720"/>
<path d="M327.477 79.7051H326.451C326.163 79.844 325.916 80.0565 325.736 80.3212C325.556 80.5858 325.449 80.8933 325.426 81.2125L325.554 81.3254C326.482 81.1203 326.959 80.387 327.477 79.7051Z" fill="#F8E1C9"/>
<path d="M325.439 81.2188C325.332 81.3213 325.132 81.511 325.132 81.5161C325.45 81.8751 325.486 81.552 325.562 81.3315L325.439 81.2188Z" fill="#F8E1C9"/>
<path d="M362.406 46.7969L362.32 46.9445L362.355 46.8376L362.406 46.7969Z" fill="#F9B720"/>
<path d="M362.348 46.8637H362.445C362.445 46.8637 362.389 46.8176 362.394 46.8125L362.348 46.8637Z" fill="#F9B720"/>
<path d="M339.233 185.639C341.048 182.45 341.75 179.25 340.714 175.445C339.243 170.031 338.504 164.421 337.212 158.951C335.838 153.151 333.11 147.937 329.521 143.173C328.624 141.974 327.542 141.03 325.994 140.846C318.2 139.933 310.391 139.159 302.618 138.092C297.311 137.369 292.829 139.953 288.025 141.23C285.723 141.845 283.503 142.768 281.252 143.558C279.775 144.071 278.026 144.184 278.226 146.573C278.426 148.962 279.293 150.675 281.631 151.439C283.271 151.942 285.01 152.029 286.692 151.69C290.635 150.998 294.583 150.311 298.546 149.701C300.925 149.304 303.365 149.823 305.376 151.152C309.478 153.746 314.2 154.741 318.831 155.915C320.487 156.325 321.394 157.043 321.487 158.756C321.702 163.135 323.773 166.488 326.645 169.769C330.747 174.446 334.249 179.624 338.007 184.588C338.304 184.988 338.504 185.511 339.233 185.639Z" fill="#652FEB"/>
<path d="M348.567 129.469C348.624 129.059 347.926 128.382 347.213 127.777C339.62 121.265 331.698 115.148 323.115 110.061C318.669 107.431 313.285 107.354 308.245 106.472C306.763 106.211 304.815 104.801 303.63 106.934C302.348 109.21 302.989 111.43 304.507 113.384C307.927 117.794 312.501 120.824 317.249 123.536C323.079 126.874 328.119 131.197 333.236 135.463C333.758 135.832 334.165 136.341 334.41 136.932C334.655 137.523 334.728 138.17 334.62 138.801C333.685 144.277 334.558 149.908 337.107 154.844C339.081 158.711 339.369 163.212 340.184 167.489C340.312 168.135 339.922 169.324 341.025 169.304C341.814 169.304 342.117 168.278 342.271 167.53C342.814 164.966 343.296 162.341 343.742 159.731C345.311 150.218 346.863 140.703 348.398 131.186C348.449 130.838 348.475 130.494 348.567 129.469Z" fill="#652FEB"/>
<path d="M274.638 173.33C274.506 180.343 275.426 187.336 277.366 194.076C278.304 197.214 279.883 199.634 283.549 200.029C284.352 200.123 285.166 200.059 285.943 199.839C286.721 199.619 287.448 199.248 288.082 198.747C296.532 192.594 303.172 184.959 307.336 175.289C307.741 174.346 308.202 173.433 308.633 172.505C304.403 169.839 299.716 168.372 294.891 167.259C293.62 166.967 292.569 167.603 291.482 168.09C288.287 169.51 285.113 170.977 281.888 172.315C279.621 173.351 277.102 173.704 274.638 173.33Z" fill="#F9B720"/>
<path d="M276.842 147.604C275.991 153.182 275.176 158.766 274.842 164.406C278.221 163.129 281.093 160.945 284.169 159.145C291.389 154.92 298.982 154.059 307.089 155.802C309.653 156.351 312.293 156.351 314.683 157.566L315.195 156.341C311.145 154.802 307.053 153.449 303.233 151.285C300.992 150.019 298.208 150.824 295.685 151.208C292.911 151.634 290.163 152.234 287.389 152.664C281.523 153.587 279.57 152.628 276.842 147.604Z" fill="#F9B720"/>
<path d="M324.978 130.277C323.707 133.2 322.256 136.046 321.389 139.127C321.553 139.193 321.726 139.236 321.902 139.255C326.64 139.302 330.562 140.794 333.08 145.331C333.223 142.911 333.351 140.496 333.526 138.081C333.587 137.271 333.116 136.815 332.582 136.384C330.003 134.354 327.716 132.031 324.978 130.277Z" fill="#652FEB"/>
<path d="M315.189 156.34L314.676 157.565L320.742 162.616C320.66 157.376 320.568 157.278 315.189 156.34Z" fill="#652FEB"/>
</svg>
