<svg width="170" height="170" viewBox="0 0 170 170" fill="none" xmlns="http://www.w3.org/2000/svg">
<rect width="170" height="170" rx="30" fill="#FF9072"/>
<path d="M58 132C55.525 132 53.407 131.124 51.646 129.372C49.882 127.618 49 125.51 49 123.048V78.2857C49 75.8238 49.882 73.7155 51.646 71.9609C53.407 70.2092 55.525 69.3333 58 69.3333H62.5V60.381C62.5 54.1889 64.6945 48.91 69.0835 44.5442C73.4695 40.1814 78.775 38 85 38C91.225 38 96.532 40.1814 100.921 44.5442C105.307 48.91 107.5 54.1889 107.5 60.381V69.3333H112C114.475 69.3333 116.594 70.2092 118.358 71.9609C120.119 73.7155 121 75.8238 121 78.2857V123.048C121 125.51 120.119 127.618 118.358 129.372C116.594 131.124 114.475 132 112 132H58ZM85 109.619C87.475 109.619 89.5945 108.743 91.3585 106.992C93.1195 105.237 94 103.129 94 100.667C94 98.2048 93.1195 96.0965 91.3585 94.3418C89.5945 92.5901 87.475 91.7143 85 91.7143C82.525 91.7143 80.407 92.5901 78.646 94.3418C76.882 96.0965 76 98.2048 76 100.667C76 103.129 76.882 105.237 78.646 106.992C80.407 108.743 82.525 109.619 85 109.619ZM71.5 69.3333H98.5V60.381C98.5 56.6508 97.1875 53.4802 94.5625 50.869C91.9375 48.2579 88.75 46.9524 85 46.9524C81.25 46.9524 78.0625 48.2579 75.4375 50.869C72.8125 53.4802 71.5 56.6508 71.5 60.381V69.3333Z" fill="white"/>
</svg>
