<svg width="123" height="123" viewBox="0 0 123 123" fill="none" xmlns="http://www.w3.org/2000/svg">
<path d="M61.5 0L67.6972 6.49803L75.185 1.54193L79.7809 9.25606L88.1839 6.09042L90.948 14.6338L99.8446 13.4174L100.638 22.3616L109.583 23.1554L108.366 32.052L116.91 34.8162L113.744 43.2191L121.458 47.815L116.502 55.3028L123 61.5L116.502 67.6972L121.458 75.185L113.744 79.7809L116.91 88.1839L108.366 90.948L109.583 99.8446L100.638 100.638L99.8446 109.583L90.948 108.366L88.1839 116.91L79.7809 113.744L75.185 121.458L67.6972 116.502L61.5 123L55.3028 116.502L47.815 121.458L43.2191 113.744L34.8162 116.91L32.052 108.366L23.1554 109.583L22.3616 100.638L13.4174 99.8446L14.6338 90.948L6.09042 88.1839L9.25606 79.7809L1.54193 75.185L6.49803 67.6972L0 61.5L6.49803 55.3028L1.54193 47.815L9.25606 43.2191L6.09042 34.8162L14.6338 32.052L13.4174 23.1554L22.3616 22.3616L23.1554 13.4174L32.052 14.6338L34.8162 6.09042L43.2191 9.25606L47.815 1.54193L55.3028 6.49803L61.5 0Z" fill="white"/>
<path fill-rule="evenodd" clip-rule="evenodd" d="M45.1428 32.6895L49.7838 37.3304L25.5984 61.5154L49.7838 85.7005L45.1428 90.3414L16.3164 61.5154L45.1428 32.6895Z" fill="#0A0517"/>
<path d="M58.6525 28.5533L52.9907 24.8354C50.36 27.9241 51.4466 32.5572 55.1067 36.218C58.7669 39.8787 63.2849 40.6223 65.9156 37.9912C70.6052 33.3008 61.3404 26.0937 63.8568 23.577C64.4859 22.9478 65.4867 23.0336 66.4875 24.0346C67.7457 25.2929 67.8601 26.6657 66.7163 27.8097L72.0921 31.3561C74.4083 28.8107 73.5505 24.4636 69.9189 20.8314C66.5161 17.4281 62.6558 16.7703 60.1966 19.2298C55.5071 23.9202 64.4287 31.0129 61.9123 33.5296C61.1403 34.3018 59.8821 34.1302 58.8813 33.1292C57.5659 31.8137 57.4515 29.8689 58.6525 28.5533Z" fill="#0A0517"/>
<path d="M62.2567 98.1518L58.5384 103.813C61.6275 106.444 66.2611 105.357 69.9222 101.697C73.5833 98.0374 74.327 93.5198 71.6955 90.8894C67.0047 86.2002 59.7969 95.4641 57.2799 92.948C56.6507 92.319 56.7365 91.3182 57.7376 90.3175C58.9961 89.0595 60.369 88.9451 61.5131 90.0888L65.0598 84.7135C62.5142 82.3975 58.1666 83.2552 54.5341 86.8865C51.1304 90.2889 50.4726 94.1489 52.9324 96.6078C57.6232 101.297 64.7165 92.3762 67.2336 94.8923C68.0058 95.6643 67.8342 96.9223 66.8331 97.923C65.5174 99.2383 63.5725 99.3526 62.2567 98.1518Z" fill="#0A0517"/>
<path d="M95.5966 75.5672L109.326 61.8429L105.321 57.84L96.2095 66.9487L98.8137 51.3074L95.0381 47.5332L81.418 61.1485L85.3651 65.0943L94.2182 56.2443L91.7067 71.6786L95.5966 75.5672Z" fill="#0A0517"/>
<path d="M70.9455 51.9451C74.0337 55.0339 78.3802 55.9491 81.6972 54.4619L78.9521 49.1996C77.6653 49.8574 75.8924 49.457 74.72 48.2844C73.1759 46.74 73.1187 44.3948 74.5199 42.3643L84.3279 52.1739C84.5853 51.9737 84.8998 51.7163 85.3002 51.316C89.6466 46.9688 89.8754 40.9057 85.8721 36.9017C81.7544 32.7834 75.6351 32.955 71.2886 37.3021C66.9422 41.6493 66.7992 47.7982 70.9455 51.9451ZM76.8932 40.1621C78.7233 39.1325 80.7536 39.2183 82.1261 40.5911C83.4987 41.9639 83.5845 44.1088 82.4979 45.7676L76.8932 40.1621Z" fill="#0A0517"/>
<path d="M85.8473 85.8599C88.9364 82.772 89.8517 78.426 88.3643 75.1093L83.1015 77.8541C83.7594 79.1408 83.3589 80.9135 82.1862 82.0858C80.6417 83.6298 78.2963 83.6869 76.2655 82.2859L86.0762 72.4788C85.8759 72.2215 85.6185 71.907 85.2181 71.5067C80.8705 67.1607 74.8068 66.9319 70.8025 70.9348C66.6837 75.0521 66.8554 81.1708 71.2029 85.5168C75.5505 89.8629 81.7 90.0058 85.8473 85.8599ZM74.0632 79.9128C73.0335 78.0829 73.1193 76.0528 74.4922 74.6804C75.8651 73.308 78.0103 73.2222 79.6692 74.3087L74.0632 79.9128Z" fill="#0A0517"/>
</svg>
