<svg width="124" height="124" viewBox="0 0 124 124" fill="none" xmlns="http://www.w3.org/2000/svg">
<path d="M62 0L68.2476 6.55086L75.7963 1.55447L80.4296 9.33131L88.9008 6.13993L91.6874 14.7528L100.656 13.5264L101.457 22.5434L110.474 23.3436L109.247 32.3126L117.86 35.0992L114.669 43.5704L122.446 48.2037L117.449 55.7524L124 62L117.449 68.2476L122.446 75.7963L114.669 80.4296L117.86 88.9008L109.247 91.6874L110.474 100.656L101.457 101.457L100.656 110.474L91.6874 109.247L88.9008 117.86L80.4296 114.669L75.7963 122.446L68.2476 117.449L62 124L55.7524 117.449L48.2037 122.446L43.5704 114.669L35.0992 117.86L32.3126 109.247L23.3436 110.474L22.5434 101.457L13.5264 100.656L14.7528 91.6874L6.13993 88.9008L9.33131 80.4296L1.55447 75.7963L6.55086 68.2476L0 62L6.55086 55.7524L1.55447 48.2037L9.33131 43.5704L6.13993 35.0992L14.7528 32.3126L13.5264 23.3436L22.5434 22.5434L23.3436 13.5264L32.3126 14.7528L35.0992 6.13993L43.5704 9.33131L48.2037 1.55447L55.7524 6.55086L62 0Z" fill="#652FEB"/>
<path fill-rule="evenodd" clip-rule="evenodd" d="M45.5139 32.9609L50.1926 37.6396L25.8106 62.0213L50.1926 86.4029L45.5139 91.0816L16.4531 62.0213L45.5139 32.9609Z" fill="white"/>
<path d="M59.1322 28.7888L53.4244 25.0407C50.7723 28.1545 51.8677 32.8253 55.5576 36.5158C59.2475 40.2064 63.8023 40.956 66.4544 38.3034C71.1821 33.575 61.842 26.3093 64.3788 23.772C65.013 23.1377 66.022 23.2242 67.0309 24.2334C68.2993 25.502 68.4147 26.8859 67.2616 28.0392L72.6811 31.6144C75.0161 29.0483 74.1513 24.6658 70.4902 21.0042C67.0598 17.5731 63.1681 16.91 60.6889 19.3896C55.9612 24.118 64.9554 31.2684 62.4185 33.8056C61.6402 34.5841 60.3718 34.4111 59.3628 33.402C58.0368 32.0757 57.9215 30.1151 59.1322 28.7888Z" fill="white"/>
<path d="M62.7665 98.9551L59.0179 104.662C62.1321 107.314 66.8033 106.219 70.4942 102.529C74.1851 98.8398 74.9348 94.2855 72.282 91.6336C67.5531 86.9064 60.2867 96.2456 57.7492 93.709C57.1148 93.0749 57.2013 92.066 58.2105 91.0571C59.4793 89.7889 60.8634 89.6736 62.0167 90.8265L65.5923 85.4075C63.026 83.0727 58.6431 83.9375 54.981 87.5982C51.5497 91.0283 50.8865 94.9196 53.3663 97.3986C58.0952 102.126 65.2463 93.1325 67.7837 95.6691C68.5623 96.4474 68.3893 97.7156 67.38 98.7245C66.0536 100.05 64.0929 100.166 62.7665 98.9551Z" fill="white"/>
<path d="M96.372 76.1838L110.213 62.3479L106.176 58.3125L96.9899 67.4952L99.6152 51.7267L95.809 47.9219L82.0781 61.6479L86.0573 65.6257L94.9824 56.7038L92.4505 72.2636L96.372 76.1838Z" fill="white"/>
<path d="M71.5247 52.3945C74.6381 55.5083 79.0198 56.431 82.3638 54.9317L79.5964 49.6266C78.2991 50.2897 76.5118 49.8861 75.3299 48.7039C73.7732 47.147 73.7156 44.7828 75.1281 42.7357L85.0159 52.6251C85.2754 52.4233 85.5925 52.1638 85.9961 51.7601C90.3778 47.3777 90.6085 41.2653 86.5726 37.2288C82.4215 33.0769 76.2524 33.2499 71.8706 37.6324C67.4889 42.0149 67.3447 48.2138 71.5247 52.3945ZM77.5208 40.5156C79.3658 39.4777 81.4125 39.5642 82.7962 40.9481C84.1799 42.332 84.2664 44.4945 83.171 46.1667L77.5208 40.5156Z" fill="white"/>
<path d="M86.5447 86.5624C89.6588 83.4493 90.5815 79.068 89.0821 75.7243L83.7765 78.4915C84.4397 79.7886 84.036 81.5757 82.8538 82.7575C81.2967 84.3141 78.9322 84.3717 76.885 82.9593L86.7753 73.0725C86.5735 72.813 86.314 72.496 85.9103 72.0924C81.5274 67.7111 75.4144 67.4805 71.3775 71.5159C67.2253 75.6667 67.3983 81.8352 71.7812 86.2165C76.1641 90.5978 82.3636 90.742 86.5447 86.5624ZM74.6647 80.5669C73.6266 78.7221 73.7131 76.6755 75.0972 75.292C76.4813 73.9084 78.6439 73.8219 80.3163 74.9172L74.6647 80.5669Z" fill="white"/>
</svg>
