<svg width="50" height="35" viewBox="0 0 50 35" fill="none" xmlns="http://www.w3.org/2000/svg">
<mask id="path-1-inside-1_2258_10682" fill="white">
<path d="M9.13433 34.9229V32.6308C9.13433 31.7541 8.54585 31.1799 7.53561 31.1799C7.03049 31.1799 6.48124 31.3313 6.10363 31.8297C5.80939 31.4114 5.38764 31.1799 4.75501 31.1799C4.33327 31.1799 3.91152 31.2957 3.57804 31.714V31.2556H2.69531V34.9229H3.57804V32.8979C3.57804 32.2481 3.95565 31.941 4.54414 31.941C5.13263 31.941 5.42687 32.2837 5.42687 32.8979V34.9229H6.3096V32.8979C6.3096 32.2481 6.73135 31.941 7.2757 31.941C7.86418 31.941 8.15843 32.2837 8.15843 32.8979V34.9229H9.13433ZM22.2282 31.2556H20.7962V30.1474H19.9134V31.2556H19.1141V31.9811H19.9134V33.6634C19.9134 34.5046 20.291 34.9986 21.3013 34.9986C21.6789 34.9986 22.1006 34.8829 22.3949 34.7315L22.1399 34.0417C21.8849 34.193 21.5906 34.2331 21.3797 34.2331C20.958 34.2331 20.7913 34.0016 20.7913 33.6233V31.9811H22.2232V31.2556H22.2282ZM29.7215 31.1755C29.2164 31.1755 28.878 31.4069 28.6672 31.7096V31.2511H27.7844V34.9185H28.6672V32.8534C28.6672 32.2436 28.9614 31.8965 29.5107 31.8965C29.6774 31.8965 29.8883 31.9365 30.0599 31.9721L30.3149 31.2066C30.1384 31.1755 29.8883 31.1755 29.7215 31.1755ZM18.3981 31.5582C17.9763 31.2912 17.3879 31.1755 16.7552 31.1755C15.745 31.1755 15.0731 31.6339 15.0731 32.3594C15.0731 32.9691 15.5783 33.3162 16.461 33.4275L16.8827 33.4676C17.3437 33.5432 17.5987 33.6589 17.5987 33.8503C17.5987 34.1174 17.2603 34.3087 16.6719 34.3087C16.0834 34.3087 15.6175 34.1174 15.3232 33.926L14.9015 34.5357C15.3625 34.8428 15.9951 34.9941 16.6277 34.9941C17.8047 34.9941 18.4815 34.4957 18.4815 33.8103C18.4815 33.1605 17.9322 32.8178 17.0936 32.7021L16.6719 32.662C16.2942 32.6219 16 32.5463 16 32.3193C16 32.0523 16.2942 31.9009 16.7601 31.9009C17.2653 31.9009 17.7704 32.0923 18.0254 32.208L18.3981 31.5582ZM41.8836 31.1755C41.3785 31.1755 41.0401 31.4069 40.8292 31.7096V31.2511H39.9465V34.9185H40.8292V32.8534C40.8292 32.2436 41.1235 31.8965 41.6727 31.8965C41.8395 31.8965 42.0503 31.9365 42.222 31.9721L42.477 31.2155C42.3053 31.1755 42.0552 31.1755 41.8836 31.1755ZM30.6043 33.0893C30.6043 34.1975 31.4478 34.9986 32.7522 34.9986C33.3407 34.9986 33.7625 34.8829 34.1842 34.5802L33.7625 33.9304C33.4241 34.1619 33.0906 34.2731 32.7081 34.2731C31.9921 34.2731 31.487 33.8147 31.487 33.0893C31.487 32.3994 31.9921 31.941 32.7081 31.9054C33.0857 31.9054 33.4241 32.0211 33.7625 32.2481L34.1842 31.5983C33.7625 31.2912 33.3407 31.1799 32.7522 31.1799C31.4478 31.1755 30.6043 31.981 30.6043 33.0893ZM38.7695 33.0893V31.2556H37.8868V31.714C37.5925 31.3713 37.1708 31.1799 36.6215 31.1799C35.4838 31.1799 34.6011 31.981 34.6011 33.0893C34.6011 34.1975 35.4838 34.9986 36.6215 34.9986C37.21 34.9986 37.6318 34.8072 37.8868 34.4645V34.9229H38.7695V33.0893ZM35.5279 33.0893C35.5279 32.4395 35.9889 31.9054 36.749 31.9054C37.465 31.9054 37.9702 32.4039 37.9702 33.0893C37.9702 33.7391 37.465 34.2731 36.749 34.2731C35.9938 34.2331 35.5279 33.7346 35.5279 33.0893ZM24.9646 31.1755C23.7876 31.1755 22.9441 31.941 22.9441 33.0848C22.9441 34.2331 23.7876 34.9941 25.0087 34.9941C25.5972 34.9941 26.1857 34.8428 26.6516 34.4957L26.2299 33.9215C25.8915 34.153 25.4697 34.3043 25.0529 34.3043C24.5036 34.3043 23.9593 34.0728 23.8318 33.4275H26.8183C26.8183 33.3118 26.8183 33.2361 26.8183 33.1204C26.8576 31.941 26.0974 31.1755 24.9646 31.1755ZM24.9646 31.8653C25.5139 31.8653 25.8915 32.1724 25.9748 32.7421H23.871C23.9544 32.2481 24.332 31.8653 24.9646 31.8653ZM46.8955 33.0893V29.8047H46.0128V31.714C45.7186 31.3713 45.2968 31.1799 44.7476 31.1799C43.6098 31.1799 42.7271 31.981 42.7271 33.0893C42.7271 34.1975 43.6098 34.9986 44.7476 34.9986C45.336 34.9986 45.7578 34.8072 46.0128 34.4645V34.9229H46.8955V33.0893ZM43.6539 33.0893C43.6539 32.4395 44.1149 31.9054 44.8751 31.9054C45.5911 31.9054 46.0962 32.4039 46.0962 33.0893C46.0962 33.7391 45.5911 34.2731 44.8751 34.2731C44.1149 34.2331 43.6539 33.7346 43.6539 33.0893ZM14.1021 33.0893V31.2556H13.2194V31.714C12.9252 31.3713 12.5034 31.1799 11.9542 31.1799C10.8164 31.1799 9.93369 31.981 9.93369 33.0893C9.93369 34.1975 10.8164 34.9986 11.9542 34.9986C12.5426 34.9986 12.9644 34.8072 13.2194 34.4645V34.9229H14.1021V33.0893ZM10.8213 33.0893C10.8213 32.4395 11.2823 31.9054 12.0424 31.9054C12.7584 31.9054 13.2635 32.4039 13.2635 33.0893C13.2635 33.7391 12.7584 34.2731 12.0424 34.2731C11.2823 34.2331 10.8213 33.7346 10.8213 33.0893Z"/>
</mask>
<path d="M9.13433 34.9229V32.6308C9.13433 31.7541 8.54585 31.1799 7.53561 31.1799C7.03049 31.1799 6.48124 31.3313 6.10363 31.8297C5.80939 31.4114 5.38764 31.1799 4.75501 31.1799C4.33327 31.1799 3.91152 31.2957 3.57804 31.714V31.2556H2.69531V34.9229H3.57804V32.8979C3.57804 32.2481 3.95565 31.941 4.54414 31.941C5.13263 31.941 5.42687 32.2837 5.42687 32.8979V34.9229H6.3096V32.8979C6.3096 32.2481 6.73135 31.941 7.2757 31.941C7.86418 31.941 8.15843 32.2837 8.15843 32.8979V34.9229H9.13433ZM22.2282 31.2556H20.7962V30.1474H19.9134V31.2556H19.1141V31.9811H19.9134V33.6634C19.9134 34.5046 20.291 34.9986 21.3013 34.9986C21.6789 34.9986 22.1006 34.8829 22.3949 34.7315L22.1399 34.0417C21.8849 34.193 21.5906 34.2331 21.3797 34.2331C20.958 34.2331 20.7913 34.0016 20.7913 33.6233V31.9811H22.2232V31.2556H22.2282ZM29.7215 31.1755C29.2164 31.1755 28.878 31.4069 28.6672 31.7096V31.2511H27.7844V34.9185H28.6672V32.8534C28.6672 32.2436 28.9614 31.8965 29.5107 31.8965C29.6774 31.8965 29.8883 31.9365 30.0599 31.9721L30.3149 31.2066C30.1384 31.1755 29.8883 31.1755 29.7215 31.1755ZM18.3981 31.5582C17.9763 31.2912 17.3879 31.1755 16.7552 31.1755C15.745 31.1755 15.0731 31.6339 15.0731 32.3594C15.0731 32.9691 15.5783 33.3162 16.461 33.4275L16.8827 33.4676C17.3437 33.5432 17.5987 33.6589 17.5987 33.8503C17.5987 34.1174 17.2603 34.3087 16.6719 34.3087C16.0834 34.3087 15.6175 34.1174 15.3232 33.926L14.9015 34.5357C15.3625 34.8428 15.9951 34.9941 16.6277 34.9941C17.8047 34.9941 18.4815 34.4957 18.4815 33.8103C18.4815 33.1605 17.9322 32.8178 17.0936 32.7021L16.6719 32.662C16.2942 32.6219 16 32.5463 16 32.3193C16 32.0523 16.2942 31.9009 16.7601 31.9009C17.2653 31.9009 17.7704 32.0923 18.0254 32.208L18.3981 31.5582ZM41.8836 31.1755C41.3785 31.1755 41.0401 31.4069 40.8292 31.7096V31.2511H39.9465V34.9185H40.8292V32.8534C40.8292 32.2436 41.1235 31.8965 41.6727 31.8965C41.8395 31.8965 42.0503 31.9365 42.222 31.9721L42.477 31.2155C42.3053 31.1755 42.0552 31.1755 41.8836 31.1755ZM30.6043 33.0893C30.6043 34.1975 31.4478 34.9986 32.7522 34.9986C33.3407 34.9986 33.7625 34.8829 34.1842 34.5802L33.7625 33.9304C33.4241 34.1619 33.0906 34.2731 32.7081 34.2731C31.9921 34.2731 31.487 33.8147 31.487 33.0893C31.487 32.3994 31.9921 31.941 32.7081 31.9054C33.0857 31.9054 33.4241 32.0211 33.7625 32.2481L34.1842 31.5983C33.7625 31.2912 33.3407 31.1799 32.7522 31.1799C31.4478 31.1755 30.6043 31.981 30.6043 33.0893ZM38.7695 33.0893V31.2556H37.8868V31.714C37.5925 31.3713 37.1708 31.1799 36.6215 31.1799C35.4838 31.1799 34.6011 31.981 34.6011 33.0893C34.6011 34.1975 35.4838 34.9986 36.6215 34.9986C37.21 34.9986 37.6318 34.8072 37.8868 34.4645V34.9229H38.7695V33.0893ZM35.5279 33.0893C35.5279 32.4395 35.9889 31.9054 36.749 31.9054C37.465 31.9054 37.9702 32.4039 37.9702 33.0893C37.9702 33.7391 37.465 34.2731 36.749 34.2731C35.9938 34.2331 35.5279 33.7346 35.5279 33.0893ZM24.9646 31.1755C23.7876 31.1755 22.9441 31.941 22.9441 33.0848C22.9441 34.2331 23.7876 34.9941 25.0087 34.9941C25.5972 34.9941 26.1857 34.8428 26.6516 34.4957L26.2299 33.9215C25.8915 34.153 25.4697 34.3043 25.0529 34.3043C24.5036 34.3043 23.9593 34.0728 23.8318 33.4275H26.8183C26.8183 33.3118 26.8183 33.2361 26.8183 33.1204C26.8576 31.941 26.0974 31.1755 24.9646 31.1755ZM24.9646 31.8653C25.5139 31.8653 25.8915 32.1724 25.9748 32.7421H23.871C23.9544 32.2481 24.332 31.8653 24.9646 31.8653ZM46.8955 33.0893V29.8047H46.0128V31.714C45.7186 31.3713 45.2968 31.1799 44.7476 31.1799C43.6098 31.1799 42.7271 31.981 42.7271 33.0893C42.7271 34.1975 43.6098 34.9986 44.7476 34.9986C45.336 34.9986 45.7578 34.8072 46.0128 34.4645V34.9229H46.8955V33.0893ZM43.6539 33.0893C43.6539 32.4395 44.1149 31.9054 44.8751 31.9054C45.5911 31.9054 46.0962 32.4039 46.0962 33.0893C46.0962 33.7391 45.5911 34.2731 44.8751 34.2731C44.1149 34.2331 43.6539 33.7346 43.6539 33.0893ZM14.1021 33.0893V31.2556H13.2194V31.714C12.9252 31.3713 12.5034 31.1799 11.9542 31.1799C10.8164 31.1799 9.93369 31.981 9.93369 33.0893C9.93369 34.1975 10.8164 34.9986 11.9542 34.9986C12.5426 34.9986 12.9644 34.8072 13.2194 34.4645V34.9229H14.1021V33.0893ZM10.8213 33.0893C10.8213 32.4395 11.2823 31.9054 12.0424 31.9054C12.7584 31.9054 13.2635 32.4039 13.2635 33.0893C13.2635 33.7391 12.7584 34.2731 12.0424 34.2731C11.2823 34.2331 10.8213 33.7346 10.8213 33.0893Z" fill="#0A0517" stroke="#0A0517" stroke-width="2" mask="url(#path-1-inside-1_2258_10682)"/>
<path d="M31.3621 2.9375H18.1016V24.5587H31.3621V2.9375Z" fill="#FF5A00"/>
<path d="M18.9835 13.7525C18.9835 9.35969 21.259 5.46093 24.7506 2.94187C22.1809 1.10821 18.9393 0 15.4035 0C7.0274 0 0.25 6.15078 0.25 13.7525C0.25 21.3542 7.0274 27.5049 15.4035 27.5049C18.9393 27.5049 22.1809 26.3967 24.7506 24.5631C21.2541 22.0796 18.9835 18.1452 18.9835 13.7525Z" fill="#EB001B"/>
<path d="M49.2506 13.7525C49.2506 21.3542 42.4732 27.5049 34.0971 27.5049C30.5613 27.5049 27.3197 26.3967 24.75 24.5631C28.2858 22.0396 30.5172 18.1452 30.5172 13.7525C30.5172 9.35969 28.2417 5.46093 24.75 2.94187C27.3148 1.10821 30.5564 0 34.0922 0C42.4732 0 49.2506 6.19084 49.2506 13.7525Z" fill="#F79E1B"/>
</svg>
