<svg width="434" height="447" viewBox="0 0 434 447" fill="none" xmlns="http://www.w3.org/2000/svg">
<path d="M378.865 245.182C376.717 245.158 372.708 232.996 371.996 230.768C370.53 226.186 370.407 219.71 375.626 217.771C382.278 215.305 387.892 222.716 391.465 227.393C393.826 230.486 395.969 233.518 398.925 236.053C403.666 240.113 408.156 244.356 410.486 250.385C413.443 258.022 415.896 265.242 419.526 272.631C423.01 279.727 422.635 285.982 423.317 293.572C423.704 297.875 424.114 302.175 424.511 306.477C425.713 319.448 426.915 332.418 428.115 345.387L433.796 406.768C433.796 406.899 433.821 446.203 433.834 446.333H375.754L372.276 327.345L344.984 318.46L348.536 244.834L378.865 245.182Z" fill="#FDAB96"/>
<path d="M387.455 331.478C381.602 331.478 376.033 329.574 370.645 327.714C370.44 327.644 370.272 327.495 370.177 327.3C370.082 327.106 370.068 326.881 370.138 326.677C370.208 326.472 370.357 326.303 370.552 326.208C370.746 326.113 370.971 326.099 371.176 326.169C376.569 328.024 382.16 329.941 387.877 329.841C392.728 329.759 399.027 327.785 402.163 322.498C402.688 321.566 403.157 320.605 403.569 319.618C404.054 318.437 404.628 317.294 405.285 316.199C405.342 316.109 405.417 316.03 405.505 315.969C405.593 315.907 405.692 315.863 405.797 315.84C405.901 315.817 406.009 315.814 406.115 315.833C406.221 315.851 406.322 315.89 406.412 315.948C406.503 316.005 406.581 316.08 406.643 316.168C406.704 316.255 406.748 316.354 406.771 316.459C406.795 316.564 406.797 316.672 406.779 316.778C406.76 316.883 406.721 316.984 406.664 317.075C406.049 318.099 405.514 319.17 405.062 320.276C404.624 321.322 404.125 322.341 403.566 323.327C400.659 328.244 394.659 331.369 387.904 331.486L387.455 331.478Z" fill="#231F20"/>
<path d="M413.943 300.977C413.756 300.977 413.575 300.914 413.43 300.797C413.284 300.68 413.183 300.517 413.144 300.335C413.104 300.152 413.128 299.962 413.211 299.795C413.295 299.629 413.433 299.496 413.603 299.418C421.615 295.763 421.895 286.223 421.645 282.285C421.638 282.178 421.652 282.07 421.686 281.968C421.721 281.867 421.775 281.773 421.846 281.692C421.917 281.612 422.003 281.546 422.099 281.498C422.195 281.451 422.3 281.423 422.407 281.416C422.515 281.409 422.622 281.423 422.724 281.458C422.825 281.492 422.919 281.546 423 281.617C423.081 281.688 423.146 281.774 423.194 281.87C423.241 281.967 423.269 282.071 423.276 282.179C423.847 291.069 420.483 298.067 414.285 300.895C414.178 300.947 414.061 300.975 413.943 300.977Z" fill="#231F20"/>
<path d="M378.2 0H367.594V400.871H378.2V0Z" fill="#0A0517"/>
<path d="M372.545 318.413C365.124 318.413 357.694 318.315 350.269 318.413C345.893 318.47 342.494 318.802 339.663 314.666C337.394 311.35 336.32 306.322 337.582 302.395C337.905 301.364 338.374 300.385 338.974 299.488C336.861 296.561 334.351 292.977 333.845 289.349C333.339 285.721 334.248 281.734 336.807 279.232C334.433 277.388 333.832 274.16 334.28 271.106C334.729 268.051 336.266 265.296 337.922 262.737C336.698 260.657 335.257 258.386 335.202 255.938C335.137 252.83 336.948 249.917 339.361 248.092C341.773 246.267 344.713 245.373 347.636 244.799C348.314 244.663 347.84 244.799 348.531 244.799H366.614C374.661 244.799 394.006 242.06 396.53 253.858C396.965 255.881 396.293 258.065 395.007 259.645C393.72 261.225 391.882 262.242 389.959 262.762C402.687 267.004 399.432 279.721 390.076 281.669C400.987 286.148 396.146 298.503 386.111 298.313C389.432 299.248 391.278 304.149 390.704 307.695C390.131 311.242 387.541 314.184 384.49 315.816C381.439 317.448 375.986 318.413 372.545 318.413Z" fill="#FDAB96"/>
<path d="M350.27 319.227C350.054 319.227 349.846 319.141 349.693 318.988C349.54 318.835 349.454 318.628 349.454 318.411C349.454 318.195 349.54 317.987 349.693 317.834C349.846 317.681 350.054 317.595 350.27 317.595C355.228 317.53 360.265 317.552 365.139 317.574C367.61 317.584 370.083 317.592 372.558 317.595C375.973 317.595 381.23 316.665 384.111 315.11C387.265 313.402 389.436 310.59 389.92 307.584C390.428 304.405 388.756 299.918 385.911 299.116C385.723 299.061 385.561 298.94 385.455 298.776C385.348 298.612 385.304 298.415 385.331 298.221C385.358 298.027 385.453 297.849 385.6 297.72C385.747 297.591 385.935 297.518 386.131 297.516H386.148C391.274 297.601 394.649 294.253 395.345 290.902C396.085 287.337 394.007 284.177 389.786 282.442C389.625 282.375 389.489 282.259 389.399 282.109C389.309 281.96 389.269 281.786 389.285 281.612C389.301 281.438 389.373 281.274 389.489 281.144C389.605 281.014 389.76 280.924 389.931 280.889C394.176 280.005 397.303 276.638 397.532 272.703C397.766 268.683 394.848 265.265 389.721 263.557C389.554 263.502 389.409 263.394 389.308 263.25C389.207 263.106 389.155 262.933 389.16 262.757C389.166 262.582 389.228 262.412 389.337 262.274C389.446 262.137 389.597 262.038 389.767 261.993C391.127 261.626 393.031 260.837 394.391 259.151C395.587 257.677 396.109 255.724 395.75 254.049C393.719 244.593 379.852 245.15 370.673 245.52C369.185 245.58 367.779 245.634 366.623 245.634H348.541C348.342 245.642 348.144 245.622 347.95 245.577L347.804 245.604C347.697 245.63 347.586 245.634 347.478 245.616C347.369 245.598 347.266 245.558 347.173 245.498C347.081 245.439 347.001 245.362 346.939 245.271C346.877 245.18 346.834 245.078 346.813 244.97C346.791 244.863 346.792 244.752 346.814 244.644C346.837 244.537 346.881 244.435 346.943 244.345C347.006 244.254 347.087 244.178 347.18 244.12C347.273 244.061 347.377 244.022 347.485 244.005C347.775 243.914 348.085 243.914 348.375 244.005H366.623C367.747 244.005 369.071 243.954 370.608 243.891C379.74 243.524 395.027 242.909 397.344 253.709C397.812 255.885 397.181 258.308 395.658 260.182C394.732 261.299 393.57 262.197 392.256 262.811C396.857 264.954 399.406 268.582 399.158 272.801C398.924 276.804 396.202 280.304 392.302 281.873C396.585 284.397 397.562 288.243 396.942 291.237C396.235 294.645 393.262 298.036 388.712 298.931C390.92 301.019 392.016 304.8 391.527 307.846C390.964 311.348 388.481 314.601 384.883 316.548C381.657 318.292 376.126 319.233 372.555 319.233C370.08 319.233 367.604 319.225 365.128 319.211C360.262 319.189 355.231 319.167 350.289 319.233L350.27 319.227Z" fill="#231F20"/>
<path d="M389.974 263.598H389.955L352.353 262.741C352.246 262.74 352.14 262.718 352.042 262.675C351.943 262.633 351.854 262.572 351.779 262.495C351.704 262.419 351.645 262.328 351.605 262.229C351.566 262.129 351.546 262.023 351.547 261.916C351.548 261.809 351.571 261.703 351.613 261.604C351.655 261.506 351.716 261.417 351.793 261.342C351.869 261.267 351.96 261.208 352.059 261.168C352.159 261.128 352.265 261.108 352.372 261.109H352.391L389.993 261.966C390.209 261.969 390.416 262.057 390.567 262.212C390.718 262.367 390.802 262.575 390.799 262.792C390.797 263.008 390.708 263.214 390.553 263.366C390.399 263.517 390.19 263.6 389.974 263.598Z" fill="#231F20"/>
<path d="M390.089 282.512H390.051L354.952 280.937C354.736 280.928 354.532 280.832 354.386 280.672C354.24 280.512 354.163 280.301 354.173 280.085C354.182 279.868 354.278 279.665 354.438 279.519C354.598 279.372 354.809 279.296 355.025 279.306L390.125 280.88C390.232 280.883 390.337 280.906 390.436 280.949C390.534 280.992 390.622 281.054 390.696 281.132C390.771 281.209 390.829 281.3 390.868 281.4C390.906 281.5 390.925 281.607 390.923 281.714C390.921 281.821 390.897 281.927 390.854 282.025C390.811 282.123 390.749 282.211 390.671 282.285C390.594 282.36 390.503 282.418 390.403 282.457C390.303 282.495 390.197 282.514 390.089 282.512Z" fill="#231F20"/>
<path d="M353.027 299.743C352.92 299.744 352.814 299.724 352.714 299.684C352.615 299.644 352.524 299.585 352.448 299.51C352.293 299.358 352.205 299.152 352.203 298.935C352.202 298.828 352.222 298.722 352.262 298.622C352.302 298.523 352.361 298.433 352.436 298.356C352.588 298.201 352.794 298.113 353.011 298.111L386.103 297.516C386.21 297.515 386.317 297.535 386.416 297.575C386.515 297.615 386.606 297.674 386.682 297.749C386.759 297.824 386.82 297.913 386.862 298.012C386.904 298.11 386.926 298.216 386.927 298.323C386.928 298.431 386.908 298.537 386.868 298.636C386.828 298.736 386.769 298.826 386.694 298.903C386.619 298.979 386.53 299.04 386.431 299.082C386.333 299.124 386.227 299.146 386.119 299.147L353.027 299.743Z" fill="#231F20"/>
<path d="M386.11 248.656C387.785 248.784 389.495 249.037 390.98 249.858C392.465 250.68 393.7 252.162 393.879 253.908C394.067 255.812 392.958 257.653 391.432 258.7C389.906 259.747 388.049 260.109 386.229 260.204C385.938 257.253 386.074 250.729 386.11 248.656Z" fill="#FE5122"/>
<path d="M386.109 284.234C387.785 284.362 389.495 284.615 390.98 285.436C392.465 286.258 393.7 287.74 393.879 289.486C394.067 291.39 392.957 293.231 391.432 294.278C389.906 295.325 388.049 295.687 386.229 295.782C385.938 292.831 386.074 286.307 386.109 284.234Z" fill="#FE5122"/>
<path d="M380.649 300.156C382.327 300.284 384.034 300.537 385.519 301.358C387.004 302.18 388.239 303.662 388.418 305.408C388.609 307.312 387.497 309.153 385.971 310.2C384.445 311.247 382.588 311.609 380.768 311.704C380.477 308.753 380.613 302.229 380.649 300.156Z" fill="#FE5122"/>
<path d="M387.931 266.836C389.544 266.958 391.194 267.206 392.622 267.997C394.05 268.789 395.249 270.216 395.418 271.9C395.597 273.722 394.529 275.506 393.066 276.523C391.602 277.54 389.802 277.883 388.051 277.973C387.757 275.12 387.895 268.835 387.931 266.836Z" fill="#FE5122"/>
<path d="M378.232 160.859V176.598L367.625 170.859V161.806L378.232 160.859Z" fill="#231F20"/>
<path d="M378.202 20.3984H0L51.5527 94.8856L3.98275 165.898H378.202V20.3984Z" fill="#685DE7"/>
<path d="M192.37 51.7961C193.186 57.181 193.906 60.295 194.532 61.138C194.886 61.5188 195.253 61.9267 195.633 62.3619C196.014 62.797 196.205 63.2321 196.205 63.6673C196.205 65.8974 195.633 67.2708 194.491 67.7875C193.648 68.1954 191.336 68.3994 187.556 68.3994C184.51 68.3994 182.484 68.1002 181.478 67.5019C180.472 66.8764 179.968 65.6934 179.968 63.9528C179.968 63.5449 180.213 63.0962 180.703 62.6066C181.328 62.0083 181.695 61.614 181.804 61.4236C182.158 60.7165 182.566 59.0303 183.028 56.3651C183.436 54.0806 183.694 52.3265 183.803 51.1026C183.803 50.9939 183.599 50.6403 183.191 50.042C182.674 49.3077 182.28 48.5734 182.008 47.8391C181.519 46.9416 180.934 45.813 180.254 44.4532C179.982 44.0996 179.588 43.7325 179.071 43.3517C178.201 42.7262 177.766 42.4135 177.766 42.4135C177.521 42.2775 177.181 42.0735 176.746 41.8016C176.447 41.4752 176.297 41.0129 176.297 40.4146C176.297 39.2995 177.004 38.47 178.418 37.9261C179.56 37.4638 181.002 37.2462 182.742 37.2734C185.136 37.3006 186.835 37.5862 187.842 38.1301C188.658 38.5652 189.066 39.2315 189.066 40.129C189.066 40.6729 188.943 41.0673 188.698 41.312C188.454 41.5568 188.195 41.788 187.923 42.0055C187.651 42.2231 187.434 42.5087 187.271 42.8622C187.135 43.2158 187.107 43.5965 187.189 44.0044C187.515 45.6906 188.236 46.5337 189.351 46.5337C189.759 46.5337 190.262 46.0442 190.86 45.0651C190.996 44.5756 191.228 44.0044 191.554 43.3517C191.799 42.8622 191.921 42.5359 191.921 42.3727C191.921 42.2911 191.867 42.2231 191.758 42.1687C191.676 42.1143 191.5 41.9919 191.228 41.8016C190.901 41.4752 190.738 41.0129 190.738 40.4146C190.738 38.3204 192.887 37.2734 197.184 37.2734C200.502 37.2734 202.161 38.1165 202.161 39.8026C202.161 40.3466 202.025 40.7409 201.753 40.9857C201.508 41.2304 201.263 41.448 201.018 41.6384C200.801 41.8288 200.366 42.0599 199.713 42.3319C198.707 42.7126 198.067 42.9982 197.796 43.1886C197.551 43.3789 197.211 43.7733 196.776 44.3716C195.198 46.085 194.219 47.2 193.838 47.7167C192.859 48.9949 192.37 50.1236 192.37 51.1026C192.37 51.293 192.37 51.5242 192.37 51.7961Z" fill="white"/>
<path d="M228.087 57.0178C228.087 60.4445 226.795 63.3137 224.211 65.6254C221.763 67.8011 218.813 68.8889 215.359 68.8889C211.497 68.8889 208.396 67.366 206.058 64.32C203.964 61.546 202.916 58.1601 202.916 54.1622C202.916 49.7564 203.977 45.9082 206.098 42.6174C208.546 38.81 211.85 36.9062 216.011 36.9062C220.036 36.9062 223.15 39.2179 225.353 43.8413C227.175 47.6215 228.087 52.0137 228.087 57.0178ZM219.153 51.6738C219.153 49.8788 218.758 47.8935 217.97 45.7178C216.99 42.9982 215.78 41.6384 214.339 41.6384C213.496 41.6384 212.843 42.2639 212.381 43.5149C212.027 44.4668 211.85 45.4866 211.85 46.5745C211.85 48.4238 212.15 50.1508 212.748 51.7554C213.564 53.9039 214.76 54.9781 216.338 54.9781C218.214 54.9781 219.153 53.8767 219.153 51.6738Z" fill="white"/>
<path d="M255.302 48.859C255.302 49.7836 255.315 51.1706 255.343 53.02C255.397 54.8421 255.424 56.2155 255.424 57.1402C255.424 59.7782 254.268 62.2939 251.957 64.6871C249.645 67.0532 247.156 68.2362 244.491 68.2362C239.678 68.2362 236.292 67.3252 234.333 65.503C232.294 63.6265 231.274 60.3493 231.274 55.6716C231.274 54.7741 231.315 53.4279 231.396 51.633C231.505 49.838 231.559 48.4918 231.559 47.5943C231.559 45.609 231.342 44.154 230.907 43.2294C230.689 42.7942 230.268 42.3319 229.642 41.8424C229.18 41.4888 228.949 41.0129 228.949 40.4146C228.949 39.2451 229.724 38.3884 231.274 37.8445C232.335 37.4638 233.599 37.2734 235.068 37.2734C239.528 37.2734 241.758 38.2253 241.758 40.129C241.758 40.7273 241.527 41.2304 241.065 41.6384C240.439 42.1823 240.058 42.6038 239.922 42.903C239.46 43.9908 239.229 45.813 239.229 48.3694L239.188 48.2878C239.215 50.7899 239.46 52.4761 239.922 53.3463C240.629 54.5974 242.139 55.2229 244.45 55.2229C246.409 55.2229 247.728 54.8149 248.407 53.999C249.115 53.1832 249.468 51.769 249.468 49.7564C249.468 47.6895 249.387 46.0714 249.223 44.9019C249.033 43.4877 248.557 42.5495 247.796 42.0871C247.116 41.7064 246.776 41.1488 246.776 40.4146C246.776 38.3204 248.924 37.2734 253.221 37.2734C254.336 37.2734 255.315 37.4502 256.158 37.8037C257.273 38.2933 257.831 39.0275 257.831 40.0066C257.831 40.6049 257.6 41.1081 257.137 41.516C256.539 42.0327 256.172 42.4407 256.036 42.7398C255.546 43.9365 255.302 45.9762 255.302 48.859Z" fill="white"/>
<path d="M301.277 64.2384C301.168 65.8158 300.026 66.9308 297.85 67.5835C296.436 68.0459 294.709 68.277 292.669 68.277C290.63 68.277 289.161 68.1003 288.263 67.7467C286.768 67.1756 286.02 66.0605 286.02 64.4016C286.02 63.7761 286.115 63.069 286.305 62.2803C287.529 61.0564 288.141 59.1799 288.141 56.6507C288.141 55.7804 287.543 55.1141 286.346 54.6517C285.449 54.2982 284.47 54.1214 283.409 54.1214C283.409 54.1214 283.028 54.1894 282.267 54.3254C281.26 54.9237 280.757 56.0659 280.757 57.7521C280.757 58.9759 281.016 60.0366 281.532 60.9341C281.75 61.2604 282.253 61.8451 283.042 62.6882C283.559 63.2593 283.817 63.7897 283.817 64.2792C283.817 66.1557 282.838 67.366 280.88 67.9099C279.928 68.1818 278.201 68.3178 275.699 68.3178C271.946 68.3178 270.069 67.3796 270.069 65.503C270.042 63.844 270.763 62.4978 272.231 61.4644C273.945 60.2406 275.454 57.6161 276.759 53.5911C277.875 50.0828 278.432 47.0232 278.432 44.4124C278.432 43.4061 278.255 42.5631 277.902 41.8831C277.711 41.5024 277.399 41.1081 276.963 40.7001C276.61 40.3738 276.433 40.129 276.433 39.9658C276.433 39.0683 277.888 38.2933 280.798 37.6405C283.273 37.0966 285.082 36.8791 286.224 36.9878C288.155 37.1782 289.623 37.7629 290.63 38.742C291.092 39.2043 291.772 40.265 292.669 41.9239C292.941 42.4679 293.281 43.5285 293.689 45.1059C295.266 51.3882 296.857 56.1203 298.462 59.3023C298.68 59.7646 299.088 60.2406 299.686 60.7301C300.284 61.1924 300.679 61.5732 300.869 61.8723C301.195 62.4434 301.331 63.2321 301.277 64.2384ZM286.836 48.5734C286.836 48.3558 286.591 47.6351 286.101 46.4113C285.639 45.2963 285.027 44.7387 284.266 44.7387C283.803 44.7387 283.314 45.3235 282.797 46.4929C282.362 47.4992 282.144 48.2742 282.144 48.8182C282.144 49.0629 282.498 49.1853 283.205 49.1853C283.368 49.1853 283.64 49.1717 284.021 49.1445C284.402 49.0901 284.674 49.0629 284.837 49.0629C285.381 49.0629 285.721 49.1037 285.857 49.1853C286.509 49.1309 286.836 48.927 286.836 48.5734Z" fill="white"/>
<path d="M314.167 41.4752C313.814 41.4752 313.488 41.6112 313.188 41.8831C312.916 42.1279 312.808 42.4271 312.862 42.7806L313.188 46.9824C313.243 47.6895 313.488 48.0431 313.923 48.0431C314.739 48.0431 315.391 47.6487 315.881 46.86C316.316 46.1529 316.534 45.3643 316.534 44.494C316.534 42.4815 315.745 41.4752 314.167 41.4752ZM314.045 54.1214C314.616 57.9833 315.201 60.3221 315.799 61.138C316.153 61.5188 316.52 61.9267 316.901 62.3619C317.281 62.797 317.472 63.2321 317.472 63.6673C317.472 65.8974 316.914 67.2708 315.799 67.7875C314.929 68.1954 312.604 68.3994 308.823 68.3994C305.723 68.3994 303.656 68.1138 302.623 67.5427C301.616 66.9444 301.154 65.7478 301.236 63.9528C301.263 63.5449 301.521 63.0962 302.011 62.6066C302.609 62.0083 302.963 61.614 303.071 61.4236C303.452 60.6621 303.915 58.6904 304.458 55.5084C304.948 52.6528 305.315 49.9468 305.56 47.3904C305.478 44.6164 305.111 42.9574 304.458 42.4135C304.214 42.2775 303.874 42.0735 303.439 41.8016C303.112 41.4752 302.949 41.0129 302.949 40.4146C302.949 39.2995 303.656 38.47 305.07 37.9261C306.213 37.4638 307.654 37.2462 309.395 37.2734C310.02 37.3006 310.591 37.3278 311.108 37.355C313.528 37.2462 315.051 37.1918 315.677 37.1918C317.934 37.1918 319.919 37.6405 321.633 38.538C323.754 39.6259 324.815 41.2032 324.815 43.2702C324.815 45.8538 323.428 47.9071 320.654 49.4301C320.926 50.2732 321.51 50.8987 322.408 51.3066C323.741 51.9049 324.42 52.2041 324.448 52.2041C325.563 53.1288 326.392 54.0942 326.936 55.1005C327.426 55.998 327.834 57.2082 328.16 58.7312C328.622 60.9885 329.316 62.9058 330.24 64.4832C330.295 64.5919 330.648 64.9863 331.301 65.6662C331.791 66.1829 332.035 66.6181 332.035 66.9716C332.035 67.2436 331.804 67.5155 331.342 67.7875C331.016 67.9779 330.689 68.1818 330.363 68.3994C329.873 68.4266 329.071 68.5354 327.956 68.7258C327.031 68.8889 326.243 68.9705 325.59 68.9705C322.761 68.9705 320.817 67.8555 319.756 65.6254C319.24 64.5376 318.75 62.2395 318.288 58.7312C317.88 55.794 317.186 53.8903 316.207 53.02C315.881 52.748 315.486 52.6664 315.024 52.7752C314.263 52.9656 313.936 53.4143 314.045 54.1214Z" fill="white"/>
<path d="M336.121 45.1059C335.957 43.6917 335.631 42.7942 335.141 42.4135C334.897 42.2775 334.557 42.0735 334.122 41.8016C333.795 41.4752 333.632 41.0129 333.632 40.4146C333.632 39.2995 334.339 38.47 335.753 37.9261C336.923 37.4638 338.364 37.2462 340.078 37.2734C340.404 37.2734 340.893 37.3006 341.546 37.355C342.226 37.4094 342.743 37.4366 343.096 37.4366C344.021 37.4366 345.53 37.3686 347.625 37.2326C349.719 37.0966 351.201 37.0286 352.071 37.0286C353.241 37.0286 354.152 37.7629 354.804 39.2315C355.294 40.3738 355.539 41.6112 355.539 42.9438C355.539 43.7869 355.375 44.494 355.049 45.0651C354.614 45.7722 354.016 46.1257 353.254 46.1257C352.52 46.1257 351.894 45.7858 351.378 45.1059C350.616 44.0996 350.031 43.4605 349.623 43.1886C348.617 42.4815 347.135 42.1279 345.177 42.1279C344.606 42.1279 344.307 42.1279 344.279 42.1279C344.007 42.2367 343.817 42.5631 343.708 43.107C343.654 43.2973 343.627 43.4877 343.627 43.6781C343.627 44.5756 344.075 45.3099 344.973 45.881C345.762 46.3705 346.7 46.6153 347.788 46.6153C348.005 46.6153 348.264 46.4657 348.563 46.1665C348.889 45.8674 349.161 45.7178 349.379 45.7178C349.787 45.7178 349.991 46.017 349.991 46.6153C349.991 47.5671 349.868 48.4782 349.623 49.3485C349.27 50.5723 348.753 51.1842 348.073 51.1842C347.638 51.1842 347.217 50.8443 346.809 50.1644C346.428 49.4845 345.857 49.1445 345.095 49.1445C344.225 49.1445 343.79 49.8652 343.79 51.3066C343.79 54.7061 345.762 56.4059 349.705 56.4059C349.868 56.4059 350.127 56.3651 350.48 56.2835C350.834 56.2019 351.106 56.1883 351.296 56.2427C351.486 56.2699 351.65 56.2835 351.786 56.2835C352.465 56.2835 353.023 55.9572 353.458 55.3045C353.92 54.6517 354.288 54.3254 354.56 54.3254C354.967 54.3254 355.321 54.5974 355.62 55.1413C355.919 55.6852 356.069 56.1883 356.069 56.6507C356.069 56.9226 356.096 57.6297 356.151 58.772C356.232 59.887 356.273 60.8117 356.273 61.546C356.273 64.8639 355.593 67.0124 354.233 67.9915C353.716 68.345 351.99 68.5218 349.052 68.5218C348.236 68.5218 347.121 68.5354 345.707 68.5626C344.538 68.5898 343.396 68.5898 342.28 68.5626L334.611 68.5218C333.224 68.4946 332.531 67.8283 332.531 66.5229C332.531 66.0061 332.735 65.5438 333.143 65.1359C333.822 64.456 334.203 64.0344 334.285 63.8712L335.06 62.6474C335.441 62.0219 335.672 60.4717 335.753 57.9969L336.08 47.472C336.134 46.5745 336.148 45.7858 336.121 45.1059Z" fill="white"/>
<path d="M70.0518 83.4117C69.7255 82.487 69.5623 82.0247 69.5623 82.0247C69.5623 80.8552 70.3238 79.9986 71.8468 79.4546C72.9074 79.0739 74.1857 78.8835 75.6814 78.8835C78.2379 78.8835 79.9104 79.0467 80.6991 79.3731C81.4062 79.645 81.8822 80.2705 82.1269 81.2496C82.6981 83.3709 83.0924 84.6763 83.31 85.1658C83.6363 86.1177 83.9763 87.0696 84.3298 88.0214C84.9009 89.4084 85.4449 90.1019 85.9616 90.1019C86.6959 90.1019 87.2262 88.9189 87.5526 86.5528C87.7429 85.0571 87.9333 83.5477 88.1237 82.0247C88.5316 80.6377 89.3747 79.7266 90.6529 79.2915C91.3872 79.0467 92.6926 78.9107 94.5692 78.8835C98.8118 78.8835 100.933 79.8354 100.933 81.7391C100.933 82.2287 100.539 82.9086 99.75 83.7788C98.9886 84.6491 98.6078 85.5874 98.6078 86.5936C98.6078 88.7965 98.907 91.6793 99.5053 95.242C100.076 98.0976 100.634 100.953 101.178 103.809C101.259 104.326 101.667 104.883 102.402 105.481C103.136 106.052 103.503 106.637 103.503 107.236C103.503 108.487 102.456 109.302 100.362 109.683C99.4373 109.874 97.9415 109.969 95.8746 109.969C93.8349 109.969 92.3527 109.874 91.428 109.683C89.3883 109.302 88.3685 108.5 88.3685 107.276C88.3685 106.896 88.4908 106.569 88.7356 106.297C89.0076 106.025 89.2659 105.767 89.5107 105.522C89.7555 105.25 89.973 104.326 90.1634 102.748C90.3266 101.361 90.4082 100.314 90.4082 99.607C90.4082 98.1928 90.4082 97.4449 90.4082 97.3633C90.2722 96.4115 89.8778 95.9355 89.2251 95.9355C88.8988 95.9627 88.6132 96.4387 88.3685 97.3633C87.9061 98.9407 87.6478 99.811 87.5934 99.9742C87.1854 100.926 86.6687 101.402 86.0432 101.402C85.3361 101.402 84.7786 100.94 84.3706 100.015C84.2346 99.743 83.9763 98.8727 83.5955 97.4041C83.3236 96.4794 83.038 96.0171 82.7388 96.0171C82.0589 96.0171 81.6918 97.6625 81.6374 100.953C81.8822 101.878 82.0997 102.476 82.2901 102.748C82.6437 103.129 83.0108 103.537 83.3916 103.972C83.7995 104.407 84.0035 104.842 84.0035 105.277C84.0035 106.501 83.8675 107.426 83.5955 108.051C83.378 108.922 82.5485 109.493 81.1071 109.765C80.5632 109.874 79.8697 109.942 79.0266 109.969C78.2107 109.996 76.9733 110.01 75.3143 110.01C72.2683 110.01 70.2422 109.71 69.236 109.112C68.2297 108.487 67.7266 107.304 67.7266 105.563C67.7266 105.155 67.9849 104.706 68.5017 104.217C69.1272 103.618 69.4807 103.224 69.5623 103.034C70.079 102 70.6637 99.4982 71.3165 95.5276C71.9148 91.7745 72.2139 89.0957 72.2139 87.4911C72.2139 85.5874 71.4932 84.2276 70.0518 83.4117Z" fill="white"/>
<path d="M109.06 89.0005C109.033 86.2537 108.666 84.5947 107.959 84.0236C107.714 83.8876 107.374 83.6837 106.939 83.4117C106.613 83.0853 106.45 82.623 106.45 82.0247C106.45 80.9096 107.157 80.0802 108.571 79.5362C109.74 79.0739 111.182 78.8563 112.895 78.8835C115.315 78.9107 117.015 79.1963 117.994 79.7402C118.837 80.1753 119.259 80.8417 119.259 81.7391C119.259 82.2831 119.123 82.6774 118.851 82.9222C118.606 83.1669 118.348 83.3981 118.076 83.6157C117.804 83.8332 117.6 84.1324 117.464 84.5131C116.974 85.7098 116.73 87.5319 116.73 89.9796V90.1835C116.974 92.5224 117.355 94.9837 117.872 97.5673C118.416 100.477 118.892 102.204 119.3 102.748C119.653 103.129 120.02 103.537 120.401 103.972C120.809 104.407 121.013 104.842 121.013 105.277C121.013 107.507 120.442 108.881 119.3 109.398C118.429 109.806 116.104 110.01 112.324 110.01C109.278 110.01 107.252 109.71 106.246 109.112C105.239 108.487 104.736 107.304 104.736 105.563C104.736 105.155 104.995 104.706 105.511 104.217C106.137 103.618 106.49 103.224 106.572 103.034C106.953 102.272 107.415 100.301 107.959 97.1186C108.448 94.263 108.816 91.5569 109.06 89.0005Z" fill="white"/>
<path d="M134.832 95.7723C134.832 96.4522 135.077 97.7033 135.567 99.5254C136.083 101.32 136.478 102.408 136.75 102.789C137.049 103.17 137.362 103.55 137.688 103.931C138.096 104.394 138.341 104.842 138.422 105.277C138.504 105.821 138.545 106.311 138.545 106.746C138.545 107.943 138.11 108.786 137.239 109.275C136.532 109.656 135.268 109.887 133.445 109.969C132.602 110.078 130.767 110.132 127.938 110.132C126.85 110.132 125.735 109.914 124.593 109.479C123.587 109.126 122.921 108.623 122.594 107.97C122.295 107.507 122.145 106.964 122.145 106.338C122.145 106.229 122.145 106.12 122.145 106.012C122.145 105.876 122.145 105.726 122.145 105.563C122.145 105.209 122.322 104.842 122.676 104.462C122.975 104.162 123.288 103.85 123.614 103.523C124.43 100.423 125.015 97.5401 125.368 94.8749C125.667 92.7264 125.871 90.7682 125.98 89.0005C126.143 86.4169 125.776 84.7579 124.879 84.0236C124.634 83.8876 124.294 83.6837 123.859 83.4117C123.532 83.0853 123.369 82.623 123.369 82.0247C123.369 80.9096 124.076 80.0802 125.491 79.5362C126.633 79.0739 128.074 78.8563 129.815 78.8835C132.779 78.9379 134.683 79.3595 135.526 80.1481C136.804 80.9912 137.96 83.0037 138.993 86.1857C140.136 89.6124 141.251 91.8561 142.339 92.9167C142.611 93.1615 142.91 93.2295 143.236 93.1207C143.562 92.7128 143.726 92.1145 143.726 91.3258C143.726 91.0266 143.685 90.5643 143.603 89.9388C143.603 89.8844 143.603 89.8164 143.603 89.7348L143.562 89.6532C143.481 89.0005 143.386 88.307 143.277 87.5727C142.815 86.0497 142.067 84.8667 141.033 84.0236C140.788 83.8876 140.448 83.6837 140.013 83.4117C139.714 83.0853 139.565 82.623 139.565 82.0247C139.565 80.9096 140.272 80.0802 141.686 79.5362C142.828 79.0739 144.27 78.8563 146.01 78.8835C148.403 78.9107 150.103 79.1963 151.109 79.7402C151.925 80.1753 152.333 80.8417 152.333 81.7391C152.333 82.2831 152.211 82.6774 151.966 82.9222C151.721 83.1669 151.463 83.3981 151.191 83.6157C150.919 83.8332 150.701 84.1324 150.538 84.5131C150.212 85.0843 149.886 85.669 149.559 86.2673C149.07 87.2735 148.825 88.4022 148.825 89.6532C148.825 89.5988 148.825 89.7756 148.825 90.1835C148.879 91.6793 149.301 93.9366 150.09 96.9554C150.824 99.8382 151.191 102.082 151.191 103.686C151.191 105.808 151.014 107.276 150.661 108.092C150.09 109.37 148.906 110.01 147.112 110.01C145.126 110.01 143.331 108.718 141.727 106.134C141.319 105.454 140.204 103.061 138.382 98.9543C137.239 96.3707 136.206 95.0788 135.281 95.0788C134.982 95.0788 134.832 95.31 134.832 95.7723Z" fill="white"/>
<path d="M166.239 83.2077C166.103 83.2893 165.926 83.4253 165.709 83.6157C165.41 83.8332 165.179 84.1324 165.015 84.5131C164.879 84.8939 164.757 85.329 164.648 85.8186C164.648 90.6867 164.675 93.6782 164.73 94.7933C164.784 97.0506 165.423 98.1792 166.647 98.1792C168.061 98.1792 169.108 97.3769 169.788 95.7723C170.305 94.6029 170.563 93.1887 170.563 91.5297C170.563 89.49 170.305 87.7767 169.788 86.3897C169.054 84.35 167.871 83.2893 166.239 83.2077ZM156.653 89.0413C156.653 86.2945 156.285 84.6219 155.551 84.0236C155.306 83.8876 154.966 83.6837 154.531 83.4117C154.205 83.0853 154.042 82.623 154.042 82.0247C154.042 80.9096 154.749 80.0802 156.163 79.5362C157.333 79.0739 158.774 78.8563 160.487 78.8835C160.841 78.8835 161.589 78.9243 162.731 79.0059C168.034 79.3595 172.018 80.6513 174.684 82.8814C177.866 85.5738 179.457 89.7756 179.457 95.4868C179.457 99.811 178.369 103.265 176.193 105.849C173.854 108.623 170.577 110.01 166.362 110.01C160.786 110.01 159.019 110.023 161.058 110.05C158.366 110.023 156.449 109.819 155.306 109.438C154.273 109.112 153.634 108.867 153.389 108.704C152.9 108.405 152.696 107.943 152.777 107.317C152.913 106.039 153.267 105.087 153.838 104.462C154.599 103.646 155.102 102.898 155.347 102.218C156.245 99.6342 156.68 95.242 156.653 89.0413Z" fill="white"/>
<path d="M183.862 89.0413V89.0005C183.835 86.2537 183.468 84.5947 182.761 84.0236C182.516 83.8876 182.176 83.6837 181.741 83.4117C181.414 83.0853 181.251 82.623 181.251 82.0247C181.251 80.9096 181.958 80.0802 183.373 79.5362C184.542 79.0739 185.983 78.8563 187.697 78.8835C187.833 78.8835 188.037 78.8971 188.309 78.9243C188.553 78.9243 188.744 78.9243 188.88 78.9243C188.689 78.9243 189.628 78.9243 191.695 78.9243C192.646 78.9243 194.047 78.8155 195.896 78.598C197.746 78.3532 199.105 78.2308 199.976 78.2308C201.118 78.2308 202.016 78.9651 202.668 80.4337C203.185 81.5759 203.443 82.8134 203.443 84.146C203.443 84.9891 203.267 85.6962 202.913 86.2673C202.505 86.9744 201.92 87.3279 201.159 87.3279C200.506 87.3279 199.949 86.9608 199.486 86.2265C198.806 85.1115 198.317 84.4315 198.018 84.1868C197.202 83.4525 196.032 83.0989 194.509 83.1261C192.633 83.1805 191.695 83.6973 191.695 84.6763C191.695 85.6826 192.089 86.4577 192.878 87.0016C193.585 87.4639 194.469 87.6951 195.529 87.6951C195.747 87.6951 196.032 87.5727 196.386 87.3279C196.739 87.056 197.039 86.92 197.283 86.92C197.718 86.92 197.936 88.5382 197.936 91.7745C197.936 92.1824 197.814 92.5496 197.569 92.876C197.324 93.2023 196.998 93.3655 196.59 93.3655C196.291 93.3655 195.815 92.9983 195.162 92.264C194.509 91.5297 193.789 91.1626 193 91.1626C192.374 91.1626 191.98 91.3666 191.817 91.7745C191.735 91.9921 191.681 92.5088 191.654 93.3247C191.545 96.697 191.831 99.811 192.51 102.667C192.646 103.292 193.394 104.244 194.754 105.522C195.978 106.692 196.549 107.698 196.467 108.541C196.386 109.438 195.516 109.887 193.857 109.887C193.422 109.887 192.782 109.846 191.939 109.765C191.096 109.71 190.498 109.683 190.144 109.683L182.475 109.765C181.088 109.765 180.395 109.085 180.395 107.725C180.395 107.181 180.721 106.528 181.374 105.767C181.89 105.196 182.407 104.625 182.924 104.054C183.685 103.129 184.052 102.055 184.025 100.831L183.862 89.0413Z" fill="white"/>
<path d="M229.487 90.4691C229.487 91.3938 229.5 92.7808 229.527 94.6301C229.582 96.4522 229.609 97.8257 229.609 98.7503C229.609 101.388 228.453 103.904 226.141 106.297C223.83 108.663 221.341 109.846 218.676 109.846C213.862 109.846 210.476 108.935 208.518 107.113C206.479 105.237 205.459 101.959 205.459 97.2817C205.459 96.3843 205.5 95.038 205.581 93.2431C205.69 91.4482 205.744 90.1019 205.744 89.2045C205.744 87.2192 205.527 85.7642 205.092 84.8395C204.874 84.4044 204.453 83.942 203.827 83.4525C203.365 83.0989 203.134 82.623 203.134 82.0247C203.134 80.8552 203.909 79.9986 205.459 79.4546C206.519 79.0739 207.784 78.8835 209.253 78.8835C213.713 78.8835 215.943 79.8354 215.943 81.7391C215.943 82.3374 215.712 82.8406 215.249 83.2485C214.624 83.7924 214.243 84.214 214.107 84.5131C213.645 85.601 213.414 87.4231 213.414 89.9796L213.373 89.898C213.4 92.4 213.645 94.0862 214.107 94.9565C214.814 96.2075 216.324 96.833 218.635 96.833C220.593 96.833 221.912 96.4251 222.592 95.6092C223.299 94.7933 223.653 93.3791 223.653 91.3666C223.653 89.2997 223.571 87.6815 223.408 86.5121C223.218 85.0979 222.742 84.1596 221.98 83.6973C221.301 83.3165 220.961 82.759 220.961 82.0247C220.961 79.9306 223.109 78.8835 227.406 78.8835C228.521 78.8835 229.5 79.0603 230.343 79.4139C231.458 79.9034 232.016 80.6377 232.016 81.6167C232.016 82.2151 231.785 82.7182 231.322 83.1261C230.724 83.6429 230.357 84.0508 230.221 84.35C229.731 85.5466 229.487 87.5863 229.487 90.4691Z" fill="white"/>
<path d="M249.122 109.724L247.042 109.806C245.791 109.969 244.159 110.023 242.147 109.969C238.72 109.887 237.074 109.846 237.21 109.846C233.784 109.846 232.07 108.568 232.07 106.012C232.07 105.441 232.438 104.407 233.172 102.911C233.988 101.28 234.464 100.097 234.6 99.3622C235.144 96.0987 235.415 92.8759 235.415 89.694C235.388 86.5664 234.98 84.6763 234.192 84.0236C233.947 83.8876 233.607 83.6837 233.172 83.4117C232.845 83.0853 232.682 82.623 232.682 82.0247C232.682 80.9096 233.389 80.0802 234.804 79.5362C235.973 79.0739 237.414 78.8563 239.128 78.8835C241.548 78.9107 243.248 79.1963 244.227 79.7402C245.07 80.1753 245.492 80.8417 245.492 81.7391C245.492 82.2831 245.356 82.6774 245.084 82.9222C244.839 83.1669 244.581 83.3981 244.309 83.6157C244.037 83.8332 243.833 84.1324 243.697 84.5131C243.207 85.6826 242.962 87.3279 242.962 89.4492C242.962 92.4136 242.99 94.059 243.044 94.3853C243.642 98.1112 244.54 99.9742 245.736 99.9742C246.525 99.9742 247.287 99.7294 248.021 99.2399C249.109 98.5328 249.843 98.0976 250.224 97.9344C250.958 97.6353 251.502 97.4857 251.856 97.4857C252.209 97.4857 252.563 97.6081 252.916 97.8529C253.569 98.3152 253.95 98.6415 254.058 98.8319C254.276 99.2671 254.385 100.178 254.385 101.565C254.385 105.019 253.868 107.412 252.835 108.745C252.291 109.425 251.529 109.765 250.55 109.765C250.387 109.765 250.129 109.751 249.775 109.724C249.476 109.697 249.258 109.697 249.122 109.724Z" fill="white"/>
<path d="M267.493 95.7723C267.493 96.4522 267.738 97.7033 268.228 99.5254C268.744 101.32 269.139 102.408 269.411 102.789C269.71 103.17 270.023 103.55 270.349 103.931C270.757 104.394 271.002 104.842 271.083 105.277C271.165 105.821 271.206 106.311 271.206 106.746C271.206 107.943 270.771 108.786 269.9 109.275C269.193 109.656 267.929 109.887 266.106 109.969C265.263 110.078 263.428 110.132 260.599 110.132C259.511 110.132 258.396 109.914 257.254 109.479C256.248 109.126 255.582 108.623 255.255 107.97C254.956 107.507 254.806 106.964 254.806 106.338C254.806 106.229 254.806 106.12 254.806 106.012C254.806 105.876 254.806 105.726 254.806 105.563C254.806 105.209 254.983 104.842 255.337 104.462C255.636 104.162 255.949 103.85 256.275 103.523C257.091 100.423 257.676 97.5401 258.029 94.8749C258.328 92.7264 258.532 90.7682 258.641 89.0005C258.804 86.4169 258.437 84.7579 257.54 84.0236C257.295 83.8876 256.955 83.6837 256.52 83.4117C256.193 83.0853 256.03 82.623 256.03 82.0247C256.03 80.9096 256.737 80.0802 258.152 79.5362C259.294 79.0739 260.735 78.8563 262.476 78.8835C265.44 78.9379 267.344 79.3595 268.187 80.1481C269.465 80.9912 270.621 83.0037 271.654 86.1857C272.797 89.6124 273.912 91.8561 275 92.9167C275.272 93.1615 275.571 93.2295 275.897 93.1207C276.223 92.7128 276.387 92.1145 276.387 91.3258C276.387 91.0266 276.346 90.5643 276.264 89.9388C276.264 89.8844 276.264 89.8164 276.264 89.7348L276.223 89.6532C276.142 89.0005 276.047 88.307 275.938 87.5727C275.476 86.0497 274.728 84.8667 273.694 84.0236C273.449 83.8876 273.109 83.6837 272.674 83.4117C272.375 83.0853 272.226 82.623 272.226 82.0247C272.226 80.9096 272.933 80.0802 274.347 79.5362C275.489 79.0739 276.931 78.8563 278.671 78.8835C281.064 78.9107 282.764 79.1963 283.77 79.7402C284.586 80.1753 284.994 80.8417 284.994 81.7391C284.994 82.2831 284.872 82.6774 284.627 82.9222C284.382 83.1669 284.124 83.3981 283.852 83.6157C283.58 83.8332 283.362 84.1324 283.199 84.5131C282.873 85.0843 282.547 85.669 282.22 86.2673C281.731 87.2735 281.486 88.4022 281.486 89.6532C281.486 89.5988 281.486 89.7756 281.486 90.1835C281.54 91.6793 281.962 93.9366 282.751 96.9554C283.485 99.8382 283.852 102.082 283.852 103.686C283.852 105.808 283.675 107.276 283.322 108.092C282.751 109.37 281.567 110.01 279.773 110.01C277.787 110.01 275.992 108.718 274.388 106.134C273.98 105.454 272.865 103.061 271.043 98.9543C269.9 96.3707 268.867 95.0788 267.942 95.0788C267.643 95.0788 267.493 95.31 267.493 95.7723Z" fill="white"/>
<path d="M289.191 86.716C289.028 85.3018 288.702 84.4044 288.212 84.0236C287.967 83.8876 287.627 83.6837 287.192 83.4117C286.866 83.0853 286.703 82.623 286.703 82.0247C286.703 80.9096 287.41 80.0802 288.824 79.5362C289.993 79.0739 291.435 78.8563 293.148 78.8835C293.475 78.8835 293.964 78.9107 294.617 78.9651C295.297 79.0195 295.813 79.0467 296.167 79.0467C297.092 79.0467 298.601 78.9787 300.695 78.8427C302.789 78.7067 304.271 78.6388 305.142 78.6388C306.311 78.6388 307.222 79.3731 307.875 80.8417C308.365 81.9839 308.609 83.2213 308.609 84.5539C308.609 85.397 308.446 86.1041 308.12 86.6752C307.685 87.3823 307.086 87.7359 306.325 87.7359C305.59 87.7359 304.965 87.3959 304.448 86.716C303.687 85.7098 303.102 85.0707 302.694 84.7987C301.688 84.0916 300.206 83.738 298.248 83.738C297.676 83.738 297.377 83.738 297.35 83.738C297.078 83.8468 296.888 84.1732 296.779 84.7171C296.725 84.9075 296.697 85.0978 296.697 85.2882C296.697 86.1857 297.146 86.92 298.044 87.4911C298.832 87.9806 299.771 88.2254 300.858 88.2254C301.076 88.2254 301.334 88.0758 301.633 87.7767C301.96 87.4775 302.232 87.3279 302.449 87.3279C302.857 87.3279 303.061 87.6271 303.061 88.2254C303.061 89.1773 302.939 90.0883 302.694 90.9586C302.341 92.1824 301.824 92.7944 301.144 92.7944C300.709 92.7944 300.287 92.4544 299.879 91.7745C299.499 91.0946 298.927 90.7547 298.166 90.7547C297.296 90.7547 296.861 91.4753 296.861 92.9167C296.861 96.3163 298.832 98.016 302.776 98.016C302.939 98.016 303.197 97.9752 303.551 97.8936C303.904 97.8121 304.176 97.7985 304.367 97.8529C304.557 97.8801 304.72 97.8936 304.856 97.8936C305.536 97.8936 306.094 97.5673 306.529 96.9146C306.991 96.2619 307.358 95.9355 307.63 95.9355C308.038 95.9355 308.392 96.2075 308.691 96.7514C308.99 97.2953 309.14 97.7985 309.14 98.2608C309.14 98.5328 309.167 99.2399 309.221 100.382C309.303 101.497 309.344 102.422 309.344 103.156C309.344 106.474 308.664 108.623 307.304 109.602C306.787 109.955 305.06 110.132 302.123 110.132C301.307 110.132 300.192 110.146 298.778 110.173C297.608 110.2 296.466 110.2 295.351 110.173L287.682 110.132C286.295 110.105 285.601 109.438 285.601 108.133C285.601 107.616 285.805 107.154 286.213 106.746C286.893 106.066 287.274 105.645 287.355 105.481L288.131 104.258C288.511 103.632 288.742 102.082 288.824 99.607L289.15 89.0821C289.205 88.1846 289.218 87.3959 289.191 86.716Z" fill="white"/>
<path d="M316.871 98.8319C318.747 98.8319 319.686 97.9344 319.686 96.1395C319.686 95.5412 319.06 94.7117 317.809 93.651C315.932 92.0193 314.804 90.9858 314.423 90.5507C313.172 89.1637 312.547 87.7767 312.547 86.3897C312.547 83.9148 313.539 81.9567 315.525 80.5153C317.292 79.2371 319.454 78.598 322.011 78.598C322.827 78.598 323.996 78.7475 325.519 79.0467C327.069 79.3459 328.266 79.4954 329.109 79.4954C330.578 79.4954 331.312 81.1816 331.312 84.5539C331.312 86.4849 330.55 87.4503 329.027 87.4503C327.967 87.4503 326.947 86.6752 325.968 85.125C325.016 83.5749 324.091 82.7998 323.194 82.7998C321.209 82.7998 320.216 83.5205 320.216 84.9619C320.216 85.805 321.331 86.7568 323.561 87.8175C326.58 89.2317 328.633 90.4147 329.721 91.3666C331.951 93.2975 333.066 95.7723 333.066 98.7911C333.066 102.082 331.992 104.788 329.843 106.909C327.722 109.03 325.03 110.091 321.766 110.091C318.421 110.091 315.701 109.275 313.607 107.643C311.296 105.876 310.14 103.36 310.14 100.097C310.14 98.4648 310.983 97.6489 312.669 97.6489C313.213 97.6489 313.77 97.8529 314.342 98.2608C314.94 98.6415 315.783 98.8319 316.871 98.8319Z" fill="white"/>
<path d="M340.335 98.8319C342.212 98.8319 343.15 97.9344 343.15 96.1395C343.15 95.5412 342.525 94.7117 341.274 93.651C339.397 92.0193 338.269 90.9858 337.888 90.5507C336.637 89.1637 336.011 87.7767 336.011 86.3897C336.011 83.9148 337.004 81.9567 338.989 80.5153C340.757 79.2371 342.919 78.598 345.475 78.598C346.291 78.598 347.461 78.7475 348.984 79.0467C350.534 79.3459 351.731 79.4954 352.574 79.4954C354.042 79.4954 354.777 81.1816 354.777 84.5539C354.777 86.4849 354.015 87.4503 352.492 87.4503C351.431 87.4503 350.412 86.6752 349.433 85.125C348.481 83.5749 347.556 82.7998 346.659 82.7998C344.673 82.7998 343.681 83.5205 343.681 84.9619C343.681 85.805 344.796 86.7568 347.026 87.8175C350.044 89.2317 352.098 90.4147 353.186 91.3666C355.416 93.2975 356.531 95.7723 356.531 98.7911C356.531 102.082 355.456 104.788 353.308 106.909C351.187 109.03 348.494 110.091 345.231 110.091C341.886 110.091 339.166 109.275 337.072 107.643C334.76 105.876 333.604 103.36 333.604 100.097C333.604 98.4648 334.447 97.6489 336.134 97.6489C336.678 97.6489 337.235 97.8529 337.806 98.2608C338.404 98.6415 339.248 98.8319 340.335 98.8319Z" fill="white"/>
<path d="M209.769 124.573C209.089 124.573 208.749 125.035 208.749 125.96C208.749 127.891 208.776 129.156 208.831 129.754C208.858 130.08 208.871 130.407 208.871 130.733C208.899 131.059 209.075 131.304 209.402 131.467C209.456 131.495 209.606 131.522 209.851 131.549C210.748 131.549 211.455 131.141 211.972 130.325C212.434 129.591 212.665 128.761 212.665 127.837C212.665 125.661 211.7 124.573 209.769 124.573ZM210.014 136.934C210.721 141.176 211.333 143.651 211.849 144.358C212.203 144.739 212.57 145.147 212.951 145.582C213.332 146.017 213.522 146.452 213.522 146.888C213.522 148.574 213.25 149.73 212.706 150.355C212.162 150.981 211.115 151.361 209.565 151.497C208.776 151.715 207.729 151.824 206.424 151.824C205.118 151.824 203.636 151.715 201.977 151.497C200.128 151.307 198.877 150.899 198.224 150.273C197.599 149.648 197.286 148.614 197.286 147.173C197.286 146.765 197.531 146.316 198.02 145.827C198.646 145.229 199.013 144.834 199.122 144.644C199.91 143.066 200.699 138.729 201.488 131.63V128.938C201.515 127.306 201.175 126.205 200.468 125.634C200.223 125.498 199.883 125.294 199.448 125.022C199.122 124.695 198.958 124.233 198.958 123.635C198.958 122.52 199.666 121.69 201.08 121.146C202.249 120.684 203.691 120.466 205.404 120.494C205.893 120.521 206.084 120.534 205.975 120.534C206.193 120.507 206.505 120.494 206.913 120.494C207.077 120.466 207.756 120.398 208.953 120.29C209.769 120.235 210.598 120.222 211.442 120.249C217.724 120.494 220.865 123.2 220.865 128.367C220.865 131.277 220.131 133.303 218.662 134.445C217.737 135.18 216.201 135.669 214.052 135.914C211.904 136.131 210.558 136.471 210.014 136.934Z" fill="white"/>
<path d="M224.534 128.326C224.371 126.912 224.044 126.014 223.555 125.634C223.31 125.498 222.97 125.294 222.535 125.022C222.209 124.695 222.045 124.233 222.045 123.635C222.045 122.52 222.753 121.69 224.167 121.146C225.336 120.684 226.778 120.466 228.491 120.494C228.817 120.494 229.307 120.521 229.96 120.575C230.639 120.63 231.156 120.657 231.51 120.657C232.434 120.657 233.944 120.589 236.038 120.453C238.132 120.317 239.614 120.249 240.484 120.249C241.654 120.249 242.565 120.983 243.218 122.452C243.707 123.594 243.952 124.831 243.952 126.164C243.952 127.007 243.789 127.714 243.462 128.285C243.027 128.992 242.429 129.346 241.668 129.346C240.933 129.346 240.308 129.006 239.791 128.326C239.029 127.32 238.445 126.681 238.037 126.409C237.031 125.702 235.548 125.348 233.59 125.348C233.019 125.348 232.72 125.348 232.693 125.348C232.421 125.457 232.23 125.783 232.122 126.327C232.067 126.518 232.04 126.708 232.04 126.898C232.04 127.796 232.489 128.53 233.386 129.101C234.175 129.591 235.113 129.836 236.201 129.836C236.419 129.836 236.677 129.686 236.976 129.387C237.303 129.088 237.574 128.938 237.792 128.938C238.2 128.938 238.404 129.237 238.404 129.836C238.404 130.787 238.282 131.698 238.037 132.569C237.683 133.793 237.167 134.404 236.487 134.404C236.051 134.404 235.63 134.065 235.222 133.385C234.841 132.705 234.27 132.365 233.509 132.365C232.638 132.365 232.203 133.085 232.203 134.527C232.203 137.926 234.175 139.626 238.118 139.626C238.282 139.626 238.54 139.585 238.893 139.504C239.247 139.422 239.519 139.409 239.709 139.463C239.9 139.49 240.063 139.504 240.199 139.504C240.879 139.504 241.436 139.177 241.871 138.525C242.334 137.872 242.701 137.546 242.973 137.546C243.381 137.546 243.734 137.818 244.034 138.362C244.333 138.905 244.482 139.409 244.482 139.871C244.482 140.143 244.51 140.85 244.564 141.992C244.645 143.107 244.686 144.032 244.686 144.766C244.686 148.084 244.006 150.233 242.647 151.212C242.13 151.565 240.403 151.742 237.466 151.742C236.65 151.742 235.535 151.756 234.121 151.783C232.951 151.81 231.809 151.81 230.694 151.783L223.025 151.742C221.638 151.715 220.944 151.049 220.944 149.743C220.944 149.226 221.148 148.764 221.556 148.356C222.236 147.676 222.617 147.255 222.698 147.092L223.473 145.868C223.854 145.242 224.085 143.692 224.167 141.217L224.493 130.692C224.548 129.795 224.561 129.006 224.534 128.326Z" fill="white"/>
<path d="M257.558 124.695C257.204 124.695 256.878 124.831 256.578 125.103C256.306 125.348 256.198 125.647 256.252 126.001L256.578 130.203C256.633 130.91 256.878 131.263 257.313 131.263C258.129 131.263 258.781 130.869 259.271 130.08C259.706 129.373 259.924 128.585 259.924 127.714C259.924 125.702 259.135 124.695 257.558 124.695ZM257.435 137.342C258.006 141.204 258.591 143.542 259.189 144.358C259.543 144.739 259.91 145.147 260.291 145.582C260.671 146.017 260.862 146.452 260.862 146.888C260.862 149.118 260.304 150.491 259.189 151.008C258.319 151.416 255.994 151.62 252.213 151.62C249.113 151.62 247.046 151.334 246.013 150.763C245.006 150.165 244.544 148.968 244.626 147.173C244.653 146.765 244.911 146.316 245.401 145.827C245.999 145.229 246.353 144.834 246.461 144.644C246.842 143.882 247.305 141.911 247.848 138.729C248.338 135.873 248.705 133.167 248.95 130.611C248.868 127.837 248.501 126.178 247.848 125.634C247.604 125.498 247.264 125.294 246.829 125.022C246.502 124.695 246.339 124.233 246.339 123.635C246.339 122.52 247.046 121.69 248.46 121.146C249.603 120.684 251.044 120.466 252.785 120.494C253.41 120.521 253.981 120.548 254.498 120.575C256.918 120.466 258.441 120.412 259.067 120.412C261.324 120.412 263.31 120.861 265.023 121.758C267.144 122.846 268.205 124.424 268.205 126.49C268.205 129.074 266.818 131.127 264.044 132.65C264.316 133.493 264.9 134.119 265.798 134.527C267.131 135.125 267.81 135.424 267.838 135.424C268.953 136.349 269.782 137.314 270.326 138.321C270.816 139.218 271.224 140.428 271.55 141.951C272.012 144.209 272.706 146.126 273.63 147.703C273.685 147.812 274.038 148.207 274.691 148.886C275.181 149.403 275.425 149.838 275.425 150.192C275.425 150.464 275.194 150.736 274.732 151.008C274.406 151.198 274.079 151.402 273.753 151.62C273.263 151.647 272.461 151.756 271.346 151.946C270.421 152.109 269.633 152.191 268.98 152.191C266.152 152.191 264.207 151.076 263.146 148.846C262.63 147.758 262.14 145.46 261.678 141.951C261.27 139.014 260.576 137.111 259.597 136.24C259.271 135.968 258.877 135.887 258.414 135.995C257.653 136.186 257.326 136.635 257.435 137.342Z" fill="white"/>
<path d="M282.57 140.442C284.447 140.442 285.385 139.545 285.385 137.75C285.385 137.151 284.759 136.322 283.508 135.261C281.632 133.629 280.503 132.596 280.122 132.161C278.871 130.774 278.246 129.387 278.246 128C278.246 125.525 279.239 123.567 281.224 122.125C282.992 120.847 285.154 120.208 287.71 120.208C288.526 120.208 289.696 120.358 291.218 120.657C292.769 120.956 293.965 121.106 294.808 121.106C296.277 121.106 297.011 122.792 297.011 126.164C297.011 128.095 296.25 129.06 294.727 129.06C293.666 129.06 292.646 128.285 291.667 126.735C290.715 125.185 289.791 124.41 288.893 124.41C286.908 124.41 285.915 125.131 285.915 126.572C285.915 127.415 287.03 128.367 289.26 129.428C292.279 130.842 294.332 132.025 295.42 132.977C297.65 134.908 298.765 137.382 298.765 140.401C298.765 143.692 297.691 146.398 295.543 148.519C293.421 150.641 290.729 151.701 287.465 151.701C284.12 151.701 281.401 150.885 279.307 149.254C276.995 147.486 275.839 144.97 275.839 141.707C275.839 140.075 276.682 139.259 278.368 139.259C278.912 139.259 279.47 139.463 280.041 139.871C280.639 140.252 281.482 140.442 282.57 140.442Z" fill="white"/>
<path d="M325.371 140.238C325.371 143.665 324.079 146.534 321.496 148.846C319.048 151.021 316.097 152.109 312.643 152.109C308.782 152.109 305.681 150.586 303.342 147.54C301.248 144.766 300.201 141.38 300.201 137.382C300.201 132.977 301.262 129.128 303.383 125.838C305.831 122.03 309.135 120.127 313.296 120.127C317.321 120.127 320.435 122.438 322.638 127.062C324.46 130.842 325.371 135.234 325.371 140.238ZM316.437 134.894C316.437 133.099 316.043 131.114 315.254 128.938C314.275 126.218 313.065 124.859 311.624 124.859C310.781 124.859 310.128 125.484 309.665 126.735C309.312 127.687 309.135 128.707 309.135 129.795C309.135 131.644 309.434 133.371 310.033 134.976C310.848 137.124 312.045 138.198 313.623 138.198C315.499 138.198 316.437 137.097 316.437 134.894Z" fill="white"/>
<path d="M339.043 137.382C339.043 138.062 339.288 139.313 339.777 141.136C340.294 142.93 340.688 144.018 340.96 144.399C341.259 144.78 341.572 145.161 341.898 145.541C342.306 146.004 342.551 146.452 342.633 146.888C342.714 147.431 342.755 147.921 342.755 148.356C342.755 149.553 342.32 150.396 341.45 150.885C340.742 151.266 339.478 151.497 337.656 151.579C336.813 151.688 334.977 151.742 332.149 151.742C331.061 151.742 329.946 151.524 328.803 151.089C327.797 150.736 327.131 150.233 326.804 149.58C326.505 149.118 326.356 148.574 326.356 147.948C326.356 147.839 326.356 147.731 326.356 147.622C326.356 147.486 326.356 147.336 326.356 147.173C326.356 146.82 326.533 146.452 326.886 146.072C327.185 145.772 327.498 145.46 327.824 145.133C328.64 142.033 329.225 139.15 329.578 136.485C329.878 134.337 330.082 132.378 330.19 130.611C330.354 128.027 329.986 126.368 329.089 125.634C328.844 125.498 328.504 125.294 328.069 125.022C327.743 124.695 327.58 124.233 327.58 123.635C327.58 122.52 328.287 121.69 329.701 121.146C330.843 120.684 332.285 120.466 334.025 120.494C336.989 120.548 338.893 120.97 339.736 121.758C341.014 122.601 342.17 124.614 343.204 127.796C344.346 131.223 345.461 133.466 346.549 134.527C346.821 134.772 347.12 134.84 347.446 134.731C347.773 134.323 347.936 133.725 347.936 132.936C347.936 132.637 347.895 132.174 347.814 131.549C347.814 131.495 347.814 131.427 347.814 131.345L347.773 131.263C347.691 130.611 347.596 129.917 347.487 129.183C347.025 127.66 346.277 126.477 345.243 125.634C344.999 125.498 344.659 125.294 344.224 125.022C343.924 124.695 343.775 124.233 343.775 123.635C343.775 122.52 344.482 121.69 345.896 121.146C347.038 120.684 348.48 120.466 350.22 120.494C352.614 120.521 354.313 120.806 355.32 121.35C356.136 121.785 356.543 122.452 356.543 123.349C356.543 123.893 356.421 124.288 356.176 124.532C355.932 124.777 355.673 125.008 355.401 125.226C355.129 125.443 354.912 125.743 354.749 126.123C354.422 126.694 354.096 127.279 353.769 127.877C353.28 128.884 353.035 130.012 353.035 131.263C353.035 131.209 353.035 131.386 353.035 131.794C353.09 133.289 353.511 135.547 354.3 138.566C355.034 141.448 355.401 143.692 355.401 145.297C355.401 147.418 355.224 148.886 354.871 149.702C354.3 150.981 353.117 151.62 351.322 151.62C349.336 151.62 347.542 150.328 345.937 147.744C345.529 147.064 344.414 144.671 342.592 140.564C341.45 137.981 340.416 136.689 339.491 136.689C339.192 136.689 339.043 136.92 339.043 137.382Z" fill="white"/>
</svg>
