<svg width="208" height="213" viewBox="0 0 208 213" fill="none" xmlns="http://www.w3.org/2000/svg">
<path d="M104 0.015625L119.969 36.0528L149.992 10.5129L148.743 49.9098L186.874 39.9257L168.655 74.8793L207.342 82.4284L175.762 106.016L207.342 129.603L168.655 137.152L186.874 172.106L148.743 162.121L149.992 201.518L119.969 175.978L104 212.016L88.0315 175.978L58.0083 201.518L59.2571 162.121L21.1259 172.106L39.3447 137.152L0.657639 129.603L32.238 106.016L0.657639 82.4284L39.3447 74.8793L21.1259 39.9257L59.2571 49.9098L58.0083 10.5129L88.0315 36.0528L104 0.015625Z" fill="white"/>
</svg>
