<svg width="37" height="37" viewBox="0 0 37 37" fill="none" xmlns="http://www.w3.org/2000/svg">
<path id="Star" d="M18.5 0.621094L21.2717 6.47739L26.3099 2.40365L26.2662 8.8826L32.573 7.39828L29.7225 13.2166L36.0487 14.6157L30.956 18.6211L36.0487 22.6265L29.7225 24.0255L32.573 29.8439L26.2662 28.3596L26.3099 34.8385L21.2717 30.7648L18.5 36.6211L15.7283 30.7648L10.6901 34.8385L10.7338 28.3596L4.42703 29.8439L7.27753 24.0255L0.951298 22.6265L6.044 18.6211L0.951298 14.6157L7.27753 13.2166L4.42703 7.39828L10.7338 8.8826L10.6901 2.40365L15.7283 6.47739L18.5 0.621094Z" fill="#F9F3E9"/>
</svg>
