<svg width="518" height="473" viewBox="0 0 518 473" fill="none" xmlns="http://www.w3.org/2000/svg">
<circle cx="124.797" cy="329.379" r="120.296" fill="#F9F3E9" stroke="#F24EB6" stroke-width="2.45502"/>
<path d="M148.555 267.642C134.623 258.904 115.48 259.32 99.0262 265.833C82.4466 271.982 67.9291 284.467 63.3955 300.283C56.7437 323.55 59.1616 350.645 71.6128 371.345C89.0463 400.332 119.476 419.184 152.106 408.675L152.141 408.765C152.628 408.578 153.11 408.393 153.581 408.181C154.052 407.968 154.561 407.837 155.049 407.65L155.012 407.555C186.29 393.6 196.334 359.202 189.932 325.987C185.366 302.272 169.054 280.502 148.555 267.642Z" fill="#FDAB96"/>
<path d="M82.592 367.904C80.0766 355.812 68.2354 348.049 56.1439 350.565C44.0524 353.08 36.2895 364.921 38.8049 377.013C41.3202 389.104 53.1615 396.867 65.253 394.352C77.3444 391.836 85.1073 379.995 82.592 367.904Z" fill="#FDAB96"/>
<path d="M220.901 314.888C218.385 302.797 206.544 295.034 194.453 297.549C182.361 300.064 174.598 311.906 177.113 323.997C179.629 336.089 191.47 343.851 203.562 341.336C215.653 338.821 223.416 326.98 220.901 314.888Z" fill="#FDAB96"/>
<path d="M219.548 362.249L202.988 368.083C202.342 357.064 202.131 346.037 202.356 335.001C206.861 344.674 213.205 353.648 219.548 362.249Z" fill="#FF9072"/>
<path d="M205.513 335.258C205.753 335.884 205.802 336.568 205.654 337.221C205.505 337.875 205.166 338.471 204.68 338.932C204.193 339.393 203.581 339.7 202.92 339.813C202.259 339.926 201.58 339.841 200.967 339.568C200.355 339.295 199.837 338.847 199.48 338.279C199.122 337.712 198.941 337.052 198.959 336.381C198.977 335.711 199.193 335.061 199.58 334.514C199.967 333.966 200.508 333.546 201.134 333.306C201.974 332.984 202.907 333.009 203.728 333.375C204.549 333.742 205.191 334.419 205.513 335.258Z" fill="#FF9072"/>
<path d="M189.847 328.01C191.484 322.775 189.401 310.703 187.788 306.662C186.592 303.677 185.041 300.769 184.655 297.582C184.244 294.18 185.203 290.631 184.237 287.339C182.913 282.796 178.316 279.887 176.614 275.482C175.04 271.375 176.02 266.219 173.094 262.945C170.939 260.558 167.426 260.093 164.563 258.626C157.713 255.122 154.378 245.784 146.801 244.473C140.395 243.369 133.598 248.737 127.702 246.011C125.685 245.075 124.02 243.245 121.811 242.981C117.769 242.493 115.191 247.201 111.468 248.821C106.204 251.115 99.5785 246.837 94.5506 249.612C87.9525 253.253 86.8867 261.822 79.2933 265.632C72.774 268.909 62.3783 269.7 59.2679 277.343C57.2401 282.33 58.3484 288.356 55.6206 292.974C54.3232 295.155 52.2795 296.78 50.6622 298.73C46.8285 303.381 45.9011 310.098 46.6982 315.916C47.6205 322.631 53.4546 325.965 55.0412 332.284C55.8405 335.493 54.8739 338.838 54.6078 342.134C53.9579 350.229 57.8765 355.255 62.4544 361.231C64.6012 364.032 70.7187 375.348 74.4609 366.704C76.8011 361.309 71.9963 356.301 69.8 351.913C67.3429 346.994 67.857 345.737 70.2361 340.963C72.6152 336.189 74.0897 333.247 73.2948 327.736C72.6332 323.177 70.0526 318.473 72.328 313.931C73.3802 311.832 75.3063 310.335 76.9947 308.705C83.7978 302.145 86.1188 293.532 86.3038 284.375C93.4993 288.345 95.7397 297.761 106.696 294.827C108.62 294.315 110.511 293.416 112.497 293.568C115.861 293.827 118.241 296.918 121.325 298.274C129.605 301.905 137.744 292.276 146.724 291.263C152.7 290.592 159.508 293.669 164.361 290.119C167.534 302.57 173.17 317.124 181.958 326.774C186.532 331.851 188.858 331.146 189.847 328.01Z" fill="#0A0517"/>
<path d="M119.735 330.894L126.564 348.71C116.559 349.917 118.464 357.502 130.82 359.815" stroke="#0A0517" stroke-width="3.27336" stroke-linecap="round" stroke-linejoin="round"/>
<path d="M146.817 373.772C150.542 372.221 153.561 369.345 155.289 365.699C156.447 363.237 156.96 360.335 155.993 357.795C155.026 355.255 152.295 353.294 149.626 353.81C147.763 354.177 146.309 355.582 144.975 356.929C142.054 359.886 139.149 362.902 136.889 366.396C131.427 374.877 140.221 376.48 146.817 373.772Z" fill="white"/>
<path d="M147.389 331.888C149.206 331.192 149.83 328.415 148.784 325.686C147.738 322.957 145.418 321.309 143.601 322.005C141.785 322.701 141.161 325.478 142.207 328.207C143.253 330.936 145.573 332.584 147.389 331.888Z" fill="#0A0517"/>
<path d="M100.897 349.705C102.713 349.008 103.338 346.232 102.292 343.502C101.246 340.773 98.9254 339.125 97.109 339.821C95.2927 340.518 94.6683 343.294 95.7144 346.024C96.7604 348.753 99.0809 350.401 100.897 349.705Z" fill="#0A0517"/>
<path d="M142.621 319.262C144.065 319.124 145.521 319.291 146.896 319.749C148.271 320.208 149.536 320.949 150.608 321.926" stroke="#0A0517" stroke-width="3.27336" stroke-linecap="round" stroke-linejoin="round"/>
<path d="M91.4193 345.027C91.3554 343.51 91.7477 342.008 92.5457 340.716C93.3436 339.424 94.5105 338.401 95.8957 337.779" stroke="#0A0517" stroke-width="3.27336" stroke-linecap="round" stroke-linejoin="round"/>
<path d="M148.696 314.228C150.955 313.87 153.584 312.85 153.988 310.6C154.392 308.351 152.192 306.418 150.087 305.451C147.472 304.274 144.638 303.662 141.771 303.654C138.903 303.645 136.067 304.242 133.445 305.404C130.764 306.624 128.301 308.597 127.849 311.674C127.535 313.774 128.119 316.069 130.454 316.459C133.015 316.904 136.714 315.223 139.373 314.968C142.492 314.756 145.607 314.77 148.696 314.228Z" fill="#0A0517"/>
<path d="M84.808 338.716C82.8823 339.961 80.2504 340.957 78.4466 339.554C76.6428 338.151 76.9869 335.243 77.9069 333.117C79.0651 330.494 80.7633 328.144 82.8907 326.221C85.0181 324.299 87.5269 322.846 90.2535 321.959C93.0632 321.074 96.2137 320.895 98.6074 322.882C100.238 324.236 101.343 326.331 99.8678 328.182C98.2548 330.227 94.3849 331.446 92.237 333.034C89.7754 334.961 87.445 337.062 84.808 338.716Z" fill="#0A0517"/>
<circle cx="392.398" cy="351.476" r="120.296" fill="#FFD583" stroke="#F24EB6" stroke-width="2.45502"/>
<path d="M312.23 359.681C326.163 365.374 342.072 358.694 347.765 344.761C353.458 330.828 346.778 314.918 332.845 309.226C318.912 303.533 303.002 310.213 297.31 324.146C291.617 338.079 298.297 353.989 312.23 359.681Z" fill="#FF997E"/>
<path d="M445.288 414.045C459.221 419.737 475.131 413.057 480.824 399.124C486.517 385.191 479.837 369.282 465.904 363.589C451.971 357.896 436.061 364.576 430.368 378.509C424.675 392.442 431.355 408.352 445.288 414.045Z" fill="#FF997E"/>
<path d="M311.858 383.258L295.793 376.176C302.864 367.701 310.259 359.517 317.977 351.626C314.64 361.761 313.122 372.646 311.858 383.258Z" fill="#652FEB"/>
<path d="M446.022 441.965L429.957 434.883C437.028 426.408 444.423 418.224 452.141 410.333C448.804 420.468 447.286 431.353 446.022 441.965Z" fill="#652FEB"/>
<path d="M320.104 353.972C319.85 354.593 319.418 355.124 318.862 355.5C318.307 355.875 317.652 356.077 316.982 356.08C316.311 356.083 315.655 355.887 315.096 355.518C314.536 355.148 314.099 354.621 313.84 354.002C313.58 353.384 313.51 352.703 313.637 352.045C313.765 351.386 314.085 350.781 314.557 350.304C315.029 349.828 315.631 349.502 316.288 349.368C316.945 349.234 317.627 349.298 318.248 349.552C319.08 349.892 319.743 350.549 320.091 351.378C320.439 352.207 320.444 353.14 320.104 353.972Z" fill="#652FEB"/>
<path d="M454.268 412.679C454.014 413.3 453.582 413.831 453.026 414.207C452.471 414.582 451.816 414.784 451.146 414.787C450.475 414.79 449.819 414.595 449.26 414.225C448.7 413.855 448.263 413.328 448.004 412.709C447.744 412.091 447.674 411.41 447.801 410.752C447.929 410.093 448.249 409.488 448.721 409.011C449.193 408.535 449.795 408.209 450.452 408.075C451.109 407.941 451.791 408.005 452.412 408.259C453.244 408.599 453.907 409.256 454.255 410.085C454.603 410.914 454.608 411.847 454.268 412.679Z" fill="#652FEB"/>
<path d="M465.388 310.703C460.936 293.329 445.576 279.366 427.786 272.317C410.156 264.894 389.422 264.083 374.069 273.392C351.478 287.087 333.169 310.627 327.535 336.52C319.625 372.774 320.877 404.974 362.994 426.486L366.115 427.761C412.789 441.277 434.694 419.789 454.429 388.367C468.511 365.926 471.926 336.294 465.388 310.703Z" fill="#FF997E"/>
<path d="M426.853 347.663C420.562 346.388 413.834 343.374 409.748 339.254C409.181 338.781 408.792 338.128 408.645 337.403C408.542 336.305 409.462 335.404 410.369 334.77C419.626 328.182 431.018 333.297 438.334 340.473C443.92 345.996 437.615 348.372 432.278 348.265C430.456 348.223 428.64 348.022 426.853 347.663Z" fill="#231F20"/>
<path d="M369.288 326.013C375.351 328.134 382.688 328.895 388.291 327.445C389.021 327.323 389.688 326.955 390.181 326.402C390.83 325.513 390.482 324.27 390.037 323.265C385.401 312.879 372.986 311.521 363.045 313.993C355.433 315.919 359.66 321.165 364.315 323.78C365.905 324.668 367.569 325.415 369.288 326.013Z" fill="#231F20"/>
<path d="M395.422 343.338L385.814 366.855C378.786 361.099 375.425 369.325 381.323 377.847" stroke="#231F20" stroke-width="3.27336" stroke-linecap="round" stroke-linejoin="round"/>
<path d="M419.023 363.858C417.956 366.469 415.831 368.07 414.27 367.432C412.709 366.794 412.319 364.165 413.385 361.555C414.452 358.944 416.577 357.343 418.132 357.979C419.688 358.614 420.089 361.248 419.023 363.858Z" fill="#231F20"/>
<path d="M417.517 355.606C419.117 356.034 420.529 356.984 421.528 358.306C422.528 359.628 423.057 361.245 423.033 362.902" stroke="#231F20" stroke-width="3.27336" stroke-linecap="round" stroke-linejoin="round"/>
<path d="M365.987 342.192C364.92 344.802 365.316 347.434 366.877 348.071C368.438 348.709 370.558 347.106 371.624 344.495C372.691 341.884 372.295 339.253 370.74 338.618C369.184 337.982 367.053 339.581 365.987 342.192Z" fill="#231F20"/>
<path d="M372.841 337.351C371.399 336.535 369.725 336.225 368.086 336.469C366.447 336.713 364.937 337.497 363.794 338.697" stroke="#231F20" stroke-width="3.27336" stroke-linecap="round" stroke-linejoin="round"/>
<path d="M400.043 382.731C400.719 383.043 401.282 383.556 401.654 384.2C402.071 385.087 402.165 386.093 401.918 387.043C401.065 391.082 396.244 394.758 392.262 395.477C390.111 395.811 387.911 395.578 385.877 394.8C383.844 394.023 382.049 392.729 380.669 391.045C380.336 390.7 380.075 390.291 379.902 389.843C379.728 389.395 379.647 388.916 379.661 388.436C379.774 387.951 379.997 387.498 380.314 387.114C380.631 386.729 381.032 386.423 381.487 386.22C384.037 384.818 385.741 384.931 388.437 384.25C391.898 383.377 396.614 380.987 400.043 382.731Z" fill="white"/>
<circle cx="281.918" cy="121.523" r="120.296" fill="#949AF6" stroke="#F24EB6" stroke-width="2.45502"/>
<path d="M319.024 67.2754C310.484 55.9208 294.92 50.3371 279.641 50.5036C264.368 50.3371 248.799 55.9208 240.264 67.2754C227.702 83.9796 221.281 106.585 224.924 127.119C230.023 155.886 248.736 180.526 278.299 182.113V182.196C278.746 182.196 279.199 182.196 279.641 182.17C280.084 182.144 280.537 182.17 280.989 182.196V182.113C310.547 180.552 329.265 155.886 334.365 127.119C338.007 106.595 331.581 83.99 319.024 67.2754Z" fill="#FFBA9F"/>
<path d="M215.73 143.953C226.399 143.953 235.047 135.305 235.047 124.637C235.047 113.969 226.399 105.32 215.73 105.32C205.062 105.32 196.414 113.969 196.414 124.637C196.414 135.305 205.062 143.953 215.73 143.953Z" fill="#FFBA9F"/>
<path d="M343.668 143.953C354.336 143.953 362.985 135.305 362.985 124.637C362.985 113.969 354.336 105.32 343.668 105.32C333 105.32 324.352 113.969 324.352 124.637C324.352 135.305 333 143.953 343.668 143.953Z" fill="#FFBA9F"/>
<path d="M304.611 99.2874C299.142 100.328 292.751 100.115 288.12 98.1477C287.509 97.9537 286.982 97.5573 286.627 97.0237C286.184 96.1755 286.627 95.1503 287.147 94.3438C292.418 86.0177 303.242 86.3871 311.47 89.7488C317.766 92.3507 313.483 96.3264 309.164 97.9916C307.687 98.5557 306.164 98.9893 304.611 99.2874Z" fill="#231F20"/>
<path d="M251.293 100.792C256.856 100.506 262.997 98.7108 267.019 95.7082C267.566 95.3707 267.98 94.8566 268.195 94.2512C268.424 93.3249 267.737 92.4402 267.05 91.7794C259.921 84.9624 249.508 87.9442 242.338 93.1896C236.858 97.233 241.973 100.059 246.568 100.631C248.136 100.822 249.717 100.876 251.293 100.792Z" fill="#231F20"/>
<path d="M319.932 115.01C319.608 115.033 319.286 114.937 319.027 114.739C318.768 114.542 318.59 114.257 318.526 113.938C318.462 113.619 318.517 113.287 318.68 113.005C318.843 112.724 319.103 112.511 319.412 112.408C327.519 109.045 335.818 106.164 344.265 103.78C344.436 103.732 344.615 103.719 344.791 103.74C344.967 103.762 345.137 103.818 345.291 103.905C345.445 103.992 345.581 104.109 345.69 104.249C345.8 104.388 345.88 104.548 345.928 104.719C345.975 104.89 345.989 105.068 345.967 105.244C345.946 105.42 345.89 105.591 345.803 105.745C345.715 105.899 345.599 106.035 345.459 106.144C345.319 106.254 345.159 106.334 344.989 106.382C336.645 108.739 328.447 111.586 320.437 114.906C320.277 114.972 320.106 115.007 319.932 115.01Z" fill="#F7F7F7"/>
<path d="M277.96 106.125V128.158C270.43 125.842 270.43 133.549 277.96 138.456" stroke="#231F20" stroke-width="3.27336" stroke-linecap="round" stroke-linejoin="round"/>
<path d="M263.239 97.9321C260.523 95.9168 257.301 94.6954 253.932 94.4039C250.562 94.1124 247.178 94.7624 244.157 96.2813C241.135 97.8001 238.595 100.128 236.819 103.006C235.043 105.884 234.1 109.199 234.098 112.581C234.098 112.841 234.098 113.101 234.098 113.351C234.203 116.017 234.9 118.626 236.138 120.99C237.888 124.364 240.649 127.107 244.034 128.837C247.419 130.566 251.259 131.195 255.019 130.637C258.779 130.078 262.271 128.359 265.007 125.72C267.742 123.081 269.586 119.654 270.28 115.916C270.47 114.909 270.571 113.887 270.582 112.862C270.582 112.768 270.582 112.674 270.582 112.581C270.584 109.736 269.922 106.929 268.647 104.386C267.372 101.843 265.52 99.6325 263.239 97.9321ZM252.358 128.161C249.052 128.163 245.831 127.112 243.162 125.162C240.493 123.211 238.514 120.461 237.512 117.311C236.51 114.161 236.537 110.773 237.588 107.639C238.64 104.505 240.661 101.787 243.36 99.8783C245.691 98.2276 248.43 97.2494 251.279 97.0506C254.128 96.8519 256.977 97.4404 259.514 98.7516C262.051 100.063 264.179 102.046 265.664 104.485C267.15 106.924 267.937 109.725 267.938 112.581C267.93 116.71 266.286 120.668 263.366 123.588C260.446 126.509 256.487 128.153 252.358 128.161Z" fill="#F7F7F7"/>
<path d="M321.517 111.575C321.248 106.874 319.173 102.459 315.725 99.2521C312.278 96.045 307.724 94.2942 303.016 94.3654C298.308 94.4366 293.809 96.3243 290.46 99.6342C287.111 102.944 285.171 107.42 285.044 112.127C285.044 112.278 285.044 112.429 285.044 112.58C284.997 117.287 286.77 121.83 289.992 125.261C293.215 128.692 297.639 130.745 302.34 130.992C307.04 131.24 311.655 129.661 315.22 126.587C318.784 123.513 321.024 119.181 321.47 114.495C321.538 113.859 321.571 113.219 321.569 112.58C321.548 112.241 321.538 111.908 321.517 111.575ZM303.304 128.16C299.172 128.16 295.209 126.518 292.287 123.597C289.365 120.675 287.724 116.712 287.724 112.58C287.724 108.448 289.365 104.485 292.287 101.563C295.209 98.641 299.172 96.9995 303.304 96.9995C305.246 96.9968 307.171 97.3623 308.976 98.0766C311.891 99.2207 314.393 101.216 316.156 103.803C317.92 106.39 318.863 109.449 318.863 112.58C318.863 112.673 318.863 112.762 318.863 112.855C318.858 113.351 318.827 113.846 318.77 114.338C318.331 118.138 316.513 121.645 313.66 124.192C310.807 126.74 307.118 128.152 303.294 128.16H303.304Z" fill="#F7F7F7"/>
<path d="M269.582 116.117C269.332 116.118 269.088 116.049 268.876 115.917C268.665 115.786 268.494 115.597 268.385 115.373C268.228 115.055 268.203 114.687 268.316 114.351C268.429 114.014 268.671 113.736 268.988 113.578C271.746 112.236 274.747 111.467 277.81 111.316C280.874 111.166 283.936 111.638 286.811 112.704C287.143 112.829 287.412 113.081 287.558 113.405C287.704 113.728 287.715 114.097 287.589 114.429C287.464 114.761 287.212 115.029 286.888 115.175C286.565 115.321 286.196 115.332 285.864 115.207C283.333 114.27 280.637 113.855 277.941 113.988C275.245 114.12 272.603 114.797 270.175 115.977C269.992 116.071 269.788 116.12 269.582 116.117Z" fill="#F7F7F7"/>
<path d="M303.637 114.866C303.637 117.312 302.456 119.294 300.994 119.294C299.531 119.294 298.355 117.312 298.355 114.866C298.355 112.42 299.537 110.438 300.994 110.438C302.451 110.438 303.637 112.42 303.637 114.866Z" fill="#231F20"/>
<path d="M299.723 108.727C301.148 108.546 302.594 108.846 303.829 109.579C305.065 110.313 306.021 111.438 306.545 112.776" stroke="#231F20" stroke-width="3.27336" stroke-linecap="round" stroke-linejoin="round"/>
<path d="M253.949 114.866C253.949 117.312 255.131 119.294 256.593 119.294C258.055 119.294 259.231 117.312 259.231 114.866C259.231 112.42 258.05 110.438 256.593 110.438C255.136 110.438 253.949 112.42 253.949 114.866Z" fill="#231F20"/>
<path d="M257.865 108.727C256.44 108.546 254.994 108.846 253.758 109.579C252.523 110.313 251.567 111.438 251.043 112.776" stroke="#231F20" stroke-width="3.27336" stroke-linecap="round" stroke-linejoin="round"/>
<path d="M294.595 136.242C295.239 136.27 295.859 136.498 296.369 136.893C296.996 137.468 297.401 138.245 297.514 139.089C298.154 142.612 295.49 147.144 292.529 149.028C290.911 150.001 289.068 150.536 287.181 150.579C285.293 150.622 283.428 150.171 281.768 149.272C281.386 149.104 281.043 148.862 280.757 148.559C280.471 148.256 280.248 147.899 280.102 147.508C280.033 147.082 280.064 146.645 280.192 146.232C280.321 145.82 280.543 145.442 280.841 145.13C282.428 143.168 283.833 142.7 285.774 141.269C288.267 139.432 291.27 135.966 294.595 136.242Z" fill="white"/>
<path d="M320.141 123.544C320 127.317 322.545 130.829 322.592 134.628C322.68 141.84 315.577 146.977 313.162 153.773C311.336 158.914 312.501 164.18 312.35 169.483C312.22 173.995 312.428 178.007 316.716 180.739C318.175 181.646 319.837 182.175 321.552 182.277C323.266 182.38 324.98 182.053 326.536 181.327C327.988 180.63 329.258 179.594 330.725 178.928C335.606 176.711 341.231 179.006 346.118 181.202C351.004 183.398 356.78 185.505 361.506 182.976C363.941 181.675 365.669 178.881 368.146 177.773C371.018 176.487 375.551 176.992 378.678 176.763C379.508 176.744 380.329 176.596 381.113 176.326C382.919 175.582 383.892 173.656 384.714 171.882C385.407 170.383 386.109 168.848 386.276 167.198C386.796 161.807 381.707 157.832 382.466 152.467C383.226 147.101 382.893 141.596 379.152 137.178C375.779 133.197 370.305 131.454 366.938 127.488C361.126 120.63 365.221 111.513 359.029 105.112C356.687 102.682 353.513 100.991 351.8 98.0764C349.901 94.8397 350.213 90.8224 350.411 87.0757C350.728 81.0132 350.312 74.2534 346.003 69.9759C340.461 64.4755 330.142 64.8502 326.318 58.0437C325.37 56.368 324.975 54.4478 324.34 52.6369C323.349 49.9173 321.831 47.4201 319.872 45.2885C317.914 43.1569 315.554 41.433 312.928 40.2154C308.583 38.1704 301.48 35.7298 296.739 36.7601C293.372 37.4886 288.933 39.4453 287.221 42.5728C282.569 37.4002 275.383 33.9969 268.613 35.5841C258.621 37.9258 252.902 49.8165 242.812 51.6794C238.779 52.4184 234.611 51.4088 230.542 51.8823C227.873 52.2181 225.32 53.1762 223.089 54.6794C220.858 56.1825 219.012 58.1887 217.699 60.5363C214.576 66.1876 214.701 73.603 210.122 78.1407C207.4 80.8311 203.435 82.0228 200.854 84.8484C197.914 88.0592 197.321 92.779 197.555 97.1294C197.898 103.566 200.157 111.18 196.233 116.904C193.298 121.207 187.678 122.597 186.653 128.576C185.961 132.635 188.131 136.694 187.881 140.8C187.631 144.905 185.086 148.376 182.677 151.644C180.268 154.912 177.739 158.461 177.588 162.531C177.14 174.817 192.367 168.463 198.778 170.654C201.197 171.481 202.941 173.542 204.981 175.072C207.248 176.724 209.908 177.757 212.697 178.067C215.486 178.377 218.308 177.955 220.883 176.841C223.745 175.566 226.259 173.422 229.324 172.772C236.089 171.335 242.89 177.544 249.525 175.639C250.421 175.407 251.249 174.965 251.94 174.348C254.796 171.637 253.251 168.817 252.169 165.95C250.607 161.787 251.934 157.16 250.883 152.883C248.593 143.552 236.125 138.833 235.371 129.237C235.09 125.657 236.599 122.082 236.115 118.527C235.751 115.806 234.033 113.724 233.294 111.169C232.519 108.401 232.498 104.831 232.774 101.99C233.05 99.1484 233.914 96.3019 235.865 94.2569C238.581 91.4104 242.786 90.7443 246.444 89.2925C250.963 87.4823 254.828 84.3453 257.528 80.2951C259.402 77.4642 260.781 74.1234 263.596 72.224C266.411 70.3246 269.986 70.2934 273.254 69.4555C276.635 68.5816 279.721 66.8211 282.194 64.3559C282.85 63.7054 283.756 62.9404 284.578 63.3567C285.211 66.3133 286.516 69.0847 288.391 71.4568C290.266 73.829 292.661 75.7383 295.391 77.0375C298.951 78.6611 303.062 79.2647 306.069 81.7625C310.409 85.3688 311.174 91.8059 314.817 96.1146C317.835 99.6897 321.795 102.838 322.352 107.886C322.966 113.454 320.338 118.127 320.141 123.544Z" fill="#0A0517"/>
</svg>
