<svg width="597" height="435" viewBox="0 0 597 435" fill="none" xmlns="http://www.w3.org/2000/svg">
<path d="M296.856 429.159C460.548 429.159 593.247 408.245 593.247 382.445C593.247 356.645 460.548 335.73 296.856 335.73C133.164 335.73 0.464844 356.645 0.464844 382.445C0.464844 408.245 133.164 429.159 296.856 429.159Z" fill="#FE5122"/>
<path d="M296.869 429.64C217.676 429.64 143.218 424.779 87.2155 415.952C54.6425 410.818 0 399.637 0 382.447C0 365.257 54.6425 354.077 87.2155 348.942C143.218 340.115 217.676 335.254 296.869 335.254C376.062 335.254 450.52 340.115 506.522 348.942C539.095 354.077 593.738 365.254 593.738 382.447C593.738 399.64 539.095 410.818 506.522 415.952C450.508 424.776 376.05 429.64 296.869 429.64ZM296.869 336.208C217.725 336.208 143.319 341.067 87.3533 349.884C32.4382 358.539 0.943433 370.407 0.943433 382.447C0.943433 394.487 32.4351 406.361 87.3533 415.007C143.31 423.828 217.716 428.686 296.869 428.686C376.022 428.686 450.419 423.828 506.385 415.007C561.3 406.352 592.794 394.484 592.794 382.447C592.794 370.41 561.3 358.539 506.385 349.884C450.406 341.067 376.001 336.208 296.869 336.208Z" fill="#242426"/>
<path d="M206.046 56.5728C205.44 54.4703 207.277 52.4799 209.045 51.1903C210.813 49.9008 212.893 48.45 213.054 46.2844C213.214 44.1188 211.3 42.2686 210.5 40.1801C209.581 37.7762 210.193 35.0499 211.195 32.667C212.198 30.2841 213.527 28.0414 214.132 25.5394C215.482 19.9327 212.678 13.8423 208.3 10.0718C203.923 6.30126 198.21 4.46504 192.545 3.37173C186.88 2.27841 180.84 2.39055 175.266 0.925781C180.803 3.56833 185.092 8.29016 187.213 14.0793C189.335 19.8685 189.121 26.2643 186.616 31.8961C185.676 33.9986 184.438 35.968 183.644 38.1266C182.851 40.2852 182.545 42.7732 183.512 44.8617C185.071 48.2468 189.177 49.3892 192.754 50.3633C196.331 51.3375 200.409 53.1667 201.105 56.7831C202.566 56.5027 204.584 56.8321 206.046 56.5728Z" fill="#E79052"/>
<path d="M201.137 58.0143C200.886 58.0141 200.642 57.9268 200.448 57.7672C200.254 57.6076 200.121 57.3856 200.073 57.1391C199.575 54.6817 197.004 52.8053 192.423 51.5381C188.766 50.5509 184.206 49.3117 182.419 45.454C181.172 42.7865 181.782 39.853 182.517 37.8856C183.033 36.5745 183.632 35.2976 184.311 34.063C184.731 33.2438 185.158 32.4317 185.537 31.5915C187.942 26.2251 188.149 20.1302 186.111 14.6137C184.073 9.09709 179.954 4.59806 174.636 2.08124C174.398 1.96026 174.213 1.75645 174.115 1.50826C174.017 1.26007 174.014 0.984661 174.105 0.734006C174.196 0.48335 174.376 0.274778 174.611 0.147642C174.846 0.0205051 175.119 -0.0164045 175.379 0.0438797C178.57 0.784511 181.814 1.27608 185.081 1.51414C187.61 1.75919 190.223 2.01123 192.745 2.49432C199.996 3.89457 205.193 6.09296 209.102 9.43256C214.244 13.8293 216.689 20.3195 215.323 25.9625C214.832 27.7033 214.161 29.388 213.32 30.9894C212.962 31.7456 212.619 32.4947 212.283 33.2578C211.162 35.9463 210.938 38.2007 211.582 39.951C211.877 40.6383 212.231 41.2989 212.64 41.9254C213.446 43.2416 214.363 44.7259 214.23 46.5252C214.027 49.1507 211.743 50.803 209.901 52.1262C208.794 52.9313 206.63 54.7167 207.099 56.439C207.146 56.5877 207.161 56.7448 207.142 56.8997C207.123 57.0545 207.071 57.2035 206.989 57.3364C206.907 57.4693 206.798 57.583 206.668 57.6698C206.538 57.7565 206.391 57.8144 206.237 57.8392C205.343 57.9523 204.441 57.9874 203.54 57.9442C202.783 57.9005 202.023 57.9263 201.271 58.0212L201.137 58.0143ZM202.7 55.7318H203.645C204.073 55.7318 204.5 55.7318 204.906 55.7318C204.969 53.9395 206.202 52.1122 208.493 50.4599C210.279 49.1647 211.996 47.9534 212.08 46.3292C212.164 45.244 211.533 44.2288 210.812 43.0316C210.332 42.2951 209.919 41.5172 209.579 40.7071C208.696 38.4177 208.927 35.6172 210.279 32.3967C210.609 31.5985 210.98 30.8074 211.358 30.0302C212.116 28.5643 212.724 27.0255 213.173 25.4374C214.335 20.6486 212.115 14.8725 207.652 11.0639C204.045 7.9833 199.169 5.93193 192.304 4.6157C189.88 4.14662 187.316 3.91557 184.836 3.65653C183.435 3.5165 181.929 3.37648 180.465 3.18744C184.718 6.60146 187.72 11.3286 188.999 16.629C190.278 21.9295 189.762 27.5042 187.533 32.4807C187.141 33.3628 186.692 34.217 186.251 35.0711C185.614 36.2237 185.052 37.4164 184.57 38.6418C184.086 39.944 183.421 42.4435 184.402 44.5368C185.803 47.4704 189.607 48.5205 192.997 49.4377C197.978 50.789 200.92 52.8543 201.95 55.7388C202.188 55.7318 202.44 55.7318 202.7 55.7318Z" fill="#242426"/>
<path d="M302.293 211.361C308.6 214.694 303.417 211.956 302.042 210.971C300.964 210.194 299.916 209.019 298.795 208.239C298.581 208 298.36 207.767 298.152 207.524C297.077 206.272 296.066 204.968 295.089 203.63C294.737 203.114 294.424 202.574 294.151 202.012C294.317 202.399 294.513 202.859 294.742 203.406C294.099 201.871 293.064 200.426 292.31 198.94C290.754 195.871 289.373 192.719 288.099 189.524C282.303 174.974 278.551 159.69 273.007 145.041C260.852 112.938 239.729 81.7995 206.424 69.2592C195.314 65.0761 181.044 70.1094 176.896 81.867C172.877 93.2656 177.613 106.984 189.482 111.453C191.152 112.082 192.8 112.745 194.42 113.494C194.812 113.675 195.198 113.874 195.587 114.065C196.705 115.047 198.564 115.808 199.731 116.618C201.194 117.641 202.623 118.707 204.02 119.816C205.245 120.798 206.406 121.836 207.582 122.885C207.947 123.26 208.317 123.634 208.676 124.015C211.134 126.649 213.447 129.415 215.604 132.301C216.685 133.733 217.728 135.2 218.735 136.702C219.237 137.447 219.73 138.199 220.214 138.958L220.429 139.302C222.077 142.349 224.932 147.981 225.259 148.672C228.935 156.397 231.97 164.404 234.755 172.491C239.613 186.676 243.221 201.432 249.675 215.019C257.639 231.807 268.887 244.875 285.36 253.579C290.261 256.169 298.146 255.42 302.994 253.29C307.99 251.084 313.038 246.232 314.888 240.971C319.327 228.33 313.541 217.309 302.293 211.361Z" fill="#F24EB6"/>
<path d="M293.169 255.686C290.274 255.686 287.423 255.18 285.128 253.968C269.424 245.666 257.686 232.984 249.238 215.19C244.757 205.761 241.602 195.627 238.548 185.828C237.194 181.479 235.791 176.98 234.296 172.612C231.065 163.187 228.057 155.634 224.831 148.842C224.525 148.176 221.646 142.514 220.016 139.494L219.814 139.187C219.334 138.438 218.844 137.691 218.344 136.947C217.33 135.446 216.279 133.969 215.229 132.564C213.082 129.686 210.779 126.929 208.33 124.305C208.067 124.023 207.801 123.746 207.531 123.473L206.836 122.823C205.828 121.936 204.786 121.018 203.724 120.165C202.333 119.048 200.906 117.98 199.478 116.988C198.953 116.643 198.411 116.325 197.855 116.034C196.966 115.588 196.125 115.055 195.343 114.441L194.991 114.269C194.74 114.146 194.491 114.02 194.24 113.904C192.825 113.25 191.266 112.606 189.339 111.878C177.896 107.582 172.122 94.0254 176.474 81.6846C178.327 76.4304 182.313 72.1521 187.701 69.6385C193.625 66.8763 200.697 66.5694 206.618 68.7883C226.862 76.4273 254.908 95.8116 273.47 144.868C276.068 151.724 278.304 158.832 280.469 165.704C282.92 173.521 285.478 181.608 288.559 189.336C289.947 192.816 291.316 195.882 292.755 198.715C293.062 199.304 293.411 199.909 293.757 200.492C293.965 200.848 294.177 201.207 294.37 201.575C294.461 201.622 294.535 201.696 294.581 201.787C294.842 202.326 295.142 202.845 295.479 203.34C296.462 204.712 297.479 206.01 298.499 207.201C298.624 207.348 298.756 207.489 298.885 207.631L299.099 207.87C299.695 208.31 300.264 208.787 300.802 209.297C301.281 209.749 301.784 210.176 302.309 210.574C302.922 211.003 304.309 211.801 305.066 212.237C305.253 212.342 305.406 212.431 305.529 212.513C305.74 212.658 305.835 212.78 305.835 212.937C315.557 219.615 319.187 230.124 315.312 241.096C313.505 246.218 308.622 251.282 303.161 253.694C299.994 255.013 296.598 255.69 293.169 255.686ZM198.287 68.282C194.768 68.2792 191.291 69.0415 188.096 70.5162C182.944 72.9224 179.133 77.0043 177.375 82.0161C173.197 93.8689 178.713 106.876 189.676 110.994C191.63 111.731 193.211 112.385 194.651 113.051C194.908 113.17 195.165 113.299 195.423 113.425L195.824 113.625C195.862 113.643 195.899 113.667 195.931 113.695C196.675 114.278 197.475 114.785 198.32 115.208C198.907 115.514 199.478 115.85 200.03 116.215C201.475 117.218 202.921 118.302 204.318 119.431C205.396 120.3 206.447 121.224 207.461 122.117L208.208 122.816C208.484 123.096 208.756 123.378 209.023 123.664C211.495 126.305 213.82 129.081 215.988 131.978C217.051 133.393 218.111 134.881 219.131 136.397C219.635 137.146 220.132 137.901 220.62 138.662L220.794 138.938L220.852 139.037C222.528 142.139 225.364 147.737 225.692 148.428C228.936 155.254 231.953 162.853 235.188 172.299C236.689 176.679 238.091 181.2 239.448 185.542C242.493 195.308 245.639 205.409 250.087 214.778C258.446 232.377 270.049 244.92 285.566 253.12C290.277 255.609 298.018 254.919 302.784 252.814C307.939 250.536 312.724 245.586 314.424 240.77C318.547 229.086 313.811 217.973 302.067 211.768C301.996 211.729 301.935 211.673 301.891 211.605C301.847 211.537 301.822 211.459 301.816 211.378L301.764 211.341C301.208 210.923 300.676 210.475 300.171 209.997C299.65 209.503 299.099 209.041 298.52 208.616C298.49 208.594 298.462 208.57 298.437 208.542L298.192 208.269C298.055 208.122 297.917 207.962 297.788 207.818C296.747 206.59 295.714 205.286 294.725 203.889C294.717 203.883 294.711 203.874 294.707 203.865C294.624 203.854 294.545 203.822 294.478 203.772C294.411 203.721 294.359 203.654 294.327 203.576C294.327 203.576 294.327 203.576 294.327 203.552C293.922 202.663 293.461 201.801 292.948 200.971C292.596 200.375 292.232 199.743 291.919 199.129C290.467 196.272 289.083 193.178 287.686 189.67C284.592 181.902 282.041 173.8 279.572 165.965C277.412 159.105 275.179 152.013 272.591 145.181C254.148 96.4653 226.357 77.2345 206.29 69.6815C203.728 68.7383 201.017 68.2643 198.287 68.282Z" fill="#242426"/>
<path d="M294.165 201.995C292.939 199.129 293.381 200.461 294.165 201.995V201.995Z" fill="#FC328E"/>
<path d="M294.163 202.497C294.074 202.497 293.988 202.473 293.913 202.427C293.838 202.381 293.777 202.314 293.737 202.236C292.793 200.37 292.855 200.278 293.005 200.06C293.053 199.989 293.119 199.932 293.197 199.896C293.275 199.86 293.361 199.845 293.446 199.854C293.752 199.885 293.752 199.885 294.601 201.831C294.633 201.903 294.647 201.983 294.64 202.062C294.634 202.141 294.608 202.218 294.564 202.284C294.52 202.35 294.461 202.405 294.391 202.442C294.32 202.479 294.242 202.498 294.163 202.497Z" fill="#242426"/>
<path d="M204.84 55.1549C204.638 55.4012 204.381 55.5934 204.091 55.715C203.801 55.8365 203.486 55.8838 203.174 55.8527C202.862 55.8216 202.562 55.7131 202.3 55.5366C202.038 55.36 201.821 55.1206 201.669 54.8391C201.225 54.0658 200.654 53.3773 199.981 52.8039C198.43 51.4635 196.565 50.6284 194.856 49.4494C193.148 48.2704 191.658 46.551 191.515 44.4737C191.364 42.235 192.827 40.263 194.378 38.663C195.929 37.0629 197.72 35.6242 198.54 33.5469C199.715 30.5714 198.608 27.3151 197.173 24.3676C197.044 24.0947 196.978 23.795 196.979 23.4917C196.981 23.1884 197.051 22.8895 197.183 22.6182C197.315 22.3469 197.506 22.1104 197.741 21.927C197.976 21.7436 198.25 21.6182 198.54 21.5604C199.247 21.4345 199.974 21.4738 200.664 21.6755C201.355 21.8771 201.993 22.236 202.53 22.7254C204.198 24.3185 204.799 26.8098 204.751 29.1467C204.704 31.4837 204.068 33.7715 203.685 36.0734C203.303 38.3752 203.139 40.8174 203.965 43C204.792 45.1825 206.439 46.8247 206.993 49.0213C207.533 51.3302 206.35 53.2741 204.84 55.1549Z" fill="#FDDC68"/>
<path d="M203.442 56.7994H203.178C202.68 56.7563 202.199 56.5925 201.776 56.3218C201.354 56.0511 201.003 55.6816 200.753 55.2447C200.365 54.5823 199.867 53.9923 199.28 53.5009C198.364 52.7752 197.387 52.1308 196.361 51.5751C195.61 51.1409 194.86 50.7067 194.151 50.2165C191.809 48.5918 190.433 46.5399 190.287 44.4319C190.141 42.324 191.19 40.09 193.518 37.786C193.796 37.5059 194.088 37.2257 194.373 36.9526C195.68 35.7061 196.903 34.5295 197.507 33.0449C198.605 30.3207 197.348 27.1973 196.117 24.7812C195.897 24.3477 195.782 23.8676 195.782 23.3806C195.782 22.8936 195.897 22.4135 196.117 21.98C196.326 21.5544 196.633 21.1857 197.013 20.9052C197.393 20.6248 197.834 20.441 198.3 20.3693C199.179 20.2124 200.082 20.2568 200.942 20.4992C201.803 20.7416 202.598 21.1759 203.269 21.7699C205.013 23.4086 205.937 25.9718 205.868 29.0041C205.786 30.7371 205.554 32.4595 205.173 34.1514C205.041 34.7887 204.916 35.4329 204.804 36.0772C204.325 38.8154 204.394 40.7693 205.027 42.38C205.398 43.2322 205.842 44.05 206.354 44.8241C207.139 45.9501 207.744 47.193 208.147 48.5077C208.884 51.344 207.452 53.606 205.798 55.6299C205.521 55.9935 205.164 56.2881 204.755 56.4909C204.347 56.6936 203.898 56.7992 203.442 56.7994ZM199.273 22.4842C199.056 22.4855 198.84 22.5042 198.626 22.5402C198.504 22.5626 198.389 22.6135 198.29 22.6889C198.191 22.7643 198.111 22.8621 198.056 22.9744C197.993 23.1041 197.96 23.2466 197.96 23.3911C197.96 23.5356 197.993 23.6781 198.056 23.8078C199.481 26.609 200.934 30.3347 199.509 33.8713C198.731 35.7971 197.271 37.1907 195.86 38.5423L195.033 39.3407C193.185 41.1755 192.344 42.7932 192.448 44.2849C192.58 46.2177 194.338 47.7094 195.374 48.4237C196.069 48.8859 196.764 49.2921 197.459 49.6913C198.597 50.3107 199.678 51.0302 200.69 51.8412C201.472 52.4934 202.135 53.2778 202.65 54.1592C202.72 54.2887 202.819 54.3994 202.94 54.4823C203.061 54.5651 203.2 54.6176 203.345 54.6354C203.477 54.6432 203.609 54.6193 203.729 54.5657C203.85 54.5121 203.957 54.4304 204.04 54.3273C205.527 52.5065 206.424 50.9238 205.965 49.138C205.613 48.0412 205.097 47.0046 204.436 46.0637C203.843 45.1811 203.336 44.243 202.921 43.2624C201.92 40.6573 202.226 37.891 202.581 35.7621C202.699 35.1038 202.831 34.4385 202.963 33.7802C203.335 32.2169 203.568 30.6232 203.658 29.0181C203.713 26.6511 203.018 24.6202 201.747 23.4156C201.069 22.8016 200.19 22.4623 199.28 22.4632L199.273 22.4842Z" fill="#242426"/>
<path d="M210.159 56.0197L198.356 57.7639C198.043 57.8102 197.826 58.1019 197.873 58.4154L199.036 66.3218C199.083 66.6354 199.374 66.8521 199.687 66.8058L211.49 65.0616C211.803 65.0154 212.019 64.7237 211.973 64.4101L210.809 56.5037C210.763 56.1902 210.472 55.9734 210.159 56.0197Z" fill="#242426"/>
<path d="M198.913 63.2838C199.213 60.9794 197.591 58.8683 195.291 58.5686C192.991 58.2689 190.884 59.8941 190.585 62.1985C190.285 64.503 191.907 66.6141 194.207 66.9138C196.507 67.2135 198.614 65.5883 198.913 63.2838Z" fill="#242426"/>
<path d="M280.482 282.793C272.983 255.312 253.655 229.553 227.934 216.712C219.275 212.388 209.969 209.11 200.155 209.23C189.63 209.359 180.132 213.124 171.898 219.499C158.475 229.888 150.374 245.479 144.045 260.898C137.496 276.857 133.753 303.558 131.9 320.653C131.287 326.177 134.914 333.273 138.673 337.042C142.685 341.059 149.268 344.1 155.029 343.827C177.911 342.799 178.174 309.362 182.144 293.166C184.432 283.833 189.26 257.276 201.959 256.263C216.723 255.088 229.616 276.436 233.445 288.277C233.178 287.384 232.924 286.488 232.654 285.598C236.979 299.765 246.879 316.954 264.327 311.298C276.267 307.428 283.906 295.321 280.482 282.793Z" fill="#F24EB6"/>
<path d="M154.328 344.321C148.869 344.321 142.529 341.589 138.323 337.378C134.507 333.551 130.788 326.373 131.413 320.603C133.447 301.866 137.208 276.27 143.592 260.716C149.17 247.123 157.394 230.114 171.594 219.121C180.318 212.369 189.921 208.879 200.136 208.75C208.698 208.634 217.627 211.037 228.133 216.282C252.886 228.656 273.115 254.077 280.935 282.672C284.277 294.902 277.045 307.679 264.467 311.758C258.981 313.538 253.848 313.209 249.204 310.785C240.716 306.353 235.726 295.992 233.15 288.663C233.074 288.603 233.016 288.522 232.985 288.43C231.316 283.27 227.291 274.745 221.431 267.701C216.98 262.352 209.987 256.112 201.993 256.744C190.837 257.634 185.758 279.637 183.308 290.197C183.044 291.351 182.802 292.389 182.588 293.266C181.834 296.336 181.21 300.064 180.548 304.008C177.761 320.646 173.941 343.434 155.032 344.284C154.803 344.314 154.564 344.321 154.328 344.321ZM200.682 209.702H200.149C190.145 209.827 180.732 213.249 172.176 219.872C158.154 230.728 150.006 247.592 144.474 261.075C138.133 276.534 134.387 302.032 132.375 320.704C131.802 325.983 135.3 332.98 139.012 336.703C143.157 340.853 149.733 343.587 155.011 343.351C173.151 342.534 176.744 321.097 179.629 303.873C180.294 299.902 180.922 296.154 181.684 293.052C181.899 292.174 182.138 291.14 182.404 289.983C185.06 278.375 190.059 256.732 201.907 255.787C216.236 254.648 228.219 273.726 232.795 285.149C232.866 285.173 232.931 285.213 232.984 285.266C233.037 285.319 233.077 285.384 233.101 285.456C235.246 292.49 240.257 305.027 249.642 309.929C254.05 312.23 258.939 312.537 264.17 310.849C276.263 306.93 283.22 294.663 280.013 282.921C272.269 254.587 252.227 229.38 227.71 217.141C217.562 212.083 208.952 209.702 200.682 209.702Z" fill="#242426"/>
<path d="M191.228 68.3857C192.827 66.6885 191.651 63.5918 189.51 62.671C187.369 61.7503 184.863 62.4623 182.844 63.6255C176.645 67.1887 173.349 75.1806 175.26 82.086C175.52 83.0375 176.36 84.1055 177.312 84.3664C178.265 84.6272 179.273 84.483 180.238 84.2958C184.051 83.5469 187.865 82.0093 190.435 79.0783C193.005 76.1474 193.155 71.7647 191.228 68.3857Z" fill="#F24EB6"/>
<path d="M178.442 84.9918C178.016 84.9961 177.591 84.9424 177.18 84.8322C176.006 84.5253 175.075 83.2455 174.793 82.2174C172.83 75.0726 176.181 66.918 182.613 63.2167C184.108 62.3543 187.021 61.0683 189.705 62.2377C190.379 62.551 190.97 63.0181 191.432 63.6017C191.894 64.1853 192.213 64.8691 192.363 65.5983C192.482 66.0863 192.494 66.5944 192.397 67.0873C192.3 67.5802 192.097 68.046 191.803 68.4525C193.72 72.0833 193.334 76.5457 190.792 79.4184C188.455 82.0701 184.935 83.8716 180.328 84.7739C179.708 84.9073 179.076 84.9803 178.442 84.9918ZM187.367 62.7318C185.674 62.7318 184.044 63.4868 183.079 64.0453C177.026 67.5226 173.862 75.226 175.728 81.9626C175.939 82.733 176.647 83.6936 177.446 83.9115C178.331 84.154 179.308 83.9974 180.157 83.8317C184.552 82.9724 187.891 81.2721 190.087 78.78C192.418 76.1314 192.722 71.9574 190.823 68.6275C190.772 68.5385 190.751 68.4357 190.763 68.334C190.776 68.2324 190.82 68.1373 190.89 68.0628C191.161 67.7591 191.353 67.3924 191.448 66.9959C191.542 66.5994 191.537 66.1856 191.432 65.7917C191.311 65.2138 191.058 64.6717 190.694 64.2076C190.329 63.7435 189.863 63.3697 189.331 63.1154C188.71 62.8536 188.041 62.723 187.367 62.7318Z" fill="#242426"/>
<path d="M219.783 122.949L200.654 125.775C200.495 125.797 200.333 125.756 200.204 125.66C200.076 125.564 199.989 125.422 199.964 125.263L191.115 65.1519C191.093 64.9921 191.135 64.8301 191.231 64.7009C191.327 64.5717 191.471 64.4856 191.63 64.4613L210.759 61.6347C210.918 61.6127 211.079 61.654 211.208 61.7498C211.337 61.8457 211.423 61.9884 211.448 62.1472L220.297 122.258C220.319 122.418 220.277 122.58 220.181 122.709C220.085 122.838 219.942 122.924 219.783 122.949Z" fill="#67518B"/>
<path d="M201.637 125.969C201.099 125.969 200.578 125.774 200.17 125.422C199.762 125.069 199.493 124.582 199.414 124.048L190.941 66.4781C190.856 65.8878 191.008 65.2877 191.363 64.8092C191.718 64.3307 192.248 64.0126 192.837 63.9246L209.43 61.4694C210.019 61.3824 210.618 61.5333 211.096 61.889C211.574 62.2447 211.891 62.776 211.978 63.3661L220.454 120.93C220.539 121.52 220.387 122.121 220.032 122.6C219.677 123.079 219.147 123.398 218.558 123.486L201.965 125.942C201.857 125.958 201.747 125.968 201.637 125.969ZM209.758 62.163C209.683 62.163 209.608 62.1692 209.534 62.1814L192.941 64.6367C192.742 64.6659 192.551 64.7343 192.378 64.8378C192.205 64.9413 192.054 65.0779 191.934 65.2398C191.814 65.4017 191.727 65.5857 191.678 65.7813C191.629 65.977 191.619 66.1804 191.649 66.3799L200.121 123.95C200.15 124.149 200.219 124.341 200.322 124.514C200.425 124.687 200.562 124.838 200.723 124.959C200.885 125.079 201.068 125.166 201.264 125.215C201.459 125.264 201.662 125.274 201.861 125.245L218.454 122.79C218.653 122.76 218.844 122.692 219.017 122.588C219.19 122.485 219.341 122.348 219.461 122.186C219.581 122.025 219.668 121.841 219.717 121.645C219.766 121.449 219.776 121.246 219.746 121.046L211.271 63.4735C211.217 63.1096 211.035 62.7771 210.757 62.5366C210.48 62.296 210.125 62.1635 209.758 62.163Z" fill="#242426"/>
<path d="M405.467 345.783C404.815 333.2 393.87 323.287 379.07 322.989L165.676 318.674L105.134 317.447C91.3196 317.167 78.1084 328.13 78.7364 340.241C79.3888 352.824 90.3302 362.734 105.134 363.035L318.524 367.35L379.07 368.578C392.884 368.854 406.095 357.891 405.467 345.783Z" fill="#F24EB6"/>
<path d="M379.581 369.064H379.054L105.119 363.54C90.2353 363.233 78.9356 353.461 78.2525 340.292C77.986 335.157 80.1424 329.949 84.3236 325.624C87.0373 322.86 90.2788 320.672 93.8546 319.19C97.4305 317.708 101.268 316.962 105.137 316.997L379.073 322.522C393.956 322.829 405.253 332.601 405.936 345.767C406.203 350.901 404.049 356.113 399.868 360.434C397.221 363.141 394.066 365.296 390.584 366.777C387.103 368.258 383.363 369.036 379.581 369.064ZM104.607 317.927C100.952 317.956 97.3389 318.708 93.9747 320.14C90.6106 321.572 87.5618 323.656 85.0036 326.272C81.0216 330.403 78.9478 335.357 79.2021 340.224C79.8576 352.878 90.7653 362.275 105.134 362.564L379.07 368.088C386.488 368.263 393.987 365.12 399.179 359.75C403.161 355.619 405.235 350.662 404.999 345.798C404.34 333.141 393.436 323.746 379.067 323.455L105.113 317.933L104.607 317.927Z" fill="#242426"/>
<path d="M220.818 102.345C229.018 95.7101 230.785 85.3212 224.187 76.8721C216.701 67.2566 202.375 63.5553 191.035 67.5666C181.344 70.9948 173.818 80.5273 173.75 90.8272C173.695 99.4206 180.41 110.632 189.678 111.777C198.898 112.903 212.174 109.343 220.818 102.345Z" fill="#F24EB6"/>
<path d="M193.353 112.476C192.11 112.479 190.868 112.406 189.634 112.258C180.359 111.11 173.231 99.7973 173.289 90.8294C173.357 80.6769 180.76 70.7085 190.896 67.1208C202.655 62.9622 217.138 67.0256 224.59 76.5828C231.157 85.0166 229.736 95.7737 221.135 102.734C213.802 108.67 202.674 112.476 193.353 112.476ZM200.64 66.4394C197.431 66.4263 194.242 66.9597 191.212 68.017C181.443 71.4727 174.306 81.0667 174.242 90.8294C174.187 99.4044 180.95 110.217 189.75 111.303C199.43 112.5 212.381 108.581 220.525 101.986C228.701 95.3717 230.058 85.1639 223.827 77.1659C218.534 70.3709 209.569 66.4456 200.64 66.4456V66.4394Z" fill="#242426"/>
<path d="M247.071 323.291C271.857 344.072 318.465 354.289 340.388 359.157C378.876 367.716 425.753 364.31 463.717 353.651C501.681 342.992 546.114 326.99 564.276 291.919C582.437 256.849 584.774 202.637 560.327 171.642C535.881 140.647 474.659 129.455 441.525 150.864C449.55 135.313 440.3 111.454 426.712 100.433C413.124 89.4122 394.626 86.3738 377.185 85.272C348.741 83.4735 325.4 93.3161 304.191 112.393C287.537 127.374 270.268 156.401 267.211 178.618C264.154 200.835 267.41 215.008 269.578 237.327C254.906 246.933 243.573 258.307 235.734 274.014C225.335 294.893 232.359 310.957 247.071 323.291Z" fill="#F24EB6"/>
<path d="M388.105 364.471C371.212 364.471 354.947 362.863 340.284 359.603L339.644 359.462C317.494 354.552 271.401 344.292 246.764 323.637C229.789 309.396 225.926 292.621 235.302 273.767C242.626 259.063 253.375 247.392 269.07 237.055C268.601 232.264 268.087 227.881 267.587 223.64C265.774 208.15 264.337 195.914 266.733 178.524C269.986 154.871 288.174 126.129 303.867 112.008C326.148 91.9672 350.135 83.0576 377.209 84.764C392.862 85.7615 412.655 88.3948 427.012 100.057C440.312 110.854 449.462 133.897 442.652 149.589C476.098 129.333 536.147 140.21 560.701 171.34C572.126 185.826 578.534 206.742 578.752 230.242C578.948 251.934 573.826 274.492 564.701 292.133C546.749 326.832 503.642 342.932 463.846 354.104C439.178 360.95 413.702 364.437 388.105 364.471ZM247.377 322.906C271.836 343.411 317.773 353.622 339.849 358.529L340.489 358.67C376.658 366.714 422.675 364.655 463.589 353.171C503.188 342.051 546.068 326.052 563.853 291.678C586.308 248.279 579.505 196.706 559.953 171.917C548.498 157.394 527.62 146.229 504.101 142.052C480.129 137.795 457.413 141.146 441.782 151.259C441.694 151.316 441.589 151.342 441.485 151.333C441.38 151.324 441.281 151.281 441.203 151.21C441.126 151.139 441.074 151.044 441.055 150.94C441.036 150.837 441.052 150.73 441.099 150.636C448.993 135.342 439.856 111.711 426.415 100.797C412.27 89.3155 392.66 86.7191 377.157 85.74C349.994 84.0275 326.898 92.6025 304.51 112.748C288.94 126.755 270.908 155.245 267.682 178.681C265.305 195.954 266.733 208.144 268.543 223.56C269.048 227.891 269.575 232.368 270.053 237.279C270.061 237.366 270.045 237.453 270.008 237.531C269.97 237.61 269.912 237.676 269.839 237.724C254.147 248.005 243.444 259.603 236.145 274.225C227.001 292.599 230.775 308.985 247.377 322.906Z" fill="#242426"/>
<path d="M370.298 265.303C368.644 265.036 366.852 265.106 365.603 265.742C364.353 266.377 363.823 267.666 364.684 268.694C365.382 269.526 366.761 270.005 368.075 270.315C369.477 270.647 370.906 270.857 372.345 270.944C373.478 271.011 374.663 270.99 375.561 270.603C376.458 270.216 376.93 269.526 376.85 268.789C376.642 266.764 372.727 265.696 370.298 265.303Z" fill="#242426"/>
<path d="M358.228 195.739C355.407 194.778 352.598 193.722 349.841 192.59C341.711 189.387 333.813 185.62 326.206 181.317C322.809 179.423 319.467 177.407 316.19 175.305C311.291 177.912 307.243 181.877 304.532 186.726C301.82 191.575 300.559 197.103 300.898 202.651C301.237 208.199 303.162 213.532 306.444 218.014C309.726 222.495 314.226 225.935 319.406 227.924C324.193 229.771 329.385 230.308 334.448 229.479C339.511 228.651 344.262 226.488 348.215 223.211C352.167 219.934 355.177 215.662 356.937 210.834C358.697 206.006 359.142 200.796 358.228 195.739Z" fill="white"/>
<path d="M329.771 230.331C323.216 230.324 316.852 228.123 311.689 224.077C306.526 220.031 302.86 214.372 301.273 208C299.686 201.628 300.27 194.907 302.932 188.905C305.593 182.903 310.18 177.965 315.963 174.873C316.037 174.833 316.12 174.814 316.204 174.817C316.288 174.82 316.37 174.846 316.441 174.892C319.991 177.157 323.259 179.118 326.432 180.892C334.025 185.182 341.906 188.938 350.018 192.134C352.775 193.266 355.584 194.322 358.384 195.276C358.462 195.305 358.532 195.353 358.586 195.418C358.64 195.482 358.676 195.559 358.69 195.642C359.446 199.882 359.267 204.237 358.163 208.4C357.06 212.564 355.06 216.434 352.303 219.74C349.547 223.046 346.101 225.706 342.208 227.534C338.316 229.363 334.07 230.314 329.771 230.322V230.331ZM316.165 175.846C311.572 178.349 307.756 182.072 305.137 186.605C302.517 191.139 301.195 196.308 301.316 201.545C301.437 206.782 302.995 211.885 305.821 216.293C308.646 220.7 312.629 224.243 317.333 226.531C322.036 228.818 327.278 229.764 332.482 229.262C337.686 228.761 342.652 226.832 346.834 223.688C351.016 220.544 354.252 216.306 356.187 211.439C358.123 206.573 358.682 201.266 357.805 196.102C355.075 195.181 352.334 194.135 349.657 193.033C341.508 189.818 333.592 186.039 325.967 181.723C322.849 179.983 319.639 178.059 316.165 175.846Z" fill="#242426"/>
<path d="M351.35 209.065C350.344 211.691 348.815 214.085 346.855 216.1C344.895 218.115 342.546 219.708 339.951 220.783C337.356 221.858 334.569 222.392 331.762 222.352C328.954 222.313 326.184 221.7 323.62 220.552C314.125 216.311 309.199 205.339 312.354 195.401C313.425 192.017 315.345 188.966 317.93 186.538C320.515 184.11 323.679 182.387 327.118 181.535C334.725 185.839 342.623 189.605 350.753 192.808C351.941 195.337 352.607 198.081 352.709 200.875C352.812 203.669 352.35 206.455 351.35 209.065Z" fill="#242426"/>
<path d="M367.17 198.59C364.171 197.709 361.172 196.749 358.223 195.742L367.17 198.59Z" fill="white"/>
<path d="M367.173 199.072C367.127 199.072 367.082 199.066 367.038 199.054C364.064 198.176 361.046 197.212 358.072 196.197C358.011 196.178 357.954 196.146 357.906 196.105C357.857 196.063 357.817 196.012 357.788 195.955C357.76 195.898 357.743 195.835 357.739 195.771C357.735 195.707 357.744 195.643 357.766 195.583C357.786 195.522 357.817 195.466 357.859 195.417C357.9 195.369 357.951 195.329 358.008 195.301C358.065 195.272 358.127 195.255 358.191 195.251C358.254 195.247 358.318 195.255 358.378 195.276C361.337 196.292 364.339 197.246 367.304 198.118C367.404 198.158 367.487 198.23 367.54 198.324C367.593 198.417 367.614 198.525 367.598 198.631C367.583 198.737 367.532 198.835 367.454 198.909C367.376 198.983 367.276 199.029 367.169 199.039L367.173 199.072Z" fill="#242426"/>
<path d="M316.185 175.32C314.515 174.236 312.852 173.128 311.207 171.98L316.185 175.32Z" fill="white"/>
<path d="M316.184 175.771C316.092 175.772 316.003 175.745 315.926 175.695C314.052 174.467 312.416 173.381 310.933 172.346C310.834 172.272 310.768 172.162 310.748 172.039C310.729 171.917 310.757 171.792 310.828 171.69C310.898 171.588 311.006 171.518 311.127 171.494C311.249 171.469 311.375 171.493 311.479 171.561C312.952 172.592 314.578 173.681 316.444 174.894C316.531 174.949 316.598 175.031 316.635 175.129C316.671 175.226 316.675 175.332 316.645 175.431C316.616 175.531 316.555 175.618 316.471 175.679C316.388 175.74 316.287 175.773 316.184 175.771Z" fill="#242426"/>
<path d="M487.704 260.696C484.883 259.735 482.071 258.679 479.314 257.547C471.185 254.344 463.288 250.577 455.682 246.274C452.285 244.38 448.943 242.364 445.666 240.262C439.503 243.517 434.737 248.913 432.262 255.438C430.653 259.613 430.031 264.105 430.445 268.561C430.858 273.018 432.297 277.317 434.646 281.124C436.996 284.93 440.194 288.139 443.989 290.5C447.784 292.86 452.073 294.308 456.52 294.73C460.967 295.151 465.451 294.535 469.62 292.93C473.79 291.325 477.532 288.774 480.552 285.477C483.573 282.18 485.791 278.227 487.032 273.927C488.272 269.628 488.502 265.099 487.704 260.696Z" fill="white"/>
<path d="M459.205 295.293C452.648 295.291 446.28 293.093 441.114 289.047C435.948 285.001 432.28 279.34 430.696 272.965C429.111 266.59 429.699 259.867 432.368 253.866C435.036 247.865 439.631 242.93 445.421 239.847C445.495 239.808 445.579 239.79 445.663 239.793C445.746 239.797 445.828 239.823 445.899 239.868C449.446 242.13 452.714 244.091 455.89 245.865C463.482 250.158 471.363 253.916 479.476 257.11C482.233 258.24 485.039 259.299 487.845 260.253C487.923 260.282 487.993 260.331 488.046 260.395C488.1 260.459 488.136 260.536 488.151 260.618C488.919 264.864 488.747 269.227 487.645 273.398C486.544 277.569 484.54 281.446 481.777 284.755C479.014 288.064 475.558 290.724 471.654 292.546C467.751 294.368 463.496 295.308 459.189 295.299L459.205 295.293ZM445.638 240.823C441.047 243.326 437.232 247.049 434.613 251.582C431.995 256.115 430.674 261.283 430.795 266.519C430.916 271.756 432.474 276.857 435.3 281.264C438.125 285.671 442.107 289.212 446.81 291.5C451.512 293.787 456.753 294.732 461.956 294.231C467.16 293.73 472.125 291.802 476.306 288.659C480.487 285.515 483.723 281.279 485.659 276.413C487.595 271.548 488.155 266.242 487.278 261.079C484.543 260.14 481.801 259.108 479.127 258.01C470.98 254.798 463.065 251.024 455.44 246.712C452.319 244.957 449.097 243.033 445.638 240.823Z" fill="#242426"/>
<path d="M480.831 274.033C479.825 276.66 478.295 279.053 476.336 281.068C474.376 283.083 472.027 284.676 469.433 285.751C466.838 286.826 464.052 287.36 461.244 287.321C458.437 287.281 455.667 286.669 453.103 285.521C443.608 281.279 438.679 270.304 441.834 260.354C442.906 256.97 444.826 253.918 447.412 251.491C449.998 249.063 453.162 247.34 456.601 246.488C464.209 250.792 472.106 254.558 480.236 257.761C481.426 260.293 482.092 263.04 482.194 265.836C482.296 268.633 481.832 271.421 480.831 274.033Z" fill="#242426"/>
<path d="M496.647 263.555C493.649 262.674 490.653 261.714 487.703 260.707L496.647 263.555Z" fill="white"/>
<path d="M496.646 264.034C496.601 264.034 496.555 264.027 496.512 264.012C493.525 263.135 490.511 262.171 487.549 261.158C487.49 261.138 487.435 261.106 487.388 261.065C487.341 261.024 487.303 260.974 487.275 260.918C487.248 260.861 487.232 260.8 487.228 260.738C487.224 260.675 487.232 260.613 487.252 260.554C487.272 260.494 487.304 260.44 487.345 260.393C487.386 260.346 487.436 260.307 487.492 260.279C487.548 260.252 487.609 260.236 487.671 260.231C487.734 260.227 487.796 260.236 487.855 260.256C490.805 261.266 493.807 262.223 496.781 263.098C496.881 263.138 496.964 263.21 497.017 263.304C497.07 263.397 497.091 263.505 497.075 263.611C497.06 263.717 497.009 263.815 496.931 263.889C496.853 263.963 496.753 264.009 496.646 264.019V264.034Z" fill="#242426"/>
<path d="M445.664 240.284C443.992 239.201 442.332 238.093 440.684 236.945L445.664 240.284Z" fill="white"/>
<path d="M445.675 240.764C445.583 240.764 445.492 240.737 445.415 240.687C443.537 239.459 441.904 238.37 440.422 237.338C440.323 237.264 440.256 237.154 440.237 237.032C440.217 236.909 440.245 236.784 440.316 236.682C440.387 236.58 440.494 236.51 440.615 236.486C440.737 236.462 440.863 236.486 440.967 236.553C442.44 237.581 444.064 238.67 445.932 239.886C446.019 239.941 446.086 240.023 446.123 240.12C446.159 240.217 446.163 240.323 446.134 240.422C446.105 240.521 446.044 240.608 445.962 240.67C445.879 240.731 445.778 240.764 445.675 240.764Z" fill="#242426"/>
<path d="M485.141 333.958C488.48 336.671 501.473 348.69 504.555 351.682C502.386 352.235 500.205 352.746 498.012 353.217C494.358 353.987 490.682 354.573 486.985 355.175L484.878 355.424C482.554 355.683 480.227 355.913 477.897 356.111C443.017 359.116 407.825 356.746 373.359 364.149C362.749 366.429 352.163 369.63 343.473 376.358C330.957 386.047 325.067 401.177 328.687 416.747C331.383 428.342 345.262 436.306 356.604 432.629C366.501 429.419 372.753 421.031 373.102 411.275C373.715 411.051 374.236 410.857 374.327 410.83C382.246 408.374 390.335 407.26 398.437 405.732L400.992 405.447C403.068 405.228 405.147 405.032 407.228 404.86C411.403 404.51 415.584 404.246 419.768 404.038C428.425 403.602 437.093 403.396 445.759 403.154C464.251 402.635 482.626 401.647 500.925 398.747C509.363 397.454 517.685 395.492 525.813 392.879C536.696 389.318 547.76 384.242 553.993 374.05C569.002 349.445 544.978 325.589 527.01 310.98C522.186 307.055 517.417 304.32 510.963 304.32" fill="#F24EB6"/>
<path d="M350.75 434.017C346.712 433.979 342.751 432.898 339.251 430.877C333.572 427.661 329.56 422.554 328.224 416.864C324.607 401.316 330.2 386.035 343.181 375.987C352.371 368.87 363.545 365.776 373.258 363.689C395.539 358.904 418.494 358.183 440.692 357.487C452.886 357.103 465.503 356.707 477.856 355.645C480.258 355.439 482.601 355.206 484.822 354.958C485.404 354.893 485.983 354.823 486.562 354.755L487.664 354.589C491.034 354.043 494.504 353.475 497.898 352.748C499.776 352.352 501.687 351.913 503.59 351.44C499.745 347.758 487.989 336.908 484.825 334.336C484.777 334.296 484.736 334.247 484.707 334.191C484.678 334.135 484.66 334.074 484.654 334.011C484.648 333.948 484.654 333.885 484.673 333.825C484.692 333.764 484.722 333.708 484.762 333.66C484.802 333.611 484.852 333.571 484.908 333.542C484.963 333.512 485.024 333.494 485.087 333.488C485.15 333.482 485.213 333.489 485.273 333.508C485.333 333.526 485.389 333.557 485.438 333.597C488.807 336.337 501.902 348.451 504.882 351.348C504.944 351.407 504.988 351.482 505.011 351.564C505.033 351.646 505.033 351.733 505.011 351.815C504.989 351.897 504.946 351.972 504.886 352.032C504.825 352.092 504.75 352.135 504.668 352.156C502.481 352.714 500.272 353.227 498.107 353.69C494.694 354.408 491.202 354.976 487.83 355.532L486.687 355.703L484.941 355.909C482.711 356.158 480.347 356.388 477.948 356.597C465.564 357.665 452.941 358.06 440.735 358.438C418.576 359.132 395.668 359.853 373.469 364.619C363.86 366.685 352.821 369.741 343.776 376.739C331.098 386.56 325.636 401.473 329.165 416.637C330.427 422.069 334.274 426.952 339.72 430.037C345.117 433.106 351.222 433.873 356.469 432.185C366.093 429.064 372.287 421.05 372.639 411.269C372.642 411.175 372.672 411.083 372.727 411.006C372.781 410.929 372.857 410.87 372.946 410.836L373.521 410.625L374.186 410.382C380.291 408.476 386.604 407.365 392.712 406.291C394.589 405.96 396.47 405.628 398.351 405.275L399.362 405.159L400.939 404.984C402.936 404.772 404.979 404.579 407.188 404.394C411.081 404.069 415.186 403.799 419.747 403.572C427.211 403.194 434.805 402.986 442.15 402.786L445.749 402.685C462.167 402.225 481.554 401.344 500.851 398.284C509.264 397.002 517.561 395.045 525.662 392.434C535.283 389.288 547.153 384.326 553.573 373.811C564.723 355.553 555.932 335.125 526.698 311.358C522.519 307.955 517.72 304.79 510.959 304.79C510.84 304.781 510.728 304.726 510.646 304.638C510.565 304.549 510.52 304.434 510.52 304.313C510.52 304.193 510.565 304.077 510.646 303.988C510.728 303.9 510.84 303.846 510.959 303.836C518.004 303.836 522.985 307.089 527.307 310.603C556.976 334.723 565.838 355.556 554.394 374.293C547.811 385.074 535.743 390.129 525.965 393.321C517.815 395.947 509.468 397.914 501.004 399.205C481.652 402.274 462.229 403.158 445.777 403.618L442.181 403.719C434.829 403.919 427.251 404.127 419.799 404.502C415.253 404.732 411.155 404.999 407.274 405.324C405.071 405.508 403.034 405.699 401.046 405.91C400.523 405.966 399.999 406.027 399.478 406.085L398.495 406.196C396.657 406.546 394.764 406.877 392.88 407.209C386.806 408.28 380.524 409.385 374.477 411.272C374.416 411.291 374.171 411.38 373.864 411.499L373.583 411.604C373.096 421.501 366.538 429.908 356.769 433.087C354.824 433.711 352.793 434.025 350.75 434.017Z" fill="#242426"/>
<path d="M381.243 259.979C374.018 259.979 366.789 257.665 361.045 253.187C360.991 253.151 360.945 253.103 360.91 253.047C360.875 252.992 360.852 252.93 360.842 252.865C360.832 252.8 360.835 252.734 360.851 252.671C360.868 252.607 360.897 252.548 360.938 252.496C360.978 252.444 361.029 252.402 361.086 252.37C361.144 252.339 361.207 252.32 361.273 252.314C361.338 252.309 361.403 252.316 361.466 252.337C361.528 252.358 361.585 252.392 361.634 252.435C370.994 259.737 384.441 261.118 395.086 255.864C395.199 255.808 395.33 255.8 395.449 255.84C395.569 255.881 395.667 255.968 395.723 256.082C395.778 256.195 395.787 256.326 395.746 256.446C395.705 256.566 395.619 256.664 395.505 256.72C391.062 258.884 386.183 259.999 381.243 259.979Z" fill="#242426"/>
<path d="M399.937 267.602C399.824 267.6 399.715 267.556 399.631 267.48C393.998 262.373 393.067 252.901 397.6 246.797C397.679 246.706 397.789 246.649 397.909 246.636C398.028 246.623 398.148 246.655 398.245 246.727C398.341 246.798 398.407 246.904 398.43 247.022C398.452 247.14 398.43 247.263 398.366 247.365C394.111 253.095 394.997 261.983 400.268 266.771C400.34 266.834 400.391 266.918 400.414 267.011C400.437 267.104 400.432 267.201 400.399 267.291C400.366 267.381 400.306 267.459 400.228 267.515C400.15 267.57 400.057 267.601 399.962 267.602H399.937Z" fill="#242426"/>
<path d="M446.75 307.312C459.437 292.605 478.876 283.987 498.271 284.494L446.75 307.312Z" fill="#F24EB6"/>
<path d="M446.759 307.806C446.667 307.806 446.578 307.779 446.501 307.73C446.424 307.68 446.363 307.609 446.325 307.526C446.286 307.442 446.273 307.35 446.286 307.259C446.299 307.168 446.338 307.083 446.398 307.014C459.247 292.116 478.673 283.532 498.292 284.032C498.355 284.034 498.416 284.048 498.473 284.073C498.53 284.099 498.582 284.135 498.625 284.18C498.668 284.226 498.701 284.279 498.724 284.337C498.746 284.396 498.757 284.458 498.755 284.52C498.755 284.584 498.743 284.646 498.719 284.705C498.694 284.763 498.658 284.815 498.612 284.859C498.566 284.903 498.512 284.937 498.453 284.959C498.394 284.981 498.331 284.99 498.268 284.987C478.903 284.487 459.786 292.967 447.114 307.64C447.07 307.691 447.016 307.732 446.954 307.761C446.893 307.789 446.827 307.805 446.759 307.806Z" fill="#242426"/>
<path d="M493.677 311.599C493.584 311.599 493.494 311.571 493.417 311.52C493.339 311.468 493.279 311.396 493.242 311.31C493.206 311.225 493.194 311.131 493.21 311.04C493.226 310.948 493.268 310.863 493.33 310.795C495.607 308.384 498.542 306.698 501.769 305.949C501.832 305.927 501.899 305.918 501.966 305.923C502.032 305.929 502.097 305.948 502.156 305.98C502.214 306.012 502.266 306.056 502.306 306.11C502.347 306.163 502.375 306.224 502.39 306.289C502.406 306.355 502.407 306.422 502.394 306.488C502.381 306.554 502.355 306.616 502.317 306.671C502.278 306.726 502.229 306.772 502.171 306.806C502.114 306.84 502.05 306.862 501.984 306.87C498.938 307.575 496.168 309.165 494.02 311.44C493.976 311.488 493.923 311.528 493.865 311.555C493.806 311.583 493.742 311.598 493.677 311.599Z" fill="#242426"/>
<path d="M99.3265 317.292C98.9467 317.648 98.4352 317.666 97.4887 318.035C88.6762 321.429 86.5075 331.149 87.3284 339.675C87.7758 344.169 88.9005 348.568 90.6641 352.724C91.4258 354.629 92.3717 356.455 93.4883 358.175C94.3613 359.464 97.5285 361.953 97.0537 363.614C96.7015 364.841 92.6827 366.118 91.5892 366.569C86.7279 368.558 81.5473 369.648 76.2982 369.785C72.6623 369.884 65.1271 370.037 62.7961 366.511C61.7393 364.912 62.3305 360.198 62.211 358.384C61.382 345.799 60.5539 333.215 59.7269 320.634L55.6836 259.145L55.7755 259.124C61.2309 257.896 67.1947 258.089 72.598 259.431C84.0846 262.294 92.0701 271.093 96.0276 282.044C99.397 291.343 100.203 301.462 100.052 311.286C100.031 312.725 100.359 314.913 99.8871 316.267C99.7841 316.648 99.5919 317 99.3265 317.292Z" fill="white"/>
<path d="M73.9231 370.32C69.9411 370.32 64.4275 369.89 62.3875 366.791C61.5482 365.523 61.6371 362.739 61.7075 360.505C61.732 359.658 61.7565 358.925 61.7075 358.431L55.1923 259.179C55.1854 259.068 55.2178 258.957 55.2838 258.867C55.3499 258.777 55.4454 258.712 55.5538 258.685L55.6548 258.661C60.9877 257.458 67.0434 257.568 72.6979 258.968C83.5045 261.662 92.1638 270.016 96.4583 281.881C99.405 290.027 100.695 299.375 100.511 311.292C100.511 311.707 100.529 312.183 100.554 312.683C100.615 313.947 100.685 315.381 100.321 316.424C100.198 316.879 99.9631 317.296 99.6378 317.636C99.3029 317.914 98.9055 318.106 98.4799 318.195C98.2441 318.265 97.9684 318.351 97.6345 318.48C86.9933 322.574 87.3977 335.701 87.7775 339.626C88.2162 344.072 89.3286 348.425 91.0764 352.535C91.8327 354.413 92.7672 356.215 93.8669 357.915C94.2179 358.377 94.5996 358.815 95.0095 359.225C96.3664 360.671 97.9072 362.294 97.4936 363.752C97.1598 364.909 94.8441 365.861 92.4977 366.732C92.1914 366.849 91.9341 366.944 91.7534 367.018C86.8376 369.025 81.6005 370.128 76.294 370.271C75.6232 370.299 74.8145 370.32 73.9231 370.32ZM56.1756 259.526L62.6755 358.372C62.7091 358.912 62.6755 359.664 62.6601 360.539C62.5958 362.528 62.51 365.25 63.1839 366.266C65.3985 369.617 73.0226 369.415 76.2756 369.335C81.4665 369.195 86.5895 368.117 91.3981 366.152C91.5819 366.076 91.8514 365.977 92.17 365.845C93.3156 365.419 96.3572 364.286 96.5839 363.494C96.8473 362.574 95.3893 361.021 94.3203 359.888C93.8801 359.44 93.4708 358.962 93.095 358.458C91.9606 356.707 90.9964 354.851 90.2157 352.915C88.4302 348.713 87.294 344.263 86.8463 339.718C85.7957 328.789 89.7072 320.518 97.3098 317.59C97.6713 317.452 97.9684 317.363 98.2288 317.283C98.5119 317.232 98.7793 317.115 99.0099 316.943C99.2172 316.704 99.3661 316.42 99.4448 316.114C99.7511 315.245 99.6837 313.91 99.6255 312.738C99.601 312.216 99.5765 311.719 99.5827 311.289C99.7634 299.486 98.4922 290.248 95.6006 282.216C91.3521 270.483 83.1522 262.559 72.5019 259.904C67.1567 258.555 61.5775 258.424 56.1756 259.523V259.526Z" fill="#242426"/>
<path d="M54.9371 364.334L47.5121 262.591C47.1231 257.238 50.3639 252.601 54.7196 252.282C59.0753 251.975 62.9563 256.078 63.3483 261.431L66.9934 311.401L70.7733 363.174C71.1623 368.523 67.9215 373.164 63.5658 373.483C59.2101 373.802 55.3292 369.683 54.9371 364.334Z" fill="#FFA9D8"/>
<path d="M63.0848 373.975C61.0141 373.975 59.02 373.054 57.418 371.36C55.6628 369.436 54.6194 366.968 54.4622 364.366L47.0372 262.623C46.6268 256.997 50.0574 252.142 54.6949 251.804C56.931 251.638 59.1395 252.559 60.8763 254.401C62.6315 256.323 63.675 258.791 63.8322 261.392L71.2571 363.135C71.6675 368.764 68.2369 373.619 63.5994 373.957C63.4278 373.969 63.2563 373.975 63.0848 373.975ZM55.1942 252.74C55.0472 252.74 54.8879 252.74 54.7501 252.74C50.6486 253.047 47.6131 257.436 47.9837 262.537L55.4148 364.311C55.5531 366.693 56.5048 368.956 58.1103 370.719C59.6418 372.345 61.5624 373.174 63.532 373.021C67.6335 372.714 70.669 368.325 70.2983 363.221L62.8703 261.463C62.7326 259.078 61.7796 256.814 60.1718 255.051C58.7535 253.551 57.0015 252.74 55.1942 252.74Z" fill="#242426"/>
<path d="M276.346 262.7C276.264 262.7 276.183 262.679 276.112 262.638C276.041 262.598 275.981 262.54 275.938 262.47C271.708 255.38 269.466 247.164 269.086 237.34C269.084 237.277 269.094 237.215 269.116 237.156C269.137 237.097 269.171 237.043 269.213 236.997C269.256 236.951 269.307 236.914 269.364 236.888C269.422 236.862 269.483 236.848 269.546 236.846C269.609 236.84 269.673 236.847 269.733 236.867C269.793 236.888 269.848 236.921 269.895 236.964C269.941 237.007 269.978 237.06 270.003 237.118C270.028 237.176 270.04 237.24 270.039 237.303C270.413 246.961 272.609 255.033 276.756 261.978C276.788 262.032 276.81 262.092 276.819 262.154C276.828 262.216 276.825 262.279 276.809 262.34C276.794 262.401 276.767 262.458 276.729 262.508C276.692 262.558 276.645 262.6 276.591 262.632C276.517 262.677 276.432 262.7 276.346 262.7Z" fill="#242426"/>
<path d="M428.597 164.574C428.514 164.574 428.432 164.552 428.36 164.511C428.288 164.469 428.227 164.41 428.186 164.337C428.144 164.265 428.121 164.183 428.121 164.1C428.121 164.016 428.142 163.934 428.184 163.862C431.389 158.228 436.007 153.532 441.582 150.238C441.636 150.201 441.697 150.174 441.761 150.162C441.826 150.149 441.892 150.149 441.957 150.163C442.021 150.177 442.082 150.205 442.135 150.243C442.188 150.282 442.233 150.331 442.267 150.388C442.3 150.445 442.321 150.508 442.329 150.573C442.337 150.639 442.332 150.705 442.313 150.768C442.294 150.831 442.262 150.89 442.22 150.94C442.177 150.991 442.125 151.032 442.066 151.061C436.634 154.27 432.134 158.846 429.011 164.335C428.969 164.408 428.909 164.468 428.837 164.511C428.764 164.553 428.681 164.574 428.597 164.574Z" fill="#242426"/>
<path d="M544.25 203.844C545.41 210.694 545.04 217.725 544.636 224.662C544.406 228.602 544.173 232.641 545.095 236.468C546.017 240.295 548.351 243.932 551.616 244.948C554.964 245.992 558.557 244.003 560.711 240.885C562.864 237.767 563.814 233.715 564.337 229.713C566.414 213.852 562.34 196.874 553.469 184.426C551.503 181.664 549.249 179.061 546.47 177.567C543.692 176.072 540.301 175.836 537.737 177.683C532.98 181.111 534.919 184.929 537.554 188.391C541.039 192.901 543.341 198.213 544.25 203.844Z" fill="white"/>
<path d="M519.492 170.323C520.224 171.6 521.305 172.64 522.607 173.321C523.91 174.003 525.379 174.297 526.843 174.169C528.299 173.994 529.671 173.391 530.785 172.435C531.899 171.478 532.705 170.213 533.101 168.798C533.443 167.369 533.338 165.869 532.799 164.502C532.26 163.135 531.314 161.968 530.09 161.159C524.362 157.581 515.88 163.857 519.492 170.323Z" fill="white"/>
<path d="M298.58 219.032C298.497 219.032 298.415 219.011 298.343 218.969C298.271 218.928 298.211 218.868 298.17 218.796C295.439 214.087 294.221 208.65 294.681 203.223C294.686 203.16 294.703 203.099 294.731 203.043C294.76 202.987 294.799 202.937 294.847 202.897C294.895 202.856 294.95 202.826 295.01 202.807C295.07 202.788 295.133 202.781 295.196 202.787C295.322 202.799 295.438 202.86 295.519 202.957C295.601 203.054 295.641 203.179 295.63 203.306C295.191 208.536 296.367 213.776 299 218.314C299.043 218.386 299.066 218.469 299.066 218.553C299.067 218.637 299.045 218.72 299.003 218.793C298.962 218.866 298.901 218.926 298.829 218.968C298.756 219.01 298.673 219.032 298.589 219.032H298.58Z" fill="#242426"/>
<path d="M264.483 256.582H264.44C264.315 256.571 264.198 256.511 264.117 256.414C264.035 256.318 263.995 256.193 264.005 256.067C264.556 249.576 266.313 243.247 269.185 237.403C269.213 237.347 269.251 237.297 269.298 237.256C269.345 237.214 269.4 237.183 269.459 237.162C269.518 237.142 269.58 237.134 269.643 237.138C269.705 237.142 269.766 237.158 269.822 237.186C269.878 237.213 269.929 237.252 269.97 237.299C270.011 237.346 270.043 237.4 270.063 237.46C270.083 237.519 270.092 237.582 270.088 237.644C270.084 237.707 270.067 237.768 270.04 237.824C267.22 243.561 265.495 249.777 264.955 256.149C264.944 256.267 264.89 256.377 264.803 256.457C264.716 256.537 264.602 256.582 264.483 256.582Z" fill="#242426"/>
<path d="M225.023 271.622C231.732 257.753 250.361 246.33 259.474 242.426C259.823 242.892 260.356 243.347 260.699 243.807C247.249 253.352 237.028 267.362 231.845 283.036C230.788 282.272 230.313 281.142 229.848 279.927C228.43 276.226 227.48 274.691 225.023 271.622Z" fill="#242426"/>
<path d="M374.564 363.078C369.357 364.659 364.082 367.783 358.636 367.734C348.093 367.642 356.761 367.971 345.526 367.842C313.363 363.573 268.59 340.527 242.974 320.578C242.974 320.311 241.16 320.523 241.16 320.271C241.969 320.191 242.906 320.084 243.715 320.004C261.193 333.486 281.137 343.743 302.422 349.544C326.091 355.995 350.133 360.878 374.564 363.078Z" fill="#242426"/>
<path d="M88.7454 326.625C89.1987 341.519 98.0694 355.87 111.173 362.917C106.22 363.402 101.264 363.331 96.4215 362.18C88.0072 352.838 85.2657 338.717 88.7454 326.625Z" fill="#242426"/>
<path d="M132.993 311.602L178.137 313.277C177.757 314.397 177.524 317.574 177.436 318.749C162.264 318.688 147.074 318.568 131.918 317.887C132.739 316.432 133.22 313.253 132.993 311.602Z" fill="#242426"/>
<path d="M70.4774 353.305C70.7205 359.609 73.4333 365.564 78.0279 369.878C75.2738 369.875 72.5219 369.718 69.7852 369.408C70.4744 363.918 70.9981 358.801 70.4774 353.305Z" fill="#242426"/>
<path d="M256.291 227.62C255.452 201.116 260.579 179.65 273.818 156.688C267.223 169.667 266.773 179.706 266.396 194.262C266.019 208.819 267.778 223.345 269.542 237.8C268.479 238.297 267.483 238.503 266.421 238.997C262.537 235.538 259.063 232.021 256.291 227.62Z" fill="#242426"/>
<path d="M484.73 334.117C486.785 337.778 488.429 341.655 489.631 345.678C491.628 344.715 493.694 343.904 495.813 343.254C492.122 339.967 488.415 337.404 484.73 334.117Z" fill="#242426"/>
<path d="M595.273 256.975C578.613 260.597 579.321 263.988 577.749 288.28C577.742 288.378 577.7 288.469 577.63 288.538C577.561 288.606 577.468 288.647 577.37 288.651C577.273 288.656 577.177 288.624 577.101 288.563C577.025 288.501 576.975 288.413 576.959 288.317C573.124 264.2 574.508 260.741 557.717 258.191C557.625 258.176 557.542 258.13 557.482 258.06C557.421 257.99 557.386 257.902 557.383 257.81C557.38 257.717 557.409 257.627 557.466 257.553C557.522 257.48 557.602 257.429 557.692 257.408C574.282 253.79 572.701 250.426 574.977 226.104C574.989 226.007 575.036 225.918 575.109 225.854C575.181 225.789 575.275 225.754 575.372 225.754C575.469 225.754 575.563 225.789 575.636 225.854C575.709 225.918 575.755 226.007 575.767 226.104C578.879 250.233 578.392 253.661 595.249 256.211C595.333 256.231 595.409 256.278 595.464 256.346C595.519 256.413 595.55 256.497 595.553 256.584C595.556 256.671 595.53 256.756 595.479 256.827C595.429 256.898 595.356 256.95 595.273 256.975Z" fill="#FDDC68"/>
<path d="M577.357 289.119C577.149 289.121 576.947 289.047 576.789 288.911C576.632 288.775 576.529 288.586 576.5 288.379C576.101 285.881 575.758 283.6 575.449 281.523C572.766 263.633 572.355 260.883 557.652 258.649C557.451 258.617 557.267 258.516 557.133 258.363C556.998 258.21 556.921 258.015 556.914 257.811C556.908 257.607 556.973 257.407 557.099 257.247C557.224 257.086 557.401 256.974 557.6 256.93C572.126 253.763 572.364 250.991 573.899 232.97C574.08 230.874 574.273 228.578 574.512 226.058C574.529 225.843 574.627 225.642 574.785 225.496C574.943 225.349 575.151 225.267 575.366 225.266C575.582 225.257 575.794 225.331 575.957 225.472C576.121 225.614 576.225 225.812 576.248 226.027L576.717 229.692C579.379 250.669 579.719 253.364 595.328 255.724C595.53 255.755 595.714 255.856 595.849 256.008C595.984 256.161 596.062 256.356 596.068 256.56C596.075 256.764 596.01 256.964 595.885 257.125C595.76 257.286 595.583 257.399 595.384 257.443C579.958 260.797 579.786 263.507 578.466 284.61L578.233 288.293C578.222 288.508 578.13 288.712 577.977 288.863C577.823 289.014 577.618 289.102 577.403 289.109L577.357 289.119ZM558.222 257.78C573.201 260.116 573.706 263.479 576.389 281.388C576.671 283.266 576.977 285.307 577.327 287.526L577.517 284.558C578.806 263.952 579.048 260.088 594.762 256.608C578.858 254.153 578.371 250.301 575.771 229.818L575.394 226.862C575.186 229.106 575.011 231.159 574.849 233.056C573.311 251.102 573.023 254.49 558.222 257.78Z" fill="#242426"/>
<path d="M207.988 205.458C193.356 208.638 193.978 211.618 192.599 232.939C192.596 233.026 192.561 233.11 192.499 233.173C192.438 233.235 192.355 233.273 192.267 233.277C192.179 233.281 192.093 233.252 192.026 233.196C191.959 233.139 191.915 233.06 191.904 232.972C188.535 211.796 189.76 208.754 175.005 206.514C174.923 206.503 174.848 206.464 174.793 206.403C174.738 206.342 174.706 206.263 174.703 206.181C174.701 206.098 174.727 206.018 174.779 205.953C174.83 205.889 174.903 205.845 174.983 205.829C189.555 202.65 188.155 199.691 190.164 178.343C190.175 178.259 190.217 178.182 190.28 178.126C190.344 178.07 190.426 178.039 190.51 178.039C190.595 178.039 190.677 178.07 190.74 178.126C190.804 178.182 190.845 178.259 190.856 178.343C193.592 199.535 193.163 202.545 207.967 204.786C208.042 204.802 208.11 204.844 208.159 204.903C208.208 204.962 208.236 205.036 208.239 205.114C208.241 205.191 208.218 205.267 208.172 205.329C208.127 205.391 208.062 205.437 207.988 205.458Z" fill="#FDDC68"/>
<path d="M192.255 233.732C192.058 233.734 191.867 233.665 191.718 233.537C191.568 233.409 191.471 233.23 191.443 233.035C191.094 230.838 190.794 228.837 190.524 227.01C188.178 211.34 187.816 208.931 174.948 206.976C174.758 206.947 174.583 206.852 174.455 206.708C174.326 206.564 174.253 206.379 174.247 206.186C174.24 205.992 174.302 205.803 174.421 205.651C174.539 205.498 174.708 205.393 174.896 205.352C187.611 202.59 187.819 200.135 189.167 184.359C189.323 182.518 189.495 180.502 189.703 178.289C189.72 178.085 189.813 177.895 189.962 177.757C190.112 177.618 190.308 177.541 190.512 177.54C190.716 177.53 190.916 177.599 191.071 177.733C191.226 177.866 191.324 178.054 191.345 178.258L191.756 181.478C194.09 199.861 194.387 202.225 208.051 204.29C208.242 204.319 208.417 204.413 208.545 204.558C208.673 204.702 208.747 204.887 208.753 205.08C208.759 205.273 208.698 205.462 208.579 205.615C208.46 205.767 208.292 205.873 208.103 205.914C194.598 208.851 194.451 211.226 193.293 229.724L193.088 232.958C193.077 233.163 192.991 233.356 192.845 233.499C192.699 233.642 192.505 233.725 192.301 233.732H192.255ZM175.76 206.135C188.662 208.194 189.118 211.226 191.461 226.869C191.688 228.37 191.93 229.991 192.203 231.74L192.334 229.662C193.462 211.659 193.679 208.179 207.227 205.128C193.514 202.952 193.076 199.493 190.803 181.597L190.54 179.529C190.377 181.293 190.233 182.926 190.111 184.439C188.766 200.202 188.506 203.259 175.76 206.135Z" fill="#242426"/>
<path d="M250.036 87.9269C239.284 90.2625 239.741 92.4508 238.727 108.121C238.721 108.183 238.693 108.24 238.648 108.283C238.603 108.326 238.545 108.351 238.483 108.354C238.422 108.357 238.361 108.337 238.312 108.299C238.264 108.261 238.23 108.207 238.218 108.146C235.743 92.5797 236.632 90.3454 225.798 88.7003C225.737 88.6929 225.682 88.6642 225.641 88.6192C225.6 88.5742 225.576 88.5161 225.574 88.4553C225.572 88.3944 225.592 88.3349 225.631 88.2876C225.669 88.2402 225.723 88.2081 225.782 88.197C236.503 85.8614 235.459 83.6916 236.938 67.9994C236.947 67.9386 236.978 67.8832 237.025 67.8432C237.072 67.8032 237.131 67.7812 237.192 67.7812C237.254 67.7812 237.313 67.8032 237.36 67.8432C237.406 67.8832 237.437 67.9386 237.446 67.9994C239.456 83.5719 239.14 85.8001 250.005 87.4297C250.061 87.441 250.111 87.4703 250.148 87.5131C250.185 87.5559 250.208 87.6099 250.211 87.6665C250.215 87.7232 250.199 87.7795 250.168 87.8266C250.136 87.8736 250.09 87.9089 250.036 87.9269Z" fill="#FDDC68"/>
<path d="M238.459 108.832C238.285 108.834 238.116 108.772 237.983 108.66C237.851 108.547 237.763 108.39 237.736 108.218C237.478 106.604 237.258 105.131 237.059 103.787C235.304 92.0965 235.08 90.5896 225.725 89.1716C225.556 89.1462 225.401 89.0621 225.287 88.9338C225.173 88.8055 225.107 88.6412 225.102 88.4696C225.096 88.298 225.151 88.1299 225.257 87.9946C225.362 87.8593 225.512 87.7654 225.679 87.7292C234.933 85.7097 235.062 84.1967 236.066 72.4175C236.183 71.0641 236.308 69.5817 236.461 67.952C236.477 67.7718 236.559 67.6039 236.691 67.4812C236.824 67.3585 236.998 67.29 237.178 67.2891C237.358 67.2873 237.532 67.3511 237.669 67.4685C237.805 67.586 237.894 67.7491 237.919 67.9275L238.226 70.2937C239.932 83.721 240.149 85.4427 250.095 86.9466C250.264 86.9733 250.418 87.0581 250.531 87.1863C250.644 87.3144 250.709 87.4781 250.715 87.6491C250.721 87.8201 250.667 87.9877 250.563 88.1233C250.459 88.2589 250.311 88.3539 250.144 88.3921C240.315 90.5405 240.205 92.2622 239.362 105.772L239.209 108.151C239.2 108.332 239.123 108.503 238.993 108.63C238.864 108.757 238.692 108.83 238.511 108.835L238.459 108.832ZM226.981 88.3982C235.947 89.9328 236.342 92.5814 238.008 103.633C238.125 104.4 238.247 105.213 238.376 106.07L238.4 105.702C239.215 92.6704 239.387 89.9297 248.815 87.6985C239.264 86.0749 238.918 83.3527 237.276 70.4042L237.227 70.0359C237.151 70.8983 237.083 71.7116 237.016 72.4912C236.057 83.6289 235.83 86.2867 226.981 88.3982Z" fill="#242426"/>
</svg>
