<svg width="113" height="113" viewBox="0 0 113 113" fill="none" xmlns="http://www.w3.org/2000/svg">
<g id="Group 289660">
<g id="Group 289633">
<circle id="Ellipse 65" cx="56.0087" cy="56.0087" r="56.0087" fill="#949AF6"/>
</g>
<g id="Mask group">
<mask id="mask0_3755_14764" style="mask-type:alpha" maskUnits="userSpaceOnUse" x="0" y="0" width="113" height="113">
<g id="Group 289634">
<circle id="Ellipse 65_2" cx="56.0087" cy="56.0087" r="56.0087" fill="#949AF6"/>
</g>
</mask>
<g mask="url(#mask0_3755_14764)">
<g id="ill">
<mask id="mask1_3755_14764" style="mask-type:alpha" maskUnits="userSpaceOnUse" x="-11" y="5" width="135" height="112">
<rect id="ill_2" x="-11" y="5" width="135" height="111.884" rx="55.9418" fill="white"/>
</mask>
<g mask="url(#mask1_3755_14764)">
<g id="Group 122">
<path id="Vector" d="M11.8999 125.365H100.45C101.054 118.916 101.394 107.401 98.2974 101.714C97.0675 99.4563 95.31 97.4891 94.3354 95.1098C92.7315 91.1903 93.4614 86.7696 93.8968 82.5587C94.3322 78.3478 94.3057 73.674 91.5927 70.4218C90.0926 68.6209 87.9061 67.4557 86.5628 65.534C84.6337 62.7797 84.817 59.0582 83.3953 56.0094C81.8529 52.7001 78.5794 50.4945 76.8188 47.2963C74.1216 42.3958 75.4003 36.5631 73.8526 31.3638C72.5008 26.8086 70.9658 21.8784 67.0451 18.8455C65.3764 17.5713 63.4598 16.6599 61.4181 16.1699C59.3765 15.6799 57.255 15.6221 55.1897 16.0001C49.127 17.1474 44.9859 21.8498 44.0876 28.0481C43.452 32.4062 41.9593 36.1277 38.6615 39.0451C35.3637 41.9625 31.4579 44.755 30.3095 49.0029C29.6358 51.503 30.0161 54.2679 28.9154 56.6122C27.0509 60.5816 21.8335 61.7225 19.1004 65.1526C14.8184 70.5288 18.2593 78.8012 15.596 85.1372C14.4869 87.7749 12.4031 89.8555 10.6774 92.1384C8.95169 94.4213 7.50671 97.2232 8.01415 100.038C8.38387 102.09 9.73457 103.822 10.4327 105.787C12.0101 110.236 9.57142 121.042 7.67834 125.36L11.8999 125.365Z" fill="#0A0517"/>
<path id="Vector_2" d="M67.1903 34.5169C66.6856 32.3409 68.0404 30.1677 70.2164 29.663C72.3924 29.1582 74.5656 30.513 75.0704 32.6889C75.5752 34.8649 74.2204 37.0381 72.0443 37.5429C69.8683 38.0476 67.6951 36.6928 67.1903 34.5169Z" fill="#FFD7E2"/>
<path id="Vector_3" d="M43.9215 37.3436C41.8577 36.4888 40.8777 34.1228 41.7325 32.0591C42.5874 29.9954 44.9534 29.0154 47.0171 29.8702C49.0809 30.725 50.0609 33.0909 49.2061 35.1547C48.3512 37.2184 45.9853 38.1984 43.9215 37.3436Z" fill="#FFD7E2"/>
<path id="Vector_4" d="M71.2668 73.3399C70.4193 69.6756 69.5718 65.8715 70.325 62.1871C71.2848 57.5133 76.3571 60.5885 79.1294 61.8121C82.6084 63.3471 85.9432 65.3895 88.3332 68.4033C90.3499 70.9552 91.5784 74.0399 91.8683 77.2796C92.0272 79.1006 91.8852 80.9322 91.8852 82.7595C91.8852 92.246 95.6989 101.541 94.8652 110.99C94.6406 113.532 94.041 116.121 92.5113 118.161C90.8566 120.366 87.6679 121.789 84.9326 121.7C81.5215 121.594 79.8943 119.099 78.9631 116.146C76.9206 109.665 75.9608 102.904 75.0095 96.1719C73.9491 88.6834 72.9787 80.7489 71.2668 73.3399Z" fill="#FFD7E2"/>
<path id="Vector_5" d="M28.1951 122.737C28.3773 122.691 28.5595 122.643 28.7406 122.595C30.7693 122.057 32.3965 121.698 33.8171 119.973C37.6244 115.348 36.6339 108.817 37.5344 103.245C38.6435 96.3857 38.5938 89.3888 39.4529 82.4945C40.0885 77.4563 41.2083 72.4382 41.0419 67.3629C40.9826 65.6404 40.7612 63.8787 39.9678 62.349C36.1742 55.0395 25.9767 64.6668 23.9428 69.2082C21.824 73.934 22.4162 79.3885 21.4448 84.4755C20.4405 89.7341 17.7444 94.6971 17.7593 100.048C17.7698 104.205 19.4246 108.177 19.9426 112.302C20.2869 115.042 20.1545 117.941 21.4066 120.402C22.3601 122.274 24.5 123.18 26.5594 123.028C27.1121 122.979 27.6594 122.882 28.1951 122.737Z" fill="#FFD7E2"/>
<path id="Vector_6" d="M34.8767 94.5289C33.1818 95.7128 31.7428 97.226 30.6456 98.9782C30.1043 99.8447 29.6509 100.762 29.1985 101.677C27.8436 104.419 26.4717 107.214 25.9918 110.234C29.2759 106.42 34.2496 103.959 37.7063 100.3C38.236 99.7367 38.7656 99.0937 38.8462 98.3203C38.9383 97.3765 38.3302 96.5194 37.7529 95.7705C37.1226 94.9495 35.7242 93.9368 34.8767 94.5289Z" fill="#0A0517"/>
<path id="Vector_7" d="M27.3532 127.633C30.8587 131.375 35.504 133.381 39.7616 135.889C42.4587 137.478 45.0022 139.266 47.0034 141.821C48.3308 143.516 49.299 145.446 50.3022 147.357C50.5999 147.923 50.8987 148.485 51.2122 149.038C51.619 149.759 52.0767 150.495 52.7864 150.919C52.7971 150.926 52.8085 150.932 52.8204 150.938C53.1335 151.118 53.4803 151.233 53.8395 151.275C54.7378 151.381 55.7092 151.091 56.4783 150.575C57.561 149.85 58.3375 148.761 59.1267 147.715C63.9702 141.281 69.9877 135.821 76.8616 131.624C79.528 129.998 82.6489 128.658 81.9465 125.612C81.9126 125.463 81.8776 125.313 81.8406 125.166C81.6001 124.2 81.3109 123.25 80.9761 122.313C80.3255 120.52 79.5655 118.769 78.7006 117.069C77.5088 114.685 75.8859 112.45 75.4251 109.785C75.1284 108.071 75.5681 106.33 75.7863 104.604C76.023 102.731 75.9987 100.835 75.7143 98.9685C75.6984 98.8541 75.6804 98.7418 75.6613 98.6295C75.549 97.9663 75.406 97.2672 75.6348 96.6337C75.7598 96.2862 75.9876 95.9885 76.2122 95.6951C78.5947 92.5859 80.3363 88.8708 79.9676 84.7913C79.8965 84.1095 79.7876 83.4323 79.6413 82.7626C79.4559 81.859 79.2483 80.9617 79.1477 80.0433C78.85 77.3409 79.4867 74.6406 79.7833 71.934C80.1933 68.2486 79.814 64.3322 76.798 61.8077C74.9187 60.2346 72.5934 59.3172 70.3888 58.2409C67.733 56.9443 64.4384 54.9771 63.9532 51.798C63.7763 50.6401 63.9055 49.4611 64.0358 48.3022C64.312 45.8071 64.5892 43.3127 64.8674 40.819C64.8674 40.8031 64.8674 40.7861 64.8674 40.7713C64.869 40.76 64.869 40.7486 64.8674 40.7374C65.0263 38.7416 62.7561 37.7045 60.88 36.9185C59.9721 36.5382 59.06 36.5159 58.1256 36.2352C57.0218 35.9015 55.9296 35.5212 54.7749 35.4089C53.2197 35.2553 51.4824 35.6801 50.5787 36.9555C50.1751 37.5255 49.9791 38.1992 49.8658 38.8952C49.8012 39.2819 49.7598 39.677 49.7238 40.0605C49.6687 40.6368 49.6154 41.2141 49.5639 41.7925C49.4018 43.5394 49.2323 45.2883 48.9674 47.0204C48.6306 49.2121 48.4854 51.5448 47.1665 53.3764C45.8064 55.276 43.9186 56.7346 41.7373 57.5714C38.8526 58.6615 35.2826 58.795 33.4488 61.2728C32.4795 62.5821 32.2401 64.294 32.2401 65.9222C32.2407 67.6651 32.4777 69.3999 32.9446 71.0791C33.4976 73.0696 34.3811 75.0411 34.2338 77.1015C34.1279 78.574 33.5039 79.9427 32.9986 81.3389C32.9319 81.519 32.8683 81.7012 32.8079 81.8834C31.9852 84.3822 31.7991 87.0468 32.2666 89.6357C32.5844 91.4037 33.2115 93.1008 33.8291 94.7872C34.2437 95.8784 34.6498 96.9674 35.0474 98.0543C35.1947 98.4515 35.3398 98.8498 35.486 99.2481C34.8419 101.435 34.9828 104.081 34.897 106.358C34.8122 108.569 34.9754 110.887 34.0209 112.883C33.4806 114.015 32.6172 114.955 31.8492 115.948C29.5752 118.897 28.0906 122.377 27.5354 126.06C27.4571 126.583 27.3963 127.107 27.3532 127.633Z" fill="#FFD7E2"/>
<path id="Vector_8" d="M49.4529 41.795C51.0282 43.6701 53.8281 44.0652 56.1608 43.8999C58.7531 43.7156 63.0551 43.0186 64.7501 40.7706L64.7734 40.741H64.7522C62.4926 40.1679 59.7404 40.8162 57.3854 40.5545C54.9621 40.2852 52.5692 39.7901 50.2379 39.0757C50.0739 39.0235 49.9127 38.9631 49.7548 38.8945C49.6902 39.2812 49.6489 39.6763 49.6129 40.0598C49.5571 40.6382 49.5038 41.2166 49.4529 41.795Z" fill="#0A0517"/>
<path id="Vector_9" d="M54.0315 63.2246C53.986 61.8941 53.9256 60.4968 53.2306 59.3601C52.2772 57.7965 50.3958 57.1143 48.6563 56.5412C47.9232 56.2997 47.0005 56.1016 46.4751 56.6662C46.0439 57.1302 46.134 57.8611 46.2854 58.4756C47.1524 61.9508 49.0925 65.0644 51.8302 67.3741C54.9828 70.0139 54.0887 64.9217 54.0315 63.2246Z" fill="#FFCAD7"/>
<path id="Vector_10" d="M58.5367 43.5743C51.8885 43.5743 46.4991 38.0574 46.4991 31.252C46.4991 24.4466 51.8885 18.9297 58.5367 18.9297C65.1848 18.9297 70.5742 24.4466 70.5742 31.252C70.5742 38.0574 65.1848 43.5743 58.5367 43.5743Z" fill="#FFD7E2"/>
<path id="Vector_11" d="M55.9156 31.7949C56.2619 31.7953 56.6072 31.7576 56.9453 31.6826C56.9793 31.6778 57.012 31.666 57.0413 31.648C57.0705 31.6299 57.0957 31.6061 57.1154 31.5779C57.135 31.5497 57.1486 31.5177 57.1553 31.484C57.1621 31.4503 57.1617 31.4156 57.1544 31.382C57.1471 31.3484 57.133 31.3167 57.1129 31.2888C57.0928 31.2609 57.0671 31.2375 57.0376 31.22C57.008 31.2025 56.9751 31.1913 56.941 31.187C56.9069 31.1828 56.8723 31.1856 56.8394 31.1953C56.186 31.3341 55.5098 31.3257 54.8601 31.1707C54.2103 31.0156 53.6032 30.7179 53.0829 30.2991C53.0316 30.257 52.9657 30.2369 52.8996 30.2434C52.8336 30.2498 52.7728 30.2823 52.7306 30.3335C52.6885 30.3848 52.6684 30.4507 52.6749 30.5168C52.6813 30.5828 52.7138 30.6436 52.7651 30.6858C53.6577 31.4045 54.7696 31.7959 55.9156 31.7949Z" fill="#0A0517"/>
<path id="Vector_12" d="M64.9536 31.9905C65.9666 31.9947 66.954 31.6722 67.7693 31.071C67.8186 31.03 67.8502 30.9716 67.8577 30.9079C67.8651 30.8442 67.8478 30.7801 67.8093 30.7288C67.7708 30.6775 67.7141 30.643 67.6508 30.6324C67.5876 30.6217 67.5227 30.6358 67.4695 30.6717C66.9027 31.0878 66.2411 31.3561 65.5444 31.4521C64.8478 31.5481 64.1382 31.4688 63.48 31.2215C63.449 31.2072 63.4154 31.1994 63.3813 31.1985C63.3472 31.1977 63.3133 31.2039 63.2817 31.2166C63.2501 31.2294 63.2214 31.2485 63.1974 31.2728C63.1734 31.297 63.1547 31.3259 63.1423 31.3577C63.1299 31.3895 63.1242 31.4235 63.1254 31.4576C63.1267 31.4917 63.1349 31.5251 63.1495 31.5559C63.1642 31.5867 63.185 31.6142 63.2107 31.6367C63.2363 31.6591 63.2663 31.6761 63.2988 31.6865C63.8268 31.8895 64.3879 31.9926 64.9536 31.9905Z" fill="#0A0517"/>
<path id="Vector_13" d="M60.3669 35.3911C60.5527 35.392 60.737 35.3582 60.9104 35.2915C61.5269 35.05 61.8977 34.3455 61.7219 33.7512C61.6668 33.5844 61.5732 33.4328 61.4486 33.3089C61.324 33.185 61.1719 33.0923 61.0047 33.0383C60.8602 32.9882 60.7067 32.9694 60.5544 32.9832C60.6731 32.0648 60.7462 31.1347 60.7727 30.2109C60.7707 30.1472 60.7444 30.0866 60.6992 30.0416C60.6541 29.9966 60.5934 29.9706 60.5297 29.9688C60.4659 29.9671 60.4039 29.9897 60.3564 30.0322C60.3088 30.0746 60.2792 30.1336 60.2737 30.1971C60.2428 31.2424 60.153 32.285 60.0046 33.3201C59.9973 33.3689 60.0047 33.4187 60.0258 33.4633C60.0469 33.5079 60.0808 33.5452 60.1231 33.5705C60.1654 33.5958 60.2143 33.608 60.2636 33.6054C60.3128 33.6029 60.3602 33.5858 60.3998 33.5563C60.4649 33.5137 60.5393 33.4874 60.6168 33.4796C60.6942 33.4719 60.7724 33.4829 60.8447 33.5118C60.9364 33.5397 61.0202 33.5887 61.0894 33.6549C61.1586 33.7212 61.2112 33.8028 61.243 33.8932C61.349 34.2428 61.1064 34.6782 60.7292 34.8265C60.3521 34.9748 59.8913 34.8752 59.5353 34.5839C59.5099 34.563 59.4805 34.5474 59.449 34.5378C59.4175 34.5283 59.3845 34.5251 59.3517 34.5283C59.3189 34.5315 59.2871 34.5412 59.2581 34.5567C59.2291 34.5723 59.2034 34.5934 59.1826 34.6188C59.1617 34.6443 59.146 34.6736 59.1365 34.7051C59.127 34.7366 59.1237 34.7697 59.127 34.8025C59.1302 34.8352 59.1399 34.867 59.1554 34.896C59.171 34.9251 59.1921 34.9507 59.2175 34.9716C59.5417 35.2383 59.9472 35.3863 60.3669 35.3911Z" fill="#0A0517"/>
<path id="Vector_14" d="M58.8026 38.0249C58.9985 38.0251 59.1941 38.0088 59.3873 37.9762C59.4204 37.9714 59.4522 37.96 59.4807 37.9428C59.5093 37.9255 59.5342 37.9027 59.5538 37.8757C59.5734 37.8487 59.5875 37.818 59.595 37.7855C59.6026 37.753 59.6036 37.7193 59.5979 37.6864C59.5923 37.6534 59.5801 37.622 59.5621 37.5939C59.5441 37.5658 59.5206 37.5415 59.4931 37.5226C59.4655 37.5037 59.4345 37.4906 59.4018 37.4838C59.3691 37.4771 59.3353 37.477 59.3026 37.4836C58.5382 37.6137 57.753 37.4474 57.1071 37.0184C56.4612 36.5895 56.0033 35.9303 55.8268 35.1753C55.8209 35.1418 55.8083 35.1099 55.7896 35.0815C55.771 35.0531 55.7467 35.0288 55.7184 35.0101C55.69 34.9914 55.6581 34.9787 55.6247 34.9727C55.5913 34.9667 55.5569 34.9676 55.5239 34.9753C55.4908 34.983 55.4596 34.9974 55.4323 35.0175C55.4049 35.0377 55.382 35.0632 55.3648 35.0925C55.3477 35.1219 55.3367 35.1544 55.3325 35.1881C55.3283 35.2218 55.3311 35.256 55.3406 35.2886C55.523 36.0691 55.9647 36.7646 56.5935 37.2616C57.2223 37.7586 58.0011 38.0277 58.8026 38.0249Z" fill="#0A0517"/>
<path id="Vector_15" d="M53.2806 27.6946C53.3896 27.8373 53.5303 27.9527 53.6916 28.0315C54.3707 28.3694 55.2563 28.2434 55.9682 28.1099C57.4005 27.8408 58.0446 26.4902 56.2087 26.2221C55.5646 26.1289 52.9744 26.2296 53.1259 27.327C53.146 27.4605 53.1992 27.5869 53.2806 27.6946Z" fill="#0A0517"/>
<path id="Vector_16" d="M63.439 27.5374C63.489 27.7098 63.5782 27.8682 63.6996 28.0004C64.2102 28.5618 65.0768 28.7663 65.7929 28.8998C67.2262 29.1678 68.3152 28.1423 66.7018 27.2271C66.1361 26.9092 63.6848 26.0618 63.4284 27.1391C63.3985 27.2707 63.4021 27.4077 63.439 27.5374Z" fill="#0A0517"/>
<path id="Vector_17" d="M46.6897 29.9755C46.8832 30.4685 46.9744 30.9958 46.9577 31.5253C46.9344 32.5603 47.0096 33.5169 47.3221 34.5529C47.392 34.7817 47.5011 35.0391 47.731 35.1069C47.8303 35.1271 47.9334 35.1177 48.0275 35.0801C48.1216 35.0425 48.2026 34.9781 48.2607 34.8951C48.3725 34.7259 48.4483 34.5355 48.4832 34.3357C48.9259 32.5242 49.2381 30.6833 49.4175 28.8271C51.2958 28.3155 52.852 26.771 54.3785 25.6353C55.0989 25.0993 61.5631 20.3503 61.2368 19.6924C62.2999 21.8357 63.5841 23.8619 65.0686 25.7381C65.7826 26.6417 66.5517 27.7117 67.4468 28.4394C68.2848 29.1185 68.7297 29.1746 68.6407 30.4522C68.5627 31.5708 68.5609 32.6935 68.6354 33.8124C68.6545 34.0868 68.6799 34.3728 68.8187 34.6112C68.9575 34.8495 69.2425 35.0285 69.5062 34.9586C69.8431 34.8696 69.9734 34.4692 70.0359 34.1281C70.2521 33.0326 70.3726 31.9203 70.3961 30.8039C70.4173 29.8102 71.1377 29.7753 71.4491 29.003C71.7743 28.1788 71.0889 27.4193 70.8643 26.6724C70.3166 24.8377 69.0698 23.112 67.8483 21.6882C66.0177 19.5536 63.6268 17.8926 60.9233 17.2114C57.5397 16.3576 53.6772 17.221 51.0712 19.6479C49.0986 21.4806 46.9693 23.6046 46.1557 26.2445C45.8623 27.1979 45.8379 28.0877 46.2352 28.9596C46.411 29.3229 46.5668 29.6492 46.6897 29.9755Z" fill="#0A0517"/>
<path id="Vector_18" d="M32.2854 89.6315C32.6032 91.3996 33.2303 93.0967 33.8479 94.7831C34.2498 95.8757 34.6495 96.9654 35.0471 98.0523C42.2678 97.3425 49.6007 97.4167 56.87 97.5003C61.7315 97.5554 66.6162 97.6137 71.4098 98.4273C72.8113 98.6656 74.2701 98.8002 75.7129 98.9697C75.6971 98.8552 75.679 98.743 75.66 98.6307C75.5477 97.9675 75.4047 97.2684 75.6335 96.6349C75.7585 96.2874 75.9863 95.9897 76.2108 95.6963C78.5934 92.5871 80.335 88.872 79.9663 84.7925C79.8952 84.1107 79.7863 83.4335 79.64 82.7638C76.3561 80.599 73.6234 77.697 71.6598 74.2891C67.9743 78.2086 63.8205 82.1833 58.5237 83.1611C55.3732 83.7437 52.0499 83.0964 49.231 81.5795C46.412 80.0625 43.6163 77.911 41.9277 75.1916C41.7709 76.145 36.5249 80.0763 35.4656 80.5943C34.6977 80.9687 33.8753 81.219 33.029 81.3358C32.9623 81.5159 32.8988 81.6981 32.8384 81.8803C32.0119 84.3778 31.8219 87.042 32.2854 89.6315Z" fill="#FFF0F4"/>
<path id="Vector_19" d="M71.555 74.6835C71.5878 74.683 71.6202 74.676 71.6503 74.6629C71.6805 74.6498 71.7077 74.6309 71.7305 74.6073C71.7533 74.5837 71.7713 74.5559 71.7833 74.5253C71.7954 74.4948 71.8013 74.4621 71.8007 74.4293C71.7065 69.1421 71.5317 63.7988 71.2838 58.5466C71.2837 58.5128 71.2768 58.4794 71.2635 58.4483C71.2502 58.4173 71.2307 58.3892 71.2063 58.3659C71.1818 58.3426 71.1529 58.3245 71.1212 58.3127C71.0896 58.3009 71.0558 58.2956 71.0221 58.2971C70.9883 58.2987 70.9553 58.3071 70.9249 58.3218C70.8944 58.3366 70.8673 58.3573 70.8452 58.3828C70.823 58.4083 70.8062 58.438 70.7958 58.4702C70.7855 58.5023 70.7817 58.5362 70.7848 58.5699C71.0327 63.8168 71.2086 69.1559 71.3007 74.4378C71.3021 74.504 71.3296 74.567 71.3772 74.613C71.4249 74.6591 71.4887 74.6844 71.555 74.6835Z" fill="#0A0517"/>
<path id="Vector_20" d="M41.891 75.9435C41.9571 75.9435 42.0205 75.9173 42.0674 75.8707C42.1143 75.824 42.1407 75.7607 42.141 75.6946C42.176 69.7262 41.9503 63.6859 41.4694 57.7419C41.464 57.6757 41.4326 57.6144 41.3821 57.5714C41.3315 57.5284 41.2659 57.5072 41.1998 57.5125C41.1336 57.5179 41.0723 57.5493 41.0292 57.5998C40.9862 57.6504 40.9651 57.716 40.9704 57.7821C41.4514 63.7145 41.6759 69.7379 41.641 75.6925C41.6408 75.7253 41.6472 75.7578 41.6596 75.7882C41.6721 75.8186 41.6903 75.8462 41.7135 75.8695C41.7366 75.8929 41.7641 75.9114 41.7943 75.9241C41.8246 75.9368 41.8571 75.9434 41.8899 75.9435H41.891Z" fill="#0A0517"/>
<path id="Vector_21" d="M60.8998 125.12C60.9393 125.12 60.9782 125.11 61.0132 125.091C61.0482 125.073 61.0783 125.047 61.101 125.014C64.2283 120.769 65.4391 115.374 66.5038 110.607C66.5154 110.543 66.5017 110.478 66.4657 110.424C66.4297 110.37 66.3741 110.332 66.3108 110.318C66.2475 110.304 66.1812 110.316 66.1261 110.35C66.071 110.384 66.0314 110.438 66.0154 110.501C64.9561 115.216 63.7601 120.565 60.6953 124.721C60.6679 124.758 60.6513 124.802 60.6474 124.848C60.6436 124.894 60.6526 124.941 60.6734 124.982C60.6943 125.023 60.7262 125.058 60.7656 125.082C60.805 125.106 60.8503 125.119 60.8966 125.119L60.8998 125.12Z" fill="#0A0517"/>
<path id="Vector_22" d="M57.7406 57.2481C57.7897 57.2482 57.8377 57.2337 57.8786 57.2066C57.9195 57.1795 57.9515 57.1408 57.9705 57.0956C59.5872 53.2812 61.0097 49.3874 62.2323 45.429C62.2506 45.366 62.2433 45.2984 62.2122 45.2407C62.1811 45.183 62.1285 45.1398 62.0658 45.1205C62.0031 45.1011 61.9354 45.1072 61.8772 45.1374C61.8189 45.1676 61.7749 45.2194 61.7545 45.2818C60.5369 49.2239 59.1205 53.1018 57.5107 56.9007C57.4946 56.9386 57.4882 56.98 57.492 57.0211C57.4958 57.0622 57.5097 57.1017 57.5324 57.1361C57.5552 57.1705 57.5861 57.1987 57.6224 57.2182C57.6587 57.2378 57.6993 57.2481 57.7406 57.2481Z" fill="#0A0517"/>
<path id="Vector_23" d="M52.4171 51.0421H52.45C52.5151 51.0326 52.5739 50.9978 52.6136 50.9453C52.6533 50.8927 52.6706 50.8266 52.6618 50.7614L51.9203 45.1977C51.916 45.1651 51.9053 45.1337 51.8888 45.1053C51.8724 45.0769 51.8505 45.052 51.8244 45.032C51.7984 45.012 51.7686 44.9974 51.7369 44.9889C51.7052 44.9805 51.6721 44.9783 51.6395 44.9826C51.607 44.9869 51.5756 44.9976 51.5472 45.0141C51.5187 45.0305 51.4938 45.0524 51.4739 45.0785C51.4539 45.1045 51.4393 45.1343 51.4308 45.166C51.4223 45.1977 51.4202 45.2308 51.4245 45.2634L52.166 50.827C52.1745 50.8873 52.2047 50.9424 52.251 50.982C52.2972 51.0216 52.3563 51.0429 52.4171 51.0421Z" fill="#0A0517"/>
<path id="Vector_24" d="M56.4655 32.5109C56.4937 32.5106 56.5216 32.5056 56.5481 32.4961C56.579 32.4853 56.6075 32.4685 56.6319 32.4466C56.6563 32.4248 56.6762 32.3984 56.6903 32.3689C56.7045 32.3393 56.7127 32.3073 56.7145 32.2746C56.7163 32.2419 56.7116 32.2092 56.7007 32.1783C56.6285 31.9714 56.6043 31.7508 56.6297 31.5332C56.6374 31.4673 56.6187 31.401 56.5775 31.349C56.5364 31.2969 56.4763 31.2633 56.4104 31.2556C56.3445 31.2479 56.2783 31.2666 56.2262 31.3078C56.1742 31.3489 56.1406 31.409 56.1328 31.4749C56.0988 31.7684 56.1321 32.0659 56.2303 32.3446C56.2476 32.3932 56.2794 32.4353 56.3215 32.465C56.3636 32.4948 56.4139 32.5108 56.4655 32.5109Z" fill="#0A0517"/>
<path id="Vector_25" d="M54.8584 32.5076C54.9092 32.5076 54.9589 32.4921 55.0008 32.4632C55.0426 32.4342 55.0746 32.3932 55.0925 32.3455L55.3457 31.6718C55.3595 31.6407 55.3668 31.6071 55.3672 31.573C55.3675 31.539 55.3609 31.5052 55.3478 31.4738C55.3347 31.4424 55.3152 31.414 55.2907 31.3903C55.2662 31.3667 55.2371 31.3483 55.2053 31.3363C55.1734 31.3243 55.1394 31.319 55.1054 31.3206C55.0714 31.3222 55.038 31.3307 55.0075 31.3457C54.9769 31.3606 54.9496 31.3817 54.9275 31.4075C54.9053 31.4333 54.8886 31.4634 54.8785 31.4959L54.6253 32.1697C54.6032 32.2311 54.606 32.2988 54.6331 32.3581C54.6603 32.4175 54.7095 32.464 54.7704 32.4875C54.7984 32.4992 54.8281 32.506 54.8584 32.5076Z" fill="#0A0517"/>
<path id="Vector_26" d="M53.2458 31.9121C53.2936 31.9122 53.3403 31.8986 53.3805 31.8729C53.4207 31.8471 53.4526 31.8104 53.4725 31.767L53.7734 31.1145C53.8015 31.0542 53.8045 30.9852 53.7817 30.9228C53.759 30.8603 53.7124 30.8094 53.6521 30.7813C53.5918 30.7532 53.5229 30.7502 53.4604 30.7729C53.3979 30.7957 53.347 30.8423 53.3189 30.9026L53.0191 31.5551C53.0018 31.5932 52.9942 31.6349 52.9972 31.6766C53.0001 31.7183 53.0135 31.7586 53.0361 31.7938C53.0586 31.829 53.0896 31.858 53.1263 31.8781C53.1629 31.8982 53.204 31.9088 53.2458 31.909V31.9121Z" fill="#0A0517"/>
<path id="Vector_27" d="M67.539 32.134C67.5849 32.1342 67.6299 32.1217 67.6692 32.098C67.7084 32.0742 67.7403 32.04 67.7613 31.9992C67.7824 31.9585 67.7917 31.9127 67.7884 31.8669C67.7851 31.8212 67.7691 31.7772 67.7424 31.7399L67.3186 31.1488C67.2792 31.0973 67.2213 31.0632 67.1572 31.0535C67.0931 31.0439 67.0277 31.0596 66.9749 31.0973C66.9221 31.1349 66.886 31.1917 66.8743 31.2554C66.8625 31.3192 66.876 31.385 66.9118 31.4391L67.3356 32.0291C67.3586 32.0616 67.3891 32.0881 67.4245 32.1063C67.4599 32.1246 67.4992 32.1341 67.539 32.134Z" fill="#0A0517"/>
<path id="Vector_28" d="M65.899 32.5907C65.9651 32.5904 66.0284 32.564 66.0751 32.5171C66.1217 32.4703 66.1479 32.4068 66.1479 32.3407V31.7506C66.1501 31.7165 66.1453 31.6823 66.1338 31.6501C66.1223 31.6179 66.1043 31.5884 66.0809 31.5634C66.0575 31.5385 66.0292 31.5186 65.9978 31.505C65.9665 31.4914 65.9326 31.4844 65.8984 31.4844C65.8642 31.4844 65.8304 31.4914 65.799 31.505C65.7676 31.5186 65.7394 31.5385 65.716 31.5634C65.6926 31.5884 65.6746 31.6179 65.6631 31.6501C65.6515 31.6823 65.6467 31.7165 65.6489 31.7506V32.3407C65.6489 32.407 65.6753 32.4706 65.7222 32.5175C65.7691 32.5644 65.8326 32.5907 65.899 32.5907Z" fill="#0A0517"/>
<path id="Vector_29" d="M64.1365 32.8456C64.1886 32.8455 64.2394 32.8291 64.2817 32.7987C64.3241 32.7683 64.3559 32.7254 64.3727 32.6761L64.6291 31.9186C64.6406 31.8873 64.6458 31.8539 64.6443 31.8205C64.6427 31.7872 64.6345 31.7544 64.6201 31.7243C64.6057 31.6941 64.5854 31.6672 64.5604 31.645C64.5354 31.6228 64.5062 31.6059 64.4745 31.5952C64.4429 31.5845 64.4094 31.5802 64.3761 31.5827C64.3427 31.5852 64.3102 31.5943 64.2805 31.6095C64.2508 31.6248 64.2244 31.6458 64.2029 31.6715C64.1814 31.6971 64.1653 31.7267 64.1555 31.7587L63.8991 32.5161C63.8779 32.579 63.8825 32.6478 63.9119 32.7074C63.9413 32.767 63.9931 32.8124 64.0559 32.8339C64.082 32.8419 64.1092 32.8458 64.1365 32.8456Z" fill="#0A0517"/>
<path id="Vector_30" d="M52.9032 35.4545C51.669 35.5954 49.3988 33.9354 50.5154 32.6049C51.2569 31.714 52.8121 32.3082 53.506 32.9364C53.8937 33.2881 54.2073 33.7839 54.1543 34.3019C54.0918 34.9121 53.5123 35.3856 52.9032 35.4545Z" fill="#FFCAD7"/>
<path id="Vector_31" d="M65.6319 35.7943C66.8661 35.9352 69.1363 34.2752 68.0208 32.9447C67.2729 32.0537 65.723 32.648 65.0291 33.2773C64.6414 33.6279 64.3289 34.1248 64.3819 34.6417C64.4433 35.2519 65.0228 35.7223 65.6319 35.7943Z" fill="#FFCAD7"/>
<path id="Vector_32" d="M33.1021 81.4534C33.1636 81.4533 33.223 81.4306 33.2689 81.3896C33.3148 81.3486 33.344 81.2921 33.351 81.231C33.5704 79.2056 33.6412 77.167 33.5629 75.1313C33.5604 75.065 33.5316 75.0024 33.4829 74.9573C33.4342 74.9122 33.3697 74.8883 33.3033 74.8908C33.237 74.8933 33.1744 74.9221 33.1293 74.9708C33.0843 75.0194 33.0603 75.084 33.0629 75.1503C33.1391 77.1617 33.0683 79.1759 32.851 81.1769C32.8473 81.2096 32.8501 81.2426 32.8593 81.2742C32.8685 81.3057 32.8838 81.3352 32.9044 81.3608C32.9249 81.3864 32.9504 81.4076 32.9792 81.4234C33.0081 81.4391 33.0397 81.449 33.0724 81.4524L33.1021 81.4534Z" fill="#0A0517"/>
<path id="Vector_33" d="M43.5576 120.464C39.7348 122.316 35.5492 123.297 31.3018 123.338C27.7709 123.375 23.6278 123.566 22.0228 119.851C16.8722 107.928 31.8198 101.463 40.1835 97.4763L59.2415 88.3914C63.7967 86.2187 68.5692 83.8712 71.4379 79.7154C72.8013 77.7376 73.6764 75.4282 75.2379 73.5998C76.2337 72.4345 77.4742 71.5044 78.703 70.587L84.4342 66.3062C85.4936 65.517 87.1271 64.7776 87.9608 65.8009C88.6579 66.6569 88.0286 67.944 87.2659 68.7427C85.3516 70.7502 82.4723 72.175 81.8631 74.8816C84.2753 75.4028 86.5879 74.1634 88.8634 73.5246C89.7882 73.264 90.7448 73.0214 91.6983 73.1347C92.6517 73.2481 93.6136 73.7937 93.9515 74.692C94.388 75.8498 93.7089 77.2408 94.2587 78.3478C94.5013 78.8351 94.96 79.2069 95.1232 79.7249C95.4749 80.8552 94.2821 82.1 94.7651 83.1816C94.8986 83.4814 95.1454 83.7112 95.3393 83.9793C95.6256 84.3869 95.789 84.8682 95.8103 85.3659C95.8315 85.8636 95.7096 86.357 95.459 86.7876C95.281 87.0821 95.0353 87.3628 95.0109 87.706C94.9728 88.2738 95.5332 88.6743 95.8351 89.1573C96.3468 89.9751 96.0734 91.1065 95.424 91.8195C94.7747 92.5324 93.835 92.9042 92.907 93.1648C89.7586 94.0494 86.4279 93.918 83.2668 94.7613C80.2169 95.5769 77.5462 97.2687 74.8512 98.8694C68.7757 102.484 62.7745 106.267 57.217 110.644C52.8005 114.122 48.6097 118.001 43.5576 120.464Z" fill="#FFD7E2"/>
<path id="Vector_34" d="M31.3026 123.591C35.5868 123.547 39.8084 122.557 43.6653 120.692C47.6454 118.751 51.1381 115.901 54.5154 113.146C55.4476 112.385 56.4116 111.599 57.3703 110.845C63.2519 106.217 69.571 102.306 74.978 99.0863L75.6624 98.6805C78.0767 97.2377 80.5715 95.7451 83.33 95.0078C84.8587 94.5989 86.4626 94.4177 88.0156 94.2429C89.6513 94.0586 91.3431 93.8669 92.9692 93.4103C93.8093 93.1751 94.8676 92.8001 95.6038 91.9918C96.2786 91.2503 96.6462 89.995 96.0414 89.0257C95.9364 88.8661 95.8207 88.7139 95.6949 88.5701C95.4481 88.2735 95.2352 88.0182 95.2553 87.7227C95.2691 87.5235 95.3973 87.3297 95.5329 87.1252C95.5795 87.0553 95.625 86.9864 95.6674 86.9133C95.9429 86.4405 96.077 85.8985 96.0537 85.3517C96.0304 84.8049 95.8508 84.2763 95.536 83.8285C95.4682 83.7364 95.3962 83.6484 95.3242 83.5637C95.1896 83.4169 95.0756 83.2527 94.9852 83.0753C94.7733 82.6039 94.9544 82.0594 95.1451 81.4863C95.3432 80.8899 95.5477 80.2723 95.357 79.6515C95.2511 79.3115 95.0392 79.0392 94.8422 78.7765C94.7039 78.6079 94.5819 78.4267 94.4777 78.2352C94.2203 77.7161 94.2659 77.1091 94.3135 76.465C94.3601 75.8453 94.4078 75.2055 94.1811 74.6027C93.84 73.6959 92.8749 73.0222 91.7234 72.8855C90.7371 72.769 89.7742 73.0063 88.7911 73.2817C88.2232 73.4417 87.6448 73.6408 87.0866 73.8336C85.4837 74.3855 83.8301 74.9555 82.1669 74.6811C82.6468 73.0179 84.0356 71.8675 85.5007 70.6556C86.1816 70.1122 86.831 69.5304 87.4457 68.913C88.3514 67.9596 88.9214 66.5824 88.1533 65.6406C87.2476 64.5283 85.56 65.1502 84.2835 66.1036L78.5491 70.3844C77.3266 71.2975 76.0618 72.2414 75.0437 73.4353C74.1157 74.5232 73.4218 75.7902 72.7502 77.0148C72.2886 77.8921 71.7826 78.7452 71.2342 79.571C68.3273 83.784 63.4447 86.1103 59.1363 88.1634C59.0815 88.1944 59.0404 88.245 59.0213 88.305C59.0022 88.3651 59.0065 88.4301 59.0333 88.4871C59.06 88.5441 59.1073 88.5889 59.1657 88.6126C59.2241 88.6362 59.2893 88.637 59.3482 88.6146C63.4966 86.6379 68.66 84.177 71.6431 79.8549C72.2008 79.0149 72.7156 78.1473 73.1856 77.2553C73.8445 76.0529 74.5257 74.8093 75.4208 73.7595C76.4018 72.608 77.6455 71.681 78.8447 70.7848L84.579 66.504C85.6204 65.7264 87.0791 65.1173 87.7571 65.9563C88.3292 66.6597 87.8048 67.8028 87.076 68.5676C86.4733 69.1713 85.8366 69.74 85.1691 70.271C83.6341 71.5422 82.0472 72.858 81.6022 74.8262C81.5939 74.8599 81.5926 74.895 81.5986 74.9292C81.6045 74.9634 81.6175 74.996 81.6368 75.0249C81.656 75.0538 81.681 75.0783 81.7103 75.097C81.7395 75.1157 81.7724 75.1281 81.8067 75.1334C83.6923 75.5413 85.5007 74.9216 87.2497 74.3156C87.8027 74.1249 88.3737 73.9279 88.9277 73.7732C89.86 73.5116 90.77 73.2849 91.6662 73.3908C92.6344 73.5063 93.4385 74.055 93.715 74.7881C93.9025 75.2881 93.8612 75.8474 93.8209 76.4375C93.7701 77.1197 93.715 77.8252 94.0328 78.4672C94.1506 78.6873 94.2893 78.8955 94.447 79.089C94.6292 79.3284 94.8019 79.5541 94.8813 79.8094C95.0275 80.2776 94.857 80.7935 94.6758 81.3391C94.464 81.981 94.2447 82.6442 94.5339 83.2936C94.6422 83.5123 94.7802 83.7152 94.9439 83.8963C95.0117 83.9789 95.0763 84.0563 95.1345 84.1368C95.3926 84.5044 95.5397 84.9384 95.5585 85.3872C95.5773 85.836 95.4669 86.2807 95.2405 86.6686C95.2013 86.7332 95.16 86.7957 95.1176 86.8593C94.9597 87.0977 94.7807 87.3678 94.7574 87.6994C94.7235 88.193 95.036 88.5691 95.3125 88.8996C95.4231 89.0263 95.5254 89.1601 95.6187 89.3C96.0858 90.0469 95.7702 91.0734 95.2352 91.6613C94.5847 92.3753 93.6112 92.7207 92.8357 92.9325C91.2467 93.3785 89.5761 93.5681 87.9626 93.7493C86.3916 93.9272 84.7687 94.1095 83.205 94.5279C80.3787 95.2832 77.8521 96.7938 75.4092 98.2547L74.7259 98.6636C69.3051 101.887 62.967 105.81 57.0642 110.455C56.1023 111.212 55.1372 112 54.2039 112.762C50.8478 115.5 47.3784 118.33 43.4503 120.246C39.66 122.078 35.5115 123.051 31.3015 123.094C31.2352 123.094 31.1716 123.121 31.1247 123.167C31.0778 123.214 31.0515 123.278 31.0515 123.344C31.0515 123.41 31.0778 123.474 31.1247 123.521C31.1716 123.568 31.2352 123.594 31.3015 123.594L31.3026 123.591Z" fill="#0A0517"/>
<path id="Vector_35" d="M38.9664 74.3522C40.7938 76.3946 42.7896 77.6022 45.0906 79.0408C46.7273 80.0642 48.0896 81.5102 49.6649 82.668C52.005 84.3884 53.6778 87.1279 55.2509 89.5156C57.1472 92.3928 59.0893 95.2389 61.0774 98.0539C65.0627 103.668 69.2642 109.142 73.7432 114.377C75.6924 116.655 77.7401 118.933 80.3345 120.425C82.9289 121.918 86.196 122.553 88.9535 121.379C90.6601 120.652 92.0416 119.295 93.0723 117.751C94.7281 115.276 95.8934 112.733 95.2716 109.813C94.5544 106.423 92.5172 103.48 90.3074 100.815C87.6707 97.6303 84.7368 94.7042 81.5454 92.0761C76.1892 87.6575 70.1784 84.1161 64.7481 79.7877C62.1548 77.7209 59.6134 75.4878 57.6642 72.8151C55.5168 69.8669 54.1079 66.6709 52.5707 63.3869C51.023 60.0775 49.0854 56.748 45.973 54.8338C44.8639 54.1515 43.3627 53.6971 42.3172 54.4736C41.8606 54.8115 41.4845 55.3793 40.9156 55.3719C39.7429 54.4789 37.7449 55.16 37.1485 56.5033C37.0161 56.8031 36.9303 57.1506 36.6686 57.3508C36.1538 57.747 35.4302 57.2183 34.9578 57.515C34.0721 58.0711 34.7067 59.6538 33.4619 59.8635C32.9725 59.9462 32.4714 59.782 31.9788 59.8222C30.839 59.9144 30.5264 61.2417 30.6461 62.1528C31.3284 67.3595 35.7215 70.7218 38.9664 74.3522Z" fill="#FFD7E2"/>
<path id="Vector_36" d="M80.3405 120.682C80.3954 120.682 80.4488 120.663 80.4923 120.63C80.5358 120.596 80.5671 120.55 80.5813 120.497C80.5955 120.443 80.5919 120.387 80.571 120.336C80.5501 120.286 80.513 120.243 80.4655 120.216C77.9135 118.742 75.9219 116.54 73.9399 114.222C69.6621 109.223 65.5243 103.889 61.2868 97.9154C59.38 95.2289 57.4212 92.3591 55.4603 89.3845C55.4226 89.3324 55.3662 89.2969 55.3029 89.2853C55.2396 89.2738 55.1743 89.287 55.1206 89.3223C55.0668 89.3577 55.0288 89.4124 55.0143 89.475C54.9998 89.5377 55.0101 89.6036 55.0429 89.6589C57.0049 92.6388 58.9626 95.5139 60.8768 98.2046C65.1228 104.191 69.2712 109.54 73.5574 114.547C75.5702 116.899 77.5925 119.135 80.2145 120.649C80.2528 120.671 80.2963 120.682 80.3405 120.682Z" fill="#0A0517"/>
<path id="Vector_37" d="M38.9683 74.6058C39.0165 74.6058 39.0637 74.5918 39.1041 74.5656C39.1446 74.5393 39.1766 74.502 39.1963 74.458C39.216 74.414 39.2226 74.3652 39.2152 74.3176C39.2078 74.27 39.1868 74.2255 39.1548 74.1895C38.4905 73.4479 37.767 72.7064 37.0668 71.985C34.2955 69.1364 31.4288 66.1914 30.896 62.1331C30.8324 61.6543 30.896 60.9297 31.2657 60.4678C31.3541 60.3551 31.4652 60.2623 31.5919 60.1955C31.7186 60.1287 31.858 60.0894 32.0009 60.0801C32.2111 60.0705 32.4217 60.08 32.6302 60.1087C32.921 60.1531 33.2166 60.1567 33.5084 60.1193C34.3686 59.9742 34.5126 59.2718 34.6292 58.7146C34.7129 58.3089 34.7923 57.9264 35.0953 57.7358C35.2383 57.6457 35.4555 57.6786 35.7076 57.7167C36.0466 57.7686 36.4682 57.8332 36.8263 57.5578C37.0858 57.3576 37.2013 57.0631 37.3041 56.8035C37.3295 56.7389 37.3549 56.6743 37.3825 56.6118C37.6537 55.9974 38.285 55.4963 39.0298 55.3046C39.6855 55.1361 40.3201 55.2357 40.7692 55.5779C40.8118 55.6106 40.8639 55.6284 40.9176 55.6287C41.4208 55.6287 41.7894 55.294 42.1125 54.9931C42.2262 54.8829 42.3457 54.779 42.4706 54.6817C43.6359 53.8172 45.3499 54.7484 45.8468 55.0546C49.0058 56.9974 50.9063 60.4138 52.3491 63.5007C52.4904 63.7994 52.6292 64.0971 52.7655 64.3937C54.1723 67.4182 55.5008 70.2731 57.468 72.9744C57.5081 73.0251 57.5662 73.0583 57.6303 73.067C57.6943 73.0757 57.7592 73.0593 57.8114 73.0213C57.8636 72.9832 57.899 72.9263 57.9103 72.8627C57.9215 72.7991 57.9076 72.7336 57.8716 72.6799C55.933 70.0199 54.6141 67.1851 53.2189 64.184L52.8015 63.2899C51.3279 60.1362 49.3798 56.6415 46.1084 54.6298C44.5999 53.7028 43.1284 53.5704 42.1729 54.2812C42.0332 54.3897 41.8995 54.5057 41.7725 54.6287C41.515 54.8681 41.2714 55.0948 40.997 55.1266C40.4313 54.7346 39.6749 54.6234 38.9058 54.8215C38.016 55.0503 37.2574 55.6594 36.9259 56.4105C36.8951 56.4794 36.8676 56.5504 36.839 56.6224C36.7532 56.8417 36.6716 57.0461 36.5212 57.1637C36.3326 57.3088 36.0784 57.2696 35.7796 57.2252C35.4809 57.1807 35.126 57.1256 34.8262 57.3141C34.3421 57.6182 34.233 58.1478 34.1366 58.615C34.0147 59.2061 33.9247 59.5441 33.4215 59.6288C33.1748 59.6569 32.9254 59.6519 32.6799 59.614C32.4409 59.5816 32.1994 59.5717 31.9585 59.5843C31.7481 59.5991 31.5432 59.6575 31.3566 59.7558C31.17 59.8541 31.0059 59.9902 30.8748 60.1553C30.4023 60.7411 30.3186 61.5949 30.3981 62.1998C30.9532 66.4287 33.8781 69.4341 36.7066 72.3409C37.4036 73.056 38.124 73.7965 38.7798 74.5295C38.804 74.5549 38.8333 74.5749 38.8658 74.588C38.8983 74.6012 38.9333 74.6072 38.9683 74.6058Z" fill="#0A0517"/>
<path id="Vector_38" d="M86.4411 97.2168C86.475 97.2171 86.5086 97.2104 86.5398 97.1971C86.571 97.1838 86.599 97.1642 86.6223 97.1395C86.645 97.1158 86.6627 97.0879 86.6746 97.0573C86.6864 97.0267 86.6921 96.9941 86.6913 96.9613C86.6905 96.9286 86.6833 96.8963 86.67 96.8663C86.6567 96.8363 86.6376 96.8093 86.6138 96.7867L81.853 92.2591C81.8046 92.2157 81.7411 92.1929 81.6762 92.1955C81.6112 92.1981 81.5498 92.226 81.505 92.2731C81.4602 92.3202 81.4355 92.383 81.4362 92.448C81.4369 92.513 81.4629 92.5752 81.5087 92.6214L86.2695 97.1479C86.3156 97.1923 86.3772 97.217 86.4411 97.2168Z" fill="#0A0517"/>
<path id="Vector_39" d="M44.911 21.9991C43.5709 21.4461 42.7404 20.4948 42.8696 18.8147C42.9861 17.3062 43.3114 15.7129 44.3697 14.6324C45.5847 13.3898 47.6876 13.1408 49.159 14.0667C50.6305 14.9926 51.318 16.9937 50.7248 18.6282C49.9292 20.82 49.1993 23.0404 46.2182 22.3931C45.7718 22.3004 45.3343 22.1686 44.911 21.9991Z" fill="#0A0517"/>
<path id="Vector_40" d="M66.3589 16.0621C67.1556 14.8545 68.2467 14.2188 69.8718 14.6595C71.3316 15.0589 72.838 15.6807 73.6961 16.9233C74.6855 18.3513 74.5319 20.4637 73.3454 21.7328C72.1589 23.0019 70.0614 23.2995 68.5687 22.4076C66.5666 21.2116 64.5252 20.077 65.7244 17.2708C65.8999 16.85 66.1122 16.4455 66.3589 16.0621Z" fill="#0A0517"/>
</g>
</g>
</g>
</g>
</g>
</g>
</svg>
