<svg width="90" height="87" viewBox="0 0 90 87" fill="none" xmlns="http://www.w3.org/2000/svg">
<path d="M45 0.179688L49.5346 4.76636L55.0134 1.26807L58.3763 6.71313L64.5248 4.47865L66.5473 10.5091L73.057 9.65042L73.6378 15.9638L80.1824 16.5241L79.2923 22.8038L85.5436 24.7549L83.2273 30.6861L88.8718 33.9302L85.2453 39.2155L90 43.5898L85.2453 47.9642L88.8718 53.2495L83.2273 56.4936L85.5436 62.4248L79.2923 64.3759L80.1824 70.6556L73.6378 71.2159L73.057 77.5293L66.5473 76.6706L64.5248 82.701L58.3763 80.4666L55.0134 85.9116L49.5346 82.4133L45 87L40.4654 82.4133L34.9866 85.9116L31.6237 80.4666L25.4752 82.701L23.4527 76.6706L16.943 77.5293L16.3622 71.2159L9.81758 70.6556L10.7077 64.3759L4.4564 62.4248L6.77273 56.4936L1.12824 53.2495L4.75466 47.9642L0 43.5898L4.75466 39.2155L1.12824 33.9302L6.77273 30.6861L4.4564 24.7549L10.7077 22.8038L9.81758 16.5241L16.3622 15.9638L16.943 9.65042L23.4527 10.5091L25.4752 4.47865L31.6237 6.71313L34.9866 1.26807L40.4654 4.76636L45 0.179688Z" fill="white"/>
<path fill-rule="evenodd" clip-rule="evenodd" d="M33.03 23.2617L36.4259 26.5375L18.7292 43.6087L36.4259 60.6799L33.03 63.9557L11.9375 43.6087L33.03 23.2617Z" fill="#0A0517"/>
<path d="M42.9159 20.3399L38.7731 17.7156C36.8482 19.8958 37.6433 23.1661 40.3214 25.7501C42.9996 28.334 46.3054 28.8589 48.2304 27.0017C51.6618 23.691 44.8827 18.6038 46.7239 16.8273C47.1842 16.3832 47.9165 16.4438 48.6488 17.1503C49.5695 18.0386 49.6532 19.0076 48.8162 19.815L52.7498 22.3183C54.4445 20.5216 53.8169 17.4531 51.1596 14.8894C48.6698 12.4871 45.8451 12.0228 44.0457 13.7589C40.6144 17.0696 47.1424 22.076 45.3011 23.8525C44.7362 24.3975 43.8156 24.2764 43.0833 23.5699C42.1208 22.6412 42.0371 21.2685 42.9159 20.3399Z" fill="#0A0517"/>
<path d="M45.5535 69.4647L42.8328 73.4608C45.0931 75.3175 48.4835 74.5506 51.1624 71.9673C53.8412 69.384 54.3854 66.1953 52.46 64.3385C49.0277 61.0287 43.7537 67.5676 41.912 65.7916C41.4515 65.3476 41.5143 64.6413 42.2468 63.9349C43.1677 63.0469 44.1722 62.9662 45.0094 63.7734L47.6045 59.9792C45.7419 58.3445 42.5607 58.9499 39.9028 61.5131C37.4123 63.9147 36.931 66.6393 38.7308 68.3749C42.1631 71.6848 47.3534 65.388 49.1951 67.164C49.7602 67.7089 49.6346 68.5969 48.9021 69.3033C47.9394 70.2317 46.5162 70.3124 45.5535 69.4647Z" fill="#0A0517"/>
<path d="M69.9449 53.5223L79.9906 43.835L77.0606 41.0095L70.3934 47.4389L72.2989 36.3984L69.5363 33.7344L59.5703 43.3448L62.4585 46.13L68.9363 39.8832L67.0986 50.7776L69.9449 53.5223Z" fill="#0A0517"/>
<path d="M51.9098 36.8611C54.1695 39.0413 57.3498 39.6873 59.7769 38.6376L57.7683 34.9232C56.8267 35.3875 55.5295 35.1048 54.6717 34.2772C53.5418 33.187 53.5 31.5317 54.5252 30.0984L61.7018 37.0226C61.8901 36.8813 62.1203 36.6996 62.4132 36.417C65.5935 33.3485 65.7609 29.0689 62.8317 26.2427C59.8188 23.3357 55.3412 23.4568 52.1609 26.5253C48.9806 29.5937 48.876 33.934 51.9098 36.8611ZM56.2618 28.544C57.6009 27.8173 59.0864 27.8778 60.0908 28.8468C61.0951 29.8158 61.1578 31.3298 60.3628 32.5007L56.2618 28.544Z" fill="#0A0517"/>
<path d="M62.8127 60.7904C65.0729 58.6107 65.7426 55.543 64.6544 53.2019L60.8035 55.1394C61.2849 56.0476 60.9919 57.2989 60.1338 58.1263C59.0036 59.2162 57.2875 59.2565 55.8016 58.2676L62.9801 51.3452C62.8336 51.1636 62.6452 50.9416 62.3522 50.659C59.1711 47.5914 54.7342 47.4299 51.8042 50.2554C48.7905 53.1616 48.9161 57.4805 52.0972 60.5482C55.2784 63.6158 59.778 63.7167 62.8127 60.7904ZM54.1901 56.5925C53.4366 55.3009 53.4994 53.8679 54.504 52.8992C55.5086 51.9305 57.0782 51.8699 58.2921 52.6368L54.1901 56.5925Z" fill="#0A0517"/>
</svg>
