<svg width="319" height="447" viewBox="0 0 319 447" fill="none" xmlns="http://www.w3.org/2000/svg">
<path d="M263.92 245.182C261.772 245.158 257.763 232.996 257.05 230.768C255.584 226.186 255.462 219.71 260.681 217.771C267.333 215.305 272.946 222.716 276.52 227.393C278.881 230.486 281.024 233.518 283.98 236.053C288.72 240.113 293.21 244.356 295.541 250.385C298.497 258.022 300.95 265.242 304.581 272.631C308.065 279.727 307.69 285.982 308.372 293.572C308.758 297.875 309.169 302.175 309.566 306.477C310.768 319.448 311.969 332.418 313.17 345.387L318.851 406.768C318.851 406.899 318.875 446.203 318.889 446.333H260.809L257.33 327.345L230.039 318.46L233.591 244.834L263.92 245.182Z" fill="#FDAB96"/>
<path d="M272.51 331.478C266.657 331.478 261.087 329.574 255.7 327.714C255.495 327.644 255.327 327.495 255.231 327.3C255.136 327.106 255.122 326.881 255.193 326.677C255.263 326.472 255.412 326.303 255.606 326.208C255.801 326.113 256.025 326.099 256.23 326.169C261.623 328.024 267.215 329.941 272.931 329.841C277.783 329.759 284.082 327.785 287.218 322.498C287.742 321.566 288.212 320.605 288.624 319.618C289.109 318.437 289.683 317.294 290.34 316.199C290.397 316.109 290.472 316.03 290.56 315.969C290.647 315.907 290.747 315.863 290.851 315.84C290.956 315.817 291.064 315.814 291.17 315.833C291.275 315.851 291.376 315.89 291.467 315.948C291.557 316.005 291.636 316.08 291.697 316.168C291.759 316.255 291.803 316.354 291.826 316.459C291.85 316.564 291.852 316.672 291.834 316.778C291.815 316.883 291.776 316.984 291.718 317.075C291.104 318.099 290.568 319.17 290.117 320.276C289.679 321.322 289.179 322.341 288.621 323.327C285.714 328.244 279.714 331.369 272.959 331.486L272.51 331.478Z" fill="#0A0517"/>
<path d="M299.005 300.977C298.819 300.977 298.638 300.914 298.492 300.797C298.347 300.68 298.246 300.517 298.206 300.335C298.167 300.152 298.19 299.962 298.274 299.795C298.357 299.629 298.495 299.496 298.665 299.418C306.677 295.763 306.957 286.223 306.707 282.285C306.7 282.178 306.714 282.07 306.749 281.968C306.783 281.867 306.838 281.773 306.908 281.692C306.979 281.612 307.065 281.546 307.162 281.498C307.258 281.451 307.363 281.423 307.47 281.416C307.577 281.409 307.684 281.423 307.786 281.458C307.888 281.492 307.982 281.546 308.062 281.617C308.143 281.688 308.209 281.774 308.256 281.87C308.304 281.967 308.332 282.071 308.339 282.179C308.91 291.069 305.546 298.067 299.348 300.895C299.241 300.947 299.124 300.975 299.005 300.977Z" fill="#0A0517"/>
<path d="M263.263 0H252.656V400.871H263.263V0Z" fill="#0A0517"/>
<path d="M257.6 318.413C250.178 318.413 242.748 318.315 235.324 318.413C230.948 318.47 227.548 318.802 224.717 314.666C222.449 311.35 221.375 306.322 222.637 302.395C222.96 301.364 223.429 300.385 224.029 299.488C221.916 296.561 219.406 292.977 218.9 289.349C218.394 285.721 219.302 281.734 221.862 279.232C219.487 277.388 218.886 274.16 219.335 271.106C219.784 268.051 221.32 265.296 222.977 262.737C221.753 260.657 220.311 258.386 220.257 255.938C220.192 252.83 222.003 249.917 224.415 248.092C226.828 246.267 229.768 245.373 232.691 244.799C233.368 244.663 232.895 244.799 233.586 244.799H251.669C259.716 244.799 279.061 242.06 281.584 253.858C282.02 255.881 281.348 258.065 280.061 259.645C278.775 261.225 276.937 262.242 275.014 262.762C287.742 267.004 284.486 279.721 275.131 281.669C286.042 286.148 281.201 298.503 271.166 298.313C274.486 299.248 276.333 304.149 275.759 307.695C275.185 311.242 272.596 314.184 269.545 315.816C266.493 317.448 261.04 318.413 257.6 318.413Z" fill="#FDAB96"/>
<path d="M235.333 319.227C235.116 319.227 234.909 319.141 234.756 318.988C234.603 318.835 234.517 318.628 234.517 318.411C234.517 318.195 234.603 317.987 234.756 317.834C234.909 317.681 235.116 317.595 235.333 317.595C240.291 317.53 245.327 317.552 250.201 317.574C252.672 317.584 255.145 317.592 257.62 317.595C261.036 317.595 266.293 316.665 269.173 315.11C272.328 313.402 274.498 310.59 274.982 307.584C275.491 304.405 273.818 299.918 270.973 299.116C270.786 299.061 270.624 298.94 270.517 298.776C270.411 298.612 270.367 298.415 270.393 298.221C270.42 298.027 270.516 297.849 270.663 297.72C270.809 297.591 270.998 297.518 271.194 297.516H271.21C276.337 297.601 279.712 294.253 280.408 290.902C281.147 287.337 279.07 284.177 274.849 282.442C274.688 282.375 274.552 282.259 274.462 282.109C274.371 281.96 274.331 281.786 274.347 281.612C274.364 281.438 274.435 281.274 274.551 281.144C274.667 281.014 274.822 280.924 274.993 280.889C279.238 280.005 282.366 276.638 282.594 272.703C282.828 268.683 279.91 265.265 274.784 263.557C274.616 263.502 274.472 263.394 274.371 263.25C274.27 263.106 274.218 262.933 274.223 262.757C274.228 262.582 274.29 262.412 274.399 262.274C274.509 262.137 274.66 262.038 274.83 261.993C276.19 261.626 278.093 260.837 279.453 259.151C280.65 257.677 281.172 255.724 280.813 254.049C278.781 244.593 264.914 245.15 255.735 245.52C254.248 245.58 252.842 245.634 251.686 245.634H233.603C233.405 245.642 233.206 245.622 233.013 245.577L232.866 245.604C232.759 245.63 232.648 245.634 232.54 245.616C232.432 245.598 232.328 245.558 232.236 245.498C232.143 245.439 232.063 245.362 232.001 245.271C231.94 245.18 231.897 245.078 231.875 244.97C231.854 244.863 231.854 244.752 231.877 244.644C231.899 244.537 231.943 244.435 232.006 244.345C232.069 244.254 232.149 244.178 232.242 244.12C232.335 244.061 232.439 244.022 232.548 244.005C232.837 243.914 233.148 243.914 233.437 244.005H251.686C252.809 244.005 254.134 243.954 255.67 243.891C264.803 243.524 280.09 242.909 282.407 253.709C282.874 255.885 282.244 258.308 280.721 260.182C279.795 261.299 278.633 262.197 277.318 262.811C281.92 264.954 284.468 268.582 284.221 272.801C283.987 276.804 281.264 280.304 277.364 281.873C281.648 284.397 282.624 288.243 282.004 291.237C281.297 294.645 278.325 298.036 273.775 298.931C275.983 301.019 277.079 304.8 276.589 307.846C276.026 311.348 273.543 314.601 269.945 316.548C266.72 318.292 261.188 319.233 257.617 319.233C255.143 319.233 252.667 319.225 250.19 319.211C245.325 319.189 240.293 319.167 235.352 319.233L235.333 319.227Z" fill="#0A0517"/>
<path d="M275.028 263.598H275.009L237.408 262.741C237.301 262.74 237.195 262.718 237.096 262.675C236.998 262.633 236.909 262.572 236.834 262.495C236.759 262.419 236.7 262.328 236.66 262.229C236.62 262.129 236.6 262.023 236.602 261.916C236.603 261.809 236.625 261.703 236.667 261.604C236.71 261.506 236.771 261.417 236.847 261.342C236.924 261.267 237.015 261.208 237.114 261.168C237.214 261.128 237.32 261.108 237.427 261.109H237.446L275.047 261.966C275.264 261.969 275.47 262.057 275.622 262.212C275.773 262.367 275.856 262.575 275.854 262.792C275.851 263.008 275.763 263.214 275.608 263.366C275.453 263.517 275.245 263.6 275.028 263.598Z" fill="#0A0517"/>
<path d="M275.144 282.512H275.106L240.007 280.937C239.79 280.928 239.587 280.832 239.44 280.672C239.294 280.512 239.218 280.301 239.227 280.085C239.237 279.868 239.332 279.665 239.492 279.519C239.652 279.372 239.864 279.296 240.08 279.306L275.179 280.88C275.287 280.883 275.392 280.906 275.49 280.949C275.588 280.992 275.677 281.054 275.751 281.132C275.825 281.209 275.883 281.3 275.922 281.4C275.961 281.5 275.98 281.607 275.978 281.714C275.975 281.821 275.952 281.927 275.909 282.025C275.866 282.123 275.804 282.211 275.726 282.285C275.649 282.36 275.557 282.418 275.458 282.457C275.358 282.495 275.251 282.514 275.144 282.512Z" fill="#0A0517"/>
<path d="M238.09 299.743C237.983 299.744 237.876 299.724 237.777 299.684C237.677 299.644 237.587 299.585 237.51 299.51C237.356 299.358 237.268 299.152 237.266 298.935C237.265 298.828 237.285 298.722 237.325 298.622C237.365 298.523 237.424 298.433 237.499 298.356C237.65 298.201 237.857 298.113 238.073 298.111L271.166 297.516C271.273 297.515 271.379 297.535 271.479 297.575C271.578 297.615 271.668 297.674 271.745 297.749C271.821 297.824 271.883 297.913 271.925 298.012C271.966 298.11 271.989 298.216 271.99 298.323C271.991 298.431 271.971 298.537 271.931 298.636C271.891 298.736 271.832 298.826 271.757 298.903C271.682 298.979 271.592 299.04 271.494 299.082C271.395 299.124 271.289 299.146 271.182 299.147L238.09 299.743Z" fill="#0A0517"/>
<path d="M271.164 248.656C272.839 248.784 274.55 249.037 276.035 249.858C277.52 250.68 278.755 252.162 278.934 253.908C279.122 255.812 278.012 257.653 276.487 258.7C274.961 259.747 273.103 260.109 271.284 260.204C270.993 257.253 271.129 250.729 271.164 248.656Z" fill="#FE5122"/>
<path d="M271.164 284.234C272.839 284.362 274.55 284.615 276.035 285.436C277.52 286.258 278.755 287.74 278.934 289.486C279.122 291.39 278.012 293.231 276.486 294.278C274.961 295.325 273.103 295.687 271.284 295.782C270.993 292.831 271.129 286.307 271.164 284.234Z" fill="#FE5122"/>
<path d="M265.703 300.156C267.381 300.284 269.089 300.537 270.574 301.358C272.059 302.18 273.294 303.662 273.473 305.408C273.664 307.312 272.551 309.153 271.026 310.2C269.5 311.247 267.642 311.609 265.823 311.704C265.532 308.753 265.668 302.229 265.703 300.156Z" fill="#FE5122"/>
<path d="M272.986 266.836C274.598 266.958 276.249 267.206 277.677 267.997C279.105 268.789 280.304 270.216 280.473 271.9C280.652 273.722 279.583 275.506 278.12 276.523C276.657 277.54 274.857 277.883 273.105 277.973C272.812 275.12 272.95 268.835 272.986 266.836Z" fill="#FE5122"/>
<path d="M263.294 160.859V176.598L252.688 170.859V161.806L263.294 160.859Z" fill="#0A0517"/>
<path d="M263.259 20.3984H0L54.5483 94.8856L2.54476 165.898H263.259V20.3984Z" fill="#FE5122"/>
<path d="M77.4323 51.7961C78.2482 57.181 78.9689 60.2949 79.5944 61.138C79.948 61.5188 80.3151 61.9267 80.6958 62.3619C81.0766 62.797 81.267 63.2321 81.267 63.6673C81.267 65.8974 80.6958 67.2708 79.5536 67.7875C78.7105 68.1954 76.3989 68.3994 72.6186 68.3994C69.5726 68.3994 67.5465 68.1002 66.5402 67.5019C65.534 66.8764 65.0309 65.6934 65.0309 63.9528C65.0309 63.5449 65.2756 63.0962 65.7652 62.6066C66.3907 62.0083 66.7578 61.614 66.8666 61.4236C67.2201 60.7165 67.6281 59.0303 68.0904 56.3651C68.4984 54.0806 68.7567 52.3265 68.8655 51.1026C68.8655 50.9939 68.6615 50.6403 68.2536 50.042C67.7369 49.3077 67.3425 48.5734 67.0706 47.8391C66.581 46.9416 65.9963 45.813 65.3164 44.4532C65.0445 44.0996 64.6501 43.7325 64.1334 43.3517C63.2631 42.7262 62.828 42.4135 62.828 42.4135C62.5832 42.2775 62.2432 42.0735 61.8081 41.8016C61.509 41.4752 61.3594 41.0129 61.3594 40.4146C61.3594 39.2995 62.0665 38.47 63.4807 37.9261C64.6229 37.4638 66.0643 37.2462 67.8049 37.2734C70.1981 37.3006 71.8979 37.5862 72.9041 38.1301C73.72 38.5652 74.128 39.2315 74.128 40.129C74.128 40.6729 74.0056 41.0673 73.7608 41.312C73.5161 41.5568 73.2577 41.788 72.9857 42.0055C72.7138 42.2231 72.4962 42.5087 72.333 42.8622C72.197 43.2158 72.1698 43.5965 72.2514 44.0044C72.5778 45.6906 73.2985 46.5337 74.4135 46.5337C74.8215 46.5337 75.3246 46.0442 75.9229 45.0651C76.0589 44.5756 76.2901 44.0044 76.6164 43.3517C76.8612 42.8622 76.9836 42.5359 76.9836 42.3727C76.9836 42.2911 76.9292 42.2231 76.8204 42.1687C76.7388 42.1143 76.562 41.9919 76.2901 41.8016C75.9637 41.4752 75.8005 41.0129 75.8005 40.4146C75.8005 38.3204 77.949 37.2734 82.246 37.2734C85.564 37.2734 87.2229 38.1165 87.2229 39.8026C87.2229 40.3466 87.0869 40.7409 86.815 40.9857C86.5702 41.2304 86.3255 41.448 86.0807 41.6384C85.8631 41.8288 85.428 42.0599 84.7753 42.3319C83.769 42.7126 83.1299 42.9982 82.8579 43.1886C82.6132 43.3789 82.2732 43.7733 81.8381 44.3716C80.2607 46.085 79.2816 47.2 78.9009 47.7167C77.9218 48.9949 77.4323 50.1236 77.4323 51.1026C77.4323 51.293 77.4323 51.5242 77.4323 51.7961Z" fill="white"/>
<path d="M113.149 57.0178C113.149 60.4445 111.857 63.3137 109.273 65.6254C106.826 67.8011 103.875 68.8889 100.421 68.8889C96.5593 68.8889 93.4589 67.366 91.12 64.32C89.0259 61.546 87.9789 58.1601 87.9789 54.1622C87.9789 49.7564 89.0395 45.9082 91.1608 42.6174C93.6085 38.81 96.9128 36.9062 101.074 36.9062C105.099 36.9062 108.213 39.2179 110.416 43.8413C112.238 47.6215 113.149 52.0137 113.149 57.0178ZM104.215 51.6738C104.215 49.8788 103.821 47.8935 103.032 45.7178C102.053 42.9982 100.843 41.6384 99.4013 41.6384C98.5582 41.6384 97.9055 42.2639 97.4432 43.5149C97.0896 44.4668 96.9128 45.4866 96.9128 46.5745C96.9128 48.4238 97.212 50.1508 97.8103 51.7554C98.6262 53.9039 99.8228 54.9781 101.4 54.9781C103.277 54.9781 104.215 53.8767 104.215 51.6738Z" fill="white"/>
<path d="M140.364 48.859C140.364 49.7836 140.378 51.1706 140.405 53.02C140.459 54.8421 140.486 56.2155 140.486 57.1402C140.486 59.7782 139.331 62.2939 137.019 64.6871C134.707 67.0532 132.219 68.2362 129.554 68.2362C124.74 68.2362 121.354 67.3252 119.396 65.503C117.356 63.6265 116.336 60.3493 116.336 55.6716C116.336 54.7741 116.377 53.4279 116.459 51.633C116.567 49.838 116.622 48.4918 116.622 47.5943C116.622 45.609 116.404 44.154 115.969 43.2294C115.752 42.7942 115.33 42.3319 114.705 41.8424C114.242 41.4888 114.011 41.0129 114.011 40.4146C114.011 39.2451 114.786 38.3884 116.336 37.8445C117.397 37.4638 118.662 37.2734 120.13 37.2734C124.59 37.2734 126.82 38.2253 126.82 40.129C126.82 40.7273 126.589 41.2304 126.127 41.6384C125.501 42.1823 125.121 42.6038 124.985 42.903C124.522 43.9908 124.291 45.813 124.291 48.3694L124.25 48.2878C124.278 50.7899 124.522 52.4761 124.985 53.3463C125.692 54.5974 127.201 55.2229 129.513 55.2229C131.471 55.2229 132.79 54.8149 133.47 53.999C134.177 53.1832 134.531 51.769 134.531 49.7564C134.531 47.6895 134.449 46.0714 134.286 44.9019C134.095 43.4877 133.619 42.5495 132.858 42.0871C132.178 41.7064 131.838 41.1489 131.838 40.4146C131.838 38.3204 133.987 37.2734 138.284 37.2734C139.399 37.2734 140.378 37.4502 141.221 37.8037C142.336 38.2933 142.893 39.0275 142.893 40.0066C142.893 40.6049 142.662 41.1081 142.2 41.516C141.602 42.0327 141.234 42.4407 141.098 42.7398C140.609 43.9365 140.364 45.9762 140.364 48.859Z" fill="white"/>
<path d="M186.339 64.2384C186.23 65.8158 185.088 66.9308 182.913 67.5835C181.498 68.0459 179.771 68.277 177.732 68.277C175.692 68.277 174.223 68.1002 173.326 67.7467C171.83 67.1756 171.082 66.0605 171.082 64.4016C171.082 63.7761 171.177 63.069 171.368 62.2803C172.592 61.0564 173.203 59.1799 173.203 56.6507C173.203 55.7804 172.605 55.1141 171.409 54.6517C170.511 54.2982 169.532 54.1214 168.471 54.1214C168.471 54.1214 168.091 54.1894 167.329 54.3254C166.323 54.9237 165.82 56.0659 165.82 57.7521C165.82 58.9759 166.078 60.0366 166.595 60.9341C166.812 61.2604 167.316 61.8451 168.104 62.6882C168.621 63.2593 168.879 63.7897 168.879 64.2792C168.879 66.1557 167.9 67.366 165.942 67.9099C164.99 68.1818 163.263 68.3178 160.761 68.3178C157.008 68.3178 155.132 67.3796 155.132 65.503C155.104 63.844 155.825 62.4978 157.294 61.4644C159.007 60.2406 160.516 57.6161 161.822 53.5911C162.937 50.0828 163.494 47.0232 163.494 44.4124C163.494 43.4061 163.318 42.5631 162.964 41.8831C162.774 41.5024 162.461 41.1081 162.026 40.7001C161.672 40.3738 161.496 40.129 161.496 39.9658C161.496 39.0683 162.951 38.2933 165.861 37.6405C168.335 37.0966 170.144 36.8791 171.286 36.9878C173.217 37.1782 174.686 37.7629 175.692 38.742C176.154 39.2043 176.834 40.265 177.732 41.9239C178.004 42.4679 178.344 43.5285 178.751 45.1059C180.329 51.3882 181.92 56.1203 183.524 59.3023C183.742 59.7646 184.15 60.2406 184.748 60.7301C185.347 61.1924 185.741 61.5732 185.931 61.8723C186.258 62.4434 186.394 63.2321 186.339 64.2384ZM171.898 48.5734C171.898 48.3558 171.653 47.6351 171.164 46.4113C170.701 45.2963 170.09 44.7387 169.328 44.7387C168.866 44.7387 168.376 45.3235 167.859 46.4929C167.424 47.4992 167.207 48.2742 167.207 48.8182C167.207 49.0629 167.56 49.1853 168.267 49.1853C168.431 49.1853 168.703 49.1717 169.083 49.1445C169.464 49.0901 169.736 49.0629 169.899 49.0629C170.443 49.0629 170.783 49.1037 170.919 49.1853C171.572 49.1309 171.898 48.927 171.898 48.5734Z" fill="white"/>
<path d="M199.23 41.4752C198.876 41.4752 198.55 41.6112 198.251 41.8831C197.979 42.1279 197.87 42.4271 197.924 42.7806L198.251 46.9824C198.305 47.6895 198.55 48.0431 198.985 48.0431C199.801 48.0431 200.454 47.6487 200.943 46.86C201.378 46.1529 201.596 45.3643 201.596 44.494C201.596 42.4815 200.807 41.4752 199.23 41.4752ZM199.108 54.1214C199.679 57.9833 200.263 60.3221 200.862 61.138C201.215 61.5188 201.582 61.9267 201.963 62.3619C202.344 62.797 202.534 63.2321 202.534 63.6673C202.534 65.8974 201.977 67.2708 200.862 67.7875C199.991 68.1954 197.666 68.3994 193.886 68.3994C190.785 68.3994 188.719 68.1138 187.685 67.5427C186.679 66.9444 186.217 65.7478 186.298 63.9528C186.325 63.5449 186.584 63.0962 187.073 62.6066C187.672 62.0083 188.025 61.614 188.134 61.4236C188.515 60.6621 188.977 58.6904 189.521 55.5084C190.01 52.6528 190.378 49.9468 190.622 47.3904C190.541 44.6164 190.174 42.9574 189.521 42.4135C189.276 42.2775 188.936 42.0735 188.501 41.8016C188.175 41.4752 188.011 41.0129 188.011 40.4146C188.011 39.2995 188.719 38.47 190.133 37.9261C191.275 37.4638 192.716 37.2462 194.457 37.2734C195.082 37.3006 195.654 37.3278 196.17 37.355C198.591 37.2462 200.114 37.1918 200.739 37.1918C202.997 37.1918 204.982 37.6405 206.695 38.538C208.817 39.6259 209.877 41.2032 209.877 43.2702C209.877 45.8538 208.49 47.9071 205.716 49.4301C205.988 50.2732 206.573 50.8987 207.47 51.3066C208.803 51.9049 209.483 52.2041 209.51 52.2041C210.625 53.1288 211.455 54.0942 211.998 55.1005C212.488 55.998 212.896 57.2082 213.222 58.7312C213.685 60.9885 214.378 62.9058 215.303 64.4832C215.357 64.5919 215.711 64.9863 216.363 65.6662C216.853 66.1829 217.098 66.6181 217.098 66.9716C217.098 67.2436 216.867 67.5155 216.404 67.7875C216.078 67.9779 215.752 68.1818 215.425 68.3994C214.936 68.4266 214.133 68.5354 213.018 68.7258C212.094 68.8889 211.305 68.9705 210.652 68.9705C207.824 68.9705 205.879 67.8555 204.819 65.6254C204.302 64.5376 203.812 62.2395 203.35 58.7312C202.942 55.794 202.249 53.8903 201.27 53.02C200.943 52.748 200.549 52.6664 200.087 52.7752C199.325 52.9656 198.999 53.4143 199.108 54.1214Z" fill="white"/>
<path d="M221.183 45.1059C221.02 43.6917 220.693 42.7942 220.204 42.4135C219.959 42.2775 219.619 42.0735 219.184 41.8016C218.858 41.4752 218.694 41.0129 218.694 40.4146C218.694 39.2995 219.402 38.47 220.816 37.9261C221.985 37.4638 223.427 37.2462 225.14 37.2734C225.466 37.2734 225.956 37.3006 226.609 37.355C227.288 37.4094 227.805 37.4366 228.159 37.4366C229.083 37.4366 230.593 37.3686 232.687 37.2326C234.781 37.0966 236.263 37.0286 237.133 37.0286C238.303 37.0286 239.214 37.7629 239.867 39.2315C240.356 40.3738 240.601 41.6112 240.601 42.9438C240.601 43.7869 240.438 44.494 240.111 45.0651C239.676 45.7722 239.078 46.1257 238.316 46.1257C237.582 46.1257 236.957 45.7858 236.44 45.1059C235.678 44.0996 235.094 43.4605 234.686 43.1886C233.68 42.4815 232.197 42.1279 230.239 42.1279C229.668 42.1279 229.369 42.1279 229.342 42.1279C229.07 42.2367 228.879 42.5631 228.771 43.107C228.716 43.2973 228.689 43.4877 228.689 43.6781C228.689 44.5756 229.138 45.3099 230.035 45.881C230.824 46.3705 231.762 46.6153 232.85 46.6153C233.068 46.6153 233.326 46.4657 233.625 46.1665C233.952 45.8674 234.223 45.7178 234.441 45.7178C234.849 45.7178 235.053 46.017 235.053 46.6153C235.053 47.5671 234.931 48.4782 234.686 49.3485C234.332 50.5723 233.816 51.1842 233.136 51.1842C232.7 51.1842 232.279 50.8443 231.871 50.1644C231.49 49.4845 230.919 49.1445 230.158 49.1445C229.287 49.1445 228.852 49.8652 228.852 51.3066C228.852 54.7061 230.824 56.4059 234.767 56.4059C234.931 56.4059 235.189 56.3651 235.542 56.2835C235.896 56.2019 236.168 56.1883 236.358 56.2427C236.549 56.2699 236.712 56.2835 236.848 56.2835C237.528 56.2835 238.085 55.9572 238.52 55.3045C238.983 54.6517 239.35 54.3254 239.622 54.3254C240.03 54.3254 240.383 54.5974 240.683 55.1413C240.982 55.6852 241.131 56.1883 241.131 56.6507C241.131 56.9226 241.158 57.6297 241.213 58.772C241.294 59.887 241.335 60.8117 241.335 61.546C241.335 64.8639 240.655 67.0124 239.296 67.9915C238.779 68.345 237.052 68.5218 234.115 68.5218C233.299 68.5218 232.184 68.5354 230.77 68.5626C229.6 68.5898 228.458 68.5898 227.343 68.5626L219.674 68.5218C218.287 68.4946 217.593 67.8283 217.593 66.5229C217.593 66.0061 217.797 65.5438 218.205 65.1359C218.885 64.456 219.266 64.0344 219.347 63.8712L220.122 62.6474C220.503 62.0219 220.734 60.4717 220.816 57.9969L221.142 47.472C221.197 46.5745 221.21 45.7858 221.183 45.1059Z" fill="white"/>
<path d="M76.6253 82.9629C75.9454 82.9629 75.6055 83.4253 75.6055 84.35C75.6055 86.2809 75.6327 87.5455 75.6871 88.1438C75.7143 88.4702 75.7279 88.7965 75.7279 89.1229C75.7551 89.4492 75.9318 89.694 76.2582 89.8572C76.3126 89.8844 76.4622 89.9116 76.7069 89.9388C77.6044 89.9388 78.3115 89.5308 78.8282 88.7149C79.2906 87.9806 79.5217 87.1512 79.5217 86.2265C79.5217 84.0508 78.5563 82.9629 76.6253 82.9629ZM76.8701 95.3236C77.5772 99.5662 78.1891 102.041 78.7059 102.748C79.0594 103.129 79.4266 103.537 79.8073 103.972C80.188 104.407 80.3784 104.842 80.3784 105.277C80.3784 106.964 80.1065 108.119 79.5625 108.745C79.0186 109.37 77.9716 109.751 76.4214 109.887C75.6327 110.105 74.5856 110.214 73.2802 110.214C71.9748 110.214 70.4926 110.105 68.8336 109.887C66.9843 109.697 65.7333 109.289 65.0806 108.663C64.4551 108.038 64.1423 107.004 64.1423 105.563C64.1423 105.155 64.3871 104.706 64.8766 104.217C65.5021 103.618 65.8693 103.224 65.978 103.034C66.7667 101.456 67.5554 97.1186 68.3441 90.0204V87.3279C68.3713 85.6962 68.0314 84.5947 67.3243 84.0236C67.0795 83.8876 66.7395 83.6836 66.3044 83.4117C65.978 83.0853 65.8149 82.623 65.8149 82.0247C65.8149 80.9096 66.522 80.0802 67.9362 79.5362C69.1056 79.0739 70.547 78.8563 72.2604 78.8835C72.7499 78.9107 72.9403 78.9243 72.8315 78.9243C73.049 78.8971 73.3618 78.8835 73.7697 78.8835C73.9329 78.8563 74.6128 78.7883 75.8095 78.6796C76.6253 78.6252 77.4548 78.6116 78.2979 78.6388C84.5802 78.8835 87.7214 81.5895 87.7214 86.7568C87.7214 89.6668 86.9871 91.6929 85.5185 92.8352C84.5938 93.5695 83.0572 94.059 80.9087 94.3038C78.7602 94.5213 77.414 94.8613 76.8701 95.3236Z" fill="white"/>
<path d="M119.212 105.849C119.103 107.426 117.961 108.541 115.785 109.194C114.371 109.656 112.644 109.887 110.604 109.887C108.565 109.887 107.096 109.71 106.199 109.357C104.703 108.786 103.955 107.671 103.955 106.012C103.955 105.386 104.05 104.679 104.24 103.89C105.464 102.667 106.076 100.79 106.076 98.2608C106.076 97.3905 105.478 96.7242 104.281 96.2619C103.384 95.9083 102.405 95.7316 101.344 95.7316C101.344 95.7316 100.963 95.7995 100.202 95.9355C99.1956 96.5338 98.6925 97.6761 98.6925 99.3622C98.6925 100.586 98.9508 101.647 99.4676 102.544C99.6851 102.871 100.188 103.455 100.977 104.298C101.494 104.869 101.752 105.4 101.752 105.889C101.752 107.766 100.773 108.976 98.8149 109.52C97.863 109.792 96.136 109.928 93.634 109.928C89.8809 109.928 88.0044 108.99 88.0044 107.113C87.9772 105.454 88.6979 104.108 90.1665 103.075C91.8798 101.851 93.3892 99.2263 94.6946 95.2012C95.8097 91.6929 96.3672 88.6334 96.3672 86.0225C96.3672 85.0163 96.1904 84.1732 95.8369 83.4933C95.6465 83.1125 95.3338 82.7182 94.8986 82.3102C94.5451 81.9839 94.3683 81.7391 94.3683 81.5759C94.3683 80.6785 95.8233 79.9034 98.7333 79.2507C101.208 78.7068 103.017 78.4892 104.159 78.598C106.09 78.7883 107.558 79.3731 108.565 80.3521C109.027 80.8145 109.707 81.8751 110.604 83.5341C110.876 84.078 111.216 85.1386 111.624 86.716C113.202 92.9983 114.793 97.7305 116.397 100.912C116.615 101.375 117.023 101.851 117.621 102.34C118.219 102.803 118.614 103.183 118.804 103.482C119.13 104.054 119.266 104.842 119.212 105.849ZM104.771 90.1835C104.771 89.966 104.526 89.2453 104.037 88.0214C103.574 86.9064 102.962 86.3489 102.201 86.3489C101.738 86.3489 101.249 86.9336 100.732 88.103C100.297 89.1093 100.079 89.8844 100.079 90.4283C100.079 90.6731 100.433 90.7954 101.14 90.7954C101.303 90.7954 101.575 90.7818 101.956 90.7547C102.337 90.7003 102.609 90.6731 102.772 90.6731C103.316 90.6731 103.656 90.7139 103.792 90.7954C104.444 90.7411 104.771 90.5371 104.771 90.1835Z" fill="white"/>
<path d="M126.759 98.8319C128.635 98.8319 129.573 97.9344 129.573 96.1395C129.573 95.5412 128.948 94.7117 127.697 93.651C125.82 92.0193 124.692 90.9858 124.311 90.5507C123.06 89.1637 122.434 87.7767 122.434 86.3897C122.434 83.9148 123.427 81.9567 125.412 80.5153C127.18 79.2371 129.342 78.598 131.899 78.598C132.715 78.598 133.884 78.7475 135.407 79.0467C136.957 79.3459 138.154 79.4954 138.997 79.4954C140.465 79.4954 141.2 81.1816 141.2 84.5539C141.2 86.4849 140.438 87.4503 138.915 87.4503C137.855 87.4503 136.835 86.6752 135.856 85.125C134.904 83.5749 133.979 82.7998 133.082 82.7998C131.096 82.7998 130.104 83.5205 130.104 84.9619C130.104 85.805 131.219 86.7568 133.449 87.8175C136.468 89.2317 138.521 90.4147 139.609 91.3666C141.839 93.2975 142.954 95.7723 142.954 98.7911C142.954 102.082 141.88 104.788 139.731 106.909C137.61 109.03 134.917 110.091 131.654 110.091C128.309 110.091 125.589 109.275 123.495 107.643C121.183 105.876 120.028 103.36 120.028 100.097C120.028 98.4648 120.871 97.6489 122.557 97.6489C123.101 97.6489 123.658 97.8529 124.229 98.2608C124.828 98.6415 125.671 98.8319 126.759 98.8319Z" fill="white"/>
<path d="M150.223 98.8319C152.1 98.8319 153.038 97.9344 153.038 96.1395C153.038 95.5412 152.413 94.7117 151.162 93.651C149.285 92.0193 148.156 90.9858 147.776 90.5507C146.525 89.1637 145.899 87.7767 145.899 86.3897C145.899 83.9148 146.892 81.9567 148.877 80.5153C150.645 79.2371 152.807 78.598 155.363 78.598C156.179 78.598 157.349 78.7475 158.872 79.0467C160.422 79.3459 161.618 79.4954 162.462 79.4954C163.93 79.4954 164.664 81.1816 164.664 84.5539C164.664 86.4849 163.903 87.4503 162.38 87.4503C161.319 87.4503 160.299 86.6752 159.32 85.125C158.369 83.5749 157.444 82.7998 156.546 82.7998C154.561 82.7998 153.568 83.5205 153.568 84.9619C153.568 85.805 154.683 86.7568 156.914 87.8175C159.932 89.2317 161.986 90.4147 163.073 91.3666C165.304 93.2975 166.419 95.7723 166.419 98.7911C166.419 102.082 165.344 104.788 163.196 106.909C161.075 109.03 158.382 110.091 155.119 110.091C151.773 110.091 149.054 109.275 146.96 107.643C144.648 105.876 143.492 103.36 143.492 100.097C143.492 98.4648 144.335 97.6489 146.021 97.6489C146.565 97.6489 147.123 97.8529 147.694 98.2608C148.292 98.6415 149.135 98.8319 150.223 98.8319Z" fill="white"/>
<path d="M171.363 89.0005C171.335 86.2537 170.968 84.5947 170.261 84.0236C170.016 83.8876 169.676 83.6836 169.241 83.4117C168.915 83.0853 168.752 82.623 168.752 82.0247C168.752 80.9096 169.459 80.0802 170.873 79.5362C172.043 79.0739 173.484 78.8563 175.197 78.8835C177.618 78.9107 179.318 79.1963 180.297 79.7402C181.14 80.1753 181.561 80.8417 181.561 81.7391C181.561 82.283 181.425 82.6774 181.153 82.9222C180.908 83.1669 180.65 83.3981 180.378 83.6157C180.106 83.8332 179.902 84.1324 179.766 84.5131C179.277 85.7098 179.032 87.5319 179.032 89.9796V90.1835C179.277 92.5224 179.657 94.9837 180.174 97.5673C180.718 100.477 181.194 102.204 181.602 102.748C181.956 103.129 182.323 103.537 182.703 103.972C183.111 104.407 183.315 104.842 183.315 105.277C183.315 107.507 182.744 108.881 181.602 109.398C180.732 109.806 178.406 110.01 174.626 110.01C171.58 110.01 169.554 109.71 168.548 109.112C167.542 108.487 167.038 107.304 167.038 105.563C167.038 105.155 167.297 104.706 167.814 104.217C168.439 103.618 168.793 103.224 168.874 103.034C169.255 102.272 169.717 100.301 170.261 97.1186C170.751 94.263 171.118 91.5569 171.363 89.0005Z" fill="white"/>
<path d="M210.434 98.6279C210.434 102.055 209.142 104.924 206.558 107.236C204.111 109.411 201.16 110.499 197.706 110.499C193.844 110.499 190.744 108.976 188.405 105.93C186.311 103.156 185.264 99.7702 185.264 95.7723C185.264 91.3666 186.324 87.5183 188.446 84.2276C190.893 80.4201 194.198 78.5164 198.359 78.5164C202.384 78.5164 205.498 80.8281 207.7 85.4514C209.523 89.2317 210.434 93.6238 210.434 98.6279ZM201.5 93.2839C201.5 91.4889 201.105 89.5036 200.317 87.3279C199.338 84.6083 198.127 83.2485 196.686 83.2485C195.843 83.2485 195.19 83.874 194.728 85.125C194.374 86.0769 194.198 87.0968 194.198 88.1846C194.198 90.034 194.497 91.7609 195.095 93.3655C195.911 95.514 197.108 96.5882 198.685 96.5882C200.561 96.5882 201.5 95.4868 201.5 93.2839Z" fill="white"/>
<path d="M224.105 95.7723C224.105 96.4522 224.35 97.7033 224.839 99.5254C225.356 101.32 225.75 102.408 226.022 102.789C226.322 103.17 226.634 103.55 226.961 103.931C227.369 104.394 227.613 104.842 227.695 105.277C227.777 105.821 227.817 106.311 227.817 106.746C227.817 107.943 227.382 108.786 226.512 109.275C225.805 109.656 224.54 109.887 222.718 109.969C221.875 110.078 220.039 110.132 217.211 110.132C216.123 110.132 215.008 109.914 213.866 109.479C212.86 109.126 212.193 108.623 211.867 107.97C211.568 107.507 211.418 106.964 211.418 106.338C211.418 106.229 211.418 106.12 211.418 106.012C211.418 105.876 211.418 105.726 211.418 105.563C211.418 105.209 211.595 104.842 211.948 104.462C212.248 104.162 212.56 103.85 212.887 103.523C213.703 100.423 214.287 97.5401 214.641 94.8749C214.94 92.7264 215.144 90.7683 215.253 89.0005C215.416 86.4169 215.049 84.7579 214.151 84.0236C213.907 83.8876 213.567 83.6836 213.131 83.4117C212.805 83.0853 212.642 82.623 212.642 82.0247C212.642 80.9096 213.349 80.0802 214.763 79.5362C215.905 79.0739 217.347 78.8563 219.087 78.8835C222.052 78.9379 223.956 79.3595 224.799 80.1481C226.077 80.9912 227.233 83.0037 228.266 86.1857C229.408 89.6124 230.523 91.8561 231.611 92.9167C231.883 93.1615 232.182 93.2295 232.509 93.1207C232.835 92.7128 232.998 92.1145 232.998 91.3258C232.998 91.0266 232.957 90.5643 232.876 89.9388C232.876 89.8844 232.876 89.8164 232.876 89.7348L232.835 89.6532C232.754 89.0005 232.658 88.307 232.55 87.5727C232.087 86.0497 231.339 84.8667 230.306 84.0236C230.061 83.8876 229.721 83.6836 229.286 83.4117C228.987 83.0853 228.837 82.623 228.837 82.0247C228.837 80.9096 229.544 80.0802 230.959 79.5362C232.101 79.0739 233.542 78.8563 235.283 78.8835C237.676 78.9107 239.376 79.1963 240.382 79.7402C241.198 80.1753 241.606 80.8417 241.606 81.7391C241.606 82.283 241.483 82.6774 241.239 82.9222C240.994 83.1669 240.736 83.3981 240.464 83.6157C240.192 83.8332 239.974 84.1324 239.811 84.5131C239.485 85.0843 239.158 85.669 238.832 86.2673C238.342 87.2735 238.098 88.4022 238.098 89.6532C238.098 89.5988 238.098 89.7756 238.098 90.1835C238.152 91.6793 238.573 93.9366 239.362 96.9554C240.096 99.8382 240.464 102.082 240.464 103.686C240.464 105.808 240.287 107.276 239.933 108.092C239.362 109.37 238.179 110.01 236.384 110.01C234.399 110.01 232.604 108.718 230.999 106.134C230.591 105.454 229.476 103.061 227.654 98.9543C226.512 96.3707 225.479 95.0788 224.554 95.0788C224.255 95.0788 224.105 95.31 224.105 95.7723Z" fill="white"/>
<path d="M94.8314 124.573C94.1515 124.573 93.8115 125.035 93.8115 125.96C93.8115 127.891 93.8387 129.156 93.8931 129.754C93.9203 130.08 93.9339 130.407 93.9339 130.733C93.9611 131.059 94.1379 131.304 94.4642 131.467C94.5186 131.495 94.6682 131.522 94.913 131.549C95.8104 131.549 96.5175 131.141 97.0343 130.325C97.4966 129.591 97.7278 128.761 97.7278 127.837C97.7278 125.661 96.7623 124.573 94.8314 124.573ZM95.0761 136.934C95.7832 141.176 96.3951 143.651 96.9119 144.358C97.2654 144.739 97.6326 145.147 98.0133 145.582C98.3941 146.017 98.5844 146.452 98.5844 146.888C98.5844 148.574 98.3125 149.73 97.7685 150.355C97.2246 150.981 96.1776 151.361 94.6274 151.497C93.8387 151.715 92.7917 151.824 91.4862 151.824C90.1808 151.824 88.6986 151.715 87.0397 151.497C85.1903 151.307 83.9393 150.899 83.2866 150.273C82.6611 149.648 82.3483 148.614 82.3483 147.173C82.3483 146.765 82.5931 146.316 83.0826 145.827C83.7081 145.229 84.0753 144.834 84.1841 144.644C84.9728 143.066 85.7614 138.729 86.5501 131.63V128.938C86.5773 127.306 86.2374 126.205 85.5303 125.634C85.2855 125.498 84.9456 125.294 84.5104 125.022C84.1841 124.695 84.0209 124.233 84.0209 123.635C84.0209 122.52 84.728 121.69 86.1422 121.146C87.3116 120.684 88.753 120.466 90.4664 120.494C90.9559 120.521 91.1463 120.534 91.0375 120.534C91.2551 120.507 91.5678 120.494 91.9758 120.494C92.1389 120.466 92.8188 120.398 94.0155 120.29C94.8314 120.235 95.6608 120.222 96.5039 120.249C102.786 120.494 105.927 123.2 105.927 128.367C105.927 131.277 105.193 133.303 103.725 134.445C102.8 135.18 101.263 135.669 99.1148 135.914C96.9663 136.131 95.6201 136.471 95.0761 136.934Z" fill="white"/>
<path d="M109.596 128.326C109.433 126.912 109.107 126.014 108.617 125.634C108.373 125.498 108.033 125.294 107.597 125.022C107.271 124.695 107.108 124.233 107.108 123.635C107.108 122.52 107.815 121.69 109.229 121.146C110.399 120.684 111.84 120.466 113.553 120.494C113.88 120.494 114.369 120.521 115.022 120.575C115.702 120.63 116.219 120.657 116.572 120.657C117.497 120.657 119.006 120.589 121.1 120.453C123.194 120.317 124.677 120.249 125.547 120.249C126.716 120.249 127.627 120.983 128.28 122.452C128.77 123.594 129.014 124.831 129.014 126.164C129.014 127.007 128.851 127.714 128.525 128.285C128.09 128.992 127.491 129.346 126.73 129.346C125.996 129.346 125.37 129.006 124.853 128.326C124.092 127.32 123.507 126.681 123.099 126.409C122.093 125.702 120.611 125.348 118.653 125.348C118.082 125.348 117.782 125.348 117.755 125.348C117.483 125.457 117.293 125.783 117.184 126.327C117.13 126.518 117.102 126.708 117.102 126.898C117.102 127.796 117.551 128.53 118.449 129.101C119.237 129.591 120.176 129.836 121.263 129.836C121.481 129.836 121.739 129.686 122.039 129.387C122.365 129.088 122.637 128.938 122.854 128.938C123.262 128.938 123.466 129.237 123.466 129.836C123.466 130.787 123.344 131.698 123.099 132.569C122.746 133.793 122.229 134.404 121.549 134.404C121.114 134.404 120.692 134.065 120.284 133.385C119.904 132.705 119.333 132.365 118.571 132.365C117.701 132.365 117.266 133.085 117.266 134.527C117.266 137.926 119.237 139.626 123.181 139.626C123.344 139.626 123.602 139.585 123.956 139.504C124.309 139.422 124.581 139.409 124.772 139.463C124.962 139.49 125.125 139.504 125.261 139.504C125.941 139.504 126.499 139.177 126.934 138.525C127.396 137.872 127.763 137.546 128.035 137.546C128.443 137.546 128.797 137.818 129.096 138.362C129.395 138.905 129.545 139.409 129.545 139.871C129.545 140.143 129.572 140.85 129.626 141.992C129.708 143.107 129.749 144.032 129.749 144.766C129.749 148.084 129.069 150.233 127.709 151.212C127.192 151.565 125.465 151.742 122.528 151.742C121.712 151.742 120.597 151.756 119.183 151.783C118.014 151.81 116.871 151.81 115.756 151.783L108.087 151.742C106.7 151.715 106.006 151.049 106.006 149.743C106.006 149.226 106.21 148.764 106.618 148.356C107.298 147.676 107.679 147.255 107.761 147.092L108.536 145.868C108.916 145.242 109.148 143.692 109.229 141.217L109.556 130.692C109.61 129.795 109.624 129.006 109.596 128.326Z" fill="white"/>
<path d="M142.62 124.695C142.266 124.695 141.94 124.831 141.641 125.103C141.369 125.348 141.26 125.647 141.314 126.001L141.641 130.203C141.695 130.91 141.94 131.263 142.375 131.263C143.191 131.263 143.844 130.869 144.333 130.08C144.768 129.373 144.986 128.585 144.986 127.714C144.986 125.702 144.197 124.695 142.62 124.695ZM142.498 137.342C143.069 141.204 143.653 143.542 144.252 144.358C144.605 144.739 144.972 145.147 145.353 145.582C145.734 146.017 145.924 146.452 145.924 146.888C145.924 149.118 145.367 150.491 144.252 151.008C143.381 151.416 141.056 151.62 137.276 151.62C134.175 151.62 132.109 151.334 131.075 150.763C130.069 150.165 129.607 148.968 129.688 147.173C129.715 146.765 129.974 146.316 130.463 145.827C131.062 145.229 131.415 144.834 131.524 144.644C131.905 143.882 132.367 141.911 132.911 138.729C133.4 135.873 133.768 133.167 134.012 130.611C133.931 127.837 133.564 126.178 132.911 125.634C132.666 125.498 132.326 125.294 131.891 125.022C131.565 124.695 131.401 124.233 131.401 123.635C131.401 122.52 132.109 121.69 133.523 121.146C134.665 120.684 136.106 120.466 137.847 120.494C138.472 120.521 139.044 120.548 139.56 120.575C141.981 120.466 143.504 120.412 144.129 120.412C146.387 120.412 148.372 120.861 150.085 121.758C152.207 122.846 153.267 124.424 153.267 126.49C153.267 129.074 151.88 131.127 149.106 132.65C149.378 133.493 149.963 134.119 150.86 134.527C152.193 135.125 152.873 135.424 152.9 135.424C154.015 136.349 154.845 137.314 155.389 138.321C155.878 139.218 156.286 140.428 156.612 141.951C157.075 144.209 157.768 146.126 158.693 147.703C158.747 147.812 159.101 148.207 159.753 148.886C160.243 149.403 160.488 149.838 160.488 150.192C160.488 150.464 160.257 150.736 159.794 151.008C159.468 151.198 159.142 151.402 158.815 151.62C158.326 151.647 157.523 151.756 156.408 151.946C155.484 152.109 154.695 152.191 154.042 152.191C151.214 152.191 149.269 151.076 148.209 148.846C147.692 147.758 147.202 145.46 146.74 141.951C146.332 139.014 145.639 137.111 144.66 136.24C144.333 135.968 143.939 135.887 143.477 135.995C142.715 136.186 142.389 136.635 142.498 137.342Z" fill="white"/>
<path d="M167.633 140.442C169.509 140.442 170.447 139.545 170.447 137.75C170.447 137.151 169.822 136.322 168.571 135.261C166.694 133.629 165.566 132.596 165.185 132.161C163.934 130.774 163.308 129.387 163.308 128C163.308 125.525 164.301 123.567 166.286 122.125C168.054 120.847 170.216 120.208 172.773 120.208C173.588 120.208 174.758 120.358 176.281 120.657C177.831 120.956 179.028 121.106 179.871 121.106C181.339 121.106 182.074 122.792 182.074 126.164C182.074 128.095 181.312 129.06 179.789 129.06C178.729 129.06 177.709 128.285 176.73 126.735C175.778 125.185 174.853 124.41 173.956 124.41C171.97 124.41 170.978 125.131 170.978 126.572C170.978 127.415 172.093 128.367 174.323 129.428C177.342 130.842 179.395 132.025 180.483 132.977C182.713 134.908 183.828 137.382 183.828 140.401C183.828 143.692 182.754 146.398 180.605 148.519C178.484 150.641 175.791 151.701 172.528 151.701C169.183 151.701 166.463 150.885 164.369 149.254C162.057 147.486 160.901 144.97 160.901 141.707C160.901 140.075 161.745 139.259 163.431 139.259C163.975 139.259 164.532 139.463 165.103 139.871C165.702 140.252 166.545 140.442 167.633 140.442Z" fill="white"/>
<path d="M210.434 140.238C210.434 143.665 209.142 146.534 206.558 148.846C204.111 151.021 201.16 152.109 197.706 152.109C193.844 152.109 190.744 150.586 188.405 147.54C186.311 144.766 185.264 141.38 185.264 137.382C185.264 132.977 186.324 129.128 188.446 125.838C190.893 122.03 194.198 120.127 198.359 120.127C202.384 120.127 205.498 122.438 207.7 127.062C209.523 130.842 210.434 135.234 210.434 140.238ZM201.5 134.894C201.5 133.099 201.105 131.114 200.317 128.938C199.338 126.218 198.127 124.859 196.686 124.859C195.843 124.859 195.19 125.484 194.728 126.735C194.374 127.687 194.198 128.707 194.198 129.795C194.198 131.644 194.497 133.371 195.095 134.976C195.911 137.124 197.108 138.198 198.685 138.198C200.561 138.198 201.5 137.097 201.5 134.894Z" fill="white"/>
<path d="M224.105 137.382C224.105 138.062 224.35 139.313 224.839 141.136C225.356 142.93 225.75 144.018 226.022 144.399C226.322 144.78 226.634 145.161 226.961 145.541C227.369 146.004 227.613 146.452 227.695 146.888C227.777 147.431 227.817 147.921 227.817 148.356C227.817 149.553 227.382 150.396 226.512 150.885C225.805 151.266 224.54 151.497 222.718 151.579C221.875 151.688 220.039 151.742 217.211 151.742C216.123 151.742 215.008 151.524 213.866 151.089C212.86 150.736 212.193 150.233 211.867 149.58C211.568 149.118 211.418 148.574 211.418 147.948C211.418 147.839 211.418 147.731 211.418 147.622C211.418 147.486 211.418 147.336 211.418 147.173C211.418 146.82 211.595 146.452 211.948 146.072C212.248 145.772 212.56 145.46 212.887 145.133C213.703 142.033 214.287 139.15 214.641 136.485C214.94 134.337 215.144 132.378 215.253 130.611C215.416 128.027 215.049 126.368 214.151 125.634C213.907 125.498 213.567 125.294 213.131 125.022C212.805 124.695 212.642 124.233 212.642 123.635C212.642 122.52 213.349 121.69 214.763 121.146C215.905 120.684 217.347 120.466 219.087 120.494C222.052 120.548 223.956 120.97 224.799 121.758C226.077 122.601 227.233 124.614 228.266 127.796C229.408 131.223 230.523 133.466 231.611 134.527C231.883 134.772 232.182 134.84 232.509 134.731C232.835 134.323 232.998 133.725 232.998 132.936C232.998 132.637 232.957 132.174 232.876 131.549C232.876 131.495 232.876 131.427 232.876 131.345L232.835 131.263C232.754 130.611 232.658 129.917 232.55 129.183C232.087 127.66 231.339 126.477 230.306 125.634C230.061 125.498 229.721 125.294 229.286 125.022C228.987 124.695 228.837 124.233 228.837 123.635C228.837 122.52 229.544 121.69 230.959 121.146C232.101 120.684 233.542 120.466 235.283 120.494C237.676 120.521 239.376 120.806 240.382 121.35C241.198 121.785 241.606 122.452 241.606 123.349C241.606 123.893 241.483 124.288 241.239 124.532C240.994 124.777 240.736 125.008 240.464 125.226C240.192 125.443 239.974 125.743 239.811 126.123C239.485 126.694 239.158 127.279 238.832 127.877C238.342 128.884 238.098 130.012 238.098 131.263C238.098 131.209 238.098 131.386 238.098 131.794C238.152 133.289 238.573 135.547 239.362 138.566C240.096 141.448 240.464 143.692 240.464 145.297C240.464 147.418 240.287 148.886 239.933 149.702C239.362 150.981 238.179 151.62 236.384 151.62C234.399 151.62 232.604 150.328 230.999 147.744C230.591 147.064 229.476 144.671 227.654 140.564C226.512 137.981 225.479 136.689 224.554 136.689C224.255 136.689 224.105 136.92 224.105 137.382Z" fill="white"/>
</svg>
