<svg width="247" height="244" viewBox="0 0 247 244" fill="none" xmlns="http://www.w3.org/2000/svg">
<g id="Group 289634">
<circle id="Ellipse 63" cx="124.797" cy="122.379" r="120.296" fill="#F9F3E9" stroke="#F24EB6" stroke-width="2.45502"/>
<g id="Group 289435">
<path id="Vector" d="M148.555 60.642C134.623 51.9035 115.48 52.3205 99.0262 58.8326C82.4466 64.9819 67.9291 77.4669 63.3955 93.2834C56.7437 116.55 59.1616 143.645 71.6128 164.345C89.0463 193.332 119.476 212.184 152.106 201.675L152.141 201.765C152.628 201.578 153.11 201.393 153.581 201.181C154.052 200.968 154.561 200.837 155.049 200.65L155.012 200.555C186.29 186.6 196.334 152.202 189.932 118.987C185.366 95.2717 169.054 73.5016 148.555 60.642Z" fill="#FDAB96"/>
<path id="Vector_2" d="M82.592 160.904C80.0766 148.812 68.2354 141.049 56.1439 143.565C44.0524 146.08 36.2895 157.921 38.8049 170.013C41.3202 182.104 53.1615 189.867 65.253 187.352C77.3444 184.836 85.1073 172.995 82.592 160.904Z" fill="#FDAB96"/>
<path id="Vector_3" d="M220.901 107.888C218.385 95.7965 206.544 88.0336 194.453 90.5489C182.361 93.0643 174.598 104.906 177.113 116.997C179.629 129.089 191.47 136.851 203.562 134.336C215.653 131.821 223.416 119.98 220.901 107.888Z" fill="#FDAB96"/>
<path id="Vector_4" d="M219.548 155.249L202.988 161.083C202.342 150.064 202.131 139.037 202.356 128.001C206.861 137.674 213.205 146.648 219.548 155.249Z" fill="#FF9072"/>
<path id="Vector_5" d="M205.513 128.258C205.753 128.884 205.802 129.568 205.654 130.221C205.505 130.875 205.166 131.471 204.68 131.932C204.193 132.393 203.581 132.7 202.92 132.813C202.259 132.926 201.58 132.841 200.967 132.568C200.355 132.295 199.837 131.847 199.48 131.279C199.122 130.712 198.941 130.052 198.959 129.381C198.977 128.711 199.193 128.061 199.58 127.514C199.967 126.966 200.508 126.546 201.134 126.306C201.974 125.984 202.907 126.009 203.728 126.375C204.549 126.742 205.191 127.419 205.513 128.258Z" fill="#FF9072"/>
<path id="Vector_6" d="M189.847 121.01C191.484 115.775 189.401 103.703 187.788 99.6625C186.592 96.6767 185.041 93.7693 184.655 90.5823C184.244 87.18 185.203 83.6314 184.237 80.3392C182.913 75.7959 178.316 72.8867 176.614 68.4817C175.04 64.375 176.02 59.2189 173.094 55.945C170.939 53.5582 167.426 53.0927 164.563 51.6261C157.713 48.1215 154.378 38.7844 146.801 37.4735C140.395 36.3689 133.598 41.7372 127.702 39.0109C125.685 38.0747 124.02 36.2454 121.811 35.9805C117.769 35.493 115.191 40.2015 111.468 41.8212C106.204 44.1151 99.5785 39.8372 94.5506 42.6125C87.9525 46.2532 86.8867 54.8223 79.2933 58.6325C72.774 61.9088 62.3783 62.6999 59.2679 70.3435C57.2401 75.3296 58.3484 81.3562 55.6206 85.9745C54.3232 88.1553 52.2795 89.7805 50.6622 91.7305C46.8285 96.3806 45.9011 103.098 46.6982 108.916C47.6205 115.631 53.4546 118.965 55.0412 125.284C55.8405 128.493 54.8739 131.838 54.6078 135.134C53.9579 143.229 57.8765 148.255 62.4544 154.231C64.6012 157.032 70.7187 168.348 74.4609 159.704C76.8011 154.309 71.9963 149.301 69.8 144.913C67.3429 139.994 67.857 138.737 70.2361 133.963C72.6152 129.189 74.0897 126.247 73.2948 120.736C72.6332 116.177 70.0526 111.473 72.328 106.931C73.3802 104.832 75.3063 103.335 76.9947 101.705C83.7978 95.1455 86.1188 86.5321 86.3038 77.3752C93.4993 81.3449 95.7397 90.7609 106.696 87.8274C108.62 87.3149 110.511 86.4163 112.497 86.5676C115.861 86.8269 118.241 89.9179 121.325 91.2741C129.605 94.9052 137.744 85.2763 146.724 84.2631C152.7 83.5919 159.508 86.669 164.361 83.1189C167.534 95.5704 173.17 110.124 181.958 119.774C186.532 124.851 188.858 124.146 189.847 121.01Z" fill="#0A0517"/>
<path id="Vector_7" d="M119.735 123.894L126.564 141.71C116.559 142.917 118.464 150.502 130.82 152.815" stroke="#0A0517" stroke-width="3.27336" stroke-linecap="round" stroke-linejoin="round"/>
<path id="Vector_8" d="M146.817 166.772C150.542 165.221 153.561 162.345 155.289 158.699C156.447 156.237 156.96 153.335 155.993 150.795C155.026 148.255 152.295 146.294 149.626 146.81C147.763 147.177 146.309 148.582 144.975 149.929C142.054 152.886 139.149 155.902 136.889 159.396C131.427 167.877 140.221 169.48 146.817 166.772Z" fill="white"/>
<path id="Vector_9" d="M147.389 124.888C149.206 124.192 149.83 121.415 148.784 118.686C147.738 115.957 145.418 114.309 143.601 115.005C141.785 115.701 141.161 118.478 142.207 121.207C143.253 123.936 145.573 125.584 147.389 124.888Z" fill="#0A0517"/>
<path id="Vector_10" d="M100.897 142.705C102.713 142.008 103.338 139.232 102.292 136.502C101.246 133.773 98.9254 132.125 97.109 132.821C95.2927 133.518 94.6683 136.294 95.7144 139.024C96.7604 141.753 99.0809 143.401 100.897 142.705Z" fill="#0A0517"/>
<path id="Vector_11" d="M142.621 112.262C144.065 112.124 145.521 112.291 146.896 112.749C148.271 113.208 149.536 113.949 150.608 114.926" stroke="#0A0517" stroke-width="3.27336" stroke-linecap="round" stroke-linejoin="round"/>
<path id="Vector_12" d="M91.4193 138.027C91.3554 136.51 91.7477 135.008 92.5457 133.716C93.3436 132.424 94.5105 131.401 95.8957 130.779" stroke="#0A0517" stroke-width="3.27336" stroke-linecap="round" stroke-linejoin="round"/>
<path id="Vector_13" d="M148.696 107.228C150.955 106.87 153.584 105.85 153.988 103.6C154.392 101.351 152.192 99.4177 150.087 98.4512C147.472 97.2742 144.638 96.6616 141.771 96.6535C138.903 96.6454 136.067 97.2419 133.445 98.404C130.764 99.6244 128.301 101.597 127.849 104.674C127.535 106.774 128.119 109.069 130.454 109.459C133.015 109.904 136.714 108.223 139.373 107.968C142.492 107.756 145.607 107.77 148.696 107.228Z" fill="#0A0517"/>
<path id="Vector_14" d="M84.808 131.716C82.8823 132.961 80.2504 133.957 78.4466 132.554C76.6428 131.151 76.9869 128.243 77.9069 126.117C79.0651 123.494 80.7633 121.144 82.8907 119.221C85.0181 117.299 87.5269 115.846 90.2535 114.959C93.0632 114.074 96.2137 113.895 98.6074 115.882C100.238 117.236 101.343 119.331 99.8678 121.182C98.2548 123.227 94.3849 124.446 92.237 126.034C89.7754 127.961 87.445 130.062 84.808 131.716Z" fill="#0A0517"/>
</g>
</g>
</svg>
