<svg width="244" height="244" viewBox="0 0 244 244" fill="none" xmlns="http://www.w3.org/2000/svg">
<g id="Group 289633">
<circle id="Ellipse 65" cx="121.918" cy="121.523" r="120.296" fill="#949AF6" stroke="#F24EB6" stroke-width="2.45502"/>
<g id="Group 289632">
<path id="Vector" d="M159.024 67.2754C150.484 55.9208 134.92 50.3371 119.641 50.5036C104.368 50.3371 88.7986 55.9208 80.2643 67.2754C67.7024 83.9796 61.2809 106.585 64.9236 127.119C70.0233 155.886 88.7362 180.526 118.299 182.113V182.196C118.746 182.196 119.199 182.196 119.641 182.17C120.084 182.144 120.537 182.17 120.989 182.196V182.113C150.547 180.552 169.265 155.886 174.365 127.119C178.007 106.595 171.581 83.99 159.024 67.2754Z" fill="#FFBA9F"/>
<path id="Vector_2" d="M55.7305 143.953C66.3987 143.953 75.047 135.305 75.047 124.637C75.047 113.969 66.3987 105.32 55.7305 105.32C45.0623 105.32 36.4141 113.969 36.4141 124.637C36.4141 135.305 45.0623 143.953 55.7305 143.953Z" fill="#FFBA9F"/>
<path id="Vector_3" d="M183.668 143.953C194.336 143.953 202.985 135.305 202.985 124.637C202.985 113.969 194.336 105.32 183.668 105.32C173 105.32 164.352 113.969 164.352 124.637C164.352 135.305 173 143.953 183.668 143.953Z" fill="#FFBA9F"/>
<path id="Vector_4" d="M144.611 99.2874C139.142 100.328 132.751 100.115 128.12 98.1477C127.509 97.9537 126.982 97.5573 126.627 97.0237C126.184 96.1755 126.627 95.1503 127.147 94.3438C132.418 86.0177 143.242 86.3871 151.47 89.7488C157.766 92.3507 153.483 96.3264 149.164 97.9916C147.687 98.5557 146.164 98.9893 144.611 99.2874Z" fill="#231F20"/>
<path id="Vector_5" d="M91.2932 100.792C96.8561 100.506 102.997 98.7108 107.019 95.7082C107.566 95.3707 107.98 94.8566 108.195 94.2512C108.424 93.3249 107.737 92.4402 107.05 91.7794C99.9211 84.9624 89.5084 87.9442 82.3375 93.1896C76.8579 97.233 81.9733 100.059 86.5683 100.631C88.1356 100.822 89.7165 100.876 91.2932 100.792Z" fill="#231F20"/>
<path id="Vector_6" d="M159.932 115.01C159.608 115.033 159.286 114.937 159.027 114.739C158.768 114.542 158.59 114.257 158.526 113.938C158.462 113.619 158.517 113.287 158.68 113.005C158.843 112.724 159.103 112.511 159.412 112.408C167.519 109.045 175.818 106.164 184.265 103.78C184.436 103.732 184.615 103.719 184.791 103.74C184.967 103.762 185.137 103.818 185.291 103.905C185.445 103.992 185.581 104.109 185.69 104.249C185.8 104.388 185.88 104.548 185.928 104.719C185.975 104.89 185.989 105.068 185.967 105.244C185.946 105.42 185.89 105.591 185.803 105.745C185.715 105.899 185.599 106.035 185.459 106.144C185.319 106.254 185.159 106.334 184.989 106.382C176.645 108.739 168.447 111.586 160.437 114.906C160.277 114.972 160.106 115.007 159.932 115.01Z" fill="#F7F7F7"/>
<path id="Vector_7" d="M117.96 106.125V128.158C110.43 125.842 110.43 133.549 117.96 138.456" stroke="#231F20" stroke-width="3.27336" stroke-linecap="round" stroke-linejoin="round"/>
<path id="Vector_8" d="M103.239 97.9321C100.523 95.9168 97.301 94.6954 93.9317 94.4039C90.5624 94.1124 87.1784 94.7624 84.1568 96.2813C81.1352 97.8001 78.5947 100.128 76.8186 103.006C75.0425 105.884 74.1005 109.199 74.0977 112.581C74.0977 112.841 74.0977 113.101 74.0977 113.351C74.2034 116.017 74.9002 118.626 76.1376 120.99C77.8883 124.364 80.6488 127.107 84.0338 128.837C87.4188 130.566 91.2593 131.195 95.0192 130.637C98.7791 130.078 102.271 128.359 105.007 125.72C107.742 123.081 109.586 119.654 110.28 115.916C110.47 114.909 110.571 113.887 110.582 112.862C110.582 112.768 110.582 112.674 110.582 112.581C110.584 109.736 109.922 106.929 108.647 104.386C107.372 101.843 105.52 99.6325 103.239 97.9321ZM92.3578 128.161C89.052 128.163 85.8314 127.112 83.1624 125.162C80.4934 123.211 78.5144 120.461 77.5123 117.311C76.5101 114.161 76.5367 110.773 77.5881 107.639C78.6395 104.505 80.6612 101.787 83.3604 99.8783C85.6909 98.2276 88.4304 97.2494 91.2793 97.0506C94.1283 96.8519 96.977 97.4404 99.5141 98.7516C102.051 100.063 104.179 102.046 105.664 104.485C107.15 106.924 107.937 109.725 107.938 112.581C107.93 116.71 106.286 120.668 103.366 123.588C100.446 126.509 96.4874 128.153 92.3578 128.161Z" fill="#F7F7F7"/>
<path id="Vector_9" d="M161.517 111.575C161.248 106.874 159.173 102.459 155.725 99.2521C152.278 96.045 147.724 94.2942 143.016 94.3654C138.308 94.4366 133.809 96.3243 130.46 99.6342C127.111 102.944 125.171 107.42 125.044 112.127C125.044 112.278 125.044 112.429 125.044 112.58C124.997 117.287 126.77 121.83 129.992 125.261C133.215 128.692 137.639 130.745 142.34 130.992C147.04 131.24 151.655 129.661 155.22 126.587C158.784 123.513 161.024 119.181 161.47 114.495C161.538 113.859 161.571 113.219 161.569 112.58C161.548 112.241 161.538 111.908 161.517 111.575ZM143.304 128.16C139.172 128.16 135.209 126.518 132.287 123.597C129.365 120.675 127.724 116.712 127.724 112.58C127.724 108.448 129.365 104.485 132.287 101.563C135.209 98.641 139.172 96.9995 143.304 96.9995C145.246 96.9968 147.171 97.3623 148.976 98.0766C151.891 99.2207 154.393 101.216 156.156 103.803C157.92 106.39 158.863 109.449 158.863 112.58C158.863 112.673 158.863 112.762 158.863 112.855C158.858 113.351 158.827 113.846 158.77 114.338C158.331 118.138 156.513 121.645 153.66 124.192C150.807 126.74 147.118 128.152 143.294 128.16H143.304Z" fill="#F7F7F7"/>
<path id="Vector_10" d="M109.582 116.117C109.332 116.118 109.088 116.049 108.876 115.917C108.665 115.786 108.494 115.597 108.385 115.373C108.228 115.055 108.203 114.687 108.316 114.351C108.429 114.014 108.671 113.736 108.988 113.578C111.746 112.236 114.747 111.467 117.81 111.316C120.874 111.166 123.936 111.638 126.811 112.704C127.143 112.829 127.412 113.081 127.558 113.405C127.704 113.728 127.715 114.097 127.589 114.429C127.464 114.761 127.212 115.029 126.888 115.175C126.565 115.321 126.196 115.332 125.864 115.207C123.333 114.27 120.637 113.855 117.941 113.988C115.245 114.12 112.603 114.797 110.175 115.977C109.992 116.071 109.788 116.12 109.582 116.117Z" fill="#F7F7F7"/>
<path id="Vector_11" d="M143.637 114.866C143.637 117.312 142.456 119.294 140.994 119.294C139.531 119.294 138.355 117.312 138.355 114.866C138.355 112.42 139.537 110.438 140.994 110.438C142.451 110.438 143.637 112.42 143.637 114.866Z" fill="#231F20"/>
<path id="Vector_12" d="M139.723 108.727C141.148 108.546 142.594 108.846 143.829 109.579C145.065 110.313 146.021 111.438 146.545 112.776" stroke="#231F20" stroke-width="3.27336" stroke-linecap="round" stroke-linejoin="round"/>
<path id="Vector_13" d="M93.9492 114.866C93.9492 117.312 95.1305 119.294 96.5928 119.294C98.0551 119.294 99.231 117.312 99.231 114.866C99.231 112.42 98.0499 110.438 96.5928 110.438C95.1357 110.438 93.9492 112.42 93.9492 114.866Z" fill="#231F20"/>
<path id="Vector_14" d="M97.8652 108.727C96.4396 108.546 94.9943 108.846 93.7584 109.579C92.5226 110.313 91.5669 111.438 91.043 112.776" stroke="#231F20" stroke-width="3.27336" stroke-linecap="round" stroke-linejoin="round"/>
<path id="Vector_15" d="M134.595 136.242C135.239 136.27 135.859 136.498 136.369 136.893C136.996 137.468 137.401 138.245 137.514 139.089C138.154 142.612 135.49 147.144 132.529 149.028C130.911 150.001 129.068 150.536 127.181 150.579C125.293 150.622 123.428 150.171 121.768 149.272C121.386 149.104 121.043 148.862 120.757 148.559C120.471 148.256 120.248 147.899 120.102 147.508C120.033 147.082 120.064 146.645 120.192 146.232C120.321 145.82 120.543 145.442 120.841 145.13C122.428 143.168 123.833 142.7 125.774 141.269C128.267 139.432 131.27 135.966 134.595 136.242Z" fill="white"/>
<path id="Vector_16" d="M160.141 123.544C160 127.317 162.545 130.829 162.592 134.628C162.68 141.84 155.577 146.977 153.162 153.773C151.336 158.914 152.501 164.18 152.35 169.483C152.22 173.995 152.428 178.007 156.716 180.739C158.175 181.646 159.837 182.175 161.552 182.277C163.266 182.38 164.98 182.053 166.536 181.327C167.988 180.63 169.258 179.594 170.725 178.928C175.606 176.711 181.231 179.006 186.118 181.202C191.004 183.398 196.78 185.505 201.506 182.976C203.941 181.675 205.669 178.881 208.146 177.773C211.018 176.487 215.551 176.992 218.678 176.763C219.508 176.744 220.329 176.596 221.113 176.326C222.919 175.582 223.892 173.656 224.714 171.882C225.407 170.383 226.109 168.848 226.276 167.198C226.796 161.807 221.707 157.832 222.466 152.467C223.226 147.101 222.893 141.596 219.152 137.178C215.779 133.197 210.305 131.454 206.938 127.488C201.126 120.63 205.221 111.513 199.029 105.112C196.687 102.682 193.513 100.991 191.8 98.0764C189.901 94.8397 190.213 90.8224 190.411 87.0757C190.728 81.0132 190.312 74.2534 186.003 69.9759C180.461 64.4755 170.142 64.8502 166.318 58.0437C165.37 56.368 164.975 54.4478 164.34 52.6369C163.349 49.9173 161.831 47.4201 159.872 45.2885C157.914 43.1569 155.554 41.433 152.928 40.2154C148.583 38.1704 141.48 35.7298 136.739 36.7601C133.372 37.4886 128.933 39.4453 127.221 42.5728C122.569 37.4002 115.383 33.9969 108.613 35.5841C98.6213 37.9258 92.9022 49.8165 82.8121 51.6794C78.7791 52.4184 74.611 51.4088 70.5416 51.8823C67.8727 52.2181 65.32 53.1762 63.0892 54.6794C60.8585 56.1825 59.012 58.1887 57.6987 60.5363C54.5764 66.1876 54.7013 73.603 50.1219 78.1407C47.4003 80.8311 43.435 82.0228 40.8539 84.8484C37.9138 88.0592 37.3205 92.779 37.5547 97.1294C37.8981 103.566 40.1567 111.18 36.233 116.904C33.2981 121.207 27.6779 122.597 26.6528 128.576C25.9606 132.635 28.1307 136.694 27.8809 140.8C27.6311 144.905 25.0865 148.376 22.6771 151.644C20.2678 154.912 17.7387 158.461 17.5878 162.531C17.1403 174.817 32.3665 168.463 38.7776 170.654C41.1974 171.481 42.9406 173.542 44.9805 175.072C47.2484 176.724 49.9082 177.757 52.6971 178.067C55.4861 178.377 58.3077 177.955 60.8833 176.841C63.7454 175.566 66.2588 173.422 69.3239 172.772C76.0888 171.335 82.8902 177.544 89.5251 175.639C90.4212 175.407 91.2489 174.965 91.9396 174.348C94.7964 171.637 93.251 168.817 92.1686 165.95C90.6075 161.787 91.9343 157.16 90.8832 152.883C88.5935 143.552 76.1253 138.833 75.3708 129.237C75.0897 125.657 76.5988 122.082 76.1149 118.527C75.7506 115.806 74.0334 113.724 73.2944 111.169C72.5191 108.401 72.4983 104.831 72.7741 101.99C73.0499 99.1484 73.9137 96.3019 75.8651 94.2569C78.5815 91.4104 82.7862 90.7443 86.4444 89.2925C90.9634 87.4823 94.8278 84.3453 97.5284 80.2951C99.4018 77.4642 100.781 74.1234 103.596 72.224C106.411 70.3246 109.986 70.2934 113.254 69.4555C116.635 68.5816 119.721 66.8211 122.194 64.3559C122.85 63.7054 123.756 62.9404 124.578 63.3567C125.211 66.3133 126.516 69.0847 128.391 71.4568C130.266 73.829 132.661 75.7383 135.391 77.0375C138.951 78.6611 143.062 79.2647 146.069 81.7625C150.409 85.3688 151.174 91.8059 154.817 96.1146C157.835 99.6897 161.795 102.838 162.352 107.886C162.966 113.454 160.338 118.127 160.141 123.544Z" fill="#0A0517"/>
</g>
</g>
</svg>
