<svg width="35" height="34" viewBox="0 0 35 34" fill="none" xmlns="http://www.w3.org/2000/svg">
<circle cx="17.5" cy="19" r="10.5" stroke="white"/>
<path d="M18.567 24.244C18.567 24.5333 18.4643 24.7807 18.259 24.986C18.0537 25.182 17.811 25.28 17.531 25.28C17.251 25.28 17.0083 25.182 16.803 24.986C16.5977 24.7807 16.495 24.5333 16.495 24.244C16.495 23.964 16.5977 23.7213 16.803 23.516C17.0083 23.3107 17.251 23.208 17.531 23.208C17.811 23.208 18.0537 23.3107 18.259 23.516C18.4643 23.7213 18.567 23.964 18.567 24.244ZM20.695 16.964C20.695 17.3093 20.6017 17.65 20.415 17.986C20.2377 18.3127 20.0137 18.5833 19.743 18.798C19.4817 19.0033 19.2343 19.1667 19.001 19.288C18.777 19.4 18.5717 19.54 18.385 19.708C18.2077 19.8667 18.049 20.128 17.909 20.492C17.8157 20.7347 17.7597 21.038 17.741 21.402C17.7223 21.766 17.7083 22.0833 17.699 22.354H17.223C17.195 22.1673 17.1717 21.976 17.153 21.78C17.1343 21.584 17.125 21.3927 17.125 21.206C17.125 21.01 17.1297 20.814 17.139 20.618C17.1577 20.422 17.1857 20.2307 17.223 20.044C17.2977 19.7453 17.4003 19.498 17.531 19.302C17.6617 19.0967 17.8017 18.9147 17.951 18.756C18.1097 18.588 18.259 18.4153 18.399 18.238C18.539 18.0513 18.651 17.832 18.735 17.58C18.8283 17.3187 18.875 16.9967 18.875 16.614C18.875 16.1847 18.777 15.8067 18.581 15.48C18.385 15.1533 18.0443 14.99 17.559 14.99C17.1297 14.99 16.761 15.1207 16.453 15.382C16.145 15.6433 15.991 15.998 15.991 16.446C15.991 16.5673 16.0143 16.6887 16.061 16.81C16.1077 16.922 16.131 17.0433 16.131 17.174C16.131 17.4727 16.019 17.6827 15.795 17.804C15.5803 17.916 15.3423 17.972 15.081 17.972C14.8477 17.972 14.661 17.8833 14.521 17.706C14.381 17.5287 14.311 17.328 14.311 17.104C14.311 16.936 14.3343 16.7727 14.381 16.614C14.437 16.446 14.507 16.2873 14.591 16.138C14.899 15.5873 15.3283 15.1953 15.879 14.962C16.439 14.7287 17.0223 14.612 17.629 14.612C18.133 14.612 18.6183 14.6867 19.085 14.836C19.5517 14.9853 19.9343 15.2327 20.233 15.578C20.541 15.914 20.695 16.376 20.695 16.964Z" fill="white"/>
</svg>
