<svg width="10" height="13" viewBox="0 0 10 13" fill="none" xmlns="http://www.w3.org/2000/svg">
<path d="M2.1875 4.83333H2.6875V4.33333V3.09524C2.6875 2.3923 2.94167 1.72666 3.38131 1.24282C3.81951 0.760578 4.40298 0.5 5 0.5C5.29666 0.5 5.59176 0.564231 5.8689 0.69057L6.0763 0.235611L5.8689 0.69057C6.14622 0.816985 6.40147 1.00377 6.61869 1.24282C6.83599 1.48197 7.0106 1.76841 7.13046 2.08687C7.25033 2.40535 7.3125 2.74812 7.3125 3.09524V4.33333V4.83333H7.8125H8.375C8.52446 4.83333 8.67872 4.89825 8.80044 5.03221C8.92362 5.16777 9 5.36104 9 5.57143V11.7619C9 11.9723 8.92362 12.1656 8.80044 12.3011C8.67872 12.4351 8.52446 12.5 8.375 12.5H1.625C1.47554 12.5 1.32128 12.4351 1.19956 12.3011L0.832711 12.6345L1.19955 12.3011C1.07638 12.1656 1 11.9723 1 11.7619V5.57143C1 5.36104 1.07638 5.16777 1.19956 5.03221C1.32128 4.89825 1.47554 4.83333 1.625 4.83333H2.1875ZM2.8125 4.33333V4.83333H3.3125H6.6875H7.1875V4.33333V3.09524C7.1875 2.48472 6.96757 1.89071 6.56329 1.44579L6.19324 1.78204L6.56329 1.44579C6.15757 0.999284 5.59646 0.738095 5 0.738095C4.40354 0.738095 3.84243 0.999284 3.43671 1.44579C3.03243 1.89071 2.8125 2.48472 2.8125 3.09524V4.33333ZM5 10.4048C5.44727 10.4048 5.86531 10.2088 6.16555 9.87838C6.46433 9.54956 6.625 9.113 6.625 8.66667C6.625 8.22033 6.46433 7.78377 6.16555 7.45495C5.86531 7.12454 5.44727 6.92857 5 6.92857C4.55273 6.92857 4.13469 7.12454 3.83445 7.45495C3.53567 7.78377 3.375 8.22033 3.375 8.66667C3.375 9.113 3.53567 9.54956 3.83445 9.87838C4.13469 10.2088 4.55273 10.4048 5 10.4048Z" fill="#0A0517" stroke="#0A0517"/>
</svg>
