<svg width="429" height="447" viewBox="0 0 429 447" fill="none" xmlns="http://www.w3.org/2000/svg">
<path d="M373.522 245.182C371.373 245.158 367.364 232.996 366.652 230.768C365.186 226.186 365.064 219.71 370.283 217.771C376.935 215.305 382.548 222.716 386.122 227.393C388.482 230.486 390.625 233.518 393.582 236.053C398.322 240.113 402.812 244.356 405.143 250.385C408.099 258.022 410.552 265.242 414.183 272.631C417.666 279.727 417.291 285.982 417.974 293.572C418.36 297.875 418.771 302.175 419.168 306.477C420.37 319.448 421.571 332.418 422.771 345.387L428.452 406.768C428.452 406.899 428.477 446.203 428.49 446.333H370.41L366.932 327.345L339.641 318.46L343.192 244.834L373.522 245.182Z" fill="#FDAB96"/>
<path d="M382.111 331.478C376.259 331.478 370.689 329.574 365.301 327.714C365.097 327.644 364.928 327.495 364.833 327.3C364.738 327.106 364.724 326.881 364.794 326.677C364.865 326.472 365.013 326.303 365.208 326.208C365.403 326.113 365.627 326.099 365.832 326.169C371.225 328.024 376.816 329.941 382.533 329.841C387.385 329.759 393.683 327.785 396.819 322.498C397.344 321.566 397.813 320.605 398.225 319.618C398.71 318.437 399.284 317.294 399.941 316.199C399.999 316.109 400.073 316.03 400.161 315.969C400.249 315.907 400.348 315.863 400.453 315.84C400.557 315.817 400.666 315.814 400.771 315.833C400.877 315.851 400.978 315.89 401.068 315.948C401.159 316.005 401.237 316.08 401.299 316.168C401.361 316.255 401.404 316.354 401.428 316.459C401.451 316.564 401.454 316.672 401.435 316.778C401.417 316.883 401.378 316.984 401.32 317.075C400.705 318.099 400.17 319.17 399.718 320.276C399.28 321.322 398.781 322.341 398.222 323.327C395.315 328.244 389.316 331.369 382.56 331.486L382.111 331.478Z" fill="#231F20"/>
<path d="M408.599 300.977C408.412 300.977 408.231 300.914 408.086 300.797C407.941 300.68 407.84 300.517 407.8 300.335C407.76 300.152 407.784 299.962 407.868 299.795C407.951 299.629 408.089 299.496 408.259 299.418C416.271 295.763 416.551 286.223 416.301 282.285C416.294 282.178 416.308 282.07 416.343 281.968C416.377 281.867 416.431 281.773 416.502 281.692C416.573 281.612 416.659 281.546 416.755 281.498C416.852 281.451 416.956 281.423 417.064 281.416C417.171 281.409 417.278 281.423 417.38 281.458C417.482 281.492 417.575 281.546 417.656 281.617C417.737 281.688 417.803 281.774 417.85 281.87C417.898 281.967 417.926 282.071 417.933 282.179C418.504 291.069 415.14 298.067 408.941 300.895C408.835 300.947 408.718 300.975 408.599 300.977Z" fill="#231F20"/>
<path d="M372.857 0H362.25V400.871H372.857V0Z" fill="#FE5122"/>
<path d="M367.202 318.413C359.78 318.413 352.35 318.315 344.925 318.413C340.549 318.47 337.15 318.802 334.319 314.666C332.051 311.35 330.976 306.322 332.238 302.395C332.561 301.364 333.03 300.385 333.631 299.488C331.518 296.561 329.007 292.977 328.502 289.349C327.996 285.721 328.904 281.734 331.463 279.232C329.089 277.388 328.488 274.16 328.937 271.106C329.385 268.051 330.922 265.296 332.578 262.737C331.354 260.657 329.913 258.386 329.859 255.938C329.793 252.83 331.605 249.917 334.017 248.092C336.429 246.267 339.369 245.373 342.293 244.799C342.97 244.663 342.497 244.799 343.187 244.799H361.27C369.318 244.799 388.662 242.06 391.186 253.858C391.621 255.881 390.949 258.065 389.663 259.645C388.377 261.225 386.538 262.242 384.615 262.762C397.343 267.004 394.088 279.721 384.732 281.669C395.643 286.148 390.803 298.503 380.767 298.313C384.088 299.248 385.934 304.149 385.361 307.695C384.787 311.242 382.198 314.184 379.146 315.816C376.095 317.448 370.642 318.413 367.202 318.413Z" fill="#FDAB96"/>
<path d="M344.927 319.227C344.71 319.227 344.503 319.141 344.35 318.988C344.197 318.835 344.111 318.628 344.111 318.411C344.111 318.195 344.197 317.987 344.35 317.834C344.503 317.681 344.71 317.595 344.927 317.595C349.884 317.53 354.921 317.552 359.795 317.574C362.266 317.584 364.739 317.592 367.214 317.595C370.63 317.595 375.887 316.665 378.767 315.11C381.922 313.402 384.092 310.59 384.576 307.584C385.084 304.405 383.412 299.918 380.567 299.116C380.379 299.061 380.217 298.94 380.111 298.776C380.004 298.612 379.961 298.415 379.987 298.221C380.014 298.027 380.109 297.849 380.256 297.72C380.403 297.591 380.592 297.518 380.787 297.516H380.804C385.93 297.601 389.305 294.253 390.001 290.902C390.741 287.337 388.663 284.177 384.443 282.442C384.281 282.375 384.146 282.259 384.055 282.109C383.965 281.96 383.925 281.786 383.941 281.612C383.957 281.438 384.029 281.274 384.145 281.144C384.261 281.014 384.416 280.924 384.587 280.889C388.832 280.005 391.96 276.638 392.188 272.703C392.422 268.683 389.504 265.265 384.377 263.557C384.21 263.502 384.065 263.394 383.964 263.25C383.863 263.106 383.812 262.933 383.817 262.757C383.822 262.582 383.884 262.412 383.993 262.274C384.103 262.137 384.253 262.038 384.424 261.993C385.783 261.626 387.687 260.837 389.047 259.151C390.244 257.677 390.766 255.724 390.407 254.049C388.375 244.593 374.508 245.15 365.329 245.52C363.842 245.58 362.435 245.634 361.28 245.634H343.197C342.999 245.642 342.8 245.622 342.607 245.577L342.46 245.604C342.353 245.63 342.242 245.634 342.134 245.616C342.025 245.598 341.922 245.558 341.829 245.498C341.737 245.439 341.657 245.362 341.595 245.271C341.533 245.18 341.49 245.078 341.469 244.97C341.447 244.863 341.448 244.752 341.47 244.644C341.493 244.537 341.537 244.435 341.6 244.345C341.663 244.254 341.743 244.178 341.836 244.12C341.929 244.061 342.033 244.022 342.142 244.005C342.431 243.914 342.742 243.914 343.031 244.005H361.28C362.403 244.005 363.727 243.954 365.264 243.891C374.396 243.524 389.683 242.909 392 253.709C392.468 255.885 391.837 258.308 390.314 260.182C389.388 261.299 388.227 262.197 386.912 262.811C391.514 264.954 394.062 268.582 393.814 272.801C393.581 276.804 390.858 280.304 386.958 281.873C391.242 284.397 392.218 288.243 391.598 291.237C390.891 294.645 387.918 298.036 383.368 298.931C385.577 301.019 386.673 304.8 386.183 307.846C385.62 311.348 383.137 314.601 379.539 316.548C376.314 318.292 370.782 319.233 367.211 319.233C364.736 319.233 362.261 319.225 359.784 319.211C354.918 319.189 349.887 319.167 344.946 319.233L344.927 319.227Z" fill="#231F20"/>
<path d="M384.63 263.598H384.611L347.01 262.741C346.902 262.74 346.797 262.718 346.698 262.675C346.6 262.633 346.51 262.572 346.435 262.495C346.361 262.419 346.302 262.328 346.262 262.229C346.222 262.129 346.202 262.023 346.203 261.916C346.204 261.809 346.227 261.703 346.269 261.604C346.311 261.506 346.372 261.417 346.449 261.342C346.526 261.267 346.616 261.208 346.716 261.168C346.815 261.128 346.921 261.108 347.029 261.109H347.048L384.649 261.966C384.865 261.969 385.072 262.057 385.223 262.212C385.374 262.367 385.458 262.575 385.455 262.792C385.453 263.008 385.364 263.214 385.21 263.366C385.055 263.517 384.846 263.6 384.63 263.598Z" fill="#231F20"/>
<path d="M384.746 282.512H384.708L349.608 280.937C349.392 280.928 349.188 280.832 349.042 280.672C348.896 280.512 348.819 280.301 348.829 280.085C348.839 279.868 348.934 279.665 349.094 279.519C349.254 279.372 349.465 279.296 349.682 279.306L384.781 280.88C384.888 280.883 384.994 280.906 385.092 280.949C385.19 280.992 385.279 281.054 385.353 281.132C385.427 281.209 385.485 281.3 385.524 281.4C385.563 281.5 385.581 281.607 385.579 281.714C385.577 281.821 385.553 281.927 385.51 282.025C385.467 282.123 385.405 282.211 385.328 282.285C385.25 282.36 385.159 282.418 385.059 282.457C384.959 282.495 384.853 282.514 384.746 282.512Z" fill="#231F20"/>
<path d="M347.683 299.743C347.576 299.744 347.47 299.724 347.371 299.684C347.271 299.644 347.181 299.585 347.104 299.51C346.95 299.358 346.862 299.152 346.859 298.935C346.858 298.828 346.878 298.722 346.918 298.622C346.958 298.523 347.018 298.433 347.093 298.356C347.244 298.201 347.451 298.113 347.667 298.111L380.759 297.516C380.867 297.515 380.973 297.535 381.072 297.575C381.172 297.615 381.262 297.674 381.339 297.749C381.415 297.824 381.476 297.913 381.518 298.012C381.56 298.11 381.582 298.216 381.583 298.323C381.585 298.431 381.565 298.537 381.524 298.636C381.484 298.736 381.425 298.826 381.35 298.903C381.275 298.979 381.186 299.04 381.087 299.082C380.989 299.124 380.883 299.146 380.776 299.147L347.683 299.743Z" fill="#231F20"/>
<path d="M380.766 248.656C382.441 248.784 384.152 249.037 385.637 249.858C387.122 250.68 388.356 252.162 388.536 253.908C388.723 255.812 387.614 257.653 386.088 258.7C384.562 259.747 382.705 260.109 380.885 260.204C380.594 257.253 380.73 250.729 380.766 248.656Z" fill="#1D1D1B"/>
<path d="M380.766 284.234C382.441 284.362 384.152 284.615 385.637 285.436C387.122 286.258 388.356 287.74 388.536 289.486C388.723 291.39 387.614 293.231 386.088 294.278C384.562 295.325 382.705 295.687 380.885 295.782C380.594 292.831 380.73 286.307 380.766 284.234Z" fill="#1D1D1B"/>
<path d="M375.305 300.156C376.983 300.284 378.691 300.537 380.176 301.358C381.661 302.18 382.895 303.662 383.075 305.408C383.265 307.312 382.153 309.153 380.627 310.2C379.101 311.247 377.244 311.609 375.424 311.704C375.133 308.753 375.269 302.229 375.305 300.156Z" fill="#1D1D1B"/>
<path d="M382.587 266.836C384.2 266.958 385.851 267.206 387.278 267.997C388.706 268.789 389.906 270.216 390.074 271.9C390.254 273.722 389.185 275.506 387.722 276.523C386.259 277.54 384.458 277.883 382.707 277.973C382.413 275.12 382.552 268.835 382.587 266.836Z" fill="#1D1D1B"/>
<path d="M372.896 160.859V176.598L362.289 170.859V161.806L372.896 160.859Z" fill="#231F20"/>
<path d="M372.859 12.5078H0L45.4176 89.8809L3.80925 165.894H372.859V12.5078Z" fill="#FFAC21"/>
<path d="M61.6198 51.7926C62.4357 57.1775 63.1564 60.2914 63.7819 61.1345C64.1355 61.5153 64.5026 61.9232 64.8833 62.3584C65.2641 62.7935 65.4545 63.2286 65.4545 63.6638C65.4545 65.8939 64.8833 67.2673 63.7411 67.784C62.898 68.1919 60.5864 68.3959 56.8061 68.3959C53.7601 68.3959 51.734 68.0967 50.7277 67.4984C49.7215 66.8729 49.2184 65.6899 49.2184 63.9493C49.2184 63.5414 49.4631 63.0927 49.9527 62.6031C50.5782 62.0048 50.9453 61.6105 51.0541 61.4201C51.4076 60.713 51.8156 59.0268 52.2779 56.3616C52.6859 54.0771 52.9442 52.323 53.053 51.0991C53.053 50.9904 52.849 50.6368 52.4411 50.0385C51.9244 49.3042 51.53 48.5699 51.2581 47.8356C50.7685 46.9381 50.1838 45.8095 49.5039 44.4497C49.232 44.0961 48.8376 43.729 48.3209 43.3482C47.4506 42.7227 47.0155 42.41 47.0155 42.41C46.7707 42.274 46.4307 42.07 45.9956 41.7981C45.6965 41.4717 45.5469 41.0094 45.5469 40.4111C45.5469 39.296 46.254 38.4665 47.6682 37.9226C48.8104 37.4603 50.2518 37.2427 51.9924 37.2699C54.3856 37.2971 56.0854 37.5827 57.0916 38.1266C57.9075 38.5617 58.3155 39.228 58.3155 40.1255C58.3155 40.6694 58.1931 41.0638 57.9483 41.3085C57.7036 41.5533 57.4452 41.7845 57.1732 42.002C56.9013 42.2196 56.6837 42.5052 56.5205 42.8587C56.3845 43.2123 56.3574 43.593 56.4389 44.0009C56.7653 45.6871 57.486 46.5302 58.601 46.5302C59.009 46.5302 59.5121 46.0407 60.1104 45.0616C60.2464 44.5721 60.4776 44.0009 60.8039 43.3482C61.0487 42.8587 61.1711 42.5324 61.1711 42.3692C61.1711 42.2876 61.1167 42.2196 61.0079 42.1652C60.9263 42.1108 60.7495 41.9884 60.4776 41.7981C60.1512 41.4717 59.988 41.0094 59.988 40.4111C59.988 38.3169 62.1365 37.2699 66.4335 37.2699C69.7515 37.2699 71.4104 38.113 71.4104 39.7991C71.4104 40.3431 71.2744 40.7374 71.0025 40.9822C70.7577 41.2269 70.513 41.4445 70.2682 41.6349C70.0506 41.8253 69.6155 42.0564 68.9628 42.3284C67.9565 42.7091 67.3174 42.9947 67.0454 43.1851C66.8007 43.3754 66.4607 43.7698 66.0256 44.3681C64.4482 46.0815 63.4691 47.1965 63.0884 47.7132C62.1093 48.9914 61.6198 50.1201 61.6198 51.0991C61.6198 51.2895 61.6198 51.5207 61.6198 51.7926Z" fill="white"/>
<path d="M97.3364 57.0143C97.3364 60.441 96.0446 63.3102 93.461 65.6219C91.0133 67.7976 88.0626 68.8854 84.6086 68.8854C80.7468 68.8854 77.6464 67.3625 75.3075 64.3165C73.2134 61.5425 72.1664 58.1565 72.1664 54.1587C72.1664 49.7529 73.227 45.9047 75.3483 42.6139C77.796 38.8065 81.1003 36.9027 85.2613 36.9027C89.2864 36.9027 92.4003 39.2144 94.6032 43.8378C96.4254 47.618 97.3364 52.0102 97.3364 57.0143ZM88.4025 51.6703C88.4025 49.8753 88.0082 47.89 87.2195 45.7143C86.2404 42.9947 85.0302 41.6349 83.5888 41.6349C82.7457 41.6349 82.093 42.2604 81.6307 43.5114C81.2771 44.4633 81.1003 45.4831 81.1003 46.571C81.1003 48.4203 81.3995 50.1473 81.9978 51.7519C82.8137 53.9004 84.0103 54.9746 85.5877 54.9746C87.4642 54.9746 88.4025 53.8732 88.4025 51.6703Z" fill="white"/>
<path d="M124.552 48.8555C124.552 49.7801 124.565 51.1671 124.592 53.0165C124.647 54.8386 124.674 56.212 124.674 57.1367C124.674 59.7747 123.518 62.2904 121.206 64.6836C118.895 67.0497 116.406 68.2327 113.741 68.2327C108.927 68.2327 105.542 67.3217 103.583 65.4995C101.544 63.623 100.524 60.3458 100.524 55.6681C100.524 54.7706 100.565 53.4244 100.646 51.6295C100.755 49.8345 100.809 48.4883 100.809 47.5908C100.809 45.6055 100.592 44.1505 100.157 43.2259C99.9391 42.7907 99.5176 42.3284 98.892 41.8389C98.4297 41.4853 98.1985 41.0094 98.1985 40.4111C98.1985 39.2416 98.9736 38.3849 100.524 37.841C101.584 37.4603 102.849 37.2699 104.318 37.2699C108.778 37.2699 111.008 38.2218 111.008 40.1255C111.008 40.7238 110.777 41.2269 110.314 41.6349C109.689 42.1788 109.308 42.6003 109.172 42.8995C108.71 43.9873 108.479 45.8095 108.479 48.3659L108.438 48.2843C108.465 50.7864 108.71 52.4726 109.172 53.3428C109.879 54.5939 111.389 55.2194 113.7 55.2194C115.658 55.2194 116.977 54.8114 117.657 53.9955C118.365 53.1797 118.718 51.7655 118.718 49.7529C118.718 47.686 118.636 46.0679 118.473 44.8984C118.283 43.4842 117.807 42.546 117.045 42.0836C116.366 41.7029 116.026 41.1453 116.026 40.4111C116.026 38.3169 118.174 37.2699 122.471 37.2699C123.586 37.2699 124.565 37.4467 125.408 37.8002C126.523 38.2898 127.081 39.024 127.081 40.0031C127.081 40.6014 126.85 41.1046 126.387 41.5125C125.789 42.0292 125.422 42.4372 125.286 42.7363C124.796 43.933 124.552 45.9727 124.552 48.8555Z" fill="white"/>
<path d="M170.527 64.2349C170.418 65.8123 169.276 66.9273 167.1 67.58C165.686 68.0424 163.959 68.2735 161.919 68.2735C159.879 68.2735 158.411 68.0967 157.513 67.7432C156.018 67.1721 155.27 66.057 155.27 64.3981C155.27 63.7726 155.365 63.0655 155.555 62.2768C156.779 61.0529 157.391 59.1764 157.391 56.6472C157.391 55.7769 156.793 55.1106 155.596 54.6482C154.699 54.2947 153.72 54.1179 152.659 54.1179C152.659 54.1179 152.278 54.1859 151.517 54.3219C150.51 54.9202 150.007 56.0624 150.007 57.7486C150.007 58.9724 150.266 60.0331 150.782 60.9306C151 61.2569 151.503 61.8416 152.292 62.6847C152.808 63.2558 153.067 63.7862 153.067 64.2757C153.067 66.1522 152.088 67.3624 150.13 67.9064C149.178 68.1783 147.451 68.3143 144.949 68.3143C141.196 68.3143 139.319 67.376 139.319 65.4995C139.292 63.8405 140.013 62.4943 141.481 61.4609C143.195 60.2371 144.704 57.6126 146.009 53.5876C147.124 50.0793 147.682 47.0197 147.682 44.4089C147.682 43.4026 147.505 42.5596 147.152 41.8796C146.961 41.4989 146.649 41.1046 146.213 40.6966C145.86 40.3703 145.683 40.1255 145.683 39.9623C145.683 39.0648 147.138 38.2898 150.048 37.637C152.523 37.0931 154.331 36.8756 155.474 36.9843C157.405 37.1747 158.873 37.7594 159.879 38.7385C160.342 39.2008 161.022 40.2615 161.919 41.9204C162.191 42.4644 162.531 43.525 162.939 45.1024C164.516 51.3847 166.107 56.1168 167.712 59.2988C167.93 59.7611 168.337 60.2371 168.936 60.7266C169.534 61.1889 169.928 61.5697 170.119 61.8688C170.445 62.4399 170.581 63.2286 170.527 64.2349ZM156.086 48.5699C156.086 48.3523 155.841 47.6316 155.351 46.4078C154.889 45.2928 154.277 44.7352 153.516 44.7352C153.053 44.7352 152.564 45.32 152.047 46.4894C151.612 47.4957 151.394 48.2707 151.394 48.8147C151.394 49.0594 151.748 49.1818 152.455 49.1818C152.618 49.1818 152.89 49.1682 153.271 49.141C153.652 49.0866 153.923 49.0594 154.087 49.0594C154.631 49.0594 154.971 49.1002 155.107 49.1818C155.759 49.1274 156.086 48.9235 156.086 48.5699Z" fill="white"/>
<path d="M183.417 41.4717C183.064 41.4717 182.737 41.6077 182.438 41.8796C182.166 42.1244 182.058 42.4236 182.112 42.7771L182.438 46.9789C182.493 47.686 182.737 48.0396 183.173 48.0396C183.989 48.0396 184.641 47.6452 185.131 46.8565C185.566 46.1494 185.783 45.3608 185.783 44.4905C185.783 42.478 184.995 41.4717 183.417 41.4717ZM183.295 54.1179C183.866 57.9798 184.451 60.3186 185.049 61.1345C185.403 61.5153 185.77 61.9232 186.151 62.3584C186.531 62.7935 186.722 63.2286 186.722 63.6638C186.722 65.8939 186.164 67.2673 185.049 67.784C184.179 68.1919 181.854 68.3959 178.073 68.3959C174.973 68.3959 172.906 68.1103 171.873 67.5392C170.866 66.9409 170.404 65.7443 170.486 63.9493C170.513 63.5414 170.771 63.0927 171.261 62.6031C171.859 62.0048 172.213 61.6105 172.321 61.4201C172.702 60.6586 173.164 58.6869 173.708 55.5049C174.198 52.6493 174.565 49.9433 174.81 47.3869C174.728 44.6129 174.361 42.9539 173.708 42.41C173.464 42.274 173.124 42.07 172.689 41.7981C172.362 41.4717 172.199 41.0094 172.199 40.4111C172.199 39.296 172.906 38.4665 174.32 37.9226C175.463 37.4603 176.904 37.2427 178.644 37.2699C179.27 37.2971 179.841 37.3243 180.358 37.3515C182.778 37.2427 184.301 37.1883 184.927 37.1883C187.184 37.1883 189.169 37.637 190.883 38.5345C193.004 39.6224 194.065 41.1997 194.065 43.2667C194.065 45.8503 192.678 47.9036 189.904 49.4266C190.176 50.2697 190.76 50.8952 191.658 51.3031C192.99 51.9014 193.67 52.2006 193.698 52.2006C194.813 53.1253 195.642 54.0907 196.186 55.097C196.676 55.9945 197.083 57.2047 197.41 58.7277C197.872 60.985 198.566 62.9023 199.49 64.4797C199.545 64.5884 199.898 64.9828 200.551 65.6627C201.041 66.1794 201.285 66.6146 201.285 66.9681C201.285 67.2401 201.054 67.512 200.592 67.784C200.265 67.9744 199.939 68.1783 199.613 68.3959C199.123 68.4231 198.321 68.5319 197.206 68.7223C196.281 68.8854 195.492 68.967 194.84 68.967C192.011 68.967 190.067 67.852 189.006 65.6219C188.489 64.5341 188 62.236 187.538 58.7277C187.13 55.7905 186.436 53.8868 185.457 53.0165C185.131 52.7445 184.736 52.6629 184.274 52.7717C183.513 52.9621 183.186 53.4108 183.295 54.1179Z" fill="white"/>
<path d="M205.37 45.1024C205.207 43.6882 204.881 42.7907 204.391 42.41C204.147 42.274 203.807 42.07 203.372 41.7981C203.045 41.4717 202.882 41.0094 202.882 40.4111C202.882 39.296 203.589 38.4665 205.003 37.9226C206.173 37.4603 207.614 37.2427 209.327 37.2699C209.654 37.2699 210.143 37.2971 210.796 37.3515C211.476 37.4059 211.993 37.4331 212.346 37.4331C213.271 37.4331 214.78 37.3651 216.874 37.2291C218.969 37.0931 220.451 37.0251 221.321 37.0251C222.49 37.0251 223.401 37.7594 224.054 39.228C224.544 40.3703 224.788 41.6077 224.788 42.9403C224.788 43.7834 224.625 44.4905 224.299 45.0616C223.864 45.7687 223.266 46.1222 222.504 46.1222C221.77 46.1222 221.144 45.7823 220.627 45.1024C219.866 44.0961 219.281 43.457 218.873 43.1851C217.867 42.478 216.385 42.1244 214.427 42.1244C213.856 42.1244 213.556 42.1244 213.529 42.1244C213.257 42.2332 213.067 42.5595 212.958 43.1035C212.904 43.2938 212.877 43.4842 212.877 43.6746C212.877 44.5721 213.325 45.3064 214.223 45.8775C215.011 46.367 215.95 46.6118 217.038 46.6118C217.255 46.6118 217.514 46.4622 217.813 46.163C218.139 45.8639 218.411 45.7143 218.629 45.7143C219.036 45.7143 219.24 46.0135 219.24 46.6118C219.24 47.5636 219.118 48.4747 218.873 49.345C218.52 50.5688 218.003 51.1807 217.323 51.1807C216.888 51.1807 216.466 50.8408 216.059 50.1609C215.678 49.481 215.107 49.141 214.345 49.141C213.475 49.141 213.04 49.8617 213.04 51.3031C213.04 54.7026 215.011 56.4024 218.955 56.4024C219.118 56.4024 219.376 56.3616 219.73 56.28C220.084 56.1984 220.356 56.1848 220.546 56.2392C220.736 56.2664 220.899 56.28 221.035 56.28C221.715 56.28 222.273 55.9537 222.708 55.301C223.17 54.6482 223.537 54.3219 223.809 54.3219C224.217 54.3219 224.571 54.5939 224.87 55.1378C225.169 55.6817 225.319 56.1848 225.319 56.6472C225.319 56.9191 225.346 57.6262 225.4 58.7685C225.482 59.8835 225.523 60.8082 225.523 61.5425C225.523 64.8604 224.843 67.0089 223.483 67.988C222.966 68.3415 221.239 68.5183 218.302 68.5183C217.486 68.5183 216.371 68.5319 214.957 68.5591C213.788 68.5863 212.645 68.5863 211.53 68.5591L203.861 68.5183C202.474 68.4911 201.781 67.8248 201.781 66.5194C201.781 66.0026 201.984 65.5403 202.392 65.1324C203.072 64.4525 203.453 64.0309 203.535 63.8677L204.31 62.6439C204.691 62.0184 204.922 60.4682 205.003 57.9934L205.33 47.4685C205.384 46.571 205.398 45.7823 205.37 45.1024Z" fill="white"/>
<path d="M245.519 57.2183C247.396 57.2183 248.334 56.3208 248.334 54.5259C248.334 53.9275 247.709 53.0981 246.458 52.0374C244.581 50.4056 243.452 49.3722 243.072 48.937C241.821 47.55 241.195 46.163 241.195 44.776C241.195 42.3012 242.188 40.3431 244.173 38.9017C245.941 37.6234 248.103 36.9843 250.659 36.9843C251.475 36.9843 252.645 37.1339 254.168 37.4331C255.718 37.7322 256.914 37.8818 257.758 37.8818C259.226 37.8818 259.96 39.568 259.96 42.9403C259.96 44.8712 259.199 45.8367 257.676 45.8367C256.615 45.8367 255.595 45.0616 254.616 43.5114C253.665 41.9612 252.74 41.1861 251.842 41.1861C249.857 41.1861 248.864 41.9068 248.864 43.3482C248.864 44.1913 249.979 45.1432 252.21 46.2038C255.228 47.618 257.282 48.8011 258.369 49.7529C260.6 51.6839 261.715 54.1587 261.715 57.1775C261.715 60.4682 260.64 63.1742 258.492 65.2955C256.371 67.4168 253.678 68.4775 250.415 68.4775C247.069 68.4775 244.35 67.6616 242.256 66.0298C239.944 64.2621 238.788 61.7464 238.788 58.4829C238.788 56.8511 239.631 56.0352 241.317 56.0352C241.861 56.0352 242.419 56.2392 242.99 56.6472C243.588 57.0279 244.431 57.2183 245.519 57.2183Z" fill="white"/>
<path d="M265.924 45.1024C265.761 43.6882 265.435 42.7907 264.945 42.41C264.701 42.274 264.361 42.07 263.925 41.7981C263.599 41.4717 263.436 41.0094 263.436 40.4111C263.436 39.296 264.143 38.4665 265.557 37.9226C266.727 37.4603 268.168 37.2427 269.881 37.2699C270.208 37.2699 270.697 37.2971 271.35 37.3515C272.03 37.4059 272.547 37.4331 272.9 37.4331C273.825 37.4331 275.334 37.3651 277.428 37.2291C279.522 37.0931 281.005 37.0251 281.875 37.0251C283.044 37.0251 283.955 37.7594 284.608 39.228C285.098 40.3703 285.342 41.6077 285.342 42.9403C285.342 43.7834 285.179 44.4905 284.853 45.0616C284.418 45.7687 283.819 46.1222 283.058 46.1222C282.324 46.1222 281.698 45.7823 281.181 45.1024C280.42 44.0961 279.835 43.457 279.427 43.1851C278.421 42.478 276.939 42.1244 274.981 42.1244C274.41 42.1244 274.11 42.1244 274.083 42.1244C273.811 42.2332 273.621 42.5595 273.512 43.1035C273.458 43.2938 273.431 43.4842 273.431 43.6746C273.431 44.5721 273.879 45.3064 274.777 45.8775C275.565 46.367 276.504 46.6118 277.592 46.6118C277.809 46.6118 278.067 46.4622 278.367 46.163C278.693 45.8639 278.965 45.7143 279.183 45.7143C279.59 45.7143 279.794 46.0135 279.794 46.6118C279.794 47.5636 279.672 48.4747 279.427 49.345C279.074 50.5688 278.557 51.1807 277.877 51.1807C277.442 51.1807 277.02 50.8408 276.612 50.1609C276.232 49.481 275.661 49.141 274.899 49.141C274.029 49.141 273.594 49.8617 273.594 51.3031C273.594 54.7026 275.565 56.4024 279.509 56.4024C279.672 56.4024 279.93 56.3616 280.284 56.28C280.638 56.1984 280.909 56.1848 281.1 56.2392C281.29 56.2664 281.453 56.28 281.589 56.28C282.269 56.28 282.827 55.9537 283.262 55.301C283.724 54.6482 284.091 54.3219 284.363 54.3219C284.771 54.3219 285.125 54.5939 285.424 55.1378C285.723 55.6817 285.873 56.1848 285.873 56.6472C285.873 56.9191 285.9 57.6262 285.954 58.7685C286.036 59.8835 286.077 60.8082 286.077 61.5425C286.077 64.8604 285.397 67.0089 284.037 67.988C283.52 68.3415 281.793 68.5183 278.856 68.5183C278.04 68.5183 276.925 68.5319 275.511 68.5591C274.342 68.5863 273.199 68.5863 272.084 68.5591L264.415 68.5183C263.028 68.4911 262.334 67.8248 262.334 66.5194C262.334 66.0026 262.538 65.5403 262.946 65.1324C263.626 64.4525 264.007 64.0309 264.089 63.8677L264.864 62.6439C265.244 62.0184 265.476 60.4682 265.557 57.9934L265.884 47.4685C265.938 46.571 265.952 45.7823 265.924 45.1024Z" fill="white"/>
<path d="M304.496 68.1103L302.415 68.1919C301.164 68.3551 299.533 68.4095 297.52 68.3551C294.093 68.2735 292.448 68.2327 292.584 68.2327C289.157 68.2327 287.444 66.9545 287.444 64.3981C287.444 63.8269 287.811 62.7935 288.545 61.2977C289.361 59.6659 289.837 58.4829 289.973 57.7486C290.517 54.4851 290.789 51.2623 290.789 48.0804C290.762 44.9528 290.354 43.0627 289.565 42.41C289.321 42.274 288.981 42.07 288.545 41.7981C288.219 41.4717 288.056 41.0094 288.056 40.4111C288.056 39.296 288.763 38.4665 290.177 37.9226C291.347 37.4603 292.788 37.2427 294.501 37.2699C296.922 37.2971 298.622 37.5827 299.601 38.1266C300.444 38.5617 300.865 39.228 300.865 40.1255C300.865 40.6694 300.729 41.0638 300.457 41.3085C300.213 41.5533 299.954 41.7845 299.682 42.002C299.41 42.2196 299.206 42.5188 299.07 42.8995C298.581 44.0689 298.336 45.7143 298.336 47.8356C298.336 50.8 298.363 52.4454 298.418 52.7717C299.016 56.4976 299.913 58.3605 301.11 58.3605C301.899 58.3605 302.66 58.1158 303.395 57.6262C304.482 56.9191 305.217 56.484 305.597 56.3208C306.332 56.0217 306.876 55.8721 307.229 55.8721C307.583 55.8721 307.936 55.9945 308.29 56.2392C308.943 56.7016 309.323 57.0279 309.432 57.2183C309.65 57.6534 309.758 58.5645 309.758 59.9515C309.758 63.4054 309.242 65.7987 308.208 67.1313C307.664 67.8112 306.903 68.1511 305.924 68.1511C305.761 68.1511 305.502 68.1375 305.149 68.1103C304.85 68.0831 304.632 68.0831 304.496 68.1103Z" fill="white"/>
<path d="M313.892 47.4277V47.3869C313.865 44.6401 313.498 42.9811 312.791 42.41C312.546 42.274 312.206 42.07 311.771 41.7981C311.445 41.4717 311.282 41.0094 311.282 40.4111C311.282 39.296 311.989 38.4665 313.403 37.9226C314.572 37.4603 316.014 37.2427 317.727 37.2699C317.863 37.2699 318.067 37.2835 318.339 37.3107C318.584 37.3107 318.774 37.3107 318.91 37.3107C318.72 37.3107 319.658 37.3107 321.725 37.3107C322.677 37.3107 324.077 37.2019 325.927 36.9843C327.776 36.7396 329.136 36.6172 330.006 36.6172C331.148 36.6172 332.046 37.3515 332.699 38.8201C333.215 39.9623 333.474 41.1997 333.474 42.5324C333.474 43.3754 333.297 44.0825 332.943 44.6537C332.535 45.3608 331.951 45.7143 331.189 45.7143C330.536 45.7143 329.979 45.3472 329.517 44.6129C328.837 43.4978 328.347 42.8179 328.048 42.5731C327.232 41.8389 326.063 41.4853 324.54 41.5125C322.663 41.5669 321.725 42.0836 321.725 43.0627C321.725 44.0689 322.119 44.844 322.908 45.388C323.615 45.8503 324.499 46.0815 325.56 46.0815C325.777 46.0815 326.063 45.9591 326.416 45.7143C326.77 45.4423 327.069 45.3064 327.314 45.3064C327.749 45.3064 327.966 46.9245 327.966 50.1609C327.966 50.5688 327.844 50.936 327.599 51.2623C327.354 51.5887 327.028 51.7519 326.62 51.7519C326.321 51.7519 325.845 51.3847 325.192 50.6504C324.54 49.9161 323.819 49.549 323.03 49.549C322.405 49.549 322.01 49.7529 321.847 50.1609C321.766 50.3784 321.711 50.8952 321.684 51.7111C321.575 55.0834 321.861 58.1973 322.541 61.0529C322.677 61.6785 323.425 62.6303 324.784 63.9085C326.008 65.078 326.579 66.0842 326.498 66.9273C326.416 67.8248 325.546 68.2735 323.887 68.2735C323.452 68.2735 322.813 68.2327 321.97 68.1511C321.127 68.0967 320.528 68.0696 320.175 68.0696L312.505 68.1511C311.118 68.1511 310.425 67.4712 310.425 66.1114C310.425 65.5675 310.751 64.9148 311.404 64.1533C311.921 63.5822 312.437 63.0111 312.954 62.4399C313.716 61.5153 314.083 60.441 314.056 59.2172L313.892 47.4277Z" fill="white"/>
<path d="M352.011 53.3428C352.011 53.8596 351.698 54.8114 351.072 56.1984C351.018 56.3072 350.828 56.7288 350.501 57.463C349.849 58.1158 348.434 58.4421 346.259 58.4421C345.932 58.4421 344.831 58.4149 342.954 58.3605C341.867 58.3061 340.779 58.2653 339.691 58.2381C338.739 58.2381 337.583 58.2109 336.223 58.1565C335.081 58.0206 334.401 57.6398 334.184 57.0143C334.32 56.0081 334.673 54.8386 335.244 53.506C335.652 52.5813 336.305 51.9966 337.202 51.7519C337.556 51.7519 338.929 51.7926 341.323 51.8742C343.852 51.9286 345.497 51.9558 346.259 51.9558C347.292 51.983 348.203 51.9966 348.992 51.9966C349.536 51.9694 350.012 51.9558 350.42 51.9558C350.855 51.9286 351.086 51.915 351.113 51.915C351.712 52.187 352.011 52.6629 352.011 53.3428Z" fill="white"/>
<path d="M100.873 83.0818C100.519 83.0818 100.193 83.2178 99.8937 83.4898C99.6218 83.7345 99.513 84.0337 99.5674 84.3872L99.8937 88.5891C99.9481 89.2962 100.193 89.6497 100.628 89.6497C101.444 89.6497 102.097 89.2554 102.586 88.4667C103.021 87.7596 103.239 86.9709 103.239 86.1006C103.239 84.0881 102.45 83.0818 100.873 83.0818ZM100.75 95.7281C101.322 99.5899 101.906 101.929 102.505 102.745C102.858 103.125 103.225 103.533 103.606 103.968C103.987 104.404 104.177 104.839 104.177 105.274C104.177 107.504 103.62 108.877 102.505 109.394C101.634 109.802 99.309 110.006 95.5287 110.006C92.4284 110.006 90.3615 109.72 89.328 109.149C88.3218 108.551 87.8594 107.354 87.941 105.559C87.9682 105.152 88.2266 104.703 88.7161 104.213C89.3144 103.615 89.668 103.221 89.7768 103.03C90.1575 102.269 90.6198 100.297 91.1638 97.1151C91.6533 94.2595 92.0204 91.5534 92.2652 88.997C92.1836 86.223 91.8165 84.564 91.1638 84.0201C90.919 83.8841 90.579 83.6801 90.1439 83.4082C89.8176 83.0818 89.6544 82.6195 89.6544 82.0212C89.6544 80.9061 90.3615 80.0767 91.7757 79.5327C92.9179 79.0704 94.3593 78.8528 96.0999 78.88C96.7254 78.9072 97.2965 78.9344 97.8132 78.9616C100.234 78.8528 101.757 78.7984 102.382 78.7984C104.639 78.7984 106.625 79.2472 108.338 80.1446C110.459 81.2325 111.52 82.8099 111.52 84.8768C111.52 87.4604 110.133 89.5137 107.359 91.0367C107.631 91.8798 108.216 92.5053 109.113 92.9132C110.446 93.5116 111.126 93.8107 111.153 93.8107C112.268 94.7354 113.097 95.7009 113.641 96.7071C114.131 97.6046 114.539 98.8148 114.865 100.338C115.328 102.595 116.021 104.512 116.946 106.09C117 106.199 117.354 106.593 118.006 107.273C118.496 107.79 118.741 108.225 118.741 108.578C118.741 108.85 118.51 109.122 118.047 109.394C117.721 109.584 117.394 109.788 117.068 110.006C116.579 110.033 115.776 110.142 114.661 110.332C113.737 110.496 112.948 110.577 112.295 110.577C109.467 110.577 107.522 109.462 106.462 107.232C105.945 106.144 105.455 103.846 104.993 100.338C104.585 97.4006 103.892 95.4969 102.913 94.6266C102.586 94.3546 102.192 94.2731 101.729 94.3818C100.968 94.5722 100.642 95.021 100.75 95.7281Z" fill="white"/>
<path d="M122.826 86.7125C122.663 85.2983 122.336 84.4008 121.847 84.0201C121.602 83.8841 121.262 83.6801 120.827 83.4082C120.501 83.0818 120.337 82.6195 120.337 82.0212C120.337 80.9061 121.044 80.0767 122.459 79.5327C123.628 79.0704 125.07 78.8528 126.783 78.88C127.109 78.88 127.599 78.9072 128.251 78.9616C128.931 79.016 129.448 79.0432 129.802 79.0432C130.726 79.0432 132.236 78.9752 134.33 78.8392C136.424 78.7032 137.906 78.6353 138.776 78.6353C139.946 78.6353 140.857 79.3696 141.51 80.8382C141.999 81.9804 142.244 83.2178 142.244 84.5504C142.244 85.3935 142.081 86.1006 141.754 86.6717C141.319 87.3788 140.721 87.7324 139.959 87.7324C139.225 87.7324 138.6 87.3924 138.083 86.7125C137.321 85.7063 136.737 85.0672 136.329 84.7952C135.322 84.0881 133.84 83.7345 131.882 83.7345C131.311 83.7345 131.012 83.7345 130.985 83.7345C130.713 83.8433 130.522 84.1697 130.414 84.7136C130.359 84.904 130.332 85.0943 130.332 85.2847C130.332 86.1822 130.781 86.9165 131.678 87.4876C132.467 87.9771 133.405 88.2219 134.493 88.2219C134.711 88.2219 134.969 88.0723 135.268 87.7732C135.594 87.474 135.866 87.3244 136.084 87.3244C136.492 87.3244 136.696 87.6236 136.696 88.2219C136.696 89.1738 136.574 90.0848 136.329 90.9551C135.975 92.1789 135.458 92.7909 134.779 92.7909C134.343 92.7909 133.922 92.4509 133.514 91.771C133.133 91.0911 132.562 90.7512 131.801 90.7512C130.93 90.7512 130.495 91.4718 130.495 92.9132C130.495 96.3128 132.467 98.0125 136.41 98.0125C136.573 98.0125 136.832 97.9717 137.185 97.8901C137.539 97.8086 137.811 97.795 138.001 97.8493C138.192 97.8765 138.355 97.8901 138.491 97.8901C139.171 97.8901 139.728 97.5638 140.163 96.9111C140.626 96.2584 140.993 95.932 141.265 95.932C141.673 95.932 142.026 96.204 142.325 96.7479C142.625 97.2918 142.774 97.795 142.774 98.2573C142.774 98.5293 142.801 99.2364 142.856 100.379C142.937 101.494 142.978 102.418 142.978 103.153C142.978 106.471 142.298 108.619 140.938 109.598C140.422 109.952 138.695 110.128 135.758 110.128C134.942 110.128 133.827 110.142 132.412 110.169C131.243 110.196 130.101 110.196 128.986 110.169L121.316 110.128C119.929 110.101 119.236 109.435 119.236 108.13C119.236 107.613 119.44 107.15 119.848 106.742C120.528 106.063 120.909 105.641 120.99 105.478L121.765 104.254C122.146 103.629 122.377 102.078 122.459 99.6035L122.785 89.0786C122.839 88.1811 122.853 87.3924 122.826 86.7125Z" fill="white"/>
<path d="M162.295 93.8107C162.295 93.566 162.023 93.2396 161.479 92.8317C160.935 92.4237 160.663 92.0158 160.663 91.6078C160.663 90.4656 162.186 89.8945 165.232 89.8945C165.205 89.8945 165.45 89.8809 165.966 89.8537C166.483 89.7993 166.959 89.7721 167.394 89.7721C169.624 89.7721 170.767 90.2208 170.821 91.1183C170.848 91.7166 170.658 92.2741 170.25 92.7909C169.679 93.5252 169.352 93.9603 169.271 94.0963C168.89 95.021 168.781 95.932 168.944 96.8295C169.543 100.066 169.842 102.296 169.842 103.52C169.842 104.064 169.76 104.417 169.597 104.58C169.216 104.961 168.659 105.22 167.925 105.355C167.19 105.491 166.755 105.614 166.619 105.723C164.28 107.572 162.798 108.66 162.173 108.986C160.813 109.666 158.895 110.006 156.421 110.006C152.695 110.006 149.649 108.306 147.283 104.907C145.161 101.888 144.101 98.4205 144.101 94.5042C144.101 90.5608 145.243 87.0117 147.527 83.8569C150.057 80.3486 153.252 78.5945 157.114 78.5945C157.685 78.5945 158.501 78.7304 159.562 79.0024C160.65 79.2744 161.452 79.4104 161.969 79.4104C162.241 79.4104 162.648 79.288 163.192 79.0432C163.736 78.7984 164.144 78.6761 164.416 78.6761C165.286 78.6761 165.939 79.1792 166.374 80.1854C166.701 80.9469 166.864 81.8036 166.864 82.7555C166.864 84.3872 166.741 85.5431 166.497 86.223C166.062 87.3652 165.164 87.9363 163.804 87.9363C162.716 87.9363 161.928 87.5828 161.438 86.8757C161.085 86.1958 160.745 85.5159 160.418 84.836C159.902 84.1289 159.086 83.7753 157.971 83.7753C156.72 83.7753 155.632 84.4416 154.707 85.7743C153.837 86.9981 153.402 88.2491 153.402 89.5273C153.402 91.4039 154.19 92.8317 155.768 93.8107C157.046 94.5722 158.664 94.953 160.622 94.953C161.737 94.953 162.295 94.5722 162.295 93.8107Z" fill="white"/>
<path d="M197.416 90.4656C197.416 91.3903 197.429 92.7773 197.456 94.6266C197.511 96.4487 197.538 97.8222 197.538 98.7468C197.538 101.385 196.382 103.9 194.07 106.294C191.759 108.66 189.27 109.843 186.605 109.843C181.791 109.843 178.405 108.932 176.447 107.11C174.408 105.233 173.388 101.956 173.388 97.2782C173.388 96.3808 173.429 95.0345 173.51 93.2396C173.619 91.4447 173.673 90.0984 173.673 89.201C173.673 87.2156 173.456 85.7607 173.021 84.836C172.803 84.4008 172.382 83.9385 171.756 83.449C171.294 83.0954 171.062 82.6195 171.062 82.0212C171.062 80.8517 171.838 79.9951 173.388 79.4511C174.448 79.0704 175.713 78.88 177.182 78.88C181.642 78.88 183.872 79.8319 183.872 81.7356C183.872 82.3339 183.641 82.8371 183.178 83.245C182.553 83.7889 182.172 84.2105 182.036 84.5096C181.574 85.5975 181.343 87.4196 181.343 89.9761L181.302 89.8945C181.329 92.3965 181.574 94.0827 182.036 94.953C182.743 96.204 184.253 96.8295 186.564 96.8295C188.522 96.8295 189.841 96.4216 190.521 95.6057C191.228 94.7898 191.582 93.3756 191.582 91.3631C191.582 89.2962 191.5 87.678 191.337 86.5085C191.147 85.0943 190.671 84.1561 189.909 83.6937C189.23 83.313 188.89 82.7555 188.89 82.0212C188.89 79.9271 191.038 78.88 195.335 78.88C196.45 78.88 197.429 79.0568 198.272 79.4104C199.387 79.8999 199.945 80.6342 199.945 81.6132C199.945 82.2116 199.714 82.7147 199.251 83.1226C198.653 83.6394 198.286 84.0473 198.15 84.3465C197.66 85.5431 197.416 87.5828 197.416 90.4656Z" fill="white"/>
<path d="M217.051 109.72L214.971 109.802C213.72 109.965 212.088 110.02 210.075 109.965C206.649 109.884 205.003 109.843 205.139 109.843C201.713 109.843 199.999 108.565 199.999 106.008C199.999 105.437 200.366 104.404 201.101 102.908C201.917 101.276 202.393 100.093 202.529 99.3587C203.072 96.0952 203.344 92.8724 203.344 89.6905C203.317 86.5629 202.909 84.6728 202.121 84.0201C201.876 83.8841 201.536 83.6801 201.101 83.4082C200.774 83.0818 200.611 82.6195 200.611 82.0212C200.611 80.9061 201.318 80.0767 202.733 79.5327C203.902 79.0704 205.343 78.8528 207.057 78.88C209.477 78.9072 211.177 79.1928 212.156 79.7367C212.999 80.1718 213.421 80.8382 213.421 81.7356C213.421 82.2795 213.285 82.6739 213.013 82.9187C212.768 83.1634 212.51 83.3946 212.238 83.6122C211.966 83.8297 211.762 84.1289 211.626 84.5096C211.136 85.6791 210.891 87.3244 210.891 89.4457C210.891 92.4101 210.919 94.0555 210.973 94.3818C211.571 98.1077 212.469 99.9706 213.665 99.9706C214.454 99.9706 215.216 99.7259 215.95 99.2364C217.038 98.5293 217.772 98.0941 218.153 97.9309C218.887 97.6318 219.431 97.4822 219.785 97.4822C220.138 97.4822 220.492 97.6046 220.845 97.8493C221.498 98.3117 221.879 98.638 221.987 98.8284C222.205 99.2635 222.314 100.175 222.314 101.562C222.314 105.016 221.797 107.409 220.764 108.741C220.22 109.421 219.458 109.761 218.479 109.761C218.316 109.761 218.058 109.748 217.704 109.72C217.405 109.693 217.187 109.693 217.051 109.72Z" fill="white"/>
<path d="M254.147 105.845C254.038 107.422 252.896 108.537 250.72 109.19C249.306 109.652 247.579 109.884 245.539 109.884C243.5 109.884 242.031 109.707 241.134 109.353C239.638 108.782 238.89 107.667 238.89 106.008C238.89 105.383 238.985 104.676 239.175 103.887C240.399 102.663 241.011 100.787 241.011 98.2573C241.011 97.387 240.413 96.7207 239.216 96.2584C238.319 95.9048 237.34 95.7281 236.279 95.7281C236.279 95.7281 235.898 95.796 235.137 95.932C234.131 96.5303 233.627 97.6726 233.627 99.3587C233.627 100.583 233.886 101.643 234.403 102.541C234.62 102.867 235.123 103.452 235.912 104.295C236.429 104.866 236.687 105.396 236.687 105.886C236.687 107.762 235.708 108.973 233.75 109.517C232.798 109.788 231.071 109.924 228.569 109.924C224.816 109.924 222.939 108.986 222.939 107.11C222.912 105.451 223.633 104.104 225.101 103.071C226.815 101.847 228.324 99.2228 229.63 95.1977C230.745 91.6894 231.302 88.6299 231.302 86.019C231.302 85.0128 231.125 84.1697 230.772 83.4898C230.581 83.109 230.269 82.7147 229.834 82.3067C229.48 81.9804 229.303 81.7356 229.303 81.5724C229.303 80.675 230.758 79.8999 233.668 79.2472C236.143 78.7032 237.952 78.4857 239.094 78.5945C241.025 78.7848 242.493 79.3696 243.5 80.3486C243.962 80.811 244.642 81.8716 245.539 83.5306C245.811 84.0745 246.151 85.1351 246.559 86.7125C248.137 92.9948 249.728 97.727 251.332 100.909C251.55 101.371 251.958 101.847 252.556 102.337C253.154 102.799 253.549 103.18 253.739 103.479C254.065 104.05 254.201 104.839 254.147 105.845ZM239.706 90.18C239.706 89.9625 239.461 89.2418 238.971 88.0179C238.509 86.9029 237.897 86.3454 237.136 86.3454C236.673 86.3454 236.184 86.9301 235.667 88.0995C235.232 89.1058 235.014 89.8809 235.014 90.4248C235.014 90.6696 235.368 90.7919 236.075 90.7919C236.238 90.7919 236.51 90.7783 236.891 90.7512C237.272 90.6968 237.544 90.6696 237.707 90.6696C238.251 90.6696 238.591 90.7104 238.727 90.7919C239.379 90.7376 239.706 90.5336 239.706 90.18Z" fill="white"/>
<path d="M270.505 91.1183C270.777 93.5116 271.144 95.8504 271.607 98.1349C272.096 100.719 272.518 102.255 272.871 102.745C273.225 103.125 273.592 103.533 273.973 103.968C274.381 104.404 274.585 104.839 274.585 105.274C274.585 107.504 274.013 108.877 272.871 109.394C272.001 109.802 269.676 110.006 265.895 110.006C262.877 110.006 260.851 109.707 259.817 109.109C258.811 108.483 258.308 107.3 258.308 105.559C258.308 105.152 258.566 104.703 259.083 104.213C259.708 103.615 260.062 103.221 260.143 103.03C260.551 102.242 261.027 100.27 261.571 97.1151C262.115 94.0963 262.482 91.3903 262.673 88.997C262.727 88.3715 262.781 86.9029 262.836 84.5912C262.428 84.428 262.224 84.3465 262.224 84.3465C261.87 84.3465 261.558 84.6728 261.286 85.3255C260.905 86.2502 260.565 86.8621 260.266 87.1613C259.64 87.814 258.729 88.1403 257.533 88.1403C256.526 88.1403 255.874 87.814 255.574 87.1613C255.384 86.7533 255.289 85.9646 255.289 84.7952C255.289 83.5714 255.656 82.2931 256.39 80.9605C257.206 79.4104 258.144 78.6353 259.205 78.6353C259.586 78.6353 260.157 78.744 260.918 78.9616C261.68 79.152 262.251 79.2472 262.632 79.2472C267.201 79.2472 270.26 79.1792 271.811 79.0432C271.947 79.016 272.137 78.9344 272.382 78.7984C272.626 78.6625 272.844 78.5945 273.034 78.5945C274.177 78.5945 275.156 79.3424 275.972 80.8382C276.679 82.1164 277.032 83.3946 277.032 84.6728C277.032 86.9845 276.162 88.1403 274.421 88.1403C273.442 88.1403 272.64 87.5012 272.015 86.223C271.389 84.9176 270.763 84.2649 270.138 84.2649C270.138 84.2649 270.002 84.3193 269.73 84.428C269.812 85.3255 270.002 87.0525 270.301 89.6089L270.505 91.1183Z" fill="white"/>
<path d="M280.961 88.997C280.933 86.2502 280.566 84.5912 279.859 84.0201C279.614 83.8841 279.274 83.6801 278.839 83.4082C278.513 83.0818 278.35 82.6195 278.35 82.0212C278.35 80.9061 279.057 80.0767 280.471 79.5327C281.64 79.0704 283.082 78.8528 284.795 78.88C287.216 78.9072 288.915 79.1928 289.895 79.7367C290.738 80.1718 291.159 80.8382 291.159 81.7356C291.159 82.2795 291.023 82.6739 290.751 82.9187C290.506 83.1634 290.248 83.3946 289.976 83.6122C289.704 83.8297 289.5 84.1289 289.364 84.5096C288.875 85.7063 288.63 87.5284 288.63 89.9761V90.18C288.875 92.5189 289.255 94.9802 289.772 97.5638C290.316 100.474 290.792 102.201 291.2 102.745C291.553 103.125 291.921 103.533 292.301 103.968C292.709 104.404 292.913 104.839 292.913 105.274C292.913 107.504 292.342 108.877 291.2 109.394C290.33 109.802 288.004 110.006 284.224 110.006C281.178 110.006 279.152 109.707 278.146 109.109C277.14 108.483 276.636 107.3 276.636 105.559C276.636 105.152 276.895 104.703 277.411 104.213C278.037 103.615 278.391 103.221 278.472 103.03C278.853 102.269 279.315 100.297 279.859 97.1151C280.349 94.2595 280.716 91.5534 280.961 88.997Z" fill="white"/>
<path d="M320.032 98.6244C320.032 102.051 318.74 104.92 316.156 107.232C313.708 109.408 310.758 110.496 307.304 110.496C303.442 110.496 300.342 108.973 298.003 105.927C295.909 103.153 294.862 99.7667 294.862 95.7688C294.862 91.3631 295.922 87.5148 298.043 84.2241C300.491 80.4166 303.795 78.5129 307.956 78.5129C311.982 78.5129 315.095 80.8246 317.298 85.4479C319.121 89.2282 320.032 93.6203 320.032 98.6244ZM311.098 93.2804C311.098 91.4854 310.703 89.5001 309.915 87.3244C308.936 84.6048 307.725 83.245 306.284 83.245C305.441 83.245 304.788 83.8705 304.326 85.1215C303.972 86.0734 303.795 87.0933 303.795 88.1811C303.795 90.0305 304.095 91.7574 304.693 93.362C305.509 95.5105 306.705 96.5847 308.283 96.5847C310.159 96.5847 311.098 95.4833 311.098 93.2804Z" fill="white"/>
<path d="M333.703 95.7688C333.703 96.4487 333.948 97.6998 334.437 99.5219C334.954 101.317 335.348 102.405 335.62 102.785C335.92 103.166 336.232 103.547 336.559 103.928C336.967 104.39 337.211 104.839 337.293 105.274C337.375 105.818 337.415 106.307 337.415 106.742C337.415 107.939 336.98 108.782 336.11 109.272C335.403 109.652 334.138 109.884 332.316 109.965C331.473 110.074 329.637 110.128 326.809 110.128C325.721 110.128 324.606 109.911 323.464 109.476C322.457 109.122 321.791 108.619 321.465 107.966C321.166 107.504 321.016 106.96 321.016 106.335C321.016 106.226 321.016 106.117 321.016 106.008C321.016 105.872 321.016 105.723 321.016 105.559C321.016 105.206 321.193 104.839 321.546 104.458C321.846 104.159 322.158 103.846 322.485 103.52C323.301 100.419 323.885 97.5366 324.239 94.8714C324.538 92.7229 324.742 90.7647 324.851 88.997C325.014 86.4134 324.647 84.7544 323.749 84.0201C323.505 83.8841 323.165 83.6801 322.729 83.4082C322.403 83.0818 322.24 82.6195 322.24 82.0212C322.24 80.9061 322.947 80.0767 324.361 79.5327C325.503 79.0704 326.945 78.8528 328.685 78.88C331.65 78.9344 333.553 79.356 334.397 80.1446C335.675 80.9877 336.831 83.0002 337.864 86.1822C339.006 89.6089 340.121 91.8526 341.209 92.9132C341.481 93.158 341.78 93.226 342.107 93.1172C342.433 92.7093 342.596 92.111 342.596 91.3223C342.596 91.0231 342.555 90.5608 342.474 89.9353C342.474 89.8809 342.474 89.8129 342.474 89.7313L342.433 89.6497C342.351 88.997 342.256 88.3035 342.147 87.5692C341.685 86.0462 340.937 84.8632 339.904 84.0201C339.659 83.8841 339.319 83.6801 338.884 83.4082C338.585 83.0818 338.435 82.6195 338.435 82.0212C338.435 80.9061 339.142 80.0767 340.556 79.5327C341.699 79.0704 343.14 78.8528 344.881 78.88C347.274 78.9072 348.974 79.1928 349.98 79.7367C350.796 80.1718 351.204 80.8382 351.204 81.7356C351.204 82.2795 351.081 82.6739 350.837 82.9187C350.592 83.1634 350.334 83.3946 350.062 83.6122C349.79 83.8297 349.572 84.1289 349.409 84.5096C349.082 85.0807 348.756 85.6655 348.43 86.2638C347.94 87.27 347.695 88.3987 347.695 89.6497C347.695 89.5953 347.695 89.7721 347.695 90.18C347.75 91.6758 348.171 93.9331 348.96 96.9519C349.694 99.8347 350.062 102.078 350.062 103.683C350.062 105.804 349.885 107.273 349.531 108.089C348.96 109.367 347.777 110.006 345.982 110.006C343.997 110.006 342.202 108.714 340.597 106.131C340.189 105.451 339.074 103.057 337.252 98.9508C336.11 96.3672 335.076 95.0753 334.152 95.0753C333.853 95.0753 333.703 95.3065 333.703 95.7688Z" fill="white"/>
<path d="M204.429 124.57C203.749 124.57 203.409 125.032 203.409 125.957C203.409 127.888 203.437 129.152 203.491 129.75C203.518 130.077 203.532 130.403 203.532 130.73C203.559 131.056 203.736 131.301 204.062 131.464C204.117 131.491 204.266 131.518 204.511 131.545C205.408 131.545 206.115 131.137 206.632 130.322C207.095 129.587 207.326 128.758 207.326 127.833C207.326 125.657 206.36 124.57 204.429 124.57ZM204.674 136.93C205.381 141.173 205.993 143.648 206.51 144.355C206.863 144.736 207.23 145.143 207.611 145.579C207.992 146.014 208.182 146.449 208.182 146.884C208.182 148.57 207.91 149.726 207.366 150.352C206.823 150.977 205.776 151.358 204.225 151.494C203.437 151.711 202.39 151.82 201.084 151.82C199.779 151.82 198.297 151.711 196.638 151.494C194.788 151.303 193.537 150.895 192.885 150.27C192.259 149.644 191.946 148.611 191.946 147.17C191.946 146.762 192.191 146.313 192.681 145.823C193.306 145.225 193.673 144.831 193.782 144.64C194.571 143.063 195.359 138.725 196.148 131.627V128.935C196.175 127.303 195.835 126.201 195.128 125.63C194.883 125.494 194.543 125.29 194.108 125.018C193.782 124.692 193.619 124.23 193.619 123.631C193.619 122.516 194.326 121.687 195.74 121.143C196.91 120.681 198.351 120.463 200.064 120.49C200.554 120.517 200.744 120.531 200.635 120.531C200.853 120.504 201.166 120.49 201.574 120.49C201.737 120.463 202.417 120.395 203.613 120.286C204.429 120.232 205.259 120.218 206.102 120.245C212.384 120.49 215.525 123.196 215.525 128.363C215.525 131.273 214.791 133.3 213.322 134.442C212.398 135.176 210.861 135.666 208.713 135.91C206.564 136.128 205.218 136.468 204.674 136.93Z" fill="white"/>
<path d="M219.194 128.323C219.031 126.908 218.705 126.011 218.215 125.63C217.97 125.494 217.63 125.29 217.195 125.018C216.869 124.692 216.706 124.23 216.706 123.631C216.706 122.516 217.413 121.687 218.827 121.143C219.997 120.681 221.438 120.463 223.151 120.49C223.478 120.49 223.967 120.517 224.62 120.572C225.3 120.626 225.817 120.653 226.17 120.653C227.095 120.653 228.604 120.585 230.698 120.449C232.792 120.313 234.275 120.245 235.145 120.245C236.314 120.245 237.225 120.98 237.878 122.448C238.368 123.591 238.612 124.828 238.612 126.161C238.612 127.004 238.449 127.711 238.123 128.282C237.688 128.989 237.089 129.343 236.328 129.343C235.594 129.343 234.968 129.003 234.451 128.323C233.69 127.316 233.105 126.677 232.697 126.405C231.691 125.698 230.209 125.345 228.251 125.345C227.679 125.345 227.38 125.345 227.353 125.345C227.081 125.453 226.891 125.78 226.782 126.324C226.728 126.514 226.7 126.704 226.7 126.895C226.7 127.792 227.149 128.527 228.047 129.098C228.835 129.587 229.774 129.832 230.861 129.832C231.079 129.832 231.337 129.682 231.637 129.383C231.963 129.084 232.235 128.935 232.452 128.935C232.86 128.935 233.064 129.234 233.064 129.832C233.064 130.784 232.942 131.695 232.697 132.565C232.344 133.789 231.827 134.401 231.147 134.401C230.712 134.401 230.29 134.061 229.882 133.381C229.502 132.701 228.93 132.361 228.169 132.361C227.299 132.361 226.864 133.082 226.864 134.523C226.864 137.923 228.835 139.623 232.779 139.623C232.942 139.623 233.2 139.582 233.554 139.5C233.907 139.419 234.179 139.405 234.37 139.459C234.56 139.487 234.723 139.5 234.859 139.5C235.539 139.5 236.097 139.174 236.532 138.521C236.994 137.869 237.361 137.542 237.633 137.542C238.041 137.542 238.395 137.814 238.694 138.358C238.993 138.902 239.143 139.405 239.143 139.867C239.143 140.139 239.17 140.846 239.224 141.989C239.306 143.104 239.347 144.028 239.347 144.763C239.347 148.081 238.667 150.229 237.307 151.208C236.79 151.562 235.063 151.739 232.126 151.739C231.31 151.739 230.195 151.752 228.781 151.779C227.611 151.807 226.469 151.807 225.354 151.779L217.685 151.739C216.298 151.711 215.604 151.045 215.604 149.74C215.604 149.223 215.808 148.761 216.216 148.353C216.896 147.673 217.277 147.251 217.359 147.088L218.134 145.864C218.514 145.239 218.746 143.688 218.827 141.214L219.153 130.689C219.208 129.791 219.221 129.003 219.194 128.323Z" fill="white"/>
<path d="M252.218 124.692C251.864 124.692 251.538 124.828 251.239 125.1C250.967 125.345 250.858 125.644 250.912 125.997L251.239 130.199C251.293 130.906 251.538 131.26 251.973 131.26C252.789 131.26 253.442 130.865 253.931 130.077C254.366 129.37 254.584 128.581 254.584 127.711C254.584 125.698 253.795 124.692 252.218 124.692ZM252.095 137.338C252.667 141.2 253.251 143.539 253.85 144.355C254.203 144.736 254.57 145.143 254.951 145.579C255.332 146.014 255.522 146.449 255.522 146.884C255.522 149.114 254.965 150.488 253.85 151.004C252.979 151.412 250.654 151.616 246.874 151.616C243.773 151.616 241.707 151.331 240.673 150.759C239.667 150.161 239.204 148.965 239.286 147.17C239.313 146.762 239.572 146.313 240.061 145.823C240.659 145.225 241.013 144.831 241.122 144.64C241.503 143.879 241.965 141.907 242.509 138.725C242.998 135.87 243.365 133.164 243.61 130.607C243.529 127.833 243.162 126.174 242.509 125.63C242.264 125.494 241.924 125.29 241.489 125.018C241.163 124.692 240.999 124.23 240.999 123.631C240.999 122.516 241.707 121.687 243.121 121.143C244.263 120.681 245.704 120.463 247.445 120.49C248.07 120.517 248.642 120.545 249.158 120.572C251.579 120.463 253.102 120.409 253.727 120.409C255.985 120.409 257.97 120.857 259.683 121.755C261.804 122.843 262.865 124.42 262.865 126.487C262.865 129.071 261.478 131.124 258.704 132.647C258.976 133.49 259.561 134.115 260.458 134.523C261.791 135.122 262.471 135.421 262.498 135.421C263.613 136.346 264.443 137.311 264.986 138.317C265.476 139.215 265.884 140.425 266.21 141.948C266.673 144.205 267.366 146.123 268.291 147.7C268.345 147.809 268.699 148.203 269.351 148.883C269.841 149.4 270.086 149.835 270.086 150.188C270.086 150.46 269.855 150.732 269.392 151.004C269.066 151.195 268.74 151.399 268.413 151.616C267.924 151.643 267.121 151.752 266.006 151.943C265.082 152.106 264.293 152.187 263.64 152.187C260.812 152.187 258.867 151.072 257.807 148.842C257.29 147.754 256.8 145.456 256.338 141.948C255.93 139.011 255.237 137.107 254.258 136.237C253.931 135.965 253.537 135.883 253.075 135.992C252.313 136.182 251.987 136.631 252.095 137.338Z" fill="white"/>
<path d="M277.23 140.439C279.107 140.439 280.045 139.541 280.045 137.746C280.045 137.148 279.42 136.318 278.169 135.258C276.292 133.626 275.164 132.592 274.783 132.157C273.532 130.77 272.906 129.383 272.906 127.996C272.906 125.521 273.899 123.563 275.884 122.122C277.652 120.844 279.814 120.205 282.371 120.205C283.186 120.205 284.356 120.354 285.879 120.653C287.429 120.952 288.626 121.102 289.469 121.102C290.937 121.102 291.672 122.788 291.672 126.161C291.672 128.091 290.91 129.057 289.387 129.057C288.326 129.057 287.307 128.282 286.328 126.732C285.376 125.181 284.451 124.406 283.554 124.406C281.568 124.406 280.576 125.127 280.576 126.568C280.576 127.412 281.691 128.363 283.921 129.424C286.939 130.838 288.993 132.021 290.081 132.973C292.311 134.904 293.426 137.379 293.426 140.398C293.426 143.688 292.352 146.395 290.203 148.516C288.082 150.637 285.389 151.698 282.126 151.698C278.781 151.698 276.061 150.882 273.967 149.25C271.655 147.482 270.499 144.967 270.499 141.703C270.499 140.071 271.342 139.256 273.029 139.256C273.573 139.256 274.13 139.459 274.701 139.867C275.3 140.248 276.143 140.439 277.23 140.439Z" fill="white"/>
<path d="M320.032 140.235C320.032 143.661 318.74 146.53 316.156 148.842C313.708 151.018 310.758 152.106 307.304 152.106C303.442 152.106 300.342 150.583 298.003 147.537C295.909 144.763 294.862 141.377 294.862 137.379C294.862 132.973 295.922 129.125 298.043 125.834C300.491 122.027 303.795 120.123 307.956 120.123C311.982 120.123 315.095 122.435 317.298 127.058C319.121 130.838 320.032 135.23 320.032 140.235ZM311.098 134.891C311.098 133.096 310.703 131.11 309.915 128.935C308.936 126.215 307.725 124.855 306.284 124.855C305.441 124.855 304.788 125.481 304.326 126.732C303.972 127.684 303.795 128.703 303.795 129.791C303.795 131.641 304.095 133.368 304.693 134.972C305.509 137.121 306.705 138.195 308.283 138.195C310.159 138.195 311.098 137.093 311.098 134.891Z" fill="white"/>
<path d="M333.703 137.379C333.703 138.059 333.948 139.31 334.437 141.132C334.954 142.927 335.348 144.015 335.62 144.396C335.92 144.776 336.232 145.157 336.559 145.538C336.967 146 337.211 146.449 337.293 146.884C337.375 147.428 337.415 147.917 337.415 148.353C337.415 149.549 336.98 150.392 336.11 150.882C335.403 151.263 334.138 151.494 332.316 151.575C331.473 151.684 329.637 151.739 326.809 151.739C325.721 151.739 324.606 151.521 323.464 151.086C322.457 150.732 321.791 150.229 321.465 149.576C321.166 149.114 321.016 148.57 321.016 147.945C321.016 147.836 321.016 147.727 321.016 147.618C321.016 147.482 321.016 147.333 321.016 147.17C321.016 146.816 321.193 146.449 321.546 146.068C321.846 145.769 322.158 145.456 322.485 145.13C323.301 142.03 323.885 139.147 324.239 136.481C324.538 134.333 324.742 132.375 324.851 130.607C325.014 128.023 324.647 126.365 323.749 125.63C323.505 125.494 323.165 125.29 322.729 125.018C322.403 124.692 322.24 124.23 322.24 123.631C322.24 122.516 322.947 121.687 324.361 121.143C325.503 120.681 326.945 120.463 328.685 120.49C331.65 120.545 333.553 120.966 334.397 121.755C335.675 122.598 336.831 124.61 337.864 127.792C339.006 131.219 340.121 133.463 341.209 134.523C341.481 134.768 341.78 134.836 342.107 134.727C342.433 134.319 342.596 133.721 342.596 132.932C342.596 132.633 342.555 132.171 342.474 131.545C342.474 131.491 342.474 131.423 342.474 131.341L342.433 131.26C342.351 130.607 342.256 129.914 342.147 129.179C341.685 127.656 340.937 126.473 339.904 125.63C339.659 125.494 339.319 125.29 338.884 125.018C338.585 124.692 338.435 124.23 338.435 123.631C338.435 122.516 339.142 121.687 340.556 121.143C341.699 120.681 343.14 120.463 344.881 120.49C347.274 120.517 348.974 120.803 349.98 121.347C350.796 121.782 351.204 122.448 351.204 123.346C351.204 123.89 351.081 124.284 350.837 124.529C350.592 124.774 350.334 125.005 350.062 125.222C349.79 125.44 349.572 125.739 349.409 126.12C349.082 126.691 348.756 127.276 348.43 127.874C347.94 128.88 347.695 130.009 347.695 131.26C347.695 131.205 347.695 131.382 347.695 131.79C347.75 133.286 348.171 135.543 348.96 138.562C349.694 141.445 350.062 143.688 350.062 145.293C350.062 147.414 349.885 148.883 349.531 149.699C348.96 150.977 347.777 151.616 345.982 151.616C343.997 151.616 342.202 150.324 340.597 147.741C340.189 147.061 339.074 144.668 337.252 140.561C336.11 137.977 335.076 136.685 334.152 136.685C333.853 136.685 333.703 136.917 333.703 137.379Z" fill="white"/>
</svg>
