<svg width="189" height="120" viewBox="0 0 189 120" fill="none" xmlns="http://www.w3.org/2000/svg">
<path d="M184.186 65.5795L171.427 70.2047H146.945L152.848 42.0312L184.186 65.5795Z" fill="#FDAB96"/>
<path d="M172.036 66.0078V120.001H145.547C145.945 107.198 145.916 93.4138 146.39 80.7821C146.499 77.8751 146.635 75.0281 146.809 72.2697C147.824 56.0796 150.16 42.8881 156.089 37.9453L172.036 66.0078Z" fill="#FDAB96"/>
<path d="M154.256 43.4854C153.919 42.5052 154.225 41.4232 154.547 40.4318C155.487 37.5482 156.649 35.1145 158.71 32.9495C160.494 31.0807 163.062 30.3204 165.144 28.8017C165.558 28.4964 165.976 28.1788 166.464 28.0281C166.849 27.908 167.256 27.9019 167.657 27.8836C171.993 27.6861 176.314 25.5028 180.5 24.431C181.3 24.2274 182.183 24.1256 182.919 24.5104C183.731 24.942 184.195 25.9263 184.203 26.883C184.211 27.8398 183.824 28.759 183.296 29.5397C181.265 32.5352 177.01 33.8025 173.954 35.2886C173.345 35.5848 172.724 35.8779 172.206 36.3268C171.688 36.7757 171.292 37.3732 170.908 37.9645C169.733 39.7967 168.637 41.7031 167.183 43.3002C165.395 45.2646 162.724 46.8352 160.075 46.6245C158.057 46.4698 155.039 45.7583 154.256 43.4854Z" fill="#FDAB96"/>
<path d="M135.277 33.4609C135.074 33.5047 123.194 33.4915 114.848 33.4772C110.412 33.4701 106.812 37.5965 106.812 42.6889V56.3558C106.812 61.4451 110.405 65.5674 114.834 65.5674H136.873V33.5821L135.277 33.4609Z" fill="#FDAB96"/>
<path d="M4.8125 65.5795L17.5715 70.2047H42.0529L36.1506 42.0312L4.8125 65.5795Z" fill="#FDAB96"/>
<path d="M43.4537 120.001H16.9609V66.0078L32.9102 37.9453C38.8389 42.885 41.1692 56.0633 42.1896 72.2473C42.3703 75.0974 42.5084 78.041 42.6201 81.0498C43.0811 93.6062 43.0577 107.286 43.4537 120.001Z" fill="#FDAB96"/>
<path d="M42.6218 81.0447C36.3134 78.6914 23.4488 73.8748 21.3906 72.9761L42.1913 72.2422C42.372 75.0932 42.5101 78.0359 42.6218 81.0447Z" fill="#231F20"/>
<path d="M166.812 72.9741C164.828 73.8403 152.8 78.3463 146.289 80.778C146.399 77.871 146.535 75.024 146.708 72.2656L166.812 72.9741Z" fill="#231F20"/>
<path d="M34.7491 43.4854C35.0862 42.5052 34.7806 41.4232 34.4587 40.4318C33.5185 37.5482 32.3549 35.1145 30.2896 32.9495C28.5067 31.0807 25.9378 30.3204 23.8563 28.8017C23.4421 28.4964 23.0247 28.1788 22.5364 28.0281C22.1515 27.908 21.7444 27.9019 21.3433 27.8836C17.0077 27.6861 12.6863 25.5028 8.50002 24.431C7.69991 24.2274 6.81757 24.1256 6.08143 24.5104C5.26915 24.942 4.80512 25.9263 4.797 26.883C4.78888 27.8398 5.17674 28.759 5.70473 29.5397C7.73545 32.5352 11.9898 33.8025 15.046 35.2886C15.6553 35.5848 16.2777 35.8779 16.7955 36.3268C17.3133 36.7757 17.7144 37.3732 18.0931 37.9645C19.2679 39.7967 20.3635 41.7031 21.8185 43.3002C23.6066 45.2646 26.277 46.8352 28.926 46.6245C30.9486 46.4698 33.9663 45.7583 34.7491 43.4854Z" fill="#FDAB96"/>
<path d="M6.41068 33.4609C6.61375 33.5047 18.4935 33.4915 26.8397 33.4772C31.2758 33.4701 34.8743 37.5965 34.8743 42.6889V56.3558C34.8743 61.4451 31.283 65.5674 26.8529 65.5674H4.8125V33.5821L6.41068 33.4609Z" fill="#FDAB96"/>
<path d="M172.412 0H12.8984V95.5774H172.412V0Z" fill="#F59E0C"/>
<path d="M16.8875 65.5984C13.6597 65.5984 10.4288 65.5557 7.201 65.5984C5.2972 65.6239 3.82087 65.7674 2.58924 63.9698C1.60231 62.5245 1.13524 60.333 1.68455 58.622C1.8257 58.1721 2.03089 57.7449 2.29377 57.3537C1.37994 56.0783 0.284369 54.5159 0.0599747 52.9342C-0.16442 51.3524 0.235626 49.619 1.34846 48.5248C0.31584 47.7217 0.0548974 46.314 0.249847 44.9826C0.444796 43.6513 1.1129 42.4502 1.83279 41.3346C1.30074 40.4277 0.673247 39.4393 0.650909 38.3757C0.622479 37.0209 1.4104 35.7506 2.45826 34.9546C3.50611 34.1587 4.78546 33.7739 6.05669 33.5205C6.35114 33.4614 6.14503 33.5266 6.44558 33.5266H14.3085C17.8075 33.5266 26.2187 32.3316 27.3204 37.4738C27.5092 38.3563 27.2188 39.306 26.6573 39.9971C26.0958 40.6883 25.2988 41.129 24.4631 41.356C29.9969 43.2044 28.5814 48.7477 24.5139 49.6007C29.2577 51.5529 27.1538 56.9384 22.7878 56.855C24.2316 57.2621 25.0317 59.3996 24.785 60.9448C24.5383 62.4899 23.4062 63.7612 22.077 64.4808C20.7479 65.2004 18.3852 65.5984 16.8875 65.5984Z" fill="#FDAB96"/>
<path d="M7.20404 65.9194C7.12325 65.9194 7.04577 65.8872 6.98865 65.83C6.93152 65.7727 6.89943 65.695 6.89943 65.614C6.89943 65.5331 6.93152 65.4554 6.98865 65.3981C7.04577 65.3409 7.12325 65.3087 7.20404 65.3087C9.35863 65.2802 11.5488 65.2904 13.6668 65.2995C14.7248 65.2995 15.8194 65.3087 16.8946 65.3087C18.3852 65.3087 20.6809 64.9015 21.94 64.2185C23.3259 63.4674 24.2753 62.2286 24.4916 60.9034C24.717 59.4967 23.9737 57.5118 22.7137 57.1556C22.6421 57.1357 22.5803 57.0903 22.5398 57.0279C22.4993 56.9655 22.4829 56.8904 22.4938 56.8167C22.5046 56.7431 22.5419 56.676 22.5987 56.628C22.6555 56.58 22.7278 56.5544 22.802 56.5561C25.052 56.5978 26.5446 55.1188 26.8513 53.6338C27.1782 52.0541 26.2634 50.6545 24.4042 49.8901C24.3436 49.8654 24.2925 49.8219 24.2585 49.7658C24.2245 49.7098 24.2094 49.6442 24.2154 49.5789C24.2215 49.5136 24.2483 49.452 24.292 49.4032C24.3357 49.3543 24.3939 49.3209 24.4581 49.3079C26.3263 48.918 27.7072 47.4319 27.8027 45.6934C27.9042 43.9173 26.6238 42.4078 24.3728 41.6556C24.3108 41.6348 24.2571 41.5946 24.2196 41.5409C24.1821 41.4873 24.1629 41.4229 24.1647 41.3574C24.1665 41.2919 24.1893 41.2287 24.2297 41.1772C24.2701 41.1257 24.326 41.0885 24.389 41.0713C24.985 40.9095 25.8227 40.5624 26.4268 39.8142C26.9569 39.1618 27.1873 38.2936 27.0279 37.5485C26.1364 33.3854 20.0808 33.6297 16.0742 33.7915C15.4264 33.817 14.8162 33.8424 14.3146 33.8424H6.45165C6.36689 33.8455 6.28213 33.8366 6.19985 33.816C6.18258 33.816 6.15822 33.8231 6.12268 33.8302C6.04337 33.8462 5.961 33.8298 5.89369 33.7849C5.82638 33.7399 5.77964 33.67 5.76376 33.5905C5.74787 33.511 5.76413 33.4284 5.80897 33.361C5.85381 33.2935 5.92357 33.2466 6.00287 33.2307C6.16431 33.1991 6.25569 33.1839 6.3684 33.2307C6.37957 33.2307 6.40495 33.2307 6.45165 33.2307H14.3146C14.804 33.2307 15.3807 33.2073 16.0488 33.1798C18.1039 33.0974 20.6606 32.9946 22.8975 33.4699C25.5953 34.044 27.1853 35.3723 27.624 37.4192C27.827 38.3546 27.5539 39.3939 26.9 40.199C26.4783 40.708 25.9439 41.1112 25.3394 41.3767C27.3843 42.2927 28.5185 43.8806 28.4109 45.728C28.3093 47.4869 27.0909 49.0198 25.3648 49.6763C27.2808 50.7634 27.7184 52.449 27.4483 53.7569C27.1437 55.2491 25.8237 56.7372 23.8113 57.0894C24.8094 57.9699 25.3089 59.6514 25.0937 60.999C24.851 62.5106 23.7808 63.9142 22.2304 64.755C20.8353 65.5102 18.44 65.9184 16.8946 65.9184C15.8173 65.9184 14.7228 65.9184 13.6648 65.9092C11.5488 65.9001 9.36066 65.8899 7.21216 65.9184L7.20404 65.9194Z" fill="#231F20"/>
<path d="M24.468 41.663H24.4609L8.11358 41.2904C8.0328 41.2895 7.95569 41.2564 7.89923 41.1985C7.84277 41.1405 7.81158 41.0625 7.81252 40.9815C7.81346 40.9005 7.84646 40.8232 7.90425 40.7666C7.96204 40.71 8.0399 40.6788 8.12069 40.6797H8.12779L24.4751 41.0533C24.5559 41.0542 24.633 41.0873 24.6894 41.1452C24.7459 41.2032 24.7771 41.2812 24.7762 41.3622C24.7752 41.4432 24.7422 41.5205 24.6844 41.5771C24.6266 41.6337 24.5488 41.6649 24.468 41.664V41.663Z" fill="#231F20"/>
<path d="M24.5184 49.8986H24.5062L9.24433 49.2126C9.16355 49.2089 9.08752 49.1733 9.03297 49.1134C8.97841 49.0536 8.9498 48.9745 8.95343 48.8935C8.95707 48.8125 8.99266 48.7363 9.05235 48.6816C9.11205 48.6269 9.19096 48.5982 9.27175 48.6019L24.5336 49.2879C24.6144 49.2897 24.6912 49.3235 24.7471 49.382C24.803 49.4405 24.8334 49.5189 24.8316 49.5999C24.8299 49.6809 24.7961 49.7579 24.7378 49.8139C24.6794 49.8699 24.6012 49.9004 24.5204 49.8986H24.5184Z" fill="#231F20"/>
<path d="M8.39836 57.4104C8.31757 57.4104 8.24009 57.3782 8.18297 57.3209C8.12584 57.2637 8.09375 57.186 8.09375 57.105C8.09375 57.024 8.12584 56.9463 8.18297 56.8891C8.24009 56.8318 8.31757 56.7996 8.39836 56.7996L22.787 56.5391H22.7921C22.8729 56.5391 22.9504 56.5712 23.0075 56.6285C23.0646 56.6858 23.0967 56.7634 23.0967 56.8444C23.0967 56.9254 23.0646 57.0031 23.0075 57.0603C22.9504 57.1176 22.8729 57.1498 22.7921 57.1498L8.40444 57.4104H8.39836Z" fill="#231F20"/>
<path d="M22.7845 35.1875C23.5135 35.2435 24.2557 35.3544 24.9025 35.7117C25.5493 36.069 26.0874 36.7163 26.1626 37.4777C26.2448 38.3022 25.7625 39.1063 25.1015 39.5653C24.4405 40.0244 23.6303 40.1761 22.8393 40.2208C22.7104 38.9343 22.7692 36.0914 22.7845 35.1875Z" fill="#652FEB"/>
<path d="M22.7845 50.7031C23.5135 50.7591 24.2557 50.8701 24.9015 51.2273C25.5473 51.5846 26.0864 52.232 26.1626 52.9933C26.2448 53.8178 25.7615 54.6219 25.1015 55.081C24.4415 55.54 23.6303 55.6917 22.8393 55.7365C22.7104 54.4499 22.7692 51.607 22.7845 50.7031Z" fill="#652FEB"/>
<path d="M20.4083 58.25C21.1363 58.305 21.8796 58.4169 22.5254 58.7742C23.1711 59.1315 23.7103 59.7788 23.7864 60.5402C23.8687 61.3647 23.3803 62.1688 22.7254 62.6278C22.0705 63.0869 21.2541 63.2386 20.4632 63.2833C20.3373 61.9968 20.3931 59.1579 20.4083 58.25Z" fill="#652FEB"/>
<path d="M23.5725 43.1172C24.2741 43.1711 24.994 43.278 25.6134 43.6261C26.2328 43.9742 26.7547 44.5941 26.8318 45.328C26.911 46.1229 26.446 46.8996 25.8094 47.3403C25.1727 47.781 24.3878 47.9317 23.6294 47.9714C23.5004 46.7275 23.5573 43.9875 23.5725 43.1172Z" fill="#652FEB"/>
<path d="M172.109 65.5828C175.337 65.5828 178.568 65.5401 181.796 65.5828C183.7 65.6082 185.176 65.7518 186.408 63.9542C187.395 62.5089 187.862 60.3174 187.312 58.6064C187.171 58.1566 186.966 57.7295 186.703 57.3381C187.622 56.0627 188.713 54.5003 188.937 52.9185C189.161 51.3368 188.762 49.6034 187.65 48.5092C188.682 47.7061 188.943 46.2984 188.748 44.967C188.553 43.6356 187.885 42.4346 187.165 41.319C187.697 40.4121 188.324 39.4237 188.347 38.36C188.376 37.0053 187.588 35.735 186.54 34.939C185.492 34.143 184.213 33.7583 182.941 33.5048C182.646 33.4458 182.852 33.5109 182.552 33.5109H174.689C171.19 33.5109 162.779 32.316 161.678 37.4582C161.489 38.3407 161.779 39.2904 162.341 39.9815C162.902 40.6726 163.699 41.1134 164.535 41.3403C159 43.1888 160.417 48.7321 164.484 49.585C159.74 51.5373 161.844 56.9228 166.21 56.8394C164.765 57.2465 163.966 59.384 164.213 60.9291C164.46 62.4742 165.592 63.7456 166.921 64.4652C168.25 65.1848 170.61 65.5828 172.109 65.5828Z" fill="#FDAB96"/>
<path d="M181.799 65.8871C179.65 65.8586 177.462 65.8688 175.347 65.878C174.289 65.878 173.194 65.8871 172.117 65.8871C170.572 65.8871 168.176 65.48 166.781 64.7237C165.231 63.883 164.16 62.4844 163.918 60.9678C163.703 59.6201 164.202 57.9386 165.199 57.0582C163.188 56.706 161.872 55.2179 161.563 53.7257C161.293 52.4177 161.731 50.7322 163.647 49.6451C161.921 48.9886 160.702 47.4556 160.601 45.6968C160.493 43.8494 161.627 42.2656 163.672 41.3454C163.068 41.08 162.533 40.6767 162.112 40.1677C161.458 39.3626 161.188 38.3234 161.388 37.388C161.826 35.341 163.418 34.0127 166.114 33.4386C168.348 32.9633 170.908 33.0661 172.962 33.1486C173.631 33.176 174.208 33.1995 174.697 33.1995H182.56C182.608 33.1995 182.632 33.1995 182.643 33.1995C182.762 33.1611 182.889 33.1611 183.008 33.1995C183.047 33.2073 183.084 33.2228 183.118 33.2451C183.151 33.2673 183.18 33.296 183.202 33.3293C183.224 33.3627 183.24 33.4001 183.247 33.4395C183.255 33.4789 183.255 33.5194 183.247 33.5587C183.24 33.5981 183.224 33.6356 183.202 33.6689C183.18 33.7023 183.151 33.731 183.118 33.7533C183.085 33.7756 183.047 33.7911 183.008 33.7989C182.969 33.8068 182.928 33.8068 182.889 33.799L182.812 33.7847C182.729 33.8052 182.645 33.8141 182.56 33.8112H174.697C174.195 33.8112 173.58 33.7857 172.937 33.7603C168.931 33.5985 162.875 33.3531 161.984 37.5172C161.824 38.2623 162.054 39.1305 162.584 39.783C163.193 40.5291 164.027 40.8782 164.623 41.04C164.686 41.0573 164.742 41.0944 164.782 41.1459C164.822 41.1975 164.845 41.2606 164.847 41.3261C164.849 41.3916 164.83 41.456 164.792 41.5097C164.755 41.5634 164.701 41.6036 164.639 41.6243C162.388 42.3765 161.105 43.886 161.209 45.6622C161.311 47.4007 162.685 48.8868 164.554 49.2766C164.618 49.2897 164.676 49.3231 164.72 49.3719C164.763 49.4207 164.79 49.4824 164.796 49.5477C164.802 49.613 164.787 49.6785 164.753 49.7346C164.719 49.7906 164.668 49.8342 164.607 49.8588C162.748 50.6232 161.833 52.0228 162.159 53.6025C162.464 55.0876 163.958 56.5665 166.21 56.5248H166.216C166.289 56.5247 166.361 56.5514 166.416 56.5998C166.472 56.6483 166.508 56.7154 166.518 56.7886C166.528 56.8618 166.511 56.9361 166.471 56.9978C166.43 57.0596 166.369 57.1045 166.298 57.1243C165.038 57.4806 164.295 59.4654 164.519 60.8721C164.731 62.1953 165.686 63.4361 167.071 64.1873C168.331 64.8703 170.624 65.2774 172.117 65.2774C173.192 65.2774 174.287 65.2774 175.344 65.2683C177.463 65.2591 179.653 65.2489 181.808 65.2774C181.888 65.2774 181.966 65.3096 182.023 65.3669C182.08 65.4241 182.112 65.5018 182.112 65.5828C182.112 65.6638 182.08 65.7414 182.023 65.7987C181.966 65.856 181.888 65.8881 181.808 65.8881L181.799 65.8871Z" fill="#231F20"/>
<path d="M164.535 41.6405C164.454 41.6415 164.376 41.6102 164.318 41.5536C164.261 41.497 164.228 41.4197 164.227 41.3388C164.226 41.2578 164.257 41.1797 164.313 41.1218C164.37 41.0639 164.447 41.0308 164.528 41.0298L180.875 40.6563H180.882C180.963 40.6553 181.041 40.6866 181.098 40.7432C181.156 40.7998 181.189 40.8771 181.19 40.9581C181.191 41.0391 181.16 41.1171 181.104 41.175C181.047 41.233 180.97 41.266 180.889 41.267L164.542 41.6395L164.535 41.6405Z" fill="#231F20"/>
<path d="M164.483 49.883C164.402 49.8847 164.324 49.8543 164.266 49.7982C164.207 49.7422 164.174 49.6652 164.172 49.5842C164.17 49.5033 164.201 49.4249 164.257 49.3664C164.312 49.3079 164.389 49.274 164.47 49.2723L179.732 48.5862C179.813 48.5827 179.891 48.6115 179.951 48.6663C180.011 48.7211 180.046 48.7974 180.05 48.8784C180.053 48.9593 180.024 49.0384 179.97 49.0982C179.915 49.1579 179.839 49.1934 179.758 49.1969L164.497 49.883H164.483Z" fill="#231F20"/>
<path d="M180.602 57.3947H180.596L166.208 57.1342C166.128 57.1335 166.05 57.1007 165.994 57.0429C165.937 56.9852 165.906 56.9073 165.906 56.8263C165.907 56.7453 165.94 56.6679 165.997 56.6111C166.055 56.5543 166.133 56.5228 166.213 56.5234L180.602 56.784C180.683 56.784 180.76 56.8162 180.817 56.8735C180.875 56.9307 180.907 57.0084 180.907 57.0894C180.907 57.1704 180.875 57.248 180.817 57.3053C180.76 57.3626 180.683 57.3947 180.602 57.3947Z" fill="#231F20"/>
<path d="M166.215 35.1719C165.486 35.2279 164.744 35.3388 164.097 35.6961C163.451 36.0533 162.912 36.7007 162.837 37.4621C162.755 38.2865 163.237 39.0907 163.898 39.5497C164.559 40.0088 165.37 40.1604 166.161 40.2052C166.289 38.9186 166.231 36.0757 166.215 35.1719Z" fill="#652FEB"/>
<path d="M166.215 50.6953C165.486 50.7513 164.744 50.8622 164.097 51.2195C163.451 51.5768 162.912 52.2241 162.837 52.9855C162.755 53.81 163.237 54.6141 163.898 55.0731C164.559 55.5322 165.37 55.6839 166.161 55.7287C166.289 54.4421 166.231 51.5992 166.215 50.6953Z" fill="#652FEB"/>
<path d="M168.59 58.2422C167.861 58.2972 167.119 58.4091 166.473 58.7664C165.828 59.1237 165.288 59.771 165.212 60.5324C165.13 61.3569 165.612 62.161 166.273 62.62C166.934 63.0791 167.745 63.2307 168.536 63.2755C168.664 61.989 168.606 59.1501 168.59 58.2422Z" fill="#652FEB"/>
<path d="M165.424 43.0938C164.722 43.1477 164.003 43.2546 163.383 43.6027C162.764 43.9508 162.242 44.5707 162.165 45.3045C162.086 46.0995 162.551 46.8761 163.187 47.3169C163.824 47.7576 164.609 47.9082 165.367 47.9479C165.496 46.7041 165.44 43.964 165.424 43.0938Z" fill="#652FEB"/>
<path d="M57.3673 15.532C57.7735 18.2191 58.1322 19.7731 58.4436 20.1938C58.6196 20.3838 58.8024 20.5874 58.9919 20.8045C59.1814 21.0216 59.2762 21.2388 59.2762 21.4559C59.2762 22.5688 58.9919 23.2542 58.4233 23.512C58.0036 23.7156 56.8529 23.8174 54.9711 23.8174C53.4548 23.8174 52.4462 23.6681 51.9453 23.3695C51.4444 23.0574 51.1939 22.467 51.1939 21.5984C51.1939 21.3949 51.3158 21.1709 51.5595 20.9266C51.8708 20.6281 52.0536 20.4313 52.1078 20.3363C52.2837 19.9834 52.4868 19.142 52.717 17.812C52.92 16.672 53.0487 15.7966 53.1028 15.1859C53.1028 15.1316 53.0013 14.9552 52.7982 14.6566C52.541 14.2902 52.3447 13.9237 52.2093 13.5573C51.9656 13.1095 51.6745 12.5462 51.3361 11.8677C51.2007 11.6912 51.0044 11.508 50.7472 11.318C50.3139 11.0059 50.0973 10.8498 50.0973 10.8498C49.9755 10.7819 49.8063 10.6802 49.5897 10.5444C49.4407 10.3816 49.3663 10.1509 49.3663 9.85229C49.3663 9.29586 49.7183 8.88192 50.4223 8.61049C50.9909 8.37978 51.7084 8.27121 52.5748 8.28478C53.7662 8.29835 54.6123 8.44085 55.1132 8.71228C55.5194 8.92943 55.7224 9.26193 55.7224 9.70979C55.7224 9.98122 55.6615 10.178 55.5397 10.3001C55.4178 10.4223 55.2892 10.5376 55.1538 10.6462C55.0185 10.7548 54.9101 10.8973 54.8289 11.0737C54.7612 11.2502 54.7477 11.4402 54.7883 11.6437C54.9508 12.4852 55.3095 12.9059 55.8646 12.9059C56.0677 12.9059 56.3181 12.6616 56.616 12.173C56.6836 11.9287 56.7987 11.6437 56.9612 11.318C57.083 11.0737 57.1439 10.9109 57.1439 10.8294C57.1439 10.7887 57.1169 10.7548 57.0627 10.7277C57.0221 10.7005 56.9341 10.6394 56.7987 10.5444C56.6363 10.3816 56.555 10.1509 56.555 9.85229C56.555 8.80728 57.6245 8.28478 59.7636 8.28478C61.4152 8.28478 62.2411 8.7055 62.2411 9.54693C62.2411 9.81836 62.1734 10.0151 62.038 10.1373C61.9161 10.2594 61.7943 10.368 61.6724 10.463C61.5641 10.558 61.3475 10.6734 61.0226 10.8091C60.5217 10.9991 60.2036 11.1416 60.0682 11.2366C59.9463 11.3316 59.7771 11.5284 59.5605 11.8269C58.7753 12.6819 58.2879 13.2384 58.0984 13.4962C57.611 14.1341 57.3673 14.6973 57.3673 15.1859C57.3673 15.2809 57.3673 15.3963 57.3673 15.532Z" fill="white"/>
<path d="M75.1469 18.1377C75.1469 19.8477 74.5039 21.2795 73.2177 22.4331C71.9993 23.5188 70.5304 24.0617 68.8111 24.0617C66.8887 24.0617 65.3453 23.3017 64.181 21.7817C63.1386 20.3974 62.6174 18.7077 62.6174 16.7127C62.6174 14.5141 63.1454 12.5937 64.2013 10.9516C65.4198 9.05157 67.0646 8.10156 69.136 8.10156C71.1396 8.10156 72.6897 9.25514 73.7863 11.5623C74.6934 13.4487 75.1469 15.6405 75.1469 18.1377ZM70.6996 15.4709C70.6996 14.5752 70.5033 13.5845 70.1107 12.4987C69.6234 11.1416 69.0209 10.463 68.3034 10.463C67.8837 10.463 67.5588 10.7752 67.3286 11.3994C67.1526 11.8744 67.0646 12.3834 67.0646 12.9262C67.0646 13.8491 67.2136 14.7109 67.5114 15.5116C67.9175 16.5838 68.5132 17.1198 69.2984 17.1198C70.2326 17.1198 70.6996 16.5702 70.6996 15.4709Z" fill="white"/>
<path d="M88.6945 14.0662C88.6945 14.5277 88.7013 15.2198 88.7148 16.1427C88.7419 17.052 88.7554 17.7373 88.7554 18.1988C88.7554 19.5152 88.1801 20.7706 87.0293 21.9649C85.8786 23.1456 84.6398 23.736 83.3131 23.736C80.9169 23.736 79.2314 23.2813 78.2566 22.372C77.2413 21.4356 76.7336 19.8002 76.7336 17.4659C76.7336 17.0181 76.7539 16.3463 76.7945 15.4505C76.8487 14.5548 76.8757 13.883 76.8757 13.4352C76.8757 12.4444 76.7674 11.7184 76.5508 11.2569C76.4425 11.0398 76.2327 10.8091 75.9213 10.5648C75.6911 10.3884 75.5761 10.1509 75.5761 9.85229C75.5761 9.26871 75.9619 8.84121 76.7336 8.56978C77.2616 8.37978 77.8911 8.28478 78.6221 8.28478C80.8424 8.28478 81.9525 8.75978 81.9525 9.70979C81.9525 10.0084 81.8374 10.2594 81.6073 10.463C81.2959 10.7344 81.1064 10.9448 81.0387 11.0941C80.8086 11.6369 80.6935 12.5462 80.6935 13.822L80.6732 13.7812C80.6867 15.0298 80.8086 15.8713 81.0387 16.3055C81.3907 16.9298 82.1421 17.242 83.2928 17.242C84.2675 17.242 84.9241 17.0384 85.2626 16.6313C85.6146 16.2241 85.7906 15.5184 85.7906 14.5141C85.7906 13.4827 85.75 12.6752 85.6687 12.0916C85.574 11.3859 85.3371 10.9177 84.958 10.6869C84.6195 10.4969 84.4503 10.2187 84.4503 9.85229C84.4503 8.80728 85.5198 8.28478 87.6589 8.28478C88.2139 8.28478 88.7013 8.37299 89.121 8.54942C89.676 8.79371 89.9536 9.16014 89.9536 9.64872C89.9536 9.94729 89.8385 10.1984 89.6083 10.4019C89.3105 10.6598 89.1277 10.8634 89.06 11.0127C88.8164 11.6098 88.6945 12.6277 88.6945 14.0662Z" fill="white"/>
<path d="M111.581 21.7409C111.527 22.5281 110.958 23.0845 109.875 23.4102C109.171 23.641 108.311 23.7563 107.296 23.7563C106.281 23.7563 105.549 23.6681 105.103 23.4917C104.358 23.2067 103.986 22.6502 103.986 21.8224C103.986 21.5102 104.033 21.1574 104.128 20.7638C104.737 20.1531 105.042 19.2166 105.042 17.9545C105.042 17.5202 104.744 17.1877 104.148 16.957C103.702 16.7805 103.214 16.6923 102.686 16.6923C102.686 16.6923 102.497 16.7263 102.118 16.7941C101.617 17.0927 101.366 17.6627 101.366 18.5041C101.366 19.1149 101.495 19.6441 101.752 20.092C101.86 20.2549 102.111 20.5466 102.503 20.9674C102.761 21.2524 102.889 21.517 102.889 21.7613C102.889 22.6977 102.402 23.3017 101.427 23.5731C100.953 23.7088 100.094 23.7767 98.8481 23.7767C96.9799 23.7767 96.0457 23.3085 96.0457 22.372C96.0322 21.5442 96.391 20.8724 97.122 20.3566C97.9749 19.7459 98.7263 18.4363 99.3761 16.4277C99.9312 14.677 100.209 13.1502 100.209 11.8473C100.209 11.3452 100.121 10.9244 99.9447 10.5852C99.8499 10.3951 99.6943 10.1984 99.4776 9.99479C99.3017 9.83193 99.2137 9.70979 99.2137 9.62836C99.2137 9.1805 99.9379 8.79371 101.387 8.46799C102.618 8.19656 103.519 8.08799 104.087 8.14228C105.049 8.23728 105.78 8.52907 106.281 9.01764C106.511 9.24836 106.849 9.77764 107.296 10.6055C107.431 10.8769 107.601 11.4062 107.804 12.1934C108.589 15.3284 109.381 17.6898 110.18 19.2777C110.288 19.5084 110.491 19.7459 110.789 19.9902C111.087 20.2209 111.283 20.4109 111.378 20.5602C111.54 20.8452 111.608 21.2388 111.581 21.7409ZM104.392 13.9237C104.392 13.8152 104.27 13.4555 104.026 12.8448C103.796 12.2884 103.492 12.0102 103.113 12.0102C102.882 12.0102 102.639 12.3019 102.382 12.8855C102.165 13.3877 102.057 13.7745 102.057 14.0459C102.057 14.168 102.233 14.2291 102.585 14.2291C102.666 14.2291 102.801 14.2223 102.991 14.2087C103.18 14.1816 103.316 14.168 103.397 14.168C103.668 14.168 103.837 14.1884 103.905 14.2291C104.23 14.202 104.392 14.1002 104.392 13.9237Z" fill="white"/>
<path d="M117.998 10.3816C117.822 10.3816 117.659 10.4494 117.51 10.5852C117.375 10.7073 117.321 10.8566 117.348 11.033L117.51 13.1298C117.537 13.4827 117.659 13.6591 117.876 13.6591C118.282 13.6591 118.607 13.4623 118.851 13.0687C119.067 12.7159 119.175 12.3223 119.175 11.888C119.175 10.8837 118.783 10.3816 117.998 10.3816ZM117.937 16.6923C118.221 18.6195 118.512 19.7866 118.81 20.1938C118.986 20.3838 119.169 20.5874 119.358 20.8045C119.548 21.0216 119.643 21.2388 119.643 21.4559C119.643 22.5688 119.365 23.2542 118.81 23.512C118.377 23.7156 117.219 23.8174 115.337 23.8174C113.794 23.8174 112.765 23.6749 112.251 23.3899C111.75 23.0913 111.52 22.4942 111.56 21.5984C111.574 21.3949 111.702 21.1709 111.946 20.9266C112.244 20.6281 112.42 20.4313 112.474 20.3363C112.664 19.9563 112.894 18.9723 113.165 17.3845C113.408 15.9595 113.591 14.6091 113.713 13.3334C113.672 11.9491 113.489 11.1212 113.165 10.8498C113.043 10.7819 112.873 10.6802 112.657 10.5444C112.494 10.3816 112.413 10.1509 112.413 9.85229C112.413 9.29586 112.765 8.88192 113.469 8.61049C114.038 8.37978 114.755 8.27121 115.622 8.28478C115.933 8.29835 116.217 8.31192 116.475 8.32549C117.68 8.27121 118.438 8.24406 118.749 8.24406C119.873 8.24406 120.861 8.46799 121.714 8.91585C122.77 9.45871 123.298 10.2459 123.298 11.2773C123.298 12.5666 122.607 13.5912 121.227 14.3512C121.362 14.772 121.653 15.0841 122.1 15.2877C122.763 15.5863 123.102 15.7355 123.115 15.7355C123.67 16.197 124.083 16.6788 124.354 17.1809C124.598 17.6288 124.801 18.2327 124.963 18.9927C125.193 20.1191 125.538 21.0759 125.999 21.8631C126.026 21.9174 126.202 22.1142 126.527 22.4534C126.77 22.7113 126.892 22.9284 126.892 23.1049C126.892 23.2406 126.777 23.3763 126.547 23.512C126.385 23.607 126.222 23.7088 126.06 23.8174C125.816 23.831 125.417 23.8852 124.861 23.9802C124.401 24.0617 124.009 24.1024 123.684 24.1024C122.276 24.1024 121.308 23.546 120.78 22.4331C120.523 21.8902 120.279 20.7434 120.049 18.9927C119.846 17.527 119.5 16.577 119.013 16.1427C118.851 16.007 118.654 15.9663 118.424 16.0205C118.045 16.1155 117.883 16.3395 117.937 16.6923Z" fill="white"/>
<path d="M128.926 12.1934C128.845 11.4877 128.682 11.0398 128.438 10.8498C128.317 10.7819 128.147 10.6802 127.931 10.5444C127.768 10.3816 127.687 10.1509 127.687 9.85229C127.687 9.29586 128.039 8.88192 128.743 8.61049C129.325 8.37978 130.043 8.27121 130.896 8.28478C131.058 8.28478 131.302 8.29835 131.627 8.32549C131.965 8.35264 132.222 8.36621 132.398 8.36621C132.859 8.36621 133.61 8.33228 134.652 8.26442C135.695 8.19656 136.433 8.16263 136.866 8.16263C137.448 8.16263 137.902 8.52906 138.226 9.26193C138.47 9.83193 138.592 10.4494 138.592 11.1144C138.592 11.5352 138.511 11.888 138.348 12.173C138.132 12.5259 137.834 12.7023 137.455 12.7023C137.089 12.7023 136.778 12.5327 136.521 12.1934C136.142 11.6912 135.851 11.3723 135.647 11.2366C135.147 10.8837 134.409 10.7073 133.434 10.7073C133.15 10.7073 133.001 10.7073 132.987 10.7073C132.852 10.7616 132.757 10.9244 132.703 11.1959C132.676 11.2909 132.662 11.3859 132.662 11.4809C132.662 11.9287 132.886 12.2952 133.332 12.5802C133.725 12.8245 134.192 12.9466 134.734 12.9466C134.842 12.9466 134.971 12.872 135.119 12.7227C135.282 12.5734 135.417 12.4987 135.526 12.4987C135.729 12.4987 135.83 12.648 135.83 12.9466C135.83 13.4216 135.769 13.8762 135.647 14.3105C135.471 14.9213 135.214 15.2266 134.876 15.2266C134.659 15.2266 134.449 15.057 134.246 14.7177C134.057 14.3784 133.772 14.2087 133.393 14.2087C132.96 14.2087 132.744 14.5684 132.744 15.2877C132.744 16.9841 133.725 17.8323 135.688 17.8323C135.769 17.8323 135.898 17.812 136.074 17.7713C136.25 17.7306 136.385 17.7238 136.48 17.7509C136.575 17.7645 136.656 17.7713 136.724 17.7713C137.062 17.7713 137.34 17.6084 137.556 17.2827C137.787 16.957 137.969 16.7941 138.105 16.7941C138.308 16.7941 138.484 16.9298 138.633 17.2013C138.782 17.4727 138.856 17.7238 138.856 17.9545C138.856 18.0902 138.87 18.4431 138.897 19.0131C138.937 19.5695 138.958 20.0309 138.958 20.3974C138.958 22.0531 138.619 23.1252 137.942 23.6138C137.685 23.7902 136.825 23.8785 135.363 23.8785C134.957 23.8785 134.402 23.8852 133.698 23.8988C133.116 23.9124 132.547 23.9124 131.992 23.8988L128.174 23.8785C127.484 23.8649 127.139 23.5324 127.139 22.8809C127.139 22.6231 127.24 22.3924 127.443 22.1888C127.782 21.8495 127.971 21.6392 128.012 21.5577L128.398 20.947C128.587 20.6349 128.702 19.8613 128.743 18.6263L128.905 13.3741C128.933 12.9262 128.939 12.5327 128.926 12.1934Z" fill="white"/>
<path d="M69.4578 39.0039C70.3919 39.0039 70.859 38.556 70.859 37.6603C70.859 37.3618 70.5476 36.9478 69.9249 36.4185C68.9907 35.6042 68.4289 35.0885 68.2394 34.8714C67.6166 34.1792 67.3052 33.4871 67.3052 32.7949C67.3052 31.5599 67.7994 30.5828 68.7877 29.8635C69.6676 29.2256 70.7439 28.9067 72.0165 28.9067C72.4227 28.9067 73.0048 28.9813 73.7629 29.1306C74.5346 29.2799 75.1303 29.3546 75.55 29.3546C76.281 29.3546 76.6466 30.196 76.6466 31.8789C76.6466 32.8424 76.2675 33.3242 75.5094 33.3242C74.9814 33.3242 74.4737 32.9374 73.9863 32.1639C73.5125 31.3903 73.0522 31.0035 72.6054 31.0035C71.6171 31.0035 71.123 31.3631 71.123 32.0824C71.123 32.5032 71.6781 32.9782 72.7882 33.5074C74.2909 34.2132 75.313 34.8035 75.8546 35.2785C76.9647 36.2421 77.5198 37.4771 77.5198 38.9836C77.5198 40.6257 76.985 41.9761 75.9155 43.0346C74.8595 44.0932 73.5192 44.6225 71.8947 44.6225C70.2295 44.6225 68.8757 44.2154 67.8332 43.4011C66.6825 42.5189 66.1071 41.2636 66.1071 39.635C66.1071 38.8207 66.5268 38.4135 67.3662 38.4135C67.6369 38.4135 67.9145 38.5153 68.1988 38.7189C68.4966 38.9089 68.9163 39.0039 69.4578 39.0039Z" fill="white"/>
<path d="M79.6154 32.9578C79.5341 32.2521 79.3717 31.8042 79.128 31.6142C79.0062 31.5464 78.8369 31.4446 78.6203 31.3089C78.4579 31.146 78.3766 30.9153 78.3766 30.6167C78.3766 30.0603 78.7286 29.6463 79.4326 29.3749C80.0147 29.1442 80.7323 29.0356 81.5852 29.0492C81.7476 29.0492 81.9913 29.0628 82.3162 29.0899C82.6547 29.1171 82.9119 29.1306 83.0879 29.1306C83.5482 29.1306 84.2996 29.0967 85.342 29.0288C86.3844 28.961 87.1223 28.9271 87.5555 28.9271C88.1376 28.9271 88.5912 29.2935 88.9161 30.0264C89.1598 30.5964 89.2816 31.2139 89.2816 31.8789C89.2816 32.2996 89.2004 32.6524 89.0379 32.9374C88.8213 33.2903 88.5235 33.4667 88.1444 33.4667C87.7789 33.4667 87.4675 33.2971 87.2103 32.9578C86.8312 32.4557 86.5401 32.1367 86.3371 32.001C85.8361 31.6481 85.0983 31.4717 84.1236 31.4717C83.8393 31.4717 83.6904 31.4717 83.6768 31.4717C83.5414 31.526 83.4467 31.6889 83.3925 31.9603C83.3654 32.0553 83.3519 32.1503 83.3519 32.2453C83.3519 32.6932 83.5753 33.0596 84.022 33.3446C84.4146 33.5889 84.8817 33.711 85.4232 33.711C85.5315 33.711 85.6602 33.6364 85.8091 33.4871C85.9715 33.3378 86.1069 33.2632 86.2152 33.2632C86.4183 33.2632 86.5198 33.4124 86.5198 33.711C86.5198 34.186 86.4589 34.6407 86.3371 35.075C86.1611 35.6857 85.9038 35.991 85.5654 35.991C85.3488 35.991 85.1389 35.8214 84.9359 35.4821C84.7463 35.1428 84.462 34.9732 84.083 34.9732C83.6497 34.9732 83.4331 35.3328 83.4331 36.0521C83.4331 37.7485 84.4146 38.5968 86.3777 38.5968C86.4589 38.5968 86.5875 38.5764 86.7635 38.5357C86.9395 38.495 87.0749 38.4882 87.1697 38.5153C87.2644 38.5289 87.3456 38.5357 87.4133 38.5357C87.7518 38.5357 88.0293 38.3728 88.2459 38.0471C88.4761 37.7214 88.6588 37.5585 88.7942 37.5585C88.9973 37.5585 89.1733 37.6943 89.3222 37.9657C89.4711 38.2371 89.5456 38.4882 89.5456 38.7189C89.5456 38.8546 89.5591 39.2075 89.5862 39.7775C89.6268 40.3339 89.6471 40.7953 89.6471 41.1618C89.6471 42.8175 89.3087 43.8897 88.6318 44.3782C88.3745 44.5547 87.5149 44.6429 86.0528 44.6429C85.6466 44.6429 85.0916 44.6497 84.3876 44.6632C83.8054 44.6768 83.2368 44.6768 82.6818 44.6632L78.864 44.6429C78.1736 44.6293 77.8283 44.2968 77.8283 43.6454C77.8283 43.3875 77.9299 43.1568 78.1329 42.9532C78.4714 42.6139 78.6609 42.4036 78.7015 42.3221L79.0874 41.7114C79.2769 41.3993 79.392 40.6257 79.4326 39.3907L79.5951 34.1385C79.6221 33.6907 79.6289 33.2971 79.6154 32.9578Z" fill="white"/>
<path d="M98.8162 44.4393L97.7805 44.48C97.1577 44.5614 96.3454 44.5886 95.3436 44.5614C93.6378 44.5207 92.8188 44.5004 92.8865 44.5004C91.1806 44.5004 90.3277 43.8625 90.3277 42.5868C90.3277 42.3018 90.5105 41.7861 90.876 41.0396C91.2822 40.2253 91.5191 39.635 91.5868 39.2686C91.8575 37.64 91.9929 36.0317 91.9929 34.4439C91.9794 32.8832 91.7763 31.9399 91.3837 31.6142C91.2619 31.5464 91.0926 31.4446 90.876 31.3089C90.7136 31.146 90.6324 30.9153 90.6324 30.6167C90.6324 30.0603 90.9843 29.6463 91.6883 29.3749C92.2705 29.1442 92.988 29.0356 93.8409 29.0492C95.0458 29.0628 95.8919 29.2053 96.3793 29.4767C96.799 29.6938 97.0088 30.0264 97.0088 30.4742C97.0088 30.7456 96.9411 30.9424 96.8057 31.0646C96.6839 31.1867 96.5553 31.3021 96.4199 31.4106C96.2845 31.5192 96.183 31.6685 96.1153 31.8585C95.8716 32.4421 95.7498 33.2632 95.7498 34.3217C95.7498 35.801 95.7633 36.6221 95.7904 36.785C96.0882 38.6443 96.535 39.5739 97.1307 39.5739C97.5233 39.5739 97.9023 39.4518 98.2679 39.2075C98.8094 38.8546 99.1749 38.6375 99.3644 38.556C99.73 38.4068 100.001 38.3321 100.177 38.3321C100.353 38.3321 100.529 38.3932 100.705 38.5153C101.03 38.746 101.219 38.9089 101.273 39.0039C101.382 39.2211 101.436 39.6757 101.436 40.3678C101.436 42.0914 101.179 43.2857 100.664 43.9507C100.393 44.29 100.014 44.4597 99.5269 44.4597C99.4457 44.4597 99.3171 44.4529 99.1411 44.4393C98.9921 44.4257 98.8838 44.4257 98.8162 44.4393Z" fill="white"/>
<path d="M103.494 34.1182V34.0978C103.48 32.7271 103.297 31.8992 102.945 31.6142C102.823 31.5464 102.654 31.4446 102.438 31.3089C102.275 31.146 102.194 30.9153 102.194 30.6167C102.194 30.0603 102.546 29.6463 103.25 29.3749C103.832 29.1442 104.55 29.0356 105.403 29.0492C105.47 29.0492 105.572 29.056 105.707 29.0696C105.829 29.0696 105.924 29.0696 105.991 29.0696C105.897 29.0696 106.364 29.0696 107.393 29.0696C107.866 29.0696 108.564 29.0153 109.484 28.9067C110.405 28.7846 111.082 28.7235 111.515 28.7235C112.084 28.7235 112.53 29.0899 112.855 29.8228C113.112 30.3928 113.241 31.0103 113.241 31.6753C113.241 32.096 113.153 32.4489 112.977 32.7339C112.774 33.0867 112.483 33.2632 112.104 33.2632C111.779 33.2632 111.501 33.0799 111.271 32.7135C110.933 32.1571 110.689 31.8178 110.54 31.6956C110.134 31.3292 109.552 31.1528 108.794 31.1664C107.86 31.1935 107.393 31.4514 107.393 31.9399C107.393 32.4421 107.589 32.8289 107.982 33.1003C108.334 33.331 108.774 33.4464 109.301 33.4464C109.41 33.4464 109.552 33.3853 109.728 33.2632C109.904 33.1274 110.053 33.0596 110.175 33.0596C110.391 33.0596 110.5 33.8671 110.5 35.4821C110.5 35.6857 110.439 35.8689 110.317 36.0317C110.195 36.1946 110.033 36.276 109.829 36.276C109.681 36.276 109.444 36.0928 109.119 35.7264C108.794 35.36 108.435 35.1767 108.042 35.1767C107.731 35.1767 107.535 35.2785 107.454 35.4821C107.413 35.5907 107.386 35.8485 107.372 36.2557C107.318 37.9385 107.46 39.4925 107.799 40.9175C107.866 41.2296 108.239 41.7046 108.916 42.3425C109.525 42.9261 109.809 43.4282 109.769 43.8489C109.728 44.2968 109.295 44.5207 108.469 44.5207C108.252 44.5207 107.934 44.5004 107.514 44.4597C107.095 44.4325 106.797 44.4189 106.621 44.4189L102.803 44.4597C102.113 44.4597 101.768 44.1204 101.768 43.4418C101.768 43.1704 101.93 42.8447 102.255 42.4646C102.512 42.1796 102.769 41.8946 103.027 41.6096C103.406 41.1482 103.588 40.6121 103.575 40.0014L103.494 34.1182Z" fill="white"/>
<path d="M122.469 37.07C122.469 37.3278 122.313 37.8028 122.002 38.495C121.975 38.5493 121.88 38.7596 121.717 39.1261C121.393 39.4518 120.689 39.6146 119.606 39.6146C119.443 39.6146 118.895 39.6011 117.961 39.5739C117.419 39.5468 116.878 39.5264 116.336 39.5128C115.862 39.5128 115.287 39.4993 114.61 39.4721C114.041 39.4043 113.703 39.2143 113.595 38.9021C113.662 38.4 113.838 37.8164 114.123 37.1514C114.326 36.69 114.651 36.3982 115.097 36.276C115.273 36.276 115.957 36.2964 117.148 36.3371C118.407 36.3643 119.226 36.3778 119.606 36.3778C120.12 36.3914 120.573 36.3982 120.966 36.3982C121.237 36.3846 121.474 36.3778 121.677 36.3778C121.893 36.3642 122.009 36.3575 122.022 36.3575C122.32 36.4932 122.469 36.7307 122.469 37.07Z" fill="white"/>
<path d="M34.7857 51.9104C34.6097 51.9104 34.4473 51.9783 34.2983 52.114C34.163 52.2361 34.1088 52.3854 34.1359 52.5619L34.2983 54.6587C34.3254 55.0115 34.4473 55.1879 34.6639 55.1879C35.07 55.1879 35.3949 54.9912 35.6386 54.5976C35.8552 54.2447 35.9635 53.8512 35.9635 53.4169C35.9635 52.4126 35.5709 51.9104 34.7857 51.9104ZM34.7248 58.2212C35.0091 60.1483 35.3002 61.3155 35.598 61.7226C35.774 61.9126 35.9568 62.1162 36.1463 62.3334C36.3358 62.5505 36.4306 62.7676 36.4306 62.9848C36.4306 64.0976 36.1531 64.783 35.598 65.0409C35.1648 65.2444 34.0073 65.3462 32.1255 65.3462C30.5821 65.3462 29.5532 65.2037 29.0388 64.9187C28.5379 64.6202 28.3077 64.023 28.3483 63.1273C28.3619 62.9237 28.4905 62.6998 28.7342 62.4555C29.032 62.1569 29.208 61.9601 29.2621 61.8651C29.4517 61.4851 29.6818 60.5012 29.9526 58.9133C30.1963 57.4883 30.379 56.138 30.5009 54.8622C30.4603 53.4779 30.2775 52.6501 29.9526 52.3786C29.8307 52.3108 29.6615 52.209 29.4449 52.0733C29.2825 51.9104 29.2012 51.6797 29.2012 51.3811C29.2012 50.8247 29.5532 50.4108 30.2572 50.1393C30.8258 49.9086 31.5433 49.8001 32.4098 49.8136C32.7211 49.8272 33.0054 49.8408 33.2627 49.8543C34.4676 49.8001 35.2257 49.7729 35.5371 49.7729C36.6607 49.7729 37.649 49.9968 38.5019 50.4447C39.5579 50.9876 40.0859 51.7747 40.0859 52.8061C40.0859 54.0954 39.3954 55.1201 38.0146 55.8801C38.1499 56.3008 38.441 56.613 38.8878 56.8165C39.5511 57.1151 39.8896 57.2644 39.9031 57.2644C40.4582 57.7258 40.8711 58.2076 41.1419 58.7098C41.3855 59.1576 41.5886 59.7615 41.7511 60.5216C41.9812 61.648 42.3264 62.6048 42.7867 63.3919C42.8138 63.4462 42.9898 63.643 43.3147 63.9823C43.5584 64.2402 43.6803 64.4573 43.6803 64.6337C43.6803 64.7694 43.5652 64.9052 43.335 65.0409C43.1726 65.1359 43.0101 65.2377 42.8477 65.3462C42.604 65.3598 42.2046 65.4141 41.6495 65.5091C41.1892 65.5905 40.7966 65.6312 40.4717 65.6312C39.0638 65.6312 38.0958 65.0748 37.5678 63.9619C37.3106 63.4191 37.0669 62.2723 36.8367 60.5216C36.6337 59.0558 36.2884 58.1058 35.8011 57.6715C35.6386 57.5358 35.4423 57.4951 35.2122 57.5494C34.8331 57.6444 34.6706 57.8683 34.7248 58.2212Z" fill="white"/>
<path d="M45.7138 53.7222C45.6326 53.0165 45.4702 52.5686 45.2265 52.3786C45.1046 52.3108 44.9354 52.209 44.7188 52.0733C44.5563 51.9104 44.4751 51.6797 44.4751 51.3811C44.4751 50.8247 44.8271 50.4108 45.5311 50.1393C46.1132 49.9086 46.8307 49.8001 47.6836 49.8136C47.8461 49.8136 48.0898 49.8272 48.4147 49.8543C48.7532 49.8815 49.0104 49.8951 49.1864 49.8951C49.6467 49.8951 50.398 49.8611 51.4405 49.7933C52.4829 49.7254 53.2207 49.6915 53.654 49.6915C54.2361 49.6915 54.6896 50.0579 55.0145 50.7908C55.2582 51.3608 55.3801 51.9783 55.3801 52.6433C55.3801 53.064 55.2988 53.4169 55.1364 53.7019C54.9198 54.0547 54.6219 54.2312 54.2429 54.2312C53.8773 54.2312 53.566 54.0615 53.3087 53.7222C52.9297 53.2201 52.6386 52.9011 52.4355 52.7654C51.9346 52.4126 51.1968 52.2361 50.222 52.2361C49.9377 52.2361 49.7888 52.2361 49.7753 52.2361C49.6399 52.2904 49.5451 52.4533 49.491 52.7247C49.4639 52.8197 49.4504 52.9147 49.4504 53.0097C49.4504 53.4576 49.6737 53.824 50.1205 54.109C50.5131 54.3533 50.9802 54.4754 51.5217 54.4754C51.63 54.4754 51.7586 54.4008 51.9075 54.2515C52.07 54.1022 52.2054 54.0276 52.3137 54.0276C52.5168 54.0276 52.6183 54.1769 52.6183 54.4754C52.6183 54.9504 52.5574 55.4051 52.4355 55.8394C52.2595 56.4501 52.0023 56.7555 51.6639 56.7555C51.4472 56.7555 51.2374 56.5858 51.0343 56.2465C50.8448 55.9072 50.5605 55.7376 50.1814 55.7376C49.7482 55.7376 49.5316 56.0972 49.5316 56.8165C49.5316 58.513 50.5131 59.3612 52.4761 59.3612C52.5574 59.3612 52.686 59.3408 52.862 59.3001C53.038 59.2594 53.1734 59.2526 53.2681 59.2798C53.3629 59.2933 53.4441 59.3001 53.5118 59.3001C53.8503 59.3001 54.1278 59.1373 54.3444 58.8115C54.5746 58.4858 54.7573 58.323 54.8927 58.323C55.0958 58.323 55.2718 58.4587 55.4207 58.7301C55.5696 59.0015 55.6441 59.2526 55.6441 59.4833C55.6441 59.619 55.6576 59.9719 55.6847 60.5419C55.7253 61.0983 55.7456 61.5598 55.7456 61.9262C55.7456 63.5819 55.4071 64.6541 54.7302 65.1427C54.473 65.3191 53.6133 65.4073 52.1512 65.4073C51.7451 65.4073 51.19 65.4141 50.486 65.4277C49.9039 65.4412 49.3353 65.4412 48.7802 65.4277L44.9625 65.4073C44.272 65.3937 43.9268 65.0612 43.9268 64.4098C43.9268 64.1519 44.0283 63.9212 44.2314 63.7176C44.5699 63.3784 44.7594 63.168 44.8 63.0866L45.1859 62.4759C45.3754 62.1637 45.4905 61.3901 45.5311 60.1551L45.6935 54.9029C45.7206 54.4551 45.7274 54.0615 45.7138 53.7222Z" fill="white"/>
<path d="M65.3614 57.2644C65.3614 57.1422 65.226 56.9794 64.9552 56.7758C64.6845 56.5722 64.5491 56.3687 64.5491 56.1651C64.5491 55.5951 65.3072 55.3101 66.8235 55.3101C66.81 55.3101 66.9318 55.3033 67.189 55.2897C67.4463 55.2626 67.6832 55.249 67.8998 55.249C69.0099 55.249 69.5785 55.4729 69.6056 55.9208C69.6191 56.2194 69.5244 56.4976 69.3213 56.7555C69.037 57.1219 68.8745 57.339 68.8339 57.4069C68.6444 57.8683 68.5902 58.323 68.6715 58.7708C68.9693 60.3858 69.1182 61.4987 69.1182 62.1094C69.1182 62.3809 69.0776 62.5573 68.9964 62.6387C68.8068 62.8287 68.5293 62.9576 68.1638 63.0255C67.7982 63.0934 67.5816 63.1544 67.5139 63.2087C66.3497 64.1316 65.6118 64.6744 65.3005 64.8373C64.6236 65.1766 63.6691 65.3462 62.4371 65.3462C60.5824 65.3462 59.0661 64.498 57.8883 62.8016C56.8324 61.2951 56.3044 59.5648 56.3044 57.6105C56.3044 55.6426 56.873 53.8715 58.0102 52.2972C59.2692 50.5465 60.86 49.6711 62.7824 49.6711C63.0667 49.6711 63.4728 49.739 64.0008 49.8747C64.5423 50.0104 64.9417 50.0783 65.1989 50.0783C65.3343 50.0783 65.5374 50.0172 65.8081 49.8951C66.0789 49.7729 66.282 49.7118 66.4174 49.7118C66.8506 49.7118 67.1755 49.9629 67.3921 50.4651C67.5546 50.8451 67.6358 51.2726 67.6358 51.7476C67.6358 52.5619 67.5749 53.1386 67.453 53.4779C67.2364 54.0479 66.7897 54.3329 66.1127 54.3329C65.5712 54.3329 65.1786 54.1565 64.9349 53.8036C64.7589 53.4644 64.5897 53.1251 64.4272 52.7858C64.17 52.4329 63.7639 52.2565 63.2088 52.2565C62.5861 52.2565 62.0445 52.589 61.5842 53.254C61.151 53.8647 60.9344 54.489 60.9344 55.1269C60.9344 56.0633 61.327 56.7758 62.1122 57.2644C62.7485 57.6444 63.554 57.8344 64.5288 57.8344C65.0838 57.8344 65.3614 57.6444 65.3614 57.2644Z" fill="white"/>
<path d="M82.8443 55.5951C82.8443 56.0565 82.8511 56.7487 82.8646 57.6715C82.8917 58.5808 82.9052 59.2662 82.9052 59.7276C82.9052 61.0441 82.3298 62.2994 81.1791 63.4937C80.0284 64.6744 78.7896 65.2648 77.4629 65.2648C75.0666 65.2648 73.3811 64.8102 72.4064 63.9009C71.391 62.9644 70.8834 61.3291 70.8834 58.9948C70.8834 58.5469 70.9037 57.8751 70.9443 56.9794C70.9984 56.0837 71.0255 55.4119 71.0255 54.964C71.0255 53.9733 70.9172 53.2472 70.7006 52.7858C70.5923 52.5686 70.3824 52.3379 70.0711 52.0936C69.8409 51.9172 69.7258 51.6797 69.7258 51.3811C69.7258 50.7976 70.1117 50.3701 70.8834 50.0986C71.4113 49.9086 72.0409 49.8136 72.7719 49.8136C74.9922 49.8136 76.1023 50.2886 76.1023 51.2386C76.1023 51.5372 75.9872 51.7883 75.7571 51.9919C75.4457 52.2633 75.2562 52.4736 75.1885 52.6229C74.9583 53.1658 74.8433 54.0751 74.8433 55.3508L74.823 55.3101C74.8365 56.5587 74.9583 57.4001 75.1885 57.8344C75.5405 58.4587 76.2918 58.7708 77.4426 58.7708C78.4173 58.7708 79.0739 58.5673 79.4124 58.1601C79.7644 57.753 79.9404 57.0472 79.9404 56.043C79.9404 55.0115 79.8998 54.204 79.8185 53.6204C79.7238 52.9147 79.4868 52.4465 79.1078 52.2158C78.7693 52.0258 78.6001 51.7476 78.6001 51.3811C78.6001 50.3361 79.6696 49.8136 81.8086 49.8136C82.3637 49.8136 82.8511 49.9018 83.2708 50.0783C83.8258 50.3226 84.1033 50.689 84.1033 51.1776C84.1033 51.4761 83.9883 51.7272 83.7581 51.9308C83.4603 52.1886 83.2775 52.3922 83.2098 52.5415C82.9661 53.1386 82.8443 54.1565 82.8443 55.5951Z" fill="white"/>
<path d="M92.6189 65.2037L91.5832 65.2444C90.9605 65.3259 90.1482 65.353 89.1464 65.3259C87.4405 65.2852 86.6215 65.2648 86.6892 65.2648C84.9834 65.2648 84.1305 64.6269 84.1305 63.3512C84.1305 63.0662 84.3132 62.5505 84.6788 61.8041C85.0849 60.9898 85.3218 60.3994 85.3895 60.033C85.6603 58.4044 85.7957 56.7962 85.7957 55.2083C85.7821 53.6476 85.5791 52.7044 85.1864 52.3786C85.0646 52.3108 84.8954 52.209 84.6788 52.0733C84.5163 51.9104 84.4351 51.6797 84.4351 51.3811C84.4351 50.8247 84.7871 50.4108 85.4911 50.1393C86.0732 49.9086 86.7907 49.8001 87.6436 49.8136C88.8485 49.8272 89.6946 49.9697 90.182 50.2411C90.6017 50.4583 90.8115 50.7908 90.8115 51.2386C90.8115 51.5101 90.7439 51.7068 90.6085 51.829C90.4866 51.9511 90.358 52.0665 90.2226 52.1751C90.0873 52.2836 89.9857 52.4329 89.918 52.6229C89.6743 53.2065 89.5525 54.0276 89.5525 55.0862C89.5525 56.5655 89.566 57.3865 89.5931 57.5494C89.8909 59.4087 90.3377 60.3383 90.9334 60.3383C91.326 60.3383 91.7051 60.2162 92.0706 59.9719C92.6121 59.619 92.9776 59.4019 93.1672 59.3205C93.5327 59.1712 93.8035 59.0965 93.9795 59.0965C94.1555 59.0965 94.3315 59.1576 94.5075 59.2798C94.8324 59.5105 95.0219 59.6733 95.0761 59.7683C95.1844 59.9855 95.2385 60.4401 95.2385 61.1323C95.2385 62.8559 94.9813 64.0501 94.4668 64.7152C94.1961 65.0544 93.817 65.2241 93.3296 65.2241C93.2484 65.2241 93.1198 65.2173 92.9438 65.2037C92.7949 65.1902 92.6866 65.1902 92.6189 65.2037Z" fill="white"/>
<path d="M111.085 63.2698C111.031 64.0569 110.462 64.6134 109.379 64.9391C108.675 65.1698 107.815 65.2852 106.8 65.2852C105.785 65.2852 105.054 65.1969 104.607 65.0205C103.862 64.7355 103.49 64.1791 103.49 63.3512C103.49 63.0391 103.537 62.6862 103.632 62.2926C104.241 61.6819 104.546 60.7455 104.546 59.4833C104.546 59.049 104.248 58.7165 103.653 58.4858C103.206 58.3094 102.718 58.2212 102.19 58.2212C102.19 58.2212 102.001 58.2551 101.622 58.323C101.121 58.6215 100.87 59.1915 100.87 60.033C100.87 60.6437 100.999 61.173 101.256 61.6208C101.365 61.7837 101.615 62.0755 102.008 62.4962C102.265 62.7812 102.393 63.0459 102.393 63.2901C102.393 64.2266 101.906 64.8305 100.931 65.1019C100.458 65.2377 99.5979 65.3055 98.3523 65.3055C96.4841 65.3055 95.5499 64.8373 95.5499 63.9009C95.5364 63.073 95.8952 62.4012 96.6262 61.8855C97.4791 61.2748 98.2305 59.9651 98.8803 57.9565C99.4354 56.2058 99.7129 54.679 99.7129 53.3761C99.7129 52.874 99.6249 52.4533 99.4489 52.114C99.3542 51.924 99.1985 51.7272 98.9819 51.5236C98.8059 51.3608 98.7179 51.2386 98.7179 51.1572C98.7179 50.7093 99.4422 50.3226 100.891 49.9968C102.123 49.7254 103.023 49.6168 103.592 49.6711C104.553 49.7661 105.284 50.0579 105.785 50.5465C106.015 50.7772 106.353 51.3065 106.8 52.1344C106.936 52.4058 107.105 52.9351 107.308 53.7222C108.093 56.8572 108.885 59.2187 109.684 60.8066C109.792 61.0373 109.995 61.2748 110.293 61.5191C110.591 61.7498 110.787 61.9398 110.882 62.0891C111.044 62.3741 111.112 62.7676 111.085 63.2698ZM103.896 55.4526C103.896 55.344 103.774 54.9844 103.531 54.3737C103.301 53.8172 102.996 53.539 102.617 53.539C102.387 53.539 102.143 53.8308 101.886 54.4144C101.669 54.9165 101.561 55.3033 101.561 55.5747C101.561 55.6969 101.737 55.7579 102.089 55.7579C102.17 55.7579 102.305 55.7512 102.495 55.7376C102.685 55.7104 102.82 55.6969 102.901 55.6969C103.172 55.6969 103.341 55.7172 103.409 55.7579C103.734 55.7308 103.896 55.629 103.896 55.4526Z" fill="white"/>
<path d="M119.228 55.9208C119.363 57.1151 119.546 58.2822 119.776 59.4223C120.02 60.7116 120.23 61.4784 120.406 61.7226C120.582 61.9126 120.765 62.1162 120.954 62.3334C121.157 62.5505 121.259 62.7676 121.259 62.9848C121.259 64.0976 120.974 64.783 120.406 65.0409C119.973 65.2444 118.815 65.3462 116.933 65.3462C115.431 65.3462 114.422 65.1969 113.908 64.8984C113.407 64.5862 113.156 63.9959 113.156 63.1273C113.156 62.9237 113.285 62.6998 113.542 62.4555C113.853 62.1569 114.029 61.9601 114.07 61.8651C114.273 61.4716 114.51 60.4876 114.781 58.9133C115.051 57.4069 115.234 56.0565 115.329 54.8622C115.356 54.5501 115.383 53.8172 115.41 52.6636C115.207 52.5822 115.106 52.5415 115.106 52.5415C114.93 52.5415 114.774 52.7044 114.639 53.0301C114.449 53.4915 114.28 53.7969 114.131 53.9462C113.82 54.2719 113.366 54.4347 112.77 54.4347C112.269 54.4347 111.944 54.2719 111.796 53.9462C111.701 53.7426 111.653 53.349 111.653 52.7654C111.653 52.1547 111.836 51.5168 112.202 50.8518C112.608 50.0783 113.075 49.6915 113.603 49.6915C113.792 49.6915 114.077 49.7458 114.456 49.8543C114.835 49.9493 115.119 49.9968 115.309 49.9968C117.583 49.9968 119.106 49.9629 119.878 49.8951C119.946 49.8815 120.04 49.8408 120.162 49.7729C120.284 49.7051 120.392 49.6711 120.487 49.6711C121.056 49.6711 121.543 50.0443 121.949 50.7908C122.301 51.4286 122.477 52.0665 122.477 52.7044C122.477 53.8579 122.044 54.4347 121.177 54.4347C120.69 54.4347 120.291 54.1158 119.979 53.4779C119.668 52.8265 119.357 52.5008 119.045 52.5008C119.045 52.5008 118.978 52.5279 118.842 52.5822C118.883 53.0301 118.978 53.8919 119.126 55.1676L119.228 55.9208Z" fill="white"/>
<path d="M124.433 54.8622C124.419 53.4915 124.236 52.6636 123.884 52.3786C123.763 52.3108 123.593 52.209 123.377 52.0733C123.214 51.9104 123.133 51.6797 123.133 51.3811C123.133 50.8247 123.485 50.4108 124.189 50.1393C124.771 49.9086 125.489 49.8001 126.342 49.8136C127.546 49.8272 128.393 49.9697 128.88 50.2411C129.3 50.4583 129.509 50.7908 129.509 51.2386C129.509 51.5101 129.442 51.7068 129.306 51.829C129.185 51.9511 129.056 52.0665 128.921 52.1751C128.785 52.2836 128.684 52.4329 128.616 52.6229C128.372 53.2201 128.25 54.1294 128.25 55.3508V55.4526C128.372 56.6197 128.562 57.848 128.819 59.1373C129.09 60.5894 129.327 61.4512 129.53 61.7226C129.706 61.9126 129.889 62.1162 130.078 62.3334C130.281 62.5505 130.383 62.7676 130.383 62.9848C130.383 64.0976 130.098 64.783 129.53 65.0409C129.097 65.2444 127.939 65.3462 126.057 65.3462C124.541 65.3462 123.532 65.1969 123.031 64.8984C122.531 64.5862 122.28 63.9959 122.28 63.1273C122.28 62.9237 122.409 62.6998 122.666 62.4555C122.977 62.1569 123.153 61.9601 123.194 61.8651C123.383 61.4851 123.614 60.5012 123.884 58.9133C124.128 57.4883 124.311 56.138 124.433 54.8622Z" fill="white"/>
<path d="M143.882 59.6665C143.882 61.3766 143.239 62.8084 141.953 63.9619C140.734 65.0477 139.266 65.5905 137.546 65.5905C135.624 65.5905 134.08 64.8305 132.916 63.3105C131.874 61.9262 131.353 60.2365 131.353 58.2415C131.353 56.0429 131.88 54.1226 132.936 52.4804C134.155 50.5804 135.8 49.6304 137.871 49.6304C139.875 49.6304 141.425 50.784 142.521 53.0911C143.429 54.9776 143.882 57.1694 143.882 59.6665ZM139.435 56.9997C139.435 56.104 139.238 55.1133 138.846 54.0276C138.358 52.6704 137.756 51.9919 137.039 51.9919C136.619 51.9919 136.294 52.304 136.064 52.9283C135.888 53.4033 135.8 53.9122 135.8 54.4551C135.8 55.3779 135.949 56.2397 136.247 57.0405C136.653 58.1126 137.248 58.6487 138.034 58.6487C138.968 58.6487 139.435 58.099 139.435 56.9997Z" fill="white"/>
<path d="M150.688 58.2415C150.688 58.5808 150.81 59.2051 151.053 60.1144C151.31 61.0101 151.507 61.553 151.642 61.743C151.791 61.933 151.947 62.123 152.109 62.313C152.312 62.5437 152.434 62.7676 152.475 62.9848C152.515 63.2562 152.536 63.5005 152.536 63.7176C152.536 64.3148 152.319 64.7355 151.886 64.9798C151.534 65.1698 150.904 65.2852 149.997 65.3259C149.578 65.3802 148.664 65.4073 147.256 65.4073C146.714 65.4073 146.159 65.2987 145.591 65.0816C145.09 64.9052 144.758 64.6541 144.596 64.3284C144.447 64.0977 144.372 63.8262 144.372 63.5141C144.372 63.4598 144.372 63.4055 144.372 63.3512C144.372 63.2834 144.372 63.2087 144.372 63.1273C144.372 62.9509 144.46 62.7676 144.636 62.5776C144.785 62.4284 144.941 62.2723 145.103 62.1094C145.509 60.5623 145.8 59.1237 145.976 57.7937C146.125 56.7215 146.227 55.7444 146.281 54.8622C146.362 53.5729 146.179 52.7451 145.733 52.3786C145.611 52.3108 145.442 52.209 145.225 52.0733C145.063 51.9104 144.981 51.6797 144.981 51.3811C144.981 50.8247 145.333 50.4108 146.037 50.1393C146.606 49.9086 147.323 49.8001 148.19 49.8136C149.666 49.8408 150.613 50.0511 151.033 50.4447C151.669 50.8654 152.245 51.8697 152.759 53.4576C153.328 55.1676 153.883 56.2872 154.424 56.8165C154.56 56.9387 154.708 56.9726 154.871 56.9183C155.033 56.7147 155.115 56.4162 155.115 56.0226C155.115 55.8733 155.094 55.6426 155.054 55.3304C155.054 55.3033 155.054 55.2694 155.054 55.2287L155.033 55.1879C154.993 54.8622 154.945 54.5162 154.891 54.1497C154.661 53.3897 154.289 52.7994 153.774 52.3786C153.653 52.3108 153.483 52.209 153.267 52.0733C153.118 51.9104 153.043 51.6797 153.043 51.3811C153.043 50.8247 153.395 50.4108 154.099 50.1393C154.668 49.9086 155.385 49.8001 156.252 49.8136C157.443 49.8272 158.289 49.9697 158.79 50.2411C159.196 50.4583 159.399 50.7908 159.399 51.2386C159.399 51.5101 159.339 51.7068 159.217 51.829C159.095 51.9511 158.966 52.0665 158.831 52.1751C158.695 52.2836 158.587 52.4329 158.506 52.6229C158.343 52.9079 158.181 53.1997 158.019 53.4983C157.775 54.0004 157.653 54.5637 157.653 55.1879C157.653 55.1608 157.653 55.249 157.653 55.4526C157.68 56.199 157.89 57.3255 158.283 58.8319C158.648 60.2705 158.831 61.3901 158.831 62.1909C158.831 63.2494 158.743 63.9823 158.567 64.3894C158.283 65.0273 157.694 65.3462 156.8 65.3462C155.812 65.3462 154.918 64.7016 154.12 63.4123C153.917 63.073 153.361 61.8787 152.454 59.8294C151.886 58.5401 151.371 57.8955 150.911 57.8955C150.762 57.8955 150.688 58.0108 150.688 58.2415Z" fill="white"/>
<path d="M60.7435 72.6138C60.405 72.6138 60.2358 72.8445 60.2358 73.3059C60.2358 74.2695 60.2493 74.9006 60.2764 75.1992C60.2899 75.362 60.2967 75.5249 60.2967 75.6877C60.3103 75.8506 60.3983 75.9727 60.5607 76.0542C60.5878 76.0677 60.6622 76.0813 60.7841 76.0949C61.2308 76.0949 61.5828 75.8913 61.8401 75.4842C62.0702 75.1177 62.1853 74.7038 62.1853 74.2424C62.1853 73.1566 61.7047 72.6138 60.7435 72.6138ZM60.8653 78.782C61.2173 80.8992 61.5219 82.1342 61.7791 82.4871C61.9551 82.6771 62.1379 82.8806 62.3274 83.0978C62.517 83.3149 62.6117 83.5321 62.6117 83.7492C62.6117 84.5906 62.4764 85.1674 62.2056 85.4796C61.9348 85.7917 61.4136 85.9817 60.6419 86.0496C60.2493 86.1582 59.7281 86.2124 59.0783 86.2124C58.4284 86.2124 57.6906 86.1582 56.8648 86.0496C55.9442 85.9546 55.3214 85.751 54.9965 85.4389C54.6852 85.1267 54.5295 84.611 54.5295 83.8917C54.5295 83.6881 54.6513 83.4642 54.895 83.2199C55.2064 82.9213 55.3891 82.7246 55.4433 82.6296C55.8359 81.8424 56.2285 79.6778 56.6211 76.1356V74.792C56.6346 73.9777 56.4654 73.4281 56.1134 73.1431C55.9916 73.0752 55.8224 72.9734 55.6057 72.8377C55.4433 72.6749 55.3621 72.4441 55.3621 72.1456C55.3621 71.5891 55.7141 71.1752 56.418 70.9038C57.0002 70.673 57.7177 70.5645 58.5706 70.5781C58.8143 70.5916 58.9091 70.5984 58.8549 70.5984C58.9632 70.5848 59.1189 70.5781 59.322 70.5781C59.4032 70.5645 59.7417 70.5306 60.3373 70.4763C60.7435 70.4491 61.1564 70.4423 61.5761 70.4559C64.7034 70.5781 66.267 71.9284 66.267 74.507C66.267 75.9592 65.9015 76.9702 65.1704 77.5402C64.7101 77.9067 63.9452 78.151 62.8757 78.2731C61.8062 78.3817 61.1361 78.5513 60.8653 78.782Z" fill="white"/>
<path d="M68.0934 74.4866C68.0122 73.7809 67.8497 73.3331 67.606 73.1431C67.4842 73.0752 67.315 72.9734 67.0984 72.8377C66.9359 72.6749 66.8547 72.4441 66.8547 72.1456C66.8547 71.5891 67.2067 71.1752 67.9106 70.9038C68.4928 70.673 69.2103 70.5645 70.0632 70.5781C70.2257 70.5781 70.4694 70.5916 70.7943 70.6188C71.1327 70.6459 71.3899 70.6595 71.5659 70.6595C72.0262 70.6595 72.7776 70.6256 73.82 70.5577C74.8625 70.4898 75.6003 70.4559 76.0335 70.4559C76.6157 70.4559 77.0692 70.8223 77.3941 71.5552C77.6378 72.1252 77.7596 72.7427 77.7596 73.4077C77.7596 73.8284 77.6784 74.1813 77.516 74.4663C77.2993 74.8191 77.0015 74.9956 76.6224 74.9956C76.2569 74.9956 75.9455 74.8259 75.6883 74.4866C75.3092 73.9845 75.0182 73.6656 74.8151 73.5299C74.3142 73.177 73.5764 73.0006 72.6016 73.0006C72.3173 73.0006 72.1684 73.0006 72.1549 73.0006C72.0195 73.0549 71.9247 73.2177 71.8706 73.4891C71.8435 73.5841 71.8299 73.6791 71.8299 73.7741C71.8299 74.222 72.0533 74.5884 72.5001 74.8734C72.8927 75.1177 73.3597 75.2399 73.9013 75.2399C74.0096 75.2399 74.1382 75.1652 74.2871 75.0159C74.4496 74.8667 74.5849 74.792 74.6933 74.792C74.8963 74.792 74.9979 74.9413 74.9979 75.2399C74.9979 75.7149 74.9369 76.1695 74.8151 76.6038C74.6391 77.2145 74.3819 77.5199 74.0434 77.5199C73.8268 77.5199 73.617 77.3502 73.4139 77.0109C73.2244 76.6717 72.9401 76.502 72.561 76.502C72.1278 76.502 71.9112 76.8617 71.9112 77.581C71.9112 79.2774 72.8927 80.1256 74.8557 80.1256C74.9369 80.1256 75.0656 80.1053 75.2416 80.0645C75.4175 80.0238 75.5529 80.017 75.6477 80.0442C75.7425 80.0578 75.8237 80.0645 75.8914 80.0645C76.2298 80.0645 76.5074 79.9017 76.724 79.576C76.9541 79.2503 77.1369 79.0874 77.2723 79.0874C77.4753 79.0874 77.6513 79.2231 77.8003 79.4945C77.9492 79.766 78.0236 80.017 78.0236 80.2478C78.0236 80.3835 78.0372 80.7363 78.0643 81.3063C78.1049 81.8628 78.1252 82.3242 78.1252 82.6906C78.1252 84.3464 77.7867 85.4185 77.1098 85.9071C76.8526 86.0835 75.9929 86.1717 74.5308 86.1717C74.1247 86.1717 73.5696 86.1785 72.8656 86.1921C72.2835 86.2057 71.7149 86.2057 71.1598 86.1921L67.342 86.1717C66.6516 86.1581 66.3064 85.8257 66.3064 85.1742C66.3064 84.9164 66.4079 84.6856 66.611 84.4821C66.9494 84.1428 67.139 83.9324 67.1796 83.851L67.5654 83.2403C67.755 82.9281 67.87 82.1546 67.9106 80.9195L68.0731 75.6674C68.1002 75.2195 68.107 74.8259 68.0934 74.4866Z" fill="white"/>
<path d="M84.5324 72.6749C84.3564 72.6749 84.194 72.7427 84.045 72.8784C83.9097 73.0006 83.8555 73.1499 83.8826 73.3263L84.045 75.4231C84.0721 75.7759 84.194 75.9524 84.4106 75.9524C84.8167 75.9524 85.1416 75.7556 85.3853 75.362C85.6019 75.0092 85.7102 74.6156 85.7102 74.1813C85.7102 73.177 85.3176 72.6749 84.5324 72.6749ZM84.4715 78.9856C84.7558 80.9128 85.0469 82.0799 85.3447 82.4871C85.5207 82.6771 85.7035 82.8806 85.893 83.0978C86.0825 83.3149 86.1773 83.5321 86.1773 83.7492C86.1773 84.8621 85.8998 85.5474 85.3447 85.8053C84.9115 86.0089 83.754 86.1107 81.8722 86.1107C80.3288 86.1107 79.2999 85.9682 78.7855 85.6832C78.2846 85.3846 78.0544 84.7874 78.095 83.8917C78.1086 83.6881 78.2372 83.4642 78.4809 83.2199C78.7787 82.9213 78.9547 82.7246 79.0089 82.6296C79.1984 82.2496 79.4285 81.2656 79.6993 79.6777C79.943 78.2527 80.1258 76.9024 80.2476 75.6267C80.207 74.2424 80.0242 73.4145 79.6993 73.1431C79.5775 73.0752 79.4082 72.9734 79.1916 72.8377C79.0292 72.6749 78.9479 72.4441 78.9479 72.1456C78.9479 71.5891 79.2999 71.1752 80.0039 70.9038C80.5725 70.673 81.29 70.5645 82.1565 70.5781C82.4678 70.5916 82.7521 70.6052 83.0094 70.6188C84.2143 70.5645 84.9724 70.5373 85.2838 70.5373C86.4074 70.5373 87.3957 70.7613 88.2486 71.2091C89.3046 71.752 89.8326 72.5391 89.8326 73.5706C89.8326 74.8599 89.1422 75.8845 87.7613 76.6445C87.8966 77.0652 88.1877 77.3774 88.6345 77.581C89.2978 77.8795 89.6363 78.0288 89.6498 78.0288C90.2049 78.4902 90.6178 78.972 90.8886 79.4742C91.1323 79.922 91.3353 80.526 91.4978 81.286C91.7279 82.4124 92.0732 83.3692 92.5335 84.1564C92.5605 84.2106 92.7365 84.4074 93.0614 84.7467C93.3051 85.0046 93.427 85.2217 93.427 85.3981C93.427 85.5339 93.3119 85.6696 93.0817 85.8053C92.9193 85.9003 92.7568 86.0021 92.5944 86.1107C92.3507 86.1242 91.9513 86.1785 91.3963 86.2735C90.936 86.3549 90.5433 86.3957 90.2184 86.3957C88.8105 86.3957 87.8425 85.8392 87.3145 84.7264C87.0573 84.1835 86.8136 83.0367 86.5834 81.286C86.3804 79.8203 86.0351 78.8702 85.5478 78.436C85.3853 78.3002 85.189 78.2595 84.9589 78.3138C84.5798 78.4088 84.4173 78.6327 84.4715 78.9856Z" fill="white"/>
<path d="M96.9836 80.5328C97.9177 80.5328 98.3848 80.0849 98.3848 79.1892C98.3848 78.8906 98.0734 78.4767 97.4507 77.9474C96.5165 77.1331 95.9547 76.6174 95.7652 76.4002C95.1424 75.7081 94.831 75.0159 94.831 74.3238C94.831 73.0888 95.3252 72.1116 96.3134 71.3923C97.1934 70.7545 98.2697 70.4356 99.5423 70.4356C99.9484 70.4356 100.531 70.5102 101.289 70.6595C102.06 70.8088 102.656 70.8834 103.076 70.8834C103.807 70.8834 104.172 71.7248 104.172 73.4077C104.172 74.3713 103.793 74.8531 103.035 74.8531C102.507 74.8531 101.999 74.4663 101.512 73.6927C101.038 72.9191 100.578 72.5323 100.131 72.5323C99.1429 72.5323 98.6488 72.892 98.6488 73.6113C98.6488 74.032 99.2038 74.507 100.314 75.0363C101.817 75.742 102.839 76.3324 103.38 76.8074C104.49 77.771 105.046 79.006 105.046 80.5124C105.046 82.1546 104.511 83.5049 103.441 84.5635C102.385 85.6221 101.045 86.1514 99.4205 86.1514C97.7553 86.1514 96.4015 85.7442 95.359 84.9299C94.2083 84.0478 93.6329 82.7924 93.6329 81.1638C93.6329 80.3495 94.0526 79.9424 94.8919 79.9424C95.1627 79.9424 95.4402 80.0442 95.7245 80.2478C96.0224 80.4378 96.4421 80.5328 96.9836 80.5328Z" fill="white"/>
<path d="M118.29 80.431C118.29 82.141 117.647 83.5728 116.361 84.7264C115.142 85.8121 113.673 86.3549 111.954 86.3549C110.032 86.3549 108.488 85.5949 107.324 84.0749C106.281 82.6906 105.76 81.001 105.76 79.006C105.76 76.8074 106.288 74.887 107.344 73.2449C108.563 71.3448 110.208 70.3948 112.279 70.3948C114.283 70.3948 115.833 71.5484 116.929 73.8556C117.836 75.742 118.29 77.9338 118.29 80.431ZM113.843 77.7642C113.843 76.8684 113.646 75.8777 113.254 74.792C112.766 73.4349 112.164 72.7563 111.446 72.7563C111.027 72.7563 110.702 73.0684 110.472 73.6927C110.296 74.1677 110.208 74.6767 110.208 75.2195C110.208 76.1424 110.356 77.0042 110.654 77.8049C111.06 78.877 111.656 79.4131 112.441 79.4131C113.375 79.4131 113.843 78.8635 113.843 77.7642Z" fill="white"/>
<path d="M125.095 79.006C125.095 79.3453 125.217 79.9695 125.461 80.8788C125.718 81.7746 125.914 82.3174 126.05 82.5074C126.199 82.6974 126.354 82.8874 126.517 83.0774C126.72 83.3081 126.842 83.5321 126.882 83.7492C126.923 84.0206 126.943 84.2649 126.943 84.4821C126.943 85.0792 126.727 85.4999 126.294 85.7442C125.942 85.9342 125.312 86.0496 124.405 86.0903C123.985 86.1446 123.071 86.1717 121.664 86.1717C121.122 86.1717 120.567 86.0632 119.998 85.846C119.497 85.6696 119.166 85.4185 119.003 85.0928C118.854 84.8621 118.78 84.5906 118.78 84.2785C118.78 84.2242 118.78 84.1699 118.78 84.1156C118.78 84.0478 118.78 83.9731 118.78 83.8917C118.78 83.7153 118.868 83.5321 119.044 83.3421C119.193 83.1928 119.348 83.0367 119.511 82.8738C119.917 81.3267 120.208 79.8881 120.384 78.5581C120.533 77.486 120.635 76.5088 120.689 75.6267C120.77 74.3374 120.587 73.5095 120.14 73.1431C120.019 73.0752 119.849 72.9734 119.633 72.8377C119.47 72.6749 119.389 72.4441 119.389 72.1456C119.389 71.5891 119.741 71.1752 120.445 70.9038C121.014 70.673 121.731 70.5645 122.598 70.5781C124.073 70.6052 125.021 70.8156 125.441 71.2091C126.077 71.6298 126.652 72.6341 127.167 74.222C127.735 75.932 128.29 77.0517 128.832 77.581C128.967 77.7031 129.116 77.737 129.279 77.6827C129.441 77.4792 129.522 77.1806 129.522 76.787C129.522 76.6377 129.502 76.407 129.461 76.0949C129.461 76.0677 129.461 76.0338 129.461 75.9931L129.441 75.9524C129.401 75.6267 129.353 75.2806 129.299 74.9142C129.069 74.1541 128.697 73.5638 128.182 73.1431C128.06 73.0752 127.891 72.9734 127.674 72.8377C127.526 72.6749 127.451 72.4441 127.451 72.1456C127.451 71.5891 127.803 71.1752 128.507 70.9038C129.076 70.673 129.793 70.5645 130.66 70.5781C131.851 70.5916 132.697 70.7341 133.198 71.0056C133.604 71.2227 133.807 71.5552 133.807 72.0031C133.807 72.2745 133.746 72.4713 133.624 72.5934C133.503 72.7156 133.374 72.8309 133.239 72.9395C133.103 73.0481 132.995 73.1974 132.914 73.3874C132.751 73.6724 132.589 73.9641 132.426 74.2627C132.183 74.7649 132.061 75.3281 132.061 75.9524C132.061 75.9252 132.061 76.0134 132.061 76.217C132.088 76.9634 132.298 78.0899 132.69 79.5963C133.056 81.0349 133.239 82.1546 133.239 82.9553C133.239 84.0139 133.151 84.7467 132.975 85.1539C132.69 85.7917 132.101 86.1107 131.208 86.1107C130.22 86.1107 129.326 85.466 128.527 84.1767C128.324 83.8374 127.769 82.6431 126.862 80.5938C126.294 79.3045 125.779 78.6599 125.319 78.6599C125.17 78.6599 125.095 78.7753 125.095 79.006Z" fill="white"/>
</svg>
