<svg width="164" height="164" viewBox="0 0 164 164" fill="none" xmlns="http://www.w3.org/2000/svg">
<path d="M82 0L96.0311 15.9887L115.352 7.08927L121.667 27.4027L142.938 27.1313L140.445 48.257L159.987 56.6606L149.116 74.9458L163.551 90.5713L146.183 102.854L153.014 123L132.152 127.157L130.198 148.339L109.449 143.652L99.0488 162.208L82 149.486L64.9512 162.208L54.551 143.652L33.8016 148.339L31.8481 127.157L10.9859 123L17.817 102.854L0.449203 90.5713L14.8837 74.9458L4.01337 56.6606L23.5554 48.257L21.0621 27.1313L42.3327 27.4027L48.6476 7.08927L67.9689 15.9887L82 0Z" fill="#F24EB6"/>
<path d="M110.429 57.6084L91.9369 38.8672V50.4809C90.9134 50.5908 89.8893 50.7284 88.8659 50.8476C86.2134 51.2998 83.6143 52.0283 81.1103 53.0223C76.0698 55.0912 71.4892 58.1604 67.6379 62.049C63.8368 65.8349 61.0334 70.5247 59.4838 75.6904C58.1084 80.5508 57.8943 85.6731 58.8589 90.6342C58.9038 90.8283 59.0554 90.9788 59.2484 91.02C59.3758 91.047 59.5086 91.0212 59.6172 90.9493C59.7258 90.8768 59.8017 90.7638 59.8278 90.6342C60.6553 86.1749 62.3389 81.9238 64.7839 78.1213C67.0536 74.6528 70.1187 71.7913 73.7171 69.7826C77.2165 67.8923 81.0211 66.6496 84.952 66.1133C86.891 65.792 88.8385 65.5352 90.814 65.3337L91.9376 65.233L91.937 76.314L110.429 57.6084Z" fill="white"/>
<path d="M50.3687 118.075C54.0867 118.075 56.4144 115.853 56.4642 113.059C56.5222 109.804 54.5827 108.77 50.7853 108.286C48.3716 107.934 47.875 107.406 47.895 106.284C47.9138 105.229 48.7188 104.503 50.2808 104.503C51.8428 104.503 52.667 105.163 52.8615 106.592H56.1395C55.9092 103.469 53.8695 101.885 50.3275 101.885C46.8515 101.885 44.5718 103.887 44.5239 106.57C44.4698 109.606 46.0982 110.816 50.1148 111.344C52.4185 111.696 53.0707 112.136 53.0483 113.389C53.0263 114.621 51.977 115.479 50.415 115.479C48.083 115.479 47.5098 114.313 47.3809 112.905H43.9709C44.1128 116.051 46.0567 118.075 50.3687 118.075ZM58.9453 117.833H62.5093L62.625 111.344H68.939L68.8233 117.833H72.3873L72.6678 102.105H69.1038L68.9893 108.528H62.6753L62.7898 102.105H59.2258L58.9453 117.833ZM74.5141 117.833H77.8581L78.9985 114.335H84.6965L85.7121 117.833H89.4301L84.6066 102.105H79.9646L74.5141 117.833ZM82.0248 105.009L83.9716 111.806H79.8136L82.0248 105.009ZM91.5801 117.833H95.1221L95.2304 111.762H96.7704L100.424 117.833H104.208L100.169 111.146C102.027 110.596 103.436 109.342 103.478 106.966L103.479 106.878C103.538 103.623 101.211 102.105 97.4926 102.105H91.8606L91.5801 117.833ZM95.2735 109.342L95.3539 104.833H97.3559C99.0719 104.833 100.03 105.383 100.001 106.988L99.9999 107.076C99.9729 108.594 99.0575 109.342 97.2755 109.342H95.2735ZM106.361 117.833H116.965L117.015 115.061H109.953L110.023 111.146H115.391L115.437 108.55H110.069L110.134 104.877H116.844L116.894 102.105H106.642L106.361 117.833Z" fill="white"/>
</svg>
