<svg width="420" height="343" viewBox="0 0 420 343" fill="none" xmlns="http://www.w3.org/2000/svg">
<path d="M70.5277 160.293L45.7815 212.734L76.6034 238.44L204.159 249.842L330.829 237.719L367.49 189.402L360.647 166.364L308.902 125.357L264.665 100.346L215.918 94.8704L97.6156 121.443L70.5277 160.293Z" fill="#0A0517"/>
<path d="M105.275 219.845C105.241 219.76 105.228 219.668 105.239 219.578C105.25 219.487 105.283 219.401 105.336 219.327C105.389 219.253 105.46 219.193 105.543 219.154C105.625 219.115 105.716 219.097 105.807 219.102C108.002 218.601 110.19 218.095 112.42 217.816C116.559 217.299 120.752 217.557 124.921 217.722C129.457 217.9 133.998 217.969 138.541 217.93C139.209 223.192 138.913 228.532 137.668 233.688L117.2 231.083C114.454 230.707 109.61 230.565 107.432 228.565C105.366 226.698 105.646 222.421 105.275 219.845Z" fill="#F9F3E9"/>
<path d="M175.136 233.262L174.323 233.802C172.501 231.975 172.023 229.237 171.63 226.686C170.989 222.535 170.35 218.384 169.713 214.233C160.931 214.448 152.155 214.887 143.385 215.549C142.494 215.722 141.586 215.792 140.678 215.76C140.373 215.766 140.072 215.836 139.796 215.966C139.519 216.096 139.274 216.282 139.074 216.514C138.875 216.745 138.726 217.015 138.638 217.308C138.55 217.6 138.525 217.908 138.564 218.211C139.041 222.29 139.136 226.405 138.848 230.501C138.787 231.319 138.8 232.32 139.511 232.737C139.734 232.85 139.975 232.925 140.223 232.958C148.469 234.463 156.925 233.298 165.282 232.678C167.476 232.537 173.404 231.835 175.136 233.262Z" fill="#F9F3E9"/>
<path d="M211.594 215.423C211.619 214.892 211.519 214.363 211.303 213.877C210.845 213.234 210.162 212.785 209.39 212.618C203.343 210.653 196.727 211.61 190.419 212.584L170.034 215.73C169.452 221.132 169.664 226.591 170.663 231.931C170.708 232.377 170.873 232.802 171.141 233.161C171.454 233.457 171.844 233.66 172.265 233.746C177.693 235.328 183.524 234.049 189.097 233.027C195.702 231.788 202.682 232.247 209.157 231.007C214.313 229.999 211.711 219.581 211.594 215.423Z" fill="#F9F3E9"/>
<path d="M210.003 216.913C209.891 215.466 209.805 213.828 210.788 212.756C211.353 212.222 212.028 211.82 212.766 211.577C215.084 210.612 217.46 209.644 219.969 209.537C222.906 209.409 225.724 210.469 228.642 210.631C234.926 210.944 241.087 207.023 247.238 208.348C248.713 211.987 249.368 215.907 249.156 219.828C248.984 223.066 248.236 226.418 249.317 229.476L228.03 231.266C223.929 231.585 216.916 232.891 213.3 230.054C209.918 227.411 210.368 220.687 210.003 216.913Z" fill="#F9F3E9"/>
<path d="M247.457 210.99C247.461 210.269 247.692 209.568 248.118 208.987C248.544 208.405 249.142 207.973 249.828 207.752C253.741 206.385 257.775 205.396 261.877 204.8C268.942 203.938 276.226 205.064 283.131 203.354C283.344 203.264 283.574 203.224 283.805 203.235C284.035 203.247 284.26 203.311 284.463 203.421C284.692 203.649 284.838 203.947 284.876 204.267C285.959 208.786 286.738 213.373 287.211 217.996C287.34 218.582 287.245 219.195 286.944 219.714C286.694 219.987 286.383 220.197 286.036 220.327C280.346 222.95 274.029 223.96 267.822 224.937C263.525 225.619 254.414 228.974 250.438 226.053C247.145 223.651 247.464 215.929 247.457 210.99Z" fill="#F9F3E9"/>
<path d="M284.729 206.895C285.153 205.913 286.398 205.628 287.448 205.475C291.682 204.848 295.922 204.247 300.169 203.673C301.586 203.48 303.004 203.293 304.426 203.165C306.359 202.998 308.299 202.946 310.238 203.008C310.793 203.023 311.32 203.253 311.708 203.65C312.096 204.046 312.315 204.578 312.319 205.133L312.319 211.204C312.317 212.159 312.227 213.286 311.418 213.797C310.838 214.059 310.196 214.154 309.565 214.07C305.348 214.039 301.531 216.876 297.328 217.014C295.035 217.092 289.348 217.717 287.35 216.346C285.575 215.134 283.924 208.755 284.729 206.895Z" fill="#F9F3E9"/>
<path d="M268.695 146.493C268.85 148.491 269.237 150.806 270.998 151.778C271.834 152.157 272.745 152.344 273.664 152.325C282.677 152.762 291.71 152.53 300.688 151.632C301.86 151.541 303.181 151.327 303.985 150.445C304.789 149.563 304.845 148.233 304.805 147.039C304.632 141.971 303.542 136.975 301.59 132.295C301.197 131.241 300.633 130.259 299.92 129.389C298.661 127.978 296.808 127.274 295 126.76C290.907 125.599 286.669 125.138 282.457 124.647C278.246 124.155 273.529 122.394 269.433 122.317C265.093 122.23 267.132 128.278 267.413 131.516L268.695 146.493Z" fill="#F9F3E9"/>
<path d="M208.683 137.094C208.414 139.089 208.014 141.066 207.903 143.049C207.693 146.796 208.483 150.518 209.252 154.189C209.487 155.779 210.006 157.314 210.783 158.721C212.124 160.797 214.504 162.003 216.931 162.439C219.358 162.875 221.846 162.647 224.296 162.397L253.815 159.513C256.506 159.329 259.177 158.924 261.802 158.303C265.168 157.398 268.65 155.412 269.565 152.023C269.847 150.686 269.903 149.311 269.733 147.955C269.055 138.577 268.007 129.248 266.59 119.967C266.381 118.575 266.053 117.009 264.857 116.253C264.21 115.908 263.494 115.714 262.762 115.685C252.578 114.567 242.342 115.587 232.143 116.091C226.863 116.42 221.569 116.429 216.289 116.115C214.202 115.965 210.968 114.849 208.975 115.299C206.432 115.874 207.187 116.935 207.699 119.206C209.104 125.06 209.437 131.121 208.683 137.094Z" fill="#F9F3E9"/>
<path d="M143.301 143.615C143.123 145.953 143.165 148.302 143.428 150.631C143.948 154.216 145.506 157.643 145.545 161.264C145.554 162.443 145.423 163.702 146.02 164.711C146.991 166.362 149.288 166.49 151.204 166.418L170.41 165.697L195.683 164.758C198.093 164.664 200.624 164.544 202.683 163.288C204.906 161.936 206.226 159.423 206.723 156.868C207.22 154.312 206.997 151.677 206.743 149.092C205.806 139.318 204.55 129.582 202.975 119.885C202.945 119.586 202.861 119.295 202.726 119.027C202.197 118.142 200.901 118.296 199.895 118.557C187.084 121.91 174.068 124.42 160.929 126.072C156.93 126.571 148.726 125.753 145.417 128.457C142.109 131.16 143.468 139.854 143.301 143.615Z" fill="#F9F3E9"/>
<path d="M136.943 163.188C139.204 163.236 141.666 163.287 143.49 161.948C145.313 160.61 146.002 158.169 145.938 155.917C145.875 153.664 145.18 151.473 144.743 149.255C143.496 142.922 144.309 136.098 141.62 130.237C141.346 129.463 140.801 128.814 140.086 128.411C139.177 128.01 138.133 128.38 137.22 128.763C127.153 133.023 117.478 139.428 110.118 147.568C107.681 150.268 106.03 152.984 106.296 156.706C106.417 158.839 106.93 160.93 107.807 162.878C109.45 166.051 111.743 165.206 114.838 164.689C122.147 163.527 129.545 163.025 136.943 163.188Z" fill="#F9F3E9"/>
<path d="M178.279 35.4984C179.532 33.9785 180.789 32.4564 182.05 30.9321C184.588 33.983 186.586 37.4458 187.956 41.1705C185.915 41.2997 184.091 42.5555 182.787 44.1303C181.56 45.762 180.534 47.5357 179.732 49.4131C179.631 49.6886 179.442 49.923 179.194 50.0797C179.028 50.1279 178.854 50.1418 178.682 50.1207C178.51 50.0997 178.344 50.044 178.195 49.957C176.435 49.2392 174.289 48.6929 172.678 47.6923C171.068 46.6918 171.917 45.4765 172.585 43.9098C173.937 40.8341 176.112 38.107 178.279 35.4984Z" fill="#FF9072"/>
<path d="M186.033 21.6518C183.618 23.873 181.652 26.7077 181.116 29.9675C180.931 31.2457 180.88 32.5395 180.962 33.8282C181.003 36.7245 181.503 39.596 182.443 42.336C183.396 45.0906 185.213 47.4633 187.625 49.1002C189.383 50.0988 191.275 50.8409 193.243 51.304C196.402 52.2077 199.672 53.1028 202.927 52.6611C207.511 52.0395 211.342 48.8418 214.345 45.3195C217.078 42.107 219.431 38.258 219.469 34.0467C219.503 29.7119 217.013 25.6618 213.729 22.8347C210.444 20.0075 206.415 18.2225 202.416 16.5235C196.178 13.9259 190.663 17.4372 186.033 21.6518Z" fill="#FF9072"/>
<path d="M183.982 136.783C184.695 137.536 185.468 138.229 186.295 138.855C187.352 139.518 188.492 140.037 189.686 140.4L196.353 142.758C196.699 142.879 197.131 142.987 197.389 142.731C197.527 142.559 197.603 142.345 197.607 142.124L199.331 131.098C199.384 130.872 199.366 130.634 199.278 130.419C199.06 129.964 198.42 129.99 197.917 130.047C193.563 130.521 189.487 127.756 186.523 124.508C186.212 124.099 185.801 123.776 185.33 123.57C184.867 123.456 184.383 123.461 183.923 123.585C180.287 124.28 176.273 125.641 173.316 127.946C176.532 131.179 180.669 133.587 183.982 136.783Z" fill="#FF9072"/>
<path d="M140.311 231.176L138.634 231.129C138.742 226.991 138.497 222.852 137.902 218.756L139.562 218.509C140.172 222.702 140.423 226.94 140.311 231.176Z" fill="#0A0517"/>
<path d="M169.378 217.463L169.383 233.641L171.058 233.64L171.053 217.463L169.378 217.463Z" fill="#0A0517"/>
<path d="M211.809 231.731L210.132 231.773C209.976 226.05 209.867 220.247 209.805 214.523L211.483 214.505C211.545 220.223 211.653 226.014 211.809 231.731Z" fill="#0A0517"/>
<path d="M248.32 226.904C247.255 223.892 247.325 220.704 247.392 217.616C247.448 215.084 247.504 212.468 246.916 210.056L248.547 209.658C249.187 212.284 249.128 215.012 249.074 217.651C249.006 220.721 248.949 223.619 249.903 226.345L248.32 226.904Z" fill="#0A0517"/>
<path d="M288.046 222.345C286.411 217.298 285.275 212.104 284.654 206.836L286.318 206.636C286.928 211.795 288.043 216.883 289.645 221.825L288.046 222.345Z" fill="#0A0517"/>
<path d="M269.379 150.32C267.896 141.105 266.793 131.696 266.122 122.382L267.798 122.252C268.518 131.515 269.593 140.873 271.061 150.048L269.379 150.32Z" fill="#0A0517"/>
<path d="M146.378 159.106L144.705 158.965C145.567 148.788 145.775 138.566 145.326 128.362L147 128.285C147.454 138.561 147.247 148.856 146.378 159.106Z" fill="#0A0517"/>
<path d="M194.49 32.7674C196.8 32.5878 198.528 30.5694 198.348 28.2591C198.168 25.9489 196.15 24.2217 193.84 24.4013C191.529 24.5809 189.802 26.5994 189.981 28.9096C190.161 31.2198 192.18 32.947 194.49 32.7674Z" fill="#F9F3E9"/>
<path d="M13.4263 203.717C18.7644 225.068 24.4284 247.125 38.023 264.44C43.5247 271.445 50.1822 277.469 55.756 284.415C62.5696 292.903 67.934 302.919 76.8862 309.119C83.2286 313.518 90.8587 315.6 98.3717 317.392C152.826 330.3 209.397 331.526 264.359 320.99C286.328 316.759 308.038 310.627 328.236 301.059C341.991 294.579 355.193 286.368 365.253 274.976C372.68 266.566 378.194 256.677 383.651 246.875C396.487 223.804 409.822 199.109 408.292 172.758C389.753 172.52 373.216 183.018 355.726 188.144C352.131 193.309 346.413 197.249 341.086 200.599C333.313 205.47 324.317 207.955 315.469 210.376C295.73 215.777 275.945 221.188 255.727 224.298C236.57 227.243 217.168 228.103 197.8 228.802C165.156 230.002 132.095 230.757 100.234 223.532C86.2416 220.353 71.9531 212.764 58.9748 206.635C53.6892 210.978 48.6165 208.354 42.1056 206.261C39.2707 205.356 34.7553 204.063 31.8033 203.697C30.1842 203.493 28.2817 202.45 26.6519 202.412C21.1901 202.288 18.7538 204.918 13.4263 203.717Z" fill="#454FDB"/>
<path d="M13.4948 203.782L16.9198 187.183C21.7963 163.706 26.9045 139.644 39.8101 119.438C53.8707 97.4095 75.9201 81.9269 97.3963 67.0311C101.547 64.048 105.849 61.2819 110.285 58.744C121.591 52.531 134.231 49.3851 146.729 46.2917C151.627 45.0798 156.56 43.8652 161.63 43.7952C178.118 43.5861 192.982 55.5504 209.442 54.978C224.814 54.4489 237.156 38.4361 252.45 36.8168C272.805 34.6449 292.526 43.7209 310.772 53.0176C326.606 61.0813 342.411 69.5954 355.879 81.1909C362.733 87.0884 368.908 93.7341 375.05 100.329C380.343 106.012 385.657 111.735 389.843 118.276C396.733 129.027 400.286 141.529 403.742 153.827C405.532 160.171 406.485 166.374 408.276 172.73C402.396 173.168 396.593 174.332 390.998 176.195C388.174 177.092 385.41 178.156 382.624 179.174C372.978 182.694 365.613 186.22 355.654 188.609C353.207 181.691 347.624 173.803 341.85 169.277C338.452 166.594 334.644 164.533 331.047 162.172C316.268 152.446 304.594 137.546 287.882 131.755C279.849 128.967 271.125 128.508 263.174 125.548C259.871 124.32 256.726 122.678 253.37 121.595C243.262 118.338 232.303 120.439 221.893 122.563C208.369 122.99 194.304 124.036 180.982 126.298C160.039 129.853 138.209 133.749 121.173 146.473C115.44 150.749 110.424 155.908 105.442 161.04L62.4576 205.28C61.1953 206.557 59.8916 207.908 58.234 208.65C55.8015 209.735 52.9865 209.388 50.358 209.014C37.5834 207.249 26.2537 205.572 13.4948 203.782Z" fill="#454FDB"/>
<path d="M197.43 126.34C196.496 130.022 196.154 133.828 196.415 137.618C196.69 141.162 197.517 144.817 199.776 147.565C203.559 152.174 210.185 153.103 216.126 153.172C218.628 153.201 221.215 153.118 223.478 152.052C225.741 150.986 227.411 149.112 228.847 147.114C231.313 143.825 232.993 140.015 233.757 135.976C234.502 131.91 233.804 127.712 231.785 124.105C229.075 119.571 224.073 116.719 218.872 115.862C215.082 115.3 211.218 115.502 207.507 116.456C203.051 117.51 198.562 121.873 197.43 126.34Z" fill="#FF9072"/>
<path d="M217.232 130.353C219.542 130.174 221.27 128.155 221.09 125.845C220.911 123.535 218.892 121.808 216.582 121.987C214.271 122.167 212.544 124.185 212.724 126.496C212.903 128.806 214.922 130.533 217.232 130.353Z" fill="#F9F3E9"/>
<path d="M215.84 150.319C214.017 150.458 212.184 150.357 210.388 150.018L210.616 148.78C216.406 149.862 222.07 148.343 225.385 144.809C227.561 142.476 228.752 139.366 229.612 136.629L230.819 137.001C229.917 139.877 228.68 143.15 226.318 145.673C223.793 148.369 220.029 149.993 215.84 150.319Z" fill="#F9F3E9"/>
<path d="M156.657 119.374C153.158 102.662 151.913 85.5566 152.956 68.5139L154.632 68.6135C153.599 85.5029 154.831 102.455 158.297 119.017L156.657 119.374Z" fill="#F9F3E9"/>
<path d="M267.648 116.745L265.977 116.557C267.73 101.291 267.915 85.8856 266.529 70.5821C266.214 67.1409 265.725 63.5718 263.527 61.1611L264.765 60.0275C267.341 62.8273 267.86 66.7064 268.197 70.4288C269.596 85.8458 269.412 101.366 267.648 116.745Z" fill="#F9F3E9"/>
<path d="M211.959 109.372C209.783 96.6521 209.715 83.6605 211.758 70.918L213.416 71.178C211.403 83.7409 211.471 96.5495 213.617 109.09L211.959 109.372Z" fill="#F9F3E9"/>
<path d="M313.932 130.403L312.254 130.357L313.411 91.2489C313.48 88.8092 313.555 86.2867 312.708 84.0244L314.283 83.4363C315.243 86.0081 315.161 88.82 315.088 91.2953L313.932 130.403Z" fill="#F9F3E9"/>
<path d="M354.554 152.897L352.896 152.643C355.072 138.103 355.209 123.331 353.303 108.754L354.966 108.536C356.897 123.27 356.759 138.201 354.554 152.897Z" fill="#F9F3E9"/>
<path d="M110.437 131.363C106.874 118.67 104.017 105.79 101.879 92.7806C101.79 92.2394 101.554 90.796 102.607 90.0186L103.608 91.3672C103.535 91.4199 103.393 91.6314 103.538 92.5102C105.661 105.457 108.504 118.276 112.052 130.908L110.437 131.363Z" fill="#F9F3E9"/>
<path d="M69.332 165.563C65.1694 151.871 62.3506 137.807 60.9154 123.568C60.8095 122.735 61.0195 121.892 61.5039 121.206C61.6451 121.033 61.8223 120.892 62.0234 120.794C62.2244 120.696 62.4444 120.643 62.6681 120.638L62.7398 122.318C62.6011 122.661 62.5589 123.035 62.6176 123.401C64.0393 137.529 66.8358 151.485 70.9677 165.07L69.332 165.563Z" fill="#F9F3E9"/>
<path d="M218.643 301.345L216.962 301.334C217.033 283.274 215.434 265.246 212.186 247.48L213.836 247.175C217.101 265.046 218.71 283.179 218.643 301.345Z" fill="#F9F3E9"/>
<path d="M96.4802 288.29L94.8063 288.367C94.082 272.218 95.8246 256.053 99.9739 240.43L101.599 240.858C97.4925 256.316 95.7665 272.311 96.4802 288.29Z" fill="#F9F3E9"/>
<path d="M152.609 297.765C149.887 282.548 149.901 266.966 152.651 251.753C153.116 249.177 154.392 248.754 155.151 248.736L155.193 250.418C154.832 250.399 154.45 251.242 154.306 252.049C151.593 267.067 151.579 282.449 154.266 297.471L152.609 297.765Z" fill="#F9F3E9"/>
<path d="M285.974 288.01C282.517 272.583 278.483 257.077 274.071 241.883C273.823 241.048 273.478 240.621 273.279 240.636L273.148 238.961C273.893 238.903 275.037 239.138 275.697 241.409C280.122 256.637 284.137 272.192 287.631 287.633L285.974 288.01Z" fill="#F9F3E9"/>
<path d="M337.174 265.934C334.481 253.724 330.971 241.707 326.668 229.967L328.244 229.39C332.576 241.199 336.108 253.287 338.814 265.571L337.174 265.934Z" fill="#F9F3E9"/>
<path d="M368.027 227.588C366.114 219.433 363.174 211.554 359.278 204.139L360.762 203.357C364.72 210.9 367.706 218.915 369.648 227.209L368.027 227.588Z" fill="#F9F3E9"/>
<path d="M46.8387 248.224L45.1723 248.018C46.1269 240.281 47.3803 232.522 48.8898 224.872C49.3769 222.418 50.361 221.05 51.8919 220.802L52.1619 222.454C51.4169 222.577 50.8696 223.498 50.5361 225.198C49.0342 232.794 47.7916 240.541 46.8387 248.224Z" fill="#F9F3E9"/>
<path d="M209.159 46.3992L208.353 45.4305C210.534 43.6045 211.981 41.0509 212.427 38.2413C212.766 35.4768 212.361 32.6717 211.253 30.1164C210.127 27.5105 208.774 25.0084 207.212 22.6387L208.279 21.9663C209.881 24.4046 211.265 26.9793 212.414 29.6606C213.614 32.4205 214.053 35.4512 213.686 38.4381C213.189 41.5518 211.581 44.3801 209.159 46.3992Z" fill="#F9F3E9"/>
<path d="M88.9211 79.0167L88.3027 77.886C107.759 67.0372 129.815 54.7369 153.741 52.7058L154.327 52.6602C168.201 51.5816 182.195 53.9474 195.73 56.2429C198.02 56.6308 200.303 57.0112 202.58 57.3843C208.388 58.3296 214.08 59.1366 219.807 58.7209L220 58.7058C227.353 58.1342 234.488 55.5224 241.365 53.0015C247.99 50.5708 254.839 48.0639 261.954 47.3103C278.394 45.5783 294.491 53.3034 307.476 59.5141L306.934 60.6525C294.078 54.5143 278.098 46.8509 262.092 48.5609C255.124 49.2972 248.35 51.7806 241.799 54.1819C234.825 56.7399 227.615 59.381 220.092 59.9659L219.893 59.9814C214.034 60.4369 208.262 59.5831 202.376 58.6261C200.091 58.2536 197.804 57.8735 195.514 57.4857C181.914 55.1893 167.683 52.8065 153.847 53.9883C130.19 55.9985 108.265 68.2298 88.9211 79.0167Z" fill="#F9F3E9"/>
<path d="M248.153 315.218C235.592 316.194 222.763 316.013 211.406 315.882C175.593 315.431 145.783 314.648 115.399 309.201L115.626 307.957C145.922 313.399 175.684 314.18 211.441 314.653C223.141 314.805 236.421 314.957 249.299 313.891C278.467 311.401 306.744 302.6 332.173 288.098L332.794 289.193C307.206 303.778 278.754 312.626 249.407 315.126L248.153 315.218Z" fill="#F9F3E9"/>
<path d="M369.651 185.636C368.333 185.739 367.009 185.842 365.677 185.845L365.644 184.586C374.722 184.33 383.686 182.498 392.137 179.173L392.599 180.345C385.254 183.235 377.52 185.018 369.651 185.636Z" fill="#F9F3E9"/>
<path d="M44.6259 206.13C36.4233 205.406 28.2655 204.242 20.188 202.642L20.4336 201.403C28.4711 202.998 36.5891 204.155 44.752 204.87L44.6259 206.13Z" fill="#F9F3E9"/>
</svg>
