<svg width="414" height="343" viewBox="0 0 414 343" fill="none" xmlns="http://www.w3.org/2000/svg">
<rect width="413.868" height="343" rx="70" fill="white"/>
<mask id="mask0_3572_14807" style="mask-type:alpha" maskUnits="userSpaceOnUse" x="0" y="0" width="414" height="343">
<rect width="413.868" height="343" rx="70" fill="white"/>
</mask>
<g mask="url(#mask0_3572_14807)">
<path d="M70.2043 368.997H341.671C343.522 349.229 344.565 313.927 335.072 296.491C331.301 289.57 325.914 283.539 322.926 276.245C318.009 264.229 320.246 250.677 321.581 237.768C322.916 224.858 322.835 210.53 314.517 200.56C309.919 195.039 303.216 191.466 299.097 185.575C293.183 177.131 293.745 165.722 289.387 156.376C284.658 146.23 274.623 139.469 269.225 129.664C260.957 114.641 264.877 96.7592 260.132 80.8199C255.988 66.8552 251.282 51.7408 239.262 42.4428C234.147 38.5364 228.271 35.7424 222.012 34.2402C215.753 32.738 209.249 32.5607 202.917 33.7197C184.331 37.2369 171.636 51.6531 168.882 70.6549C166.933 84.0156 162.357 95.4245 152.247 104.368C142.137 113.312 130.163 121.873 126.643 134.896C124.577 142.56 125.743 151.037 122.369 158.224C116.653 170.392 100.658 173.89 92.2788 184.406C79.1517 200.888 89.7002 226.248 81.5355 245.672C78.1352 253.759 71.747 260.137 66.4565 267.136C61.166 274.134 56.7362 282.724 58.2918 291.353C59.4253 297.644 63.5661 302.954 65.7063 308.978C70.5421 322.618 63.0659 355.744 57.2624 368.984L70.2043 368.997Z" fill="#0A0517"/>
<path d="M239.71 90.49C238.163 83.8191 242.316 77.1569 248.987 75.6094C255.658 74.0619 262.32 78.2153 263.868 84.8862C265.415 91.557 261.262 98.2193 254.591 99.7668C247.92 101.314 241.258 97.1609 239.71 90.49Z" fill="#FFD7E2"/>
<path d="M168.364 99.1582C162.038 96.5376 159.033 89.2844 161.654 82.9576C164.275 76.6309 171.528 73.6265 177.855 76.2471C184.182 78.8678 187.186 86.121 184.565 92.4477C181.945 98.7745 174.691 101.779 168.364 99.1582Z" fill="#FFD7E2"/>
<path d="M252.205 209.503C249.607 198.269 247.009 186.607 249.318 175.312C252.261 160.983 267.81 170.411 276.31 174.162C286.975 178.868 297.199 185.129 304.525 194.369C310.708 202.192 314.474 211.649 315.363 221.58C315.85 227.163 315.415 232.778 315.415 238.38C315.415 267.463 327.107 295.957 324.551 324.926C323.862 332.72 322.024 340.658 317.334 346.909C312.261 353.671 302.486 358.032 294.1 357.76C283.643 357.435 278.654 349.787 275.8 340.732C269.538 320.863 266.596 300.137 263.679 279.498C260.428 256.541 257.454 232.216 252.205 209.503Z" fill="#FFD7E2"/>
<path d="M120.154 360.945C120.713 360.806 121.271 360.656 121.827 360.51C128.046 358.861 133.035 357.76 137.39 352.472C149.062 338.293 146.025 318.272 148.786 301.189C152.186 280.161 152.033 258.71 154.667 237.575C156.616 222.129 160.049 206.745 159.539 191.186C159.357 185.905 158.678 180.505 156.246 175.815C144.616 153.406 113.354 182.921 107.118 196.843C100.623 211.331 102.438 228.053 99.46 243.648C96.3812 259.769 88.1159 274.984 88.1614 291.388C88.1938 304.132 93.2667 316.31 94.8548 328.956C95.9103 337.355 95.5043 346.243 99.3431 353.788C102.266 359.526 108.826 362.303 115.14 361.839C116.834 361.688 118.512 361.389 120.154 360.945Z" fill="#FFD7E2"/>
<path d="M140.642 274.458C135.446 278.087 131.035 282.726 127.671 288.098C126.011 290.754 124.621 293.567 123.235 296.373C119.081 304.778 114.875 313.345 113.404 322.604C123.472 310.912 138.72 303.368 149.317 292.151C150.941 290.423 152.564 288.452 152.811 286.081C153.094 283.187 151.23 280.56 149.46 278.264C147.527 275.747 143.24 272.642 140.642 274.458Z" fill="#0A0517"/>
<path d="M117.582 375.956C128.329 387.426 142.57 393.577 155.622 401.265C163.891 406.136 171.689 411.618 177.823 419.451C181.893 424.647 184.861 430.565 187.937 436.423C188.849 438.157 189.765 439.882 190.726 441.577C191.974 443.786 193.377 446.043 195.553 447.342C195.585 447.364 195.62 447.384 195.656 447.4C196.616 447.954 197.68 448.306 198.781 448.433C201.535 448.758 204.513 447.871 206.871 446.289C210.19 444.065 212.57 440.726 214.99 437.521C229.838 417.794 248.286 401.056 269.359 388.19C277.534 383.204 287.101 379.096 284.948 369.759C284.844 369.301 284.737 368.844 284.623 368.392C283.886 365.43 283 362.517 281.973 359.646C279.979 354.15 277.649 348.782 274.997 343.571C271.344 336.26 266.368 329.408 264.955 321.24C264.046 315.985 265.394 310.646 266.063 305.356C266.789 299.614 266.714 293.8 265.842 288.079C265.793 287.728 265.738 287.384 265.68 287.039C265.335 285.006 264.897 282.863 265.598 280.921C265.982 279.856 266.68 278.943 267.368 278.043C274.672 268.512 280.012 257.122 278.881 244.616C278.663 242.526 278.33 240.449 277.881 238.396C277.313 235.626 276.676 232.876 276.368 230.06C275.455 221.775 277.407 213.497 278.316 205.199C279.573 193.901 278.411 181.894 269.164 174.155C263.403 169.333 256.274 166.52 249.516 163.221C241.374 159.246 231.274 153.215 229.786 143.469C229.244 139.919 229.64 136.304 230.04 132.751C230.886 125.102 231.736 117.455 232.589 109.81C232.589 109.762 232.589 109.71 232.589 109.664C232.594 109.63 232.594 109.595 232.589 109.56C233.076 103.442 226.116 100.262 220.365 97.8526C217.582 96.6867 214.785 96.6185 211.921 95.7579C208.537 94.7349 205.188 93.569 201.648 93.2247C196.881 92.7538 191.555 94.0561 188.784 97.9663C187.547 99.7135 186.946 101.779 186.599 103.913C186.401 105.098 186.274 106.309 186.164 107.485C185.995 109.252 185.831 111.022 185.673 112.795C185.176 118.15 184.657 123.512 183.845 128.822C182.812 135.541 182.367 142.692 178.324 148.308C174.154 154.131 168.367 158.603 161.679 161.168C152.836 164.51 141.891 164.919 136.269 172.515C133.298 176.529 132.564 181.778 132.564 186.769C132.566 192.112 133.292 197.431 134.724 202.579C136.419 208.681 139.127 214.725 138.676 221.041C138.351 225.555 136.438 229.751 134.889 234.032C134.685 234.584 134.49 235.142 134.305 235.701C131.782 243.361 131.212 251.53 132.645 259.467C133.619 264.887 135.542 270.09 137.435 275.26C138.706 278.605 139.951 281.944 141.17 285.276C141.622 286.494 142.067 287.715 142.515 288.936C140.54 295.639 140.972 303.752 140.709 310.734C140.449 317.512 140.949 324.617 138.023 330.736C136.367 334.208 133.72 337.088 131.365 340.131C124.394 349.173 119.843 359.843 118.141 371.133C117.901 372.735 117.714 374.343 117.582 375.956Z" fill="#FFD7E2"/>
<path d="M185.327 112.794C190.156 118.543 198.74 119.754 205.891 119.247C213.838 118.682 227.027 116.545 232.223 109.654L232.295 109.563H232.23C225.303 107.806 216.865 109.794 209.646 108.991C202.216 108.166 194.88 106.648 187.734 104.458C187.231 104.298 186.736 104.112 186.253 103.902C186.054 105.088 185.928 106.299 185.817 107.475C185.646 109.248 185.483 111.021 185.327 112.794Z" fill="#0A0517"/>
<path d="M199.361 178.492C199.222 174.413 199.037 170.129 196.906 166.645C193.983 161.851 188.215 159.76 182.883 158.003C180.635 157.262 177.807 156.655 176.196 158.386C174.874 159.808 175.15 162.049 175.614 163.933C178.272 174.587 184.22 184.132 192.613 191.213C202.278 199.306 199.537 183.695 199.361 178.492Z" fill="#FFCAD7"/>
<path d="M213.181 118.256C192.799 118.256 176.277 101.343 176.277 80.4794C176.277 59.6161 192.799 42.7031 213.181 42.7031C233.562 42.7031 250.084 59.6161 250.084 80.4794C250.084 101.343 233.562 118.256 213.181 118.256Z" fill="#FFD7E2"/>
<path d="M205.138 82.1469C206.199 82.148 207.258 82.0325 208.294 81.8026C208.399 81.7878 208.499 81.7516 208.589 81.6964C208.678 81.6411 208.756 81.568 208.816 81.4815C208.876 81.395 208.918 81.297 208.938 81.1937C208.959 81.0904 208.958 80.9839 208.936 80.881C208.913 80.778 208.87 80.6808 208.808 80.5954C208.747 80.5099 208.668 80.4381 208.577 80.3844C208.487 80.3307 208.386 80.2963 208.281 80.2832C208.177 80.2702 208.071 80.2789 207.97 80.3087C205.967 80.7342 203.894 80.7083 201.902 80.2331C199.91 79.7579 198.049 78.8452 196.453 77.5612C196.296 77.432 196.094 77.3706 195.892 77.3904C195.689 77.4102 195.503 77.5096 195.374 77.6668C195.244 77.824 195.183 78.026 195.203 78.2285C195.223 78.4311 195.322 78.6174 195.479 78.7466C198.216 80.9499 201.624 82.1498 205.138 82.1469Z" fill="#0A0517"/>
<path d="M232.848 82.7447C235.953 82.7574 238.98 81.7689 241.48 79.9257C241.631 79.7999 241.728 79.6209 241.751 79.4257C241.773 79.2304 241.72 79.0338 241.602 78.8766C241.484 78.7194 241.31 78.6136 241.117 78.5809C240.923 78.5483 240.724 78.5914 240.561 78.7014C238.823 79.9773 236.795 80.7996 234.659 81.0939C232.523 81.3882 230.348 81.1452 228.33 80.3869C228.235 80.3431 228.132 80.3192 228.028 80.3166C227.923 80.3141 227.819 80.333 227.722 80.3721C227.625 80.4112 227.537 80.4698 227.464 80.5442C227.39 80.6186 227.333 80.7072 227.295 80.8047C227.257 80.9021 227.239 81.0063 227.243 81.1108C227.247 81.2153 227.272 81.3179 227.317 81.4123C227.362 81.5067 227.426 81.591 227.504 81.6598C227.583 81.7286 227.675 81.7806 227.775 81.8126C229.393 82.4349 231.113 82.751 232.848 82.7447Z" fill="#0A0517"/>
<path d="M218.794 93.1623C219.364 93.165 219.929 93.0615 220.46 92.857C222.35 92.1166 223.487 89.9569 222.948 88.135C222.779 87.6234 222.492 87.1588 222.11 86.779C221.728 86.3992 221.262 86.1149 220.749 85.9493C220.306 85.7956 219.836 85.7381 219.369 85.7805C219.733 82.9648 219.957 80.1134 220.038 77.2814C220.032 77.0861 219.951 76.9005 219.813 76.7625C219.674 76.6246 219.488 76.5447 219.293 76.5394C219.098 76.534 218.908 76.6034 218.762 76.7335C218.616 76.8636 218.525 77.0445 218.508 77.2392C218.414 80.4435 218.138 83.6399 217.683 86.8132C217.661 86.9628 217.684 87.1156 217.748 87.2522C217.813 87.3889 217.917 87.5033 218.047 87.5809C218.176 87.6585 218.326 87.6958 218.477 87.688C218.628 87.6803 218.774 87.6279 218.895 87.5374C219.094 87.4067 219.323 87.3261 219.56 87.3023C219.798 87.2786 220.037 87.3124 220.259 87.401C220.54 87.4864 220.797 87.6367 221.009 87.8398C221.221 88.0429 221.382 88.2931 221.48 88.5702C221.805 89.6419 221.061 90.9767 219.905 91.4313C218.749 91.886 217.336 91.5807 216.245 90.6876C216.167 90.6236 216.077 90.5757 215.98 90.5464C215.884 90.5172 215.782 90.5073 215.682 90.5172C215.581 90.5272 215.484 90.5568 215.395 90.6044C215.306 90.6521 215.227 90.7167 215.163 90.7948C215.099 90.8728 215.051 90.9627 215.022 91.0593C214.993 91.1559 214.983 91.2573 214.993 91.3577C215.003 91.4581 215.032 91.5556 215.08 91.6446C215.128 91.7336 215.192 91.8123 215.27 91.8762C216.264 92.6939 217.507 93.1476 218.794 93.1623Z" fill="#0A0517"/>
<path d="M213.99 101.252C214.591 101.253 215.19 101.203 215.783 101.103C215.884 101.088 215.981 101.053 216.069 101C216.157 100.947 216.233 100.877 216.293 100.795C216.353 100.712 216.396 100.618 216.419 100.518C216.443 100.418 216.446 100.315 216.428 100.214C216.411 100.113 216.374 100.017 216.318 99.9307C216.263 99.8445 216.191 99.7702 216.107 99.7123C216.022 99.6543 215.927 99.6139 215.827 99.5933C215.727 99.5727 215.623 99.5725 215.523 99.5925C213.18 99.9915 210.772 99.4815 208.792 98.1665C206.812 96.8514 205.408 94.8305 204.867 92.5159C204.849 92.4134 204.81 92.3156 204.753 92.2285C204.696 92.1415 204.622 92.067 204.535 92.0096C204.448 91.9522 204.35 91.9132 204.248 91.8948C204.145 91.8765 204.04 91.8792 203.938 91.9028C203.837 91.9265 203.742 91.9705 203.658 92.0323C203.574 92.0941 203.504 92.1724 203.451 92.2623C203.398 92.3522 203.365 92.4518 203.352 92.5552C203.339 92.6586 203.348 92.7634 203.377 92.8634C203.936 95.2561 205.29 97.3885 207.218 98.9121C209.145 100.436 211.533 101.261 213.99 101.252Z" fill="#0A0517"/>
<path d="M197.07 69.573C197.404 70.0104 197.835 70.3641 198.33 70.6057C200.411 71.6417 203.126 71.2553 205.309 70.8461C209.7 70.0212 211.674 65.8805 206.046 65.0588C204.072 64.773 196.131 65.0815 196.595 68.4461C196.657 68.8554 196.82 69.2428 197.07 69.573Z" fill="#0A0517"/>
<path d="M228.2 69.0952C228.354 69.6234 228.627 70.1091 228.999 70.5144C230.565 72.2356 233.221 72.8624 235.417 73.2716C239.811 74.0932 243.149 70.9495 238.203 68.1436C236.469 67.1693 228.954 64.5712 228.168 67.8741C228.076 68.2774 228.087 68.6973 228.2 69.0952Z" fill="#0A0517"/>
<path d="M176.855 76.5593C177.448 78.071 177.728 79.6875 177.677 81.3106C177.605 84.4835 177.836 87.4161 178.794 90.5923C179.008 91.2938 179.343 92.083 180.047 92.2908C180.352 92.3525 180.668 92.3239 180.956 92.2085C181.245 92.0931 181.493 91.896 181.671 91.6413C182.014 91.1227 182.246 90.539 182.353 89.9265C183.71 84.373 184.668 78.7294 185.218 73.0389C190.976 71.4703 195.747 66.7353 200.427 63.2539C202.635 61.6106 222.452 47.0515 221.452 45.0347C224.711 51.6053 228.648 57.8171 233.199 63.5689C235.388 66.3391 237.746 69.6192 240.49 71.8503C243.059 73.932 244.423 74.1041 244.15 78.0208C243.911 81.4502 243.905 84.892 244.134 88.3222C244.192 89.1633 244.27 90.0402 244.696 90.7709C245.121 91.5016 245.995 92.0505 246.803 91.8361C247.836 91.5633 248.236 90.3357 248.427 89.29C249.09 85.9314 249.459 82.5216 249.531 79.099C249.596 76.0527 251.805 75.9455 252.76 73.578C253.757 71.0514 251.655 68.7229 250.967 66.4333C249.288 60.8084 245.465 55.518 241.721 51.1532C236.109 44.6093 228.779 39.517 220.491 37.4288C210.118 34.8112 198.277 37.458 190.287 44.8983C184.24 50.5167 177.712 57.0282 175.218 65.1212C174.318 68.0441 174.244 70.7721 175.462 73.4449C176.001 74.5588 176.478 75.5591 176.855 76.5593Z" fill="#0A0517"/>
<path d="M132.703 259.457C133.678 264.877 135.6 270.08 137.494 275.25C138.726 278.6 139.951 281.94 141.17 285.272C163.306 283.097 185.787 283.324 208.072 283.58C222.976 283.749 237.951 283.928 252.647 286.422C256.943 287.153 261.415 287.565 265.839 288.085C265.79 287.734 265.735 287.39 265.676 287.046C265.332 285.013 264.894 282.869 265.595 280.927C265.978 279.862 266.677 278.949 267.365 278.05C274.669 268.518 280.008 257.129 278.878 244.622C278.66 242.532 278.326 240.456 277.878 238.403C267.81 231.766 259.433 222.87 253.413 212.422C242.114 224.438 229.38 236.623 213.142 239.621C203.483 241.407 193.295 239.423 184.653 234.772C176.011 230.121 167.44 223.525 162.264 215.189C161.783 218.112 145.7 230.164 142.453 231.752C140.099 232.899 137.578 233.667 134.983 234.025C134.779 234.577 134.584 235.136 134.399 235.694C131.865 243.351 131.282 251.519 132.703 259.457Z" fill="#FFF0F4"/>
<path d="M253.094 213.615C253.195 213.614 253.294 213.592 253.386 213.552C253.479 213.512 253.562 213.454 253.632 213.382C253.702 213.309 253.757 213.224 253.794 213.13C253.831 213.037 253.849 212.937 253.848 212.836C253.559 196.627 253.023 180.246 252.263 164.144C252.263 164.041 252.241 163.938 252.201 163.843C252.16 163.748 252.1 163.662 252.025 163.591C251.95 163.519 251.861 163.464 251.764 163.427C251.667 163.391 251.564 163.375 251.46 163.38C251.357 163.385 251.256 163.41 251.162 163.455C251.069 163.501 250.986 163.564 250.918 163.642C250.85 163.72 250.799 163.812 250.767 163.91C250.735 164.009 250.723 164.113 250.733 164.216C251.493 180.301 252.032 196.669 252.315 212.862C252.319 213.065 252.403 213.258 252.549 213.399C252.695 213.54 252.891 213.618 253.094 213.615Z" fill="#0A0517"/>
<path d="M162.139 217.491C162.341 217.491 162.536 217.41 162.68 217.267C162.823 217.124 162.904 216.93 162.905 216.727C163.012 198.43 162.321 179.912 160.846 161.69C160.83 161.487 160.734 161.299 160.579 161.167C160.424 161.035 160.223 160.97 160.02 160.987C159.817 161.003 159.629 161.099 159.497 161.254C159.365 161.409 159.3 161.611 159.317 161.813C160.791 180 161.479 198.466 161.372 216.721C161.372 216.821 161.391 216.921 161.429 217.014C161.468 217.108 161.524 217.192 161.595 217.264C161.665 217.335 161.75 217.392 161.842 217.431C161.935 217.47 162.035 217.49 162.135 217.491H162.139Z" fill="#0A0517"/>
<path d="M220.427 368.263C220.548 368.261 220.667 368.231 220.774 368.175C220.882 368.118 220.974 368.037 221.044 367.938C230.631 354.925 234.343 338.385 237.607 323.77C237.642 323.575 237.6 323.373 237.49 323.208C237.38 323.043 237.209 322.927 237.015 322.885C236.821 322.842 236.618 322.877 236.449 322.982C236.28 323.087 236.158 323.253 236.11 323.446C232.862 337.901 229.195 354.298 219.8 367.038C219.716 367.152 219.665 367.288 219.653 367.429C219.641 367.57 219.669 367.712 219.733 367.839C219.797 367.965 219.895 368.071 220.015 368.146C220.136 368.22 220.275 368.259 220.417 368.259L220.427 368.263Z" fill="#0A0517"/>
<path d="M210.735 160.163C210.885 160.163 211.032 160.119 211.158 160.036C211.283 159.952 211.381 159.834 211.439 159.695C216.396 148.001 220.757 136.064 224.505 123.929C224.561 123.736 224.539 123.529 224.443 123.352C224.348 123.175 224.187 123.042 223.994 122.983C223.802 122.924 223.595 122.943 223.416 123.035C223.238 123.128 223.103 123.287 223.04 123.478C219.307 135.563 214.965 147.452 210.03 159.098C209.981 159.214 209.961 159.341 209.973 159.467C209.984 159.593 210.027 159.714 210.097 159.819C210.166 159.925 210.261 160.011 210.372 160.071C210.484 160.131 210.608 160.163 210.735 160.163Z" fill="#0A0517"/>
<path d="M194.427 141.157H194.527C194.727 141.128 194.907 141.022 195.029 140.86C195.151 140.699 195.204 140.497 195.177 140.297L192.903 123.24C192.89 123.14 192.857 123.044 192.807 122.957C192.757 122.87 192.689 122.793 192.61 122.732C192.53 122.671 192.438 122.626 192.341 122.6C192.244 122.574 192.143 122.568 192.043 122.581C191.943 122.594 191.847 122.627 191.76 122.677C191.672 122.728 191.596 122.795 191.535 122.875C191.474 122.955 191.429 123.046 191.403 123.143C191.377 123.24 191.37 123.342 191.383 123.441L193.657 140.498C193.683 140.683 193.775 140.852 193.917 140.973C194.059 141.094 194.24 141.16 194.427 141.157Z" fill="#0A0517"/>
<path d="M206.825 84.3341C206.912 84.3332 206.997 84.3179 207.079 84.2886C207.173 84.2555 207.261 84.204 207.336 84.137C207.41 84.0701 207.471 83.989 207.515 83.8985C207.558 83.808 207.583 83.7099 207.589 83.6096C207.594 83.5094 207.58 83.409 207.546 83.3144C207.325 82.68 207.251 82.0038 207.329 81.3366C207.352 81.1346 207.295 80.9315 207.169 80.7719C207.043 80.6123 206.859 80.5094 206.657 80.4857C206.455 80.462 206.251 80.5195 206.092 80.6456C205.932 80.7717 205.829 80.956 205.806 81.1579C205.701 82.0579 205.803 82.9698 206.104 83.8242C206.157 83.9732 206.255 84.1022 206.384 84.1934C206.513 84.2847 206.667 84.3339 206.825 84.3341Z" fill="#0A0517"/>
<path d="M201.897 84.3313C202.053 84.3313 202.205 84.2838 202.334 84.195C202.462 84.1062 202.56 83.9804 202.615 83.8344L203.391 81.7689C203.433 81.6735 203.456 81.5705 203.457 81.4661C203.458 81.3617 203.438 81.2582 203.398 81.1619C203.357 81.0656 203.298 80.9786 203.223 80.9061C203.147 80.8337 203.058 80.7773 202.961 80.7405C202.863 80.7038 202.759 80.6873 202.654 80.6923C202.55 80.6972 202.448 80.7234 202.354 80.7692C202.26 80.815 202.177 80.8795 202.109 80.9587C202.041 81.0379 201.99 81.1302 201.959 81.2298L201.183 83.2953C201.115 83.4836 201.124 83.691 201.207 83.8731C201.29 84.0551 201.441 84.1974 201.628 84.2696C201.713 84.3056 201.804 84.3265 201.897 84.3313Z" fill="#0A0517"/>
<path d="M196.957 82.4958C197.103 82.4961 197.247 82.4543 197.37 82.3754C197.493 82.2965 197.591 82.1839 197.652 82.0509L198.574 80.0504C198.661 79.8656 198.67 79.6542 198.6 79.4627C198.53 79.2711 198.387 79.1151 198.203 79.029C198.018 78.9429 197.806 78.9337 197.615 79.0034C197.423 79.0731 197.267 79.2161 197.181 79.4009L196.262 81.4014C196.209 81.518 196.186 81.646 196.195 81.7739C196.204 81.9017 196.245 82.0252 196.314 82.1331C196.383 82.241 196.478 82.3299 196.591 82.3916C196.703 82.4532 196.829 82.4857 196.957 82.4861V82.4958Z" fill="#0A0517"/>
<path d="M240.776 83.1763C240.917 83.1769 241.055 83.1387 241.175 83.0658C241.296 82.9929 241.393 82.8881 241.458 82.7631C241.522 82.6381 241.551 82.4978 241.541 82.3575C241.531 82.2172 241.482 82.0825 241.4 81.9682L240.101 80.156C239.98 79.9981 239.802 79.8934 239.606 79.8639C239.409 79.8345 239.209 79.8825 239.047 79.998C238.885 80.1135 238.775 80.2873 238.738 80.4828C238.702 80.6784 238.744 80.8802 238.854 81.0459L240.153 82.8548C240.223 82.9543 240.317 83.0355 240.425 83.0914C240.534 83.1474 240.654 83.1765 240.776 83.1763Z" fill="#0A0517"/>
<path d="M235.751 84.5909C235.953 84.59 236.148 84.5089 236.291 84.3653C236.434 84.2216 236.514 84.0272 236.514 83.8244V82.0155C236.521 81.9109 236.506 81.806 236.471 81.7073C236.435 81.6086 236.38 81.5181 236.308 81.4416C236.237 81.3651 236.15 81.3041 236.054 81.2624C235.958 81.2207 235.854 81.1992 235.749 81.1992C235.644 81.1992 235.541 81.2207 235.444 81.2624C235.348 81.3041 235.262 81.3651 235.19 81.4416C235.118 81.5181 235.063 81.6086 235.028 81.7073C234.992 81.806 234.978 81.9109 234.984 82.0155V83.8244C234.984 84.0277 235.065 84.2227 235.209 84.3664C235.353 84.5101 235.548 84.5909 235.751 84.5909Z" fill="#0A0517"/>
<path d="M230.343 85.3697C230.503 85.3694 230.658 85.3191 230.788 85.226C230.918 85.1328 231.016 85.0014 231.067 84.8501L231.853 82.528C231.888 82.4319 231.904 82.3297 231.9 82.2273C231.895 82.125 231.87 82.0246 231.826 81.9322C231.781 81.8397 231.719 81.7571 231.642 81.6891C231.566 81.6211 231.476 81.5692 231.379 81.5364C231.282 81.5036 231.18 81.4906 231.077 81.4982C230.975 81.5058 230.876 81.5337 230.784 81.5805C230.693 81.6272 230.612 81.6917 230.546 81.7702C230.481 81.8488 230.431 81.9397 230.401 82.0376L229.615 84.3597C229.55 84.5526 229.564 84.7635 229.654 84.9461C229.744 85.1287 229.903 85.2682 230.096 85.334C230.176 85.3585 230.259 85.3705 230.343 85.3697Z" fill="#0A0517"/>
<path d="M195.914 93.3734C192.131 93.8053 185.171 88.7163 188.594 84.6373C190.867 81.906 195.635 83.728 197.762 85.6538C198.951 86.732 199.912 88.2519 199.75 89.84C199.558 91.7106 197.782 93.1623 195.914 93.3734Z" fill="#FFCAD7"/>
<path d="M234.922 94.4045C238.706 94.8364 245.666 89.7474 242.246 85.6684C239.953 82.9371 235.202 84.759 233.074 86.6881C231.886 87.7631 230.928 89.2862 231.09 90.8711C231.278 92.7417 233.055 94.1836 234.922 94.4045Z" fill="#FFCAD7"/>
<path d="M135.206 234.377C135.394 234.377 135.576 234.307 135.717 234.182C135.858 234.056 135.947 233.883 135.969 233.695C136.641 227.486 136.858 221.236 136.618 214.996C136.611 214.792 136.522 214.6 136.373 214.462C136.224 214.324 136.026 214.251 135.823 214.258C135.619 214.266 135.427 214.354 135.289 214.504C135.151 214.653 135.078 214.851 135.085 215.054C135.319 221.22 135.102 227.395 134.436 233.53C134.425 233.63 134.433 233.731 134.461 233.828C134.489 233.925 134.536 234.015 134.599 234.093C134.663 234.172 134.74 234.237 134.829 234.285C134.917 234.333 135.014 234.364 135.115 234.374L135.206 234.377Z" fill="#0A0517"/>
<path d="M167.256 353.981C155.537 359.657 142.705 362.667 129.684 362.791C118.86 362.905 106.158 363.49 101.238 352.1C85.4475 315.548 131.272 295.728 156.913 283.507L215.338 255.656C229.303 248.995 243.934 241.798 252.729 229.058C256.909 222.995 259.591 215.915 264.378 210.309C267.431 206.737 271.234 203.886 275.001 201.073L292.571 187.95C295.819 185.53 300.827 183.263 303.383 186.4C305.52 189.024 303.591 192.97 301.252 195.419C295.384 201.573 286.557 205.941 284.689 214.239C292.084 215.837 299.174 212.037 306.15 210.079C308.985 209.28 311.918 208.536 314.841 208.884C317.764 209.231 320.713 210.904 321.749 213.658C323.087 217.207 321.005 221.471 322.69 224.865C323.434 226.359 324.84 227.499 325.34 229.087C326.419 232.552 322.762 236.368 324.243 239.684C324.652 240.603 325.409 241.308 326.003 242.13C326.881 243.379 327.382 244.855 327.447 246.381C327.512 247.906 327.138 249.419 326.37 250.739C325.824 251.642 325.071 252.502 324.996 253.555C324.879 255.295 326.597 256.523 327.523 258.004C329.092 260.511 328.254 263.979 326.263 266.165C324.272 268.351 321.391 269.491 318.546 270.29C308.894 273.001 298.684 272.599 288.992 275.184C279.642 277.684 271.455 282.871 263.193 287.778C244.567 298.859 226.169 310.456 209.132 323.875C195.592 334.537 182.745 346.43 167.256 353.981Z" fill="#FFD7E2"/>
<path d="M129.684 363.552C142.818 363.418 155.76 360.382 167.584 354.663C179.786 348.714 190.493 339.978 200.847 331.531C203.705 329.199 206.66 326.789 209.6 324.477C227.631 310.288 247.003 298.298 263.579 288.428L265.677 287.184C273.079 282.761 280.727 278.185 289.184 275.925C293.87 274.671 298.787 274.116 303.548 273.58C308.563 273.015 313.749 272.427 318.734 271.028C321.31 270.307 324.554 269.157 326.811 266.679C328.88 264.406 330.007 260.557 328.153 257.586C327.831 257.097 327.476 256.63 327.091 256.189C326.334 255.28 325.681 254.497 325.743 253.591C325.785 252.981 326.178 252.386 326.594 251.759C326.737 251.545 326.876 251.334 327.006 251.11C327.851 249.66 328.262 247.999 328.191 246.322C328.119 244.646 327.568 243.025 326.604 241.653C326.396 241.37 326.175 241.101 325.954 240.841C325.542 240.391 325.192 239.887 324.915 239.344C324.265 237.899 324.821 236.229 325.405 234.472C326.013 232.644 326.639 230.751 326.055 228.848C325.73 227.805 325.08 226.97 324.476 226.165C324.053 225.648 323.679 225.093 323.359 224.505C322.57 222.914 322.71 221.053 322.856 219.079C322.999 217.179 323.145 215.217 322.45 213.369C321.404 210.589 318.445 208.524 314.915 208.105C311.892 207.748 308.939 208.475 305.926 209.32C304.185 209.81 302.412 210.421 300.7 211.012C295.786 212.704 290.717 214.451 285.618 213.61C287.089 208.511 291.347 204.984 295.838 201.269C297.926 199.603 299.917 197.819 301.801 195.926C304.578 193.004 306.325 188.782 303.971 185.895C301.194 182.485 296.02 184.391 292.107 187.314L274.527 200.437C270.779 203.237 266.902 206.13 263.781 209.79C260.936 213.126 258.808 217.01 256.749 220.764C255.334 223.454 253.783 226.069 252.102 228.601C243.19 241.516 228.222 248.648 215.013 254.942C214.845 255.037 214.72 255.192 214.661 255.376C214.602 255.56 214.615 255.76 214.698 255.935C214.78 256.109 214.925 256.247 215.104 256.319C215.283 256.392 215.482 256.394 215.663 256.326C228.381 250.266 244.21 242.721 253.355 229.471C255.065 226.896 256.643 224.236 258.084 221.501C260.104 217.815 262.192 214.003 264.937 210.784C267.944 207.254 271.757 204.412 275.433 201.665L293.013 188.541C296.205 186.158 300.677 184.29 302.756 186.862C304.51 189.019 302.902 192.523 300.668 194.868C298.82 196.718 296.868 198.462 294.822 200.09C290.116 203.987 285.251 208.021 283.887 214.055C283.861 214.158 283.858 214.265 283.876 214.37C283.894 214.475 283.934 214.575 283.993 214.664C284.052 214.752 284.129 214.828 284.218 214.885C284.308 214.942 284.409 214.98 284.514 214.996C290.295 216.247 295.838 214.347 301.2 212.489C302.896 211.905 304.646 211.301 306.345 210.826C309.203 210.024 311.992 209.329 314.74 209.654C317.708 210.008 320.173 211.69 321.021 213.938C321.596 215.471 321.469 217.185 321.346 218.994C321.19 221.086 321.021 223.249 321.995 225.217C322.356 225.891 322.782 226.53 323.265 227.123C323.824 227.857 324.353 228.549 324.597 229.331C325.045 230.767 324.522 232.348 323.966 234.021C323.317 235.989 322.645 238.022 323.531 240.013C323.864 240.684 324.286 241.305 324.788 241.861C324.996 242.114 325.194 242.351 325.373 242.598C326.164 243.725 326.615 245.055 326.672 246.431C326.73 247.807 326.392 249.17 325.698 250.36C325.577 250.558 325.451 250.749 325.321 250.944C324.837 251.675 324.288 252.503 324.217 253.52C324.113 255.033 325.071 256.186 325.918 257.199C326.257 257.588 326.571 257.998 326.857 258.427C328.289 260.716 327.321 263.863 325.681 265.666C323.687 267.855 320.703 268.913 318.325 269.563C313.454 270.93 308.332 271.511 303.386 272.067C298.57 272.612 293.594 273.171 288.801 274.454C280.136 276.769 272.39 281.4 264.901 285.879L262.806 287.132C246.188 297.015 226.757 309.041 208.661 323.282C205.712 325.601 202.753 328.017 199.892 330.355C189.604 338.747 178.967 347.424 166.925 353.296C155.305 358.915 142.587 361.897 129.681 362.029C129.477 362.029 129.282 362.11 129.139 362.254C128.995 362.397 128.914 362.592 128.914 362.795C128.914 362.999 128.995 363.194 129.139 363.337C129.282 363.481 129.477 363.562 129.681 363.562L129.684 363.552Z" fill="#0A0517"/>
<path d="M153.184 212.62C158.786 218.881 164.904 222.583 171.958 226.993C176.976 230.131 181.153 234.564 185.982 238.113C193.156 243.387 198.284 251.786 203.107 259.106C208.92 267.926 214.874 276.652 220.969 285.282C233.187 302.494 246.067 319.275 259.798 335.324C265.774 342.307 272.052 349.289 280.005 353.865C287.959 358.441 297.975 360.389 306.428 356.788C311.661 354.56 315.895 350.4 319.055 345.668C324.132 338.078 327.704 330.284 325.798 321.33C323.599 310.938 317.354 301.916 310.579 293.745C302.496 283.983 293.501 275.013 283.717 266.955C267.297 253.41 248.87 242.553 232.222 229.283C224.272 222.947 216.481 216.101 210.505 207.907C203.922 198.869 199.603 189.071 194.89 179.003C190.145 168.858 184.205 158.651 174.664 152.782C171.263 150.691 166.661 149.297 163.456 151.678C162.056 152.714 160.903 154.455 159.159 154.432C155.564 151.694 149.439 153.782 147.611 157.9C147.205 158.819 146.942 159.885 146.139 160.499C144.561 161.713 142.343 160.093 140.894 161.002C138.179 162.707 140.125 167.559 136.309 168.202C134.808 168.455 133.272 167.952 131.762 168.075C128.267 168.358 127.309 172.427 127.676 175.22C129.768 191.182 143.236 201.49 153.184 212.62Z" fill="#FFD7E2"/>
<path d="M280.019 354.647C280.187 354.646 280.351 354.591 280.484 354.488C280.618 354.385 280.713 354.242 280.757 354.079C280.801 353.916 280.79 353.744 280.725 353.588C280.661 353.433 280.548 353.303 280.402 353.218C272.578 348.701 266.473 341.949 260.396 334.843C247.282 319.517 234.597 303.166 221.606 284.852C215.76 276.616 209.755 267.819 203.744 258.699C203.628 258.54 203.455 258.431 203.261 258.395C203.067 258.36 202.867 258.4 202.702 258.509C202.538 258.617 202.421 258.785 202.377 258.977C202.332 259.169 202.364 259.371 202.464 259.541C208.479 268.676 214.481 277.49 220.349 285.739C233.366 304.091 246.084 320.489 259.224 335.84C265.395 343.05 271.594 349.905 279.632 354.546C279.75 354.613 279.883 354.648 280.019 354.647Z" fill="#0A0517"/>
<path d="M153.184 213.389C153.332 213.389 153.476 213.346 153.6 213.266C153.724 213.186 153.822 213.071 153.883 212.936C153.943 212.801 153.963 212.652 153.941 212.506C153.918 212.36 153.854 212.223 153.756 212.113C151.719 209.84 149.501 207.566 147.354 205.355C138.858 196.622 130.07 187.593 128.437 175.152C128.242 173.684 128.437 171.463 129.57 170.047C129.841 169.701 130.182 169.417 130.57 169.212C130.959 169.007 131.386 168.886 131.824 168.858C132.468 168.828 133.114 168.858 133.753 168.946C134.645 169.082 135.551 169.093 136.445 168.978C139.082 168.533 139.524 166.38 139.881 164.672C140.138 163.428 140.382 162.256 141.31 161.671C141.749 161.395 142.415 161.496 143.188 161.613C144.227 161.772 145.519 161.97 146.617 161.125C147.413 160.512 147.767 159.609 148.082 158.813C148.16 158.615 148.238 158.417 148.322 158.225C149.154 156.342 151.089 154.806 153.372 154.218C155.383 153.701 157.328 154.007 158.705 155.056C158.835 155.156 158.995 155.211 159.16 155.211C160.702 155.211 161.832 154.185 162.823 153.263C163.171 152.925 163.538 152.606 163.921 152.308C167.493 149.658 172.748 152.513 174.271 153.451C183.956 159.407 189.782 169.881 194.205 179.345C194.638 180.26 195.064 181.173 195.482 182.082C199.795 191.354 203.867 200.107 209.898 208.388C210.021 208.543 210.199 208.645 210.396 208.672C210.592 208.699 210.791 208.648 210.951 208.532C211.111 208.415 211.22 208.241 211.254 208.045C211.288 207.85 211.246 207.65 211.135 207.485C205.192 199.33 201.149 190.64 196.872 181.439L195.592 178.698C191.075 169.03 185.102 158.316 175.073 152.149C170.449 149.307 165.938 148.901 163.008 151.081C162.58 151.413 162.17 151.769 161.78 152.146C160.991 152.88 160.244 153.575 159.403 153.672C157.669 152.47 155.35 152.129 152.992 152.737C150.264 153.438 147.939 155.306 146.922 157.608C146.828 157.819 146.744 158.037 146.656 158.258C146.393 158.93 146.143 159.557 145.682 159.917C145.104 160.362 144.324 160.242 143.408 160.106C142.493 159.969 141.405 159.8 140.485 160.378C139.001 161.311 138.667 162.934 138.371 164.367C137.998 166.179 137.722 167.215 136.179 167.474C135.423 167.561 134.658 167.545 133.906 167.429C133.173 167.33 132.432 167.299 131.694 167.338C131.049 167.383 130.421 167.563 129.849 167.864C129.277 168.165 128.774 168.582 128.372 169.089C126.923 170.884 126.667 173.502 126.91 175.356C128.612 188.321 137.579 197.534 146.25 206.446C148.387 208.638 150.595 210.908 152.606 213.155C152.68 213.233 152.77 213.294 152.87 213.335C152.969 213.375 153.076 213.394 153.184 213.389Z" fill="#0A0517"/>
<path d="M298.719 282.703C298.823 282.704 298.926 282.683 299.022 282.642C299.117 282.602 299.203 282.542 299.274 282.466C299.344 282.393 299.398 282.308 299.435 282.214C299.471 282.12 299.489 282.02 299.486 281.92C299.484 281.819 299.461 281.72 299.421 281.628C299.38 281.536 299.321 281.454 299.248 281.384L284.653 267.504C284.505 267.371 284.31 267.301 284.111 267.309C283.912 267.317 283.724 267.403 283.586 267.547C283.449 267.692 283.373 267.884 283.376 268.083C283.378 268.283 283.457 268.473 283.598 268.615L298.193 282.492C298.334 282.628 298.523 282.703 298.719 282.703Z" fill="#0A0517"/>
<path d="M171.409 52.1135C167.301 50.4183 164.755 47.5019 165.151 42.3512C165.508 37.7266 166.505 32.8422 169.75 29.5296C173.475 25.7201 179.922 24.957 184.433 27.7954C188.944 30.6338 191.051 36.7685 189.233 41.7796C186.794 48.4989 184.556 55.3059 175.417 53.3216C174.048 53.0374 172.707 52.6332 171.409 52.1135Z" fill="#0A0517"/>
<path d="M237.154 33.9126C239.596 30.2104 242.941 28.2618 247.923 29.6128C252.398 30.8371 257.016 32.7435 259.647 36.5529C262.68 40.9307 262.209 47.4065 258.572 51.2971C254.935 55.1878 248.504 56.1004 243.928 53.3659C237.79 49.6993 231.532 46.2211 235.208 37.6182C235.746 36.3282 236.397 35.0882 237.154 33.9126Z" fill="#0A0517"/>
</g>
</svg>
