<svg width="193" height="182" viewBox="0 0 193 182" fill="none" xmlns="http://www.w3.org/2000/svg">
<mask id="mask0_3574_16135" style="mask-type:alpha" maskUnits="userSpaceOnUse" x="-16" y="0" width="224" height="185">
<rect x="-16" width="223.223" height="185" rx="40" fill="white"/>
</mask>
<g mask="url(#mask0_3574_16135)">
<path d="M21.8653 199.023H168.283C169.282 188.361 169.844 169.321 164.724 159.916C162.69 156.184 159.784 152.931 158.173 148.997C155.521 142.516 156.728 135.206 157.447 128.243C158.167 121.281 158.124 113.552 153.638 108.175C151.157 105.197 147.542 103.27 145.321 100.093C142.131 95.5387 142.434 89.3852 140.083 84.344C137.533 78.8719 132.12 75.225 129.209 69.9368C124.749 61.8338 126.863 52.1893 124.304 43.5923C122.069 36.0603 119.531 27.9082 113.048 22.8933C110.289 20.7863 107.12 19.2793 103.744 18.4691C100.368 17.6589 96.8602 17.5633 93.4452 18.1884C83.4205 20.0854 76.5732 27.8609 75.0878 38.1097C74.0368 45.3159 71.5687 51.4694 66.1158 56.2934C60.6628 61.1174 54.2045 65.7347 52.3057 72.7587C51.1916 76.8926 51.8205 81.4643 50.0005 85.3407C46.9175 91.904 38.2906 93.7905 33.7713 99.4623C26.6911 108.352 32.3805 122.03 27.9768 132.507C26.1428 136.868 22.6973 140.309 19.8438 144.083C16.9904 147.858 14.6011 152.491 15.4402 157.145C16.0515 160.538 18.2849 163.402 19.4392 166.651C22.0474 174.008 18.0151 191.875 14.8849 199.016L21.8653 199.023Z" fill="#0A0517"/>
<path d="M113.289 48.8085C112.454 45.2105 114.695 41.6172 118.293 40.7825C121.891 39.9479 125.484 42.1881 126.319 45.786C127.153 49.384 124.913 52.9774 121.315 53.812C117.717 54.6466 114.124 52.4065 113.289 48.8085Z" fill="#FFD7E2"/>
<path d="M74.808 53.4855C71.3956 52.0721 69.7751 48.16 71.1886 44.7476C72.6021 41.3352 76.5143 39.7148 79.9267 41.1282C83.3391 42.5417 84.9596 46.4538 83.5461 49.8661C82.1327 53.2785 78.2205 54.899 74.808 53.4855Z" fill="#FFD7E2"/>
<path d="M120.029 112.999C118.628 106.94 117.226 100.65 118.472 94.5575C120.059 86.8293 128.446 91.9143 133.03 93.9374C138.782 96.4755 144.297 99.8527 148.248 104.836C151.583 109.056 153.614 114.156 154.094 119.513C154.356 122.524 154.122 125.553 154.122 128.574C154.122 144.26 160.428 159.629 159.049 175.253C158.678 179.457 157.686 183.738 155.157 187.11C152.421 190.757 147.148 193.109 142.625 192.962C136.985 192.787 134.295 188.662 132.755 183.779C129.378 173.062 127.791 161.883 126.218 150.752C124.464 138.369 122.86 125.25 120.029 112.999Z" fill="#FFD7E2"/>
<path d="M48.8062 194.681C49.1075 194.606 49.4088 194.525 49.7083 194.446C53.0628 193.556 55.7533 192.963 58.1023 190.111C64.3978 182.463 62.76 171.665 64.2489 162.451C66.0829 151.109 66.0006 139.54 67.4212 128.14C68.4722 119.809 70.3237 111.512 70.0486 103.12C69.9506 100.272 69.5845 97.3586 68.2725 94.8293C61.9998 82.743 45.1383 98.6619 41.7751 106.171C38.2717 113.985 39.2509 123.004 37.6446 131.416C35.9841 140.111 31.5261 148.317 31.5506 157.165C31.5681 164.038 34.3042 170.607 35.1608 177.427C35.7301 181.957 35.5111 186.751 37.5816 190.82C39.1581 193.915 42.6964 195.413 46.1017 195.163C47.0155 195.081 47.9205 194.92 48.8062 194.681Z" fill="#FFD7E2"/>
<path d="M59.8567 148.035C57.0541 149.993 54.6747 152.495 52.8605 155.392C51.9654 156.825 51.2157 158.342 50.4678 159.855C48.2274 164.389 45.959 169.01 45.1655 174.003C50.5956 167.698 58.8197 163.629 64.5353 157.578C65.4112 156.647 66.287 155.583 66.4201 154.305C66.5725 152.744 65.5671 151.327 64.6124 150.088C63.5702 148.731 61.258 147.056 59.8567 148.035Z" fill="#0A0517"/>
<path d="M47.4193 202.777C53.2155 208.964 60.8966 212.282 67.9365 216.428C72.3962 219.055 76.602 222.012 79.9109 226.237C82.1057 229.04 83.7067 232.231 85.3656 235.391C85.8578 236.326 86.3517 237.257 86.8702 238.171C87.5429 239.362 88.2996 240.579 89.4732 241.28C89.4909 241.292 89.5097 241.303 89.5293 241.312C90.0471 241.61 90.6205 241.8 91.2144 241.869C92.6998 242.044 94.3061 241.566 95.5778 240.712C97.368 239.513 98.6519 237.712 99.9569 235.983C107.966 225.343 117.916 216.315 129.282 209.376C133.69 206.687 138.851 204.471 137.69 199.435C137.633 199.188 137.576 198.941 137.514 198.698C137.117 197.1 136.638 195.529 136.085 193.981C135.009 191.016 133.753 188.121 132.322 185.31C130.352 181.367 127.668 177.671 126.906 173.266C126.416 170.432 127.143 167.552 127.504 164.699C127.895 161.602 127.855 158.466 127.384 155.38C127.358 155.191 127.328 155.005 127.297 154.82C127.111 153.723 126.875 152.567 127.253 151.519C127.46 150.945 127.836 150.453 128.208 149.967C132.147 144.826 135.027 138.683 134.417 131.938C134.3 130.811 134.12 129.691 133.878 128.584C133.571 127.089 133.228 125.606 133.062 124.087C132.569 119.619 133.622 115.154 134.113 110.678C134.79 104.584 134.163 98.1087 129.176 93.9346C126.069 91.3334 122.224 89.8165 118.579 88.0368C114.187 85.8928 108.74 82.6401 107.937 77.3834C107.645 75.4689 107.859 73.5193 108.074 71.603C108.531 67.4774 108.989 63.3529 109.449 59.2295C109.449 59.2033 109.449 59.1752 109.449 59.1507C109.452 59.1321 109.452 59.1133 109.449 59.0947C109.712 55.7946 105.958 54.0797 102.856 52.78C101.355 52.1512 99.8466 52.1144 98.3016 51.6502C96.4764 51.0985 94.6704 50.4696 92.7611 50.284C90.1896 50.03 87.3169 50.7324 85.8227 52.8413C85.1554 53.7837 84.8313 54.8978 84.6439 56.0486C84.537 56.6879 84.4687 57.3413 84.4092 57.9754C84.3181 58.9283 84.2299 59.8829 84.1447 60.8393C83.8767 63.7277 83.5964 66.6197 83.1585 69.4836C82.6014 73.1077 82.3615 76.9648 80.1806 79.9934C77.9316 83.1343 74.8102 85.5461 71.2034 86.9298C66.4336 88.7322 60.5305 88.9529 57.4984 93.05C55.8956 95.215 55.4997 98.0457 55.4997 100.738C55.5008 103.62 55.8926 106.488 56.6646 109.265C57.5789 112.556 59.0398 115.816 58.7963 119.223C58.6212 121.658 57.5894 123.921 56.7539 126.229C56.6435 126.527 56.5384 126.828 56.4386 127.13C55.0782 131.261 54.7706 135.667 55.5435 139.948C56.069 142.872 57.106 145.678 58.1272 148.466C58.8127 150.271 59.4842 152.071 60.1416 153.868C60.3851 154.525 60.6251 155.184 60.8668 155.842C59.8018 159.458 60.0348 163.833 59.8929 167.599C59.7527 171.255 60.0225 175.088 58.4442 178.388C57.5509 180.26 56.1233 181.814 54.8533 183.455C51.0933 188.332 48.6385 194.087 47.7206 200.176C47.591 201.04 47.4905 201.907 47.4193 202.777Z" fill="#FFD7E2"/>
<path d="M83.9585 60.8389C86.5632 63.9393 91.1928 64.5927 95.05 64.3194C99.3363 64.0146 106.45 62.8621 109.252 59.1451L109.291 59.0961H109.256C105.52 58.1484 100.969 59.2204 97.0749 58.7878C93.0679 58.3425 89.1112 57.5239 85.2564 56.3425C84.9853 56.2563 84.7187 56.1563 84.4577 56.043C84.3508 56.6823 84.2825 57.3357 84.223 57.9698C84.1307 58.9262 84.0425 59.8825 83.9585 60.8389Z" fill="#0A0517"/>
<path d="M91.5266 96.2728C91.4513 94.0727 91.3515 91.7623 90.2024 89.8828C88.6259 87.2974 85.5149 86.1694 82.6387 85.2218C81.4265 84.8224 79.9008 84.4948 79.032 85.4284C78.3191 86.1957 78.468 87.4043 78.7185 88.4202C80.1519 94.1666 83.3599 99.315 87.8867 103.134C93.0996 107.499 91.6212 99.0789 91.5266 96.2728Z" fill="#FFCAD7"/>
<path d="M98.9806 63.7851C87.9879 63.7851 79.0765 54.6629 79.0765 43.4101C79.0765 32.1573 87.9879 23.0352 98.9806 23.0352C109.973 23.0352 118.885 32.1573 118.885 43.4101C118.885 54.6629 109.973 63.7851 98.9806 63.7851Z" fill="#FFD7E2"/>
<path d="M94.6433 44.3096C95.2159 44.3102 95.7869 44.2479 96.3459 44.1239C96.4022 44.1159 96.4562 44.0964 96.5046 44.0666C96.553 44.0368 96.5947 43.9974 96.6271 43.9507C96.6596 43.9041 96.6821 43.8513 96.6932 43.7955C96.7043 43.7398 96.7038 43.6824 96.6917 43.6268C96.6797 43.5713 96.6563 43.5189 96.623 43.4728C96.5898 43.4267 96.5474 43.388 96.4985 43.359C96.4496 43.33 96.3953 43.3115 96.3389 43.3044C96.2825 43.2974 96.2253 43.3021 96.1708 43.3182C95.0903 43.5477 93.9724 43.5337 92.898 43.2774C91.8236 43.0211 90.8198 42.5288 89.9593 41.8363C89.8746 41.7666 89.7656 41.7335 89.6564 41.7442C89.5471 41.7548 89.4466 41.8085 89.3769 41.8932C89.3072 41.978 89.2741 42.087 89.2848 42.1962C89.2954 42.3055 89.3491 42.406 89.4338 42.4757C90.9099 43.664 92.7483 44.3112 94.6433 44.3096Z" fill="#0A0517"/>
<path d="M109.588 44.6304C111.263 44.6372 112.896 44.1041 114.244 43.11C114.325 43.0421 114.377 42.9456 114.39 42.8402C114.402 42.7349 114.373 42.6289 114.31 42.5441C114.246 42.4593 114.152 42.4022 114.048 42.3846C113.943 42.367 113.836 42.3903 113.748 42.4496C112.811 43.1378 111.717 43.5813 110.565 43.74C109.413 43.8988 108.24 43.7677 107.151 43.3587C107.1 43.3351 107.045 43.3222 106.988 43.3208C106.932 43.3194 106.876 43.3296 106.823 43.3507C106.771 43.3718 106.724 43.4034 106.684 43.4435C106.644 43.4837 106.613 43.5315 106.593 43.584C106.572 43.6366 106.563 43.6928 106.565 43.7491C106.567 43.8055 106.581 43.8608 106.605 43.9118C106.629 43.9627 106.663 44.0081 106.706 44.0452C106.748 44.0824 106.798 44.1104 106.852 44.1277C107.725 44.4633 108.652 44.6338 109.588 44.6304Z" fill="#0A0517"/>
<path d="M102.008 50.251C102.315 50.2525 102.619 50.1967 102.906 50.0864C103.926 49.687 104.539 48.5222 104.248 47.5395C104.157 47.2636 104.002 47.013 103.796 46.8081C103.59 46.6033 103.339 46.45 103.062 46.3607C102.823 46.2778 102.569 46.2467 102.318 46.2696C102.514 44.7509 102.635 43.213 102.678 41.6856C102.675 41.5802 102.632 41.4801 102.557 41.4057C102.482 41.3313 102.382 41.2882 102.277 41.2853C102.171 41.2824 102.069 41.3199 101.99 41.39C101.911 41.4602 101.863 41.5578 101.853 41.6628C101.802 43.3911 101.654 45.1151 101.408 46.8266C101.396 46.9073 101.409 46.9897 101.444 47.0634C101.478 47.1371 101.534 47.1988 101.604 47.2407C101.674 47.2825 101.755 47.3026 101.837 47.2984C101.918 47.2943 101.997 47.266 102.062 47.2172C102.17 47.1467 102.293 47.1032 102.421 47.0904C102.549 47.0776 102.678 47.0959 102.798 47.1436C102.949 47.1897 103.088 47.2707 103.202 47.3803C103.317 47.4898 103.404 47.6248 103.456 47.7742C103.631 48.3523 103.23 49.0722 102.607 49.3174C101.983 49.5626 101.221 49.398 100.632 48.9163C100.59 48.8818 100.542 48.8559 100.49 48.8401C100.438 48.8244 100.383 48.819 100.329 48.8244C100.275 48.8298 100.222 48.8457 100.174 48.8714C100.126 48.8971 100.084 48.932 100.049 48.9741C100.015 49.0162 99.9888 49.0647 99.973 49.1168C99.9573 49.1689 99.9519 49.2236 99.9573 49.2777C99.9627 49.3319 99.9786 49.3845 100.004 49.4324C100.03 49.4804 100.065 49.5229 100.107 49.5574C100.643 49.9984 101.314 50.2431 102.008 50.251Z" fill="#0A0517"/>
<path d="M99.4171 54.612C99.7411 54.6123 100.065 54.5853 100.384 54.5314C100.439 54.5235 100.491 54.5047 100.539 54.4762C100.586 54.4476 100.627 54.4099 100.659 54.3653C100.692 54.3206 100.715 54.2699 100.727 54.2161C100.74 54.1623 100.742 54.1066 100.732 54.0522C100.723 53.9978 100.703 53.9458 100.673 53.8993C100.643 53.8528 100.604 53.8127 100.559 53.7815C100.513 53.7502 100.462 53.7284 100.408 53.7173C100.354 53.7062 100.298 53.7061 100.244 53.7169C98.9801 53.9321 97.6817 53.657 96.6137 52.9477C95.5457 52.2385 94.7886 51.1485 94.4967 49.9001C94.487 49.8448 94.466 49.792 94.4352 49.7451C94.4044 49.6981 94.3643 49.6579 94.3174 49.627C94.2705 49.596 94.2178 49.575 94.1625 49.5651C94.1072 49.5552 94.0505 49.5566 93.9958 49.5694C93.9411 49.5821 93.8895 49.6059 93.8443 49.6392C93.7991 49.6726 93.7612 49.7148 93.7328 49.7633C93.7045 49.8117 93.6863 49.8655 93.6794 49.9213C93.6725 49.977 93.677 50.0336 93.6927 50.0875C93.9943 51.378 94.7247 52.5281 95.7644 53.3499C96.8042 54.1717 98.0918 54.6166 99.4171 54.612Z" fill="#0A0517"/>
<path d="M90.2906 37.526C90.4708 37.7619 90.7035 37.9527 90.9702 38.083C92.093 38.6418 93.5574 38.4333 94.7345 38.2126C97.1028 37.7677 98.1678 35.5344 95.1322 35.0912C94.0672 34.9371 89.7843 35.1035 90.0348 36.9182C90.068 37.139 90.156 37.3479 90.2906 37.526Z" fill="#0A0517"/>
<path d="M107.081 37.2689C107.164 37.5539 107.312 37.8158 107.512 38.0344C108.357 38.9628 109.789 39.3008 110.974 39.5215C113.344 39.9647 115.144 38.2691 112.476 36.7557C111.541 36.2302 107.488 34.8289 107.064 36.6103C107.014 36.8279 107.02 37.0543 107.081 37.2689Z" fill="#0A0517"/>
<path d="M79.3885 41.296C79.7086 42.1113 79.8594 42.9832 79.8317 43.8586C79.7932 45.57 79.9175 47.1517 80.4343 48.8648C80.5499 49.2432 80.7303 49.6688 81.1104 49.7809C81.2747 49.8142 81.4451 49.7988 81.6007 49.7365C81.7563 49.6743 81.8903 49.5679 81.9863 49.4306C82.1712 49.1509 82.2964 48.836 82.3541 48.5057C83.0862 45.5104 83.6025 42.4664 83.8991 39.3972C87.0048 38.5512 89.578 35.9973 92.1021 34.1196C93.2932 33.2333 103.982 25.3807 103.442 24.2929C105.2 27.8368 107.324 31.1872 109.778 34.2895C110.959 35.7836 112.23 37.5528 113.711 38.7561C115.096 39.8789 115.832 39.9718 115.685 42.0842C115.556 43.934 115.553 45.7903 115.676 47.6404C115.708 48.0941 115.75 48.567 115.979 48.9611C116.209 49.3553 116.68 49.6513 117.116 49.5357C117.673 49.3885 117.888 48.7264 117.992 48.1624C118.349 46.3509 118.548 44.5118 118.587 42.6658C118.622 41.0228 119.813 40.965 120.328 39.688C120.866 38.3252 119.733 37.0693 119.362 35.8344C118.456 32.8006 116.394 29.9472 114.375 27.593C111.348 24.0635 107.394 21.3169 102.924 20.1906C97.3291 18.7788 90.9425 20.2064 86.6334 24.2194C83.3718 27.2497 79.851 30.7617 78.5057 35.1268C78.0205 36.7032 77.9802 38.1746 78.6371 39.6162C78.9279 40.217 79.1854 40.7565 79.3885 41.296Z" fill="#0A0517"/>
<path d="M55.5739 139.943C56.0994 142.867 57.1364 145.673 58.1576 148.461C58.8221 150.268 59.483 152.07 60.1405 153.867C72.0798 152.693 84.2048 152.816 96.2248 152.954C104.263 153.045 112.34 153.142 120.266 154.487C122.584 154.881 124.996 155.103 127.382 155.384C127.355 155.195 127.326 155.009 127.294 154.823C127.108 153.727 126.872 152.571 127.25 151.523C127.457 150.949 127.834 150.456 128.205 149.971C132.144 144.83 135.024 138.687 134.415 131.942C134.297 130.814 134.117 129.695 133.875 128.587C128.445 125.008 123.927 120.209 120.68 114.574C114.586 121.055 107.717 127.627 98.9591 129.244C93.7497 130.208 88.2547 129.137 83.5935 126.629C78.9323 124.121 74.3097 120.563 71.5175 116.067C71.2583 117.643 62.5841 124.143 60.8324 125C59.5627 125.619 58.2029 126.033 56.8036 126.226C56.6932 126.524 56.5881 126.825 56.4883 127.126C55.1218 131.256 54.8075 135.661 55.5739 139.943Z" fill="#FFF0F4"/>
<path d="M120.508 115.217C120.562 115.216 120.615 115.204 120.665 115.182C120.715 115.161 120.76 115.13 120.798 115.091C120.836 115.051 120.865 115.005 120.885 114.955C120.905 114.904 120.915 114.85 120.914 114.796C120.758 106.054 120.469 97.2185 120.059 88.534C120.059 88.4781 120.048 88.4228 120.026 88.3715C120.004 88.3201 119.971 88.2738 119.931 88.2353C119.891 88.1967 119.843 88.1668 119.79 88.1472C119.738 88.1277 119.682 88.1189 119.627 88.1215C119.571 88.1242 119.516 88.138 119.466 88.1624C119.415 88.1867 119.371 88.221 119.334 88.2631C119.297 88.3053 119.27 88.3544 119.252 88.4076C119.235 88.4608 119.229 88.5169 119.234 88.5725C119.644 97.2483 119.935 106.077 120.087 114.81C120.09 114.92 120.135 115.024 120.214 115.1C120.292 115.176 120.398 115.218 120.508 115.217Z" fill="#0A0517"/>
<path d="M71.4499 117.309C71.5592 117.309 71.6641 117.266 71.7416 117.189C71.8191 117.112 71.8629 117.007 71.8633 116.897C71.9211 107.029 71.548 97.041 70.7528 87.2126C70.7439 87.1032 70.692 87.0018 70.6084 86.9307C70.5248 86.8595 70.4164 86.8245 70.307 86.8334C70.1976 86.8422 70.0961 86.8941 70.025 86.9777C69.9539 87.0613 69.9189 87.1698 69.9277 87.2792C70.723 97.0883 71.0943 107.048 71.0365 116.894C71.0363 116.948 71.0468 117.002 71.0673 117.052C71.0879 117.103 71.1181 117.148 71.1564 117.187C71.1946 117.225 71.24 117.256 71.2901 117.277C71.3402 117.298 71.3939 117.309 71.4482 117.309H71.4499Z" fill="#0A0517"/>
<path d="M102.889 198.629C102.955 198.628 103.019 198.612 103.077 198.582C103.135 198.551 103.184 198.507 103.222 198.454C108.393 191.435 110.395 182.514 112.155 174.632C112.175 174.526 112.152 174.417 112.092 174.328C112.033 174.239 111.941 174.177 111.836 174.154C111.732 174.131 111.622 174.15 111.531 174.207C111.44 174.263 111.374 174.353 111.348 174.456C109.596 182.253 107.619 191.097 102.551 197.969C102.506 198.03 102.478 198.103 102.472 198.179C102.466 198.256 102.48 198.332 102.515 198.4C102.549 198.469 102.602 198.526 102.667 198.566C102.732 198.606 102.807 198.627 102.884 198.627L102.889 198.629Z" fill="#0A0517"/>
<path d="M97.6621 86.3879C97.7432 86.388 97.8226 86.3641 97.8902 86.3192C97.9579 86.2743 98.0107 86.2105 98.0422 86.1356C100.715 79.8286 103.067 73.3901 105.089 66.8449C105.119 66.7408 105.107 66.6289 105.056 66.5335C105.004 66.4381 104.917 66.3667 104.814 66.3347C104.71 66.3028 104.598 66.3129 104.502 66.3628C104.406 66.4127 104.333 66.4984 104.299 66.6015C102.286 73.1198 99.9438 79.5319 97.2819 85.8133C97.2554 85.8762 97.2447 85.9446 97.251 86.0125C97.2573 86.0804 97.2802 86.1457 97.3179 86.2026C97.3555 86.2595 97.4066 86.3061 97.4667 86.3385C97.5267 86.3708 97.5939 86.3878 97.6621 86.3879Z" fill="#0A0517"/>
<path d="M88.8651 76.1362H88.9194C89.0272 76.1206 89.1244 76.063 89.19 75.9761C89.2556 75.8892 89.2843 75.7799 89.2698 75.672L88.0436 66.4724C88.0365 66.4186 88.0188 66.3667 87.9916 66.3197C87.9644 66.2727 87.9282 66.2315 87.8851 66.1985C87.842 66.1655 87.7928 66.1413 87.7404 66.1273C87.6879 66.1133 87.6332 66.1097 87.5794 66.1169C87.5256 66.124 87.4737 66.1417 87.4267 66.1688C87.3797 66.196 87.3385 66.2322 87.3055 66.2753C87.2724 66.3184 87.2482 66.3676 87.2342 66.4201C87.2202 66.4725 87.2167 66.5272 87.2238 66.581L88.45 75.7806C88.464 75.8802 88.514 75.9713 88.5904 76.0368C88.6668 76.1023 88.7645 76.1376 88.8651 76.1362Z" fill="#0A0517"/>
<path d="M95.5525 45.4887C95.5991 45.4882 95.6453 45.4799 95.6892 45.4641C95.7403 45.4462 95.7873 45.4185 95.8277 45.3824C95.868 45.3462 95.9009 45.3025 95.9243 45.2537C95.9477 45.2049 95.9613 45.152 95.9642 45.0979C95.9672 45.0438 95.9594 44.9897 95.9414 44.9386C95.8221 44.5965 95.782 44.2318 95.824 43.8719C95.8368 43.763 95.8058 43.6534 95.7378 43.5673C95.6698 43.4813 95.5704 43.4257 95.4614 43.413C95.3525 43.4002 95.2429 43.4312 95.1569 43.4992C95.0708 43.5672 95.0153 43.6666 95.0025 43.7756C94.9462 44.2609 95.0013 44.7528 95.1637 45.2136C95.1922 45.294 95.2449 45.3635 95.3145 45.4128C95.3841 45.462 95.4673 45.4885 95.5525 45.4887Z" fill="#0A0517"/>
<path d="M92.895 45.4866C92.9791 45.4867 93.0613 45.461 93.1304 45.4131C93.1996 45.3653 93.2525 45.2974 93.2821 45.2186L93.7007 44.1046C93.7236 44.0532 93.7357 43.9976 93.7363 43.9413C93.7369 43.885 93.726 43.8291 93.7043 43.7772C93.6825 43.7253 93.6504 43.6783 93.6099 43.6392C93.5694 43.6002 93.5213 43.5698 93.4686 43.5499C93.4159 43.5301 93.3597 43.5212 93.3035 43.5239C93.2472 43.5266 93.1921 43.5407 93.1415 43.5654C93.0909 43.5901 93.0459 43.6249 93.0092 43.6676C92.9726 43.7103 92.945 43.7601 92.9283 43.8138L92.5096 44.9279C92.4731 45.0295 92.4777 45.1413 92.5226 45.2395C92.5674 45.3377 92.6489 45.4144 92.7496 45.4534C92.7958 45.4728 92.845 45.4841 92.895 45.4866Z" fill="#0A0517"/>
<path d="M90.2314 44.4985C90.3103 44.4987 90.3876 44.4761 90.4541 44.4336C90.5205 44.391 90.5734 44.3303 90.6063 44.2586L91.1038 43.1796C91.1502 43.0799 91.1552 42.9659 91.1176 42.8626C91.08 42.7593 91.0028 42.6751 90.9032 42.6287C90.8035 42.5822 90.6895 42.5772 90.5862 42.6149C90.4829 42.6525 90.3987 42.7296 90.3523 42.8292L89.8566 43.9082C89.8279 43.9711 89.8154 44.0402 89.8203 44.1091C89.8252 44.1781 89.8473 44.2447 89.8846 44.3029C89.9218 44.3611 89.9731 44.409 90.0337 44.4423C90.0943 44.4755 90.1623 44.4931 90.2314 44.4933V44.4985Z" fill="#0A0517"/>
<path d="M113.864 44.8653C113.94 44.8657 114.014 44.845 114.079 44.8057C114.144 44.7664 114.197 44.7099 114.231 44.6425C114.266 44.5751 114.282 44.4994 114.276 44.4237C114.271 44.348 114.244 44.2754 114.2 44.2137L113.499 43.2363C113.434 43.1512 113.339 43.0947 113.233 43.0788C113.126 43.0629 113.018 43.0888 112.931 43.1511C112.844 43.2134 112.784 43.3071 112.765 43.4126C112.745 43.518 112.768 43.6269 112.827 43.7163L113.528 44.6919C113.566 44.7456 113.616 44.7894 113.675 44.8196C113.733 44.8497 113.798 44.8654 113.864 44.8653Z" fill="#0A0517"/>
<path d="M111.154 45.6262C111.263 45.6257 111.368 45.582 111.445 45.5045C111.522 45.427 111.566 45.3221 111.566 45.2128V44.2372C111.569 44.1807 111.561 44.1241 111.542 44.0709C111.523 44.0177 111.493 43.9689 111.455 43.9276C111.416 43.8864 111.369 43.8535 111.317 43.831C111.266 43.8085 111.21 43.7969 111.153 43.7969C111.096 43.7969 111.041 43.8085 110.989 43.831C110.937 43.8535 110.89 43.8864 110.851 43.9276C110.813 43.9689 110.783 44.0177 110.764 44.0709C110.745 44.1241 110.737 44.1807 110.74 44.2372V45.2128C110.74 45.3225 110.784 45.4276 110.862 45.5051C110.939 45.5826 111.044 45.6262 111.154 45.6262Z" fill="#0A0517"/>
<path d="M108.238 46.0463C108.324 46.0461 108.408 46.019 108.478 45.9688C108.548 45.9185 108.601 45.8476 108.629 45.766L109.053 44.5136C109.072 44.4618 109.08 44.4066 109.078 44.3514C109.075 44.2962 109.062 44.2421 109.038 44.1922C109.014 44.1424 108.98 44.0978 108.939 44.0611C108.898 44.0245 108.849 43.9965 108.797 43.9788C108.745 43.9611 108.689 43.9541 108.634 43.9582C108.579 43.9622 108.525 43.9773 108.476 44.0025C108.427 44.0277 108.383 44.0625 108.348 44.1049C108.312 44.1472 108.286 44.1963 108.27 44.2491L107.846 45.5015C107.811 45.6056 107.818 45.7193 107.867 45.8178C107.915 45.9163 108.001 45.9915 108.105 46.027C108.148 46.0402 108.193 46.0467 108.238 46.0463Z" fill="#0A0517"/>
<path d="M89.6677 50.3664C87.627 50.5993 83.8732 47.8545 85.7195 45.6545C86.9456 44.1814 89.5171 45.164 90.6644 46.2028C91.3055 46.7843 91.824 47.6041 91.7364 48.4606C91.6331 49.4695 90.6749 50.2525 89.6677 50.3664Z" fill="#FFCAD7"/>
<path d="M110.707 50.921C112.748 51.1539 116.502 48.4091 114.657 46.2091C113.42 44.736 110.858 45.7186 109.71 46.7591C109.069 47.3389 108.553 48.1604 108.64 49.0152C108.742 50.0241 109.7 50.8019 110.707 50.921Z" fill="#FFCAD7"/>
<path d="M56.9233 126.418C57.0251 126.418 57.1232 126.38 57.1991 126.312C57.275 126.245 57.3234 126.151 57.335 126.05C57.6977 122.701 57.8148 119.33 57.6853 115.964C57.6811 115.855 57.6335 115.751 57.5531 115.677C57.4726 115.602 57.3658 115.563 57.2561 115.567C57.1465 115.571 57.043 115.618 56.9684 115.699C56.8939 115.779 56.8543 115.886 56.8585 115.996C56.9845 119.322 56.8674 122.652 56.5082 125.961C56.5021 126.015 56.5068 126.069 56.5219 126.122C56.537 126.174 56.5624 126.222 56.5964 126.265C56.6304 126.307 56.6725 126.342 56.7202 126.368C56.7679 126.394 56.8202 126.411 56.8743 126.416L56.9233 126.418Z" fill="#0A0517"/>
<path d="M74.212 190.924C67.8911 193.986 60.9702 195.609 53.9471 195.676C48.1088 195.737 41.258 196.053 38.6042 189.91C30.0876 170.195 54.8036 159.505 68.633 152.913L100.145 137.891C107.678 134.299 115.569 130.417 120.312 123.546C122.567 120.275 124.014 116.457 126.596 113.433C128.242 111.507 130.293 109.969 132.325 108.452L141.802 101.373C143.553 100.068 146.254 98.8458 147.633 100.538C148.786 101.953 147.745 104.081 146.484 105.402C143.319 108.722 138.558 111.077 137.55 115.553C141.539 116.415 145.363 114.365 149.125 113.309C150.655 112.878 152.236 112.477 153.813 112.664C155.389 112.852 156.98 113.754 157.539 115.239C158.26 117.154 157.138 119.454 158.047 121.284C158.448 122.09 159.206 122.705 159.476 123.561C160.058 125.43 158.085 127.488 158.884 129.277C159.105 129.773 159.513 130.153 159.833 130.596C160.307 131.27 160.577 132.066 160.612 132.889C160.647 133.712 160.446 134.527 160.031 135.239C159.737 135.726 159.331 136.191 159.29 136.758C159.227 137.697 160.154 138.359 160.653 139.158C161.499 140.51 161.047 142.381 159.973 143.56C158.9 144.739 157.346 145.353 155.812 145.784C150.606 147.247 145.098 147.03 139.871 148.424C134.828 149.773 130.412 152.57 125.956 155.217C115.91 161.193 105.987 167.448 96.798 174.686C89.4953 180.437 82.5657 186.851 74.212 190.924Z" fill="#FFD7E2"/>
<path d="M53.9457 196.088C61.0297 196.016 68.01 194.378 74.3876 191.294C80.9686 188.085 86.7438 183.373 92.3281 178.817C93.8696 177.559 95.4636 176.26 97.0489 175.013C106.774 167.36 117.223 160.893 126.163 155.569L127.295 154.899C131.287 152.513 135.412 150.045 139.973 148.826C142.501 148.15 145.153 147.85 147.721 147.561C150.426 147.256 153.223 146.939 155.912 146.184C157.301 145.795 159.051 145.175 160.268 143.839C161.384 142.613 161.992 140.537 160.992 138.934C160.818 138.67 160.627 138.419 160.419 138.181C160.011 137.691 159.659 137.268 159.692 136.78C159.715 136.45 159.927 136.13 160.151 135.792C160.228 135.676 160.303 135.562 160.373 135.441C160.829 134.66 161.051 133.763 161.012 132.859C160.974 131.955 160.676 131.081 160.156 130.341C160.044 130.188 159.925 130.043 159.806 129.903C159.583 129.66 159.395 129.389 159.245 129.095C158.895 128.316 159.194 127.415 159.51 126.468C159.837 125.482 160.175 124.46 159.86 123.434C159.685 122.872 159.334 122.422 159.009 121.987C158.78 121.708 158.578 121.409 158.406 121.092C157.98 120.234 158.056 119.23 158.135 118.165C158.212 117.14 158.291 116.082 157.916 115.086C157.352 113.586 155.756 112.472 153.852 112.246C152.221 112.054 150.629 112.446 149.003 112.901C148.064 113.166 147.108 113.495 146.185 113.814C143.535 114.727 140.8 115.669 138.05 115.215C138.844 112.465 141.14 110.563 143.563 108.559C144.688 107.661 145.762 106.699 146.779 105.678C148.276 104.101 149.219 101.824 147.949 100.267C146.451 98.4277 143.661 99.456 141.55 101.032L132.068 108.111C130.047 109.621 127.955 111.181 126.272 113.155C124.737 114.954 123.59 117.049 122.48 119.074C121.716 120.525 120.88 121.935 119.973 123.301C115.166 130.267 107.093 134.114 99.9689 137.508C99.8783 137.56 99.8104 137.643 99.7788 137.743C99.7472 137.842 99.7543 137.949 99.7985 138.044C99.8428 138.138 99.921 138.212 100.018 138.251C100.114 138.29 100.222 138.291 100.319 138.255C107.179 134.986 115.716 130.917 120.649 123.77C121.571 122.381 122.422 120.947 123.199 119.472C124.289 117.484 125.415 115.427 126.895 113.691C128.517 111.787 130.574 110.255 132.557 108.773L142.039 101.695C143.76 100.409 146.172 99.4017 147.294 100.789C148.239 101.952 147.372 103.842 146.167 105.107C145.171 106.105 144.118 107.045 143.014 107.923C140.476 110.025 137.852 112.201 137.116 115.455C137.103 115.511 137.101 115.569 137.11 115.626C137.12 115.682 137.142 115.736 137.174 115.784C137.205 115.832 137.247 115.872 137.295 115.903C137.343 115.934 137.398 115.955 137.454 115.963C140.572 116.638 143.563 115.613 146.455 114.611C147.369 114.296 148.313 113.97 149.229 113.714C150.771 113.282 152.275 112.907 153.757 113.082C155.358 113.273 156.688 114.18 157.145 115.392C157.455 116.219 157.387 117.144 157.32 118.12C157.236 119.248 157.145 120.414 157.67 121.476C157.865 121.84 158.095 122.184 158.355 122.504C158.657 122.9 158.942 123.273 159.073 123.695C159.315 124.469 159.033 125.322 158.734 126.224C158.383 127.286 158.021 128.382 158.499 129.456C158.678 129.818 158.906 130.153 159.177 130.453C159.289 130.589 159.396 130.717 159.492 130.85C159.919 131.458 160.162 132.176 160.193 132.918C160.224 133.66 160.042 134.395 159.667 135.037C159.603 135.144 159.534 135.247 159.464 135.352C159.203 135.746 158.907 136.193 158.869 136.741C158.813 137.557 159.329 138.179 159.786 138.726C159.969 138.935 160.138 139.156 160.293 139.388C161.065 140.623 160.543 142.32 159.659 143.292C158.583 144.473 156.973 145.044 155.691 145.394C153.064 146.132 150.301 146.445 147.633 146.745C145.036 147.039 142.352 147.34 139.767 148.032C135.093 149.281 130.916 151.779 126.876 154.194L125.746 154.871C116.783 160.201 106.303 166.687 96.5426 174.368C94.9521 175.619 93.3563 176.922 91.8131 178.183C86.2639 182.709 80.5272 187.39 74.032 190.556C67.7647 193.587 60.9052 195.195 53.9439 195.267C53.8343 195.267 53.7291 195.31 53.6516 195.388C53.5741 195.465 53.5305 195.57 53.5305 195.68C53.5305 195.79 53.5741 195.895 53.6516 195.972C53.7291 196.05 53.8343 196.093 53.9439 196.093L53.9457 196.088Z" fill="#0A0517"/>
<path d="M66.6202 114.679C69.6418 118.056 72.9419 120.053 76.7466 122.432C79.4529 124.124 81.7055 126.515 84.3103 128.43C88.1797 131.274 90.9455 135.804 93.5468 139.752C96.6822 144.51 99.8936 149.216 103.181 153.87C109.771 163.154 116.718 172.205 124.124 180.861C127.347 184.627 130.733 188.393 135.023 190.861C139.312 193.329 144.715 194.38 149.274 192.438C152.096 191.236 154.38 188.992 156.085 186.44C158.822 182.347 160.749 178.143 159.721 173.313C158.535 167.708 155.167 162.842 151.513 158.435C147.153 153.17 142.302 148.332 137.025 143.986C128.168 136.68 118.229 130.824 109.25 123.667C104.962 120.25 100.76 116.557 97.5371 112.138C93.9864 107.263 91.6567 101.978 89.1151 96.5482C86.5559 91.0761 83.3521 85.5707 78.2057 82.4056C76.3717 81.2775 73.8896 80.5261 72.1607 81.81C71.4058 82.3688 70.7839 83.3076 69.8433 83.2954C67.9042 81.8188 64.6005 82.9451 63.6143 85.1661C63.3954 85.6618 63.2535 86.2364 62.8208 86.5674C61.9695 87.2225 60.7732 86.3485 59.9919 86.8389C58.5275 87.7585 59.5768 90.3755 57.5186 90.7223C56.7093 90.8589 55.8808 90.5874 55.0662 90.654C53.1815 90.8064 52.6647 93.0012 52.8626 94.5076C53.9907 103.117 61.2549 108.677 66.6202 114.679Z" fill="#FFD7E2"/>
<path d="M135.031 191.284C135.122 191.284 135.21 191.254 135.282 191.198C135.354 191.143 135.406 191.066 135.429 190.978C135.453 190.89 135.447 190.797 135.412 190.713C135.378 190.629 135.316 190.559 135.238 190.513C131.018 188.077 127.725 184.435 124.448 180.603C117.374 172.337 110.532 163.517 103.526 153.64C100.373 149.198 97.1339 144.453 93.8916 139.534C93.8291 139.448 93.7359 139.389 93.6313 139.37C93.5266 139.351 93.4187 139.373 93.3298 139.431C93.2409 139.49 93.178 139.58 93.1541 139.684C93.1301 139.787 93.1471 139.896 93.2014 139.988C96.4455 144.915 99.6826 149.669 102.848 154.118C109.868 164.017 116.728 172.861 123.815 181.14C127.143 185.029 130.487 188.727 134.823 191.23C134.886 191.266 134.958 191.285 135.031 191.284Z" fill="#0A0517"/>
<path d="M66.6204 115.094C66.7001 115.094 66.7781 115.071 66.845 115.028C66.9118 114.984 66.9647 114.923 66.9973 114.85C67.0299 114.777 67.0408 114.697 67.0286 114.618C67.0164 114.539 66.9817 114.465 66.9287 114.406C65.8304 113.18 64.634 111.954 63.4762 110.761C58.8938 106.051 54.1538 101.181 53.2727 94.4706C53.1676 93.6789 53.2727 92.4807 53.8841 91.717C54.0302 91.5307 54.214 91.3772 54.4235 91.2668C54.633 91.1563 54.8634 91.0913 55.0997 91.0759C55.4472 91.06 55.7955 91.0758 56.1402 91.1232C56.6211 91.1967 57.1098 91.2025 57.5923 91.1407C59.0147 90.9008 59.2529 89.7394 59.4456 88.8181C59.584 88.1472 59.7153 87.5149 60.2163 87.1996C60.4528 87.0507 60.8119 87.105 61.2288 87.168C61.7893 87.2539 62.4865 87.3607 63.0785 86.9053C63.5077 86.5742 63.6986 86.0873 63.8685 85.6581C63.9106 85.5513 63.9526 85.4444 63.9982 85.3411C64.4466 84.3251 65.4906 83.4966 66.722 83.1796C67.8063 82.9011 68.8555 83.0657 69.5982 83.6315C69.6686 83.6855 69.7547 83.7151 69.8435 83.7156C70.6755 83.7156 71.2851 83.1621 71.8193 82.6646C72.0073 82.4824 72.2049 82.3105 72.4114 82.1496C74.3382 80.7203 77.1724 82.26 77.9939 82.7662C83.2174 85.9787 86.3599 91.6277 88.7456 96.7319C88.9792 97.2259 89.2087 97.7181 89.4341 98.2086C91.7603 103.209 93.9568 107.93 97.2097 112.397C97.276 112.481 97.3722 112.535 97.478 112.55C97.5839 112.564 97.6912 112.537 97.7775 112.474C97.8638 112.411 97.9224 112.317 97.941 112.212C97.9595 112.107 97.9366 111.999 97.8771 111.91C94.6715 107.511 92.4907 102.824 90.1838 97.8617L89.4936 96.3834C87.057 91.1688 83.8357 85.3901 78.4266 82.0638C75.9322 80.5311 73.4992 80.3122 71.9192 81.4875C71.6882 81.6668 71.4671 81.8586 71.257 82.062C70.8314 82.4579 70.4285 82.8328 69.9748 82.8853C69.0394 82.2372 67.7888 82.0533 66.517 82.3808C65.0457 82.7592 63.7915 83.7664 63.2432 85.0083C63.1924 85.1221 63.1469 85.2395 63.0996 85.3586C62.9577 85.7212 62.8228 86.0593 62.5741 86.2537C62.2623 86.4937 61.8419 86.4289 61.3479 86.3553C60.8539 86.2817 60.2671 86.1906 59.7714 86.5024C58.9709 87.0051 58.7905 87.881 58.6311 88.6534C58.4296 89.6308 58.2807 90.1896 57.4487 90.3297C57.0407 90.3762 56.6283 90.3679 56.2225 90.3052C55.8273 90.2517 55.4279 90.2352 55.0296 90.2562C54.6818 90.2806 54.3429 90.3772 54.0344 90.5398C53.7259 90.7023 53.4545 90.9272 53.2377 91.2003C52.4564 92.169 52.3181 93.5808 52.4494 94.5809C53.3673 101.573 58.2037 106.543 62.8806 111.349C64.0332 112.532 65.2243 113.756 66.3086 114.968C66.3486 115.01 66.3971 115.043 66.4509 115.065C66.5047 115.087 66.5624 115.097 66.6204 115.094Z" fill="#0A0517"/>
<path d="M145.117 152.483C145.173 152.483 145.229 152.472 145.281 152.45C145.332 152.428 145.379 152.396 145.417 152.355C145.454 152.316 145.484 152.27 145.503 152.219C145.523 152.168 145.532 152.115 145.531 152.06C145.53 152.006 145.518 151.953 145.496 151.903C145.474 151.854 145.442 151.809 145.403 151.772L137.531 144.285C137.451 144.213 137.346 144.176 137.239 144.18C137.131 144.184 137.03 144.23 136.956 144.308C136.881 144.386 136.841 144.49 136.842 144.597C136.843 144.705 136.886 144.808 136.962 144.884L144.834 152.369C144.91 152.442 145.012 152.483 145.117 152.483Z" fill="#0A0517"/>
<path d="M76.4512 28.1106C74.2353 27.1963 72.862 25.6233 73.0757 22.8452C73.2684 20.3509 73.8061 17.7165 75.5561 15.9298C77.5652 13.8751 81.0423 13.4635 83.4753 14.9944C85.9084 16.5253 87.0452 19.8342 86.0643 22.5369C84.7488 26.1611 83.5419 29.8325 78.6127 28.7622C77.8744 28.6089 77.1511 28.3909 76.4512 28.1106Z" fill="#0A0517"/>
<path d="M111.912 18.2928C113.229 16.296 115.033 15.245 117.72 15.9737C120.134 16.634 122.625 17.6623 124.044 19.7169C125.68 22.0781 125.426 25.5709 123.464 27.6693C121.502 29.7678 118.034 30.26 115.566 28.7851C112.255 26.8075 108.88 24.9315 110.862 20.2914C111.153 19.5957 111.504 18.9269 111.912 18.2928Z" fill="#0A0517"/>
</g>
</svg>
