<svg width="786" height="726" viewBox="0 0 786 726" fill="none" xmlns="http://www.w3.org/2000/svg">
<g filter="url(#filter0_f_3604_14338)">
<circle cx="298.474" cy="428.181" r="173.818" fill="#E933E1" fill-opacity="0.54"/>
</g>
<g filter="url(#filter1_f_3604_14338)">
<circle cx="465.308" cy="320.321" r="196.321" fill="#F38445" fill-opacity="0.63"/>
</g>
<path d="M253.749 297.98C254.469 283.455 257.026 267.54 268.055 258.059C278.105 249.424 293.146 248.497 305.656 252.852C307.212 253.394 308.738 254.005 310.228 254.677C319.896 249.267 332.345 249.153 342.978 252.852C345.546 253.75 348.047 254.83 350.461 256.085C360.392 249.311 373.996 248.856 385.48 252.852C387.239 253.466 388.965 254.168 390.652 254.956C400.385 249.274 413.073 249.091 423.887 252.852C436.401 257.205 446.814 266.072 456.124 275.5C462.727 282.185 468.938 290.645 474.724 298.048L436.287 298.021L436.307 298.048L418.4 298.035C412.827 366.392 409.875 457.338 379.943 494.921L388.526 535.958H235.479L232.127 523.667C225.36 498.889 223.25 473.071 225.905 447.523C229.094 416.98 236.648 369.344 253.749 297.98Z" fill="#FFB0D0"/>
<path d="M253.749 297.98C254.469 283.455 257.026 267.54 268.055 258.059C278.105 249.424 293.146 248.497 305.656 252.852C307.212 253.394 308.738 254.005 310.228 254.677C319.896 249.267 332.345 249.153 342.978 252.852C345.546 253.75 348.047 254.83 350.461 256.085C360.392 249.311 373.996 248.856 385.48 252.852C387.239 253.466 388.965 254.168 390.652 254.956C400.385 249.274 413.073 249.091 423.887 252.852C436.401 257.205 446.814 266.072 456.124 275.5C462.727 282.185 468.938 290.645 474.724 298.048L436.287 298.021L436.307 298.048L418.4 298.035C412.827 366.392 409.875 457.338 379.943 494.921L388.526 535.958H235.479L232.127 523.667C225.36 498.889 223.25 473.071 225.905 447.523C229.094 416.98 236.648 369.344 253.749 297.98Z" stroke="#1D1D1B" stroke-width="2" stroke-linecap="round" stroke-linejoin="round"/>
<path d="M384.882 523.479L328.606 495.898H379.111L384.882 523.479Z" fill="#1D1D1B" stroke="#1D1D1B" stroke-width="2"/>
<path d="M331.707 329.545L332.103 331.455C333.001 335.773 335.359 339.65 338.78 342.433C342.201 345.216 346.477 346.735 350.886 346.734C353.594 346.734 356.272 346.161 358.743 345.051C361.214 343.941 363.422 342.321 365.222 340.297C367.022 338.272 368.373 335.89 369.186 333.305C369.999 330.721 370.256 327.994 369.94 325.304L366.859 297.977" stroke="#1D1D1B" stroke-width="2" stroke-linecap="round" stroke-linejoin="round"/>
<path d="M472.264 362.615C472.264 367.398 471.323 372.134 469.494 376.554C467.665 380.973 464.984 384.988 461.603 388.37C458.223 391.753 454.211 394.435 449.794 396.266C445.378 398.096 440.645 399.037 435.865 399.037H413.269C419.414 387.679 422.229 374.815 421.39 361.927C420.551 349.038 416.094 336.649 408.529 326.184H435.865C440.645 326.184 445.379 327.126 449.796 328.957C454.212 330.788 458.225 333.471 461.605 336.854C464.985 340.237 467.666 344.254 469.495 348.674C471.324 353.094 472.265 357.831 472.264 362.615Z" fill="white"/>
<path d="M421.519 366.345C421.52 375.341 419.748 384.25 416.305 392.562C412.863 400.874 407.816 408.426 401.454 414.787C395.091 421.149 387.538 426.195 379.224 429.637C370.911 433.079 362.001 434.85 353.003 434.849H269.15C293.523 421.426 310.036 395.511 310.036 365.729C310.036 336.829 294.489 311.563 271.301 297.836H352.999C375.829 297.836 396.05 308.999 408.503 326.168C416.983 337.846 421.54 351.913 421.519 366.345Z" fill="white"/>
<path d="M472.264 362.615C472.264 367.398 471.323 372.134 469.494 376.554C467.665 380.973 464.984 384.988 461.603 388.37C458.223 391.753 454.211 394.435 449.794 396.266C445.378 398.096 440.645 399.037 435.865 399.037H413.269C419.414 387.679 422.229 374.815 421.39 361.927C420.551 349.038 416.094 336.649 408.529 326.184H435.865C440.645 326.184 445.379 327.126 449.796 328.957C454.212 330.788 458.225 333.471 461.605 336.854C464.985 340.237 467.666 344.254 469.495 348.674C471.324 353.094 472.265 357.831 472.264 362.615Z" stroke="#1D1D1B" stroke-width="2" stroke-linecap="round" stroke-linejoin="round"/>
<path d="M421.519 366.345C421.52 375.341 419.748 384.25 416.306 392.562C412.863 400.874 407.816 408.426 401.454 414.787C395.091 421.149 387.538 426.195 379.224 429.637C370.911 433.079 362.001 434.85 353.003 434.849H269.15C293.523 421.426 310.036 395.511 310.036 365.729C310.036 336.829 294.489 311.563 271.301 297.836H352.999C375.829 297.836 396.05 308.999 408.503 326.168C416.983 337.846 421.54 351.913 421.519 366.345Z" stroke="#1D1D1B" stroke-width="2" stroke-linecap="round" stroke-linejoin="round"/>
<path d="M412.312 289.051L453.29 331.853C455.331 333.985 457.844 335.607 460.626 336.59C463.409 337.573 466.384 337.889 469.311 337.513C483.726 335.66 490.708 318.885 481.87 307.352L471.263 293.56" stroke="#1D1D1B" stroke-width="2" stroke-linecap="round" stroke-linejoin="round"/>
<path d="M626.809 362.615C626.809 372.275 622.971 381.539 616.14 388.369C609.308 395.2 600.043 399.037 590.383 399.037H567.771C573.92 387.679 576.737 374.815 575.898 361.927C575.058 349.038 570.597 336.649 563.027 326.184H590.383C595.167 326.184 599.904 327.126 604.324 328.957C608.744 330.788 612.76 333.471 616.143 336.854C619.525 340.237 622.208 344.254 624.038 348.674C625.869 353.094 626.81 357.831 626.809 362.615Z" fill="white"/>
<path d="M576.065 366.345C576.066 375.341 574.294 384.249 570.851 392.561C567.408 400.873 562.361 408.425 555.999 414.786C549.637 421.147 542.084 426.193 533.771 429.636C525.458 433.078 516.548 434.85 507.55 434.849H423.697C448.07 421.426 464.583 395.511 464.583 365.729C464.583 336.829 449.036 311.563 425.848 297.836H507.546C530.375 297.836 550.597 308.999 563.05 326.168C571.53 337.846 576.087 351.913 576.065 366.345Z" fill="white"/>
<path d="M626.809 362.615C626.809 372.275 622.971 381.539 616.14 388.369C609.308 395.2 600.043 399.037 590.383 399.037H567.771C573.92 387.679 576.737 374.815 575.898 361.927C575.058 349.038 570.597 336.649 563.027 326.184H590.383C595.167 326.184 599.904 327.126 604.324 328.957C608.744 330.788 612.76 333.471 616.143 336.854C619.525 340.237 622.208 344.254 624.038 348.674C625.869 353.094 626.81 357.831 626.809 362.615Z" stroke="#1D1D1B" stroke-width="2" stroke-linecap="round" stroke-linejoin="round"/>
<path d="M576.065 366.345C576.066 375.341 574.294 384.249 570.851 392.561C567.408 400.873 562.361 408.425 555.999 414.786C549.637 421.147 542.084 426.193 533.771 429.636C525.458 433.078 516.548 434.85 507.55 434.849H423.697C448.07 421.426 464.583 395.511 464.583 365.729C464.583 336.829 449.036 311.563 425.848 297.836H507.546C530.375 297.836 550.597 308.999 563.05 326.168C571.53 337.846 576.087 351.913 576.065 366.345Z" stroke="#1D1D1B" stroke-width="2" stroke-linecap="round" stroke-linejoin="round"/>
<path d="M282.385 276.454L293.831 331.455C294.729 335.772 297.086 339.649 300.507 342.432C303.928 345.215 308.203 346.734 312.613 346.735C315.322 346.735 318.001 346.161 320.473 345.051C322.944 343.942 325.153 342.321 326.954 340.297C328.754 338.272 330.105 335.889 330.919 333.305C331.732 330.72 331.989 327.993 331.673 325.302C329.826 302.102 327.931 279.093 322.192 268.543L282.385 276.454Z" fill="#FFB0D0"/>
<path d="M310.26 254.656C311.799 255.555 312.785 256.858 314.153 258.04C325.181 267.526 327.737 283.442 328.449 297.981" stroke="#1D1D1B" stroke-width="2" stroke-linecap="round" stroke-linejoin="round"/>
<path d="M350.465 256.074C361.476 265.56 366.096 283.446 366.812 297.981" stroke="#1D1D1B" stroke-width="2" stroke-linecap="round" stroke-linejoin="round"/>
<path d="M350.275 255.907C352.58 254.727 354.964 253.706 357.409 252.852C369.927 248.497 384.969 249.424 395.022 258.059C406.063 267.54 408.622 283.449 409.333 297.98" stroke="#1D1D1B" stroke-width="2" stroke-linecap="round" stroke-linejoin="round"/>
<path d="M282.385 276.48L293.831 331.46C294.729 335.776 297.086 339.651 300.507 342.433C303.928 345.215 308.203 346.735 312.613 346.735C315.322 346.735 318.001 346.162 320.473 345.052C322.944 343.943 325.153 342.323 326.954 340.299C328.754 338.275 330.105 335.893 330.919 333.31C331.732 330.727 331.989 328 331.673 325.31L328.461 297.991" stroke="#1D1D1B" stroke-width="2" stroke-linecap="round" stroke-linejoin="round"/>
<path d="M331.707 329.545L332.103 331.455C333.001 335.773 335.359 339.65 338.78 342.433C342.201 345.216 346.477 346.735 350.886 346.734C353.594 346.734 356.272 346.161 358.743 345.051C361.214 343.941 363.422 342.321 365.222 340.297C367.022 338.272 368.373 335.89 369.186 333.305C369.999 330.721 370.256 327.994 369.94 325.304L366.859 297.977" stroke="#1D1D1B" stroke-width="2" stroke-linecap="round" stroke-linejoin="round"/>
<path d="M271.332 297.832C259.186 290.637 245.323 286.852 231.205 286.875H198.863C155.307 286.875 120 322.177 120 365.727C120 409.278 155.307 444.582 198.863 444.582H231.205C244.484 444.603 257.552 441.255 269.184 434.851C293.557 421.427 310.071 395.511 310.071 365.727C310.071 336.827 294.523 311.559 271.332 297.832Z" fill="white"/>
<path d="M277.707 365.727C277.707 403.734 250.818 435.463 215.023 442.921C209.704 444.027 204.285 444.584 198.852 444.582C155.302 444.582 120 409.278 120 365.727C120 322.177 155.302 286.875 198.852 286.875C204.285 286.872 209.704 287.428 215.023 288.534C250.818 295.994 277.707 327.718 277.707 365.727Z" stroke="#1D1D1B" stroke-width="2" stroke-linecap="round" stroke-linejoin="round"/>
<path d="M310.069 365.727C310.069 395.511 293.56 421.438 269.179 434.851C257.545 441.255 244.477 444.603 231.197 444.582H198.852C204.286 444.584 209.705 444.027 215.025 442.92C222.657 441.331 230.008 438.611 236.836 434.851C261.209 421.427 277.723 395.511 277.723 365.727C277.723 336.827 262.171 311.557 238.984 297.832C231.565 293.436 223.472 290.295 215.03 288.534C209.71 287.428 204.29 286.872 198.856 286.875H231.197C245.316 286.852 259.18 290.637 271.327 297.832C294.52 311.559 310.069 336.827 310.069 365.727Z" stroke="#1D1D1B" stroke-width="2" stroke-linecap="round" stroke-linejoin="round"/>
<path d="M263.053 365.754C263.053 401.197 234.32 429.93 198.877 429.93C163.434 429.93 134.701 401.197 134.701 365.754C134.701 330.311 163.434 301.578 198.877 301.578C234.32 301.578 263.053 330.311 263.053 365.754Z" fill="#1D1D1B" stroke="#1D1D1B" stroke-width="2"/>
<path d="M366.863 295.43L374.356 331.458C375.254 335.776 377.612 339.654 381.032 342.437C384.453 345.22 388.727 346.739 393.135 346.739C395.843 346.739 398.52 346.165 400.99 345.055C403.461 343.945 405.668 342.325 407.467 340.3C409.267 338.275 410.617 335.892 411.43 333.308C412.242 330.723 412.499 327.996 412.182 325.305L409.338 297.974" stroke="#1D1D1B" stroke-width="2" stroke-linecap="round" stroke-linejoin="round"/>
<path d="M658.911 469.575C670.808 443.185 674.047 412.978 668.019 384.665C661.992 356.352 646.728 330.095 625.105 310.828L658.911 469.575Z" fill="#FFB0D0"/>
<path d="M658.911 469.575C670.808 443.185 674.047 412.978 668.019 384.665C661.992 356.352 646.728 330.095 625.105 310.828L658.911 469.575Z" stroke="#1D1D1B" stroke-width="2" stroke-linecap="round" stroke-linejoin="round"/>
<path d="M633.241 297.98C632.521 283.455 629.964 267.54 618.937 258.059C608.89 249.424 593.852 248.497 581.344 252.852C579.788 253.394 578.263 254.005 576.774 254.677C567.107 249.267 554.661 249.153 544.032 252.852C541.464 253.749 538.964 254.83 536.551 256.085C526.622 249.311 513.021 248.856 501.538 252.852C499.781 253.467 498.055 254.169 496.367 254.956C486.637 249.274 473.951 249.091 463.14 252.852C450.628 257.205 440.217 266.072 430.911 275.5C424.31 282.185 418.098 290.645 412.312 298.048L450.727 298.021L450.707 298.048L468.61 298.035C474.188 366.392 477.13 457.338 507.064 494.921L498.482 535.958H651.512L654.863 523.66C661.629 498.882 663.739 473.064 661.086 447.516C657.891 416.98 650.339 369.344 633.241 297.98Z" fill="#FFB0D0"/>
<path d="M496.359 254.941C497.904 255.844 499.364 256.884 500.722 258.05C511.755 267.533 514.311 283.447 515.022 297.982" stroke="#1D1D1B" stroke-width="2" stroke-linecap="round" stroke-linejoin="round"/>
<path d="M496.359 254.954C498.048 254.167 499.774 253.466 501.533 252.852C514.045 248.497 529.079 249.424 539.129 258.059C550.163 267.54 552.72 283.449 553.433 297.98" stroke="#1D1D1B" stroke-width="2" stroke-linecap="round" stroke-linejoin="round"/>
<path d="M536.898 255.907C539.203 254.727 541.585 253.707 544.028 252.852C556.536 248.497 571.565 249.424 581.61 258.059C592.64 267.54 595.196 283.449 595.909 297.98" stroke="#1D1D1B" stroke-width="2" stroke-linecap="round" stroke-linejoin="round"/>
<path d="M633.241 297.98C632.521 283.455 629.964 267.54 618.937 258.059C608.89 249.424 593.852 248.497 581.344 252.852C579.788 253.394 578.263 254.005 576.774 254.677C567.107 249.267 554.661 249.153 544.032 252.852C541.464 253.749 538.964 254.83 536.551 256.085C526.622 249.311 513.021 248.856 501.538 252.852C499.781 253.467 498.055 254.169 496.367 254.956C486.637 249.274 473.951 249.091 463.14 252.852C450.628 257.205 440.217 266.072 430.911 275.5C424.31 282.185 418.098 290.645 412.312 298.048L450.727 298.021L450.707 298.048L468.61 298.035C474.188 366.392 477.13 457.338 507.064 494.921L498.482 535.958H651.512L654.863 523.66C661.629 498.882 663.739 473.064 661.086 447.516C657.891 416.98 650.339 369.344 633.241 297.98Z" stroke="#1D1D1B" stroke-width="2" stroke-linecap="round" stroke-linejoin="round"/>
<path d="M502.105 523.479L507.882 495.898H558.425L502.105 523.479Z" fill="#1D1D1B" stroke="#1D1D1B" stroke-width="2"/>
<path d="M468.631 298.024V284.984" stroke="#1D1D1B" stroke-width="2" stroke-linecap="round" stroke-linejoin="round"/>
<path d="M425.873 297.832C413.727 290.637 399.864 286.852 385.746 286.875H353.404C309.848 286.875 274.541 322.177 274.541 365.727C274.541 409.278 309.848 444.582 353.404 444.582H385.746C399.025 444.603 412.093 441.254 423.725 434.851C448.098 421.427 464.612 395.511 464.612 365.727C464.612 336.827 449.06 311.559 425.873 297.832Z" fill="white"/>
<path d="M432.248 365.727C432.248 403.734 405.357 435.463 369.564 442.921C364.245 444.027 358.826 444.584 353.393 444.582C309.843 444.582 274.541 409.278 274.541 365.727C274.541 322.177 309.843 286.875 353.393 286.875C358.826 286.872 364.245 287.428 369.564 288.534C405.357 295.994 432.248 327.718 432.248 365.727Z" stroke="#1D1D1B" stroke-width="2" stroke-linecap="round" stroke-linejoin="round"/>
<path d="M464.61 365.727C464.61 395.511 448.101 421.438 423.72 434.851C412.086 441.254 399.018 444.603 385.738 444.582H353.393C358.827 444.584 364.246 444.027 369.566 442.92C377.197 441.331 384.547 438.611 391.375 434.851C415.75 421.427 432.264 395.511 432.264 365.727C432.264 336.827 416.712 311.557 393.525 297.832C386.107 293.436 378.014 290.294 369.573 288.534C364.253 287.429 358.833 286.872 353.399 286.875H385.744C399.863 286.852 413.727 290.637 425.875 297.832C449.057 311.559 464.61 336.827 464.61 365.727Z" stroke="#1D1D1B" stroke-width="2" stroke-linecap="round" stroke-linejoin="round"/>
<path d="M417.545 365.754C417.545 401.198 388.822 429.93 353.392 429.93C317.962 429.93 289.24 401.198 289.24 365.754C289.24 330.31 317.962 301.578 353.392 301.578C388.822 301.578 417.545 330.31 417.545 365.754Z" fill="#1D1D1B" stroke="#1D1D1B" stroke-width="2"/>
<path d="M388.311 369.749C389.961 367.358 391.106 364.655 391.676 361.807C392.245 358.959 392.228 356.025 391.625 353.183C391.021 350.342 389.845 347.654 388.167 345.282C386.489 342.91 384.344 340.905 381.865 339.39C379.385 337.874 376.623 336.879 373.746 336.467C370.869 336.054 367.937 336.231 365.131 336.988C362.325 337.746 359.703 339.067 357.425 340.87C355.147 342.674 353.261 344.923 351.881 347.48C350.492 344.902 348.587 342.637 346.285 340.826C343.984 339.014 341.334 337.695 338.5 336.95C335.667 336.205 332.71 336.049 329.814 336.493C326.918 336.938 324.144 337.972 321.665 339.532C319.185 341.093 317.053 343.145 315.401 345.563C313.749 347.981 312.612 350.713 312.06 353.589C311.508 356.464 311.554 359.422 312.194 362.279C312.835 365.137 314.056 367.832 315.782 370.198H315.767L315.938 370.396C316.587 371.268 317.3 372.09 318.071 372.855L351.877 402.201L385.375 373.134C386.449 372.126 387.416 371.009 388.26 369.802L388.313 369.742L388.311 369.749Z" fill="#E271BD"/>
<path d="M388.311 369.749C389.961 367.358 391.106 364.655 391.676 361.807C392.245 358.959 392.228 356.025 391.625 353.183C391.021 350.342 389.845 347.654 388.167 345.282C386.489 342.91 384.344 340.905 381.865 339.39C379.385 337.874 376.623 336.879 373.746 336.467C370.869 336.054 367.937 336.231 365.131 336.988C362.325 337.746 359.703 339.067 357.425 340.87C355.147 342.674 353.261 344.923 351.881 347.48C350.492 344.902 348.587 342.637 346.285 340.826C343.984 339.014 341.334 337.695 338.5 336.95C335.667 336.205 332.71 336.049 329.814 336.493C326.918 336.938 324.144 337.972 321.665 339.532C319.185 341.093 317.053 343.145 315.401 345.563C313.749 347.981 312.612 350.713 312.06 353.589C311.508 356.464 311.554 359.422 312.194 362.279C312.835 365.137 314.056 367.832 315.782 370.198H315.767L315.938 370.396C316.587 371.268 317.3 372.09 318.071 372.855L351.877 402.201L385.375 373.134C386.449 372.126 387.416 371.009 388.26 369.802L388.313 369.742L388.311 369.749Z" fill="#F24EB6"/>
<path d="M232.603 369.741C234.26 367.35 235.412 364.646 235.988 361.795C236.564 358.944 236.551 356.005 235.951 353.159C235.35 350.313 234.175 347.619 232.497 345.243C230.818 342.867 228.672 340.858 226.19 339.34C223.707 337.822 220.941 336.827 218.06 336.415C215.18 336.003 212.245 336.183 209.437 336.944C206.628 337.706 204.004 339.032 201.727 340.842C199.449 342.653 197.565 344.909 196.19 347.473C194.801 344.895 192.897 342.63 190.596 340.818C188.295 339.007 185.645 337.688 182.813 336.942C179.98 336.197 177.024 336.042 174.129 336.486C171.234 336.93 168.461 337.965 165.982 339.525C163.503 341.085 161.372 343.138 159.72 345.556C158.069 347.974 156.932 350.705 156.38 353.581C155.829 356.456 155.875 359.414 156.515 362.272C157.155 365.129 158.376 367.824 160.101 370.19H160.086L160.258 370.388C160.906 371.26 161.618 372.082 162.39 372.847L196.19 402.202L229.678 373.135C230.752 372.126 231.72 371.009 232.565 369.802L232.616 369.743L232.603 369.741Z" fill="#E271BD"/>
<path d="M232.603 369.741C234.26 367.35 235.412 364.646 235.988 361.795C236.564 358.944 236.551 356.005 235.951 353.159C235.35 350.313 234.175 347.619 232.497 345.243C230.818 342.867 228.672 340.858 226.19 339.34C223.707 337.822 220.941 336.827 218.06 336.415C215.18 336.003 212.245 336.183 209.437 336.944C206.628 337.706 204.004 339.032 201.727 340.842C199.449 342.653 197.565 344.909 196.19 347.473C194.801 344.895 192.897 342.63 190.596 340.818C188.295 339.007 185.645 337.688 182.813 336.942C179.98 336.197 177.024 336.042 174.129 336.486C171.234 336.93 168.461 337.965 165.982 339.525C163.503 341.085 161.372 343.138 159.72 345.556C158.069 347.974 156.932 350.705 156.38 353.581C155.829 356.456 155.875 359.414 156.515 362.272C157.155 365.129 158.376 367.824 160.101 370.19H160.086L160.258 370.388C160.906 371.26 161.618 372.082 162.39 372.847L196.19 402.202L229.678 373.135C230.752 372.126 231.72 371.009 232.565 369.802L232.616 369.743L232.603 369.741Z" fill="#F24EB6"/>
<path fill-rule="evenodd" clip-rule="evenodd" d="M206.042 197.793C206.042 197.241 205.594 196.793 205.042 196.793C204.49 196.793 204.042 197.241 204.042 197.793L204.042 226.299L188.519 211.811C188.116 211.435 187.483 211.456 187.106 211.86C186.729 212.264 186.751 212.897 187.155 213.274L203.587 228.61L203.459 228.747H175.549C174.997 228.747 174.549 229.195 174.549 229.747C174.549 230.3 174.997 230.747 175.549 230.747H201.592L187.106 246.268C186.729 246.672 186.751 247.305 187.155 247.682C187.559 248.059 188.191 248.037 188.568 247.633L204.042 231.054V259.242C204.042 259.794 204.49 260.242 205.042 260.242C205.594 260.242 206.042 259.794 206.042 259.242V230.902L224.024 247.685C224.428 248.062 225.061 248.04 225.438 247.636C225.814 247.233 225.793 246.6 225.389 246.223L208.808 230.747L236.998 230.747C237.55 230.747 237.998 230.3 237.998 229.747C237.998 229.195 237.55 228.747 236.998 228.747L206.665 228.747L206.414 228.513L222.98 210.764C223.357 210.36 223.335 209.727 222.931 209.35C222.527 208.973 221.894 208.995 221.518 209.399L206.042 225.98V197.793Z" fill="white"/>
<path d="M174.454 502.273L172.189 491.451L161.479 488.702L172.3 486.437L175.049 475.727L177.314 486.552L188.025 489.301L177.199 491.562L174.454 502.273Z" fill="white"/>
<path d="M702.792 367.89L699.819 354.363L685.764 350.927L699.969 348.096L703.577 334.707L706.546 348.239L720.605 351.67L706.4 354.501L702.792 367.89Z" fill="white"/>
<path d="M456.426 233.499L453.595 219.967L440.211 216.536L453.738 213.705L457.174 200.316L460.005 213.843L473.393 217.279L459.862 220.11L456.426 233.499Z" fill="white"/>
<path d="M151.76 469.245L150.416 462.791L144.049 461.154L150.482 459.804L152.116 453.418L153.462 459.87L159.829 461.509L153.394 462.859L151.76 469.245Z" fill="white"/>
<path d="M460.45 498.459C461.531 496.98 462.3 495.296 462.709 493.51C463.117 491.724 463.158 489.873 462.828 488.071C462.497 486.269 461.803 484.553 460.788 483.028C459.772 481.502 458.457 480.2 456.921 479.201C455.386 478.201 453.663 477.525 451.858 477.214C450.052 476.902 448.202 476.962 446.421 477.39C444.639 477.817 442.963 478.603 441.496 479.7C440.028 480.797 438.8 482.181 437.885 483.769C437.056 482.115 435.897 480.651 434.478 479.465C433.059 478.279 431.411 477.398 429.638 476.876C427.864 476.354 426.002 476.203 424.167 476.432C422.332 476.66 420.564 477.264 418.973 478.205C417.381 479.146 416 480.405 414.916 481.902C413.831 483.4 413.066 485.105 412.669 486.911C412.271 488.717 412.249 490.585 412.605 492.4C412.96 494.214 413.685 495.937 414.734 497.459L414.837 497.587C415.231 498.148 415.666 498.679 416.139 499.175L436.925 518.283L458.541 500.542C459.236 499.926 459.866 499.239 460.419 498.492L460.452 498.457L460.45 498.459Z" fill="white" stroke="white" stroke-width="2" stroke-linecap="round" stroke-linejoin="round"/>
<path d="M519.357 209.486C519.91 208.717 520.302 207.844 520.508 206.92C520.714 205.996 520.73 205.039 520.556 204.109C520.381 203.178 520.02 202.292 519.493 201.505C518.967 200.718 518.286 200.046 517.491 199.529C516.697 199.013 515.807 198.662 514.873 198.5C513.94 198.337 512.983 198.365 512.061 198.582C511.138 198.799 510.27 199.201 509.507 199.763C508.745 200.325 508.104 201.036 507.624 201.852C507.193 200.995 506.59 200.235 505.853 199.621C505.115 199.006 504.259 198.55 503.338 198.279C502.416 198.009 501.449 197.931 500.496 198.05C499.544 198.169 498.625 198.482 497.799 198.971C496.972 199.459 496.255 200.112 495.692 200.889C495.128 201.666 494.731 202.551 494.524 203.488C494.317 204.425 494.305 205.394 494.489 206.336C494.673 207.277 495.048 208.171 495.592 208.962L495.645 209.03C495.85 209.321 496.076 209.597 496.321 209.855L507.127 219.776L518.366 210.563C518.728 210.243 519.055 209.886 519.344 209.499L519.359 209.479L519.357 209.486Z" fill="white" stroke="white" stroke-width="2" stroke-linecap="round" stroke-linejoin="round"/>
<defs>
<filter id="filter0_f_3604_14338" x="0.65625" y="130.363" width="595.637" height="595.637" filterUnits="userSpaceOnUse" color-interpolation-filters="sRGB">
<feFlood flood-opacity="0" result="BackgroundImageFix"/>
<feBlend mode="normal" in="SourceGraphic" in2="BackgroundImageFix" result="shape"/>
<feGaussianBlur stdDeviation="62" result="effect1_foregroundBlur_3604_14338"/>
</filter>
<filter id="filter1_f_3604_14338" x="144.986" y="0" width="640.643" height="640.645" filterUnits="userSpaceOnUse" color-interpolation-filters="sRGB">
<feFlood flood-opacity="0" result="BackgroundImageFix"/>
<feBlend mode="normal" in="SourceGraphic" in2="BackgroundImageFix" result="shape"/>
<feGaussianBlur stdDeviation="62" result="effect1_foregroundBlur_3604_14338"/>
</filter>
</defs>
</svg>
