<svg width="451" height="416" viewBox="0 0 451 416" fill="none" xmlns="http://www.w3.org/2000/svg">
<path d="M316.13 391.145C316.031 391.145 315.934 391.111 315.855 391.05C315.777 390.988 315.721 390.902 315.697 390.805C315.673 390.708 315.682 390.606 315.722 390.515C315.763 390.424 315.832 390.349 315.921 390.302C331.241 382.169 340.223 372.123 342.637 360.451C346.032 344.026 334.982 329.975 334.871 329.835C334.795 329.742 334.76 329.624 334.772 329.505C334.784 329.387 334.843 329.278 334.936 329.202C335.028 329.127 335.147 329.092 335.266 329.104C335.384 329.116 335.493 329.175 335.569 329.268C335.684 329.411 346.993 343.794 343.513 360.625C341.054 372.57 331.901 382.819 316.34 391.077C316.277 391.117 316.205 391.141 316.13 391.145Z" fill="#0A0517"/>
<path d="M340.441 382.636C340.347 382.636 340.256 382.607 340.18 382.553C340.104 382.499 340.047 382.423 340.016 382.334C339.986 382.246 339.984 382.15 340.011 382.061C340.038 381.971 340.092 381.893 340.166 381.836C358.248 367.892 351.276 347.87 351.205 347.669C351.185 347.614 351.176 347.556 351.178 347.497C351.181 347.438 351.195 347.381 351.22 347.328C351.245 347.275 351.28 347.227 351.323 347.187C351.366 347.148 351.417 347.117 351.472 347.097C351.527 347.077 351.586 347.068 351.644 347.071C351.703 347.073 351.761 347.088 351.814 347.112C351.867 347.137 351.915 347.172 351.954 347.216C351.994 347.259 352.024 347.31 352.044 347.365C352.122 347.577 353.917 352.621 353.44 359.515C353.001 365.884 350.435 375.048 340.713 382.543C340.635 382.603 340.539 382.636 340.441 382.636Z" fill="#0A0517"/>
<path d="M145.749 348.966C141.902 370.772 134.31 391.124 128.265 405.005C116.947 404.844 80.2606 402.803 86.3264 383.083C93.4854 359.819 117.196 386.662 117.196 386.662C117.196 386.662 98.8495 350.424 114.961 344.162C129.992 338.313 129.438 371.447 129.299 375.885C129.54 371.264 131.696 335.272 140.909 336.108C144.215 336.409 145.498 341.858 145.749 348.966Z" fill="#0A0517"/>
<path d="M435.075 0C440.278 0 444.59 4.03374 444.937 9.22528L447.785 51.8493C449.771 81.5762 435.236 111.241 405.757 115.551C317.174 128.524 59.033 155.367 135.535 179.079C206.535 201.086 346.366 281.314 282.981 416.112H123.139C137.671 386.37 185.406 273.709 91.6921 243.501C-16.5746 208.606 17.4256 104.813 108.246 92.2861C187.799 81.3134 388.601 66.2484 423.17 7.65039C425.726 3.31919 430.046 0 435.075 0Z" fill="#FDAB96"/>
<path d="M51.8742 211.514C51.7632 211.514 51.6562 211.473 51.5735 211.399C37.7188 198.825 33.4934 184.051 32.3888 173.871C31.1916 162.844 33.3024 154.664 33.3232 154.579C33.3535 154.464 33.4282 154.366 33.5307 154.307C33.6332 154.247 33.7552 154.231 33.8698 154.261C33.9844 154.291 34.0823 154.366 34.1419 154.468C34.2015 154.571 34.2179 154.693 34.1876 154.808C34.1668 154.887 32.0957 162.941 33.2816 173.805C34.3748 183.83 38.5416 198.358 52.175 210.733C52.2419 210.794 52.2889 210.873 52.3098 210.961C52.3306 211.049 52.3244 211.141 52.2918 211.225C52.2592 211.309 52.2019 211.382 52.1273 211.433C52.0528 211.484 51.9645 211.511 51.8742 211.51V211.514Z" fill="#0A0517"/>
<path d="M47.8498 193.096C47.7801 193.096 47.7113 193.08 47.649 193.049C47.5866 193.017 47.5323 192.972 47.4904 192.916C39.8869 182.777 39.6524 173.94 39.6524 173.567C39.6514 173.509 39.662 173.45 39.6835 173.396C39.705 173.341 39.737 173.292 39.7778 173.249C39.8185 173.207 39.8672 173.173 39.921 173.15C39.9747 173.127 40.0326 173.114 40.0912 173.113C40.2095 173.112 40.3235 173.158 40.4087 173.24C40.4939 173.322 40.5436 173.434 40.5471 173.552C40.5471 173.641 40.7929 182.487 48.213 192.379C48.2635 192.446 48.2944 192.525 48.3023 192.608C48.3101 192.691 48.2945 192.774 48.2573 192.849C48.2201 192.924 48.1628 192.986 48.0917 193.03C48.0207 193.074 47.9389 193.097 47.8555 193.096H47.8498Z" fill="#0A0517"/>
<path d="M366.387 56.7228C366.277 56.7217 366.17 56.6798 366.089 56.6051C366.007 56.5305 365.956 56.4283 365.946 56.3183C365.935 56.2083 365.965 56.0982 366.03 56.0091C366.096 55.9201 366.192 55.8583 366.3 55.8357C383.251 52.4312 403.983 40.3507 404.189 40.2296C404.292 40.1694 404.414 40.1525 404.529 40.1824C404.644 40.2124 404.743 40.2869 404.803 40.3895C404.863 40.4921 404.88 40.6144 404.85 40.7295C404.82 40.8446 404.746 40.943 404.643 41.0032C404.433 41.1243 383.576 53.271 366.476 56.7134C366.447 56.7194 366.417 56.7226 366.387 56.7228Z" fill="#0A0517"/>
<path d="M284.273 48.5549C271.156 44.9271 257.659 41.8517 244.162 39.4061C235.461 32.6764 221.425 20.1136 230.829 15.1959C243.95 8.33385 255.287 34.2822 255.287 34.2822C255.287 34.2822 254.093 5.04656 268.703 8.3225C283.146 11.5663 272.537 33.7432 272.296 34.2614C272.883 33.8945 296.836 18.8709 304.5 27.4126C309.958 33.5048 294.121 43.2929 284.273 48.5549Z" fill="#0A0517"/>
<path d="M30.7009 353.259C30.6356 353.26 30.5709 353.246 30.5117 353.219C30.4525 353.191 30.4001 353.151 30.3585 353.1C30.3203 353.056 30.2914 353.004 30.2734 352.948C30.2553 352.892 30.2486 352.833 30.2535 352.774C30.2584 352.716 30.2749 352.659 30.302 352.607C30.3292 352.555 30.3664 352.508 30.4115 352.471C56.7022 330.318 93.0779 313.207 93.443 313.036C93.5494 312.994 93.6683 312.993 93.775 313.035C93.8818 313.077 93.9683 313.159 94.0168 313.263C94.0653 313.367 94.0721 313.485 94.0357 313.594C93.9993 313.703 93.9226 313.794 93.8213 313.848C93.4581 314.018 57.1826 331.081 30.9883 353.153C30.9084 353.222 30.8063 353.26 30.7009 353.259Z" fill="#0A0517"/>
<path d="M41.2909 333.426C41.1935 333.426 41.0986 333.394 41.0208 333.336C40.9429 333.277 40.8862 333.195 40.8593 333.101C40.8323 333.008 40.8366 332.908 40.8715 332.817C40.9064 332.726 40.9699 332.649 41.0526 332.597C52.4105 325.52 68.934 315.837 69.1004 315.741C69.2027 315.681 69.3247 315.664 69.4394 315.694C69.5542 315.724 69.6523 315.799 69.7123 315.901C69.7722 316.003 69.7891 316.125 69.7591 316.24C69.7291 316.355 69.6548 316.453 69.5525 316.513C69.386 316.609 52.872 326.284 41.5273 333.358C41.4563 333.402 41.3744 333.425 41.2909 333.426Z" fill="#0A0517"/>
<path d="M69.2843 104.698C52.3258 113.778 39.4642 126.663 31.8777 141.119C22.5189 137.745 -10.3596 124.435 3.25862 108.244C13.8506 95.6644 22.2901 106.213 26.7122 114.562C22.8821 104.142 19.226 86.3548 36.6649 81.997C61.1776 75.8669 45.4335 108.855 44.745 110.281C45.4789 108.957 61.3517 80.2777 70.9657 83.1905C76.536 84.8776 73.2165 95.6644 69.2843 104.698Z" fill="#0A0517"/>
<path d="M421.3 261.991C418.142 261.041 414.9 260.095 411.575 259.154C388.625 252.689 366.332 246.637 344.694 240.997C336.292 229.542 316.648 198.046 340.887 181.767C359.485 169.283 363.099 190.883 363.168 209.084C365.248 189.542 370.813 163.142 385.626 161.186C409.337 158.054 390.099 232.321 390.099 232.321C390.099 232.321 415.153 192.951 433.496 205.478C446.282 214.206 431.455 244.463 421.3 261.991Z" fill="#0A0517"/>
<path d="M197.031 249.06C197.031 249.06 196.906 250.496 194.606 250.724C194.606 250.724 195.818 251.502 196.238 252.678C196.353 252.986 196.397 253.316 196.368 253.643C196.339 253.97 196.237 254.287 196.07 254.57C195.88 254.931 195.607 255.243 195.273 255.478C194.118 256.27 192.686 255.576 192.574 255.523C193.07 256.077 193.332 256.802 193.304 257.545C193.268 257.918 193.147 258.277 192.951 258.596C191.967 260.202 189.546 259.816 189.546 259.816C189.546 259.816 190.522 262.926 187.819 263.446C185.116 263.966 178.313 261.808 169.945 254.222C168.284 253.089 166.704 251.842 165.217 250.49L165.188 250.53C163.842 249.255 162.278 247.747 160.594 246.109C160.443 245.962 160.29 245.81 160.135 245.667C153.624 239.306 145.571 231.082 142.342 226.242C136.794 217.969 143.885 209.397 154.258 199.951L164.313 190.846C164.793 190.411 165.151 190.089 165.342 189.9L165.446 189.806C177.763 178.531 185.359 176.344 186.603 176.044C186.722 176.013 186.792 176.004 186.792 176.004H186.819C186.921 176.004 187.008 176.119 187.074 176.342C187.452 177.528 187.36 181.652 186.872 186.919C186.845 187.169 186.626 195.052 186.442 201.793C186.429 202.255 186.416 202.707 186.403 203.153C186.282 207.632 186.183 211.286 186.183 211.286L185.741 211.529C182.89 213.093 167.258 221.706 167.227 222.153C167.254 222.815 170.931 226.681 174.515 230.286L174.967 230.734C175.987 231.763 176.998 232.765 177.893 233.651L178.81 234.545C180.134 235.852 181.269 236.966 181.269 236.966L181.61 237.146C182.151 237.437 183.287 238.092 184.719 238.948C189.595 241.884 197.804 247.248 197.031 249.06Z" fill="#FE5122"/>
<path d="M166.023 222.012C166.096 222.017 166.168 221.997 166.227 221.956C166.286 221.914 166.33 221.854 166.35 221.784C166.37 221.715 166.366 221.64 166.339 221.573C166.311 221.506 166.261 221.451 166.198 221.416C166.15 221.392 161.363 218.768 157.179 217.859C157.138 217.85 157.096 217.849 157.055 217.857C157.014 217.864 156.975 217.88 156.94 217.903C156.905 217.926 156.875 217.955 156.851 217.989C156.827 218.024 156.811 218.063 156.802 218.103C156.793 218.144 156.793 218.186 156.8 218.228C156.808 218.269 156.823 218.308 156.846 218.343C156.869 218.378 156.898 218.408 156.933 218.432C156.967 218.455 157.006 218.472 157.047 218.481C161.136 219.368 165.846 221.948 165.891 221.972C165.932 221.995 165.977 222.009 166.023 222.012Z" fill="#0A0517"/>
<path d="M160.137 245.668L160.593 246.111L174.956 230.749C174.807 230.596 174.653 230.448 174.506 230.297L160.137 245.668Z" fill="#0A0517"/>
<path d="M192.728 250.342C192.682 250.34 192.638 250.325 192.599 250.301L182.601 244.072C182.538 244.033 182.493 243.97 182.476 243.897C182.459 243.825 182.471 243.748 182.51 243.685C182.53 243.653 182.555 243.626 182.586 243.604C182.616 243.582 182.65 243.567 182.686 243.558C182.722 243.55 182.76 243.549 182.797 243.555C182.833 243.561 182.868 243.574 182.9 243.594L192.898 249.822C192.951 249.856 192.992 249.906 193.014 249.965C193.035 250.024 193.036 250.089 193.017 250.149C192.997 250.209 192.958 250.261 192.906 250.296C192.853 250.331 192.791 250.347 192.728 250.342Z" fill="#0A0517"/>
<path d="M189.951 254.707C189.906 254.704 189.861 254.691 189.822 254.667L181.279 249.413C181.215 249.374 181.17 249.311 181.152 249.238C181.135 249.165 181.147 249.089 181.186 249.025C181.225 248.961 181.288 248.916 181.361 248.898C181.434 248.881 181.51 248.893 181.574 248.932L190.117 254.187C190.179 254.225 190.223 254.286 190.241 254.357C190.258 254.427 190.248 254.502 190.212 254.565C190.186 254.61 190.148 254.648 190.102 254.673C190.056 254.698 190.003 254.71 189.951 254.707Z" fill="#0A0517"/>
<path d="M187.779 259.703C187.738 259.701 187.698 259.689 187.662 259.669L179.081 254.92C179.048 254.902 179.02 254.878 178.997 254.849C178.974 254.82 178.957 254.786 178.946 254.751C178.936 254.715 178.933 254.678 178.937 254.641C178.942 254.604 178.953 254.568 178.971 254.536C178.989 254.503 179.013 254.475 179.042 254.452C179.071 254.429 179.105 254.412 179.14 254.401C179.176 254.391 179.213 254.388 179.25 254.392C179.287 254.397 179.323 254.408 179.355 254.426L187.936 259.174C187.992 259.205 188.035 259.255 188.059 259.314C188.083 259.374 188.086 259.439 188.068 259.501C188.05 259.562 188.011 259.615 187.959 259.652C187.906 259.689 187.843 259.707 187.779 259.703Z" fill="#0A0517"/>
<path d="M252.074 257.897L195.271 255.476L184.111 255.001L184.724 238.955L185.498 218.563L185.602 215.834L185.727 211.531L185.972 203.196L186.012 201.836L186.769 176.15V175.999H186.795L188.388 175.641L204.323 172.07C204.323 172.07 207.813 175.806 213.969 175.439C216.757 175.272 220.251 176.006 223.928 172.133L243.171 172.933C243.23 172.938 243.288 172.949 243.345 172.965L243.784 177.287L243.961 179.04L247.411 212.885L247.587 214.599L249.187 230.341L249.411 232.448L251.302 250.606L251.444 251.996L252.074 257.897Z" fill="#FE5122"/>
<path d="M206.793 393.534C206.751 393.75 206.706 393.964 206.67 394.168C206.303 396.016 205.972 397.344 205.972 397.344H163.4C163.343 396.282 163.401 395.217 163.572 394.168C163.606 393.951 163.648 393.742 163.693 393.534C165.452 385.36 174.096 383.491 174.096 383.491C184.459 381.497 206.742 383.228 206.742 383.228C208.229 384.289 207.508 389.721 206.793 393.534Z" fill="#FE5122"/>
<path d="M206.793 393.535C206.751 393.751 206.706 393.965 206.67 394.169H163.572C163.606 393.951 163.648 393.743 163.693 393.535H206.793Z" fill="#0A0517"/>
<path d="M234.439 393.531C234.481 393.747 234.526 393.96 234.562 394.165C234.929 396.013 235.26 397.34 235.26 397.34H277.834C277.89 396.279 277.832 395.214 277.662 394.165C277.626 393.947 277.584 393.739 277.541 393.531C275.782 385.356 268.057 383.648 268.057 383.648C257.694 381.655 234.411 383.234 234.411 383.234C232.93 384.295 233.724 389.718 234.439 393.531Z" fill="#FE5122"/>
<path d="M234.438 393.535C234.479 393.751 234.525 393.965 234.56 394.169H277.66C277.624 393.951 277.583 393.743 277.539 393.535H234.438Z" fill="#0A0517"/>
<path d="M268.056 383.649L234.41 383.237C234.41 383.237 233.653 378.616 232.463 371.542C232.359 370.933 232.257 370.307 232.146 369.664C230.691 361.087 228.686 349.532 226.589 338.267C226.396 337.239 226.206 336.213 226.021 335.189C222.492 316.485 218.834 299.453 217.198 299.453C215.378 299.453 212.747 320.614 210.578 341.664C210.515 342.28 210.453 342.893 210.389 343.512C209.579 351.514 208.836 359.411 208.24 366.019C208.196 366.485 208.155 366.941 208.115 367.393C207.279 376.738 206.751 383.212 206.751 383.212L174.105 383.475L184.13 254.986C184.13 254.986 229.428 254.04 252.087 257.885L268.056 383.649Z" fill="#FE5122"/>
<path d="M216.852 297.726C216.882 297.726 216.912 297.721 216.94 297.712C216.978 297.701 217.013 297.681 217.043 297.656C217.073 297.63 217.098 297.599 217.116 297.563C217.133 297.528 217.144 297.49 217.146 297.45C217.148 297.411 217.143 297.371 217.13 297.334L213.655 286.458C213.643 286.421 213.623 286.387 213.597 286.357C213.572 286.327 213.54 286.303 213.505 286.285C213.47 286.268 213.432 286.257 213.393 286.255C213.353 286.252 213.314 286.257 213.277 286.269C213.239 286.282 213.205 286.301 213.175 286.327C213.146 286.353 213.121 286.384 213.104 286.419C213.086 286.454 213.076 286.493 213.073 286.532C213.07 286.571 213.075 286.61 213.088 286.648L216.56 297.521C216.58 297.582 216.619 297.635 216.672 297.672C216.724 297.709 216.787 297.728 216.852 297.726Z" fill="#0A0517"/>
<path d="M252.076 258.214H252.061L184.106 255.316C184.065 255.315 184.024 255.305 183.987 255.288C183.949 255.271 183.916 255.246 183.888 255.216C183.86 255.186 183.838 255.15 183.824 255.112C183.81 255.073 183.803 255.032 183.805 254.991C183.806 254.949 183.816 254.909 183.833 254.871C183.851 254.834 183.875 254.8 183.906 254.773C183.936 254.745 183.972 254.723 184.011 254.709C184.05 254.696 184.091 254.69 184.132 254.692L252.087 257.588C252.166 257.595 252.239 257.632 252.292 257.692C252.344 257.751 252.373 257.828 252.371 257.907C252.369 257.986 252.338 258.062 252.283 258.119C252.228 258.175 252.153 258.209 252.074 258.214H252.076Z" fill="#0A0517"/>
<path d="M174.103 383.807C174.02 383.807 173.94 383.774 173.881 383.715C173.822 383.656 173.789 383.576 173.789 383.493C173.789 383.41 173.822 383.33 173.881 383.271C173.94 383.212 174.02 383.179 174.103 383.179L206.749 382.918C206.832 382.918 206.912 382.951 206.971 383.01C207.03 383.069 207.063 383.149 207.063 383.232C207.063 383.315 207.03 383.395 206.971 383.454C206.912 383.513 206.832 383.546 206.749 383.546L174.105 383.807H174.103Z" fill="#0A0517"/>
<path d="M268.058 383.957L234.412 383.544C234.371 383.544 234.33 383.535 234.292 383.519C234.254 383.503 234.22 383.479 234.191 383.45C234.162 383.42 234.139 383.385 234.124 383.347C234.109 383.309 234.101 383.268 234.102 383.226C234.101 383.185 234.109 383.144 234.125 383.106C234.141 383.068 234.165 383.033 234.195 383.004C234.224 382.976 234.26 382.953 234.298 382.938C234.337 382.924 234.378 382.917 234.419 382.918L268.066 383.33C268.145 383.337 268.218 383.372 268.272 383.43C268.326 383.488 268.355 383.564 268.355 383.644C268.355 383.723 268.326 383.799 268.272 383.857C268.218 383.915 268.145 383.95 268.066 383.957H268.058Z" fill="#0A0517"/>
<path d="M197.398 333.396C201.245 333.585 206.744 339.231 210.377 343.517C210.439 342.899 210.502 342.286 210.566 341.669C206.798 337.37 201.487 332.252 197.462 332.059C196.811 332.009 196.157 332.115 195.554 332.369C194.952 332.622 194.419 333.016 193.999 333.517C191.066 336.869 193.963 343.701 197.655 348.983C197.905 349.341 198.187 349.727 198.488 350.129C195.221 350.844 192.246 352.759 191.856 355.359C191.414 358.299 193.992 362.687 208.105 367.408C208.145 366.956 208.187 366.5 208.23 366.034C194.045 361.242 192.94 357.171 193.186 355.56C193.504 353.456 196.424 351.82 199.428 351.319C201.62 353.999 204.451 356.727 206.106 356.093C206.908 355.779 207.22 354.894 207.033 353.445C206.742 351.204 204.644 349.851 201.423 349.812C200.946 349.808 200.469 349.831 199.995 349.88C195.63 344.304 192.533 337.232 195.017 334.4C195.306 334.056 195.672 333.786 196.086 333.611C196.5 333.437 196.95 333.363 197.398 333.396ZM201.402 351.158C202.596 351.172 205.41 351.435 205.692 353.617C205.826 354.627 205.616 354.837 205.616 354.837C205.299 355.004 203.591 354.126 201.035 351.157L201.402 351.158Z" fill="white"/>
<path d="M223.947 172.137H223.918L223.162 160.008L203.58 161.356L204.336 172.069L191.416 176.253C191.416 176.253 199.963 185.831 216.02 184.833C232.076 183.834 236.021 175.355 236.021 175.355L223.947 172.137Z" fill="#FE5122"/>
<path d="M215.031 174.375C211.337 174.341 207.678 173.658 204.22 172.357C204.149 172.322 204.093 172.261 204.065 172.186C204.037 172.112 204.038 172.029 204.069 171.955C204.099 171.882 204.157 171.822 204.23 171.79C204.302 171.757 204.385 171.753 204.46 171.779C204.566 171.824 215.156 176.146 223.81 171.854C223.885 171.817 223.972 171.812 224.051 171.839C224.13 171.866 224.195 171.924 224.232 171.999C224.269 172.074 224.275 172.161 224.247 172.24C224.22 172.319 224.163 172.385 224.088 172.422C221.127 173.884 217.954 174.375 215.031 174.375Z" fill="#0A0517"/>
<path d="M231.799 157.742L253.79 170.142L286.391 160.117C286.391 160.117 281.242 151.122 242.035 137.438C242.035 137.438 233.84 149.072 231.799 157.742Z" fill="#FE5122"/>
<path d="M244.446 138.205C244.447 138.251 244.437 138.297 244.418 138.339L234.622 159.349C234.605 159.387 234.58 159.42 234.55 159.448C234.519 159.476 234.484 159.497 234.445 159.511C234.406 159.525 234.365 159.531 234.324 159.529C234.283 159.527 234.243 159.517 234.206 159.499C234.131 159.463 234.073 159.4 234.044 159.322C234.016 159.244 234.02 159.158 234.054 159.083L243.85 138.073C243.88 138.008 243.931 137.955 243.995 137.923C244.058 137.892 244.131 137.883 244.201 137.898C244.27 137.913 244.333 137.952 244.377 138.007C244.422 138.063 244.446 138.132 244.446 138.203V138.205Z" fill="#0A0517"/>
<path d="M279.383 186.088C274.592 190.718 265.198 195.924 257.632 199.697C257.225 199.904 256.822 200.104 256.423 200.297C250.679 203.134 246.268 205.025 246.268 205.025C246.268 205.025 241.7 186.599 241.678 177.687C241.678 177.199 241.691 176.741 241.717 176.308C241.852 174.237 242.34 172.949 243.359 172.966L253.779 170.14C253.779 170.14 280.904 153.993 286.38 160.104C291.855 166.215 288.186 177.588 279.383 186.088Z" fill="#FE5122"/>
<path d="M246.424 204.001C246.344 204 246.268 203.969 246.21 203.915C246.152 203.86 246.117 203.785 246.111 203.706L245.143 187.226C245.138 187.143 245.167 187.062 245.222 187C245.276 186.938 245.354 186.9 245.436 186.895C245.519 186.891 245.6 186.92 245.662 186.975C245.725 187.03 245.763 187.107 245.769 187.19L246.738 203.668C246.74 203.709 246.734 203.75 246.721 203.789C246.708 203.828 246.686 203.864 246.659 203.895C246.632 203.926 246.598 203.951 246.561 203.969C246.524 203.986 246.484 203.997 246.442 203.999L246.424 204.001Z" fill="#0A0517"/>
<path d="M255.298 170.298C255.223 170.297 255.15 170.269 255.093 170.218C255.037 170.168 255.001 170.099 254.991 170.024C254.981 169.949 254.999 169.873 255.041 169.81C255.083 169.747 255.146 169.701 255.219 169.681C255.542 169.596 263.21 167.58 265.847 167.882C265.89 167.884 265.932 167.895 265.971 167.913C266.01 167.932 266.045 167.959 266.073 167.991C266.101 168.024 266.122 168.062 266.135 168.104C266.148 168.145 266.152 168.188 266.147 168.231C266.142 168.274 266.128 168.316 266.107 168.353C266.085 168.391 266.056 168.423 266.021 168.449C265.987 168.474 265.947 168.493 265.905 168.502C265.863 168.512 265.819 168.513 265.777 168.505C263.252 168.217 255.457 170.266 255.374 170.286C255.349 170.294 255.324 170.297 255.298 170.298Z" fill="#0A0517"/>
<path d="M183.492 262.496H183.477C183.394 262.491 183.316 262.454 183.261 262.393C183.205 262.331 183.176 262.25 183.18 262.167L184.347 239.909C184.353 239.826 184.391 239.75 184.452 239.694C184.513 239.639 184.594 239.61 184.676 239.614C184.759 239.618 184.837 239.655 184.893 239.717C184.948 239.778 184.977 239.86 184.973 239.943L183.799 262.199C183.794 262.278 183.76 262.352 183.704 262.407C183.647 262.463 183.571 262.494 183.492 262.496Z" fill="#0A0517"/>
<path d="M185.583 211.07C185.661 211.065 185.734 211.032 185.789 210.977C185.843 210.922 185.876 210.849 185.88 210.771L186.972 193.559C186.976 193.516 186.972 193.473 186.96 193.432C186.947 193.391 186.926 193.353 186.899 193.32C186.871 193.287 186.837 193.26 186.798 193.241C186.76 193.221 186.718 193.21 186.675 193.208C186.632 193.205 186.589 193.211 186.548 193.226C186.508 193.24 186.471 193.263 186.439 193.292C186.408 193.322 186.383 193.357 186.365 193.397C186.348 193.436 186.339 193.478 186.338 193.521L185.247 210.733C185.244 210.775 185.249 210.817 185.263 210.857C185.276 210.896 185.297 210.933 185.325 210.964C185.353 210.996 185.386 211.021 185.424 211.04C185.461 211.058 185.502 211.069 185.544 211.072L185.583 211.07Z" fill="#0A0517"/>
<path d="M210.879 136.698C210.879 136.698 220.215 131.024 212.084 127.54C212.084 127.54 215.799 112.471 201.815 119.407C201.815 119.407 182.309 113.025 184.921 128.953C184.921 128.953 179.221 131.401 183.302 137.012C183.302 137.012 181.6 145.963 191.155 143.833C191.155 143.833 196.852 146.886 200.953 141.387L210.879 136.698Z" fill="#FE5122"/>
<path d="M210.64 140.833C210.64 140.833 202.264 141.841 201.962 151.085C201.659 160.328 204.68 169.271 213.817 168.349C223.628 167.362 224.787 159.52 223.388 149.066C221.988 138.613 212.586 140.455 210.64 140.833Z" fill="#FE5122"/>
<path d="M202.503 151.669C202.503 151.669 199.356 149.07 198.079 152.199C196.803 155.327 201.342 160.039 202.704 156.908L202.503 151.669Z" fill="#FE5122"/>
<path d="M222.809 147.873C222.809 147.873 225.604 144.9 227.263 147.845C228.922 150.789 225.006 156.031 223.263 153.095L222.809 147.873Z" fill="#FE5122"/>
<path d="M201.993 151.347C201.993 151.347 203.09 153.499 204.219 151.232C205.348 148.964 204.837 144.812 208.758 145.34C212.679 145.867 214.208 146.125 216.956 145.026C219.704 143.927 222.343 145.642 223.161 147.674C223.161 147.674 228.24 134.398 212.129 135.9C196.018 137.401 199.36 147.125 201.993 151.347Z" fill="#FE5122"/>
<path d="M212.177 163.239C210.505 163.254 208.869 162.759 207.485 161.821C203.202 158.938 202 152.742 201.941 152.485C201.926 152.403 201.943 152.319 201.99 152.25C202.037 152.182 202.109 152.135 202.191 152.119C202.272 152.104 202.356 152.122 202.425 152.169C202.493 152.216 202.54 152.288 202.556 152.369C202.567 152.432 203.774 158.569 207.836 161.302C209.637 162.515 211.752 162.887 214.116 162.411C223.354 160.548 222.525 149.657 222.516 149.549C222.515 149.47 222.544 149.393 222.597 149.334C222.65 149.275 222.724 149.238 222.803 149.232C222.882 149.225 222.961 149.248 223.024 149.298C223.086 149.347 223.128 149.418 223.14 149.496C223.149 149.611 224.019 161.056 214.25 163.027C213.568 163.167 212.874 163.238 212.177 163.239Z" fill="#0A0517"/>
<path d="M200.31 142.076C200.259 142.075 200.21 142.062 200.166 142.039C200.121 142.015 200.083 141.981 200.055 141.94C200.026 141.899 200.007 141.851 200.001 141.802C199.994 141.752 199.999 141.701 200.016 141.654C200.1 141.433 202.131 136.235 211.253 135.707C211.336 135.704 211.416 135.734 211.478 135.789C211.539 135.843 211.578 135.92 211.584 136.002C211.589 136.085 211.56 136.167 211.505 136.229C211.45 136.291 211.372 136.328 211.289 136.333C202.602 136.834 200.623 141.818 200.605 141.871C200.582 141.931 200.542 141.983 200.489 142.019C200.436 142.056 200.374 142.076 200.31 142.076Z" fill="#0A0517"/>
<path d="M196.375 129.251C196.335 129.251 196.295 129.244 196.258 129.229C193.08 127.937 188.314 128.85 188.27 128.85C188.192 128.86 188.112 128.839 188.048 128.792C187.985 128.745 187.941 128.676 187.926 128.598C187.911 128.521 187.925 128.44 187.967 128.373C188.009 128.306 188.075 128.257 188.151 128.236C188.353 128.196 193.146 127.29 196.492 128.644C196.559 128.672 196.613 128.722 196.647 128.786C196.681 128.849 196.692 128.923 196.679 128.994C196.665 129.064 196.627 129.128 196.572 129.175C196.517 129.221 196.447 129.247 196.375 129.248V129.251Z" fill="#0A0517"/>
<path d="M242.035 137.439C241.327 138.883 240.618 140.322 239.892 141.756C238.241 145.005 236.506 148.209 234.872 151.466C233.877 153.446 232.98 155.739 231.804 157.738C231.513 157.63 231.237 157.526 231.01 157.428C230.232 157.104 229.771 156.86 229.771 156.86C229.771 156.86 228.921 156.408 227.775 155.871C226.816 156.25 219.181 159.225 217.541 157.33C216.241 155.826 217.791 154.09 220.896 153.299C217.412 151.937 208.349 147.678 208.952 144.963C208.952 144.963 209.453 143.429 210.928 143.842C210.739 143.74 208.267 142.459 208.848 140.626C209.444 138.707 212.15 138.468 213.503 138.873C213.503 138.873 212.048 136.762 212.812 135.397C213.576 134.031 215.878 133.904 216.919 134.477C216.919 134.477 216.291 131.073 220.134 131.406C223.977 131.739 234.13 132.694 239.952 136.306C240.662 136.666 241.361 137.048 242.035 137.439Z" fill="#FE5122"/>
<path d="M223.791 157.452C223.755 157.272 223.737 157.09 223.736 156.907C222.315 157.31 220.772 157.641 219.556 157.641C218.67 157.641 218.069 157.465 217.772 157.121C217.42 156.714 217.309 156.29 217.443 155.861C217.73 154.946 219.081 154.079 220.969 153.601L221.914 153.359L221.006 153.005C215.988 151.042 208.782 147.142 209.246 145.061C209.246 145.052 209.575 144.085 210.441 144.085C210.576 144.086 210.71 144.106 210.84 144.144L211.829 144.185L211.073 143.563C210.666 143.351 208.671 142.22 209.141 140.711C209.665 139.022 212.12 138.78 213.409 139.166L214.262 139.423L213.757 138.689C213.465 138.267 212.894 137.2 212.904 136.283C212.687 136.233 212.479 136.15 212.287 136.039C212.198 136.907 212.569 137.83 212.875 138.422C211.305 138.233 209.107 138.706 208.544 140.524C208.124 141.87 209.079 142.928 209.89 143.55C208.998 143.851 208.669 144.825 208.646 144.897C207.978 147.904 217.127 152.048 219.96 153.251C218.296 153.818 217.159 154.7 216.851 155.678C216.65 156.319 216.807 156.96 217.305 157.535C217.727 158.023 218.485 158.271 219.561 158.271C220.81 158.271 222.368 157.942 223.811 157.541C223.8 157.509 223.796 157.48 223.791 157.452Z" fill="#0A0517"/>
<path d="M221.567 148.906C221.537 148.866 221.497 148.837 221.45 148.821C219.464 148.085 212.462 144.48 212.435 144.47C212.408 144.451 212.376 144.438 212.343 144.431C212.31 144.424 212.276 144.424 212.243 144.431C212.21 144.437 212.178 144.45 212.15 144.469C212.122 144.488 212.098 144.512 212.08 144.54C212.045 144.596 212.033 144.662 212.046 144.726C212.059 144.79 212.096 144.847 212.15 144.885C212.259 144.96 219.227 148.543 221.27 149.297C221.322 149.316 221.379 149.318 221.432 149.303C221.485 149.287 221.532 149.254 221.565 149.21C221.598 149.165 221.616 149.111 221.616 149.056C221.616 149 221.598 148.946 221.565 148.902L221.567 148.906Z" fill="#0A0517"/>
<path d="M224.604 144.245C224.578 144.209 224.543 144.181 224.502 144.164C222.975 143.492 215.254 139.74 215.222 139.719C215.163 139.687 215.093 139.679 215.027 139.697C214.962 139.716 214.907 139.759 214.872 139.817C214.839 139.877 214.831 139.947 214.849 140.012C214.867 140.077 214.91 140.133 214.969 140.167C215.107 140.245 222.746 143.95 224.295 144.633C224.346 144.653 224.402 144.657 224.455 144.644C224.508 144.63 224.555 144.6 224.589 144.558C224.624 144.515 224.644 144.463 224.646 144.408C224.649 144.354 224.634 144.3 224.604 144.255V144.245Z" fill="#0A0517"/>
<path d="M226.446 139.054C226.414 139.009 226.367 138.977 226.314 138.963C225.417 138.698 218.336 135.053 218.309 135.034C218.253 135.002 218.185 134.992 218.121 135.007C218.058 135.022 218.002 135.061 217.966 135.116C217.93 135.171 217.916 135.237 217.928 135.302C217.939 135.367 217.975 135.424 218.028 135.464C218.143 135.539 225.198 139.167 226.161 139.453C226.225 139.471 226.295 139.464 226.354 139.432C226.413 139.399 226.457 139.345 226.477 139.281C226.49 139.243 226.494 139.203 226.489 139.163C226.484 139.124 226.469 139.086 226.446 139.054Z" fill="#0A0517"/>
<path d="M243.803 177.284C243.164 176.853 242.463 176.524 241.723 176.308C241.288 176.184 240.838 176.121 240.386 176.119H240.297C237.04 176.181 234.377 179.393 232.198 185.916C231.708 185.488 231.178 185.108 230.615 184.782C228.156 183.372 225.519 183.471 222.799 185.077C221.698 185.74 220.682 186.536 219.773 187.445C218.466 183.425 216.45 179.713 213.389 179.034C210.785 178.466 207.944 180.168 204.942 184.129C202.461 187.399 200.187 190.82 198.133 194.373C196.858 187.587 194.398 181.364 190.403 177.35C189.783 176.727 189.116 176.153 188.407 175.633L186.805 175.996H186.779C186.779 175.996 186.715 176.005 186.59 176.036C186.647 176.072 186.709 176.108 186.768 176.147C186.866 176.206 186.957 176.268 187.055 176.336C187.919 176.91 188.722 177.569 189.453 178.303C193.533 182.393 195.935 189.085 197.059 196.272C194.018 201.77 191.538 207.56 189.654 213.554C186.979 222.254 186.628 229.029 188.769 230.815C189.682 231.572 191.351 231.848 194.12 228.823C198.209 224.363 200.477 209.697 198.494 196.48C200.722 192.455 203.234 188.595 206.011 184.927C208.672 181.424 211.057 179.877 213.102 180.329C215.313 180.817 217.263 183.694 218.721 188.534C213.643 194.229 210.189 203.512 208.405 209.26C205.067 220.021 203.242 231.957 203.639 240.404C203.913 246.179 205.179 249.642 207.411 250.69C207.869 250.903 208.369 251.013 208.875 251.012C209.992 251.012 211.241 250.501 212.591 249.481C222.497 242.014 224.708 209.145 220.9 191.644C220.711 190.749 220.48 189.822 220.219 188.888C221.182 187.852 222.282 186.954 223.49 186.217C225.799 184.855 227.915 184.763 229.96 185.93C230.615 186.313 231.22 186.778 231.759 187.312C231.654 187.657 231.553 188.007 231.454 188.364C223.889 215.122 223.109 237.352 229.584 242.426C230.885 243.446 233.132 244.261 236.455 242.368C241.783 239.341 242.373 227.134 242.379 222.026C242.396 209.041 239.23 193.522 233.274 186.955C235.275 180.696 237.645 177.498 240.335 177.449H240.401C240.841 177.452 241.278 177.527 241.694 177.672C242.534 177.98 243.311 178.438 243.989 179.022C248.494 182.712 253.17 192.247 256.44 200.282C256.84 200.089 257.243 199.889 257.649 199.682C254.361 191.627 249.181 180.804 243.803 177.284ZM193.113 227.929C191.534 229.65 190.259 230.331 189.614 229.79C187.258 227.821 189.302 213.978 197.36 198.581C198.818 210.845 196.766 223.943 193.119 227.929H193.113ZM220.552 224.335C219.115 236.518 215.916 245.29 211.774 248.413C210.225 249.58 208.937 249.939 207.97 249.478C206.268 248.681 205.205 245.438 204.969 240.346C204.294 225.96 210.195 200.874 219.141 190.096C219.294 190.683 219.439 191.296 219.576 191.935C221.502 200.772 221.876 213.187 220.558 224.344L220.552 224.335ZM241.023 222.031C241.01 232.177 239.05 239.349 235.78 241.21C233.628 242.432 231.808 242.489 230.397 241.375C225.29 237.371 224.448 218.001 232.729 188.737C232.756 188.651 232.778 188.566 232.801 188.481C238.027 194.959 241.048 209.55 241.029 222.041L241.023 222.031Z" fill="white"/>
<path d="M229.687 87.7651C230.512 85.7728 231.986 84.0188 234.111 82.5032C236.236 80.9875 238.803 80.0651 241.813 79.736C244.823 79.4094 247.964 79.9214 251.236 81.2719C254.277 82.5328 256.731 84.2042 258.596 86.286C260.46 88.3678 261.628 90.6375 262.098 93.0951C262.579 95.4715 262.336 97.9373 261.402 100.175C260.665 101.959 259.656 103.372 258.376 104.415C257.166 105.417 255.811 106.23 254.357 106.825C252.958 107.39 250.493 108.291 246.959 109.53C246.133 109.821 245.324 110.158 244.535 110.538C243.994 110.795 243.486 111.116 243.022 111.495C242.657 111.802 242.324 112.146 242.029 112.52C241.743 112.879 241.272 113.524 240.619 114.461C239.316 116.478 237.613 117.052 235.513 116.184C235 115.988 234.532 115.692 234.135 115.313C233.739 114.934 233.422 114.479 233.203 113.976C232.752 112.958 232.815 111.745 233.392 110.337C234.121 108.572 235.025 107.158 236.103 106.095C237.141 105.06 238.352 104.214 239.681 103.596C241.342 102.851 243.04 102.194 244.769 101.627C246.593 101.009 247.932 100.523 248.775 100.173C249.615 99.8257 250.403 99.3629 251.115 98.7977C251.824 98.235 252.375 97.4988 252.715 96.6604C253.059 95.8643 253.227 95.0031 253.207 94.136C253.187 93.2689 252.98 92.4164 252.6 91.6368C251.828 89.9699 250.456 88.7278 248.484 87.9107C246.178 86.9575 244.238 86.8364 242.666 87.5476C241.094 88.2588 239.461 89.5928 237.769 91.5498C236.076 93.6291 234.233 94.2546 232.24 93.4261C231.681 93.2078 231.174 92.8752 230.75 92.4495C230.327 92.0239 229.997 91.5145 229.782 90.954C229.319 89.799 229.287 88.736 229.687 87.7651ZM230.786 128.62C229.546 128.128 228.534 127.19 227.949 125.991C227.335 124.768 227.335 123.411 227.949 121.92C228.192 121.293 228.564 120.723 229.039 120.247C229.515 119.772 230.085 119.4 230.712 119.157C231.342 118.899 232.017 118.771 232.697 118.78C233.377 118.789 234.049 118.935 234.671 119.21C235.292 119.457 235.857 119.825 236.333 120.294C236.809 120.763 237.186 121.323 237.443 121.94C237.699 122.557 237.829 123.219 237.825 123.887C237.821 124.555 237.683 125.216 237.419 125.83C236.813 127.299 235.867 128.257 234.582 128.705C233.352 129.162 231.994 129.131 230.786 128.62Z" fill="white"/>
</svg>
