<svg width="524" height="382" viewBox="0 0 524 382" fill="none" xmlns="http://www.w3.org/2000/svg">
<path d="M260.965 377.258C404.866 377.258 521.522 358.872 521.522 336.192C521.522 313.511 404.866 295.125 260.965 295.125C117.063 295.125 0.408203 313.511 0.408203 336.192C0.408203 358.872 117.063 377.258 260.965 377.258Z" fill="#FE5122"/>
<path d="M260.977 377.686C191.358 377.686 125.903 373.412 76.671 365.653C48.0361 361.139 0 351.31 0 336.198C0 321.087 48.0361 311.258 76.671 306.744C125.903 298.985 191.358 294.711 260.977 294.711C330.596 294.711 396.051 298.985 445.283 306.744C473.918 311.258 521.954 321.084 521.954 336.198C521.954 351.313 473.918 361.139 445.283 365.653C396.04 373.41 330.585 377.686 260.977 377.686ZM260.977 295.55C191.401 295.55 125.992 299.821 76.7921 307.572C28.5163 315.181 0.829371 325.614 0.829371 336.198C0.829371 346.783 28.5136 357.221 76.7921 364.822C125.983 372.576 191.393 376.847 260.977 376.847C330.561 376.847 395.962 372.576 445.162 364.822C493.438 357.213 521.124 346.78 521.124 336.198C521.124 325.617 493.438 315.181 445.162 307.572C395.952 299.821 330.542 295.55 260.977 295.55Z" fill="#242426"/>
<path d="M181.135 49.72C180.603 47.8716 182.218 46.1219 183.772 44.9882C185.326 43.8546 187.155 42.5793 187.295 40.6755C187.436 38.7717 185.754 37.1452 185.05 35.3091C184.243 33.1959 184.781 30.7992 185.662 28.7044C186.543 26.6097 187.711 24.6381 188.244 22.4386C189.431 17.5097 186.965 12.1557 183.117 8.84103C179.269 5.52635 174.246 3.91214 169.266 2.95101C164.287 1.98987 158.976 2.08845 154.076 0.800781C158.944 3.12384 162.714 7.2748 164.58 12.364C166.445 17.4533 166.256 23.0758 164.054 28.0267C163.228 29.875 162.139 31.6063 161.442 33.5039C160.744 35.4016 160.475 37.5888 161.326 39.4248C162.696 42.4006 166.306 43.4048 169.45 44.2612C172.595 45.1176 176.18 46.7257 176.791 49.9048C178.076 49.6584 179.85 49.9479 181.135 49.72Z" fill="#E79052"/>
<path d="M176.82 50.9865C176.599 50.9864 176.385 50.9096 176.214 50.7693C176.044 50.629 175.927 50.4339 175.884 50.2171C175.447 48.0568 173.187 46.4073 169.159 45.2933C165.944 44.4255 161.935 43.3361 160.365 39.9448C159.269 37.5998 159.805 35.021 160.451 33.2915C160.904 32.1388 161.431 31.0163 162.028 29.931C162.397 29.2108 162.773 28.4969 163.105 27.7583C165.221 23.0407 165.402 17.6827 163.61 12.8331C161.819 7.9835 158.198 4.02841 153.523 1.81588C153.314 1.70953 153.151 1.53036 153.065 1.31217C152.979 1.09399 152.976 0.851878 153.056 0.631527C153.136 0.411176 153.295 0.227821 153.501 0.116056C153.707 0.00429009 153.947 -0.0281571 154.176 0.0248386C156.981 0.675926 159.833 1.10806 162.705 1.31735C164.928 1.53276 167.225 1.75433 169.442 2.17901C175.816 3.40997 180.386 5.34258 183.822 8.27841C188.342 12.1436 190.492 17.8491 189.291 22.8099C188.859 24.3402 188.269 25.8212 187.53 27.229C187.215 27.8937 186.914 28.5523 186.618 29.2232C185.633 31.5866 185.436 33.5684 186.002 35.1071C186.262 35.7113 186.573 36.2921 186.932 36.8428C187.64 37.9999 188.447 39.3047 188.33 40.8865C188.152 43.1945 186.144 44.647 184.524 45.8103C183.551 46.5181 181.648 48.0876 182.061 49.6017C182.103 49.7324 182.115 49.8705 182.099 50.0066C182.082 50.1428 182.036 50.2737 181.964 50.3906C181.892 50.5074 181.796 50.6074 181.682 50.6837C181.568 50.7599 181.439 50.8107 181.303 50.8326C180.517 50.932 179.724 50.9629 178.932 50.9249C178.267 50.8865 177.599 50.9091 176.937 50.9926L176.82 50.9865ZM178.193 48.98H179.025C179.401 48.98 179.776 48.98 180.133 48.98C180.189 47.4044 181.273 45.798 183.286 44.3455C184.857 43.2068 186.366 42.1421 186.44 40.7141C186.513 39.7602 185.959 38.8677 185.325 37.8152C184.903 37.1678 184.54 36.484 184.241 35.7718C183.465 33.7592 183.668 31.2973 184.857 28.4661C185.146 27.7645 185.473 27.069 185.805 26.3858C186.472 25.0971 187.006 23.7443 187.4 22.3483C188.423 18.1384 186.47 13.0607 182.547 9.71247C179.376 7.00437 175.09 5.20102 169.054 4.04392C166.924 3.63155 164.67 3.42844 162.49 3.20071C161.258 3.07761 159.934 2.95452 158.647 2.78834C162.386 5.7896 165.025 9.9452 166.149 14.6048C167.273 19.2644 166.82 24.1651 164.861 28.54C164.516 29.3155 164.122 30.0664 163.734 30.8172C163.173 31.8304 162.68 32.879 162.256 33.9562C161.831 35.101 161.246 37.2982 162.108 39.1385C163.34 41.7174 166.683 42.6406 169.664 43.4469C174.043 44.6347 176.629 46.4504 177.535 48.9862C177.744 48.98 177.966 48.98 178.193 48.98Z" fill="#242426"/>
<path d="M265.746 185.794C271.29 188.724 266.734 186.317 265.525 185.451C264.577 184.768 263.656 183.735 262.671 183.05C262.482 182.839 262.288 182.634 262.105 182.421C261.16 181.32 260.271 180.174 259.412 178.997C259.104 178.544 258.828 178.069 258.588 177.575C258.734 177.915 258.906 178.32 259.108 178.8C258.543 177.451 257.632 176.181 256.97 174.875C255.602 172.177 254.388 169.406 253.267 166.597C248.173 153.806 244.874 140.37 240 127.492C229.315 99.2707 210.746 71.8966 181.468 60.8724C171.701 57.195 159.156 61.6198 155.51 71.9559C151.977 81.9764 156.14 94.0365 166.574 97.9649C168.042 98.518 169.49 99.1007 170.915 99.759C171.259 99.9182 171.599 100.094 171.941 100.261C172.924 101.124 174.558 101.793 175.584 102.506C176.869 103.405 178.126 104.342 179.354 105.317C180.431 106.18 181.452 107.092 182.486 108.015C182.806 108.344 183.132 108.673 183.447 109.008C185.608 111.323 187.641 113.755 189.538 116.293C190.488 117.552 191.405 118.841 192.29 120.161C192.732 120.816 193.165 121.477 193.591 122.145L193.779 122.447C195.228 125.126 197.737 130.077 198.026 130.684C201.257 137.475 203.925 144.514 206.373 151.623C210.644 164.093 213.816 177.065 219.49 189.01C226.491 203.768 236.379 215.256 250.86 222.908C255.169 225.185 262.1 224.526 266.362 222.654C270.754 220.714 275.192 216.449 276.818 211.824C280.72 200.711 275.634 191.022 265.746 185.794Z" fill="#F24EB6"/>
<path d="M257.723 224.76C255.178 224.76 252.671 224.315 250.654 223.249C236.849 215.951 226.53 204.803 219.103 189.16C215.164 180.871 212.39 171.962 209.706 163.348C208.515 159.525 207.282 155.569 205.968 151.73C203.127 143.444 200.483 136.804 197.647 130.834C197.378 130.248 194.847 125.27 193.414 122.616L193.237 122.346C192.815 121.687 192.384 121.031 191.944 120.376C191.053 119.057 190.129 117.759 189.206 116.523C187.318 113.994 185.294 111.57 183.141 109.263C182.91 109.015 182.676 108.772 182.439 108.532L181.827 107.96C180.941 107.18 180.026 106.373 179.092 105.623C177.869 104.641 176.614 103.702 175.359 102.831C174.898 102.528 174.422 102.247 173.932 101.992C173.151 101.6 172.412 101.131 171.724 100.592L171.415 100.441C171.194 100.333 170.976 100.222 170.755 100.119C169.511 99.5448 168.14 98.9782 166.446 98.3388C156.386 94.5615 151.31 82.6444 155.137 71.7956C156.766 67.1766 160.269 63.4155 165.006 61.2059C170.214 58.7776 176.431 58.5078 181.636 60.4585C199.433 67.1739 224.088 84.2146 240.406 127.34C242.689 133.367 244.655 139.616 246.559 145.657C248.713 152.529 250.961 159.638 253.67 166.431C254.89 169.491 256.094 172.186 257.359 174.677C257.629 175.195 257.936 175.726 258.24 176.239C258.423 176.552 258.609 176.867 258.778 177.191C258.858 177.232 258.923 177.297 258.964 177.377C259.193 177.851 259.457 178.307 259.753 178.743C260.618 179.949 261.512 181.09 262.408 182.137C262.519 182.266 262.634 182.39 262.748 182.514L262.936 182.725C263.46 183.112 263.96 183.531 264.433 183.979C264.854 184.377 265.297 184.752 265.758 185.102C266.297 185.48 267.516 186.181 268.182 186.564C268.346 186.656 268.48 186.734 268.588 186.807C268.774 186.934 268.857 187.042 268.857 187.179C277.404 193.05 280.595 202.288 277.189 211.934C275.6 216.437 271.308 220.888 266.507 223.009C263.723 224.168 260.737 224.763 257.723 224.76ZM174.312 60.0133C171.219 60.0109 168.162 60.6811 165.353 61.9775C160.824 64.0928 157.474 67.6811 155.928 72.087C152.256 82.5068 157.105 93.941 166.743 97.5617C168.461 98.2093 169.85 98.7839 171.116 99.3694C171.342 99.4746 171.568 99.5879 171.794 99.6986L172.147 99.8739C172.181 99.8905 172.213 99.9113 172.241 99.936C172.895 100.449 173.599 100.894 174.342 101.266C174.858 101.535 175.359 101.83 175.844 102.151C177.115 103.033 178.386 103.986 179.614 104.979C180.562 105.742 181.485 106.554 182.377 107.339L183.034 107.955C183.276 108.2 183.516 108.448 183.75 108.699C185.923 111.021 187.967 113.461 189.873 116.008C190.808 117.252 191.739 118.56 192.636 119.893C193.08 120.552 193.516 121.215 193.945 121.884L194.098 122.127L194.149 122.214C195.622 124.941 198.116 129.862 198.404 130.47C201.256 136.47 203.908 143.15 206.752 151.455C208.071 155.305 209.304 159.279 210.497 163.097C213.174 171.682 215.939 180.561 219.849 188.798C227.198 204.269 237.398 215.295 251.039 222.505C255.181 224.693 261.985 224.086 266.175 222.235C270.707 220.233 274.913 215.881 276.408 211.648C280.032 201.376 275.869 191.607 265.545 186.151C265.483 186.118 265.429 186.069 265.391 186.009C265.352 185.949 265.329 185.88 265.325 185.809L265.279 185.776C264.79 185.409 264.323 185.015 263.878 184.595C263.42 184.16 262.936 183.755 262.427 183.38C262.4 183.362 262.376 183.34 262.354 183.316L262.139 183.076C262.018 182.946 261.897 182.806 261.784 182.679C260.868 181.6 259.961 180.453 259.091 179.226C259.084 179.22 259.078 179.212 259.075 179.204C259.002 179.195 258.932 179.167 258.874 179.122C258.815 179.078 258.769 179.018 258.741 178.95C258.741 178.95 258.741 178.95 258.741 178.929C258.385 178.148 257.98 177.39 257.529 176.66C257.219 176.136 256.899 175.58 256.624 175.041C255.348 172.529 254.131 169.809 252.903 166.726C250.183 159.897 247.94 152.774 245.77 145.886C243.871 139.856 241.908 133.621 239.633 127.615C223.42 84.7893 198.988 67.8835 181.348 61.2436C179.095 60.4145 176.712 59.9978 174.312 60.0133Z" fill="#242426"/>
<path d="M258.598 177.561C257.521 175.041 257.909 176.212 258.598 177.561V177.561Z" fill="#FC328E"/>
<path d="M258.6 177.997C258.523 177.997 258.446 177.976 258.38 177.936C258.314 177.895 258.261 177.837 258.226 177.768C257.396 176.127 257.45 176.046 257.582 175.855C257.625 175.792 257.683 175.743 257.751 175.711C257.819 175.679 257.895 175.666 257.97 175.674C258.239 175.701 258.239 175.701 258.985 177.412C259.014 177.475 259.026 177.545 259.02 177.615C259.014 177.685 258.991 177.752 258.953 177.81C258.915 177.869 258.862 177.916 258.8 177.949C258.739 177.982 258.67 177.998 258.6 177.997Z" fill="#242426"/>
<path d="M180.074 48.4752C179.896 48.6917 179.67 48.8606 179.415 48.9675C179.16 49.0744 178.883 49.1159 178.609 49.0886C178.334 49.0613 178.071 48.9659 177.84 48.8107C177.61 48.6555 177.42 48.445 177.286 48.1976C176.896 47.5178 176.394 46.9125 175.802 46.4084C174.439 45.2301 172.798 44.4959 171.297 43.4595C169.795 42.423 168.485 40.9115 168.359 39.0854C168.227 37.1173 169.512 35.3837 170.876 33.9771C172.24 32.5705 173.814 31.3058 174.535 29.4797C175.568 26.8638 174.595 24.0012 173.333 21.4101C173.22 21.1702 173.162 20.9068 173.163 20.6401C173.165 20.3735 173.226 20.1108 173.342 19.8722C173.458 19.6337 173.626 19.4258 173.833 19.2646C174.04 19.1034 174.28 18.9931 174.535 18.9423C175.157 18.8316 175.795 18.8662 176.403 19.0435C177.01 19.2208 177.571 19.5362 178.043 19.9665C179.509 21.3669 180.037 23.557 179.995 25.6115C179.953 27.6659 179.395 29.6771 179.058 31.7006C178.722 33.7242 178.578 35.8711 179.305 37.7898C180.031 39.7085 181.479 41.1521 181.966 43.0831C182.44 45.1129 181.401 46.8218 180.074 48.4752Z" fill="#FDDC68"/>
<path d="M178.844 49.9151H178.612C178.174 49.8772 177.751 49.7331 177.38 49.4952C177.009 49.2572 176.7 48.9324 176.48 48.5483C176.139 47.966 175.701 47.4474 175.185 47.0154C174.38 46.3774 173.521 45.8109 172.619 45.3224C171.959 44.9407 171.299 44.559 170.676 44.128C168.617 42.6998 167.408 40.8959 167.279 39.0428C167.151 37.1898 168.074 35.2259 170.12 33.2004C170.365 32.9542 170.621 32.7079 170.872 32.4678C172.02 31.372 173.095 30.3377 173.627 29.0325C174.592 26.6377 173.486 23.8919 172.405 21.7679C172.211 21.3868 172.111 20.9648 172.111 20.5367C172.111 20.1085 172.211 19.6865 172.405 19.3054C172.588 18.9312 172.858 18.6071 173.192 18.3606C173.526 18.1141 173.914 17.9524 174.323 17.8894C175.097 17.7515 175.891 17.7905 176.647 18.0036C177.403 18.2168 178.102 18.5985 178.692 19.1207C180.225 20.5613 181.038 22.8145 180.976 25.4803C180.905 27.0037 180.7 28.5179 180.366 30.0052C180.249 30.5655 180.139 31.1319 180.042 31.6982C179.62 34.1054 179.681 35.823 180.237 37.239C180.563 37.9882 180.954 38.7071 181.404 39.3876C182.094 40.3774 182.626 41.4701 182.98 42.6259C183.628 45.1192 182.369 47.1077 180.915 48.8869C180.671 49.2066 180.358 49.4656 179.999 49.6438C179.639 49.8221 179.245 49.9149 178.844 49.9151ZM175.179 19.7486C174.988 19.7498 174.798 19.7662 174.611 19.7979C174.503 19.8175 174.402 19.8623 174.315 19.9286C174.228 19.9949 174.158 20.0809 174.11 20.1796C174.054 20.2936 174.025 20.4189 174.025 20.5459C174.025 20.6729 174.054 20.7982 174.11 20.9122C175.362 23.3748 176.639 26.65 175.386 29.759C174.702 31.452 173.419 32.6771 172.179 33.8653L171.452 34.5671C169.827 36.1801 169.088 37.6022 169.179 38.9136C169.295 40.6127 170.841 41.924 171.751 42.552C172.362 42.9583 172.973 43.3154 173.584 43.6663C174.584 44.2109 175.535 44.8434 176.425 45.5563C177.112 46.1297 177.695 46.8192 178.148 47.5941C178.209 47.7079 178.297 47.8052 178.403 47.8781C178.509 47.9509 178.631 47.9971 178.759 48.0127C178.875 48.0195 178.99 47.9985 179.097 47.9514C179.203 47.9043 179.296 47.8325 179.37 47.7419C180.677 46.1412 181.465 44.7498 181.062 43.18C180.752 42.2157 180.299 41.3045 179.718 40.4773C179.197 39.7014 178.751 38.8768 178.386 38.0147C177.506 35.7245 177.775 33.2928 178.087 31.4212C178.191 30.8425 178.307 30.2576 178.423 29.6789C178.75 28.3047 178.954 26.9036 179.034 25.4926C179.083 23.4117 178.472 21.6264 177.354 20.5674C176.758 20.0277 175.986 19.7294 175.185 19.7302L175.179 19.7486Z" fill="#242426"/>
<path d="M184.749 49.2368L174.373 50.7701C174.098 50.8108 173.908 51.0672 173.948 51.3429L174.972 58.2933C175.012 58.569 175.268 58.7595 175.543 58.7189L185.919 57.1855C186.194 57.1449 186.385 56.8884 186.344 56.6128L185.321 49.6623C185.28 49.3866 185.024 49.1961 184.749 49.2368Z" fill="#242426"/>
<path d="M174.866 55.6219C175.129 53.5961 173.703 51.7403 171.682 51.4768C169.66 51.2133 167.807 52.642 167.544 54.6678C167.282 56.6937 168.707 58.5495 170.729 58.813C172.751 59.0765 174.603 57.6478 174.866 55.6219Z" fill="#242426"/>
<path d="M246.572 248.59C239.98 224.432 222.989 201.787 200.378 190.499C192.765 186.697 184.585 183.816 175.957 183.921C166.705 184.034 158.355 187.345 151.116 192.948C139.317 202.081 132.194 215.787 126.631 229.342C120.874 243.372 117.583 266.844 115.954 281.872C115.416 286.729 118.604 292.967 121.908 296.28C125.436 299.812 131.222 302.485 136.287 302.245C156.402 301.341 156.634 271.946 160.124 257.709C162.135 249.504 166.379 226.158 177.543 225.268C190.522 224.235 201.856 243.002 205.222 253.411C204.988 252.626 204.764 251.838 204.527 251.056C208.329 263.51 217.032 278.621 232.37 273.649C242.867 270.247 249.583 259.603 246.572 248.59Z" fill="#F24EB6"/>
<path d="M135.67 302.679C130.872 302.679 125.298 300.278 121.6 296.576C118.245 293.212 114.976 286.901 115.526 281.829C117.314 265.358 120.62 242.856 126.232 229.183C131.136 217.233 138.366 202.281 150.849 192.616C158.518 186.681 166.96 183.613 175.94 183.5C183.467 183.397 191.316 185.51 200.552 190.121C222.312 200.999 240.095 223.347 246.97 248.484C249.908 259.236 243.55 270.468 232.494 274.053C227.671 275.618 223.158 275.33 219.076 273.198C211.614 269.302 207.228 260.194 204.963 253.751C204.895 253.698 204.845 253.627 204.817 253.546C203.35 249.01 199.812 241.515 194.66 235.323C190.748 230.621 184.6 225.136 177.572 225.691C167.765 226.474 163.301 245.816 161.146 255.1C160.915 256.114 160.702 257.026 160.514 257.798C159.851 260.496 159.302 263.774 158.72 267.241C156.27 281.867 152.912 301.9 136.289 302.647C136.087 302.674 135.877 302.679 135.67 302.679ZM176.42 184.336H175.951C167.157 184.447 158.882 187.455 151.361 193.277C139.033 202.82 131.871 217.646 127.008 229.498C121.434 243.088 118.14 265.503 116.371 281.918C115.868 286.559 118.943 292.71 122.206 295.983C125.85 299.631 131.631 302.035 136.271 301.827C152.217 301.109 155.376 282.263 157.912 267.122C158.497 263.631 159.049 260.337 159.719 257.609C159.908 256.837 160.118 255.928 160.352 254.911C162.687 244.707 167.081 225.681 177.497 224.85C190.093 223.849 200.628 240.619 204.651 250.662C204.713 250.683 204.77 250.718 204.817 250.765C204.863 250.812 204.899 250.869 204.92 250.931C206.805 257.115 211.21 268.137 219.461 272.445C223.336 274.469 227.633 274.739 232.232 273.255C242.863 269.809 248.979 259.025 246.159 248.703C239.352 223.795 221.733 201.636 200.181 190.876C191.259 186.43 183.69 184.336 176.42 184.336Z" fill="#242426"/>
<path d="M168.107 60.1048C169.513 58.6128 168.479 55.8905 166.596 55.0811C164.714 54.2717 162.511 54.8976 160.737 55.9202C155.287 59.0526 152.389 66.0782 154.07 72.1488C154.299 72.9852 155.036 73.9241 155.874 74.1534C156.711 74.3827 157.597 74.2559 158.445 74.0913C161.798 73.433 165.15 72.0813 167.41 69.5047C169.669 66.9281 169.801 63.0753 168.107 60.1048Z" fill="#F24EB6"/>
<path d="M156.868 74.7037C156.494 74.7075 156.121 74.6603 155.759 74.5634C154.728 74.2936 153.909 73.1686 153.661 72.2647C151.935 65.9837 154.881 58.8151 160.536 55.5613C161.85 54.8031 164.411 53.6726 166.77 54.7006C167.362 54.976 167.883 55.3867 168.288 55.8997C168.694 56.4127 168.975 57.0138 169.107 57.6549C169.211 58.0839 169.222 58.5306 169.136 58.9639C169.051 59.3972 168.873 59.8067 168.614 60.1641C170.3 63.3559 169.961 67.2788 167.726 69.8041C165.671 72.1352 162.577 73.719 158.527 74.5122C157.982 74.6294 157.426 74.6936 156.868 74.7037ZM164.715 55.135C163.226 55.135 161.793 55.7987 160.945 56.2897C155.624 59.3466 152.843 66.1186 154.483 72.0408C154.668 72.718 155.29 73.5625 155.993 73.754C156.771 73.9672 157.63 73.8296 158.376 73.6839C162.24 72.9284 165.176 71.4337 167.106 69.2429C169.155 66.9145 169.422 63.2452 167.753 60.3179C167.708 60.2397 167.69 60.1492 167.701 60.0599C167.711 59.9705 167.75 59.887 167.812 59.8214C168.05 59.5545 168.219 59.2321 168.302 58.8836C168.385 58.535 168.381 58.1712 168.288 57.8249C168.182 57.3169 167.959 56.8404 167.639 56.4324C167.319 56.0243 166.909 55.6958 166.441 55.4722C165.895 55.2421 165.308 55.1273 164.715 55.135Z" fill="#242426"/>
<path d="M193.21 108.07L176.394 110.555C176.254 110.575 176.113 110.538 175.999 110.454C175.886 110.37 175.81 110.244 175.788 110.105L168.009 57.2611C167.99 57.1207 168.026 56.9782 168.111 56.8647C168.196 56.7511 168.321 56.6754 168.461 56.654L185.278 54.1692C185.417 54.1498 185.559 54.1861 185.672 54.2704C185.786 54.3546 185.862 54.4801 185.883 54.6197L193.663 107.463C193.682 107.604 193.646 107.746 193.561 107.86C193.476 107.973 193.35 108.049 193.21 108.07Z" fill="#67518B"/>
<path d="M177.257 110.727C176.784 110.726 176.326 110.555 175.967 110.245C175.609 109.936 175.373 109.507 175.302 109.038L167.854 58.4282C167.78 57.9093 167.913 57.3818 168.225 56.9611C168.538 56.5404 169.004 56.2608 169.521 56.1835L184.108 54.025C184.626 53.9486 185.152 54.0813 185.573 54.394C185.993 54.7066 186.272 55.1737 186.348 55.6924L193.799 106.297C193.874 106.816 193.741 107.344 193.428 107.765C193.116 108.186 192.65 108.466 192.132 108.544L177.546 110.702C177.45 110.717 177.354 110.725 177.257 110.727ZM184.396 54.6348C184.33 54.6348 184.264 54.6402 184.199 54.651L169.613 56.8094C169.438 56.8352 169.269 56.8952 169.117 56.9862C168.965 57.0772 168.833 57.1973 168.727 57.3396C168.622 57.4819 168.545 57.6437 168.502 57.8157C168.459 57.9877 168.45 58.1665 168.476 58.3419L175.925 108.951C175.95 109.127 176.01 109.295 176.101 109.448C176.192 109.6 176.312 109.733 176.454 109.838C176.596 109.944 176.757 110.021 176.929 110.064C177.1 110.107 177.279 110.116 177.454 110.09L192.041 107.932C192.216 107.906 192.384 107.846 192.536 107.755C192.688 107.664 192.82 107.544 192.926 107.401C193.031 107.259 193.108 107.097 193.151 106.925C193.194 106.753 193.203 106.574 193.177 106.399L185.726 55.7869C185.679 55.467 185.519 55.1747 185.275 54.9632C185.031 54.7518 184.719 54.6352 184.396 54.6348Z" fill="#242426"/>
<path d="M356.447 303.962C355.873 292.9 346.252 284.186 333.24 283.924L145.647 280.131L92.4243 279.051C80.28 278.806 68.6661 288.443 69.2181 299.09C69.7917 310.152 79.4102 318.864 92.4243 319.128L280.015 322.921L333.24 324.001C345.385 324.243 356.999 314.606 356.447 303.962Z" fill="#F24EB6"/>
<path d="M333.692 324.429H333.229L92.413 319.573C79.3288 319.303 69.3953 310.713 68.7948 299.135C68.5605 294.622 70.4562 290.043 74.1318 286.241C76.5175 283.811 79.367 281.888 82.5106 280.585C85.6541 279.282 89.0273 278.626 92.4291 278.657L333.245 283.514C346.329 283.784 356.26 292.374 356.861 303.949C357.095 308.462 355.202 313.044 351.526 316.842C349.199 319.222 346.425 321.117 343.365 322.419C340.304 323.721 337.017 324.404 333.692 324.429ZM91.9633 279.475C88.7501 279.5 85.5736 280.162 82.6161 281.42C79.6587 282.679 76.9786 284.511 74.7296 286.811C71.229 290.442 69.406 294.797 69.6295 299.076C70.2058 310.2 79.7947 318.461 92.4264 318.715L333.243 323.571C339.764 323.725 346.356 320.962 350.921 316.241C354.421 312.609 356.244 308.252 356.037 303.976C355.458 292.849 345.872 284.59 333.24 284.334L92.4076 279.48L91.9633 279.475Z" fill="#242426"/>
<path d="M194.123 89.9591C201.332 84.126 202.886 74.9932 197.085 67.5655C190.504 59.1126 177.91 55.8588 167.942 59.3851C159.422 62.3988 152.806 70.7789 152.746 79.8335C152.698 87.3879 158.6 97.2438 166.749 98.2502C174.854 99.2403 186.524 96.1106 194.123 89.9591Z" fill="#F24EB6"/>
<path d="M169.976 98.8661C168.883 98.8689 167.792 98.805 166.707 98.6745C158.553 97.6654 152.287 87.7205 152.338 79.8369C152.397 70.9118 158.906 62.1487 167.816 58.9947C178.154 55.3388 190.885 58.911 197.437 67.3127C203.21 74.7268 201.96 84.1834 194.399 90.3025C187.953 95.5205 178.17 98.8661 169.976 98.8661ZM176.382 58.3957C173.561 58.3841 170.758 58.853 168.094 59.7825C159.506 62.8205 153.232 71.2545 153.176 79.8369C153.127 87.3752 159.073 96.8803 166.809 97.8354C175.318 98.8876 186.703 95.4423 193.863 89.6442C201.05 83.83 202.243 74.8563 196.766 67.8253C192.113 61.8519 184.231 58.4011 176.382 58.4011V58.3957Z" fill="#242426"/>
<path d="M217.197 284.188C238.987 302.457 279.96 311.438 299.232 315.717C333.067 323.242 374.277 320.247 407.651 310.877C441.025 301.507 480.086 287.439 496.051 256.609C512.017 225.779 514.071 178.121 492.58 150.874C471.089 123.626 417.269 113.787 388.142 132.608C395.197 118.937 387.064 97.9627 375.119 88.2741C363.174 78.5855 346.913 75.9145 331.58 74.9459C306.575 73.3649 286.056 82.0174 267.412 98.7883C252.771 111.957 237.589 137.475 234.902 157.006C232.215 176.537 235.077 188.997 236.983 208.617C224.085 217.062 214.122 227.06 207.231 240.869C198.089 259.224 204.264 273.345 217.197 284.188Z" fill="#F24EB6"/>
<path d="M341.182 320.391C326.332 320.391 312.033 318.977 299.143 316.112L298.58 315.987C279.109 311.671 238.588 302.651 216.93 284.493C202.007 271.975 198.611 257.227 206.854 240.653C213.292 227.727 222.741 217.466 236.539 208.38C236.127 204.168 235.674 200.315 235.236 196.586C233.641 182.97 232.379 172.213 234.484 156.926C237.344 136.132 253.334 110.865 267.129 98.4513C286.716 80.8332 307.803 73.0008 331.604 74.5009C345.364 75.3778 362.765 77.6927 375.386 87.9452C387.078 97.4368 395.121 117.694 389.135 131.489C418.537 113.682 471.326 123.243 492.911 150.609C502.955 163.344 508.588 181.731 508.779 202.39C508.952 221.46 504.45 241.29 496.428 256.798C480.646 287.302 442.75 301.456 407.766 311.277C386.08 317.295 363.684 320.361 341.182 320.391ZM217.469 283.851C238.97 301.877 279.354 310.853 298.76 315.167L299.323 315.291C331.119 322.363 371.573 320.553 407.54 310.457C442.352 300.682 480.048 286.617 495.682 256.399C515.423 218.246 509.442 172.909 492.254 151.117C482.183 138.35 463.829 128.534 443.154 124.862C422.081 121.12 402.111 124.066 388.37 132.956C388.292 133.007 388.2 133.03 388.108 133.022C388.016 133.014 387.929 132.976 387.861 132.913C387.793 132.851 387.747 132.767 387.73 132.676C387.714 132.585 387.728 132.491 387.77 132.409C394.709 118.964 386.676 98.1896 374.861 88.5954C362.425 78.5021 345.186 76.2196 331.558 75.3589C307.679 73.8534 287.375 81.3917 267.694 99.1015C254.007 111.415 238.155 136.461 235.319 157.063C233.229 172.248 234.484 182.964 236.076 196.516C236.52 200.323 236.983 204.26 237.403 208.576C237.41 208.653 237.396 208.729 237.363 208.798C237.33 208.867 237.279 208.926 237.215 208.968C223.42 218.006 214.011 228.202 207.594 241.055C199.556 257.208 202.874 271.613 217.469 283.851Z" fill="#242426"/>
<path d="M325.528 233.215C324.073 232.98 322.498 233.042 321.4 233.601C320.301 234.159 319.835 235.292 320.592 236.196C321.206 236.927 322.417 237.348 323.573 237.621C324.806 237.913 326.062 238.098 327.326 238.174C328.323 238.233 329.365 238.214 330.154 237.874C330.943 237.534 331.357 236.927 331.287 236.28C331.104 234.499 327.663 233.56 325.528 233.215Z" fill="#242426"/>
<path d="M314.919 172.061C312.439 171.217 309.97 170.288 307.546 169.293C300.399 166.477 293.456 163.166 286.769 159.383C283.783 157.718 280.845 155.946 277.963 154.098C273.656 156.39 270.099 159.875 267.715 164.138C265.331 168.401 264.222 173.261 264.52 178.138C264.818 183.015 266.511 187.704 269.396 191.643C272.281 195.583 276.237 198.607 280.791 200.355C284.999 201.979 289.563 202.451 294.014 201.723C298.465 200.994 302.642 199.092 306.116 196.212C309.591 193.331 312.237 189.576 313.784 185.332C315.331 181.088 315.723 176.507 314.919 172.061Z" fill="white"/>
<path d="M289.904 202.471C284.141 202.465 278.546 200.529 274.007 196.973C269.468 193.416 266.246 188.442 264.851 182.84C263.456 177.238 263.969 171.33 266.309 166.053C268.649 160.777 272.681 156.436 277.765 153.718C277.83 153.683 277.903 153.665 277.977 153.668C278.051 153.671 278.123 153.694 278.185 153.734C281.306 155.725 284.179 157.449 286.969 159.009C293.643 162.78 300.571 166.082 307.703 168.892C310.126 169.887 312.595 170.815 315.057 171.654C315.126 171.679 315.187 171.722 315.235 171.778C315.282 171.835 315.314 171.903 315.326 171.975C315.991 175.703 315.833 179.532 314.863 183.191C313.893 186.851 312.135 190.254 309.712 193.16C307.288 196.066 304.259 198.405 300.837 200.012C297.415 201.619 293.683 202.456 289.904 202.463V202.471ZM277.942 154.573C273.905 156.774 270.55 160.046 268.248 164.032C265.945 168.017 264.783 172.561 264.889 177.165C264.995 181.769 266.365 186.255 268.849 190.13C271.333 194.004 274.834 197.118 278.969 199.13C283.104 201.141 287.711 201.972 292.287 201.531C296.862 201.09 301.227 199.395 304.903 196.631C308.58 193.867 311.425 190.141 313.126 185.863C314.827 181.585 315.319 176.92 314.548 172.38C312.148 171.571 309.738 170.651 307.385 169.682C300.221 166.856 293.263 163.534 286.559 159.74C283.818 158.21 280.996 156.518 277.942 154.573Z" fill="#242426"/>
<path d="M308.87 183.772C307.986 186.081 306.641 188.185 304.918 189.956C303.195 191.727 301.13 193.128 298.849 194.073C296.567 195.018 294.118 195.487 291.65 195.453C289.182 195.418 286.746 194.879 284.493 193.87C276.145 190.142 271.815 180.496 274.589 171.76C275.53 168.785 277.218 166.102 279.491 163.968C281.763 161.834 284.544 160.32 287.568 159.57C294.255 163.353 301.198 166.665 308.345 169.48C309.39 171.704 309.974 174.116 310.065 176.572C310.155 179.028 309.749 181.477 308.87 183.772Z" fill="#242426"/>
<path d="M322.78 174.566C320.143 173.792 317.507 172.947 314.914 172.062L322.78 174.566Z" fill="white"/>
<path d="M322.78 174.993C322.74 174.993 322.7 174.987 322.661 174.977C320.047 174.205 317.394 173.358 314.78 172.465C314.726 172.448 314.676 172.421 314.633 172.384C314.591 172.348 314.556 172.303 314.53 172.253C314.505 172.202 314.491 172.147 314.487 172.091C314.484 172.035 314.492 171.978 314.511 171.925C314.528 171.872 314.556 171.823 314.592 171.78C314.629 171.737 314.673 171.703 314.723 171.678C314.774 171.652 314.828 171.638 314.884 171.634C314.94 171.63 314.996 171.637 315.049 171.656C317.65 172.549 320.289 173.388 322.896 174.154C322.983 174.189 323.056 174.253 323.103 174.335C323.15 174.417 323.168 174.512 323.154 174.605C323.141 174.699 323.096 174.785 323.028 174.85C322.959 174.915 322.871 174.955 322.777 174.963L322.78 174.993Z" fill="#242426"/>
<path d="M277.954 154.111C276.486 153.159 275.024 152.185 273.578 151.176L277.954 154.111Z" fill="white"/>
<path d="M277.955 154.507C277.875 154.507 277.796 154.484 277.729 154.439C276.081 153.36 274.643 152.405 273.34 151.496C273.253 151.431 273.195 151.334 273.177 151.226C273.16 151.119 273.185 151.008 273.247 150.919C273.309 150.829 273.404 150.768 273.51 150.746C273.617 150.725 273.728 150.746 273.819 150.805C275.114 151.712 276.544 152.67 278.184 153.735C278.261 153.784 278.32 153.857 278.352 153.942C278.384 154.027 278.387 154.121 278.361 154.208C278.335 154.295 278.282 154.372 278.208 154.426C278.135 154.48 278.046 154.508 277.955 154.507Z" fill="#242426"/>
<path d="M428.735 229.163C426.255 228.318 423.783 227.39 421.359 226.394C414.213 223.579 407.271 220.268 400.585 216.485C397.598 214.82 394.661 213.047 391.779 211.199C386.362 214.061 382.172 218.805 379.996 224.541C378.581 228.211 378.035 232.16 378.398 236.077C378.762 239.995 380.026 243.775 382.092 247.121C384.158 250.467 386.969 253.288 390.305 255.363C393.641 257.438 397.412 258.711 401.321 259.082C405.23 259.453 409.172 258.911 412.838 257.5C416.503 256.089 419.792 253.846 422.448 250.948C425.104 248.049 427.053 244.574 428.144 240.795C429.235 237.015 429.437 233.034 428.735 229.163Z" fill="white"/>
<path d="M403.688 259.579C397.923 259.578 392.325 257.645 387.784 254.088C383.242 250.531 380.019 245.555 378.625 239.951C377.232 234.346 377.75 228.436 380.095 223.161C382.441 217.885 386.48 213.547 391.57 210.836C391.636 210.802 391.709 210.786 391.783 210.789C391.857 210.793 391.928 210.816 391.99 210.855C395.109 212.844 397.982 214.568 400.774 216.127C407.448 219.901 414.376 223.204 421.508 226.013C423.932 227.006 426.398 227.937 428.865 228.776C428.934 228.801 428.995 228.844 429.042 228.9C429.09 228.957 429.121 229.024 429.134 229.097C429.81 232.829 429.658 236.664 428.69 240.331C427.721 243.998 425.96 247.406 423.531 250.315C421.102 253.224 418.064 255.562 414.632 257.164C411.201 258.766 407.46 259.592 403.674 259.584L403.688 259.579ZM391.761 211.694C387.725 213.895 384.372 217.168 382.07 221.153C379.768 225.138 378.606 229.681 378.713 234.284C378.819 238.887 380.189 243.372 382.673 247.246C385.156 251.12 388.657 254.233 392.791 256.244C396.925 258.255 401.532 259.086 406.107 258.646C410.681 258.205 415.045 256.51 418.721 253.747C422.397 250.984 425.242 247.259 426.944 242.982C428.645 238.705 429.138 234.041 428.367 229.501C425.962 228.676 423.552 227.769 421.201 226.803C414.039 223.98 407.081 220.662 400.378 216.872C397.634 215.329 394.802 213.637 391.761 211.694Z" fill="#242426"/>
<path d="M422.696 240.887C421.812 243.196 420.467 245.3 418.745 247.071C417.022 248.842 414.957 250.243 412.676 251.188C410.395 252.133 407.946 252.602 405.478 252.568C403.01 252.533 400.575 251.994 398.321 250.985C389.974 247.257 385.641 237.609 388.415 228.862C389.357 225.887 391.045 223.204 393.318 221.069C395.591 218.935 398.372 217.421 401.396 216.672C408.084 220.455 415.026 223.766 422.174 226.582C423.22 228.807 423.805 231.222 423.895 233.681C423.985 236.139 423.577 238.59 422.696 240.887Z" fill="#242426"/>
<path d="M436.601 231.676C433.965 230.901 431.331 230.057 428.738 229.172L436.601 231.676Z" fill="white"/>
<path d="M436.603 232.094C436.563 232.094 436.523 232.087 436.485 232.075C433.859 231.303 431.21 230.456 428.606 229.566C428.554 229.548 428.506 229.52 428.464 229.484C428.423 229.447 428.39 229.403 428.365 229.354C428.341 229.305 428.327 229.251 428.323 229.196C428.32 229.141 428.327 229.086 428.345 229.034C428.362 228.982 428.39 228.934 428.426 228.893C428.462 228.851 428.506 228.817 428.556 228.793C428.605 228.769 428.658 228.754 428.713 228.751C428.768 228.747 428.823 228.755 428.875 228.772C431.468 229.66 434.107 230.502 436.722 231.271C436.809 231.306 436.882 231.37 436.929 231.452C436.976 231.533 436.994 231.629 436.98 231.722C436.966 231.815 436.922 231.902 436.854 231.966C436.785 232.031 436.697 232.071 436.603 232.08V232.094Z" fill="#242426"/>
<path d="M391.783 211.221C390.312 210.268 388.853 209.294 387.404 208.285L391.783 211.221Z" fill="white"/>
<path d="M391.792 211.644C391.711 211.644 391.631 211.62 391.563 211.576C389.913 210.497 388.477 209.539 387.174 208.633C387.087 208.567 387.029 208.471 387.011 208.363C386.994 208.255 387.019 208.145 387.081 208.056C387.143 207.966 387.238 207.904 387.344 207.883C387.451 207.862 387.562 207.883 387.653 207.942C388.949 208.846 390.376 209.804 392.018 210.872C392.095 210.921 392.154 210.993 392.186 211.078C392.218 211.163 392.221 211.256 392.196 211.343C392.17 211.431 392.117 211.507 392.044 211.561C391.971 211.615 391.883 211.644 391.792 211.644Z" fill="#242426"/>
<path d="M426.485 293.567C429.42 295.952 440.842 306.517 443.551 309.148C441.645 309.633 439.728 310.083 437.8 310.497C434.587 311.174 431.356 311.689 428.106 312.218L426.253 312.436C424.21 312.665 422.165 312.866 420.116 313.041C389.454 315.682 358.517 313.599 328.218 320.107C318.89 322.112 309.584 324.926 301.945 330.84C290.942 339.357 285.764 352.659 288.947 366.346C291.316 376.539 303.517 383.54 313.488 380.308C322.189 377.486 327.685 370.112 327.992 361.535C328.53 361.338 328.988 361.168 329.069 361.144C336.029 358.985 343.141 358.006 350.263 356.662L352.509 356.412C354.335 356.219 356.162 356.047 357.992 355.896C361.662 355.589 365.337 355.357 369.016 355.173C376.625 354.79 384.246 354.609 391.864 354.396C408.12 353.94 424.274 353.071 440.36 350.522C447.778 349.385 455.094 347.66 462.239 345.363C471.806 342.233 481.533 337.771 487.012 328.811C500.207 307.181 479.088 286.209 463.292 273.366C459.051 269.916 454.858 267.512 449.185 267.512" fill="#F24EB6"/>
<path d="M308.344 381.532C304.793 381.499 301.311 380.548 298.235 378.772C293.243 375.944 289.715 371.455 288.541 366.453C285.361 352.784 290.278 339.351 301.69 330.518C309.768 324.261 319.591 321.541 328.13 319.707C347.717 315.5 367.897 314.866 387.411 314.254C398.131 313.917 409.222 313.569 420.082 312.635C422.193 312.454 424.253 312.249 426.206 312.031C426.717 311.974 427.226 311.912 427.735 311.853L428.705 311.707C431.667 311.227 434.718 310.728 437.701 310.088C439.352 309.74 441.032 309.354 442.704 308.939C439.325 305.701 428.99 296.164 426.208 293.903C426.166 293.867 426.131 293.824 426.105 293.775C426.079 293.726 426.063 293.672 426.058 293.617C426.053 293.562 426.058 293.506 426.075 293.453C426.091 293.4 426.118 293.351 426.153 293.308C426.189 293.265 426.232 293.23 426.281 293.204C426.33 293.178 426.384 293.162 426.439 293.157C426.494 293.152 426.549 293.158 426.602 293.174C426.655 293.19 426.704 293.217 426.747 293.253C429.709 295.662 441.221 306.311 443.841 308.858C443.895 308.91 443.934 308.975 443.953 309.047C443.973 309.12 443.973 309.196 443.954 309.268C443.935 309.34 443.897 309.406 443.844 309.459C443.791 309.512 443.725 309.549 443.652 309.568C441.729 310.059 439.788 310.509 437.884 310.917C434.884 311.548 431.815 312.047 428.85 312.535L427.846 312.686L426.311 312.867C424.35 313.086 422.272 313.288 420.163 313.472C409.276 314.41 398.179 314.759 387.449 315.09C367.969 315.7 347.83 316.334 328.316 320.524C319.869 322.34 310.164 325.027 302.212 331.179C291.067 339.812 286.266 352.922 289.368 366.253C290.477 371.029 293.859 375.321 298.647 378.033C303.392 380.731 308.758 381.405 313.371 379.921C321.832 377.177 327.276 370.133 327.586 361.534C327.588 361.451 327.615 361.371 327.663 361.303C327.711 361.235 327.778 361.183 327.855 361.154L328.362 360.968L328.946 360.754C334.313 359.079 339.862 358.102 345.232 357.158C346.882 356.867 348.536 356.575 350.189 356.265L351.078 356.162L352.464 356.009C354.22 355.822 356.016 355.652 357.958 355.491C361.38 355.205 364.989 354.967 368.998 354.768C375.56 354.436 382.236 354.252 388.693 354.077L391.857 353.988C406.29 353.583 423.333 352.809 440.297 350.119C447.693 348.992 454.987 347.272 462.108 344.976C470.566 342.211 481.001 337.848 486.645 328.605C496.446 312.554 488.718 294.596 463.018 273.703C459.346 270.711 455.126 267.929 449.183 267.929C449.078 267.92 448.98 267.873 448.908 267.795C448.836 267.717 448.797 267.615 448.797 267.509C448.797 267.404 448.836 267.302 448.908 267.224C448.98 267.146 449.078 267.098 449.183 267.09C455.376 267.09 459.755 269.95 463.554 273.039C489.636 294.243 497.426 312.557 487.366 329.028C481.58 338.507 470.97 342.95 462.375 345.756C455.21 348.064 447.872 349.794 440.432 350.928C423.419 353.626 406.344 354.403 391.881 354.808L388.72 354.897C382.257 355.072 375.595 355.256 369.044 355.585C365.048 355.787 361.445 356.022 358.033 356.308C356.097 356.47 354.306 356.637 352.559 356.823C352.098 356.872 351.638 356.926 351.18 356.977L350.316 357.074C348.7 357.382 347.036 357.673 345.38 357.965C340.04 358.906 334.517 359.878 329.202 361.537C329.148 361.553 328.932 361.631 328.663 361.736L328.415 361.828C327.987 370.529 322.222 377.919 313.635 380.714C311.925 381.263 310.139 381.539 308.344 381.532Z" fill="#242426"/>
<path d="M335.149 228.537C328.797 228.537 322.442 226.502 317.393 222.566C317.346 222.534 317.305 222.492 317.274 222.443C317.243 222.394 317.223 222.34 317.214 222.283C317.205 222.226 317.208 222.167 317.223 222.112C317.237 222.056 317.263 222.004 317.298 221.958C317.334 221.913 317.378 221.875 317.429 221.848C317.48 221.82 317.535 221.803 317.593 221.798C317.65 221.793 317.708 221.8 317.763 221.819C317.817 221.837 317.867 221.866 317.91 221.905C326.139 228.324 337.96 229.538 347.318 224.919C347.417 224.87 347.532 224.862 347.637 224.898C347.742 224.934 347.829 225.01 347.878 225.11C347.927 225.21 347.934 225.325 347.898 225.431C347.862 225.536 347.786 225.622 347.687 225.671C343.781 227.574 339.492 228.554 335.149 228.537Z" fill="#242426"/>
<path d="M351.584 235.235C351.484 235.233 351.389 235.194 351.315 235.127C346.363 230.638 345.544 222.312 349.53 216.945C349.599 216.865 349.696 216.815 349.801 216.803C349.906 216.792 350.011 216.82 350.096 216.883C350.181 216.946 350.239 217.039 350.259 217.143C350.279 217.247 350.259 217.354 350.203 217.444C346.463 222.481 347.241 230.295 351.875 234.504C351.938 234.56 351.983 234.633 352.003 234.715C352.024 234.797 352.019 234.883 351.99 234.962C351.961 235.041 351.909 235.109 351.84 235.158C351.772 235.207 351.69 235.234 351.606 235.235H351.584Z" fill="#242426"/>
<path d="M392.74 270.145C403.894 257.216 420.982 249.64 438.032 250.085L392.74 270.145Z" fill="#F24EB6"/>
<path d="M392.742 270.577C392.662 270.577 392.583 270.554 392.515 270.51C392.448 270.467 392.394 270.405 392.36 270.331C392.327 270.258 392.315 270.177 392.326 270.097C392.338 270.017 392.372 269.942 392.425 269.881C403.721 256.785 420.798 249.239 438.045 249.678C438.1 249.68 438.154 249.692 438.204 249.714C438.254 249.737 438.299 249.769 438.337 249.808C438.375 249.848 438.405 249.895 438.424 249.946C438.444 249.998 438.453 250.052 438.452 250.107C438.452 250.163 438.441 250.218 438.42 250.269C438.398 250.32 438.366 250.367 438.326 250.405C438.286 250.444 438.239 250.473 438.187 250.493C438.135 250.512 438.079 250.52 438.024 250.517C421 250.078 404.195 257.532 393.055 270.432C393.016 270.477 392.968 270.513 392.914 270.538C392.86 270.563 392.802 270.576 392.742 270.577Z" fill="#242426"/>
<path d="M433.99 273.913C433.909 273.912 433.83 273.888 433.762 273.843C433.694 273.798 433.641 273.734 433.609 273.659C433.576 273.584 433.567 273.501 433.58 273.421C433.594 273.341 433.631 273.266 433.686 273.206C435.687 271.086 438.268 269.604 441.105 268.946C441.16 268.926 441.219 268.919 441.277 268.923C441.336 268.928 441.393 268.945 441.444 268.973C441.496 269.001 441.541 269.04 441.577 269.087C441.612 269.134 441.637 269.188 441.651 269.245C441.664 269.302 441.665 269.362 441.654 269.42C441.643 269.477 441.62 269.532 441.586 269.58C441.552 269.629 441.509 269.669 441.458 269.699C441.408 269.729 441.352 269.749 441.293 269.755C438.616 270.375 436.181 271.773 434.292 273.773C434.254 273.815 434.207 273.85 434.156 273.874C434.104 273.898 434.048 273.911 433.99 273.913Z" fill="#242426"/>
<path d="M87.3176 278.918C86.9837 279.231 86.534 279.247 85.7019 279.571C77.9549 282.555 76.0484 291.1 76.7701 298.595C77.1634 302.545 78.1521 306.413 79.7025 310.067C80.3721 311.741 81.2036 313.346 82.1852 314.858C82.9526 315.992 85.737 318.18 85.3196 319.639C85.0099 320.719 81.477 321.841 80.5157 322.238C76.2422 323.986 71.6879 324.944 67.0734 325.065C63.8771 325.151 57.2529 325.286 55.2038 322.186C54.2748 320.781 54.7945 316.636 54.6894 315.042C53.9606 303.978 53.2327 292.916 52.5056 281.856L48.9512 227.801L49.032 227.782C53.8278 226.703 59.0706 226.873 63.8206 228.052C73.9184 230.57 80.9385 238.305 84.4175 247.931C87.3795 256.106 88.0877 265.002 87.9558 273.638C87.9369 274.903 88.2251 276.827 87.8104 278.017C87.7198 278.352 87.5509 278.661 87.3176 278.918Z" fill="white"/>
<path d="M64.9866 325.533C61.486 325.533 56.639 325.155 54.8456 322.43C54.1078 321.316 54.1859 318.868 54.2478 316.904C54.2694 316.16 54.2909 315.515 54.2478 315.08L48.5203 227.829C48.5143 227.731 48.5427 227.634 48.6008 227.554C48.6588 227.475 48.7428 227.418 48.8381 227.395L48.9269 227.373C53.615 226.315 58.9386 226.413 63.9094 227.643C73.4095 230.012 81.0219 237.356 84.7972 247.786C87.3876 254.947 88.5213 263.165 88.3597 273.642C88.3597 274.006 88.3759 274.424 88.3974 274.864C88.4513 275.975 88.5132 277.235 88.1928 278.153C88.0847 278.553 87.8783 278.919 87.5923 279.218C87.2979 279.462 86.9485 279.631 86.5744 279.709C86.3671 279.771 86.1247 279.847 85.8312 279.96C76.4766 283.559 76.832 295.099 77.1659 298.55C77.5516 302.458 78.5295 306.285 80.066 309.898C80.7308 311.549 81.5523 313.133 82.5191 314.627C82.8276 315.033 83.1632 315.418 83.5235 315.779C84.7164 317.05 86.0709 318.477 85.7073 319.759C85.4138 320.776 83.3781 321.612 81.3155 322.379C81.0462 322.481 80.82 322.565 80.6611 322.63C76.3397 324.394 71.7357 325.363 67.0708 325.489C66.481 325.514 65.7701 325.533 64.9866 325.533ZM49.3847 228.134L55.0987 315.029C55.1284 315.504 55.0987 316.165 55.0853 316.934C55.0287 318.682 54.9533 321.075 55.5457 321.968C57.4926 324.915 64.1949 324.737 67.0546 324.667C71.6179 324.543 76.1216 323.595 80.3488 321.869C80.5103 321.801 80.7473 321.715 81.0273 321.599C82.0344 321.224 84.7083 320.228 84.9076 319.532C85.1392 318.723 83.8574 317.358 82.9176 316.362C82.5307 315.968 82.1709 315.548 81.8405 315.105C80.8433 313.565 79.9957 311.934 79.3093 310.232C77.7397 306.538 76.7409 302.626 76.3473 298.631C75.4237 289.023 78.8623 281.752 85.5458 279.178C85.8635 279.056 86.1247 278.978 86.3536 278.908C86.6025 278.863 86.8375 278.76 87.0403 278.609C87.2225 278.399 87.3534 278.149 87.4226 277.88C87.6919 277.117 87.6327 275.943 87.5815 274.912C87.56 274.454 87.5384 274.017 87.5438 273.639C87.7027 263.262 86.5852 255.141 84.0432 248.08C80.3084 237.766 73.0998 230.8 63.7371 228.466C59.0382 227.28 54.1336 227.165 49.3847 228.131V228.134Z" fill="#242426"/>
<path d="M48.2934 320.273L41.7661 230.831C41.4241 226.125 44.2731 222.049 48.1022 221.768C51.9313 221.498 55.343 225.106 55.6877 229.811L58.8921 273.74L62.2149 319.253C62.5569 323.956 59.708 328.035 55.8789 328.316C52.0498 328.596 48.638 324.976 48.2934 320.273Z" fill="#FFA9D8"/>
<path d="M55.4589 328.745C53.6386 328.745 51.8856 327.936 50.4773 326.446C48.9343 324.755 48.017 322.585 47.8788 320.298L41.3515 230.855C40.9907 225.91 44.0066 221.642 48.0834 221.345C50.0492 221.199 51.9906 222.009 53.5174 223.627C55.0605 225.318 55.9778 227.487 56.1159 229.773L62.6432 319.216C63.004 324.164 59.9881 328.432 55.9113 328.729C55.7605 328.74 55.6097 328.745 55.4589 328.745ZM48.5224 222.168C48.3931 222.168 48.2531 222.168 48.1319 222.168C44.5263 222.438 41.8578 226.296 42.1836 230.78L48.7162 320.249C48.8379 322.344 49.6745 324.333 51.0859 325.882C52.4323 327.312 54.1206 328.041 55.8521 327.906C59.4577 327.636 62.1262 323.778 61.8004 319.291L55.2704 229.836C55.1493 227.74 54.3116 225.749 52.8981 224.199C51.6514 222.88 50.1111 222.168 48.5224 222.168Z" fill="#242426"/>
<path d="M242.935 230.925C242.863 230.925 242.792 230.907 242.729 230.871C242.666 230.836 242.614 230.785 242.577 230.723C238.858 224.49 236.887 217.268 236.553 208.632C236.551 208.576 236.56 208.521 236.579 208.47C236.598 208.418 236.627 208.37 236.665 208.33C236.702 208.29 236.747 208.257 236.798 208.234C236.848 208.211 236.902 208.199 236.957 208.197C237.012 208.192 237.069 208.198 237.121 208.216C237.174 208.234 237.223 208.263 237.264 208.301C237.305 208.339 237.337 208.385 237.359 208.436C237.381 208.488 237.392 208.543 237.39 208.599C237.719 217.09 239.65 224.186 243.296 230.291C243.324 230.338 243.343 230.391 243.351 230.445C243.359 230.5 243.356 230.555 243.342 230.609C243.329 230.662 243.305 230.712 243.272 230.757C243.239 230.801 243.198 230.838 243.15 230.866C243.085 230.905 243.011 230.926 242.935 230.925Z" fill="#242426"/>
<path d="M376.778 144.666C376.705 144.666 376.633 144.647 376.569 144.611C376.506 144.574 376.453 144.522 376.416 144.458C376.379 144.395 376.36 144.323 376.359 144.25C376.359 144.176 376.378 144.104 376.415 144.04C379.232 139.088 383.292 134.959 388.193 132.064C388.24 132.031 388.294 132.008 388.351 131.996C388.407 131.985 388.466 131.986 388.522 131.998C388.579 132.01 388.632 132.034 388.679 132.068C388.726 132.102 388.765 132.145 388.795 132.195C388.824 132.245 388.843 132.301 388.85 132.358C388.857 132.416 388.852 132.474 388.835 132.53C388.819 132.585 388.791 132.637 388.753 132.681C388.716 132.725 388.67 132.761 388.618 132.787C383.843 135.608 379.887 139.631 377.142 144.456C377.105 144.52 377.052 144.574 376.988 144.611C376.924 144.648 376.852 144.667 376.778 144.666Z" fill="#242426"/>
<path d="M478.449 179.187C479.47 185.209 479.144 191.39 478.789 197.487C478.587 200.951 478.382 204.502 479.193 207.867C480.003 211.231 482.055 214.428 484.925 215.321C487.869 216.238 491.027 214.49 492.92 211.749C494.813 209.008 495.648 205.446 496.108 201.928C497.934 187.985 494.353 173.059 486.555 162.116C484.826 159.688 482.844 157.4 480.402 156.086C477.959 154.772 474.978 154.564 472.725 156.189C468.543 159.202 470.247 162.559 472.563 165.602C475.627 169.566 477.651 174.237 478.449 179.187Z" fill="white"/>
<path d="M456.686 149.714C457.329 150.837 458.279 151.751 459.424 152.35C460.57 152.949 461.862 153.207 463.148 153.095C464.429 152.941 465.635 152.411 466.614 151.57C467.593 150.73 468.301 149.617 468.65 148.374C468.951 147.117 468.858 145.799 468.384 144.597C467.911 143.396 467.079 142.369 466.003 141.658C460.967 138.512 453.511 144.03 456.686 149.714Z" fill="white"/>
<path d="M262.478 192.536C262.405 192.537 262.333 192.518 262.27 192.481C262.207 192.445 262.154 192.392 262.117 192.329C259.717 188.189 258.646 183.409 259.05 178.639C259.054 178.584 259.069 178.53 259.094 178.481C259.119 178.431 259.154 178.388 259.196 178.352C259.238 178.316 259.287 178.289 259.34 178.273C259.392 178.256 259.448 178.251 259.503 178.256C259.613 178.266 259.716 178.32 259.787 178.405C259.859 178.49 259.894 178.601 259.885 178.712C259.498 183.31 260.532 187.916 262.847 191.905C262.885 191.969 262.905 192.041 262.905 192.115C262.906 192.189 262.887 192.262 262.85 192.326C262.814 192.39 262.76 192.443 262.697 192.48C262.633 192.517 262.56 192.537 262.486 192.536H262.478Z" fill="#242426"/>
<path d="M232.507 225.548H232.47C232.359 225.538 232.257 225.485 232.185 225.4C232.114 225.315 232.078 225.205 232.087 225.094C232.571 219.389 234.116 213.824 236.641 208.688C236.665 208.638 236.699 208.594 236.74 208.558C236.781 208.521 236.829 208.493 236.881 208.476C236.933 208.458 236.988 208.45 237.043 208.454C237.098 208.457 237.152 208.472 237.201 208.496C237.25 208.52 237.294 208.554 237.331 208.595C237.367 208.637 237.395 208.685 237.412 208.737C237.43 208.789 237.438 208.844 237.434 208.899C237.431 208.954 237.416 209.008 237.392 209.057C234.913 214.101 233.397 219.565 232.922 225.167C232.913 225.271 232.865 225.367 232.788 225.438C232.712 225.508 232.611 225.547 232.507 225.548Z" fill="#242426"/>
<path d="M197.816 238.768C203.714 226.575 220.091 216.533 228.102 213.102C228.409 213.512 228.877 213.911 229.179 214.316C217.355 222.707 208.369 235.023 203.813 248.802C202.884 248.13 202.467 247.137 202.058 246.069C200.811 242.815 199.976 241.466 197.816 238.768Z" fill="#242426"/>
<path d="M329.277 319.168C324.699 320.557 320.062 323.304 315.275 323.26C306.006 323.18 313.627 323.468 303.75 323.355C275.476 319.602 236.116 299.342 213.596 281.805C213.596 281.571 212.002 281.757 212.002 281.536C212.713 281.465 213.537 281.371 214.248 281.301C229.613 293.153 247.145 302.17 265.857 307.269C286.664 312.94 307.8 317.233 329.277 319.168Z" fill="#242426"/>
<path d="M78.0147 287.121C78.4132 300.215 86.2114 312.831 97.7311 319.025C93.3769 319.451 89.02 319.389 84.7627 318.378C77.3657 310.165 74.9557 297.751 78.0147 287.121Z" fill="#242426"/>
<path d="M116.916 273.914L156.602 275.387C156.268 276.372 156.063 279.164 155.985 280.198C142.648 280.144 129.294 280.039 115.971 279.44C116.692 278.161 117.115 275.366 116.916 273.914Z" fill="#242426"/>
<path d="M61.9562 310.574C62.1699 316.116 64.5547 321.351 68.5939 325.144C66.1727 325.141 63.7535 325.003 61.3477 324.731C61.9535 319.904 62.414 315.406 61.9562 310.574Z" fill="#242426"/>
<path d="M225.308 200.083C224.57 176.783 229.078 157.913 240.716 137.727C234.918 149.137 234.522 157.962 234.191 170.758C233.86 183.555 235.405 196.325 236.957 209.033C236.022 209.47 235.147 209.65 234.213 210.085C230.798 207.044 227.745 203.952 225.308 200.083Z" fill="#242426"/>
<path d="M426.127 293.707C427.933 296.925 429.378 300.334 430.435 303.87C432.19 303.023 434.007 302.311 435.869 301.739C432.625 298.849 429.366 296.597 426.127 293.707Z" fill="#242426"/>
<path d="M523.303 225.896C508.658 229.08 509.28 232.061 507.898 253.416C507.892 253.502 507.855 253.582 507.794 253.642C507.732 253.703 507.651 253.738 507.565 253.742C507.479 253.746 507.395 253.718 507.328 253.664C507.262 253.61 507.217 253.533 507.203 253.448C503.832 232.247 505.049 229.206 490.288 226.964C490.207 226.951 490.134 226.911 490.081 226.849C490.027 226.788 489.997 226.71 489.994 226.629C489.992 226.548 490.017 226.468 490.067 226.404C490.117 226.34 490.187 226.295 490.266 226.276C504.85 223.095 503.461 220.138 505.461 198.757C505.472 198.672 505.513 198.594 505.577 198.537C505.641 198.48 505.723 198.449 505.809 198.449C505.894 198.449 505.976 198.48 506.04 198.537C506.104 198.594 506.145 198.672 506.156 198.757C508.892 219.968 508.464 222.982 523.282 225.224C523.356 225.242 523.423 225.283 523.471 225.342C523.52 225.402 523.547 225.475 523.55 225.552C523.552 225.628 523.529 225.703 523.485 225.766C523.44 225.828 523.377 225.874 523.303 225.896Z" fill="#FDDC68"/>
<path d="M507.55 254.149C507.367 254.15 507.189 254.085 507.051 253.966C506.912 253.846 506.821 253.68 506.796 253.498C506.446 251.302 506.144 249.298 505.872 247.471C503.513 231.744 503.152 229.327 490.227 227.363C490.05 227.335 489.889 227.246 489.77 227.112C489.652 226.977 489.584 226.806 489.578 226.626C489.573 226.447 489.63 226.271 489.74 226.13C489.851 225.989 490.007 225.89 490.181 225.852C502.951 223.067 503.161 220.631 504.51 204.788C504.668 202.946 504.838 200.927 505.048 198.712C505.064 198.523 505.149 198.347 505.289 198.218C505.428 198.089 505.61 198.017 505.799 198.016C505.989 198.008 506.175 198.073 506.319 198.197C506.463 198.322 506.555 198.496 506.575 198.685L506.987 201.907C509.327 220.348 509.626 222.717 523.348 224.791C523.525 224.819 523.687 224.907 523.806 225.041C523.925 225.176 523.993 225.347 523.998 225.527C524.004 225.706 523.947 225.882 523.837 226.023C523.727 226.165 523.572 226.264 523.397 226.302C509.836 229.251 509.685 231.634 508.525 250.185L508.32 253.423C508.31 253.612 508.229 253.791 508.094 253.924C507.959 254.057 507.779 254.134 507.59 254.141L507.55 254.149ZM490.728 226.599C503.896 228.652 504.34 231.609 506.699 247.352C506.947 249.004 507.216 250.798 507.523 252.748L507.69 250.139C508.823 232.025 509.036 228.628 522.85 225.568C508.869 223.41 508.441 220.024 506.155 202.017L505.824 199.419C505.641 201.392 505.487 203.196 505.344 204.864C503.993 220.728 503.739 223.707 490.728 226.599Z" fill="#242426"/>
<path d="M182.845 180.608C169.982 183.403 170.528 186.023 169.316 204.766C169.314 204.843 169.283 204.917 169.228 204.972C169.174 205.027 169.102 205.06 169.024 205.063C168.947 205.067 168.872 205.042 168.813 204.992C168.753 204.942 168.715 204.872 168.705 204.796C165.743 186.179 166.82 183.506 153.849 181.536C153.778 181.527 153.711 181.492 153.663 181.438C153.614 181.385 153.586 181.316 153.584 181.243C153.582 181.171 153.605 181.1 153.651 181.043C153.696 180.987 153.759 180.948 153.83 180.934C166.64 178.139 165.409 175.538 167.176 156.771C167.185 156.697 167.222 156.629 167.278 156.58C167.334 156.531 167.406 156.504 167.48 156.504C167.554 156.504 167.626 156.531 167.682 156.58C167.738 156.629 167.774 156.697 167.784 156.771C170.189 175.401 169.812 178.047 182.826 180.017C182.892 180.032 182.952 180.068 182.995 180.12C183.038 180.172 183.063 180.237 183.065 180.305C183.067 180.373 183.047 180.44 183.007 180.494C182.967 180.549 182.91 180.589 182.845 180.608Z" fill="#FDDC68"/>
<path d="M169.011 205.461C168.838 205.464 168.67 205.403 168.539 205.29C168.408 205.177 168.322 205.021 168.298 204.849C167.991 202.917 167.727 201.158 167.49 199.553C165.427 185.777 165.109 183.659 153.797 181.94C153.629 181.915 153.476 181.832 153.363 181.705C153.25 181.578 153.186 181.415 153.18 181.246C153.175 181.076 153.229 180.909 153.333 180.775C153.438 180.642 153.586 180.549 153.751 180.513C164.929 178.085 165.112 175.926 166.297 162.058C166.434 160.439 166.585 158.667 166.768 156.722C166.783 156.543 166.864 156.376 166.996 156.254C167.127 156.132 167.3 156.064 167.479 156.063C167.658 156.055 167.834 156.115 167.971 156.233C168.107 156.35 168.193 156.516 168.211 156.695L168.572 159.525C170.624 175.686 170.885 177.763 182.898 179.579C183.065 179.604 183.219 179.688 183.332 179.815C183.445 179.941 183.509 180.104 183.515 180.274C183.52 180.444 183.466 180.61 183.362 180.744C183.257 180.878 183.109 180.971 182.943 181.007C171.071 183.589 170.942 185.677 169.924 201.938L169.744 204.781C169.734 204.961 169.658 205.131 169.53 205.257C169.402 205.382 169.231 205.456 169.052 205.461H169.011ZM154.511 181.201C165.853 183.011 166.254 185.677 168.314 199.429C168.513 200.748 168.726 202.173 168.965 203.71L169.081 201.884C170.072 186.057 170.263 182.998 182.173 180.316C170.118 178.403 169.733 175.362 167.735 159.63L167.503 157.812C167.36 159.363 167.234 160.798 167.126 162.128C165.944 175.985 165.715 178.673 154.511 181.201Z" fill="#242426"/>
<path d="M219.807 77.2803C210.355 79.3335 210.756 81.2572 209.865 95.0333C209.86 95.0874 209.835 95.1378 209.796 95.1753C209.757 95.2127 209.705 95.2348 209.651 95.2374C209.597 95.24 209.543 95.223 209.501 95.1895C209.458 95.156 209.429 95.1083 209.418 95.0549C207.242 81.3706 208.023 79.4064 198.499 77.9602C198.446 77.9537 198.397 77.9284 198.361 77.8889C198.325 77.8494 198.304 77.7983 198.303 77.7448C198.301 77.6913 198.319 77.639 198.352 77.5974C198.386 77.5557 198.433 77.5275 198.486 77.5178C207.91 75.4646 206.992 73.5571 208.293 59.7621C208.301 59.7087 208.328 59.66 208.369 59.6248C208.41 59.5896 208.462 59.5703 208.516 59.5703C208.57 59.5703 208.622 59.5896 208.663 59.6248C208.704 59.66 208.731 59.7087 208.74 59.7621C210.506 73.4518 210.229 75.4106 219.78 76.8433C219.829 76.8532 219.873 76.8789 219.906 76.9166C219.938 76.9542 219.958 77.0016 219.961 77.0514C219.964 77.1013 219.951 77.1507 219.923 77.1921C219.895 77.2335 219.854 77.2645 219.807 77.2803Z" fill="#FDDC68"/>
<path d="M209.629 95.6611C209.476 95.6623 209.328 95.6085 209.211 95.5095C209.094 95.4105 209.017 95.2728 208.993 95.1215C208.767 93.7023 208.573 92.4073 208.398 91.2256C206.855 80.9488 206.659 79.6241 198.435 78.3776C198.286 78.3552 198.15 78.2812 198.049 78.1684C197.949 78.0557 197.892 77.9113 197.887 77.7604C197.882 77.6095 197.93 77.4618 198.023 77.3428C198.116 77.2239 198.247 77.1413 198.395 77.1095C206.529 75.3342 206.643 74.0041 207.526 63.6491C207.628 62.4592 207.739 61.1561 207.873 59.7234C207.887 59.565 207.959 59.4174 208.075 59.3095C208.192 59.2017 208.345 59.1414 208.503 59.1407C208.661 59.1391 208.815 59.1951 208.934 59.2984C209.054 59.4016 209.133 59.545 209.155 59.7018L209.424 61.782C210.924 73.5859 211.115 75.0995 219.859 76.4215C220.007 76.445 220.142 76.5195 220.242 76.6322C220.341 76.7449 220.398 76.8888 220.403 77.0391C220.409 77.1894 220.361 77.3368 220.27 77.456C220.178 77.5752 220.048 77.6587 219.902 77.6923C211.261 79.5809 211.164 81.0945 210.423 92.9712L210.289 95.0621C210.281 95.2214 210.213 95.3718 210.099 95.4833C209.985 95.5948 209.834 95.6592 209.675 95.6638L209.629 95.6611ZM199.539 77.6977C207.421 79.0467 207.768 81.3751 209.233 91.0907C209.335 91.7652 209.443 92.4792 209.556 93.2329L209.578 92.9091C210.294 81.4533 210.445 79.044 218.733 77.0825C210.337 75.6553 210.033 73.2621 208.589 61.8791L208.546 61.5554C208.479 62.3135 208.42 63.0285 208.361 63.7138C207.518 73.5049 207.318 75.8414 199.539 77.6977Z" fill="#242426"/>
</svg>
