<svg width="78" height="110" viewBox="0 0 78 110" fill="none" xmlns="http://www.w3.org/2000/svg">
<path fill-rule="evenodd" clip-rule="evenodd" d="M31.6327 0.1648C31.387 0.322628 31.3836 0.692685 31.6111 2.50362C31.9952 5.56083 31.7857 9.61555 31.1059 12.2806C29.605 18.1651 26.6313 22.7071 18.26 31.9017C11.7516 39.0502 9.85797 41.3787 7.24313 45.4483C-1.18455 58.5641 -2.35365 75.2865 4.23951 88.4092C11.8816 103.62 28.4491 112.197 44.9983 109.511C58.0454 107.394 69.4413 98.2522 74.7946 85.6083C76.9299 80.5651 77.7884 76.6762 77.9726 71.2135C78.2436 63.1734 76.5006 55.3914 72.804 48.1361C71.4425 45.4637 69.0512 41.7873 68.545 41.5881C67.8219 41.3034 67.6441 41.7002 67.6441 43.5984C67.6441 46.956 66.6781 49.3565 64.5173 51.3685C60.6571 54.9631 55.1637 54.7261 51.5512 50.8092C48.7626 47.7854 48.4268 45.5422 49.7027 38.46C50.1182 36.1538 50.518 33.5897 50.5912 32.7618C50.7525 30.9386 50.3925 26.7996 49.8431 24.1609C47.9148 14.8978 42.236 6.84646 33.2643 0.65527C32.193 -0.0839828 32.0751 -0.119462 31.6327 0.1648ZM34.5426 54.533C34.6598 54.7588 34.6653 56.07 34.5564 57.8122C34.3683 60.8223 34.593 65.4939 35.0047 67.1283C35.4204 68.779 36.1183 70.3786 37.0591 71.8371C40.9763 77.9105 49.4623 79.1808 55.2177 74.5554C55.7867 74.0981 56.3807 73.7239 56.5378 73.7239C57.2411 73.7239 58.148 76.4021 58.5228 79.5864C59.2378 85.6606 56.9806 91.7408 52.353 96.2062C44.0434 104.225 30.8068 103.228 23.6559 94.0457C20.4025 89.868 19.0215 84.8659 19.5181 79.0609C20.0869 72.4153 22.0916 67.6119 26.8026 61.6069C28.9104 58.9202 33.5056 54.1518 33.984 54.1546C34.1839 54.1557 34.4353 54.326 34.5426 54.533Z" fill="#CBC7F7"/>
</svg>
