<svg width="26" height="33" viewBox="0 0 26 33" fill="none" xmlns="http://www.w3.org/2000/svg">
<path d="M23.6364 9.65531V21.6106C22.7351 21.0903 21.6874 20.8819 20.6557 21.0177C19.6239 21.1535 18.6659 21.626 17.93 22.3618C17.1942 23.0977 16.7217 24.0558 16.5859 25.0875C16.4501 26.1193 16.6585 27.167 17.1788 28.0682C17.6992 28.9694 18.5023 29.6738 19.4637 30.072C20.4252 30.4702 21.4911 30.54 22.4963 30.2707C23.5015 30.0013 24.3897 29.4078 25.0232 28.5822C25.6567 27.7566 26 26.745 26 25.7044V1.89313C26.0004 1.58973 25.9277 1.29069 25.7882 1.02128C25.6486 0.751866 25.4463 0.519985 25.1983 0.345217C24.9503 0.17045 24.6639 0.0579278 24.3632 0.0171535C24.0626 -0.0236207 23.7565 0.00855016 23.4709 0.110949L8.34364 5.51422C7.97692 5.6457 7.65976 5.88724 7.43553 6.20582C7.2113 6.5244 7.09094 6.90446 7.09091 7.29404V23.9718C6.18978 23.4516 5.14217 23.2432 4.11052 23.3789C3.07888 23.5147 2.12085 23.987 1.38499 24.7227C0.649129 25.4584 0.17656 26.4163 0.040559 27.4479C-0.095442 28.4795 0.112725 29.5272 0.63278 30.4285C1.15284 31.3297 1.95572 32.0342 2.91693 32.4327C3.87815 32.8312 4.94398 32.9014 5.94916 32.6324C6.95434 32.3635 7.8427 31.7704 8.47648 30.9451C9.11026 30.1199 9.45405 29.1086 9.45455 28.068V14.7206L23.6364 9.65531Z" fill="#F9F3E9"/>
</svg>
