<svg width="105" height="105" viewBox="0 0 105 105" fill="none" xmlns="http://www.w3.org/2000/svg">
<path d="M41.544 0.956098L50.1282 7.24405L58.0082 0.0932455L64.2292 8.72613L73.9332 4.36034L77.182 14.4931L87.7602 13.3397L87.7188 23.9805L98.1356 26.1523L94.8081 36.2595L104.044 41.5441L97.756 50.1283L104.907 58.0083L96.274 64.2293L100.64 73.9333L90.507 77.1821L91.6604 87.7603L81.0196 87.7189L78.8478 98.1357L68.7406 94.8082L63.456 104.044L54.8718 97.7561L46.9918 104.907L40.7708 96.274L31.0668 100.64L27.818 90.5071L17.2398 91.6605L17.2812 81.0197L6.86435 78.8478L10.1919 68.7406L0.956012 63.4561L7.24396 54.8719L0.0931594 46.9919L8.72604 40.7709L4.36025 31.0669L14.493 27.8181L13.3396 17.2399L23.9804 17.2813L26.1522 6.86443L36.2594 10.192L41.544 0.956098Z" fill="#4953E9"/>
</svg>
