<svg width="205" height="176" viewBox="0 0 205 176" fill="none" xmlns="http://www.w3.org/2000/svg">
<path opacity="0.2" d="M98.3746 125.353C98.3746 140.125 93.9319 152.364 85.0464 162.072C76.161 171.357 64.1022 176 48.87 176C30.676 176 17.9825 170.302 10.7895 158.906C3.59649 147.511 0 133.794 0 117.755C0 105.516 2.5387 91.7986 7.6161 76.6043C13.1166 61.4101 19.8865 46.8489 27.9257 32.9209C36.388 18.9928 45.0619 8.01918 53.9474 0L72.3529 5.69784C67.6987 12.8729 63.2559 21.9473 59.0248 32.9209C54.7936 43.4724 51.4087 54.235 48.87 65.2086C46.3313 76.1822 45.0619 86.1007 45.0619 94.964C48.4468 92.8537 51.8318 91.5875 55.2167 91.1655C59.0248 90.3214 62.8328 89.8993 66.6409 89.8993C74.6801 89.8993 81.8731 93.9089 88.2198 101.928C94.9897 109.525 98.3746 117.333 98.3746 125.353ZM205 125.353C205 140.125 200.557 152.364 191.672 162.072C182.786 171.357 170.728 176 155.495 176C137.301 176 124.608 170.302 117.415 158.906C110.222 147.511 106.625 133.794 106.625 117.755C106.625 105.516 109.164 91.7986 114.241 76.6043C119.742 61.4101 126.512 46.8489 134.551 32.9209C143.013 18.9928 151.687 8.01918 160.573 0L178.978 5.69784C174.324 12.8729 169.881 21.9473 165.65 32.9209C161.419 43.4724 158.034 54.235 155.495 65.2086C152.957 76.1822 151.687 86.1007 151.687 94.964C155.072 92.8537 158.457 91.5875 161.842 91.1655C165.65 90.3214 169.458 89.8993 173.266 89.8993C181.305 89.8993 188.498 93.9089 194.845 101.928C201.615 109.525 205 117.333 205 125.353Z" fill="white"/>
</svg>
