<svg width="50" height="69" viewBox="0 0 50 69" fill="none" xmlns="http://www.w3.org/2000/svg">
<path fill-rule="evenodd" clip-rule="evenodd" d="M20.2774 0.103375C20.1199 0.202376 20.1177 0.434502 20.2635 1.57045C20.5097 3.48816 20.3755 6.03157 19.9397 7.70326C18.9776 11.3945 17.0713 14.2435 11.7051 20.0111C7.5331 24.4951 6.31921 25.9557 4.64303 28.5084C-0.75933 36.7357 -1.50875 47.2252 2.71764 55.4567C7.6164 64.9978 18.2366 70.3783 28.8451 68.6936C37.2086 67.3654 44.5137 61.6309 47.9452 53.6998C49.314 50.5363 49.8644 48.0969 49.9825 44.6703C50.1561 39.6269 49.0389 34.7455 46.6693 30.1944C45.7964 28.5182 44.2636 26.212 43.9391 26.0871C43.4756 25.9085 43.3616 26.1574 43.3616 27.3481C43.3616 29.4542 42.7424 30.96 41.3573 32.2221C38.8827 34.4768 35.3613 34.3282 33.0457 31.8713C31.2581 29.9744 31.0428 28.5674 31.8607 24.1249C32.1271 22.6783 32.3833 21.0699 32.4302 20.5506C32.5336 19.407 32.3029 16.8107 31.9507 15.1554C30.7146 9.345 27.0743 4.2946 21.3233 0.411033C20.6365 -0.0526802 20.561 -0.0749352 20.2774 0.103375ZM22.1427 34.2071C22.2178 34.3487 22.2214 35.1712 22.1515 36.264C22.031 38.1522 22.175 41.0825 22.4389 42.1077C22.7054 43.1432 23.1527 44.1466 23.7558 45.0615C26.2669 48.8711 31.7066 49.668 35.396 46.7666C35.7607 46.4797 36.1415 46.245 36.2422 46.245C36.693 46.245 37.2744 47.9249 37.5146 49.9224C37.973 53.7325 36.526 57.5465 33.5596 60.3475C28.2329 65.3774 19.7479 64.7523 15.164 58.9923C13.0786 56.3717 12.1932 53.234 12.5116 49.5927C12.8762 45.4241 14.1613 42.4111 17.1811 38.6443C18.5323 36.959 21.4779 33.9679 21.7846 33.9697C21.9128 33.9704 22.0739 34.0772 22.1427 34.2071Z" fill="white"/>
</svg>
