<svg width="3557" height="5007" viewBox="0 0 3557 5007" fill="none" xmlns="http://www.w3.org/2000/svg">
<path fill-rule="evenodd" clip-rule="evenodd" d="M1442.53 7.5014C1431.33 14.6854 1431.17 31.5297 1441.55 113.96C1459.06 253.119 1449.51 437.682 1418.51 558.989C1350.07 826.843 1214.46 1033.58 832.703 1452.11C535.905 1777.49 449.549 1883.48 330.305 2068.72C-54.0187 2665.73 -107.333 3426.91 193.333 4024.23C541.831 4716.58 1297.35 5107.02 2052.04 4984.76C2647.02 4888.39 3166.7 4472.26 3410.82 3896.74C3508.2 3667.18 3547.35 3490.16 3555.75 3241.51C3568.11 2875.54 3488.62 2521.32 3320.05 2191.07C3257.96 2069.43 3148.91 1902.08 3125.83 1893.02C3092.85 1880.06 3084.74 1898.12 3084.74 1984.52C3084.74 2137.35 3040.69 2246.62 2942.15 2338.2C2766.12 2501.82 2515.61 2491.03 2350.87 2312.74C2223.7 2175.1 2208.39 2073 2266.57 1750.63C2285.52 1645.66 2303.75 1528.94 2307.09 1491.26C2314.44 1408.27 2298.03 1219.87 2272.97 1099.76C2185.04 678.122 1926.07 311.639 1516.94 29.8267C1468.08 -3.82274 1462.71 -5.43769 1442.53 7.5014ZM1575.23 2482.24C1580.58 2492.52 1580.83 2552.21 1575.86 2631.5C1567.28 2768.52 1577.53 2981.16 1596.31 3055.56C1615.26 3130.7 1647.09 3203.51 1689.99 3269.89C1868.63 3546.34 2255.61 3604.17 2518.07 3393.63C2544.02 3372.81 2571.1 3355.78 2578.27 3355.78C2610.34 3355.78 2651.7 3477.68 2668.79 3622.63C2701.4 3899.11 2598.46 4175.88 2387.43 4379.13C2008.49 4744.13 1404.87 4698.76 1078.77 4280.79C930.408 4090.63 867.427 3862.94 890.077 3598.71C916.014 3296.21 1007.44 3077.57 1222.27 2804.23C1318.39 2681.94 1527.94 2464.89 1549.76 2465.02C1558.87 2465.07 1570.34 2472.82 1575.23 2482.24Z" fill="#F9F3E9"/>
</svg>
