<svg width="20" height="20" viewBox="0 0 20 20" fill="none" xmlns="http://www.w3.org/2000/svg">
<path d="M20 7.18561L12.91 0V4.45282C12.5175 4.49498 12.1249 4.54774 11.7325 4.59343C10.7155 4.76679 9.71898 5.04613 8.75892 5.42722C6.82634 6.22049 5.07009 7.39725 3.59343 8.88816C2.13606 10.3398 1.06118 12.1379 0.46705 14.1185C-0.0602951 15.982 -0.142385 17.9459 0.227456 19.8481C0.24467 19.9225 0.302823 19.9802 0.376796 19.996C0.425645 20.0063 0.47659 19.9964 0.518227 19.9689C0.559866 19.9411 0.588944 19.8978 0.598948 19.8481C0.916237 18.1383 1.56175 16.5084 2.49919 15.0505C3.36939 13.7206 4.54461 12.6235 5.92427 11.8533C7.26599 11.1286 8.72473 10.6521 10.2319 10.4465C10.9753 10.3233 11.722 10.2248 12.4794 10.1476L12.9102 10.109L12.91 14.3575L20 7.18561Z" fill="#652FEB"/>
</svg>
