<svg width="132" height="132" viewBox="0 0 132 132" fill="none" xmlns="http://www.w3.org/2000/svg">
<path d="M66 0L72.0434 8.50072L79.7222 1.44226L83.8661 11.0137L92.8446 5.706L94.908 15.9299L104.794 12.6049L104.686 23.0343L115.048 21.8374L112.774 32.0166L123.158 33L118.818 42.4841L128.77 45.6049L122.553 53.9794L131.638 59.1011L123.816 66L131.638 72.8989L122.553 78.0206L128.77 86.3951L118.818 89.5159L123.158 99L112.774 99.9834L115.048 110.163L104.686 108.966L104.794 119.395L94.908 116.07L92.8446 126.294L83.8661 120.986L79.7222 130.558L72.0434 123.499L66 132L59.9566 123.499L52.2778 130.558L48.1339 120.986L39.1554 126.294L37.092 116.07L27.2062 119.395L27.3135 108.966L16.9524 110.163L19.2259 99.9834L8.84232 99L13.1825 89.5159L3.23027 86.3951L9.44742 78.0206L0.361557 72.8989L8.184 66L0.361557 59.1011L9.44742 53.9794L3.23027 45.6049L13.1825 42.4841L8.84232 33L19.2259 32.0166L16.9524 21.8374L27.3135 23.0343L27.2062 12.6049L37.092 15.9299L39.1554 5.706L48.1339 11.0137L52.2778 1.44226L59.9566 8.50072L66 0Z" fill="#652FEB"/>
</svg>
