<svg width="177" height="104" viewBox="0 0 177 104" fill="none" xmlns="http://www.w3.org/2000/svg">
<path d="M176.157 68.7454L165.184 71.8998L169.491 82.4867L158.224 80.3569L158.338 91.8389L148.187 86.4689L145.632 97.6869L136.677 90.4828L132.38 101.163L124.491 92.799L118.941 102.888L112.009 93.7138L105.482 103.196L99.4312 93.4098L92.0943 102.285L86.8937 92.0201L78.8584 100.259L74.4945 89.6099L65.8273 97.1791L62.3449 86.201L53.0729 93.0085L50.5737 81.772L40.7052 87.6805L39.3389 76.2471L28.8914 81.0468L28.9076 69.5346L17.9062 72.8595L19.7399 61.5014L8.31644 62.6729L12.7238 52.0699L1.47965 49.824L9.43778 41.6258L0.44558 34.5905L11.4184 31.4361L7.11179 20.8492L18.3785 22.979L18.264 11.497L28.4159 16.867L30.975 5.64988L39.9253 12.853L44.2229 2.17308L52.1116 10.5369L57.6615 0.447911L64.5981 9.62297L71.1201 0.139997L77.1713 9.92607L84.5081 1.05097L89.7087 11.3158L97.7485 3.07784L102.112 13.7269L110.78 6.15763L114.258 17.1349L123.534 10.3282L126.033 21.5647L135.897 15.6554L137.264 27.0888L147.711 22.2891L147.695 33.8013L158.696 30.4764L156.863 41.8345L168.29 40.6638L163.884 51.2624L175.128 53.5083L167.165 61.7101L176.157 68.7454Z" fill="#652FEB"/>
</svg>
