<svg width="315" height="315" viewBox="0 0 315 315" fill="none" xmlns="http://www.w3.org/2000/svg">
<path d="M157.5 0L178.689 23.7176L206.17 7.7086L218.993 36.8132L250.076 30.0798L253.278 61.7224L284.92 64.9238L278.187 96.007L307.291 108.83L291.282 136.311L315 157.5L291.282 178.689L307.291 206.17L278.187 218.993L284.92 250.076L253.278 253.278L250.076 284.92L218.993 278.187L206.17 307.291L178.689 291.282L157.5 315L136.311 291.282L108.83 307.291L96.007 278.187L64.9238 284.92L61.7224 253.278L30.0798 250.076L36.8132 218.993L7.7086 206.17L23.7176 178.689L0 157.5L23.7176 136.311L7.7086 108.83L36.8132 96.007L30.0798 64.9238L61.7224 61.7224L64.9238 30.0798L96.007 36.8132L108.83 7.7086L136.311 23.7176L157.5 0Z" fill="#CBC7F7"/>
</svg>
