<svg width="46" height="60" viewBox="0 0 46 60" fill="none" xmlns="http://www.w3.org/2000/svg">
<path d="M18.6424 1.36561C18.5083 0.377828 18.5103 0.175979 18.6552 0.089891C18.9161 -0.065161 18.9856 -0.0458089 19.6174 0.35742C24.9084 3.73443 28.2575 8.12609 29.3946 13.1787C29.7187 14.618 29.9309 16.8756 29.8358 17.8701C29.7927 18.3216 29.5569 19.7203 29.3119 20.9782C28.5594 24.8412 28.7574 26.0647 30.402 27.7141C32.5324 29.8506 35.7721 29.9799 38.0487 28.0192C39.323 26.9217 39.8927 25.6124 39.8927 23.7809C39.8927 22.7455 39.9976 22.5292 40.424 22.6844C40.7225 22.7931 42.1327 24.7984 42.9357 26.256C45.1158 30.2135 46.1436 34.4582 45.9839 38.8438C45.8752 41.8234 45.3689 43.9446 44.1096 46.6955C40.9526 53.5921 34.2319 58.5786 26.5375 59.7336C16.7777 61.1986 7.00709 56.5198 2.50023 48.2232C-1.38805 41.0654 -0.698583 31.9441 4.27159 24.79C5.81367 22.5702 6.93045 21.3001 10.7687 17.4009C15.7056 12.3857 17.4594 9.90825 18.3445 6.69849C18.7454 5.24484 18.8689 3.03318 18.6424 1.36561Z" fill="#949AF6"/>
</svg>
