<svg width="36" height="46" viewBox="0 0 36 46" fill="none" xmlns="http://www.w3.org/2000/svg">
<path d="M14.5897 1.04697C14.4847 0.289668 14.4863 0.134917 14.5997 0.0689164C14.8039 -0.0499568 14.8583 -0.0351201 15.3528 0.274022C19.4935 2.86307 22.1145 6.23 23.0045 10.1036C23.2581 11.2071 23.4242 12.938 23.3498 13.7004C23.316 14.0466 23.1315 15.1189 22.9397 16.0833C22.3508 19.0449 22.5058 19.983 23.7929 21.2475C25.4602 22.8855 27.9956 22.9846 29.7772 21.4814C30.7745 20.64 31.2203 19.6361 31.2203 18.2321C31.2203 17.4383 31.3024 17.2724 31.6362 17.3914C31.8698 17.4747 32.9734 19.0121 33.6019 20.1296C35.308 23.1637 36.1124 26.418 35.9874 29.7802C35.9024 32.0646 35.5061 33.6909 34.5206 35.7999C32.0498 41.0873 26.7902 44.9103 20.7685 45.7957C13.1303 46.9189 5.48381 43.3318 1.9567 36.9711C-1.0863 31.4835 -0.546717 24.4904 3.34298 19.0056C4.54983 17.3038 5.42383 16.3301 8.42769 13.3407C12.2914 9.49569 13.6639 7.59632 14.3566 5.13551C14.6703 4.02105 14.767 2.32544 14.5897 1.04697Z" fill="#FFC24C"/>
</svg>
