<svg width="100" height="62" viewBox="0 0 100 62" fill="none" xmlns="http://www.w3.org/2000/svg">
<path d="M7.20156 50.7955C10.9305 47.8678 20.1151 40.4484 28.4945 42.3128C36.8739 44.1772 40.4692 45.8291 49.0848 40.9134C57.7003 35.9977 56.3803 19.6544 48.286 22.1617C40.4643 24.5845 50.6453 45.3192 66.9991 39.097C82.485 33.205 76.1634 19.8624 70.3262 17.1731C63.8233 14.177 60.2063 21.6444 68.4637 27.6262C75.9761 33.0683 84.442 26.2865 88.0233 19.2159C91.5424 12.2682 89.7262 4.32142 88.7457 0.385431" stroke="#1D1D1B" stroke-width="2"/>
<path d="M8.91973 49.4847C10.7268 49.0569 15.238 47.1597 22.0974 50.2756" stroke="#1D1D1B" stroke-width="2"/>
<path d="M8.59051 49.6831C9.7125 48.1743 13.4595 44.9532 13.485 37.2851" stroke="#1D1D1B" stroke-width="2"/>
</svg>
