<svg width="182" height="113" viewBox="0 0 182 113" fill="none" xmlns="http://www.w3.org/2000/svg">
<path d="M12.027 93.5857C18.892 88.1957 35.8008 74.5368 51.2273 77.9691C66.6537 81.4014 73.2726 84.4426 89.1337 75.3928C104.995 66.3431 102.565 36.2552 87.6631 40.8711C73.2635 45.3315 92.0066 83.5039 122.114 72.0488C150.623 61.2017 138.985 36.638 128.239 31.687C116.267 26.1713 109.608 39.9187 124.81 50.9311C138.64 60.9499 154.226 48.4647 160.819 35.4479C167.298 22.6571 163.954 8.02723 162.149 0.781115" stroke="#1D1D1B" stroke-width="2"/>
<path d="M15.1886 91.1762C18.5154 90.3886 26.8205 86.8959 39.4486 92.6322" stroke="#1D1D1B" stroke-width="2"/>
<path d="M14.5797 91.5376C16.6453 88.7598 23.5436 82.8298 23.5905 68.7129" stroke="#1D1D1B" stroke-width="2"/>
</svg>
