<svg width="128" height="128" viewBox="0 0 128 128" fill="none" xmlns="http://www.w3.org/2000/svg">
<path d="M64 0L68.8128 25.9028L79.9162 2.01068L78.136 28.2966L94.8322 7.91637L86.571 32.9337L107.811 17.346L93.5877 39.5229L118.037 29.7071L98.7454 47.6501L124.868 44.2229L101.72 56.8046L127.874 59.9814L102.324 66.4112L126.866 75.9924L100.521 75.8663L121.909 91.2499L96.4222 84.5758L113.313 104.795L90.2866 91.9924L101.618 115.777L82.4993 97.6502L87.56 123.506L73.5497 101.194L72.0213 127.495L64 102.4L55.9787 127.495L54.4503 101.194L40.44 123.506L45.5007 97.6502L26.3817 115.777L37.7134 91.9924L14.6872 104.795L31.5778 84.5758L6.09107 91.2499L27.4794 75.8663L1.13362 75.9924L25.6758 66.4112L0.126289 59.9814L26.2802 56.8046L3.13238 44.2229L29.2546 47.6501L9.96301 29.7071L34.4123 39.5229L20.189 17.346L41.429 32.9337L33.1678 7.91637L49.864 28.2966L48.0838 2.01068L59.1872 25.9028L64 0Z" fill="#F9F3E9"/>
</svg>
