<svg width="141" height="141" viewBox="0 0 141 141" fill="none" xmlns="http://www.w3.org/2000/svg">
<path d="M103.438 132.627L85.8813 124.064L75.1716 140.4L62.6159 125.436L46.1876 136.003L40.8038 117.226L21.4975 120.198L24.2165 100.855L5.37039 95.7174L15.7221 79.1521L0.594906 66.7934L16.7894 55.8707L7.99673 38.4277L27.2338 35.0362L26.296 15.5249L45.2494 20.251L52.3286 2.04516L67.7212 14.0717L81.5933 0.319216L90.7635 17.5667L109.03 10.6455L110.392 30.1317L129.894 31.2385L123.213 49.5941L140.579 58.5376L127.01 72.5887L139.237 87.8224L121.125 95.1394L126.099 114.029L106.577 113.347L103.438 132.627Z" fill="#F9F3E9"/>
</svg>
