<svg width="90" height="21" viewBox="0 0 90 21" fill="none" xmlns="http://www.w3.org/2000/svg">
<path d="M0.932 21V0.979999H6.7V8.904L12.72 0.979999H18.712L11.376 10.276L19.104 21H12.468L6.7 12.628V21H0.932ZM21.3604 21V0.979999H27.1564V21H21.3604ZM31.0922 21V0.979999H37.5602L43.9722 12.264V0.979999H48.9842V21H43.4402L36.1322 8.428V21H31.0922ZM52.8578 21V0.979999H58.6258V8.904L64.6458 0.979999H70.6378L63.3018 10.276L71.0298 21H64.3938L58.6258 12.628V21H52.8578ZM77.9902 21V12.432L71.4662 0.979999H77.7102L81.0982 7.728L84.4862 0.979999H89.9742L83.7582 12.432V21H77.9902Z" fill="#F9F3E9"/>
</svg>
