<svg width="93" height="40" viewBox="0 0 93 40" fill="none" xmlns="http://www.w3.org/2000/svg">
<path d="M5.19408 39.9858L10.822 38.7222L8.98805 30.5536L16.4499 37.4587L22.9247 36.0051L13.0353 27.2344L18.1567 16.5572L12.3103 17.8698L8.17228 26.92L6.43648 19.1885L0.808568 20.452L5.19408 39.9858ZM25.1263 35.5108L30.7816 34.2411L26.396 14.7074L20.7408 15.977L25.1263 35.5108ZM34.6217 33.379L39.5393 32.2749L36.7853 20.0083L46.6698 30.6741L52.0792 29.4596L47.6936 9.92586L42.8034 11.0238L45.2752 22.0337L36.5471 12.4284L30.2362 13.8452L34.6217 33.379ZM55.8587 28.6111L61.4866 27.3476L59.6527 19.1789L67.1145 26.084L73.5893 24.6304L63.6999 15.8597L68.8213 5.18249L62.9749 6.49508L58.8369 15.5453L57.1011 7.8138L51.4732 9.07732L55.8587 28.6111ZM80.3807 23.1057L86.0086 21.8421L84.1317 13.4822L87.6881 0.946726L82.3334 2.14891L80.5059 9.47518L75.722 3.63324L69.6296 5.00103L78.5038 14.7458L80.3807 23.1057Z" fill="#0A0517"/>
</svg>
