<svg width="97" height="99" viewBox="0 0 97 99" fill="none" xmlns="http://www.w3.org/2000/svg">
<path d="M56.605 17.5904L68.9062 7.12599L68.3946 23.268L68.3522 24.6062L69.6474 24.267L85.2708 20.1763L77.806 34.4977L77.1872 35.685L78.5013 35.9414L94.3524 39.0345L81.4131 48.6988L80.3404 49.5L81.4131 50.3012L94.3524 59.9655L78.5013 63.0586L77.1872 63.315L77.806 64.5023L85.2708 78.8237L69.6474 74.733L68.3522 74.3938L68.3946 75.732L68.9063 91.874L56.605 81.4096L55.5852 80.5421L55.0427 81.7662L48.5 96.5316L41.9573 81.7662L41.4148 80.5421L40.395 81.4096L28.0938 91.874L28.6054 75.732L28.6478 74.3938L27.3526 74.733L11.7292 78.8237L19.194 64.5023L19.8128 63.315L18.4987 63.0586L2.64758 59.9655L15.5869 50.3012L16.6596 49.5L15.5869 48.6988L2.64758 39.0345L18.4987 35.9414L19.8128 35.685L19.194 34.4977L11.7292 20.1763L27.3526 24.267L28.6478 24.6062L28.6054 23.268L28.0938 7.12599L40.395 17.5904L41.4148 18.4579L41.9573 17.2338L48.5 2.4684L55.0427 17.2338L55.5852 18.4579L56.605 17.5904Z" stroke="#0A0517" stroke-width="2"/>
</svg>
