<svg width="176" height="180" viewBox="0 0 176 180" fill="none" xmlns="http://www.w3.org/2000/svg">
<path d="M88 0L101.558 30.5976L127.05 8.9128L125.989 42.363L158.365 33.8859L142.896 63.5635L175.744 69.9731L148.93 90L175.744 110.027L142.896 116.437L158.365 146.114L125.989 137.637L127.05 171.087L101.558 149.402L88 180L74.4418 149.402L48.9505 171.087L50.0108 137.637L17.6352 146.114L33.104 116.437L0.256485 110.027L27.07 90L0.256485 69.9731L33.104 63.5635L17.6352 33.8859L50.0108 42.363L48.9505 8.9128L74.4418 30.5976L88 0Z" fill="#949AF6"/>
</svg>
