<svg width="170" height="122" viewBox="0 0 170 122" fill="none" xmlns="http://www.w3.org/2000/svg">
<path d="M164.164 71.6305C163.965 71.4314 163.751 71.247 163.537 71.0627C163.322 70.8783 163.116 70.6792 162.902 70.4949C162.687 70.3105 162.488 70.1114 162.274 69.9196L161.639 69.3518C161.44 69.1527 161.225 68.9683 161.011 68.784C160.797 68.5996 160.59 68.4005 160.376 68.2161C160.162 68.0318 159.963 67.8327 159.749 67.6409C159.535 67.4492 159.328 67.2575 159.114 67.0731C158.9 66.8887 158.7 66.6896 158.486 66.5052C158.272 66.3209 158.065 66.1218 157.851 65.93C157.637 65.7383 157.438 65.5539 157.224 65.3622C157.009 65.1705 156.803 64.9787 156.589 64.7943C156.374 64.61 156.175 64.4109 155.961 64.2265C155.747 64.0422 155.54 63.843 155.326 63.6513C155.112 63.4596 154.912 63.2678 154.698 63.0835C154.484 62.8991 154.277 62.7 154.063 62.5156C153.849 62.3313 153.65 62.1321 153.436 61.9404C153.222 61.7487 153.015 61.5643 152.801 61.3726C152.587 61.1809 152.387 60.9891 152.173 60.8048C151.959 60.6204 151.752 60.4213 151.538 60.2295C150.599 59.3014 149.539 58.5051 148.385 57.8623C146.134 56.6477 143.596 56.0617 141.039 56.1662L140.847 55.9966C140.633 55.8122 140.448 55.5983 140.212 55.4287C139.975 55.2591 139.813 55.0305 139.584 54.8535C139.355 54.6765 139.185 54.4553 138.949 54.2857C138.713 54.116 138.602 53.9317 138.403 53.7842C142.345 54.9305 146.46 55.3675 150.556 55.0747C154.521 54.7798 157.637 53.799 160.081 52.0807C163.404 49.7356 165.25 45.9009 164.755 42.3242C164.349 39.796 163.005 37.5132 160.989 35.9305C160.79 35.7388 160.583 35.547 160.362 35.3627C160.14 35.1783 159.948 34.9718 159.727 34.7948C159.505 34.6178 159.32 34.404 159.099 34.2196C158.877 34.0353 158.693 33.8361 158.471 33.6518C158.25 33.4674 158.058 33.2683 157.836 33.0839C157.615 32.8996 157.423 32.6931 157.201 32.5161C156.98 32.3391 156.795 32.1253 156.574 31.9409C156.352 31.7565 156.168 31.5574 155.946 31.373C155.725 31.1887 155.533 30.9822 155.311 30.8052C155.09 30.6282 154.905 30.4144 154.676 30.23C154.447 30.0456 154.27 29.8466 154.049 29.6622C153.827 29.4778 153.642 29.2713 153.421 29.0943C153.199 28.9174 153.007 28.7035 152.786 28.5265C152.564 28.3495 152.38 28.1357 152.158 27.9513C151.937 27.7669 151.745 27.5678 151.523 27.3834C151.302 27.1991 151.117 26.9926 150.896 26.8156C150.674 26.6386 150.482 26.4248 150.261 26.2404C150.039 26.056 149.855 25.8569 149.633 25.6726C149.412 25.4882 149.22 25.2817 148.998 25.1047C148.777 24.9277 148.592 24.7139 148.371 24.5295C147.561 23.763 146.652 23.1082 145.668 22.5826C142.979 21.2668 140.016 20.6095 137.022 20.6653C131.638 20.6041 126.304 21.6928 121.376 23.8584L121.051 23.5856C117.606 20.5346 113.793 17.9237 109.702 15.8128C105.313 13.5736 100.401 12.5548 95.4816 12.863C93.4195 13.047 91.3977 13.5443 89.4861 14.3379C89.3088 14.1683 89.1243 14.0134 88.9397 13.8586C88.7551 13.7037 88.5262 13.4751 88.3121 13.2908C88.0979 13.1064 87.8912 12.8999 87.677 12.7155C87.4629 12.5312 87.2636 12.3321 87.0495 12.1477C86.8353 11.9634 86.6286 11.7642 86.4145 11.5799C86.2003 11.3955 86.001 11.1964 85.7868 11.0046C85.5727 10.8129 85.366 10.6212 85.1519 10.4368C84.9377 10.2524 84.7384 10.0533 84.5242 9.86897C84.3101 9.68461 84.1034 9.48551 83.8893 9.30115C83.6751 9.11678 83.4758 8.9103 83.2617 8.72593C83.0475 8.54157 82.8408 8.34244 82.6266 8.15808C82.4125 7.97372 82.2132 7.77462 81.9991 7.59025C81.7849 7.40589 81.5782 7.20678 81.3641 7.01504C81.1499 6.8233 80.9506 6.63155 80.7364 6.44719C80.5223 6.26283 80.3156 6.06372 80.1015 5.87936C79.8873 5.695 79.688 5.49589 79.4738 5.30415C79.2597 5.11241 79.053 4.92068 78.8389 4.73632C78.6247 4.55196 78.4254 4.35283 78.2112 4.16847C77.9971 3.9841 77.7904 3.785 77.5762 3.60064C77.3621 3.41627 77.1628 3.20979 76.9486 3.02543C75.646 1.6739 73.9874 0.717769 72.164 0.267364C67.7339 -0.80194 62.8902 1.35879 58.6077 6.34396C49.6292 16.7936 46.0555 30.1563 43.3014 43.0543C36.832 47.1577 29.8515 50.3957 22.5386 52.6854C21.969 52.8616 21.4785 53.2302 21.1511 53.728C20.8238 54.2258 20.68 54.8219 20.7444 55.414C20.7884 55.7964 20.919 56.1638 21.1262 56.4883C21.3335 56.8128 21.6119 57.086 21.9405 57.2871C22.1175 57.5119 22.3324 57.704 22.5755 57.8549C22.7497 58.0796 22.9622 58.2718 23.2031 58.4228C23.3799 58.6498 23.5947 58.8444 23.8381 58.998C24.0143 59.2207 24.2264 59.4126 24.4657 59.5658C24.6427 59.7906 24.8576 59.9827 25.1007 60.1336C25.2747 60.3605 25.4871 60.5552 25.7283 60.7089C25.9073 60.9318 26.1218 61.1236 26.3633 61.2767C26.5375 61.5014 26.75 61.6935 26.991 61.8445C27.1679 62.0693 27.3828 62.2615 27.6259 62.4124C27.7999 62.6392 28.0123 62.8339 28.2535 62.9876C28.4325 63.2105 28.647 63.4023 28.8885 63.5554C29.0627 63.7801 29.2752 63.9723 29.5161 64.1233C29.6929 64.3503 29.9078 64.5449 30.1511 64.6985C30.3274 64.9212 30.5394 65.1131 30.7787 65.2663C30.9557 65.4911 31.1706 65.6833 31.4137 65.8342C31.5898 66.0592 31.8018 66.2535 32.0414 66.4094C32.2194 66.6304 32.4312 66.8221 32.6689 66.9772C32.8477 67.2003 33.0623 67.3922 33.304 67.5451C33.4781 67.7697 33.6906 67.9619 33.9316 68.1129C34.1101 68.3382 34.3246 68.5326 34.5666 68.6881C34.7772 68.9648 35.0426 69.1953 35.3461 69.3652C35.6497 69.5352 35.985 69.6411 36.3313 69.6763C36.5232 69.6763 36.73 69.6763 36.9219 69.6763C36.7669 70.1482 36.6266 70.6276 36.4642 71.0995C26.9188 72.9502 17.8654 76.7706 9.88305 82.3162C2.28529 87.707 -1.25885 94.462 0.402465 100.384C1.02913 102.541 2.28637 104.461 4.01305 105.9C4.21241 106.099 4.42655 106.283 4.64806 106.468C4.86957 106.652 5.06154 106.851 5.27567 107.043C5.4898 107.235 5.68914 107.426 5.91065 107.611C6.13216 107.795 6.32414 107.994 6.53827 108.179C6.75239 108.363 6.95174 108.562 7.17325 108.754C7.39476 108.946 7.58674 109.137 7.80086 109.322C8.01499 109.506 8.21435 109.705 8.42848 109.89C8.6426 110.074 8.84936 110.273 9.06348 110.457C9.27761 110.642 9.47695 110.848 9.69107 111.033C9.9052 111.217 10.112 111.416 10.3261 111.6C10.5402 111.785 10.7396 111.984 10.9537 112.168C11.1678 112.353 11.3745 112.552 11.5887 112.743C11.8028 112.935 12.0022 113.127 12.2237 113.311C12.4452 113.496 12.6371 113.695 12.8513 113.879C13.0654 114.063 13.2648 114.263 13.4789 114.454L14.1139 115.022C14.3132 115.221 14.5274 115.406 14.7415 115.59C14.9556 115.774 15.1624 115.973 15.3765 116.158C15.5906 116.342 15.79 116.549 16.0041 116.733C16.2182 116.917 16.425 117.117 16.6391 117.301C19.7697 120.361 24.5322 121.844 28.6744 121.903H29.0141C42.3046 121.903 52.5826 111.578 57.3525 102.663C58.9246 99.6871 60.234 96.5805 61.2658 93.378C63.7607 93.2516 66.2609 93.2763 68.7528 93.4517C79.7101 94.1892 90.4312 97.5003 100.805 100.679L102.599 101.224C114.258 104.794 125.695 108.002 137.398 108.09C145.048 108.134 151.538 106.785 156.81 104.027C163.396 100.598 168.137 94.757 169.495 88.4076C170.149 85.3896 170.001 82.2533 169.066 79.3102C168.131 76.3671 166.441 73.7196 164.164 71.6305Z" fill="#19154A"/>
<path d="M147.129 60.1135C141.747 57.1268 133.839 59.0884 131.24 64.6561C133.499 65.0396 135.242 67.8715 134.444 69.9879C133.647 72.1044 131.616 73.5277 129.586 74.597C121.722 78.7194 112.404 79.4494 103.485 78.6235C94.5651 77.7975 85.7638 75.4967 76.8296 73.9333C67.2904 72.1439 57.5658 71.5419 47.8784 72.1413C48.9047 67.7166 49.7317 63.1665 50.6842 58.7271C51.3856 55.4749 52.1609 52.2448 53.0322 49.0369C54.8204 48.0764 56.5466 47.0051 58.2007 45.829C67.9243 38.9508 74.7258 28.694 77.2726 17.0684C77.8485 14.2882 78.1513 11.3827 77.3465 8.66147C76.5416 5.94027 74.4373 3.42556 71.5725 2.76185C67.3712 1.75892 63.3323 4.80461 60.5708 8.01253C51.7991 18.1746 48.4617 31.2054 45.6042 44.5754C38.6901 49.0923 31.187 52.6382 23.3056 55.1135C30.2415 55.7343 37.2319 54.9825 43.8764 52.9012C42.3997 59.8701 40.8122 66.8022 38.3978 73.3581C28.7009 75.0632 19.486 78.8362 11.3811 84.4199C6.21251 88.1071 1.25809 93.8666 2.89726 99.6925C4.28538 104.648 10.0742 107.288 15.4494 107.355C26.6947 107.502 36.6626 99.1173 41.8164 89.4788C43.5843 86.1182 45.0139 82.5906 46.0841 78.948C49.2794 78.7116 52.4877 78.7116 55.6829 78.948C67.5705 79.7739 78.9044 83.3727 90.1054 86.8313C101.306 90.29 112.574 93.4684 124.166 93.5864C130.442 93.6306 136.836 92.7015 142.367 89.8106C147.897 86.9198 152.438 81.9273 153.723 75.9318C155.008 69.9363 152.497 63.1001 147.129 60.1135ZM60.3346 27.0535C61.8113 23.3662 64.1445 17.6805 67.2752 14.4283C67.4576 14.2381 67.6926 14.1063 67.9502 14.0498C68.2078 13.9933 68.4765 14.0147 68.7219 14.1112C68.9674 14.2076 69.1785 14.3748 69.3285 14.5915C69.4785 14.8083 69.5605 15.0646 69.5641 15.3281C69.3795 20.9106 65.1708 27.8057 61.4421 31.6183C60.0466 33.0342 58.6068 34.4206 57.1227 35.7554C58.1269 32.8302 59.1975 29.9296 60.3346 27.0535ZM28.5259 91.0348C27.1525 92.6793 25.5724 94.3164 23.4385 94.84C21.3047 95.3636 18.6982 94.2648 18.4915 92.2C18.3069 90.467 19.791 88.9626 21.2382 87.8564C25.3858 84.7207 30.0837 82.3872 35.0899 80.9759C33.2869 84.5644 31.085 87.9386 28.5259 91.0348Z" fill="#FFADE3"/>
<path d="M67.1403 44.4697C63.9653 46.5714 61.6912 49.7056 59.8084 52.9503C58.2578 55.6125 56.8549 58.6656 57.5933 61.6228C57.9305 62.8286 58.5426 63.94 59.3817 64.8701C60.2207 65.8002 61.2639 66.5238 62.4296 66.9841C64.8238 67.9176 67.4465 68.0977 69.9461 67.5003C72.0935 67.0357 74.125 66.1431 75.919 64.876C77.7129 63.6088 79.2325 61.9932 80.3866 60.1258C81.4909 58.2955 82.1937 56.2519 82.4482 54.1301C82.7028 52.0083 82.5034 49.8568 81.8633 47.8177C79.7368 41.3576 72.3679 41.0036 67.1403 44.4697ZM75.1368 48.6289C74.583 53.1937 69.2299 64.5505 66.5865 63.6876C64.3271 62.9502 67.192 54.7866 68.4767 52.0212C69.3333 50.1849 70.5885 47.8546 72.3163 46.6304C74.044 45.4062 75.3657 46.7115 75.1368 48.6289Z" fill="#FFADE3"/>
<path d="M96.755 37.8321C97.3609 37.564 97.8948 37.1568 98.3133 36.6437C98.7319 36.1305 99.0232 35.5259 99.1635 34.879C99.3038 34.2322 99.2892 33.5613 99.1209 32.9212C98.9525 32.281 98.6352 31.6896 98.1948 31.195C97.2349 32.1464 95.3225 31.3499 95.0493 30.0446C94.7762 28.7393 95.7877 27.4341 97.0799 26.94C98.3953 26.5307 99.802 26.5154 101.126 26.8957C105.217 27.8028 108.776 29.9414 112.29 32.2201C111.434 32.8937 110.604 33.5918 109.802 34.3145C102.359 41.1138 96.4522 49.7346 92.2731 58.9232C93.4749 54.2681 93.904 49.4475 93.5431 44.6535C93.52 44.3344 93.4331 44.0231 93.2876 43.738C93.1422 43.4529 92.941 43.1998 92.696 42.9936C92.451 42.7874 92.1672 42.6323 91.8612 42.5375C91.5552 42.4426 91.2333 42.4098 90.9145 42.4412C88.4736 42.6884 86.1195 43.4797 84.0256 44.7568C86.7871 48.2597 86.5582 53.1343 86.0339 57.5442C85.6426 60.7669 85.1922 64.1812 85.8124 67.2785C85.8935 67.681 86.0765 68.056 86.3439 68.3678C86.6112 68.6797 86.9541 68.9179 87.3398 69.0599C87.7255 69.2018 88.1412 69.2428 88.5472 69.1788C88.9532 69.1149 89.3361 68.9481 89.6593 68.6945C94.5177 64.8671 98.3425 60.1695 101.813 55.0516C105.881 49.0561 109.669 42.8468 114.778 37.7584C115.576 36.9619 116.41 36.195 117.274 35.4723C118.455 36.2097 119.644 36.8587 120.877 37.456C125.93 39.8824 131.53 40.9452 137.121 40.5386C140.03 40.3247 142.991 39.6757 145.347 38.0091C147.702 36.3425 149.334 33.5328 148.95 30.7084C148.61 28.2084 146.735 26.0624 144.475 24.8677C142.14 23.7525 139.576 23.1993 136.988 23.2527C131.43 23.2137 125.938 24.4527 120.936 26.8736L119.378 25.5462C116.099 22.6266 112.468 20.127 108.569 18.1053C104.606 16.0643 100.165 15.1269 95.7139 15.3915C91.2837 15.7676 86.8535 17.8251 84.2766 21.3427C81.6997 24.8604 81.1533 29.9045 83.494 33.6065C85.8346 37.3085 92.7161 39.7274 96.755 37.8321ZM133.747 28.5623C134.644 28.4861 135.546 28.6278 136.376 28.9753C136.783 29.1507 137.13 29.4421 137.373 29.8133C137.616 30.1844 137.744 30.6189 137.742 31.0623C137.616 32.3676 136.058 33.0313 134.722 33.1567C131.763 33.3123 128.83 32.5386 126.334 30.9443C126.046 30.7747 125.765 30.5903 125.485 30.4134C128.1 29.2906 130.902 28.663 133.747 28.5623Z" fill="#FFADE3"/>
<path d="M115.716 61.7016C118.273 62.3529 120.967 62.2088 123.439 61.2887C124.712 60.7833 125.865 60.0168 126.823 59.0386C127.78 58.0605 128.522 56.8926 128.999 55.6103C129.944 52.9481 129.546 49.7107 127.744 47.6237C126.252 46.0825 124.232 45.1607 122.088 45.0426C120.031 44.861 117.957 45.098 115.994 45.7394C114.031 46.3808 112.218 47.4132 110.666 48.7741C107.362 51.7293 105.233 55.7738 104.67 60.1678C104.301 62.9701 104.589 65.9715 105.985 68.3387C106.959 69.9371 108.404 71.196 110.122 71.9431C111.841 72.6902 113.748 72.8891 115.583 72.5127C119.164 71.7753 122.229 69.0688 124.178 65.6691C122.59 66.1116 119.925 66.7311 118.271 66.5393C117.42 66.4807 116.594 66.2284 115.856 65.8019C115.477 65.5574 115.157 65.2323 114.918 64.8499C114.68 64.4675 114.529 64.0371 114.476 63.5895C114.413 63.1774 114.505 62.7566 114.734 62.4081C114.963 62.0596 115.313 61.8079 115.716 61.7016ZM116.455 56.333C117.447 54.4542 118.689 52.7178 120.146 51.1709C120.599 50.6393 121.144 50.1945 121.756 49.8582C125.093 48.2063 123.417 52.4319 122.605 53.6929C121.424 55.5409 119.679 56.9604 117.629 57.7415C117.215 57.8964 116.691 57.9996 116.381 57.6973C116.071 57.3949 116.263 56.7681 116.484 56.3699L116.455 56.333Z" fill="#FFADE3"/>
</svg>
