<svg width="730" height="605" viewBox="0 0 730 605" fill="none" xmlns="http://www.w3.org/2000/svg">
<mask id="mask0_1595_7149" style="mask-type:alpha" maskUnits="userSpaceOnUse" x="0" y="0" width="730" height="605">
<rect width="730" height="605" rx="70" fill="white"/>
</mask>
<g mask="url(#mask0_1595_7149)">
<path d="M123.83 650.851H602.657C605.922 615.983 607.761 553.716 591.017 522.961C584.366 510.754 574.862 500.116 569.592 487.25C560.92 466.056 564.866 442.152 567.221 419.382C569.575 396.611 569.432 371.338 554.761 353.752C546.65 344.014 534.827 337.713 527.563 327.322C517.132 312.428 518.123 292.305 510.435 275.819C502.094 257.924 484.394 245.997 474.873 228.703C460.288 202.204 467.203 170.664 458.833 142.55C451.524 117.918 443.224 91.2585 422.023 74.8584C412.999 67.9679 402.635 63.0398 391.596 60.3901C380.556 57.7404 369.084 57.4278 357.916 59.4722C325.132 65.6759 302.74 91.1039 297.882 124.62C294.445 148.186 286.374 168.31 268.541 184.086C250.709 199.861 229.588 214.961 223.379 237.932C219.735 251.451 221.792 266.401 215.84 279.078C205.758 300.542 177.546 306.712 162.766 325.26C139.612 354.331 158.218 399.063 143.817 433.324C137.819 447.588 126.551 458.838 117.22 471.183C107.888 483.527 100.074 498.678 102.818 513.899C104.818 524.994 112.121 534.36 115.896 544.986C124.426 569.045 111.239 627.474 101.002 650.828L123.83 650.851Z" fill="#0A0517"/>
<path d="M422.814 159.603C420.085 147.836 427.411 136.085 439.177 133.356C450.944 130.626 462.695 137.952 465.425 149.718C468.154 161.485 460.828 173.236 449.062 175.966C437.295 178.695 425.544 171.369 422.814 159.603Z" fill="#FFD7E2"/>
<path d="M296.968 174.894C285.809 170.271 280.509 157.478 285.132 146.318C289.754 135.159 302.548 129.86 313.708 134.482C324.867 139.104 330.167 151.898 325.544 163.057C320.922 174.217 308.128 179.516 296.968 174.894Z" fill="#FFD7E2"/>
<path d="M444.851 369.525C440.268 349.71 435.686 329.14 439.758 309.217C444.948 283.944 472.376 300.573 487.367 307.189C506.179 315.49 524.212 326.534 537.136 342.831C548.041 356.63 554.684 373.31 556.251 390.828C557.111 400.675 556.343 410.579 556.343 420.461C556.343 471.758 576.965 522.018 572.457 573.114C571.243 586.862 568 600.862 559.729 611.889C550.781 623.816 533.538 631.509 518.748 631.027C500.302 630.455 491.503 616.965 486.468 600.994C475.424 565.948 470.234 529.39 465.09 492.987C459.355 452.493 454.108 409.588 444.851 369.525Z" fill="#FFD7E2"/>
<path d="M211.934 636.649C212.919 636.403 213.904 636.14 214.884 635.882C225.854 632.972 234.653 631.03 242.334 621.704C262.922 596.694 257.566 561.379 262.435 531.249C268.433 494.158 268.164 456.322 272.81 419.043C276.247 391.799 282.302 364.664 281.402 337.219C281.081 327.905 279.884 318.379 275.594 310.107C255.08 270.582 199.938 322.641 188.94 347.198C177.483 372.752 180.685 402.247 175.432 429.754C170.002 458.19 155.423 485.027 155.503 513.961C155.56 536.438 164.508 557.92 167.309 580.226C169.171 595.039 168.455 610.717 175.226 624.024C180.382 634.146 191.953 639.044 203.089 638.225C206.078 637.959 209.037 637.432 211.934 636.649Z" fill="#FFD7E2"/>
<path d="M248.071 484.1C238.906 490.501 231.125 498.684 225.192 508.159C222.265 512.844 219.813 517.805 217.367 522.754C210.04 537.579 202.622 552.69 200.027 569.022C217.785 548.4 244.68 535.093 263.372 515.308C266.236 512.26 269.1 508.783 269.536 504.601C270.034 499.497 266.746 494.863 263.624 490.813C260.215 486.374 252.654 480.898 248.071 484.1Z" fill="#0A0517"/>
<path d="M207.398 663.123C226.353 683.355 251.472 694.204 274.495 707.763C289.079 716.356 302.833 726.025 313.654 739.842C320.832 749.007 326.067 759.444 331.492 769.778C333.102 772.837 334.717 775.879 336.413 778.869C338.613 782.764 341.087 786.745 344.925 789.036C344.983 789.076 345.045 789.111 345.109 789.14C346.802 790.116 348.677 790.736 350.619 790.961C355.477 791.534 360.73 789.97 364.889 787.18C370.743 783.257 374.942 777.368 379.21 771.714C405.4 736.919 437.939 707.396 475.109 684.701C489.528 675.908 506.404 668.662 502.606 652.193C502.422 651.385 502.233 650.578 502.033 649.781C500.732 644.557 499.169 639.419 497.358 634.355C493.84 624.661 489.731 615.191 485.054 606C478.609 593.105 469.833 581.019 467.342 566.612C465.738 557.344 468.115 547.926 469.295 538.595C470.575 528.468 470.444 518.212 468.905 508.12C468.819 507.502 468.722 506.894 468.619 506.287C468.012 502.701 467.238 498.921 468.476 495.495C469.152 493.616 470.383 492.007 471.598 490.42C484.481 473.607 493.898 453.518 491.905 431.458C491.52 427.772 490.931 424.11 490.141 420.489C489.138 415.602 488.015 410.751 487.471 405.784C485.862 391.171 489.304 376.57 490.908 361.934C493.125 342.005 491.074 320.828 474.766 307.177C464.603 298.671 452.03 293.71 440.109 287.89C425.748 280.878 407.932 270.241 405.309 253.05C404.352 246.789 405.051 240.414 405.755 234.147C407.249 220.655 408.748 207.167 410.252 193.682C410.252 193.596 410.252 193.505 410.252 193.424C410.26 193.364 410.26 193.302 410.252 193.241C411.111 182.449 398.835 176.841 388.69 172.591C383.781 170.534 378.849 170.414 373.797 168.896C367.828 167.091 361.922 165.035 355.678 164.428C347.268 163.597 337.874 165.894 332.987 172.791C330.805 175.873 329.745 179.516 329.132 183.28C328.783 185.37 328.559 187.507 328.365 189.581C328.067 192.697 327.778 195.819 327.5 198.947C326.623 208.393 325.707 217.85 324.274 227.216C322.453 239.068 321.668 251.681 314.536 261.586C307.181 271.857 296.973 279.744 285.178 284.27C269.58 290.164 250.275 290.886 240.359 304.284C235.117 311.365 233.823 320.621 233.823 329.426C233.826 338.85 235.108 348.231 237.632 357.311C240.622 368.075 245.4 378.735 244.604 389.877C244.031 397.839 240.657 405.24 237.924 412.79C237.564 413.764 237.22 414.749 236.893 415.734C232.444 429.246 231.438 443.655 233.966 457.654C235.685 467.215 239.076 476.391 242.415 485.511C244.657 491.411 246.853 497.3 249.003 503.177C249.799 505.325 250.584 507.479 251.375 509.633C247.892 521.456 248.654 535.765 248.19 548.081C247.731 560.036 248.614 572.569 243.452 583.362C240.531 589.485 235.862 594.566 231.709 599.934C219.413 615.883 211.385 634.702 208.383 654.616C207.959 657.442 207.631 660.277 207.398 663.123Z" fill="#FFD7E2"/>
<path d="M326.89 198.95C335.408 209.089 350.548 211.225 363.162 210.332C377.18 209.335 400.443 205.566 409.608 193.41L409.734 193.25H409.62C397.401 190.151 382.519 193.657 369.784 192.242C356.68 190.786 343.741 188.109 331.135 184.245C330.248 183.963 329.376 183.636 328.523 183.266C328.173 185.356 327.95 187.493 327.755 189.567C327.453 192.694 327.165 195.822 326.89 198.95Z" fill="#0A0517"/>
<path d="M351.643 314.831C351.397 307.636 351.07 300.08 347.313 293.934C342.157 285.479 331.983 281.79 322.577 278.691C318.613 277.385 313.624 276.313 310.782 279.367C308.451 281.876 308.938 285.828 309.757 289.151C314.445 307.943 324.936 324.779 339.74 337.268C356.787 351.543 351.953 324.007 351.643 314.831Z" fill="#FFCAD7"/>
<path d="M376.017 208.584C340.068 208.584 310.925 178.752 310.925 141.952C310.925 105.152 340.068 75.3203 376.017 75.3203C411.967 75.3203 441.109 105.152 441.109 141.952C441.109 178.752 411.967 208.584 376.017 208.584Z" fill="#FFD7E2"/>
<path d="M361.833 144.888C363.705 144.89 365.573 144.687 367.401 144.281C367.585 144.255 367.761 144.191 367.92 144.094C368.078 143.996 368.214 143.867 368.32 143.715C368.426 143.562 368.5 143.389 368.536 143.207C368.573 143.025 368.571 142.837 368.532 142.656C368.492 142.474 368.416 142.302 368.307 142.152C368.198 142.001 368.06 141.874 367.9 141.78C367.74 141.685 367.562 141.624 367.378 141.601C367.193 141.578 367.006 141.594 366.828 141.646C363.295 142.397 359.639 142.351 356.125 141.513C352.612 140.675 349.329 139.065 346.515 136.8C346.238 136.572 345.881 136.464 345.524 136.499C345.167 136.534 344.838 136.709 344.61 136.986C344.382 137.263 344.274 137.62 344.309 137.977C344.344 138.334 344.519 138.663 344.796 138.891C349.623 142.777 355.636 144.894 361.833 144.888Z" fill="#0A0517"/>
<path d="M410.709 145.941C416.187 145.963 421.526 144.22 425.935 140.969C426.202 140.747 426.373 140.431 426.413 140.087C426.453 139.742 426.359 139.396 426.151 139.118C425.943 138.841 425.636 138.654 425.294 138.597C424.952 138.539 424.601 138.615 424.314 138.809C421.249 141.06 417.671 142.51 413.904 143.029C410.137 143.549 406.3 143.12 402.741 141.782C402.573 141.705 402.392 141.663 402.207 141.658C402.023 141.654 401.84 141.687 401.668 141.756C401.497 141.825 401.342 141.929 401.213 142.06C401.083 142.191 400.982 142.347 400.915 142.519C400.848 142.691 400.817 142.875 400.823 143.059C400.83 143.243 400.875 143.424 400.954 143.591C401.033 143.758 401.146 143.906 401.284 144.027C401.423 144.149 401.586 144.241 401.761 144.297C404.616 145.395 407.65 145.952 410.709 145.941Z" fill="#0A0517"/>
<path d="M385.921 164.321C386.926 164.326 387.922 164.143 388.86 163.782C392.194 162.476 394.199 158.667 393.248 155.453C392.95 154.551 392.444 153.732 391.77 153.062C391.096 152.392 390.274 151.89 389.37 151.598C388.588 151.327 387.758 151.226 386.935 151.3C387.577 146.334 387.972 141.305 388.115 136.309C388.104 135.965 387.962 135.637 387.718 135.394C387.474 135.151 387.146 135.01 386.801 135.001C386.456 134.991 386.121 135.114 385.864 135.343C385.607 135.572 385.447 135.892 385.417 136.235C385.25 141.887 384.764 147.525 383.962 153.122C383.923 153.386 383.962 153.655 384.077 153.896C384.191 154.137 384.374 154.339 384.603 154.476C384.831 154.613 385.096 154.679 385.362 154.665C385.629 154.651 385.885 154.559 386.099 154.399C386.451 154.169 386.853 154.027 387.272 153.985C387.691 153.943 388.114 154.003 388.505 154.159C389 154.309 389.454 154.574 389.828 154.933C390.202 155.291 390.486 155.732 390.658 156.221C391.231 158.111 389.919 160.466 387.88 161.268C385.841 162.07 383.349 161.531 381.424 159.956C381.287 159.843 381.128 159.758 380.958 159.707C380.787 159.655 380.608 159.638 380.431 159.655C380.254 159.673 380.082 159.725 379.925 159.809C379.768 159.893 379.629 160.007 379.517 160.145C379.404 160.283 379.319 160.441 379.268 160.611C379.216 160.782 379.199 160.961 379.216 161.138C379.234 161.315 379.286 161.487 379.37 161.644C379.454 161.801 379.568 161.94 379.706 162.052C381.459 163.495 383.651 164.295 385.921 164.321Z" fill="#0A0517"/>
<path d="M377.445 178.588C378.505 178.589 379.562 178.501 380.607 178.325C380.786 178.299 380.958 178.238 381.112 178.144C381.267 178.051 381.401 177.928 381.507 177.782C381.614 177.636 381.689 177.47 381.73 177.294C381.771 177.118 381.777 176.936 381.746 176.758C381.715 176.58 381.649 176.41 381.552 176.258C381.455 176.106 381.328 175.975 381.179 175.872C381.03 175.77 380.862 175.699 380.685 175.663C380.508 175.626 380.326 175.626 380.149 175.661C376.016 176.365 371.77 175.465 368.277 173.146C364.785 170.826 362.308 167.262 361.354 163.179C361.322 162.998 361.254 162.826 361.153 162.672C361.052 162.519 360.921 162.387 360.768 162.286C360.614 162.185 360.442 162.116 360.261 162.084C360.08 162.051 359.895 162.056 359.716 162.098C359.537 162.14 359.368 162.217 359.221 162.326C359.073 162.435 358.949 162.573 358.856 162.732C358.763 162.89 358.704 163.066 358.681 163.248C358.659 163.431 358.673 163.616 358.725 163.792C359.711 168.013 362.099 171.774 365.5 174.461C368.9 177.149 373.111 178.604 377.445 178.588Z" fill="#0A0517"/>
<path d="M347.602 122.709C348.192 123.481 348.953 124.104 349.825 124.531C353.497 126.358 358.286 125.676 362.135 124.954C369.88 123.499 373.363 116.196 363.436 114.747C359.953 114.243 345.947 114.787 346.766 120.721C346.875 121.443 347.162 122.127 347.602 122.709Z" fill="#0A0517"/>
<path d="M402.511 121.87C402.782 122.802 403.264 123.658 403.921 124.373C406.682 127.409 411.368 128.515 415.24 129.237C422.991 130.686 428.879 125.141 420.155 120.192C417.096 118.473 403.84 113.89 402.454 119.716C402.293 120.428 402.312 121.168 402.511 121.87Z" fill="#0A0517"/>
<path d="M311.947 135.036C312.994 137.703 313.487 140.554 313.396 143.417C313.27 149.013 313.677 154.186 315.367 159.788C315.745 161.026 316.335 162.418 317.578 162.784C318.115 162.893 318.673 162.843 319.181 162.639C319.69 162.436 320.128 162.088 320.442 161.639C321.047 160.724 321.457 159.694 321.645 158.614C324.039 148.818 325.728 138.864 326.698 128.827C336.854 126.06 345.269 117.708 353.524 111.567C357.419 108.669 392.374 82.989 390.61 79.4317C396.358 91.0211 403.302 101.978 411.329 112.123C415.19 117.009 419.349 122.795 424.19 126.73C428.721 130.402 431.127 130.706 430.646 137.614C430.224 143.663 430.214 149.734 430.617 155.784C430.72 157.268 430.858 158.815 431.608 160.103C432.358 161.392 433.899 162.36 435.326 161.982C437.147 161.501 437.852 159.336 438.19 157.491C439.359 151.567 440.011 145.553 440.138 139.516C440.252 134.143 444.147 133.954 445.832 129.778C447.59 125.321 443.884 121.214 442.669 117.175C439.708 107.254 432.966 97.9226 426.361 90.2238C416.462 78.6813 403.533 69.6993 388.914 66.016C370.618 61.399 349.732 66.0676 335.64 79.1911C324.974 89.1011 313.459 100.586 309.06 114.861C307.473 120.017 307.341 124.828 309.49 129.543C310.441 131.508 311.283 133.272 311.947 135.036Z" fill="#0A0517"/>
<path d="M234.067 457.635C235.786 467.195 239.177 476.372 242.517 485.492C244.69 491.399 246.851 497.292 249.001 503.169C288.046 499.331 327.698 499.732 367.006 500.185C393.294 500.483 419.708 500.798 445.629 505.197C453.208 506.486 461.096 507.213 468.898 508.13C468.812 507.511 468.714 506.904 468.611 506.297C468.004 502.711 467.231 498.93 468.468 495.505C469.144 493.626 470.376 492.016 471.59 490.429C484.473 473.617 493.891 453.528 491.897 431.468C491.513 427.782 490.924 424.119 490.133 420.498C472.376 408.793 457.599 393.1 446.981 374.672C427.052 395.867 404.591 417.359 375.949 422.646C358.912 425.797 340.942 422.297 325.699 414.094C310.456 405.891 295.338 394.257 286.207 379.552C285.359 384.708 256.992 405.966 251.264 408.767C247.112 410.791 242.665 412.145 238.089 412.777C237.728 413.75 237.384 414.736 237.057 415.721C232.589 429.226 231.561 443.632 234.067 457.635Z" fill="#FFF0F4"/>
<path d="M446.421 376.781C446.598 376.778 446.774 376.74 446.936 376.67C447.099 376.599 447.247 376.497 447.37 376.369C447.494 376.242 447.591 376.091 447.656 375.926C447.721 375.76 447.753 375.584 447.75 375.407C447.24 346.817 446.295 317.923 444.954 289.522C444.954 289.339 444.917 289.159 444.845 288.991C444.773 288.823 444.667 288.671 444.535 288.545C444.403 288.419 444.247 288.321 444.075 288.257C443.904 288.193 443.722 288.165 443.539 288.173C443.357 288.182 443.178 288.227 443.014 288.307C442.849 288.386 442.702 288.499 442.583 288.636C442.463 288.774 442.372 288.935 442.316 289.109C442.26 289.283 442.239 289.466 442.256 289.648C443.597 318.02 444.548 346.891 445.046 375.452C445.054 375.81 445.202 376.151 445.46 376.4C445.717 376.649 446.063 376.786 446.421 376.781Z" fill="#0A0517"/>
<path d="M285.988 383.614C286.346 383.614 286.689 383.472 286.942 383.22C287.196 382.967 287.339 382.625 287.34 382.267C287.529 349.994 286.309 317.331 283.708 285.19C283.68 284.832 283.51 284.5 283.236 284.268C282.963 284.035 282.608 283.921 282.251 283.95C281.893 283.979 281.561 284.148 281.329 284.422C281.096 284.695 280.982 285.05 281.01 285.408C283.611 317.486 284.826 350.057 284.636 382.256C284.636 382.434 284.67 382.609 284.737 382.774C284.804 382.938 284.903 383.088 285.028 383.214C285.153 383.34 285.302 383.44 285.466 383.508C285.629 383.577 285.805 383.613 285.983 383.614H285.988Z" fill="#0A0517"/>
<path d="M388.8 649.555C389.014 649.553 389.224 649.5 389.413 649.4C389.603 649.301 389.766 649.157 389.888 648.982C406.799 626.029 413.346 596.855 419.103 571.077C419.166 570.732 419.092 570.377 418.897 570.085C418.703 569.794 418.402 569.589 418.06 569.515C417.717 569.441 417.359 569.502 417.061 569.687C416.763 569.872 416.549 570.165 416.463 570.504C410.734 596.001 404.267 624.923 387.694 647.395C387.546 647.597 387.456 647.835 387.436 648.085C387.415 648.334 387.463 648.584 387.576 648.807C387.689 649.03 387.861 649.218 388.075 649.349C388.288 649.48 388.533 649.549 388.783 649.549L388.8 649.555Z" fill="#0A0517"/>
<path d="M371.705 282.498C371.97 282.499 372.23 282.421 372.451 282.274C372.672 282.127 372.845 281.918 372.948 281.674C381.69 261.048 389.382 239.992 395.993 218.588C396.092 218.247 396.053 217.881 395.885 217.569C395.716 217.257 395.432 217.024 395.093 216.919C394.754 216.815 394.388 216.848 394.073 217.011C393.758 217.174 393.52 217.454 393.41 217.792C386.826 239.108 379.167 260.078 370.462 280.62C370.375 280.825 370.34 281.049 370.361 281.271C370.381 281.493 370.456 281.707 370.579 281.893C370.702 282.079 370.87 282.231 371.066 282.337C371.262 282.443 371.482 282.498 371.705 282.498Z" fill="#0A0517"/>
<path d="M342.938 248.973H343.116C343.468 248.922 343.786 248.734 344.001 248.449C344.215 248.165 344.309 247.808 344.261 247.455L340.251 217.37C340.228 217.194 340.17 217.024 340.082 216.87C339.993 216.717 339.874 216.582 339.733 216.474C339.592 216.366 339.431 216.287 339.26 216.241C339.088 216.195 338.909 216.184 338.733 216.207C338.557 216.23 338.388 216.288 338.234 216.377C338.08 216.466 337.946 216.584 337.838 216.725C337.73 216.866 337.65 217.027 337.605 217.199C337.559 217.37 337.547 217.549 337.571 217.725L341.58 247.81C341.626 248.136 341.79 248.434 342.04 248.648C342.29 248.862 342.609 248.978 342.938 248.973Z" fill="#0A0517"/>
<path d="M364.808 148.75C364.96 148.749 365.111 148.722 365.255 148.67C365.422 148.612 365.576 148.521 365.708 148.403C365.84 148.285 365.947 148.142 366.024 147.982C366.1 147.822 366.145 147.649 366.154 147.472C366.164 147.296 366.139 147.119 366.08 146.952C365.69 145.833 365.558 144.64 365.696 143.463C365.738 143.107 365.636 142.749 365.414 142.467C365.191 142.186 364.866 142.004 364.51 141.962C364.154 141.921 363.795 142.022 363.514 142.244C363.233 142.467 363.051 142.792 363.009 143.148C362.825 144.735 363.005 146.344 363.536 147.851C363.629 148.114 363.802 148.341 364.029 148.502C364.257 148.663 364.529 148.75 364.808 148.75Z" fill="#0A0517"/>
<path d="M356.116 148.741C356.391 148.741 356.66 148.657 356.886 148.5C357.112 148.344 357.285 148.122 357.382 147.864L358.751 144.221C358.826 144.053 358.865 143.871 358.867 143.687C358.869 143.503 358.833 143.32 358.762 143.15C358.691 142.98 358.586 142.827 358.454 142.699C358.321 142.571 358.164 142.472 357.992 142.407C357.819 142.342 357.636 142.313 357.452 142.322C357.268 142.33 357.087 142.377 356.922 142.457C356.757 142.538 356.609 142.652 356.489 142.792C356.369 142.931 356.279 143.094 356.225 143.27L354.856 146.913C354.736 147.245 354.751 147.611 354.898 147.932C355.045 148.253 355.311 148.504 355.64 148.632C355.791 148.695 355.952 148.732 356.116 148.741Z" fill="#0A0517"/>
<path d="M347.403 145.508C347.661 145.508 347.914 145.434 348.131 145.295C348.349 145.156 348.521 144.957 348.629 144.723L350.256 141.194C350.408 140.868 350.424 140.495 350.301 140.158C350.178 139.82 349.926 139.545 349.6 139.393C349.274 139.241 348.901 139.224 348.563 139.347C348.225 139.47 347.95 139.723 347.798 140.048L346.177 143.577C346.083 143.783 346.043 144.009 346.059 144.234C346.075 144.46 346.147 144.677 346.269 144.868C346.391 145.058 346.558 145.215 346.757 145.324C346.955 145.432 347.177 145.49 347.403 145.49V145.508Z" fill="#0A0517"/>
<path d="M424.695 146.709C424.943 146.71 425.186 146.643 425.398 146.514C425.611 146.385 425.783 146.201 425.897 145.98C426.011 145.76 426.061 145.512 426.043 145.265C426.025 145.017 425.939 144.78 425.794 144.578L423.503 141.382C423.29 141.103 422.977 140.919 422.63 140.867C422.283 140.815 421.93 140.899 421.644 141.103C421.359 141.307 421.164 141.613 421.1 141.958C421.037 142.303 421.109 142.659 421.303 142.951L423.595 146.142C423.719 146.317 423.884 146.461 424.076 146.559C424.267 146.658 424.479 146.709 424.695 146.709Z" fill="#0A0517"/>
<path d="M415.831 149.201C416.188 149.2 416.531 149.057 416.783 148.803C417.035 148.55 417.177 148.207 417.177 147.849V144.659C417.189 144.474 417.163 144.289 417.101 144.115C417.038 143.941 416.941 143.781 416.814 143.646C416.688 143.511 416.535 143.404 416.365 143.33C416.196 143.257 416.013 143.219 415.828 143.219C415.643 143.219 415.46 143.257 415.29 143.33C415.12 143.404 414.968 143.511 414.841 143.646C414.715 143.781 414.617 143.941 414.555 144.115C414.493 144.289 414.467 144.474 414.479 144.659V147.849C414.479 148.208 414.621 148.552 414.875 148.805C415.128 149.059 415.472 149.201 415.831 149.201Z" fill="#0A0517"/>
<path d="M406.292 150.575C406.574 150.574 406.848 150.485 407.077 150.321C407.306 150.157 407.478 149.925 407.569 149.658L408.955 145.562C409.018 145.393 409.046 145.212 409.038 145.032C409.029 144.851 408.985 144.674 408.907 144.511C408.829 144.348 408.719 144.202 408.584 144.083C408.449 143.963 408.291 143.871 408.12 143.813C407.949 143.755 407.768 143.733 407.587 143.746C407.407 143.759 407.231 143.809 407.071 143.891C406.91 143.973 406.767 144.087 406.651 144.226C406.535 144.364 406.448 144.525 406.395 144.697L405.008 148.793C404.894 149.133 404.919 149.505 405.077 149.827C405.236 150.15 405.516 150.396 405.856 150.512C405.997 150.555 406.144 150.576 406.292 150.575Z" fill="#0A0517"/>
<path d="M345.562 164.692C338.889 165.454 326.613 156.478 332.651 149.283C336.661 144.465 345.07 147.679 348.822 151.076C350.919 152.978 352.614 155.658 352.328 158.46C351.99 161.759 348.856 164.32 345.562 164.692Z" fill="#FFCAD7"/>
<path d="M414.369 166.512C421.043 167.274 433.319 158.298 427.287 151.103C423.242 146.285 414.862 149.499 411.11 152.902C409.013 154.798 407.323 157.484 407.609 160.28C407.942 163.579 411.075 166.123 414.369 166.512Z" fill="#FFCAD7"/>
<path d="M238.482 413.402C238.815 413.401 239.136 413.278 239.384 413.057C239.632 412.835 239.79 412.53 239.828 412.199C241.014 401.247 241.397 390.223 240.974 379.215C240.96 378.857 240.804 378.518 240.541 378.275C240.278 378.031 239.929 377.901 239.57 377.915C239.212 377.929 238.873 378.084 238.629 378.347C238.386 378.611 238.256 378.96 238.27 379.318C238.682 390.195 238.299 401.086 237.124 411.907C237.104 412.083 237.12 412.262 237.169 412.433C237.219 412.603 237.301 412.762 237.413 412.901C237.524 413.039 237.662 413.154 237.818 413.239C237.974 413.324 238.145 413.378 238.321 413.396L238.482 413.402Z" fill="#0A0517"/>
<path d="M295.014 624.361C274.343 634.374 251.71 639.681 228.742 639.902C209.649 640.102 187.245 641.133 178.567 621.044C150.715 556.572 231.543 521.612 276.769 500.057L379.823 450.931C404.455 439.182 430.262 426.488 445.774 404.016C453.147 393.321 457.878 380.834 466.322 370.946C471.707 364.645 478.415 359.616 485.06 354.655L516.05 331.507C521.779 327.24 530.612 323.241 535.12 328.775C538.89 333.403 535.487 340.363 531.363 344.682C521.011 355.537 505.441 363.242 502.148 377.878C515.191 380.696 527.696 373.994 540.001 370.54C545.002 369.131 550.175 367.819 555.33 368.432C560.486 369.045 565.687 371.995 567.515 376.852C569.875 383.113 566.203 390.635 569.176 396.621C570.488 399.256 572.968 401.266 573.85 404.068C575.752 410.18 569.302 416.91 571.914 422.759C572.636 424.38 573.97 425.623 575.019 427.072C576.567 429.277 577.451 431.879 577.565 434.571C577.68 437.262 577.021 439.93 575.666 442.258C574.704 443.851 573.375 445.369 573.243 447.225C573.037 450.295 576.067 452.46 577.7 455.072C580.466 459.495 578.989 465.612 575.477 469.468C571.966 473.323 566.884 475.333 561.866 476.743C544.841 481.526 526.831 480.815 509.738 485.375C493.246 489.786 478.804 498.934 464.231 507.589C431.379 527.134 398.927 547.59 368.876 571.26C344.994 590.066 322.333 611.043 295.014 624.361Z" fill="#FFD7E2"/>
<path d="M228.743 641.244C251.91 641.007 274.738 635.653 295.594 625.565C317.116 615.071 336.002 599.662 354.264 584.763C359.305 580.65 364.518 576.399 369.702 572.321C401.507 547.294 435.677 526.145 464.914 508.737L468.615 506.543C481.67 498.741 495.16 490.67 510.077 486.683C518.343 484.472 527.016 483.492 535.414 482.547C544.259 481.55 553.407 480.513 562.2 478.044C566.743 476.773 572.465 474.745 576.447 470.374C580.096 466.364 582.083 459.576 578.812 454.335C578.245 453.472 577.619 452.649 576.939 451.872C575.605 450.268 574.453 448.887 574.562 447.289C574.636 446.212 575.33 445.164 576.063 444.058C576.315 443.68 576.561 443.308 576.79 442.913C578.28 440.356 579.005 437.425 578.879 434.468C578.753 431.512 577.782 428.653 576.08 426.232C575.713 425.734 575.324 425.258 574.934 424.8C574.207 424.006 573.59 423.118 573.101 422.159C571.956 419.61 572.935 416.666 573.966 413.567C575.037 410.342 576.143 407.002 575.112 403.645C574.539 401.806 573.393 400.334 572.328 398.914C571.58 398.002 570.921 397.022 570.357 395.986C568.965 393.18 569.212 389.897 569.469 386.414C569.721 383.063 569.979 379.603 568.753 376.344C566.909 371.441 561.69 367.797 555.463 367.059C550.13 366.428 544.923 367.712 539.607 369.201C536.537 370.066 533.409 371.143 530.39 372.185C521.723 375.17 512.781 378.252 503.787 376.768C506.382 367.775 513.892 361.554 521.815 355C525.497 352.062 529.008 348.916 532.332 345.577C537.23 340.422 540.312 332.975 536.159 327.883C531.261 321.868 522.136 325.23 515.233 330.386L484.225 353.534C477.614 358.472 470.775 363.576 465.27 370.031C460.251 375.914 456.499 382.766 452.868 389.387C450.371 394.131 447.635 398.744 444.67 403.21C428.951 425.991 402.549 438.571 379.252 449.672C378.955 449.84 378.733 450.114 378.63 450.438C378.527 450.763 378.55 451.114 378.695 451.423C378.839 451.731 379.095 451.973 379.411 452.101C379.727 452.229 380.079 452.233 380.397 452.112C402.83 441.423 430.75 428.117 446.881 404.745C449.897 400.203 452.68 395.511 455.222 390.688C458.785 384.186 462.468 377.461 467.309 371.784C472.613 365.558 479.339 360.545 485.823 355.699L516.831 332.551C522.462 328.347 530.35 325.053 534.016 329.59C537.11 333.393 534.274 339.574 530.333 343.71C527.074 346.974 523.631 350.049 520.022 352.921C511.721 359.795 503.14 366.91 500.734 377.553C500.689 377.735 500.682 377.925 500.714 378.11C500.747 378.294 500.817 378.471 500.921 378.627C501.025 378.783 501.16 378.916 501.319 379.017C501.477 379.118 501.654 379.185 501.84 379.214C512.036 381.419 521.815 378.068 531.272 374.792C534.263 373.761 537.35 372.695 540.346 371.859C545.387 370.444 550.308 369.218 555.154 369.791C560.39 370.415 564.738 373.383 566.233 377.347C567.247 380.05 567.023 383.075 566.806 386.266C566.531 389.955 566.233 393.77 567.951 397.241C568.588 398.431 569.339 399.557 570.191 400.603C571.176 401.898 572.11 403.118 572.54 404.499C573.33 407.031 572.408 409.82 571.429 412.77C570.283 416.242 569.097 419.828 570.661 423.339C571.247 424.522 571.993 425.619 572.878 426.598C573.244 427.045 573.594 427.463 573.909 427.899C575.304 429.887 576.1 432.234 576.201 434.66C576.303 437.087 575.706 439.492 574.482 441.589C574.27 441.939 574.046 442.277 573.817 442.621C572.964 443.909 571.996 445.37 571.87 447.163C571.686 449.832 573.376 451.866 574.871 453.653C575.469 454.338 576.022 455.062 576.527 455.819C579.053 459.857 577.346 465.408 574.453 468.587C570.936 472.448 565.671 474.315 561.478 475.461C552.886 477.873 543.852 478.898 535.128 479.877C526.632 480.84 517.856 481.825 509.401 484.088C494.118 488.172 480.456 496.341 467.246 504.24L463.551 506.451C434.239 523.882 399.966 545.094 368.047 570.213C362.846 574.303 357.627 578.565 352.58 582.689C334.433 597.491 315.672 612.797 294.431 623.154C273.935 633.065 251.503 638.325 228.738 638.557C228.379 638.557 228.035 638.7 227.782 638.953C227.528 639.207 227.386 639.551 227.386 639.909C227.386 640.268 227.528 640.612 227.782 640.865C228.035 641.119 228.379 641.261 228.738 641.261L228.743 641.244Z" fill="#0A0517"/>
<path d="M270.195 375.022C280.076 386.066 290.868 392.596 303.311 400.375C312.161 405.909 319.528 413.728 328.046 419.989C340.7 429.292 349.745 444.105 358.252 457.017C368.506 472.575 379.008 487.965 389.758 503.187C411.308 533.547 434.027 563.145 458.247 591.454C468.787 603.77 479.86 616.086 493.889 624.157C507.918 632.228 525.584 635.665 540.495 629.312C549.724 625.383 557.194 618.045 562.767 609.699C571.721 596.312 578.022 582.564 574.66 566.771C570.782 548.44 559.766 532.527 547.816 518.115C533.559 500.896 517.694 485.073 500.437 470.862C471.474 446.969 438.971 427.819 409.607 404.413C395.584 393.238 381.841 381.162 371.301 366.71C359.69 350.768 352.071 333.486 343.759 315.728C335.39 297.833 324.912 279.829 308.082 269.478C302.085 265.789 293.967 263.331 288.314 267.53C285.845 269.357 283.811 272.428 280.735 272.388C274.394 267.559 263.59 271.242 260.365 278.505C259.649 280.126 259.185 282.005 257.77 283.088C254.986 285.23 251.073 282.372 248.518 283.976C243.729 286.983 247.161 295.541 240.43 296.676C237.783 297.122 235.074 296.234 232.41 296.452C226.246 296.951 224.556 304.128 225.204 309.054C228.893 337.209 252.648 355.391 270.195 375.022Z" fill="#FFD7E2"/>
<path d="M493.91 625.538C494.207 625.537 494.495 625.438 494.73 625.257C494.966 625.076 495.135 624.823 495.212 624.536C495.289 624.249 495.269 623.945 495.156 623.67C495.043 623.396 494.842 623.166 494.586 623.017C480.786 615.049 470.016 603.14 459.299 590.606C436.167 563.574 413.792 534.732 390.878 502.431C380.567 487.904 369.976 472.386 359.372 456.301C359.168 456.019 358.863 455.827 358.521 455.764C358.179 455.702 357.826 455.773 357.535 455.964C357.244 456.155 357.039 456.451 356.96 456.79C356.882 457.129 356.938 457.485 357.115 457.784C367.724 473.898 378.31 489.445 388.662 503.994C411.621 536.365 434.054 565.287 457.231 592.365C468.115 605.082 479.05 617.174 493.228 625.36C493.436 625.478 493.671 625.54 493.91 625.538Z" fill="#0A0517"/>
<path d="M270.193 376.385C270.454 376.384 270.709 376.309 270.928 376.167C271.146 376.025 271.319 375.823 271.426 375.585C271.532 375.347 271.568 375.084 271.528 374.826C271.488 374.569 271.375 374.328 271.201 374.133C267.61 370.124 263.697 366.114 259.911 362.213C244.925 346.809 229.424 330.885 226.543 308.94C226.199 306.35 226.543 302.432 228.542 299.935C229.02 299.325 229.621 298.824 230.306 298.462C230.991 298.101 231.745 297.888 232.518 297.838C233.654 297.786 234.793 297.838 235.92 297.993C237.493 298.233 239.091 298.252 240.669 298.05C245.32 297.265 246.1 293.467 246.73 290.454C247.182 288.26 247.612 286.193 249.25 285.161C250.023 284.675 251.198 284.852 252.561 285.058C254.394 285.339 256.674 285.688 258.61 284.199C260.014 283.116 260.638 281.524 261.194 280.121C261.331 279.771 261.469 279.422 261.618 279.084C263.084 275.761 266.498 273.052 270.525 272.015C274.071 271.104 277.503 271.643 279.932 273.493C280.162 273.67 280.443 273.766 280.734 273.768C283.455 273.768 285.448 271.958 287.195 270.331C287.81 269.735 288.456 269.173 289.131 268.647C295.433 263.972 304.701 269.008 307.388 270.663C324.47 281.169 334.747 299.643 342.549 316.335C343.313 317.95 344.063 319.56 344.8 321.164C352.407 337.518 359.591 352.956 370.229 367.563C370.445 367.837 370.76 368.017 371.106 368.064C371.452 368.111 371.803 368.022 372.086 367.816C372.368 367.61 372.559 367.303 372.62 366.959C372.681 366.615 372.606 366.261 372.411 365.971C361.928 351.587 354.796 336.258 347.252 320.03L344.995 315.195C337.027 298.142 326.492 279.244 308.803 268.366C300.646 263.354 292.689 262.638 287.522 266.481C286.766 267.068 286.043 267.695 285.356 268.36C283.964 269.655 282.647 270.881 281.163 271.053C278.104 268.933 274.014 268.332 269.855 269.403C265.043 270.64 260.942 273.934 259.149 277.995C258.983 278.368 258.834 278.751 258.679 279.141C258.215 280.327 257.774 281.432 256.961 282.068C255.941 282.853 254.566 282.641 252.951 282.4C251.335 282.16 249.416 281.862 247.795 282.882C245.177 284.526 244.587 287.39 244.066 289.916C243.407 293.112 242.92 294.94 240.199 295.398C238.865 295.55 237.517 295.523 236.189 295.318C234.897 295.143 233.591 295.089 232.288 295.157C231.151 295.237 230.042 295.553 229.034 296.085C228.025 296.616 227.137 297.352 226.428 298.245C223.873 301.413 223.421 306.03 223.85 309.3C226.852 332.168 242.668 348.419 257.963 364.138C261.732 368.004 265.628 372.008 269.174 375.972C269.304 376.109 269.463 376.217 269.639 376.288C269.815 376.359 270.004 376.392 270.193 376.385Z" fill="#0A0517"/>
<path d="M526.897 498.638C527.08 498.639 527.262 498.603 527.43 498.531C527.599 498.459 527.751 498.353 527.876 498.219C527.999 498.091 528.095 497.94 528.159 497.775C528.223 497.61 528.254 497.433 528.25 497.256C528.245 497.079 528.206 496.904 528.134 496.742C528.062 496.58 527.959 496.434 527.83 496.312L502.087 471.829C501.825 471.595 501.482 471.471 501.131 471.485C500.779 471.5 500.447 471.65 500.205 471.905C499.963 472.16 499.829 472.499 499.833 472.851C499.837 473.202 499.978 473.539 500.225 473.788L525.969 498.265C526.218 498.505 526.551 498.638 526.897 498.638Z" fill="#0A0517"/>
<path d="M302.342 91.9156C295.095 88.9254 290.604 83.7814 291.303 74.6963C291.933 66.5392 293.692 57.9239 299.415 52.081C305.985 45.3617 317.356 44.0155 325.313 49.0221C333.27 54.0286 336.987 64.8494 333.779 73.6882C329.477 85.54 325.53 97.5465 309.411 94.0465C306.996 93.5452 304.631 92.8322 302.342 91.9156Z" fill="#0A0517"/>
<path d="M418.302 59.8101C422.609 53.2798 428.51 49.8428 437.297 52.2258C445.191 54.3854 453.337 57.7479 457.977 64.4672C463.327 72.1889 462.496 83.6112 456.081 90.4737C449.665 97.3362 438.322 98.9458 430.251 94.1226C419.424 87.6553 408.386 81.5203 414.87 66.3461C415.82 64.0707 416.968 61.8835 418.302 59.8101Z" fill="#0A0517"/>
</g>
</svg>
