<svg width="55" height="35" viewBox="0 0 55 35" fill="none" xmlns="http://www.w3.org/2000/svg">
<path d="M3.84687 0.508069L3.84675 0.508072C3.51456 0.517126 3.20092 0.536553 2.90209 0.590667L3.84687 0.508069ZM3.84687 0.508069C3.9978 0.503918 4.14984 0.502195 4.30521 0.501079L3.84687 0.508069ZM2.0714 0.865724L2.07119 0.865833C1.81343 0.99793 1.57709 1.17092 1.37217 1.37752L1.37209 1.37759C1.16685 1.58443 0.995032 1.82243 0.86382 2.08278L0.863579 2.08326C0.73029 2.34703 0.643906 2.62004 0.590287 2.92262L0.590115 2.92359C0.535992 3.22553 0.516569 3.54211 0.507615 3.87655L2.0714 0.865724ZM2.0714 0.865724C2.33242 0.731798 2.60251 0.645011 2.90198 0.590688L2.0714 0.865724ZM0.590109 32.0764L0.590294 32.0774C0.643904 32.3801 0.730277 32.6529 0.863589 32.9168L0.863821 32.9172C0.995135 33.1778 1.16695 33.416 1.37183 33.6222L1.37245 33.6228C1.57722 33.8296 1.81332 34.0023 2.07073 34.1339L2.07188 34.1345C2.33266 34.2687 2.60256 34.3555 2.90196 34.4097C2.90199 34.4097 2.90202 34.4098 2.90205 34.4098L2.81287 34.9017L0.590109 32.0764ZM0.590109 32.0764C0.535992 31.7746 0.516569 31.458 0.507615 31.1238L0.590109 32.0764ZM52.1779 34.1345L52.1792 34.1338C52.4364 34.0025 52.6718 33.8298 52.8776 33.6224C53.0823 33.4161 53.2543 33.1777 53.3861 32.9168L53.3863 32.9164C53.5198 32.6529 53.606 32.3803 53.6593 32.0778L53.6596 32.0763C53.7137 31.7748 53.7327 31.4586 53.7417 31.1237L53.7417 31.1236C53.7458 30.9708 53.7479 30.8173 53.7486 30.6629L53.7486 30.6613C53.75 30.4762 53.75 30.2916 53.75 30.104V4.89639C53.75 4.70876 53.75 4.52384 53.7486 4.33911L53.7486 4.33754C53.7479 4.1831 53.7458 4.02958 53.7417 3.87676L53.7417 3.87666C53.7327 3.54153 53.7137 3.22524 53.6596 2.92364L53.6593 2.9222C53.606 2.61983 53.5198 2.34713 53.3864 2.08367L53.3861 2.08325C53.2544 1.82253 53.0824 1.58428 52.8774 1.3773C52.6715 1.17033 52.436 0.997641 52.1787 0.865932L52.1783 0.865734C51.9173 0.731801 51.6471 0.645003 51.3481 0.590677C51.0483 0.536537 50.7346 0.517121 50.4033 0.508071L50.4032 0.50807L52.1779 34.1345ZM52.1779 34.1345C51.9173 34.2686 51.6476 34.3553 51.3489 34.4096L52.1779 34.1345ZM4.30424 34.4986C4.15092 34.4978 3.99803 34.4958 3.84521 34.4923L51.3479 34.4098C51.0481 34.4635 50.7346 34.4832 50.4044 34.4923C50.251 34.4958 50.0983 34.4978 49.9454 34.4986L49.9439 34.4986C49.761 34.5 49.5772 34.5 49.3917 34.5H4.85834C4.67253 34.5 4.48869 34.5 4.30584 34.4986L4.30424 34.4986ZM49.3917 0.5C49.577 0.5 49.7612 0.500001 49.9445 0.501079L4.85834 0.5H49.3917ZM0.50077 4.33814C0.501781 4.1824 0.503552 4.02897 0.507614 3.8766L0.507613 31.1238C0.503549 30.9713 0.501778 30.8178 0.500768 30.6619C0.499915 30.5139 0.499972 30.3666 0.500029 30.2172C0.500043 30.1796 0.500058 30.1419 0.500058 30.104V4.89639C0.500058 4.85848 0.500043 4.82072 0.500029 4.7831C0.499972 4.63355 0.499915 4.48602 0.50077 4.33814Z" fill="#0A0517" stroke="#0A0517"/>
<path d="M49.3903 1.17969L49.9381 1.18074C50.0866 1.1818 50.235 1.18342 50.3842 1.18752C50.6438 1.19458 50.9474 1.20875 51.2305 1.25988C51.4765 1.30454 51.6829 1.37245 51.8809 1.47405C52.0764 1.57416 52.2555 1.70536 52.4119 1.86274C52.5689 2.02119 52.6993 2.20199 52.7999 2.40119C52.9002 2.59921 52.9671 2.80617 53.0112 3.05594C53.0618 3.33808 53.0758 3.64493 53.0829 3.90814C53.0869 4.05671 53.0889 4.20528 53.0896 4.35738C53.091 4.54132 53.091 4.72517 53.091 4.90947V30.117C53.091 30.3013 53.091 30.4849 53.0896 30.6727C53.0889 30.8213 53.0869 30.9698 53.0829 31.1187C53.0758 31.3815 53.0618 31.6882 53.0106 31.9736C52.9671 32.22 52.9002 32.427 52.7994 32.626C52.6991 32.8247 52.5689 33.0053 52.4126 33.1627C52.2553 33.3213 52.0768 33.4521 51.8789 33.5531C51.6824 33.6542 51.4764 33.7221 51.2328 33.7663C50.944 33.8181 50.6276 33.8324 50.3893 33.8389C50.2394 33.8423 50.0902 33.8443 49.9374 33.8451C49.7553 33.8465 49.5725 33.8465 49.3903 33.8465H4.85694C4.85451 33.8465 4.85215 33.8465 4.8497 33.8465C4.66963 33.8465 4.4892 33.8465 4.30586 33.845C4.15637 33.8443 4.00721 33.8423 3.863 33.839C3.61928 33.8324 3.3027 33.8182 3.01628 33.7666C2.77057 33.7221 2.56457 33.6542 2.36543 33.5518C2.16947 33.4517 1.99107 33.321 1.83372 33.1622C1.67757 33.0051 1.54782 32.825 1.44749 32.626C1.34707 32.4272 1.27988 32.2196 1.2357 31.9703C1.18463 31.6854 1.17061 31.3799 1.16359 31.1189C1.15959 30.9694 1.15792 30.82 1.15697 30.6714L1.15625 30.2328L1.15628 30.117V4.90947L1.15625 4.79367L1.15694 4.35599C1.15792 4.20653 1.15959 4.05711 1.16359 3.90778C1.17061 3.64648 1.18463 3.34089 1.23612 3.0536C1.27991 2.80657 1.34707 2.59894 1.44802 2.39915C1.54755 2.20166 1.67754 2.02138 1.8345 1.86324C1.99084 1.70562 2.16983 1.57459 2.36703 1.47352C2.56405 1.37242 2.77043 1.30454 3.01615 1.25998C3.29926 1.20872 3.60312 1.19458 3.86336 1.18748C4.0117 1.18342 4.16004 1.1818 4.30727 1.18078L4.85694 1.17969H49.3903Z" fill="white"/>
<path d="M13.9131 10.9605C14.1832 10.631 14.5959 10.3648 14.9999 10.2207C14.9255 10.67 14.7172 11.1036 14.4332 11.4636C14.1321 11.8173 13.7282 12.0876 13.3218 12.1927C13.3964 11.7433 13.6303 11.2897 13.9056 10.9695L13.9057 10.9695L13.9131 10.9605Z" fill="#0A0517" stroke="#0A0517"/>
<path d="M16.0133 16.8163C16.0229 18.0033 16.5457 18.8092 17.068 19.3116C17.2948 19.5298 17.5208 19.6906 17.7039 19.8033C17.5718 20.1461 17.3386 20.6684 16.9764 21.2017L16.9755 21.2031C16.6898 21.6268 16.4338 21.9927 16.1502 22.2589C15.8772 22.5153 15.6138 22.6457 15.313 22.6511L15.3126 22.6511C14.9852 22.6572 14.7769 22.5673 14.4614 22.4312L14.4612 22.4312C14.132 22.2891 13.7238 22.117 13.1055 22.117C12.4936 22.117 12.0816 22.2762 11.7426 22.4192C11.7231 22.4274 11.704 22.4355 11.6853 22.4434C11.3856 22.5703 11.1826 22.6562 10.8857 22.6681C10.6288 22.6773 10.3605 22.5541 10.0561 22.2687C9.75038 21.982 9.46795 21.5877 9.18582 21.1695L9.18583 21.1695L9.18338 21.166C8.64541 20.3834 8.16385 19.2624 7.96097 18.0961C7.7574 16.9259 7.84428 15.7731 8.36072 14.876L8.36075 14.876L8.36366 14.8708C8.86023 13.984 9.76031 13.4393 10.7139 13.4252L10.7157 13.4252C11.0464 13.4191 11.3871 13.5299 11.763 13.677C11.8076 13.6944 11.8541 13.7129 11.9015 13.7318C12.0384 13.7863 12.1832 13.844 12.3155 13.8892C12.4933 13.9499 12.7066 14.0096 12.9236 14.0096C13.1493 14.0096 13.3781 13.9381 13.5631 13.8718C13.6674 13.8343 13.7958 13.7835 13.9219 13.7335C14.0099 13.6987 14.0968 13.6643 14.1737 13.6352C14.5972 13.4748 15.0265 13.3488 15.4697 13.3744C15.8183 13.4018 16.621 13.4957 17.2555 14.1386C17.1229 14.2539 16.9725 14.3994 16.8274 14.5719C16.4139 15.0635 16.0036 15.809 16.0133 16.8163ZM16.0133 16.8163C16.0133 16.8164 16.0133 16.8165 16.0133 16.8167L16.5133 16.8118L16.0133 16.8158C16.0133 16.816 16.0133 16.8161 16.0133 16.8163ZM17.9618 19.9172L18.3161 19.5644L18.0927 20.0114L18.0923 20.0112L18.0888 20.0095L18.0783 20.0041C18.0744 20.0019 18.0644 19.9965 18.0519 19.9888L18.0514 19.9885C18.0461 19.9853 18.0044 19.9599 17.9618 19.9172Z" fill="#0A0517" stroke="#0A0517"/>
<path d="M22.4273 18.3084H21.9273V18.8084V22.5835H21V11.0703L25.1553 11.0703C26.2411 11.0703 27.1308 11.4453 27.7481 12.0647C28.3654 12.6841 28.7423 13.58 28.7423 14.6807C28.7423 15.7832 28.3585 16.683 27.7297 17.3065C27.1005 17.9304 26.1947 18.3084 25.0949 18.3084H22.4273ZM21.9273 17.1781V17.6781H22.4273H24.6388C25.5649 17.6781 26.3611 17.426 26.9284 16.8886C27.4995 16.3475 27.7718 15.5807 27.7718 14.6894C27.7718 13.798 27.4994 13.0331 26.929 12.4941C26.3627 11.959 25.5687 11.7093 24.6474 11.7093H22.4273H21.9273V12.2093V17.1781Z" fill="#0A0517" stroke="#0A0517"/>
<path d="M33.135 18.2976L33.1365 18.2975L35.6145 18.1502L36.0849 18.1222V17.651V16.9487C36.0849 16.3242 35.8716 15.7735 35.4361 15.3845C35.0078 15.002 34.4223 14.8271 33.7694 14.8271C33.1527 14.8271 32.6068 14.9764 32.1802 15.2831C31.8635 15.5107 31.6315 15.8118 31.4888 16.1625H30.6945C30.8275 15.7067 31.095 15.3125 31.4817 15.0052C32.0169 14.5799 32.808 14.3008 33.8381 14.3008C34.8505 14.3008 35.626 14.5708 36.139 14.9988C36.6425 15.4188 36.9348 16.0245 36.9348 16.8012V22.5881H36.1536V21.5879V21.0879H35.6536H35.6451C35.9225 20.6897 36.0849 20.2081 36.0849 19.6716V18.9518V18.4198L35.5538 18.4528L33.3251 18.5915L33.3251 18.5915L33.321 18.5917C32.7074 18.6349 32.1643 18.7963 31.7632 19.1094C31.3444 19.4363 31.118 19.9012 31.118 20.4433C31.118 20.992 31.349 21.4663 31.7581 21.7925C32.1565 22.1101 32.689 22.2614 33.2702 22.2614C33.8425 22.2614 34.3821 22.1094 34.8327 21.8395C34.333 22.3967 33.5619 22.7442 32.754 22.7442C31.9715 22.7442 31.3447 22.5002 30.9194 22.1141C30.4982 21.7317 30.2422 21.1817 30.2422 20.4954C30.2422 19.8391 30.4843 19.3425 30.9308 18.9839C31.3942 18.6117 32.1213 18.3548 33.135 18.2976Z" fill="#0A0517" stroke="#0A0517"/>
<path d="M39.6215 25.9878V25.468C39.6594 25.4683 39.6934 25.4683 39.7213 25.4683H39.7237C40.224 25.4683 40.6804 25.3616 41.0574 25.059C41.427 24.7623 41.6546 24.3291 41.8111 23.8126L41.8326 23.7417V23.7328C41.8344 23.7265 41.8364 23.7198 41.8385 23.7125C41.8533 23.6614 41.8733 23.5938 41.8937 23.525L41.9502 23.335L41.9698 23.2681L41.977 23.2424C41.9775 23.2404 41.9783 23.2375 41.9792 23.234C41.98 23.2311 41.9808 23.2279 41.9816 23.2245C41.9825 23.221 41.9843 23.2133 41.9863 23.2035C41.9873 23.1988 41.989 23.1898 41.9907 23.1785L41.9908 23.178C41.9918 23.1711 41.9963 23.1415 41.9963 23.1039V23.0171L41.967 22.9354L38.9367 14.4727H39.8708L42.0512 21.543L42.1599 21.8957H42.529H42.5632H42.9322L43.041 21.543L45.2213 14.4727H46.1073L42.9521 23.4056L42.9517 23.4069C42.5743 24.4849 42.195 25.1095 41.7476 25.4757C41.316 25.8289 40.7544 25.9945 39.8787 25.9945C39.8281 25.9945 39.7309 25.9922 39.6215 25.9878Z" fill="#0A0517" stroke="#0A0517"/>
</svg>
