<svg width="400" height="197" viewBox="0 0 400 197" fill="none" xmlns="http://www.w3.org/2000/svg">
<path d="M235.435 118.922H171.367V74.3262C192.184 78.8398 213.566 78.6214 235.435 74.3262V118.922Z" fill="#231F20"/>
<path d="M80.7061 196.352C82.7945 192.827 84.4922 190.242 85.6482 188.923L101.655 167.977C115.899 158.561 129.557 139.49 143.208 120.316L88.5383 105.784C87.9993 96.4012 87.8996 86.4193 87.2812 77.1453C98.5234 57.6764 118.503 44.5291 130.165 25.3029C132.206 21.9325 134.041 18.1428 132.846 14.1131C132.525 13.021 131.922 12.0328 131.098 11.2482C130.584 10.7661 129.983 10.3851 129.328 10.1252C126.114 8.85389 123.424 10.9557 121.117 12.9213C118.123 15.4729 115.13 18.0097 112.136 20.5317C112.929 18.9139 113.658 17.2665 114.304 15.5772C115.381 12.7595 116.224 9.72885 115.718 6.75345C115.376 4.72446 114.25 2.74535 112.619 1.55492C111.866 0.987885 110.983 0.617261 110.05 0.476382C106.031 -0.110071 102.809 3.57716 100.439 6.87883L95.8827 13.222C89.3318 22.3535 82.7792 31.4829 76.2248 40.61C77.6207 33.3487 78.9133 26.0655 80.1025 18.7602C80.76 14.7022 82.3647 2.5957 76.722 0.630071C75.9887 0.384453 75.2112 0.299846 74.4423 0.382009C72.1666 0.580189 70.4461 2.52425 69.3143 4.51279C67.4442 7.80771 66.5253 11.5367 65.6765 15.2348C65.636 15.41 65.5956 15.5907 65.5552 15.7659C61.2967 34.3032 57.075 52.845 52.8901 71.3913C50.4312 74.8183 48.7538 78.7434 47.9764 82.8898C43.9981 104.101 39.2307 125.145 33.6743 146.023L0 196.352H80.7061Z" fill="#FDAB96"/>
<path d="M88.4187 131.009C88.9954 153.838 85.6162 171.113 78.2812 182.835" stroke="#231F20" stroke-linecap="round" stroke-linejoin="round"/>
<path d="M110.788 21.6689L54.2266 71.2667" stroke="#231F20" stroke-linecap="round" stroke-linejoin="round"/>
<path d="M75.5621 41.5488L61.9297 60.5391" stroke="#231F20" stroke-linecap="round" stroke-linejoin="round"/>
<path d="M319.291 196.352C317.203 192.827 315.505 190.242 314.349 188.923L298.343 167.977C284.098 158.561 270.44 139.49 256.789 120.316L311.459 105.784C311.998 96.4012 312.098 86.4193 312.717 77.1453C301.474 57.6764 281.494 44.5291 269.837 25.3029C267.796 21.9325 265.96 18.1428 267.156 14.1131C267.475 13.0214 268.076 12.0333 268.899 11.2482C269.414 10.7661 270.014 10.3851 270.669 10.1252C273.883 8.85389 276.574 10.9557 278.88 12.9213C281.874 15.4729 284.868 18.0097 287.862 20.5317C287.068 18.9139 286.339 17.2665 285.694 15.5772C284.616 12.7595 283.774 9.72885 284.279 6.75345C284.621 4.72446 285.748 2.74535 287.378 1.55492C288.132 0.987885 289.015 0.617261 289.947 0.476382C293.966 -0.110071 297.188 3.57716 299.558 6.87883L304.115 13.222C310.665 22.3571 317.218 31.4883 323.775 40.6154C322.378 33.3505 321.084 26.0655 319.895 18.7602C319.237 14.7022 317.633 2.5957 323.275 0.630071C324.009 0.384453 324.786 0.299846 325.555 0.382009C327.831 0.580189 329.551 2.52425 330.683 4.51279C332.553 7.80771 333.472 11.5367 334.321 15.2348C334.361 15.41 334.402 15.5907 334.443 15.7659C338.701 34.3032 342.923 52.845 347.109 71.3913C349.567 74.8183 351.245 78.7434 352.022 82.8898C356.001 104.101 360.769 125.145 366.324 146.023L399.997 196.352H319.291Z" fill="#FDAB96"/>
<path d="M311.586 131.009C311.01 153.838 314.389 171.113 321.724 182.835" stroke="#231F20" stroke-linecap="round" stroke-linejoin="round"/>
<path d="M289.211 21.6689L345.773 71.2667" stroke="#231F20" stroke-linecap="round" stroke-linejoin="round"/>
<path d="M324.438 41.5488L338.07 60.5391" stroke="#231F20" stroke-linecap="round" stroke-linejoin="round"/>
<path d="M129.398 153.482C161.619 153.482 187.74 127.345 187.74 95.1039C187.74 62.8625 161.619 36.7256 129.398 36.7256C97.1757 36.7256 71.0547 62.8625 71.0547 95.1039C71.0547 127.345 97.1757 153.482 129.398 153.482Z" fill="#454FDB"/>
<path d="M129.405 146.946C158.019 146.946 181.216 123.735 181.216 95.1032C181.216 66.4714 158.019 43.2607 129.405 43.2607C100.79 43.2607 77.5938 66.4714 77.5938 95.1032C77.5938 123.735 100.79 146.946 129.405 146.946Z" fill="#652FEB"/>
<path d="M169.257 94.9232C169.257 102.751 160.399 109.525 147.511 112.788C142.276 114.117 136.371 114.864 130.13 114.864C123.889 114.864 117.981 114.117 112.749 112.788C99.851 109.529 90.9922 102.751 90.9922 94.9232C90.9922 87.0957 99.851 80.3144 112.744 77.0586C117.978 75.7293 123.884 74.9824 130.125 74.9824C136.365 74.9824 142.274 75.7293 147.505 77.0586C160.399 80.3144 169.257 87.089 169.257 94.9232Z" fill="white"/>
<path d="M155.047 94.9205C155.05 98.2514 154.385 101.549 153.091 104.618C151.796 107.687 149.899 110.464 147.511 112.785C142.277 114.114 136.371 114.861 130.13 114.861C123.889 114.861 117.981 114.114 112.749 112.785C110.366 110.461 108.472 107.684 107.178 104.616C105.885 101.548 105.219 98.2516 105.219 94.9218C105.219 91.5921 105.885 88.296 107.178 85.2281C108.472 82.1601 110.366 79.3824 112.749 77.0586C117.984 75.7293 123.889 74.9824 130.13 74.9824C136.371 74.9824 142.279 75.7293 147.511 77.0586C149.898 79.3792 151.796 82.1561 153.09 85.2244C154.385 88.2927 155.05 91.59 155.047 94.9205Z" fill="black"/>
<path d="M112.662 113.093L112.581 113.072L112.52 113.013C110.106 110.661 108.187 107.848 106.876 104.741C105.566 101.634 104.891 98.2963 104.891 94.9241C104.891 91.5519 105.566 88.2139 106.876 85.1071C108.187 82.0002 110.106 79.1876 112.52 76.8351L112.581 76.7771L112.662 76.7555C118.112 75.3723 123.986 74.6699 130.122 74.6699C136.258 74.6699 142.134 75.3723 147.584 76.7555L147.665 76.7771L147.725 76.8351C150.14 79.1877 152.059 82.0005 153.369 85.1073C154.679 88.2141 155.354 91.552 155.354 94.9241C155.354 98.2962 154.679 101.634 153.369 104.741C152.059 107.848 150.14 110.66 147.725 113.013L147.665 113.072L147.584 113.093C142.135 114.477 136.266 115.178 130.122 115.178C123.978 115.178 118.111 114.477 112.662 113.093ZM154.727 94.9248C154.738 91.6488 154.09 88.4041 152.822 85.3838C151.554 82.3634 149.692 79.629 147.347 77.3433C141.972 75.9857 136.177 75.2968 130.122 75.2968C124.067 75.2968 118.274 75.9857 112.898 77.3433C110.561 79.6356 108.705 82.3712 107.438 85.3899C106.171 88.4086 105.518 91.6499 105.518 94.9241C105.518 98.1983 106.171 101.44 107.438 104.458C108.705 107.477 110.561 110.213 112.898 112.505C118.272 113.862 124.067 114.551 130.122 114.551C136.177 114.551 141.979 113.862 147.347 112.505C149.692 110.219 151.554 107.485 152.822 104.465C154.09 101.445 154.738 98.2006 154.727 94.9248Z" fill="black"/>
<path d="M132.859 126.474L160.941 117.009" stroke="#231F20" stroke-linecap="round" stroke-linejoin="round"/>
<path d="M274.382 153.482C306.604 153.482 332.725 127.345 332.725 95.1039C332.725 62.8625 306.604 36.7256 274.382 36.7256C242.16 36.7256 216.039 62.8625 216.039 95.1039C216.039 127.345 242.16 153.482 274.382 153.482Z" fill="#454FDB"/>
<path d="M274.381 146.946C302.996 146.946 326.192 123.735 326.192 95.1032C326.192 66.4714 302.996 43.2607 274.381 43.2607C245.767 43.2607 222.57 66.4714 222.57 95.1032C222.57 123.735 245.767 146.946 274.381 146.946Z" fill="#652FEB"/>
<path d="M234.531 94.9232C234.531 102.751 243.39 109.525 256.279 112.788C261.513 114.117 267.417 114.864 273.66 114.864C279.902 114.864 285.807 114.117 291.04 112.788C303.936 109.532 312.793 102.751 312.793 94.9232C312.793 87.0957 303.94 80.3144 291.042 77.0586C285.807 75.7293 279.903 74.9824 273.661 74.9824C267.419 74.9824 261.512 75.7293 256.28 77.0586C243.39 80.3144 234.531 87.089 234.531 94.9232Z" fill="white"/>
<path d="M248.742 94.9205C248.739 98.2515 249.404 101.549 250.699 104.618C251.994 107.687 253.891 110.464 256.279 112.785C261.514 114.114 267.418 114.861 273.66 114.861C279.902 114.861 285.808 114.114 291.041 112.785C293.425 110.462 295.32 107.684 296.614 104.616C297.908 101.548 298.575 98.2519 298.575 94.9218C298.575 91.5918 297.908 88.2954 296.614 85.2274C295.32 82.1594 293.425 79.3818 291.041 77.0586C285.806 75.7293 279.902 74.9824 273.66 74.9824C267.418 74.9824 261.511 75.7293 256.279 77.0586C253.892 79.3791 251.994 82.1559 250.699 85.2242C249.405 88.2926 248.739 91.5899 248.742 94.9205Z" fill="black"/>
<path d="M273.655 115.178C267.516 115.178 261.642 114.477 256.193 113.093L256.112 113.072L256.052 113.013C253.637 110.661 251.718 107.848 250.407 104.741C249.097 101.634 248.422 98.2963 248.422 94.9241C248.422 91.5519 249.097 88.2139 250.407 85.1071C251.718 82.0002 253.637 79.1876 256.052 76.8351L256.112 76.7771L256.193 76.7555C261.643 75.3723 267.511 74.6699 273.655 74.6699C279.799 74.6699 285.665 75.3723 291.115 76.7555L291.196 76.7771L291.257 76.8351C293.671 79.1876 295.59 82.0002 296.901 85.1071C298.211 88.2139 298.886 91.5519 298.886 94.9241C298.886 98.2963 298.211 101.634 296.901 104.741C295.59 107.848 293.671 110.661 291.257 113.013L291.196 113.072L291.115 113.093C285.668 114.477 279.793 115.178 273.655 115.178ZM256.43 112.505C261.804 113.862 267.599 114.551 273.655 114.551C279.711 114.551 285.503 113.862 290.879 112.505C293.216 110.213 295.072 107.477 296.339 104.458C297.606 101.44 298.259 98.1983 298.259 94.9241C298.259 91.6499 297.606 88.4086 296.339 85.3899C295.072 82.3712 293.216 79.6356 290.879 77.3433C285.502 75.9857 279.708 75.2968 273.655 75.2968C267.601 75.2968 261.798 75.9857 256.43 77.3433C254.094 79.6354 252.237 82.3709 250.97 85.3897C249.703 88.4084 249.05 91.6498 249.05 94.9241C249.05 98.1984 249.703 101.44 250.97 104.459C252.237 107.477 254.094 110.213 256.43 112.505Z" fill="black"/>
<path d="M270.925 126.474L242.844 117.009" stroke="#231F20" stroke-linecap="round" stroke-linejoin="round"/>
</svg>
