<svg width="400" height="468" viewBox="0 0 400 468" fill="none" xmlns="http://www.w3.org/2000/svg">
<path d="M0.466839 146.303C1.73882 141.949 20.3175 137.017 23.6709 135.321C27.0243 133.626 49.5345 116.094 77.5952 99.6027C105.656 83.1113 149.404 73.8252 153.799 72.5152C161.122 70.3189 174.189 61.6878 177.696 64.2309C192.652 75.0197 229.231 170.346 224.952 186.26C223.179 192.926 203.676 195.507 203.676 195.507C203.676 195.507 175.692 205.217 145.974 222.556C116.256 239.895 92.8975 242.554 89.2358 243.633C85.574 244.712 72.5458 265.981 65.6848 263.207C39.5514 252.726 -5.04508 165.145 0.466839 146.303Z" fill="#CBC7F7"/>
<path d="M177.697 64.2755C177.003 63.7746 175.962 63.7361 174.69 63.9287C173.997 71.0956 182.014 91.0933 182.901 98.3758C184.481 111.592 180.511 113.904 183.71 121.225C196.892 146.155 223.334 167.501 182.091 135.79C182.207 136.291 182.746 148.775 180.01 156.019C180.01 156.019 65.3 283.018 21.8984 207.497C42.5585 243.446 46.4901 251.576 65.6469 263.29C72.5465 266.064 85.5361 244.795 89.1978 243.716C92.8596 242.637 116.256 239.979 145.936 222.639C175.654 205.3 203.638 195.59 203.638 195.59C203.638 195.59 223.141 193.009 224.914 186.343C229.232 170.391 192.652 75.0643 177.697 64.2755Z" fill="#949AF6"/>
<path d="M176.621 65.3828C175.581 65.7296 190.652 97.7877 200.866 121.6C215.937 156.818 222.027 191.843 223.646 185.678C228.117 171.884 192.926 79.4853 176.621 65.3828Z" fill="#DCD5CD"/>
<path d="M161.047 51.3278C164.67 47.7444 187.335 51.3663 191.844 51.2507C196.354 51.1351 229.811 44.5077 268.703 41.3482C307.595 38.1886 359.823 48.9003 365.258 49.5939C374.316 50.7884 392.933 48.3994 395.439 52.4067C406.077 69.399 396.441 176.632 383.605 189.887C378.248 195.435 355.776 189.193 355.776 189.193C355.776 189.193 320.43 185.956 279.303 189.193C238.175 192.43 211.464 184.492 206.915 183.914C202.367 183.336 177.313 197.747 171.3 192.044C148.404 170.313 145.321 66.8559 161.047 51.3278Z" fill="#CBC7F7"/>
<path d="M395.439 52.4049C394.938 51.6343 393.859 51.0948 392.356 50.748C387.923 57.2598 386.265 79.9163 383.452 87.2373C378.364 100.531 372.813 100.993 372.543 109.354C374.162 139.871 391.392 170.735 363.293 122.493C363.177 122.994 365.297 132.512 350.611 140.834C212.621 219.284 154.533 74.7146 154.533 74.7146C151.064 87.0831 147.48 114.595 157.309 143.917C157.193 156.131 159.583 169.348 159.583 169.348C170.684 207.34 181.669 189.885 206.954 183.874C211.503 184.49 238.176 192.389 279.342 189.153C320.469 185.916 355.815 189.153 355.815 189.153C355.815 189.153 378.287 195.395 383.644 189.846C396.441 176.592 406.077 69.3587 395.439 52.4049Z" fill="#949AF6"/>
<path d="M393.702 52.9819C392.392 52.8278 392.199 90.1262 390.927 117.406C389.077 157.71 377.552 193.814 382.524 188.689C394.512 177.477 404.032 73.6733 393.702 52.9819Z" fill="white"/>
<path d="M207.912 34.3726C207.257 36.9157 206.255 39.4202 204.944 41.8477C203.634 44.2752 202.053 46.7026 200.088 49.0145C199.124 50.1319 198.083 51.2493 196.888 52.2897C196.464 52.675 196.002 53.0603 195.539 53.4456C194.653 54.2548 193.612 55.1025 192.34 56.1043C190.953 57.1832 189.488 58.262 187.985 59.3409C185.017 61.4987 181.933 63.772 179.389 66.161C178.503 67.0087 177.655 67.8949 176.845 68.8582C176.46 69.3205 176.074 69.8215 175.766 70.2838C175.573 70.5921 175.342 70.8618 175.188 71.1701C174.841 71.7866 174.648 72.4416 174.455 73.0966C173.877 75.2158 173.569 77.2965 173.299 79.3387C172.914 82.0359 172.644 84.7716 172.374 87.4303L172.297 88.3165C172.027 90.9366 171.757 93.5182 171.449 96.1384C171.179 98.4503 170.832 101.147 170.254 103.922L170.331 103.691C169.984 105.116 169.714 106.195 169.367 107.197C169.098 107.929 168.789 108.738 168.327 109.47C168.211 109.624 168.095 109.778 167.941 109.933C167.556 109.624 167.209 109.316 166.823 108.892C166.284 108.314 165.783 107.736 165.359 107.158L165.513 107.39C164.125 105.54 162.969 103.691 161.62 101.456C161.157 100.647 160.695 99.8374 160.232 99.0282L160.117 98.797C160.001 98.6429 159.924 98.4503 159.847 98.2961C159.461 97.6026 159.192 96.8705 158.96 96.0613C158.69 94.8283 158.613 93.6338 158.652 92.3623C158.652 92.2082 158.652 92.0926 158.613 91.9385C158.536 89.8578 158.652 87.8156 158.652 85.7349C158.652 84.656 158.652 83.6157 158.536 82.5368C158.459 81.6121 158.305 80.6873 158.074 79.7626L158.035 79.8011L157.92 80.0708C157.842 80.2635 157.727 80.4561 157.65 80.6488L157.573 80.9185C157.496 81.1111 157.418 81.3038 157.303 81.4579C157.033 81.9974 156.725 82.5753 156.416 83.1148C155.8 84.2322 155.144 85.3496 154.489 86.467L154.335 86.7367L153.757 87.7385C152.562 89.7422 151.405 91.7458 150.249 93.788C148.669 96.6008 147.589 98.797 146.742 100.878C145.778 103.305 145.2 105.579 144.968 107.813C144.853 109.008 144.891 110.164 144.93 111.281C145.007 112.553 145.123 113.824 145.277 115.096C145.431 116.521 145.624 117.947 145.816 119.373C145.932 120.259 146.048 121.107 146.163 121.993C146.472 124.497 146.664 126.617 146.742 128.62C146.819 130.855 146.664 133.128 146.202 135.325V135.479C145.739 137.714 144.891 140.064 143.619 142.569C143.234 143.339 142.81 144.071 142.386 144.803C142.155 145.227 141.923 145.613 141.692 146.037C141.037 147.231 140.42 148.425 139.842 149.62C137.375 154.706 136.219 158.867 136.219 162.759C136.219 164.878 136.681 167.036 137.529 169.232C138.377 171.352 139.726 173.509 141.692 175.86C144.737 179.482 149.093 182.834 154.296 185.531C159.153 188.074 165.012 190.155 171.256 191.504C174.455 192.197 177.77 192.737 181.085 193.083C184.361 193.43 187.83 193.584 191.415 193.546C192.032 193.546 192.61 193.546 193.227 193.507C198.315 193.392 203.21 192.929 207.758 192.159C212.499 191.349 216.893 190.116 220.825 188.575C224.564 187.072 227.917 185.261 230.808 183.142C233.622 181.1 236.012 178.75 237.9 176.245C241.523 171.467 243.643 165.919 244.183 159.715C244.684 154.128 243.836 148.31 241.639 142.415C240.675 139.756 239.326 137.097 237.708 134.439C236.937 133.206 236.089 131.973 235.202 130.778C233.737 128.852 232.003 127.041 229.999 125.037C228.38 123.419 226.722 121.762 225.296 119.989C224.602 119.065 224.024 118.14 223.523 117.215C222.983 116.175 222.675 115.134 222.444 114.21V114.287C222.29 113.555 222.135 112.822 221.981 112.09C221.75 110.896 221.48 109.701 221.095 108.507C220.439 106.388 219.283 104.654 217.587 103.19C217.433 103.845 217.24 104.5 217.047 105.155C216.739 106.118 216.354 107.043 215.968 108.006C215.583 108.969 215.236 109.894 214.927 110.857C214.619 111.782 214.388 112.668 214.195 113.593V113.632C213.848 115.366 213.617 117.099 213.54 118.833C213.463 122.378 213.848 125.384 214.696 128.119C214.234 127.811 213.771 127.503 213.309 127.195C211.42 125.846 209.878 124.382 208.683 122.841C207.527 121.261 206.602 119.45 206.101 117.523C205.484 114.942 205.484 112.052 206.139 108.738C206.486 107.235 206.91 105.617 207.565 103.729C207.874 102.881 208.182 101.995 208.529 101.147C208.914 100.107 209.338 99.0668 209.685 98.0264C210.302 96.0998 210.688 94.1347 210.803 92.1311C210.919 90.3972 210.803 88.5862 210.456 86.5826C209.84 83.0377 208.375 79.4928 206.872 76.2177C206.216 74.7535 205.523 73.3278 204.79 71.9021L204.212 70.6691L203.942 70.1297C203.595 69.3976 203.21 68.6655 202.901 67.9334C202.593 67.2784 202.362 66.5848 202.131 65.7371C201.398 62.6932 201.437 59.418 202.323 55.0639C203.056 51.5576 204.212 48.0127 205.291 44.5834L205.484 43.9284C205.985 42.8495 206.486 41.6936 206.872 40.4991C207.797 37.8404 208.336 35.0276 208.413 32.2148C208.221 32.9469 208.066 33.6405 207.912 34.3726Z" fill="#FE5122"/>
<path d="M185.787 3.27516C184.9 4.39257 184.168 5.58705 183.59 6.82005C182.549 9.01634 182.048 11.4438 182.125 14.0639C182.202 16.2602 182.665 18.6492 183.628 21.3849C184.014 22.5408 184.515 23.6968 185.131 25.1224L185.517 25.9701C185.671 26.3169 185.825 26.6637 185.979 26.972C186.249 27.627 186.48 28.3206 186.712 29.1297C187.097 30.671 187.29 32.3663 187.251 34.3314C187.213 35.9498 187.059 37.6451 186.866 39.2249L186.827 39.5717C186.673 41.0744 186.558 42.423 186.481 43.8102L186.288 44.6193C186.095 45.5055 186.018 46.3147 186.056 47.1239C186.095 47.933 186.288 48.7807 186.635 49.6284C186.635 49.6284 186.635 49.6669 186.673 49.6669V49.6284C186.943 47.3936 187.83 45.1973 188.909 43.0395C189.448 41.9607 190.065 40.8818 190.759 39.8029C190.913 39.5717 191.029 39.3791 191.183 39.1479C191.453 38.6855 191.761 38.3002 192.031 37.9149L192.108 37.8378C192.648 37.0672 193.149 36.3736 193.65 35.68C194.806 34.1003 195.963 32.4819 196.965 30.8636C198.584 28.1664 199.239 25.816 199.046 23.6583C198.892 22.117 198.391 20.4987 197.543 18.7262C197.504 18.6492 197.466 18.5721 197.389 18.4951C197.157 18.1097 196.926 17.7244 196.656 17.3391C196.078 16.4529 195.461 15.6052 194.845 14.7575C193.534 12.9851 192.224 11.1741 191.144 9.32459C190.566 8.39984 190.065 7.43655 189.68 6.47327C189.333 5.58705 189.024 4.73936 188.832 3.85313C188.678 2.96691 188.6 2.04216 188.755 1.11741C188.832 0.732095 188.909 0.385314 189.024 0C187.714 1.04035 186.673 2.15775 185.787 3.27516Z" fill="#F05622"/>
<path d="M228.342 83.3064C228.034 83.345 227.725 83.422 227.455 83.4991C226.839 83.6532 226.261 83.8844 225.528 84.1927C224.256 84.7706 223.023 85.5027 221.866 86.389C221.25 86.8513 220.71 87.3908 220.248 87.9302C219.785 88.5082 219.4 89.1632 219.13 89.9338C218.898 90.5118 218.783 91.1283 218.667 91.8989C218.59 92.5154 218.59 93.1705 218.667 93.9796C218.706 94.4035 218.744 94.8273 218.821 95.2512C218.86 95.3668 218.86 95.4438 218.898 95.5594C218.898 95.5594 218.898 95.5594 218.898 95.5209C219.091 96.1759 219.322 96.7924 219.631 97.4089C219.939 98.0254 220.325 98.6419 220.787 99.2199L220.749 99.1814C220.787 99.2199 220.787 99.2199 220.826 99.2584C220.941 99.1814 221.018 99.1043 220.98 99.0272C220.98 98.7961 220.98 98.6034 221.018 98.3722C221.173 97.7557 221.481 97.1777 221.982 96.4456C222.483 95.7906 223.061 95.097 223.909 94.2494C224.603 93.5558 225.374 92.8237 226.453 91.8989L227.494 90.9742C227.995 90.5118 228.535 90.0494 229.036 89.6256C229.73 88.9706 230.5 88.277 231.156 87.5834C231.58 87.1211 232.081 86.5046 232.389 85.8881C232.505 85.6569 232.543 85.4257 232.543 85.1945C232.543 85.0789 232.505 84.9633 232.466 84.8862C232.428 84.7706 232.312 84.655 232.235 84.5395C231.927 84.1156 231.464 83.8074 230.924 83.5762C230.809 83.5376 230.693 83.4991 230.539 83.4606C230.462 83.422 230.346 83.422 230.269 83.3835C229.845 83.3065 229.46 83.2679 229.19 83.2679H229.113C228.843 83.2294 228.573 83.2679 228.342 83.3064Z" fill="#F05622"/>
<path d="M195.542 78.027C195.504 78.027 195.504 78.0269 195.504 78.0655C194.848 78.3737 194.193 78.7205 193.576 79.1058C192.998 79.4526 192.497 79.8379 191.996 80.1847C191.302 80.7241 190.647 81.3021 190.107 81.9186C189.529 82.5736 188.99 83.2287 188.527 83.8837L188.566 83.8452C187.14 85.9259 186.253 88.0836 185.559 90.2799C184.865 92.5533 184.364 94.8266 183.902 97.1C183.401 99.3733 182.938 101.608 182.206 103.881C181.859 104.922 181.473 105.924 180.972 106.964C180.741 107.426 180.51 107.889 180.201 108.313C179.97 108.659 179.739 109.006 179.508 109.353C179.508 109.353 179.508 109.353 179.508 109.391C179.315 109.661 179.161 109.931 179.007 110.201C178.775 110.586 178.583 110.971 178.39 111.357C177.85 112.358 177.349 113.399 176.848 114.401C176.231 115.634 175.615 116.828 174.959 118.061C174.343 119.217 173.726 120.373 172.994 121.49C172.492 122.338 171.953 123.186 171.298 123.995C171.028 124.342 170.758 124.65 170.45 124.997C170.218 125.228 169.987 125.459 169.679 125.652C169.563 125.729 169.409 125.806 169.255 125.921C169.139 125.96 169.023 126.037 168.869 126.076C168.676 126.153 168.445 126.191 168.214 126.191C167.944 126.23 167.674 126.268 167.405 126.268C166.865 126.268 166.325 126.191 165.824 126.037C165.323 125.883 164.899 125.69 164.514 125.459C163.55 124.843 162.895 124.11 162.355 123.34C161.7 122.377 161.199 121.413 160.775 120.411C160.351 119.448 160.042 118.446 159.734 117.483C159.618 117.098 159.503 116.674 159.387 116.289C159.31 116.481 159.233 116.635 159.194 116.828C159.04 117.252 158.925 117.714 158.809 118.138C158.809 118.1 158.809 118.1 158.809 118.061C158.539 119.371 158.501 120.681 158.616 122.03C158.732 123.34 159.002 124.611 159.349 125.921C159.541 126.731 159.773 127.54 160.042 128.31C160.544 130.083 161.083 131.855 161.392 133.628C161.661 135.208 161.738 136.826 161.584 138.406C161.43 139.908 161.16 141.411 160.698 142.914C160.235 144.417 159.696 145.958 159.04 147.422C157.73 150.389 156.149 153.356 154.723 156.323C154.029 157.787 153.336 159.29 152.757 160.754C152.179 162.257 151.717 163.721 151.408 165.223C151.139 166.534 150.984 167.844 150.984 169.192C150.984 169.886 151.023 170.541 151.1 171.234C151.177 171.889 151.331 172.583 151.485 173.238C151.794 174.432 152.256 175.627 152.835 176.783C153.413 177.862 154.107 178.941 154.916 179.981L154.877 179.942C155.725 181.021 156.689 182.062 157.768 183.063C158.848 184.065 160.004 184.99 161.276 185.915C161.276 185.915 161.276 185.915 161.314 185.915C161.314 185.915 161.353 185.915 161.353 185.953C162.818 186.994 164.398 187.957 166.094 188.882C167.751 189.768 169.486 190.577 171.298 191.348C171.799 191.54 172.261 191.733 172.762 191.926C175.499 192.465 178.274 192.889 181.127 193.197C184.441 193.544 187.91 193.698 191.457 193.66C192.073 193.66 192.651 193.66 193.268 193.621C198.356 193.505 203.251 193.043 207.8 192.234C212.541 191.425 216.935 190.192 220.866 188.651C221.483 188.419 222.1 188.15 222.678 187.88C222.794 187.803 222.909 187.687 223.025 187.61C223.025 187.61 223.063 187.61 223.063 187.572C224.258 186.647 225.299 185.645 226.263 184.643C227.265 183.603 228.113 182.524 228.884 181.445L228.845 181.484C231.273 178.016 232.7 174.355 233.471 170.695V170.733C233.895 168.73 234.126 166.688 234.126 164.645C234.126 163.682 234.087 162.719 234.01 161.756C233.972 161.178 233.894 160.638 233.817 160.099C233.74 159.444 233.586 158.789 233.432 158.134C233.124 156.901 232.7 155.706 232.16 154.473C231.659 153.279 231.042 152.123 230.387 151.005C229.076 148.732 227.496 146.536 225.877 144.339C224.258 142.143 222.601 139.947 221.136 137.712C220.365 136.595 219.671 135.439 219.016 134.283C218.438 133.242 217.937 132.202 217.474 131.123C217.436 131.162 217.397 131.162 217.359 131.2C216.511 131.894 215.701 132.587 214.969 133.358C214.237 134.129 213.543 134.861 212.849 135.631C211.5 137.134 210.189 138.637 208.57 140.062C208.493 140.14 208.378 140.178 208.224 140.178C208.069 140.178 207.954 140.14 207.877 140.062C205.603 138.329 203.598 136.518 201.902 134.591C200.36 132.819 199.05 130.969 198.048 129.042C197.084 127.193 196.352 125.266 195.851 123.34C195.35 121.375 195.041 119.371 194.926 117.406C194.54 111.048 195.735 104.691 196.622 98.333C197.046 95.1349 197.431 91.9368 197.47 88.7387C197.508 87.1589 197.431 85.5406 197.277 83.9608C197.123 82.381 196.853 80.8397 196.429 79.2985C196.313 78.8361 196.198 78.3737 196.043 77.9499C195.928 77.8728 195.735 77.9499 195.542 78.027Z" fill="#FDAB96"/>
<path d="M186.252 127.006C185.789 127.545 185.365 128.123 184.941 128.701L184.98 128.663C183.746 130.435 182.821 132.285 182.166 134.173C181.472 136.061 181.01 137.949 180.547 139.837C180.085 141.725 179.661 143.613 179.083 145.501C178.504 147.389 177.772 149.238 176.731 151.049C176.693 151.126 176.539 151.204 176.346 151.242C176.192 151.242 176.076 151.204 175.999 151.126C175.189 150.51 174.534 149.855 174.033 149.161C173.493 148.429 173.07 147.62 172.723 146.849C172.183 145.501 171.798 144.152 171.374 142.842C171.181 143.073 171.027 143.305 170.872 143.536C169.523 145.501 168.56 147.543 167.789 149.624C166.902 151.974 166.247 154.363 165.746 156.791C165.746 156.791 165.746 156.791 165.746 156.829C165.746 156.829 165.746 156.829 165.746 156.791C165.014 160.258 164.59 163.765 164.397 167.271C164.32 168.774 164.281 170.277 164.32 171.779C164.32 172.511 164.358 173.243 164.435 173.976C164.513 174.823 164.667 175.632 164.898 176.48C165.206 177.752 165.669 179.023 166.286 180.256C166.902 181.489 167.635 182.684 168.56 183.84L168.521 183.801C169.254 184.764 170.102 185.689 171.065 186.575C171.952 187.423 172.954 188.232 174.033 189.003C174.033 189.003 174.033 189.003 174.072 189.041C174.072 189.041 174.11 189.041 174.11 189.08C175.035 189.735 176.037 190.39 177.117 190.968C178.235 191.584 179.391 192.124 180.624 192.625C181.395 192.933 182.205 193.241 183.053 193.549C185.789 193.742 188.565 193.858 191.378 193.819C191.995 193.819 192.573 193.819 193.19 193.781C198.239 193.665 203.135 193.203 207.76 192.394C209.34 192.124 210.844 191.816 212.347 191.469C212.848 191.083 213.349 190.737 213.811 190.351L213.85 190.313C213.85 190.313 213.85 190.313 213.889 190.274C215.507 189.003 217.049 187.693 218.398 186.306C219.709 184.996 220.865 183.647 221.867 182.221L221.829 182.26C222.677 181.065 223.371 179.832 223.949 178.599C224.527 177.328 224.951 176.056 225.221 174.785C225.491 173.513 225.606 172.242 225.606 170.97C225.606 170.277 225.568 169.583 225.491 168.889C225.413 168.234 225.298 167.579 225.105 166.924C225.105 166.924 225.105 166.924 225.105 166.963C225.105 166.963 225.105 166.963 225.105 166.924C224.643 165.113 223.872 163.379 222.947 161.607C222.022 159.873 220.981 158.178 219.94 156.482C218.899 154.787 217.897 153.053 217.088 151.281C216.702 150.394 216.317 149.508 216.047 148.622C215.854 147.967 215.7 147.312 215.546 146.618C215.161 146.888 214.775 147.119 214.428 147.427C213.31 148.314 212.308 149.277 211.46 150.279C210.612 151.242 209.88 152.244 209.109 153.207C208.377 154.17 207.644 155.172 206.796 156.136C205.987 157.06 205.062 157.985 203.983 158.833C203.905 158.871 203.867 158.91 203.751 158.948C203.674 158.948 203.597 158.948 203.559 158.948C203.366 158.91 203.289 158.833 203.25 158.717C203.135 158.101 202.98 157.484 202.826 156.868C202.633 156.174 202.441 155.48 202.171 154.787C201.284 152.282 200.051 149.855 198.663 147.427C197.276 145.038 195.734 142.65 194.192 140.261C192.65 137.872 191.186 135.444 189.914 132.978C189.297 131.745 188.719 130.474 188.218 129.202C187.832 128.162 187.485 127.121 187.177 126.081C186.907 126.274 186.56 126.62 186.252 127.006ZM202.865 156.675V156.713C202.865 156.713 202.865 156.713 202.865 156.675ZM225.221 174.554V174.592C225.182 174.592 225.221 174.592 225.221 174.554Z" fill="#FF9072"/>
<path d="M194.075 158.442C193.843 158.481 193.612 158.519 193.419 158.596C193.149 158.673 192.918 158.75 192.687 158.866C192.186 159.097 191.762 159.406 191.338 159.714C190.182 160.639 189.334 161.679 188.601 162.719L188.64 162.681C187.984 163.605 187.445 164.53 186.944 165.455C186.79 165.763 186.597 166.11 186.443 166.418C186.173 166.919 186.057 167.497 185.942 167.998C185.787 168.807 185.672 169.616 185.479 170.387C185.325 171.119 185.132 171.813 184.67 172.506C184.593 172.66 184.477 172.776 184.361 172.93C184.207 173.084 184.053 173.238 183.86 173.354C183.475 173.662 183.012 173.97 182.473 174.202C182.087 174.356 181.625 174.51 181.162 174.587C180.892 174.625 180.622 174.664 180.391 174.702H180.353C180.275 174.741 180.198 174.78 180.121 174.78C180.006 174.818 179.89 174.818 179.774 174.818C179.35 174.857 178.965 174.857 178.541 174.895C178.387 174.895 178.271 174.934 178.117 174.934C177.963 174.972 177.809 175.011 177.654 175.049C177.539 175.088 177.462 175.126 177.346 175.165C177.23 175.203 177.153 175.242 177.038 175.28C176.922 175.319 176.806 175.396 176.729 175.435C176.614 175.512 176.537 175.55 176.46 175.627C176.305 175.781 176.151 175.897 176.074 176.051C175.881 176.359 175.766 176.629 175.689 176.937C175.689 176.899 175.689 176.899 175.689 176.86C175.534 177.631 175.65 178.401 175.843 179.134C175.843 179.095 175.843 179.095 175.843 179.057C176.074 179.981 176.46 180.906 176.922 181.831C177.115 182.255 177.346 182.64 177.577 183.064C177.886 183.603 178.233 184.104 178.618 184.605C178.618 184.605 178.618 184.605 178.58 184.566C179.273 185.453 180.044 186.3 180.892 187.11C181.779 187.919 182.742 188.689 183.783 189.46C184.901 190.231 186.057 191.001 187.329 191.695C188.486 192.35 189.758 192.928 191.03 193.467C191.145 193.467 191.299 193.467 191.415 193.467C192.032 193.467 192.61 193.467 193.227 193.429C196.85 193.352 200.434 193.082 203.826 192.658C204.173 192.465 204.52 192.234 204.829 192.003C205.715 191.425 206.525 190.847 207.334 190.231C209.223 188.766 210.88 187.187 212.383 185.568C213.424 184.451 214.388 183.295 215.197 182.1C216.354 180.444 217.279 178.748 217.664 176.976V176.937C217.664 176.937 217.664 176.937 217.664 176.899C217.818 176.09 217.857 175.28 217.664 174.471V174.433C217.664 174.433 217.664 174.433 217.664 174.394C217.51 173.855 217.279 173.354 216.893 172.891C216.585 172.506 216.199 172.159 215.775 171.851C215.313 171.543 214.812 171.273 214.272 171.042C213.925 170.888 213.54 170.772 213.154 170.657C212.73 170.541 212.268 170.425 211.844 170.31C211.844 170.31 211.844 170.31 211.882 170.31C211.42 170.194 210.919 170.117 210.418 170.04C210.071 170.002 209.685 169.963 209.338 169.925C209.377 169.925 209.415 169.925 209.454 169.925C209.069 169.925 208.645 169.886 208.259 169.925C207.951 169.925 207.642 169.963 207.334 170.002C206.987 170.04 206.64 170.079 206.255 170.117C205.985 170.156 205.677 170.156 205.407 170.156C205.137 170.156 204.829 170.117 204.559 170.079C204.405 170.04 204.289 170.002 204.135 169.963C203.981 169.925 203.865 169.886 203.711 169.809C203.364 169.655 203.094 169.501 202.824 169.308C202.477 169.038 202.13 168.769 201.822 168.499C201.629 168.306 201.437 168.114 201.244 167.921C201.051 167.728 200.858 167.536 200.704 167.343C200.589 167.189 200.434 166.996 200.357 166.842C200.049 166.341 199.856 165.802 199.625 165.262C199.394 164.646 199.162 163.991 198.893 163.374C198.623 162.719 198.353 162.064 198.045 161.409C197.736 160.831 197.428 160.215 197.004 159.675C196.734 159.328 196.426 159.02 196.04 158.75C195.886 158.635 195.693 158.558 195.501 158.442C195.385 158.404 195.231 158.365 195.077 158.327C195.077 158.327 195.115 158.327 195.154 158.327C195 158.288 194.884 158.288 194.73 158.288C194.614 158.288 194.46 158.288 194.344 158.288C194.306 158.442 194.19 158.442 194.075 158.442Z" fill="#FBB45F"/>
<path d="M182.707 173.854C181.898 174.201 181.165 174.625 180.394 175.165C179.546 175.82 178.737 176.59 178.005 177.438C177.349 178.247 176.81 179.095 176.309 180.019C176.347 179.942 176.386 179.904 176.424 179.827C176.039 180.559 175.731 181.33 175.461 182.177C175.345 182.64 175.191 183.14 175.152 183.641C175.114 183.988 175.075 184.335 175.037 184.682C174.998 185.183 174.998 185.722 175.037 186.223C175.075 186.608 175.114 186.994 175.191 187.34C175.307 187.764 175.384 188.227 175.538 188.65C175.692 189.113 175.846 189.537 176.077 189.961C176.463 190.693 176.887 191.348 177.388 191.964C177.349 191.887 177.311 191.849 177.272 191.81C177.581 192.157 177.889 192.504 178.274 192.812L178.313 192.85C179.739 192.85 181.127 192.812 182.514 192.696C183.517 190.885 184.557 189.113 185.521 187.302C185.983 186.377 186.446 185.452 186.831 184.489C187.178 183.641 187.448 182.832 187.718 181.946C187.872 181.33 188.026 180.675 188.142 180.019C188.219 179.48 188.296 178.941 188.335 178.44C188.373 177.708 188.335 176.975 188.219 176.282V176.32C188.142 175.858 188.026 175.473 187.834 175.049C187.679 174.779 187.525 174.509 187.294 174.278C187.14 174.086 186.947 173.97 186.754 173.816C186.485 173.662 186.215 173.546 185.868 173.469H185.906C185.521 173.392 185.097 173.354 184.711 173.392C184.287 173.431 183.902 173.508 183.517 173.623C183.208 173.662 182.977 173.739 182.707 173.854Z" fill="#FBB45F"/>
<path d="M182.857 445.84L174.57 445.223L176.382 171.535L184.129 170.456L182.857 445.84Z" fill="white"/>
<path d="M189.376 176.929L186.87 354.636L186.639 442.68L181.859 446.032L184.134 170.456L189.376 176.929Z" fill="#929F9E"/>
<path d="M185.598 172.314C186.446 200.596 183.478 324.975 184.249 350.984C184.673 365.549 185.136 362.582 186.87 354.644L186.639 442.727L181.859 446.079L184.134 170.503L185.598 172.314Z" fill="#76807F"/>
<path d="M182.014 136.164C171.915 138.091 168.831 149.535 169.024 159.707C169.101 164.061 169.679 168.3 171.067 172.153C173.187 178.009 175.731 185.138 175.423 191.958C176.039 189.954 177.35 188.182 179.161 187.719C180.934 187.257 183.633 188.143 183.979 190.378C185.213 188.567 187.526 186.409 189.144 188.22C190.879 182.672 192.498 177.085 193.963 171.498C195.35 166.296 196.815 160.902 197.2 155.546C197.547 150.614 197.085 145.45 194.811 141.559C192.074 136.819 187.102 135.509 182.014 136.164Z" fill="#F24EB6"/>
<path d="M204.329 174.85C203.558 175.235 202.826 175.736 202.132 176.314C201.323 177.046 200.59 177.855 199.897 178.742C199.318 179.589 198.817 180.476 198.393 181.439C198.432 181.362 198.47 181.323 198.47 181.246C198.124 182.017 197.892 182.826 197.7 183.674C197.622 184.136 197.507 184.637 197.468 185.176C197.468 185.523 197.43 185.87 197.43 186.217C197.43 186.718 197.468 187.257 197.545 187.758C197.622 188.143 197.7 188.49 197.777 188.875C197.892 189.299 198.046 189.762 198.201 190.147C198.393 190.571 198.586 190.995 198.817 191.419C199.241 192.151 199.742 192.767 200.282 193.345C200.243 193.307 200.205 193.268 200.166 193.191C200.513 193.499 200.86 193.846 201.207 194.116L201.246 194.154C202.672 194.077 204.059 193.923 205.408 193.692C206.256 191.804 207.182 189.993 207.991 188.105C208.415 187.142 208.8 186.178 209.109 185.215C209.379 184.367 209.61 183.52 209.803 182.633C209.918 181.978 210.034 181.323 210.072 180.707C210.111 180.167 210.15 179.628 210.15 179.088C210.111 178.356 210.034 177.624 209.88 176.931V176.969C209.764 176.507 209.61 176.122 209.379 175.736C209.224 175.467 209.032 175.235 208.8 175.004C208.608 174.85 208.415 174.696 208.222 174.58C207.952 174.465 207.644 174.349 207.336 174.272H207.374C206.989 174.234 206.565 174.234 206.179 174.272C205.794 174.349 205.408 174.426 204.985 174.58C204.83 174.619 204.561 174.734 204.329 174.85Z" fill="#FBB45F"/>
<path d="M209.96 176.857C209.96 176.819 209.96 176.742 209.922 176.703C209.922 176.78 209.96 176.819 209.96 176.857Z" fill="#FBB45F"/>
<path d="M224.764 446.152L216.477 446.113L197.859 173.003L205.491 171.385L224.764 446.152Z" fill="white"/>
<path d="M211.197 177.473L221.951 354.871L228.311 442.723L223.801 446.383L205.492 171.385L211.197 177.473Z" fill="#929F9E"/>
<path d="M207.111 173.119C210.04 201.285 216.4 325.51 219.099 351.403C220.602 365.891 220.872 362.924 221.951 354.871L228.272 442.723L223.762 446.383L205.492 171.385L207.111 173.119Z" fill="#76807F"/>
<path d="M200.86 137.361C190.954 139.981 188.719 151.618 189.644 161.751C190.029 166.067 190.954 170.267 192.612 174.043C195.156 179.745 198.239 186.643 198.432 193.501C198.895 191.459 200.051 189.61 201.824 188.993C203.559 188.415 206.334 189.07 206.835 191.305C207.953 189.417 210.073 187.105 211.807 188.8C213.118 183.136 214.313 177.472 215.353 171.769C216.356 166.452 217.396 160.981 217.396 155.663C217.396 150.731 216.51 145.607 213.966 141.908C210.921 137.245 205.833 136.282 200.86 137.361Z" fill="#F24EB6"/>
<path d="M302.156 189.416C267.504 215.194 218.629 209.838 158.114 240.933C117.718 261.701 84.4927 300.849 36.8127 335.72C22.7438 346.008 68.2268 374.868 73.6231 383.114C74.9336 385.117 58.6676 392.592 57.3957 398.565C56.0466 404.922 69.5758 409.97 67.8028 418.254C64.4108 434.36 59.6698 456.786 72.5438 460.369C168.945 487.148 366.025 424.304 377.935 410.895C397.323 389.086 333.531 281.044 328.135 261.47C322.739 241.935 318.576 177.202 302.156 189.416Z" fill="#949AF6"/>
<path d="M377.935 410.942C373.888 416.066 338.157 428.782 322.276 433.444C300.267 440.996 274.751 448.587 250.814 452.093C198.008 463.113 139.034 472.168 86.7285 463.614C57.4729 460.917 62.7921 445.735 67.803 418.301C69.5375 409.978 56.0082 404.969 57.3958 398.612C58.6678 392.639 74.9338 385.164 73.6232 383.16C69.9615 377.612 48.1836 362.7 38.5859 350.447C101.568 393.834 103.187 334.958 137.184 301.705C156.032 286.061 177.116 272.229 200.59 263.752C190.029 279.781 163.895 314.305 153.18 328.022C141.732 340.391 119.684 350.91 108.082 361.159C106.425 363.124 101.376 365.783 108.121 363.741C134.139 356.381 198.316 334.033 221.867 319.121C237.054 309.72 252.163 299.817 269.316 293.806C255.363 310.991 236.707 323.976 218.552 336.846C203.674 347.057 186.02 358.462 169.369 366.708C152.486 375.493 136.259 378.267 113.671 384.971C104.305 388.17 89.5809 391.599 91.6623 396.569C110.202 416.683 147.437 443.424 178.157 447.778C210.419 452.324 254.052 453.326 285.62 433.56C305.163 422.462 323.934 411.943 335.729 399.382C343.785 387.36 347.254 373.913 347.446 360.234C347.678 344.013 343.245 327.483 336.268 312.648C333.185 305.558 322.354 298.931 311.715 293.421C300.846 287.025 285.582 283.133 288.01 278.394C291.094 272.537 303.621 260.091 307.244 253.695C312.563 237.589 315.493 220.674 316.803 203.874C322.084 221.753 324.859 249.765 328.097 261.517C333.57 281.129 397.362 389.133 377.935 410.942Z" fill="#949AF6"/>
<path d="M325.746 355.644C335.883 381.614 325.129 408.085 322.161 433.4C329.215 432.09 335.96 429.624 342.783 427.505C347.601 394.407 364.599 358.804 316.341 299.311C309.171 290.372 306.782 287.02 307.63 281.548C310.944 284.438 306.049 234.617 295.642 191.886C293.329 193.466 291.094 195.084 288.743 196.625C285.274 198.898 281.65 200.671 277.719 201.673C286.237 234.81 289.745 267.754 288.01 278.697C285.119 306.979 315.608 317.305 325.746 355.644Z" fill="white"/>
<path d="M311.756 293.41C300.578 287.631 289.592 283.084 287.742 280.464C289.091 272.835 303.507 261.198 307.246 253.685C308.441 265.783 308.556 275.57 307.593 281.466C306.976 285.589 308.171 288.478 311.756 293.41Z" fill="#DCD5CD"/>
<path d="M322.552 433.173C329.644 431.555 336.043 427.971 343.174 426.545C346.681 405.43 353.851 381.772 347.529 360.271C346.45 377.957 343.405 395.258 327.023 407.434C325.443 415.564 323.477 424.388 322.359 433.211C322.398 433.211 322.475 433.173 322.552 433.173Z" fill="#DCD5CD"/>
<path d="M268.009 449.469C274.909 449.083 280.883 444.999 287.629 443.959C281.924 400.688 264.849 343.623 261.919 335.994C249.778 298.117 240.835 312.605 238.792 281.279C237.559 269.797 236.287 257.891 228.925 249.915C222.681 243.133 217.4 233.385 212.62 219.282C206.376 221.401 200.209 223.867 193.656 224.869C199.399 241.746 205.875 253.498 214.008 262.322C217.207 265.79 218.209 275.037 219.057 283.167C222.141 321.737 230.698 304.899 243.649 343.584C252.553 367.551 263.577 415.484 267.74 449.469C267.855 449.507 267.932 449.469 268.009 449.469Z" fill="white"/>
<path d="M268.008 449.195C274.6 448.733 280.767 446.035 287.165 444.764C287.165 444.648 287.165 444.494 287.127 444.379C286.664 440.757 286.163 437.173 285.623 433.59C279.148 437.058 272.711 440.179 266.891 442.568C267.199 444.687 267.507 446.96 267.739 449.272C267.854 449.195 267.931 449.195 268.008 449.195Z" fill="#DCD5CD"/>
<path d="M245.689 305.286C245.573 305.171 245.419 305.055 245.304 304.939C239.56 308.176 233.933 311.605 228.344 315.112C231.62 319.504 232.622 318.079 235.821 324.436C241.141 320.468 246.383 316.383 251.355 312.068C249.119 308.407 247.231 306.519 245.689 305.286Z" fill="#DCD5CD"/>
<path d="M183.824 463.377C190.916 463.377 197.623 460.564 204.599 459.716C190.029 433.553 186.869 399.222 188.95 378.723C196.389 343.929 158.076 348.014 164.86 321.851C171.643 289.947 145.202 298.925 139.227 259.469C138.765 257.35 138.341 255.153 137.917 252.88C131.403 256.232 125.197 260.316 120.07 265.557C123.771 281.778 129.822 295.996 140.653 304.628C156.881 316.148 126.43 334.489 165.091 361.885C170.102 365.469 170.14 366.355 169.138 377.067C166.363 393.481 170.718 434.671 183.824 463.377Z" fill="white"/>
<path d="M153.262 327.979C151.219 330.368 148.328 332.911 144.898 335.531C141.197 322.854 151.99 311.449 140.735 304.59C139.54 303.704 138.383 302.741 137.266 301.662C142.276 297.462 147.48 293.455 152.838 289.602C162.937 296.961 165.635 304.706 165.904 311.526C158.542 321.159 153.262 327.979 153.262 327.979Z" fill="#DCD5CD"/>
<path d="M186.756 357.227C180.935 360.657 175.076 363.855 169.41 366.668C168.871 364.703 167.637 363.585 165.132 361.813C159.157 357.536 154.802 353.413 151.68 349.444C158.078 347.171 164.708 344.705 171.299 342.2C176.31 346.323 184.674 351.91 186.756 357.227Z" fill="#DCD5CD"/>
<path d="M205.146 460.758C203.373 457.405 201.253 453.282 199.942 449.969C190.46 449.429 182.79 448.466 178.203 447.772C179.167 450.932 181.094 457.328 183.831 463.378C190.807 463.493 198.285 461.567 205.146 460.758Z" fill="#DCD5CD"/>
<path d="M93.672 386.894C89.5477 409.088 80.6438 436.56 86.7339 464.457C93.672 465.305 100.687 465.497 107.664 465.844C99.4923 439.142 109.822 411.168 113.523 387.895C114.872 380.921 111.056 373.369 105.891 371.828C110.824 362.927 107.741 351.483 95.9461 346.59C86.5797 338.652 77.3675 323.317 70.0054 306.479C64.9175 311.025 60.4077 316.343 55.2812 320.928C65.9582 342.775 78.6009 360.885 87.8517 363.89C83.843 371.25 84.3826 381.615 93.672 386.894Z" fill="white"/>
<path d="M85.6913 376.336C86.5778 380.536 89.276 384.081 93.6701 386.893C93.4003 388.704 92.8992 391.093 92.3596 393.636C95.3275 390.901 103.73 387.895 113.713 384.928C114.407 379.071 109.474 372.675 105.927 371.828C109.396 365.393 109.204 355.799 102.381 350.674C97.91 356.261 93.0534 360.846 87.3487 363.62C87.5414 363.697 87.6956 363.813 87.8883 363.89C86.5393 367.165 84.6506 371.018 85.6913 376.336Z" fill="#DCD5CD"/>
<path d="M107.928 465.804C102.878 448.041 104.574 428.39 108.467 412.207C99.6405 405.117 93.4347 399.106 91.7002 396.524C86.2268 415.52 81.6014 439.487 86.3039 462.991C94.2442 464.841 101.028 465.303 107.928 465.804Z" fill="#DCD5CD"/>
<path opacity="0.29" d="M270.438 204.982C241.298 214.461 205.721 218.006 164.594 237.734C202.984 240.585 232.703 242.782 258.027 219.046C268.048 218.507 269.128 209.991 270.438 204.982Z" fill="#13494A"/>
<path d="M194.466 140.628C194.852 141.591 195.237 142.554 195.391 143.556C195.545 144.481 195.545 145.444 195.507 146.369C195.43 148.296 195.353 150.184 195.16 152.072C196.239 148.411 196.201 143.826 194.273 140.05" fill="#F9A034"/>
</svg>
