<svg width="593" height="431" viewBox="0 0 593 431" fill="none" xmlns="http://www.w3.org/2000/svg">
<path d="M295.352 426.182C457.913 426.182 589.696 405.412 589.696 379.79C589.696 354.169 457.913 333.398 295.352 333.398C132.79 333.398 1.00781 354.169 1.00781 379.79C1.00781 405.412 132.79 426.182 295.352 426.182Z" fill="#242426"/>
<path d="M295.365 426.656C216.719 426.656 142.776 421.829 87.16 413.063C54.812 407.964 0.546875 396.86 0.546875 379.789C0.546875 362.718 54.812 351.615 87.16 346.515C142.776 337.75 216.719 332.922 295.365 332.922C374.012 332.922 447.955 337.75 503.571 346.515C535.919 351.615 590.184 362.715 590.184 379.789C590.184 396.863 535.919 407.964 503.571 413.063C447.943 421.826 373.999 426.656 295.365 426.656ZM295.365 333.87C216.768 333.87 142.876 338.695 87.2969 347.451C32.761 356.046 1.48379 367.832 1.48379 379.789C1.48379 391.746 32.758 403.538 87.2969 412.124C142.867 420.884 216.759 425.709 295.365 425.709C373.972 425.709 447.855 420.884 503.434 412.124C557.97 403.529 589.247 391.743 589.247 379.789C589.247 367.835 557.97 356.046 503.434 347.451C447.843 338.695 373.951 333.87 295.365 333.87Z" fill="#242426"/>
<path d="M205.169 56.1689C204.568 54.0809 206.392 52.1043 208.148 50.8236C209.903 49.543 211.97 48.1023 212.128 45.9516C212.287 43.801 210.387 41.9635 209.592 39.8894C208.68 37.5021 209.288 34.7947 210.283 32.4283C211.278 30.0618 212.598 27.8346 213.2 25.3499C214.54 19.7819 211.755 13.7336 207.408 9.9891C203.061 6.2446 197.387 4.42107 191.762 3.3353C186.136 2.24954 180.137 2.3609 174.602 0.90625C180.101 3.53055 184.36 8.21977 186.467 13.9689C188.574 19.7181 188.361 26.0698 185.873 31.6627C184.94 33.7507 183.71 35.7064 182.922 37.8501C182.135 39.9938 181.83 42.4646 182.791 44.5387C184.339 47.9004 188.417 49.0349 191.969 50.0023C195.521 50.9698 199.571 52.7864 200.262 56.3777C201.714 56.0993 203.718 56.4265 205.169 56.1689Z" fill="#E79052"/>
<path d="M200.294 57.5981C200.044 57.5979 199.802 57.5112 199.61 57.3527C199.417 57.1942 199.285 56.9738 199.237 56.7289C198.743 54.2885 196.189 52.4251 191.64 51.1666C188.008 50.1863 183.479 48.9556 181.705 45.1246C180.467 42.4755 181.072 39.5622 181.802 37.6085C182.314 36.3063 182.909 35.0383 183.583 33.8122C184.001 32.9987 184.425 32.1922 184.801 31.3578C187.19 26.0285 187.395 19.9757 185.371 14.4972C183.348 9.01874 179.257 4.55079 173.976 2.05135C173.74 1.93121 173.556 1.7288 173.458 1.48232C173.361 1.23585 173.358 0.962344 173.448 0.713419C173.539 0.464494 173.718 0.257363 173.951 0.131105C174.184 0.0048464 174.455 -0.0318083 174.713 0.0280595C177.882 0.763575 181.104 1.25175 184.349 1.48817C186.86 1.73152 189.455 1.98182 191.96 2.46157C199.16 3.85215 204.322 6.03536 208.204 9.3519C213.31 13.7183 215.738 20.1637 214.382 25.7677C213.894 27.4964 213.227 29.1696 212.392 30.7599C212.037 31.5108 211.696 32.2547 211.363 33.0126C210.249 35.6825 210.027 37.9214 210.667 39.6596C210.96 40.3421 211.311 40.9982 211.717 41.6203C212.517 42.9274 213.429 44.4015 213.297 46.1884C213.095 48.7957 210.827 50.4366 208.997 51.7507C207.898 52.5503 205.748 54.3232 206.214 56.0337C206.261 56.1813 206.276 56.3374 206.257 56.4912C206.238 56.645 206.187 56.7929 206.105 56.9249C206.024 57.0569 205.915 57.1698 205.786 57.256C205.658 57.3421 205.512 57.3995 205.359 57.4242C204.471 57.5365 203.574 57.5714 202.68 57.5285C201.928 57.4851 201.174 57.5107 200.426 57.605L200.294 57.5981ZM201.845 55.3314H202.785C203.209 55.3314 203.633 55.3314 204.037 55.3314C204.099 53.5515 205.324 51.7368 207.599 50.0959C209.373 48.8096 211.077 47.6067 211.161 45.9937C211.244 44.916 210.618 43.9078 209.902 42.7188C209.425 41.9875 209.015 41.215 208.677 40.4105C207.801 38.1369 208.03 35.3557 209.373 32.1574C209.7 31.3648 210.069 30.5791 210.444 29.8073C211.197 28.3515 211.801 26.8233 212.246 25.2462C213.401 20.4904 211.196 14.7543 206.764 10.9719C203.181 7.91265 198.339 5.87545 191.521 4.5683C189.114 4.10246 186.568 3.87301 184.105 3.61575C182.714 3.4767 181.218 3.33764 179.764 3.14991C183.988 6.54035 186.969 11.2348 188.239 16.4987C189.509 21.7625 188.997 27.2987 186.784 32.2408C186.394 33.1169 185.949 33.9652 185.511 34.8134C184.878 35.958 184.32 37.1425 183.841 38.3594C183.361 39.6526 182.7 42.1348 183.674 44.2137C185.065 47.127 188.843 48.1699 192.21 49.0808C197.156 50.4227 200.078 52.4738 201.101 55.3384C201.338 55.3314 201.588 55.3314 201.845 55.3314Z" fill="#242426"/>
<path d="M300.753 209.885C307.017 213.195 301.87 210.476 300.504 209.498C299.433 208.727 298.393 207.559 297.279 206.785C297.066 206.547 296.847 206.316 296.64 206.075C295.573 204.831 294.569 203.536 293.599 202.207C293.25 201.695 292.939 201.158 292.668 200.601C292.832 200.985 293.027 201.442 293.255 201.985C292.616 200.461 291.588 199.025 290.839 197.55C289.294 194.502 287.922 191.372 286.657 188.199C280.901 173.749 277.175 158.571 271.669 144.023C259.599 112.142 238.622 81.2185 205.547 68.7648C194.513 64.6105 180.341 69.6091 176.222 81.2855C172.231 92.6054 176.934 106.229 188.722 110.667C190.379 111.292 192.016 111.95 193.625 112.694C194.015 112.874 194.398 113.072 194.784 113.261C195.895 114.236 197.741 114.992 198.9 115.797C200.352 116.813 201.772 117.871 203.159 118.973C204.375 119.948 205.528 120.978 206.696 122.02C207.058 122.392 207.427 122.764 207.782 123.142C210.224 125.758 212.521 128.505 214.663 131.371C215.736 132.794 216.772 134.251 217.772 135.742C218.271 136.482 218.761 137.228 219.241 137.982L219.454 138.324C221.091 141.35 223.926 146.943 224.251 147.629C227.902 155.3 230.916 163.252 233.681 171.283C238.506 185.371 242.089 200.025 248.499 213.518C256.408 230.19 267.578 243.168 283.937 251.812C288.804 254.384 296.634 253.64 301.45 251.525C306.411 249.334 311.424 244.515 313.262 239.291C317.669 226.737 311.923 215.792 300.753 209.885Z" fill="#F24EB6"/>
<path d="M291.689 253.909C288.814 253.909 285.982 253.406 283.704 252.202C268.108 243.957 256.451 231.363 248.061 213.692C243.611 204.329 240.478 194.265 237.445 184.533C236.101 180.214 234.707 175.746 233.223 171.409C230.014 162.048 227.026 154.548 223.823 147.803C223.519 147.141 220.66 141.518 219.041 138.519L218.841 138.214C218.364 137.47 217.877 136.729 217.38 135.989C216.374 134.499 215.33 133.033 214.287 131.637C212.155 128.779 209.868 126.041 207.436 123.435C207.175 123.154 206.91 122.88 206.642 122.609L205.952 121.963C204.951 121.082 203.917 120.171 202.861 119.323C201.48 118.214 200.063 117.153 198.645 116.169C198.124 115.826 197.586 115.51 197.033 115.221C196.151 114.779 195.315 114.249 194.539 113.639L194.189 113.468C193.939 113.346 193.693 113.221 193.443 113.106C192.038 112.456 190.49 111.816 188.576 111.094C177.212 106.827 171.478 93.3644 175.8 81.1089C177.641 75.8909 181.598 71.6421 186.949 69.1459C192.832 66.4028 199.856 66.098 205.736 68.3016C225.84 75.8878 253.692 95.1383 272.126 143.856C274.706 150.665 276.926 157.724 279.077 164.548C281.511 172.311 284.051 180.342 287.111 188.016C288.489 191.473 289.849 194.518 291.278 197.331C291.582 197.916 291.929 198.516 292.273 199.095C292.48 199.449 292.69 199.806 292.881 200.171C292.972 200.218 293.045 200.291 293.091 200.382C293.35 200.917 293.648 201.432 293.983 201.924C294.959 203.286 295.969 204.576 296.982 205.758C297.107 205.904 297.237 206.045 297.365 206.185L297.578 206.423C298.17 206.86 298.735 207.333 299.269 207.84C299.745 208.289 300.245 208.712 300.766 209.108C301.374 209.535 302.752 210.327 303.504 210.76C303.689 210.863 303.841 210.952 303.963 211.034C304.173 211.177 304.267 211.299 304.267 211.455C313.922 218.087 317.527 228.523 313.679 239.419C311.884 244.506 307.036 249.535 301.612 251.931C298.467 253.24 295.094 253.913 291.689 253.909ZM197.462 67.7987C193.968 67.796 190.515 68.5531 187.341 70.0176C182.225 72.4071 178.441 76.4608 176.695 81.438C172.545 93.209 178.024 106.126 188.911 110.216C190.852 110.948 192.421 111.597 193.851 112.258C194.107 112.377 194.362 112.505 194.618 112.63L195.016 112.828C195.054 112.847 195.09 112.87 195.123 112.898C195.861 113.477 196.656 113.981 197.495 114.401C198.078 114.704 198.645 115.038 199.193 115.401C200.629 116.397 202.064 117.473 203.451 118.595C204.522 119.457 205.566 120.375 206.572 121.262L207.315 121.957C207.588 122.234 207.859 122.514 208.124 122.798C210.579 125.421 212.888 128.178 215.041 131.055C216.097 132.46 217.149 133.938 218.162 135.443C218.663 136.187 219.156 136.937 219.641 137.693L219.814 137.967L219.872 138.065C221.536 141.146 224.353 146.705 224.678 147.391C227.899 154.17 230.896 161.716 234.108 171.098C235.599 175.447 236.992 179.937 238.339 184.249C241.363 193.948 244.487 203.978 248.904 213.283C257.206 230.76 268.728 243.217 284.139 251.361C288.817 253.832 296.504 253.147 301.238 251.056C306.357 248.794 311.109 243.878 312.797 239.096C316.891 227.493 312.189 216.456 300.526 210.293C300.455 210.255 300.395 210.2 300.351 210.132C300.307 210.064 300.282 209.987 300.276 209.906L300.225 209.87C299.673 209.455 299.144 209.009 298.643 208.535C298.125 208.044 297.578 207.586 297.003 207.163C296.973 207.142 296.945 207.118 296.921 207.09L296.678 206.819C296.541 206.673 296.404 206.514 296.276 206.371C295.242 205.152 294.217 203.856 293.234 202.469C293.227 202.463 293.22 202.454 293.216 202.445C293.133 202.435 293.055 202.403 292.989 202.353C292.923 202.302 292.871 202.235 292.839 202.159C292.839 202.159 292.839 202.159 292.839 202.134C292.437 201.252 291.979 200.396 291.47 199.571C291.12 198.98 290.758 198.352 290.448 197.742C289.006 194.905 287.631 191.832 286.244 188.349C283.172 180.634 280.638 172.588 278.186 164.807C276.041 157.995 273.824 150.951 271.253 144.167C252.938 95.7875 225.338 76.6894 205.41 69.1886C202.865 68.2519 200.173 67.7812 197.462 67.7987Z" fill="#242426"/>
<path d="M292.679 200.589C291.462 197.742 291.9 199.065 292.679 200.589V200.589Z" fill="#FC328E"/>
<path d="M292.681 201.08C292.594 201.08 292.508 201.056 292.433 201.01C292.359 200.965 292.298 200.899 292.259 200.821C291.322 198.968 291.382 198.876 291.532 198.66C291.579 198.589 291.645 198.533 291.722 198.497C291.8 198.461 291.885 198.447 291.97 198.456C292.274 198.486 292.274 198.486 293.116 200.418C293.149 200.49 293.162 200.57 293.156 200.648C293.15 200.727 293.123 200.803 293.08 200.869C293.037 200.935 292.977 200.989 292.908 201.026C292.838 201.062 292.76 201.081 292.681 201.08Z" fill="#242426"/>
<path d="M203.971 54.7622C203.77 55.0068 203.515 55.1977 203.227 55.3184C202.938 55.4391 202.626 55.4861 202.316 55.4552C202.006 55.4244 201.708 55.3166 201.448 55.1413C201.188 54.9659 200.973 54.7282 200.822 54.4486C200.381 53.6807 199.814 52.9969 199.146 52.4275C197.605 51.0963 195.752 50.267 194.056 49.0961C192.359 47.9253 190.88 46.2178 190.737 44.1548C190.588 41.9316 192.04 39.9732 193.581 38.3842C195.121 36.7952 196.899 35.3664 197.714 33.3035C198.881 30.3485 197.781 27.1147 196.356 24.1875C196.228 23.9166 196.163 23.619 196.164 23.3177C196.166 23.0165 196.235 22.7197 196.366 22.4503C196.497 22.1808 196.687 21.946 196.921 21.7638C197.154 21.5817 197.426 21.4571 197.714 21.3998C198.416 21.2747 199.138 21.3137 199.824 21.514C200.51 21.7143 201.143 22.0707 201.677 22.5567C203.333 24.1388 203.93 26.6129 203.883 28.9337C203.835 31.2545 203.204 33.5265 202.824 35.8125C202.444 38.0984 202.281 40.5238 203.102 42.6913C203.923 44.8587 205.559 46.4896 206.108 48.671C206.645 50.9639 205.471 52.8944 203.971 54.7622Z" fill="#FDDC68"/>
<path d="M202.586 56.387H202.323C201.828 56.3442 201.351 56.1815 200.931 55.9127C200.512 55.6438 200.163 55.2769 199.915 54.8431C199.53 54.1852 199.035 53.5993 198.452 53.1113C197.542 52.3906 196.572 51.7507 195.553 51.1988C194.808 50.7676 194.062 50.3364 193.358 49.8496C191.033 48.2361 189.666 46.1983 189.521 44.1049C189.376 42.0116 190.418 39.793 192.73 37.5049C193.006 37.2267 193.296 36.9485 193.579 36.6773C194.877 35.4394 196.091 34.271 196.692 32.7966C197.782 30.0912 196.533 26.9893 195.311 24.59C195.093 24.1594 194.979 23.6827 194.979 23.199C194.979 22.7154 195.093 22.2386 195.311 21.8081C195.518 21.3854 195.823 21.0192 196.201 20.7408C196.578 20.4623 197.016 20.2797 197.479 20.2085C198.352 20.0526 199.249 20.0967 200.103 20.3375C200.957 20.5783 201.747 21.0096 202.413 21.5994C204.146 23.2268 205.063 25.7723 204.994 28.7837C204.913 30.5047 204.683 32.2152 204.304 33.8954C204.173 34.5283 204.049 35.1681 203.938 35.808C203.462 38.5273 203.531 40.4676 204.159 42.0672C204.528 42.9135 204.969 43.7257 205.478 44.4944C206.257 45.6126 206.858 46.847 207.258 48.1526C207.99 50.9693 206.568 53.2156 204.925 55.2256C204.65 55.5867 204.295 55.8792 203.89 56.0806C203.484 56.2819 203.038 56.3868 202.586 56.387ZM198.445 22.3088C198.23 22.3101 198.015 22.3287 197.803 22.3645C197.682 22.3866 197.567 22.4372 197.469 22.5121C197.371 22.587 197.291 22.6841 197.237 22.7956C197.174 22.9244 197.142 23.066 197.142 23.2094C197.142 23.3529 197.174 23.4945 197.237 23.6233C198.652 26.4051 200.094 30.1051 198.679 33.6172C197.906 35.5298 196.457 36.9138 195.056 38.256L194.235 39.0489C192.399 40.871 191.564 42.4775 191.667 43.9589C191.799 45.8784 193.545 47.3598 194.573 48.0691C195.263 48.5282 195.953 48.9315 196.643 49.3279C197.773 49.9432 198.847 50.6576 199.853 51.4631C200.629 52.1107 201.288 52.8897 201.799 53.7651C201.868 53.8936 201.967 54.0036 202.087 54.0859C202.207 54.1681 202.345 54.2203 202.489 54.238C202.62 54.2457 202.751 54.2219 202.871 54.1687C202.991 54.1155 203.096 54.0344 203.179 53.932C204.656 52.1238 205.547 50.552 205.091 48.7785C204.741 47.6893 204.229 46.6598 203.573 45.7254C202.984 44.8489 202.48 43.9173 202.068 42.9435C201.074 40.3563 201.378 37.6092 201.73 35.495C201.847 34.8412 201.978 34.1805 202.11 33.5268C202.479 31.9743 202.71 30.3916 202.8 28.7976C202.855 26.4469 202.165 24.43 200.902 23.2338C200.229 22.6241 199.356 22.2871 198.452 22.2879L198.445 22.3088Z" fill="#242426"/>
<path d="M209.253 55.6143L197.532 57.3465C197.221 57.3925 197.006 57.6821 197.052 57.9935L198.208 65.8453C198.253 66.1567 198.542 66.3719 198.853 66.326L210.575 64.5938C210.886 64.5479 211.1 64.2582 211.055 63.9468L209.899 56.095C209.853 55.7836 209.564 55.5684 209.253 55.6143Z" fill="#242426"/>
<path d="M198.09 62.8325C198.387 60.544 196.777 58.4475 194.493 58.1498C192.209 57.8522 190.116 59.4661 189.819 61.7547C189.522 64.0432 191.133 66.1397 193.417 66.4374C195.701 66.735 197.793 65.121 198.09 62.8325Z" fill="#242426"/>
<path d="M279.092 280.824C271.645 253.533 252.45 227.952 226.907 215.2C218.308 210.905 209.066 207.65 199.32 207.769C188.868 207.897 179.435 211.637 171.258 217.967C157.928 228.284 149.882 243.767 143.598 259.08C137.094 274.929 133.377 301.445 131.536 318.422C130.928 323.908 134.53 330.955 138.262 334.698C142.247 338.688 148.784 341.708 154.506 341.437C177.229 340.416 177.491 307.209 181.433 291.125C183.706 281.857 188.5 255.483 201.112 254.478C215.774 253.31 228.577 274.511 232.38 286.27C232.115 285.383 231.862 284.493 231.595 283.609C235.89 297.678 245.722 314.75 263.048 309.132C274.906 305.289 282.492 293.265 279.092 280.824Z" fill="#F24EB6"/>
<path d="M153.81 341.927C148.389 341.927 142.092 339.215 137.916 335.033C134.125 331.232 130.432 324.103 131.053 318.373C133.073 299.766 136.808 274.347 143.148 258.9C148.687 245.401 156.855 228.509 170.957 217.592C179.621 210.887 189.157 207.421 199.302 207.293C207.804 207.177 216.671 209.564 227.105 214.773C251.687 227.062 271.776 252.307 279.542 280.704C282.861 292.85 275.679 305.539 263.189 309.589C257.741 311.357 252.642 311.031 248.031 308.623C239.601 304.222 234.646 293.932 232.088 286.654C232.012 286.595 231.954 286.514 231.924 286.422C230.266 281.299 226.269 272.832 220.449 265.837C216.03 260.524 209.085 254.328 201.145 254.956C190.067 255.84 185.023 277.69 182.59 288.178C182.328 289.324 182.088 290.354 181.875 291.226C181.126 294.274 180.506 297.977 179.849 301.893C177.081 318.416 173.287 341.046 154.509 341.891C154.281 341.921 154.044 341.927 153.81 341.927ZM199.843 208.238H199.314C189.379 208.363 180.031 211.761 171.535 218.339C157.609 229.119 149.518 245.867 144.024 259.256C137.727 274.609 134.007 299.93 132.008 318.474C131.439 323.716 134.913 330.665 138.6 334.362C142.716 338.483 149.247 341.199 154.488 340.964C172.502 340.153 176.071 318.864 178.936 301.759C179.596 297.815 180.22 294.094 180.977 291.012C181.19 290.141 181.427 289.114 181.692 287.964C184.329 276.437 189.294 254.944 201.06 254.005C215.29 252.874 227.19 271.82 231.735 283.164C231.806 283.188 231.87 283.228 231.923 283.281C231.976 283.334 232.015 283.398 232.039 283.469C234.169 290.455 239.145 302.905 248.466 307.773C252.843 310.059 257.698 310.363 262.894 308.687C274.903 304.795 281.811 292.612 278.626 280.951C270.936 252.813 251.033 227.781 226.685 215.626C216.607 210.603 208.057 208.238 199.843 208.238Z" fill="#242426"/>
<path d="M190.45 67.898C192.038 66.2125 190.87 63.1372 188.743 62.2228C186.617 61.3085 184.129 62.0156 182.124 63.1707C175.967 66.7093 172.694 74.646 174.592 81.5037C174.851 82.4486 175.684 83.5092 176.63 83.7683C177.576 84.0274 178.577 83.8841 179.535 83.6982C183.323 82.9545 187.11 81.4275 189.662 78.5168C192.214 75.6061 192.363 71.2537 190.45 67.898Z" fill="#F24EB6"/>
<path d="M177.756 84.39C177.333 84.3943 176.912 84.3409 176.503 84.2315C175.338 83.9268 174.413 82.6558 174.133 81.6347C172.183 74.5393 175.511 66.441 181.899 62.7653C183.384 61.9088 186.277 60.6318 188.941 61.793C189.611 62.1042 190.199 62.5681 190.657 63.1476C191.116 63.7272 191.432 64.4062 191.582 65.1305C191.7 65.6151 191.711 66.1197 191.615 66.6091C191.519 67.0986 191.318 67.5613 191.025 67.965C192.929 71.5706 192.546 76.0023 190.021 78.8551C187.7 81.4884 184.205 83.2776 179.63 84.1736C179.014 84.3061 178.386 84.3785 177.756 84.39ZM186.62 62.2837C184.938 62.2837 183.32 63.0335 182.362 63.5882C176.351 67.0415 173.209 74.6917 175.061 81.3818C175.271 82.1468 175.974 83.1008 176.768 83.3172C177.647 83.558 178.617 83.4025 179.46 83.2379C183.825 82.3845 187.141 80.696 189.322 78.2211C191.637 75.5908 191.938 71.4457 190.052 68.1387C190.002 68.0504 189.981 67.9482 189.993 67.8473C190.005 67.7463 190.049 67.6519 190.119 67.5779C190.388 67.2763 190.579 66.9122 190.673 66.5184C190.767 66.1247 190.761 65.7136 190.657 65.3225C190.536 64.7486 190.285 64.2103 189.924 63.7493C189.562 63.2884 189.099 62.9173 188.57 62.6647C187.953 62.4048 187.29 62.2751 186.62 62.2837Z" fill="#242426"/>
<path d="M218.811 122.084L199.814 124.891C199.656 124.913 199.496 124.872 199.368 124.777C199.24 124.681 199.155 124.54 199.13 124.382L190.342 64.6861C190.32 64.5275 190.361 64.3666 190.457 64.2383C190.552 64.11 190.695 64.0245 190.853 64.0004L209.85 61.1933C210.007 61.1714 210.168 61.2124 210.296 61.3076C210.424 61.4028 210.509 61.5445 210.534 61.7023L219.322 121.398C219.344 121.557 219.303 121.718 219.207 121.846C219.111 121.974 218.969 122.06 218.811 122.084Z" fill="#67518B"/>
<path d="M200.794 125.078C200.259 125.078 199.742 124.885 199.336 124.535C198.931 124.185 198.665 123.7 198.585 123.17L190.171 65.998C190.087 65.4118 190.238 64.8159 190.59 64.3407C190.943 63.8655 191.47 63.5496 192.054 63.4622L208.533 61.0239C209.117 60.9375 209.713 61.0874 210.187 61.4406C210.662 61.7939 210.977 62.3215 211.063 62.9075L219.48 120.074C219.565 120.66 219.414 121.256 219.062 121.732C218.709 122.208 218.182 122.524 217.598 122.612L201.119 125.051C201.012 125.067 200.903 125.077 200.794 125.078ZM208.858 61.7127C208.784 61.7127 208.709 61.7189 208.636 61.731L192.158 64.1693C191.96 64.1984 191.77 64.2663 191.598 64.369C191.427 64.4718 191.277 64.6075 191.158 64.7683C191.039 64.929 190.952 65.1118 190.903 65.3061C190.855 65.5004 190.845 65.7024 190.874 65.9005L199.288 123.073C199.317 123.271 199.385 123.461 199.487 123.633C199.59 123.805 199.725 123.955 199.886 124.075C200.046 124.194 200.229 124.281 200.423 124.33C200.617 124.378 200.818 124.388 201.016 124.359L217.494 121.921C217.692 121.892 217.882 121.824 218.054 121.721C218.225 121.618 218.375 121.482 218.494 121.322C218.613 121.161 218.7 120.978 218.748 120.784C218.797 120.59 218.807 120.388 218.778 120.189L210.361 63.0142C210.308 62.6528 210.127 62.3226 209.851 62.0837C209.575 61.8448 209.223 61.7132 208.858 61.7127Z" fill="#242426"/>
<path d="M403.214 343.381C402.567 330.884 391.698 321.04 376.999 320.744L165.079 316.459L104.956 315.24C91.2364 314.962 78.1165 325.849 78.7401 337.876C79.3881 350.373 90.2539 360.214 104.956 360.513L316.872 364.798L376.999 366.017C390.718 366.292 403.838 355.405 403.214 343.381Z" fill="#F24EB6"/>
<path d="M377.512 366.498H376.988L104.945 361.011C90.1641 360.707 78.9424 351.002 78.2641 337.924C77.9994 332.825 80.141 327.652 84.2932 323.358C86.9882 320.613 90.2073 318.439 93.7585 316.968C97.3096 315.496 101.12 314.755 104.963 314.79L377.007 320.276C391.787 320.581 403.006 330.286 403.684 343.361C403.949 348.46 401.811 353.636 397.658 357.927C395.029 360.615 391.896 362.756 388.439 364.226C384.981 365.697 381.268 366.469 377.512 366.498ZM104.437 315.714C100.807 315.743 97.2187 316.49 93.8777 317.912C90.5368 319.334 87.5091 321.403 84.9685 324.001C81.014 328.103 78.9546 333.023 79.2071 337.857C79.8581 350.423 90.6904 359.756 104.96 360.042L377.004 365.528C384.371 365.702 391.818 362.581 396.974 357.247C400.928 353.145 402.988 348.223 402.754 343.392C402.1 330.822 391.27 321.493 377.001 321.203L104.939 315.72L104.437 315.714Z" fill="#242426"/>
<path d="M219.844 101.625C227.988 95.0359 229.743 84.7188 223.19 76.328C215.756 66.779 201.529 63.1032 190.268 67.0868C180.643 70.4913 173.169 79.958 173.102 90.1867C173.047 98.7208 179.715 109.855 188.92 110.992C198.076 112.11 211.26 108.575 219.844 101.625Z" fill="#F24EB6"/>
<path d="M192.566 111.679C191.331 111.682 190.098 111.61 188.873 111.462C179.662 110.322 172.583 99.0877 172.641 90.1818C172.708 80.0994 180.06 70.1999 190.126 66.6369C201.804 62.507 216.186 66.5424 223.587 76.0335C230.109 84.4091 228.698 95.0919 220.156 102.005C212.874 107.899 201.822 111.679 192.566 111.679ZM199.802 65.9603C196.615 65.9472 193.449 66.4769 190.439 67.5269C180.739 70.9588 173.651 80.4865 173.587 90.1818C173.532 98.6976 180.249 109.435 188.988 110.514C198.601 111.703 211.462 107.811 219.551 101.261C227.67 94.6927 229.017 84.5554 222.83 76.6126C217.573 69.8646 208.67 65.9664 199.802 65.9664V65.9603Z" fill="#242426"/>
<path d="M245.911 321.045C270.527 341.682 316.813 351.828 338.584 356.662C376.806 365.163 423.36 361.78 461.062 351.194C498.763 340.609 542.89 324.717 560.925 289.889C578.961 255.061 581.282 201.223 557.004 170.443C532.727 139.662 471.927 128.546 439.023 149.808C446.993 134.365 437.806 110.671 424.312 99.7256C410.818 88.7806 392.448 85.7632 375.127 84.669C346.879 82.8829 323.7 92.6575 302.638 111.603C286.098 126.48 268.948 155.307 265.912 177.37C262.876 199.434 266.11 213.509 268.264 235.673C253.693 245.213 242.438 256.509 234.653 272.108C224.326 292.843 231.301 308.795 245.911 321.045Z" fill="#F24EB6"/>
<path d="M385.972 361.932C369.196 361.932 353.043 360.335 338.481 357.098L337.846 356.958C315.849 352.081 270.074 341.892 245.608 321.38C228.749 307.238 224.914 290.578 234.225 271.855C241.498 257.253 252.172 245.661 267.759 235.396C267.294 230.638 266.783 226.286 266.287 222.074C264.486 206.691 263.06 194.539 265.438 177.27C268.669 153.78 286.732 125.237 302.316 111.213C324.443 91.3105 348.264 82.4625 375.152 84.1572C390.696 85.1477 410.353 87.7628 424.611 99.3448C437.819 110.067 446.905 132.951 440.143 148.535C473.358 128.419 532.992 139.22 557.376 170.135C568.722 184.521 575.086 205.292 575.302 228.63C575.497 250.172 570.411 272.574 561.349 290.094C543.52 324.553 500.711 340.542 461.19 351.636C436.692 358.435 411.392 361.898 385.972 361.932ZM246.216 320.655C270.506 341.018 316.126 351.158 338.049 356.031L338.685 356.172C374.604 364.16 420.303 362.115 460.934 350.71C500.261 339.667 542.845 323.779 560.506 289.642C582.807 246.542 576.051 195.326 556.634 170.708C545.257 156.285 524.523 145.197 501.167 141.049C477.361 136.822 454.802 140.15 439.279 150.193C439.191 150.249 439.087 150.275 438.983 150.267C438.879 150.258 438.781 150.215 438.704 150.144C438.627 150.073 438.575 149.979 438.556 149.876C438.538 149.773 438.553 149.667 438.601 149.574C446.44 134.386 437.366 110.918 424.018 100.079C409.97 88.6772 390.495 86.0987 375.1 85.1264C348.124 83.4257 325.188 91.9415 302.954 111.948C287.492 125.858 269.584 154.152 266.381 177.425C264.021 194.579 265.438 206.685 267.236 221.995C267.738 226.295 268.261 230.742 268.736 235.619C268.744 235.705 268.728 235.791 268.691 235.869C268.653 235.947 268.595 236.013 268.523 236.061C252.939 246.271 242.31 257.789 235.062 272.309C225.981 290.557 229.729 306.829 246.216 320.655Z" fill="#242426"/>
<path d="M368.284 263.45C366.641 263.185 364.862 263.255 363.621 263.886C362.38 264.517 361.853 265.797 362.708 266.818C363.402 267.644 364.771 268.12 366.076 268.427C367.469 268.757 368.887 268.966 370.316 269.052C371.442 269.119 372.619 269.098 373.51 268.714C374.401 268.33 374.87 267.644 374.791 266.913C374.584 264.901 370.696 263.84 368.284 263.45Z" fill="#242426"/>
<path d="M356.3 194.371C353.499 193.417 350.709 192.368 347.971 191.244C339.897 188.063 332.055 184.323 324.5 180.049C321.126 178.168 317.808 176.166 314.553 174.078C309.687 176.667 305.668 180.605 302.975 185.42C300.282 190.236 299.029 195.726 299.366 201.236C299.703 206.746 301.615 212.042 304.874 216.492C308.134 220.943 312.602 224.359 317.747 226.334C322.501 228.168 327.657 228.701 332.685 227.879C337.712 227.056 342.431 224.908 346.356 221.653C350.281 218.399 353.271 214.157 355.019 209.363C356.766 204.568 357.209 199.394 356.3 194.371Z" fill="white"/>
<path d="M328.045 228.725C321.535 228.718 315.215 226.532 310.087 222.514C304.96 218.496 301.319 212.876 299.743 206.548C298.168 200.22 298.748 193.546 301.391 187.585C304.034 181.625 308.589 176.72 314.332 173.65C314.405 173.61 314.488 173.591 314.572 173.594C314.655 173.597 314.736 173.623 314.806 173.668C318.332 175.918 321.578 177.865 324.729 179.627C332.27 183.887 340.096 187.618 348.152 190.791C350.89 191.916 353.679 192.965 356.46 193.912C356.538 193.94 356.607 193.989 356.661 194.053C356.714 194.116 356.75 194.193 356.764 194.275C357.515 198.486 357.337 202.811 356.241 206.946C355.145 211.08 353.159 214.924 350.421 218.207C347.684 221.49 344.262 224.132 340.396 225.948C336.53 227.763 332.314 228.708 328.045 228.716V228.725ZM314.533 174.616C309.971 177.102 306.182 180.799 303.581 185.301C300.979 189.804 299.666 194.937 299.786 200.138C299.906 205.339 301.454 210.406 304.26 214.783C307.066 219.161 311.022 222.679 315.692 224.951C320.363 227.223 325.569 228.161 330.737 227.663C335.905 227.165 340.837 225.25 344.99 222.128C349.143 219.005 352.357 214.796 354.279 209.964C356.201 205.131 356.756 199.861 355.885 194.732C353.174 193.818 350.452 192.779 347.793 191.684C339.701 188.492 331.839 184.739 324.267 180.453C321.17 178.725 317.982 176.814 314.533 174.616Z" fill="#242426"/>
<path d="M349.469 207.605C348.47 210.214 346.951 212.591 345.004 214.592C343.058 216.592 340.725 218.175 338.148 219.242C335.571 220.31 332.804 220.84 330.016 220.801C327.227 220.761 324.476 220.153 321.93 219.013C312.5 214.801 307.609 203.905 310.742 194.036C311.806 190.675 313.712 187.645 316.28 185.234C318.847 182.823 321.989 181.112 325.404 180.266C332.959 184.539 340.802 188.28 348.876 191.461C350.056 193.973 350.716 196.698 350.818 199.472C350.92 202.247 350.461 205.013 349.469 207.605Z" fill="#242426"/>
<path d="M365.182 197.203C362.204 196.329 359.226 195.375 356.297 194.375L365.182 197.203Z" fill="white"/>
<path d="M365.182 197.686C365.136 197.686 365.091 197.68 365.048 197.668C362.094 196.797 359.098 195.839 356.144 194.831C356.083 194.812 356.027 194.781 355.979 194.74C355.93 194.698 355.891 194.648 355.862 194.591C355.834 194.534 355.817 194.472 355.813 194.408C355.81 194.345 355.819 194.281 355.84 194.221C355.859 194.161 355.891 194.105 355.932 194.057C355.973 194.009 356.024 193.969 356.08 193.941C356.137 193.913 356.199 193.896 356.262 193.892C356.325 193.887 356.388 193.896 356.448 193.916C359.387 194.925 362.368 195.873 365.312 196.739C365.411 196.779 365.494 196.85 365.546 196.943C365.599 197.035 365.62 197.143 365.604 197.249C365.589 197.354 365.539 197.451 365.461 197.525C365.384 197.598 365.285 197.643 365.179 197.653L365.182 197.686Z" fill="#242426"/>
<path d="M314.545 174.09C312.887 173.014 311.235 171.913 309.602 170.773L314.545 174.09Z" fill="white"/>
<path d="M314.544 174.539C314.454 174.539 314.365 174.512 314.289 174.462C312.427 173.243 310.803 172.164 309.331 171.137C309.232 171.063 309.166 170.954 309.147 170.832C309.127 170.711 309.155 170.586 309.226 170.485C309.296 170.384 309.402 170.314 309.523 170.29C309.643 170.266 309.769 170.29 309.872 170.357C311.335 171.381 312.95 172.463 314.803 173.667C314.89 173.722 314.956 173.804 314.992 173.9C315.029 173.997 315.032 174.102 315.003 174.201C314.974 174.299 314.913 174.386 314.83 174.447C314.748 174.508 314.647 174.54 314.544 174.539Z" fill="#242426"/>
<path d="M484.878 258.887C482.076 257.933 479.284 256.884 476.546 255.759C468.473 252.579 460.631 248.838 453.077 244.565C449.704 242.684 446.385 240.682 443.13 238.594C437.01 241.827 432.277 247.186 429.819 253.666C428.221 257.812 427.603 262.273 428.014 266.698C428.425 271.124 429.853 275.394 432.187 279.173C434.52 282.953 437.696 286.14 441.465 288.485C445.234 290.829 449.493 292.267 453.909 292.686C458.325 293.104 462.778 292.493 466.919 290.898C471.06 289.304 474.776 286.771 477.776 283.496C480.776 280.222 482.978 276.297 484.21 272.027C485.442 267.757 485.671 263.26 484.878 258.887Z" fill="white"/>
<path d="M456.584 293.242C450.072 293.24 443.748 291.057 438.618 287.039C433.487 283.021 429.845 277.399 428.272 271.068C426.698 264.737 427.282 258.06 429.932 252.101C432.582 246.141 437.145 241.24 442.895 238.179C442.969 238.14 443.052 238.122 443.135 238.125C443.219 238.129 443.299 238.155 443.37 238.2C446.892 240.446 450.138 242.394 453.292 244.155C460.832 248.419 468.658 252.15 476.715 255.323C479.453 256.445 482.24 257.496 485.026 258.444C485.104 258.473 485.173 258.521 485.226 258.585C485.28 258.648 485.316 258.725 485.33 258.807C486.093 263.023 485.922 267.355 484.828 271.498C483.734 275.64 481.744 279.49 479 282.777C476.256 286.063 472.824 288.704 468.948 290.514C465.071 292.323 460.845 293.257 456.569 293.248L456.584 293.242ZM443.111 239.148C438.551 241.634 434.763 245.331 432.162 249.832C429.562 254.334 428.25 259.467 428.37 264.667C428.49 269.867 430.038 274.933 432.844 279.31C435.649 283.686 439.604 287.203 444.274 289.475C448.944 291.746 454.149 292.685 459.316 292.187C464.484 291.689 469.414 289.775 473.567 286.653C477.719 283.532 480.933 279.324 482.855 274.492C484.778 269.661 485.334 264.392 484.463 259.264C481.747 258.331 479.024 257.307 476.369 256.216C468.278 253.027 460.417 249.278 452.845 244.997C449.746 243.253 446.545 241.342 443.111 239.148Z" fill="#242426"/>
<path d="M478.055 272.12C477.056 274.729 475.537 277.106 473.591 279.107C471.645 281.107 469.312 282.69 466.735 283.757C464.159 284.825 461.392 285.355 458.604 285.316C455.816 285.277 453.065 284.668 450.519 283.529C441.089 279.316 436.195 268.417 439.328 258.536C440.392 255.175 442.299 252.144 444.867 249.733C447.435 247.322 450.577 245.612 453.993 244.766C461.548 249.039 469.39 252.78 477.465 255.96C478.646 258.475 479.307 261.203 479.409 263.98C479.51 266.757 479.05 269.526 478.055 272.12Z" fill="#242426"/>
<path d="M493.765 261.719C490.787 260.844 487.812 259.89 484.883 258.891L493.765 261.719Z" fill="white"/>
<path d="M493.769 262.191C493.723 262.191 493.678 262.184 493.635 262.17C490.669 261.298 487.676 260.341 484.734 259.335C484.676 259.315 484.621 259.284 484.575 259.243C484.528 259.202 484.49 259.152 484.463 259.096C484.435 259.041 484.419 258.98 484.415 258.918C484.411 258.856 484.419 258.794 484.439 258.735C484.459 258.676 484.491 258.622 484.531 258.575C484.572 258.528 484.622 258.49 484.678 258.463C484.733 258.435 484.794 258.419 484.856 258.415C484.918 258.411 484.98 258.419 485.038 258.439C487.968 259.442 490.949 260.393 493.903 261.262C494.001 261.301 494.084 261.373 494.137 261.466C494.19 261.558 494.21 261.666 494.195 261.772C494.179 261.877 494.129 261.974 494.052 262.048C493.974 262.121 493.875 262.166 493.769 262.176V262.191Z" fill="#242426"/>
<path d="M443.134 238.605C441.473 237.529 439.824 236.429 438.188 235.289L443.134 238.605Z" fill="white"/>
<path d="M443.141 239.085C443.049 239.086 442.96 239.059 442.883 239.009C441.018 237.79 439.397 236.708 437.924 235.684C437.826 235.61 437.76 235.501 437.74 235.379C437.721 235.258 437.749 235.133 437.819 235.032C437.889 234.931 437.996 234.861 438.117 234.837C438.237 234.813 438.362 234.837 438.466 234.904C439.929 235.925 441.541 237.007 443.397 238.214C443.483 238.269 443.55 238.35 443.586 238.446C443.622 238.542 443.626 238.648 443.597 238.746C443.568 238.845 443.508 238.931 443.426 238.992C443.344 239.054 443.244 239.086 443.141 239.085Z" fill="#242426"/>
<path d="M482.334 331.637C485.65 334.331 498.554 346.266 501.614 349.238C499.46 349.787 497.295 350.295 495.117 350.762C491.488 351.527 487.837 352.109 484.166 352.707L482.073 352.953C479.765 353.211 477.454 353.439 475.14 353.636C440.502 356.62 405.553 354.267 371.325 361.619C360.788 363.883 350.275 367.062 341.645 373.743C329.215 383.365 323.366 398.391 326.961 413.853C329.638 425.368 343.421 433.277 354.686 429.626C364.514 426.438 370.723 418.108 371.069 408.419C371.678 408.196 372.195 408.004 372.286 407.977C380.15 405.539 388.183 404.432 396.229 402.914L398.766 402.631C400.829 402.413 402.893 402.219 404.96 402.049C409.106 401.701 413.258 401.439 417.413 401.232C426.01 400.799 434.619 400.595 443.224 400.354C461.588 399.839 479.837 398.858 498.009 395.977C506.389 394.693 514.654 392.745 522.725 390.15C533.533 386.614 544.521 381.573 550.711 371.451C565.617 347.016 541.759 323.325 523.915 308.817C519.124 304.919 514.387 302.203 507.978 302.203" fill="#F24EB6"/>
<path d="M348.872 431.001C344.862 430.963 340.928 429.889 337.453 427.883C331.813 424.689 327.828 419.617 326.502 413.966C322.91 398.526 328.464 383.35 341.356 373.371C350.482 366.303 361.579 363.231 371.225 361.159C393.352 356.407 416.148 355.691 438.193 354.999C450.303 354.618 462.833 354.225 475.101 353.17C477.486 352.966 479.813 352.734 482.018 352.487C482.596 352.423 483.171 352.353 483.746 352.286L484.841 352.122C488.187 351.579 491.634 351.015 495.004 350.293C496.869 349.9 498.767 349.464 500.656 348.994C496.838 345.337 485.163 334.563 482.021 332.009C481.973 331.969 481.933 331.919 481.904 331.864C481.875 331.809 481.857 331.748 481.851 331.686C481.845 331.623 481.852 331.56 481.87 331.5C481.889 331.44 481.919 331.385 481.959 331.337C481.999 331.288 482.048 331.248 482.103 331.219C482.158 331.19 482.219 331.172 482.281 331.166C482.343 331.16 482.406 331.167 482.466 331.185C482.526 331.204 482.581 331.234 482.629 331.274C485.976 333.996 498.98 346.026 501.94 348.903C502.001 348.962 502.045 349.036 502.067 349.117C502.09 349.199 502.09 349.285 502.067 349.366C502.046 349.448 502.003 349.523 501.943 349.582C501.883 349.642 501.809 349.684 501.727 349.705C499.555 350.259 497.362 350.768 495.211 351.229C491.822 351.942 488.354 352.506 485.005 353.057L483.871 353.228L482.137 353.432C479.922 353.679 477.574 353.908 475.192 354.115C462.893 355.176 450.358 355.569 438.235 355.944C416.23 356.632 393.479 357.349 371.434 362.082C361.892 364.133 350.929 367.169 341.946 374.118C329.355 383.871 323.932 398.681 327.436 413.741C328.689 419.135 332.51 423.985 337.918 427.048C343.278 430.096 349.341 430.858 354.552 429.181C364.11 426.082 370.26 418.124 370.61 408.41C370.613 408.316 370.643 408.225 370.697 408.149C370.751 408.072 370.827 408.013 370.914 407.98L371.486 407.77L372.146 407.529C378.209 405.636 384.478 404.533 390.544 403.466C392.409 403.137 394.276 402.808 396.144 402.457L397.148 402.342L398.715 402.168C400.698 401.958 402.727 401.766 404.92 401.583C408.786 401.26 412.863 400.991 417.392 400.766C424.805 400.391 432.346 400.184 439.641 399.986L443.215 399.885C459.52 399.428 478.772 398.553 497.937 395.514C506.292 394.241 514.531 392.298 522.576 389.705C532.131 386.581 543.918 381.653 550.294 371.211C561.367 353.079 552.637 332.792 523.604 309.189C519.455 305.809 514.688 302.667 507.975 302.667C507.856 302.657 507.745 302.603 507.664 302.515C507.583 302.427 507.538 302.312 507.538 302.193C507.538 302.073 507.583 301.958 507.664 301.87C507.745 301.782 507.856 301.728 507.975 301.719C514.971 301.719 519.918 304.95 524.21 308.439C553.674 332.393 562.474 353.082 551.11 371.689C544.572 382.396 532.587 387.416 522.877 390.586C514.783 393.193 506.494 395.147 498.089 396.429C478.87 399.477 459.581 400.354 443.242 400.812L439.671 400.912C432.371 401.11 424.845 401.317 417.444 401.689C412.93 401.918 408.859 402.183 405.005 402.506C402.818 402.689 400.795 402.878 398.821 403.088C398.301 403.143 397.781 403.204 397.264 403.262L396.287 403.372C394.462 403.719 392.582 404.048 390.711 404.378C384.679 405.441 378.44 406.539 372.435 408.413C372.374 408.431 372.131 408.52 371.827 408.638L371.547 408.742C371.063 418.572 364.551 426.92 354.85 430.077C352.918 430.697 350.901 431.009 348.872 431.001Z" fill="#242426"/>
<path d="M379.157 258.169C371.981 258.169 364.802 255.87 359.099 251.424C359.045 251.387 358.999 251.34 358.964 251.285C358.929 251.23 358.906 251.168 358.896 251.104C358.886 251.039 358.89 250.973 358.906 250.91C358.922 250.847 358.952 250.788 358.992 250.737C359.032 250.686 359.082 250.643 359.139 250.612C359.196 250.581 359.259 250.562 359.324 250.556C359.389 250.551 359.454 250.559 359.516 250.579C359.578 250.6 359.634 250.633 359.683 250.677C368.979 257.928 382.333 259.299 392.904 254.081C393.016 254.026 393.146 254.018 393.265 254.058C393.383 254.099 393.481 254.185 393.536 254.298C393.592 254.41 393.6 254.541 393.559 254.66C393.519 254.778 393.433 254.876 393.32 254.932C388.908 257.081 384.063 258.188 379.157 258.169Z" fill="#242426"/>
<path d="M397.726 265.739C397.613 265.736 397.505 265.693 397.421 265.617C391.827 260.545 390.903 251.139 395.405 245.077C395.483 244.987 395.592 244.93 395.711 244.917C395.83 244.904 395.949 244.936 396.045 245.007C396.141 245.078 396.206 245.183 396.229 245.301C396.251 245.418 396.228 245.54 396.165 245.641C391.94 251.331 392.819 260.158 398.054 264.913C398.125 264.976 398.176 265.059 398.199 265.151C398.222 265.244 398.217 265.341 398.184 265.43C398.151 265.519 398.092 265.596 398.015 265.652C397.937 265.707 397.845 265.737 397.75 265.739H397.726Z" fill="#242426"/>
<path d="M444.211 305.174C456.811 290.569 476.115 282.01 495.376 282.513L444.211 305.174Z" fill="#F24EB6"/>
<path d="M444.217 305.661C444.126 305.661 444.037 305.635 443.96 305.585C443.884 305.536 443.823 305.466 443.785 305.383C443.747 305.3 443.734 305.208 443.747 305.118C443.76 305.028 443.798 304.943 443.858 304.874C456.619 290.08 475.911 281.555 495.394 282.052C495.456 282.053 495.517 282.067 495.574 282.092C495.63 282.118 495.681 282.154 495.724 282.199C495.767 282.244 495.8 282.297 495.822 282.355C495.845 282.413 495.855 282.474 495.854 282.536C495.854 282.599 495.842 282.661 495.817 282.719C495.793 282.777 495.757 282.829 495.712 282.873C495.666 282.916 495.613 282.95 495.554 282.972C495.495 282.994 495.432 283.003 495.37 283C476.139 282.503 457.154 290.924 444.569 305.496C444.526 305.547 444.471 305.588 444.411 305.616C444.35 305.645 444.284 305.66 444.217 305.661Z" fill="#242426"/>
<path d="M490.814 309.427C490.722 309.427 490.632 309.399 490.556 309.348C490.479 309.297 490.419 309.225 490.383 309.14C490.346 309.056 490.335 308.962 490.351 308.872C490.366 308.781 490.408 308.696 490.47 308.629C492.731 306.234 495.646 304.56 498.851 303.816C498.913 303.794 498.98 303.785 499.046 303.791C499.112 303.796 499.176 303.815 499.235 303.847C499.293 303.879 499.344 303.923 499.384 303.976C499.424 304.029 499.453 304.089 499.468 304.154C499.483 304.219 499.484 304.286 499.471 304.351C499.459 304.417 499.432 304.479 499.394 304.533C499.356 304.587 499.307 304.633 499.25 304.667C499.193 304.701 499.13 304.723 499.064 304.731C496.039 305.431 493.288 307.01 491.155 309.269C491.112 309.317 491.059 309.356 491.001 309.383C490.942 309.411 490.878 309.426 490.814 309.427Z" fill="#242426"/>
<path d="M99.1853 315.088C98.8081 315.441 98.3001 315.46 97.3601 315.825C88.6085 319.196 86.4548 328.849 87.27 337.316C87.7143 341.779 88.8312 346.148 90.5827 350.275C91.3391 352.167 92.2785 353.98 93.3873 355.689C94.2543 356.969 97.3997 359.44 96.9282 361.089C96.5783 362.309 92.5873 363.576 91.5013 364.024C86.6737 365.999 81.5288 367.082 76.316 367.219C72.7052 367.316 65.222 367.469 62.9071 363.967C61.8577 362.379 62.4448 357.697 62.3261 355.896C61.5028 343.397 60.6804 330.901 59.8591 318.407L55.8438 257.342L55.935 257.321C61.3527 256.102 67.2753 256.294 72.6413 257.626C84.0486 260.47 91.9789 269.208 95.9091 280.083C99.2552 289.318 100.055 299.367 99.9062 309.123C99.8849 310.552 100.21 312.726 99.742 314.07C99.6397 314.448 99.4488 314.797 99.1853 315.088Z" fill="white"/>
<path d="M73.9617 367.75C70.0072 367.75 64.5317 367.324 62.5058 364.245C61.6723 362.986 61.7605 360.222 61.8305 358.003C61.8548 357.162 61.8792 356.433 61.8305 355.943L55.3603 257.377C55.3534 257.266 55.3856 257.156 55.4512 257.067C55.5167 256.977 55.6116 256.913 55.7192 256.887L55.8196 256.862C61.1156 255.667 67.1295 255.777 72.745 257.167C83.4769 259.843 92.0765 268.139 96.3413 279.922C99.2676 288.012 100.548 297.295 100.366 309.13C100.366 309.542 100.384 310.014 100.408 310.511C100.469 311.767 100.539 313.19 100.177 314.226C100.055 314.678 99.8219 315.092 99.4988 315.43C99.1662 315.706 98.7715 315.896 98.3489 315.985C98.1147 316.055 97.8409 316.14 97.5094 316.268C86.9417 320.334 87.3432 333.37 87.7204 337.268C88.1561 341.683 89.2608 346.006 90.9966 350.088C91.7476 351.953 92.6756 353.743 93.7678 355.431C94.1163 355.89 94.4954 356.324 94.9024 356.732C96.25 358.168 97.7801 359.78 97.3694 361.228C97.0379 362.377 94.7382 363.322 92.408 364.187C92.1038 364.303 91.8483 364.398 91.6688 364.471C86.787 366.465 81.5861 367.559 76.3162 367.701C75.65 367.729 74.8469 367.75 73.9617 367.75ZM56.3367 257.722L62.7917 355.885C62.8252 356.421 62.7917 357.168 62.7765 358.037C62.7126 360.012 62.6275 362.715 63.2967 363.724C65.496 367.052 73.0674 366.851 76.2979 366.772C81.453 366.633 86.5406 365.562 91.316 363.611C91.4985 363.535 91.7662 363.437 92.0826 363.306C93.2202 362.883 96.2409 361.758 96.466 360.972C96.7276 360.057 95.2796 358.515 94.218 357.391C93.7809 356.945 93.3744 356.471 93.0012 355.97C91.8746 354.231 90.9171 352.388 90.1418 350.466C88.3686 346.293 87.2402 341.873 86.7957 337.36C85.7523 326.506 89.6368 318.292 97.1869 315.385C97.5459 315.247 97.8409 315.159 98.0995 315.08C98.3807 315.029 98.6462 314.913 98.8752 314.741C99.0811 314.505 99.229 314.223 99.3072 313.919C99.6113 313.056 99.5444 311.73 99.4866 310.566C99.4623 310.048 99.438 309.554 99.444 309.127C99.6235 297.405 98.3611 288.231 95.4895 280.255C91.2704 268.603 83.1271 260.733 72.5503 258.097C67.2421 256.757 61.7014 256.627 56.3367 257.719V257.722Z" fill="#242426"/>
<path d="M55.1004 361.802L47.7268 260.762C47.3404 255.446 50.5588 250.841 54.8844 250.524C59.2101 250.219 63.0642 254.294 63.4536 259.61L67.0735 309.235L70.8272 360.65C71.2136 365.962 67.9952 370.571 63.6696 370.888C59.3439 371.205 55.4898 367.115 55.1004 361.802Z" fill="#FFA9D8"/>
<path d="M63.1964 371.377C61.14 371.377 59.1597 370.463 57.5688 368.78C55.8256 366.87 54.7895 364.418 54.6333 361.834L47.2596 260.794C46.852 255.207 50.259 250.385 54.8645 250.05C57.0851 249.886 59.2783 250.8 61.0031 252.629C62.7462 254.538 63.7825 256.989 63.9386 259.572L71.3122 360.612C71.7199 366.202 68.3129 371.024 63.7074 371.359C63.5371 371.371 63.3667 371.377 63.1964 371.377ZM55.3603 250.98C55.2143 250.98 55.0561 250.98 54.9192 250.98C50.8461 251.285 47.8315 255.643 48.1996 260.709L55.5793 361.779C55.7167 364.146 56.6619 366.393 58.2562 368.143C59.7772 369.759 61.6845 370.582 63.6405 370.429C67.7136 370.125 70.7282 365.766 70.3601 360.697L62.9834 259.642C62.8466 257.274 61.9002 255.026 60.3035 253.275C58.8951 251.784 57.1551 250.98 55.3603 250.98Z" fill="#242426"/>
<path d="M274.983 260.873C274.902 260.873 274.822 260.852 274.751 260.812C274.68 260.772 274.621 260.714 274.579 260.644C270.378 253.604 268.151 245.444 267.774 235.688C267.771 235.626 267.781 235.564 267.803 235.505C267.825 235.447 267.858 235.393 267.9 235.348C267.942 235.302 267.993 235.265 268.05 235.239C268.107 235.214 268.168 235.199 268.23 235.197C268.293 235.191 268.356 235.199 268.416 235.219C268.475 235.239 268.53 235.272 268.576 235.315C268.623 235.357 268.659 235.41 268.684 235.468C268.709 235.526 268.721 235.588 268.72 235.651C269.091 245.243 271.272 253.259 275.391 260.156C275.423 260.21 275.444 260.269 275.453 260.331C275.462 260.392 275.459 260.455 275.443 260.515C275.428 260.576 275.401 260.632 275.364 260.682C275.327 260.732 275.28 260.774 275.227 260.806C275.153 260.85 275.069 260.873 274.983 260.873Z" fill="#242426"/>
<path d="M426.184 163.424C426.101 163.424 426.02 163.402 425.948 163.361C425.876 163.32 425.817 163.26 425.775 163.189C425.733 163.117 425.711 163.036 425.711 162.953C425.711 162.87 425.732 162.788 425.773 162.716C428.956 157.122 433.543 152.458 439.079 149.187C439.132 149.149 439.193 149.124 439.257 149.111C439.321 149.098 439.387 149.099 439.451 149.112C439.515 149.126 439.575 149.153 439.628 149.192C439.681 149.23 439.725 149.279 439.759 149.336C439.792 149.392 439.813 149.455 439.821 149.52C439.829 149.585 439.823 149.651 439.805 149.713C439.786 149.776 439.754 149.834 439.712 149.884C439.67 149.934 439.618 149.975 439.559 150.004C434.165 153.191 429.696 157.735 426.595 163.186C426.553 163.258 426.494 163.319 426.421 163.361C426.349 163.402 426.267 163.424 426.184 163.424Z" fill="#242426"/>
<path d="M541.036 202.424C542.189 209.227 541.821 216.209 541.419 223.098C541.191 227.011 540.96 231.022 541.876 234.823C542.791 238.623 545.109 242.235 548.352 243.244C551.677 244.28 555.245 242.305 557.383 239.209C559.522 236.112 560.465 232.089 560.985 228.114C563.048 212.363 559.002 195.502 550.192 183.14C548.239 180.397 546.001 177.812 543.242 176.328C540.482 174.843 537.115 174.609 534.569 176.444C529.845 179.848 531.77 183.64 534.386 187.078C537.848 191.556 540.134 196.832 541.036 202.424Z" fill="white"/>
<path d="M516.454 169.128C517.181 170.396 518.255 171.429 519.548 172.105C520.842 172.782 522.301 173.074 523.755 172.947C525.201 172.773 526.564 172.174 527.67 171.224C528.776 170.275 529.576 169.018 529.97 167.613C530.31 166.194 530.205 164.704 529.67 163.347C529.135 161.99 528.196 160.83 526.98 160.027C521.291 156.473 512.868 162.706 516.454 169.128Z" fill="white"/>
<path d="M297.06 217.502C296.978 217.502 296.897 217.48 296.825 217.439C296.754 217.398 296.694 217.339 296.653 217.267C293.941 212.591 292.731 207.191 293.188 201.802C293.193 201.74 293.21 201.679 293.238 201.623C293.266 201.568 293.305 201.518 293.353 201.478C293.4 201.438 293.456 201.407 293.515 201.389C293.575 201.37 293.637 201.363 293.699 201.369C293.824 201.381 293.94 201.441 294.021 201.538C294.102 201.634 294.141 201.759 294.131 201.884C293.694 207.079 294.862 212.282 297.477 216.788C297.52 216.86 297.542 216.942 297.543 217.026C297.544 217.109 297.522 217.192 297.481 217.264C297.439 217.337 297.379 217.397 297.307 217.438C297.235 217.48 297.153 217.502 297.07 217.502H297.06Z" fill="#242426"/>
<path d="M263.203 254.795H263.16C263.035 254.785 262.92 254.725 262.839 254.629C262.758 254.533 262.718 254.409 262.728 254.283C263.275 247.838 265.019 241.552 267.872 235.749C267.899 235.693 267.937 235.644 267.984 235.602C268.031 235.561 268.085 235.53 268.144 235.51C268.202 235.49 268.265 235.481 268.326 235.485C268.388 235.489 268.449 235.505 268.505 235.533C268.56 235.56 268.61 235.598 268.651 235.645C268.692 235.692 268.724 235.746 268.744 235.805C268.764 235.864 268.772 235.926 268.768 235.988C268.764 236.05 268.748 236.111 268.721 236.167C265.92 241.865 264.208 248.037 263.671 254.366C263.66 254.483 263.607 254.592 263.52 254.672C263.433 254.751 263.32 254.795 263.203 254.795Z" fill="#242426"/>
<path d="M224.016 269.729C230.677 255.956 249.179 244.611 258.228 240.734C258.575 241.198 259.104 241.649 259.445 242.106C246.088 251.585 235.937 265.498 230.79 281.064C229.741 280.305 229.269 279.183 228.807 277.976C227.398 274.301 226.455 272.777 224.016 269.729Z" fill="#242426"/>
<path d="M372.522 360.558C367.35 362.128 362.112 365.231 356.703 365.182C346.233 365.091 354.842 365.417 343.684 365.289C311.744 361.049 267.28 338.162 241.84 318.351C241.84 318.086 240.039 318.296 240.039 318.046C240.842 317.967 241.773 317.86 242.576 317.781C259.933 331.171 279.739 341.357 300.878 347.117C324.383 353.524 348.259 358.373 372.522 360.558Z" fill="#242426"/>
<path d="M88.6805 324.352C89.1307 339.143 97.9402 353.395 110.954 360.393C106.035 360.874 101.113 360.804 96.3036 359.661C87.9474 350.384 85.2249 336.36 88.6805 324.352Z" fill="#242426"/>
<path d="M132.622 309.43L177.454 311.094C177.077 312.206 176.846 315.361 176.758 316.528C161.691 316.467 146.606 316.348 131.555 315.672C132.37 314.227 132.848 311.069 132.622 309.43Z" fill="#242426"/>
<path d="M70.539 350.852C70.7805 357.112 73.4745 363.026 78.0374 367.31C75.3023 367.307 72.5694 367.151 69.8516 366.844C70.536 361.391 71.0562 356.31 70.539 350.852Z" fill="#242426"/>
<path d="M255.072 226.029C254.238 199.707 259.33 178.39 272.478 155.586C265.928 168.475 265.481 178.445 265.107 192.901C264.733 207.357 266.479 221.783 268.231 236.138C267.175 236.632 266.187 236.836 265.131 237.327C261.274 233.892 257.825 230.399 255.072 226.029Z" fill="#242426"/>
<path d="M481.93 331.797C483.97 335.432 485.603 339.283 486.797 343.278C488.779 342.321 490.831 341.516 492.935 340.87C489.27 337.606 485.589 335.061 481.93 331.797Z" fill="#242426"/>
<path d="M591.707 255.186C575.162 258.782 575.864 262.15 574.304 286.274C574.297 286.371 574.255 286.462 574.186 286.53C574.116 286.598 574.025 286.638 573.928 286.643C573.831 286.647 573.736 286.616 573.66 286.555C573.585 286.493 573.535 286.406 573.519 286.311C569.711 262.36 571.085 258.925 554.41 256.392C554.319 256.378 554.237 256.332 554.176 256.263C554.116 256.194 554.081 256.106 554.078 256.014C554.075 255.922 554.104 255.832 554.16 255.759C554.216 255.687 554.296 255.636 554.385 255.615C570.86 252.022 569.291 248.681 571.551 224.527C571.563 224.431 571.609 224.343 571.682 224.279C571.754 224.215 571.847 224.18 571.943 224.18C572.04 224.18 572.133 224.215 572.205 224.279C572.277 224.343 572.324 224.431 572.336 224.527C575.426 248.489 574.943 251.894 591.682 254.427C591.766 254.446 591.842 254.493 591.896 254.56C591.951 254.627 591.982 254.71 591.985 254.797C591.988 254.883 591.962 254.968 591.912 255.038C591.861 255.109 591.789 255.16 591.707 255.186Z" fill="#FDDC68"/>
<path d="M573.911 287.107C573.705 287.109 573.504 287.036 573.347 286.901C573.191 286.766 573.088 286.578 573.06 286.373C572.664 283.892 572.324 281.627 572.016 279.564C569.352 261.798 568.944 259.067 554.343 256.848C554.143 256.817 553.96 256.716 553.826 256.564C553.692 256.413 553.616 256.219 553.61 256.016C553.604 255.813 553.668 255.615 553.793 255.455C553.917 255.296 554.093 255.184 554.291 255.141C568.716 251.996 568.953 249.243 570.477 231.346C570.657 229.265 570.848 226.985 571.085 224.482C571.103 224.269 571.2 224.069 571.357 223.924C571.514 223.778 571.72 223.697 571.934 223.696C572.149 223.687 572.359 223.76 572.521 223.901C572.684 224.041 572.787 224.238 572.81 224.452L573.276 228.091C575.919 248.923 576.257 251.599 591.758 253.943C591.958 253.974 592.141 254.074 592.275 254.226C592.41 254.377 592.487 254.571 592.493 254.774C592.5 254.976 592.435 255.175 592.311 255.335C592.187 255.495 592.011 255.606 591.813 255.65C576.494 258.981 576.324 261.673 575.013 282.63L574.781 286.287C574.77 286.501 574.679 286.703 574.527 286.853C574.374 287.003 574.171 287.091 573.957 287.098L573.911 287.107ZM554.908 255.985C569.784 258.305 570.285 261.645 572.95 279.43C573.23 281.295 573.534 283.322 573.881 285.525L574.07 282.578C575.35 262.115 575.591 258.277 591.196 254.821C575.402 252.383 574.918 248.558 572.336 228.216L571.962 225.281C571.755 227.509 571.581 229.548 571.42 231.432C569.893 249.353 569.607 252.718 554.908 255.985Z" fill="#242426"/>
<path d="M207.102 204.026C192.571 207.184 193.188 210.144 191.819 231.317C191.817 231.405 191.781 231.488 191.72 231.55C191.659 231.612 191.577 231.649 191.49 231.653C191.403 231.657 191.317 231.629 191.25 231.573C191.183 231.517 191.14 231.437 191.129 231.351C187.783 210.32 188.999 207.3 174.346 205.075C174.265 205.064 174.191 205.025 174.136 204.965C174.081 204.904 174.05 204.826 174.047 204.744C174.044 204.662 174.071 204.582 174.122 204.518C174.173 204.455 174.245 204.411 174.325 204.395C188.796 201.238 187.406 198.3 189.401 177.098C189.412 177.015 189.453 176.938 189.516 176.883C189.58 176.827 189.661 176.797 189.745 176.797C189.829 176.797 189.91 176.827 189.973 176.883C190.036 176.938 190.077 177.015 190.089 177.098C192.805 198.144 192.379 201.134 207.081 203.359C207.156 203.375 207.223 203.416 207.272 203.475C207.32 203.534 207.348 203.608 207.351 203.684C207.353 203.761 207.33 203.836 207.285 203.898C207.24 203.96 207.176 204.005 207.102 204.026Z" fill="#FDDC68"/>
<path d="M191.47 232.109C191.275 232.112 191.085 232.043 190.937 231.916C190.789 231.788 190.692 231.611 190.664 231.417C190.317 229.235 190.019 227.248 189.752 225.434C187.421 209.872 187.063 207.479 174.283 205.538C174.094 205.509 173.92 205.415 173.793 205.272C173.666 205.129 173.593 204.945 173.586 204.753C173.58 204.561 173.641 204.374 173.759 204.222C173.877 204.071 174.044 203.966 174.232 203.926C186.859 201.182 187.066 198.744 188.404 183.078C188.559 181.249 188.73 179.247 188.936 177.049C188.953 176.847 189.045 176.659 189.194 176.521C189.342 176.383 189.537 176.306 189.739 176.306C189.942 176.296 190.141 176.364 190.295 176.497C190.449 176.63 190.546 176.816 190.567 177.019L190.974 180.216C193.292 198.473 193.588 200.82 207.158 202.871C207.347 202.899 207.521 202.993 207.648 203.137C207.775 203.28 207.848 203.464 207.855 203.655C207.861 203.847 207.8 204.035 207.682 204.187C207.564 204.338 207.397 204.443 207.209 204.483C193.797 207.4 193.651 209.759 192.502 228.129L192.298 231.341C192.287 231.544 192.201 231.736 192.056 231.878C191.911 232.02 191.719 232.103 191.516 232.109H191.47ZM175.089 204.703C187.902 206.748 188.355 209.759 190.682 225.294C190.908 226.785 191.148 228.394 191.419 230.131L191.549 228.068C192.669 210.189 192.885 206.733 206.339 203.703C192.721 201.542 192.286 198.107 190.028 180.335L189.767 178.281C189.606 180.033 189.463 181.655 189.341 183.157C188.006 198.811 187.747 201.847 175.089 204.703Z" fill="#242426"/>
<path d="M248.855 87.3034C238.178 89.6229 238.631 91.796 237.624 107.358C237.618 107.42 237.591 107.477 237.546 107.519C237.502 107.561 237.444 107.586 237.382 107.589C237.321 107.592 237.261 107.573 237.213 107.535C237.164 107.497 237.131 107.443 237.119 107.383C234.661 91.924 235.544 89.7052 224.784 88.0715C224.724 88.0641 224.669 88.0355 224.628 87.9909C224.588 87.9463 224.564 87.8885 224.563 87.8281C224.561 87.7677 224.581 87.7086 224.618 87.6616C224.656 87.6145 224.71 87.5826 224.769 87.5716C235.416 85.2522 234.379 83.0973 235.848 67.5135C235.857 67.4532 235.888 67.3982 235.934 67.3584C235.98 67.3187 236.039 67.2969 236.1 67.2969C236.161 67.2969 236.22 67.3187 236.266 67.3584C236.313 67.3982 236.343 67.4532 236.353 67.5135C238.348 82.9785 238.035 85.1912 248.825 86.8097C248.88 86.8208 248.93 86.8499 248.967 86.8925C249.004 86.935 249.026 86.9886 249.029 87.0448C249.033 87.1011 249.017 87.157 248.986 87.2037C248.954 87.2505 248.909 87.2855 248.855 87.3034Z" fill="#FDDC68"/>
<path d="M237.359 108.061C237.186 108.062 237.018 108.001 236.887 107.89C236.755 107.778 236.668 107.622 236.641 107.451C236.385 105.848 236.166 104.385 235.968 103.05C234.225 91.4408 234.003 89.9443 224.713 88.5361C224.545 88.5109 224.391 88.4273 224.278 88.2999C224.164 88.1725 224.1 88.0094 224.094 87.839C224.089 87.6685 224.143 87.5016 224.248 87.3672C224.353 87.2328 224.501 87.1396 224.668 87.1036C233.857 85.0981 233.985 83.5955 234.983 71.8977C235.098 70.5536 235.223 69.0815 235.375 67.4631C235.39 67.2841 235.472 67.1173 235.604 66.9955C235.735 66.8736 235.908 66.8056 236.087 66.8047C236.266 66.803 236.439 66.8663 236.574 66.9829C236.71 67.0995 236.798 67.2615 236.823 67.4387L237.127 69.7886C238.822 83.1231 239.038 84.833 248.915 86.3264C249.082 86.353 249.235 86.4372 249.348 86.5645C249.46 86.6918 249.525 86.8543 249.53 87.0241C249.536 87.1939 249.483 87.3604 249.379 87.4951C249.276 87.6297 249.129 87.7241 248.963 87.762C239.202 89.8955 239.092 91.6054 238.256 105.022L238.104 107.384C238.095 107.564 238.018 107.734 237.89 107.86C237.761 107.986 237.59 108.059 237.41 108.064L237.359 108.061ZM225.96 87.7681C234.864 89.292 235.257 91.9223 236.911 102.898C237.027 103.66 237.149 104.466 237.276 105.318L237.301 104.952C238.11 92.0107 238.28 89.289 247.643 87.0732C238.159 85.4608 237.815 82.7573 236.184 69.8983L236.136 69.5326C236.06 70.389 235.993 71.1967 235.926 71.9709C234.974 83.0317 234.749 85.6711 225.96 87.7681Z" fill="#242426"/>
</svg>
