<svg width="140" height="140" viewBox="0 0 140 140" fill="none" xmlns="http://www.w3.org/2000/svg">
<path d="M55.2073 14.7932L125.207 55.2077L84.7928 125.208L14.7927 84.7932L55.2073 14.7932Z" fill="black"/>
<path d="M69.9985 12.8457L127.153 70.0005L69.9985 127.155L12.8438 70.0005L69.9985 12.8457Z" fill="white"/>
<path fill-rule="evenodd" clip-rule="evenodd" d="M56.2649 47.7441L59.8611 51.3404L41.1202 70.0813L59.8611 88.8222L56.2649 92.4185L33.9277 70.0813L56.2649 47.7441Z" fill="black"/>
<path d="M66.6977 44.4857L62.313 41.6069C60.2757 43.9985 61.1172 47.5859 63.9517 50.4204C66.7862 53.255 70.2851 53.8307 72.3224 51.7934C75.9541 48.1617 68.7793 42.5812 70.728 40.6325C71.2152 40.1453 71.9902 40.2118 72.7653 40.9868C73.7397 41.9612 73.8282 43.0241 72.9425 43.9099L77.1056 46.6559C78.8994 44.685 78.235 41.319 75.4227 38.5066C72.7874 35.8714 69.7979 35.3621 67.8935 37.2665C64.2618 40.8983 71.1709 46.3901 69.2222 48.3388C68.6243 48.9368 67.6499 48.8039 66.8748 48.0288C65.8562 47.0102 65.7676 45.5043 66.6977 44.4857Z" fill="black"/>
<path d="M76.2178 62.5979C78.6094 64.9895 81.9754 65.6982 84.5442 64.5466L82.4183 60.472C81.4218 60.9814 80.0488 60.6713 79.1409 59.7634C77.9451 58.5676 77.9008 56.7517 78.9859 55.1795L86.5815 62.7751C86.7808 62.6201 87.0244 62.4207 87.3344 62.1107C90.7004 58.7447 90.8775 54.0501 87.7773 50.9498C84.5884 47.761 79.8495 47.8939 76.4835 51.2599C73.1175 54.6258 73.0068 59.3869 76.2178 62.5979ZM80.8239 53.4743C82.2411 52.6771 83.8134 52.7436 84.8763 53.8065C85.9393 54.8694 86.0057 56.5303 85.1642 57.8147L80.8239 53.4743Z" fill="black"/>
<path d="M69.2611 98.1207L66.3823 102.505C68.7739 104.543 72.3613 103.701 75.1958 100.867C78.0303 98.0321 78.6061 94.5333 76.5688 92.496C72.9371 88.8642 67.3566 96.0391 65.4079 94.0904C64.9207 93.6032 64.9872 92.8281 65.7622 92.0531C66.7366 91.0787 67.7995 90.9901 68.6853 91.8759L71.4312 87.7127C69.4604 85.919 66.0944 86.5833 63.282 89.3957C60.6468 92.0309 60.1375 95.0204 62.0419 96.9249C65.6736 100.557 71.1655 93.6475 73.1142 95.5962C73.7121 96.1941 73.5793 97.1685 72.8042 97.9435C71.7856 98.9622 70.2797 99.0508 69.2611 98.1207Z" fill="black"/>
<path d="M88.1557 88.6006C90.5474 86.209 91.256 82.843 90.1045 80.2742L86.0299 82.4001C86.5392 83.3966 86.2292 84.7696 85.3212 85.6775C84.1254 86.8733 82.3096 86.9176 80.7373 85.8325L88.3329 78.2369C88.1779 78.0376 87.9786 77.794 87.6686 77.484C84.3026 74.118 79.6079 73.9408 76.5077 77.0411C73.3188 80.2299 73.4517 84.9689 76.8177 88.3348C80.1837 91.7008 84.9448 91.8115 88.1557 88.6006ZM79.0322 83.9945C78.2349 82.5772 78.3014 81.005 79.3643 79.942C80.4273 78.8791 82.0881 78.8127 83.3725 79.6542L79.0322 83.9945Z" fill="black"/>
<path d="M95.3516 80.7696L105.981 70.1402L102.881 67.0399L95.8261 74.0946L97.8424 61.9804L94.9193 59.0573L84.3742 69.6024L87.4302 72.6583L94.2844 65.804L92.3399 77.7579L95.3516 80.7696Z" fill="black"/>
</svg>
