<svg width="523" height="351" viewBox="0 0 523 351" fill="none" xmlns="http://www.w3.org/2000/svg">
<path d="M250.567 168.092C250.567 168.092 250.428 167.804 250.039 167.852C249.651 167.9 249.703 167.996 249.703 167.996C249.647 167.882 249.527 167.82 249.483 167.685C249.447 167.566 249.444 167.44 249.472 167.319C249.543 166.986 249.791 166.656 250.138 166.587C250.485 166.518 250.829 166.696 251.014 166.983C251.014 166.983 250.567 167.132 250.615 167.228C250.615 167.228 250.855 167.516 251.047 167.42C251.047 167.42 251.143 168.044 250.567 168.092Z" fill="#FDAB96"/>
<path d="M253.645 169.697C253.034 169.778 252.459 170.01 251.999 170.459C251.08 171.355 250.935 172.732 251.049 173.946C251.262 176.205 252.312 178.523 253.609 180.367C256.135 183.96 260.802 184.466 264.777 183.402C271.589 181.578 273.513 178.078 273.513 178.074C273.968 177.245 274.377 176.494 274.587 175.549C274.996 173.7 274.783 171.703 274.072 169.954C273.8 169.286 273.403 168.6 272.734 168.329C272.254 168.137 271.715 168.188 271.214 168.307C268.268 169.003 266.041 171.514 263.847 173.424C263.752 173.516 263.642 173.593 263.523 173.651C263.347 173.724 263.147 173.713 262.959 173.686C262.455 173.614 261.971 173.441 261.509 173.226C260.521 172.767 259.631 172.122 258.73 171.51C257.829 170.897 256.898 170.301 255.863 169.956C255.169 169.723 254.381 169.601 253.645 169.697Z" fill="#F9F3E9"/>
<path d="M258.909 178.525C258.237 178.152 257.58 177.742 256.929 177.336C255.907 176.697 254.913 175.89 253.638 176.299C253.638 176.299 252.017 176.815 252.308 178.192C252.308 178.192 253.638 180.807 254.55 181.579C255.175 182.107 257.623 184.281 261.991 183.914C266.359 183.547 269.311 181.646 269.311 181.646C269.311 181.646 272.168 180.331 273.512 178.075C273.512 178.075 272.67 175.992 270.115 176.193C267.586 176.393 265.825 178.198 263.718 179.375C263.379 179.564 263.021 179.738 262.635 179.787C262.203 179.843 261.764 179.739 261.346 179.607C260.492 179.337 259.688 178.956 258.909 178.525Z" fill="#CBC7F7"/>
<path d="M247.072 168.219H250.044C250.044 168.219 250.14 167.149 249.228 167.389C248.316 167.629 248.364 167.965 248.364 167.965C248.364 167.965 248.233 167.656 247.435 167.786C246.636 167.917 247.072 168.219 247.072 168.219Z" fill="#F9F3E9"/>
<path d="M272.167 166.268C272.167 166.268 271.917 166.918 272.954 167.337C273.991 167.756 274.231 167.852 274.423 168.38C274.615 168.908 274.855 169.916 275.431 169.772C276.007 169.628 276.007 168.668 276.007 168.668C276.007 168.668 275.789 166.556 274.074 166.268C272.198 165.854 272.167 166.268 272.167 166.268Z" fill="#F9F3E9"/>
<path d="M268.477 171.612H271.606C271.606 171.612 271.405 171.612 270.781 171.132C270.157 170.652 269.725 171.372 269.725 171.372C269.725 171.372 268.765 170.748 268.477 171.612Z" fill="#FF9072"/>
<path d="M251.195 174.141H253.408C253.408 174.141 253.264 174.141 252.824 173.802C252.384 173.463 252.077 173.973 252.077 173.973C252.077 173.973 251.399 173.53 251.195 174.141Z" fill="white"/>
<path d="M273.203 173.447H274.815C274.815 173.447 274.712 173.447 274.39 173.2C274.069 172.953 273.845 173.324 273.845 173.324C273.845 173.324 273.351 173.002 273.203 173.447Z" fill="white"/>
<path d="M259.593 179.273L262.647 180.673L260.904 183.953C260.904 183.953 258.911 183.914 257.703 183.425L257.367 183.29L259.593 179.273Z" fill="#FE5122"/>
<path d="M265.572 183.186L263.484 180.34L266.268 178.516L268.856 181.92C268.856 181.92 266.604 183.104 265.572 183.186Z" fill="#652FEB"/>
<path d="M263.383 180.411L264.334 181.662L267.173 179.583L266.304 178.455L263.383 180.411Z" fill="#652FEB"/>
<path d="M267.511 173.113C267.511 173.113 267.449 173.713 267.204 174.073C267.057 174.301 266.989 174.571 267.012 174.841C267.06 175.177 267.039 175.532 266.863 175.835C266.719 176.086 266.486 176.292 266.318 176.531C265.89 177.139 265.364 177.982 265.838 178.711L265.875 178.772L263.886 180.073C263.886 180.073 263.532 178.496 263.316 178.249C263.1 178.003 263.028 172.873 263.028 172.873C263.033 172.386 262.98 172.009 263.028 171.577C263.052 171.495 263.089 171.417 263.138 171.346C263.302 171.123 263.47 171.889 263.484 171.953C263.724 173.041 263.837 173.361 263.837 173.361C263.837 173.361 264.111 173.905 264.18 172.633C264.249 171.361 264.252 171.169 264.252 171.169C264.252 171.169 264.3 169.921 264.54 169.873C264.78 169.825 264.876 170.972 264.876 170.977C264.876 171.187 264.775 172.814 264.852 173.065C264.93 172.969 264.971 171.497 264.986 171.375C265.037 170.958 265.099 170.469 265.212 170.065C265.264 169.879 265.308 169.585 265.408 169.475C265.417 169.466 265.428 169.46 265.44 169.455C265.451 169.451 265.464 169.449 265.477 169.449C265.525 169.449 265.561 169.494 265.586 169.537C265.922 170.106 265.778 170.969 265.713 171.601L265.644 172.273C265.636 172.355 265.529 173.046 265.572 173.113C265.676 172.891 265.812 172.043 265.836 171.841C265.866 171.59 265.895 171.371 265.932 171.121C265.973 170.851 265.946 170.527 265.98 170.257C265.98 170.257 266.172 169.585 266.412 169.921C266.652 170.257 266.556 171.793 266.556 171.793L266.46 172.633L266.168 173.757C266.168 173.757 265.88 175.201 266.216 174.625C266.341 174.412 266.443 174.187 266.52 173.953C266.648 173.562 266.749 173.249 267.048 172.953C267.295 172.711 267.492 172.741 267.511 173.113Z" fill="#FFBA94"/>
<path d="M258.632 174.232C258.632 174.232 258.2 173.896 258.44 173.752C258.68 173.608 259.318 173.752 259.318 173.752C259.318 173.752 259.977 174.28 260.264 174.544C260.552 174.808 260.418 173.27 260.418 173.27L260.449 170.226C260.449 170.226 260.48 169.554 260.903 169.782C260.866 169.766 260.89 169.618 260.893 169.59C260.902 169.465 260.907 169.267 261.075 169.268C261.193 169.268 261.309 169.373 261.357 169.474C261.368 169.499 261.494 169.774 261.475 169.784C261.475 169.784 261.824 169.362 262.04 170.058C262.197 170.564 262.223 171.271 262.223 171.271C262.223 171.271 262.408 170.346 262.751 171.594C262.984 172.437 263.149 173.297 263.349 174.148C263.549 174.999 263.823 175.866 263.832 176.75C263.838 177.44 263.688 178.26 263.16 178.759C262.937 178.968 262.668 179.047 262.494 179.307C262.277 179.635 262.171 180.04 262.095 180.42L260.192 179.548C260.192 179.548 260.838 177.976 260.31 176.536C259.782 175.096 259.446 175 259.446 175L258.632 174.232Z" fill="#FECCA7"/>
<path d="M252.083 175.821L251.336 175.074L250.589 175.821L251.336 176.568L252.083 175.821Z" fill="#652FEB"/>
<path d="M271.761 167.827L271.258 168.33L271.761 168.833L272.264 168.33L271.761 167.827Z" fill="#652FEB"/>
<path d="M268.829 176.053L268.32 176.562L268.829 177.072L269.339 176.562L268.829 176.053Z" fill="#FE5122"/>
<path d="M258.042 169.957C258.851 169.957 259.506 169.302 259.506 168.493C259.506 167.685 258.851 167.029 258.042 167.029C257.234 167.029 256.578 167.685 256.578 168.493C256.578 169.302 257.234 169.957 258.042 169.957Z" fill="#F9F3E9"/>
<path d="M261.851 169.004L260.906 166.572" stroke="#652FEB" stroke-width="2" stroke-miterlimit="10"/>
<path d="M262.422 168.487V166.15" stroke="#652FEB" stroke-width="2" stroke-miterlimit="10"/>
<path d="M263.25 168.788L263.679 166.572" stroke="#652FEB" stroke-width="2" stroke-miterlimit="10"/>
<path d="M264.305 168.792L265.185 166.977" stroke="#652FEB" stroke-width="2" stroke-miterlimit="10"/>
<path d="M265.188 169.013L266.553 167.797" stroke="#652FEB" stroke-width="2" stroke-miterlimit="10"/>
<path d="M264.008 174.047C264.008 174.047 264.2 174.575 264.152 175.391" stroke="#0A0517" stroke-width="2" stroke-miterlimit="10"/>
<path d="M264.875 176.299C264.875 176.299 265.019 175.147 265.595 174.955" stroke="#0A0517" stroke-width="2" stroke-miterlimit="10"/>
<path d="M260.984 170.59C260.984 170.59 261.32 173.518 261.224 174.286" stroke="#0A0517" stroke-width="2" stroke-miterlimit="10"/>
<path d="M261.5 170.268C261.5 170.268 262.187 173.532 262.139 174.396" stroke="#0A0517" stroke-width="2" stroke-miterlimit="10"/>
<path d="M262.383 172.041C262.383 172.041 262.688 173.961 262.751 174.729" stroke="#0A0517" stroke-width="2" stroke-miterlimit="10"/>
<path d="M259.558 179.268L258.852 180.477L262.058 181.876L262.71 180.722L259.558 179.268Z" fill="#FE5122"/>
<circle cx="259.657" cy="180.134" r="0.235281" fill="#FE5122"/>
<circle cx="266.311" cy="179.329" r="0.235281" transform="rotate(103.25 266.311 179.329)" fill="#652FEB"/>
<circle cx="260.124" cy="180.429" r="0.147471" fill="#FE5122"/>
<circle cx="265.916" cy="179.723" r="0.147471" transform="rotate(103.25 265.916 179.723)" fill="#652FEB"/>
<path d="M65.3957 35.0836C65.3957 35.0836 62.8937 29.907 55.9053 30.7698C48.9169 31.6326 49.8659 33.3581 49.8659 33.3581C48.8565 31.3133 46.6995 30.1917 45.9058 27.7673C45.2626 25.6315 45.1942 23.3638 45.7073 21.193C46.9842 15.2054 51.4448 9.2782 57.6826 8.03581C63.9204 6.79342 70.0978 9.98567 73.4195 15.1537C73.4195 15.1537 65.3957 17.8282 66.2585 19.5538C66.2585 19.5538 70.5724 24.7304 74.0234 23.0049C74.0234 23.0049 75.749 34.2209 65.3957 35.0836Z" fill="#FDAB96"/>
<path d="M120.674 63.9946C109.708 65.4441 99.3634 69.6199 91.0895 77.6954C74.5847 93.7947 71.9705 118.539 74.0239 140.367C77.8459 180.969 96.732 222.632 120.035 255.788C165.434 320.366 249.33 329.451 320.776 310.333C443.211 277.547 477.8 214.643 477.8 214.565C485.97 199.665 493.33 186.163 497.091 169.183C504.442 135.95 500.62 100.05 487.842 68.6191C482.959 56.6007 475.815 44.2717 463.788 39.4057C455.161 35.9546 445.472 36.8778 436.464 39.0088C383.516 51.5276 343.484 96.6505 304.055 130.989C302.341 132.645 300.376 134.02 298.232 135.061C295.065 136.381 291.476 136.183 288.085 135.699C279.035 134.405 270.33 131.282 262.038 127.434C244.265 119.177 228.27 107.59 212.076 96.5814C195.881 85.5725 179.144 74.8483 160.551 68.645C148.067 64.4605 133.917 62.2691 120.674 63.9946Z" fill="#CBC7F7"/>
<path d="M215.35 222.635C203.272 215.94 191.46 208.572 179.761 201.264C161.393 189.789 143.525 175.269 120.618 182.628C120.618 182.628 92.0434 191.8 97.2718 216.552C97.2718 216.552 125.795 268.043 137.011 277.533C148.227 287.023 192.228 326.09 270.74 319.498C349.252 312.907 402.312 278.741 402.312 278.741C402.312 278.741 453.673 255.101 477.831 214.551C477.831 214.551 462.698 177.115 416.772 180.73C371.313 184.319 339.658 216.768 301.791 237.915C295.691 241.314 289.255 244.437 282.327 245.326C274.562 246.335 266.659 244.463 259.162 242.082C243.813 237.233 229.353 230.383 215.35 222.635Z" fill="#949AF6"/>
<path d="M174.969 342.237C174.969 342.237 251.755 333.609 278.501 333.609C305.247 333.609 378.738 334.472 389.445 342.237C400.151 350.002 257.795 350.002 257.795 350.002C257.795 350.002 201.715 350.002 174.969 342.237Z" fill="#F9F3E9"/>
<path d="M2.48487 37.0783H55.8989C55.8989 37.0783 57.6244 17.83 41.2318 22.1438C24.8392 26.4576 25.702 32.497 25.702 32.497C25.702 32.497 23.3639 26.9581 9.0074 29.2962C-5.34907 31.6343 2.48487 37.0783 2.48487 37.0783Z" fill="#CBC7F7"/>
<path d="M453.642 2.30072C453.642 2.30072 449.138 13.9826 467.783 21.5146C486.427 29.0466 490.741 30.7721 494.192 40.2626C497.643 49.753 501.957 67.8712 512.31 65.2829C522.663 62.6946 522.663 45.4392 522.663 45.4392C522.663 45.4392 518.738 7.47733 487.911 2.30072C457.084 -2.8759 453.642 2.30072 453.642 2.30072Z" fill="#CBC7F7"/>
<path d="M387.211 98.0642H443.455C443.455 98.0642 439.84 98.0642 428.624 89.4365C417.408 80.8088 409.643 93.7503 409.643 93.7503C409.643 93.7503 392.388 82.5343 387.211 98.0642Z" fill="#FF9072"/>
<path d="M76.6172 143.807H116.382C116.382 143.807 113.794 143.807 105.891 137.707C97.988 131.608 92.4662 140.787 92.4662 140.787C92.4662 140.787 80.2753 132.824 76.6172 143.807Z" fill="white"/>
<path d="M472.195 131.226H501.176C501.176 131.226 499.312 131.226 493.532 126.783C487.751 122.339 483.739 129.008 483.739 129.008C483.739 129.008 474.861 123.228 472.195 131.226Z" fill="white"/>
<path d="M227.6 236.117L282.498 261.267L251.162 320.237C251.162 320.237 212.338 317.528 190.622 308.745C168.906 299.962 187.593 308.314 187.593 308.314L227.6 236.117Z" fill="#F24EB6"/>
<path d="M335.015 306.249L297.484 255.096L347.525 222.311L394.028 283.507C394.028 283.507 353.564 304.783 335.015 306.249Z" fill="#652FEB"/>
<path d="M295.672 256.283L312.768 278.756L363.8 241.391L348.173 221.123L295.672 256.283Z" fill="#7747EE"/>
<path d="M369.863 125.248C369.863 125.248 368.741 136.033 364.35 142.503C361.699 146.595 360.485 151.451 360.898 156.308C361.761 162.347 361.382 168.723 358.224 174.167C355.636 178.688 351.443 182.389 348.414 186.686C340.727 197.609 331.28 212.759 339.787 225.856L340.459 226.951L304.715 250.35C304.715 250.35 298.348 221.999 294.465 217.564C290.583 213.13 289.289 120.934 289.289 120.934C289.366 112.168 288.426 105.404 289.289 97.6395C289.715 96.1585 290.379 94.7569 291.256 93.4895C294.206 89.469 297.235 103.239 297.485 104.386C301.799 123.954 303.826 129.709 303.826 129.709C303.826 129.709 308.753 139.484 309.995 116.62C311.237 93.757 311.289 90.3059 311.289 90.3059C311.289 90.3059 312.152 67.8739 316.466 67.0112C320.78 66.1484 322.505 86.7599 322.505 86.8548C322.505 90.6338 320.685 119.864 322.074 124.385C323.463 122.66 324.214 96.1987 324.481 93.9986C325.396 86.5184 326.517 77.7268 328.545 70.4622C329.476 67.1233 330.27 61.8345 332.065 59.8588C332.227 59.6999 332.42 59.5765 332.633 59.4963C332.845 59.4161 333.072 59.3809 333.299 59.3929C334.161 59.3929 334.808 60.2039 335.257 60.9631C341.296 71.187 338.708 86.6995 337.552 98.0622L336.31 110.141C336.154 111.616 334.239 124.032 335.015 125.239C336.888 121.253 339.329 106.017 339.761 102.376C340.287 97.8638 340.813 93.9295 341.486 89.4345C342.211 84.5858 341.728 78.7621 342.349 73.9047C342.349 73.9047 345.8 61.8259 350.114 67.8653C354.428 73.9047 352.702 101.513 352.702 101.513L350.977 116.612L345.731 136.818C345.731 136.818 340.554 162.77 346.594 152.417C348.833 148.594 350.661 144.545 352.046 140.338C354.359 133.306 356.17 127.681 361.537 122.366C365.972 118.027 369.526 118.553 369.863 125.248Z" fill="#FFBA94"/>
<path d="M210.342 145.516C210.342 145.516 202.577 139.476 206.891 136.888C211.205 134.3 222.671 136.888 222.671 136.888C222.671 136.888 234.517 146.378 239.685 151.124C244.853 155.869 242.454 128.226 242.454 128.226L243.006 73.5088C243.006 73.5088 243.558 61.43 251.159 65.5282C250.495 65.2349 250.935 62.5862 250.978 62.0771C251.151 59.8339 251.246 56.2707 254.265 56.2793C256.37 56.2793 258.467 58.1774 259.321 59.9978C259.528 60.4465 261.789 65.3902 261.444 65.5541C261.444 65.5541 267.716 57.9703 271.598 70.4805C274.42 79.5827 274.894 92.2913 274.894 92.2913C274.894 92.2913 278.207 75.6571 284.385 98.0891C288.569 113.248 291.537 128.709 295.135 144.006C298.733 159.303 303.65 174.884 303.806 190.776C303.926 203.174 301.217 217.91 291.727 226.875C287.724 230.636 282.883 232.051 279.76 236.736C275.86 242.62 273.962 249.902 272.582 256.735L238.382 241.059C238.382 241.059 249.995 212.811 240.504 186.928C231.014 161.045 224.974 159.32 224.974 159.32L210.342 145.516Z" fill="#FECCA7"/>
<path d="M92.6247 173.984L79.2031 160.562L65.7816 173.984L79.2031 187.406L92.6247 173.984Z" fill="#FF9072"/>
<path d="M446.306 30.262L437.266 39.3027L446.306 48.3435L455.347 39.3027L446.306 30.262Z" fill="#652FEB"/>
<path d="M393.682 178.222L384.531 187.373L393.682 196.524L402.833 187.373L393.682 178.222Z" fill="#F24EB6"/>
<path d="M199.697 68.3066C214.23 68.3066 226.012 56.5253 226.012 41.9922C226.012 27.4591 214.23 15.6777 199.697 15.6777C185.164 15.6777 173.383 27.4591 173.383 41.9922C173.383 56.5253 185.164 68.3066 199.697 68.3066Z" fill="#CBC7F7"/>
<path d="M268.144 51.4911L251.156 7.7832" stroke="#454FDB" stroke-width="2" stroke-miterlimit="10"/>
<path d="M278.5 41.991V0" stroke="#454FDB" stroke-width="2" stroke-miterlimit="10"/>
<path d="M293.297 47.6086L301.01 7.7832" stroke="#454FDB" stroke-width="2" stroke-miterlimit="10"/>
<path d="M312.289 47.6034L328.104 14.9648" stroke="#454FDB" stroke-width="2" stroke-miterlimit="10"/>
<path d="M328.102 51.4887L352.647 29.6348" stroke="#454FDB" stroke-width="2" stroke-miterlimit="10"/>
<path d="M306.977 142.074C306.977 142.074 310.428 151.565 309.565 166.232" stroke="#883A3C" stroke-width="2" stroke-miterlimit="10"/>
<path d="M322.5 182.63C322.5 182.63 325.088 161.924 335.442 158.473" stroke="#883A3C" stroke-width="2" stroke-miterlimit="10"/>
<path d="M252.617 79.9512C252.617 79.9512 258.657 132.58 256.931 146.384" stroke="#883A3C" stroke-width="2" stroke-miterlimit="10"/>
<path d="M261.836 73.9102C261.836 73.9102 274.182 132.578 273.319 148.108" stroke="#883A3C" stroke-width="2" stroke-miterlimit="10"/>
<path d="M277.641 105.844C277.641 105.844 283.128 140.355 284.267 154.159" stroke="#883A3C" stroke-width="2" stroke-miterlimit="10"/>
<path d="M227.036 235.771L214.336 257.509L271.969 282.664L283.689 261.906L227.036 235.771Z" fill="#FF5BC3"/>
<circle cx="228.721" cy="251.434" r="4.22898" fill="#F24EB6"/>
<circle cx="348.352" cy="237.034" r="4.22898" transform="rotate(103.25 348.352 237.034)" fill="#652FEB"/>
<circle cx="237.167" cy="256.715" r="2.64311" fill="#F24EB6"/>
<circle cx="341.282" cy="244.049" r="2.64311" transform="rotate(103.25 341.282 244.049)" fill="#652FEB"/>
</svg>
