<svg width="838" height="584" viewBox="0 0 838 584" fill="none" xmlns="http://www.w3.org/2000/svg">
<path d="M415.542 575.658C633.476 575.658 810.147 547.861 810.147 513.572C810.147 479.283 633.476 451.486 415.542 451.486C197.608 451.486 20.937 479.283 20.937 513.572C20.937 547.861 197.608 575.658 415.542 575.658Z" fill="#242426"/>
<path d="M415.558 576.296C310.123 576.296 210.992 569.835 136.433 558.104C93.0661 551.279 20.3169 536.42 20.3169 513.574C20.3169 490.727 93.0661 475.868 136.433 469.044C210.992 457.313 310.123 450.852 415.558 450.852C520.993 450.852 620.123 457.313 694.683 469.044C738.05 475.868 810.799 490.723 810.799 513.574C810.799 536.424 738.05 551.279 694.683 558.104C620.107 569.831 520.977 576.296 415.558 576.296ZM415.558 452.12C310.188 452.12 211.127 458.577 136.616 470.296C63.5039 481.799 21.5729 497.572 21.5729 513.574C21.5729 529.575 63.4999 545.357 136.616 556.847C211.115 568.57 310.176 575.027 415.558 575.027C520.94 575.027 619.989 568.57 694.5 556.847C767.612 545.345 809.543 529.571 809.543 513.574C809.543 497.576 767.612 481.799 694.5 470.296C619.973 458.577 520.911 452.12 415.558 452.12Z" fill="#242426"/>
<path d="M294.637 80.4829C293.831 77.6885 296.277 75.0432 298.631 73.3293C300.984 71.6155 303.754 69.6873 303.967 66.8092C304.18 63.931 301.632 61.4719 300.567 58.6962C299.344 55.5013 300.159 51.8779 301.493 48.711C302.828 45.544 304.597 42.5634 305.403 39.2381C307.201 31.7864 303.467 23.6921 297.639 18.6809C291.811 13.6696 284.205 11.2292 276.663 9.77617C269.121 8.3231 261.079 8.47213 253.658 6.52539C261.03 10.0375 266.74 16.313 269.565 24.0071C272.389 31.7011 272.104 40.2015 268.769 47.6864C267.518 50.4807 265.869 53.0981 264.813 55.967C263.757 58.8359 263.349 62.1426 264.637 64.9183C266.712 69.4172 272.179 70.9355 276.941 72.2302C281.703 73.5249 287.133 75.956 288.059 80.7623C290.005 80.3898 292.692 80.8275 294.637 80.4829Z" fill="#E79052"/>
<path d="M288.104 82.3856C287.769 82.3855 287.445 82.2695 287.187 82.0573C286.928 81.8452 286.751 81.5502 286.687 81.2225C286.024 77.9565 282.601 75.4627 276.502 73.7785C271.633 72.4665 265.562 70.8195 263.183 65.6925C261.523 62.1473 262.335 58.2485 263.314 55.6338C264 53.8911 264.798 52.1942 265.702 50.5533C266.261 49.4646 266.83 48.3852 267.334 47.2686C270.537 40.1364 270.811 32.036 268.099 24.7042C265.386 17.3724 259.901 11.393 252.822 8.04804C252.505 7.88725 252.258 7.61637 252.128 7.28651C251.997 6.95666 251.993 6.59063 252.114 6.2575C252.236 5.92436 252.476 5.64716 252.788 5.47819C253.1 5.30922 253.464 5.26017 253.81 5.34029C258.059 6.32462 262.377 6.97794 266.728 7.29434C270.094 7.62001 273.573 7.95499 276.931 8.59703C286.584 10.458 293.504 13.3798 298.709 17.8183C305.554 23.6618 308.809 32.2875 306.991 39.7874C306.337 42.1009 305.443 44.3401 304.323 46.4684C303.848 47.4733 303.391 48.4689 302.943 49.4832C301.451 53.0563 301.152 56.0525 302.01 58.3788C302.403 59.2922 302.874 60.1702 303.419 61.0028C304.491 62.7521 305.713 64.7248 305.536 67.1161C305.265 70.6055 302.225 72.8015 299.772 74.5601C298.298 75.6302 295.416 78.003 296.041 80.292C296.104 80.4896 296.124 80.6985 296.099 80.9043C296.073 81.1101 296.004 81.3081 295.895 81.4847C295.786 81.6614 295.64 81.8125 295.468 81.9278C295.295 82.0431 295.099 82.12 294.894 82.153C293.703 82.3033 292.502 82.35 291.303 82.2926C290.295 82.2345 289.283 82.2687 288.281 82.3949L288.104 82.3856ZM290.184 79.3522H291.443C292.012 79.3522 292.581 79.3522 293.122 79.3522C293.206 76.9701 294.847 74.5415 297.897 72.3456C300.275 70.6241 302.56 69.0144 302.672 66.8556C302.784 65.4133 301.945 64.0641 300.984 62.4729C300.346 61.4942 299.796 60.4603 299.343 59.3837C298.168 56.341 298.475 52.619 300.275 48.3387C300.714 47.2779 301.208 46.2264 301.712 45.1936C302.721 43.2452 303.53 41.2001 304.127 39.0895C305.676 32.7249 302.719 25.0483 296.778 19.9863C291.975 15.8922 285.483 13.1658 276.343 11.4165C273.116 10.793 269.703 10.4859 266.401 10.1417C264.536 9.95556 262.531 9.76946 260.581 9.51823C266.245 14.0556 270.24 20.3382 271.943 27.3828C273.646 34.4273 272.96 41.8363 269.992 48.4503C269.47 49.6228 268.873 50.758 268.285 51.8932C267.437 53.4249 266.689 55.0101 266.047 56.6387C265.403 58.3694 264.517 61.6913 265.823 64.4735C267.688 68.3723 272.753 69.7681 277.267 70.987C283.898 72.7829 287.815 75.5279 289.186 79.3615C289.503 79.3522 289.839 79.3522 290.184 79.3522Z" fill="#242426"/>
<path d="M422.781 286.187C431.177 290.617 424.277 286.979 422.446 285.669C421.011 284.637 419.616 283.075 418.123 282.039C417.838 281.721 417.544 281.411 417.267 281.089C415.836 279.424 414.49 277.691 413.189 275.912C412.721 275.227 412.304 274.509 411.941 273.763C412.161 274.277 412.422 274.889 412.728 275.615C411.872 273.575 410.493 271.654 409.49 269.68C407.418 265.601 405.579 261.412 403.883 257.166C396.167 237.827 391.171 217.514 383.79 198.045C367.608 155.379 339.485 113.994 295.144 97.3277C280.353 91.7681 261.353 98.4576 255.832 114.084C250.481 129.233 256.786 147.466 272.588 153.405C274.811 154.241 277.005 155.122 279.162 156.118C279.684 156.358 280.198 156.623 280.716 156.876C282.205 158.182 284.68 159.193 286.234 160.27C288.18 161.63 290.083 163.046 291.943 164.52C293.574 165.826 295.12 167.204 296.686 168.599C297.171 169.097 297.665 169.594 298.142 170.1C301.414 173.601 304.494 177.278 307.366 181.113C308.805 183.017 310.194 184.967 311.534 186.963C312.203 187.952 312.86 188.952 313.504 189.961L313.789 190.418C315.983 194.468 319.784 201.953 320.221 202.871C325.114 213.137 329.156 223.779 332.863 234.527C339.331 253.38 344.135 272.992 352.727 291.049C363.33 313.361 378.305 330.729 400.237 342.297C406.762 345.74 417.259 344.745 423.715 341.914C430.366 338.981 437.087 332.532 439.55 325.541C445.459 308.74 437.755 294.092 422.781 286.187Z" fill="#F24E89"/>
<path d="M410.628 345.113C406.774 345.113 402.977 344.44 399.923 342.828C379.015 331.795 363.387 314.941 352.14 291.291C346.174 278.76 341.973 265.292 337.907 252.268C336.105 246.488 334.237 240.508 332.247 234.704C327.945 222.177 323.94 212.139 319.646 203.112C319.238 202.227 315.404 194.701 313.235 190.688L312.966 190.28C312.327 189.284 311.674 188.292 311.008 187.302C309.658 185.307 308.26 183.346 306.861 181.477C304.003 177.653 300.937 173.989 297.677 170.501C297.326 170.126 296.971 169.759 296.612 169.395L295.687 168.531C294.345 167.352 292.959 166.132 291.543 164.998C289.692 163.514 287.792 162.094 285.891 160.777C285.192 160.318 284.471 159.895 283.73 159.508C282.547 158.916 281.427 158.207 280.386 157.391L279.917 157.163C279.582 157 279.252 156.832 278.918 156.677C277.034 155.808 274.958 154.952 272.393 153.985C257.157 148.275 249.47 130.258 255.265 113.856C257.732 106.873 263.038 101.187 270.211 97.8466C278.098 94.1755 287.514 93.7676 295.397 96.7167C322.349 106.869 359.688 132.632 384.402 197.83C387.86 206.942 390.837 216.389 393.72 225.522C396.983 235.911 400.388 246.659 404.49 256.93C406.338 261.555 408.161 265.63 410.077 269.395C410.485 270.178 410.95 270.982 411.411 271.757C411.688 272.23 411.97 272.707 412.227 273.197C412.348 273.259 412.446 273.357 412.508 273.478C412.855 274.194 413.255 274.884 413.703 275.542C415.012 277.365 416.366 279.091 417.724 280.673C417.891 280.869 418.066 281.057 418.238 281.244L418.523 281.563C419.317 282.148 420.074 282.781 420.791 283.459C421.428 284.061 422.098 284.627 422.797 285.156C423.613 285.727 425.46 286.788 426.467 287.367C426.716 287.506 426.92 287.624 427.083 287.734C427.364 287.926 427.491 288.089 427.491 288.297C440.435 297.173 445.267 311.139 440.108 325.721C437.702 332.529 431.202 339.259 423.931 342.465C419.715 344.218 415.193 345.118 410.628 345.113ZM284.305 96.0437C279.621 96.04 274.992 97.0532 270.737 99.0132C263.878 102.211 258.804 107.636 256.464 114.297C250.901 130.05 258.246 147.337 272.841 152.81C275.443 153.789 277.547 154.658 279.464 155.543C279.807 155.702 280.149 155.874 280.492 156.041L281.026 156.306C281.077 156.331 281.125 156.363 281.169 156.4C282.159 157.175 283.225 157.849 284.35 158.411C285.131 158.817 285.891 159.263 286.625 159.749C288.55 161.083 290.475 162.522 292.335 164.024C293.77 165.178 295.169 166.406 296.519 167.593L297.514 168.523C297.881 168.894 298.244 169.269 298.599 169.648C301.889 173.159 304.985 176.848 307.872 180.698C309.287 182.579 310.698 184.557 312.056 186.572C312.728 187.567 313.388 188.571 314.038 189.582L314.271 189.949L314.348 190.08C316.579 194.204 320.355 201.644 320.792 202.561C325.11 211.633 329.127 221.733 333.434 234.288C335.432 240.108 337.3 246.117 339.106 251.888C343.16 264.867 347.348 278.291 353.269 290.744C364.399 314.133 379.846 330.804 400.506 341.703C406.778 345.011 417.084 344.093 423.429 341.295C430.293 338.268 436.663 331.689 438.926 325.289C444.415 309.76 438.11 294.991 422.475 286.743C422.38 286.692 422.299 286.618 422.241 286.527C422.182 286.436 422.148 286.332 422.14 286.225L422.071 286.176C421.331 285.621 420.623 285.024 419.95 284.389C419.257 283.732 418.522 283.119 417.752 282.554C417.712 282.526 417.675 282.493 417.642 282.456L417.316 282.093C417.132 281.897 416.949 281.685 416.778 281.493C415.391 279.862 414.017 278.128 412.7 276.272C412.689 276.263 412.681 276.252 412.675 276.24C412.565 276.226 412.46 276.183 412.371 276.116C412.282 276.049 412.212 275.959 412.169 275.856C412.169 275.856 412.169 275.856 412.169 275.824C411.63 274.643 411.017 273.497 410.334 272.393C409.865 271.602 409.38 270.762 408.964 269.946C407.031 266.148 405.188 262.037 403.328 257.374C399.209 247.051 395.812 236.282 392.525 225.869C389.65 216.752 386.677 207.326 383.231 198.246C358.677 133.501 321.676 107.942 294.961 97.9037C291.549 96.6502 287.94 96.0202 284.305 96.0437Z" fill="#242426"/>
<path d="M411.961 273.763C410.33 269.953 410.917 271.724 411.961 273.763V273.763Z" fill="#FC328E"/>
<path d="M411.961 274.396C411.844 274.397 411.729 274.365 411.629 274.303C411.529 274.242 411.447 274.154 411.394 274.049C410.138 271.569 410.22 271.447 410.42 271.157C410.484 271.063 410.572 270.988 410.676 270.94C410.779 270.892 410.894 270.873 411.007 270.884C411.415 270.925 411.415 270.925 412.544 273.511C412.588 273.607 412.606 273.713 412.597 273.819C412.589 273.924 412.554 274.025 412.496 274.114C412.438 274.202 412.358 274.274 412.265 274.323C412.171 274.373 412.067 274.398 411.961 274.396Z" fill="#242426"/>
<path d="M293.027 78.6C292.758 78.9273 292.416 79.1828 292.029 79.3443C291.643 79.5059 291.224 79.5687 290.809 79.5274C290.393 79.4861 289.994 79.3419 289.645 79.1072C289.296 78.8726 289.008 78.5545 288.805 78.1803C288.214 77.1525 287.454 76.2374 286.558 75.4754C284.493 73.694 282.009 72.5841 279.735 71.0171C277.46 69.4502 275.477 67.165 275.286 64.4042C275.086 61.4289 277.033 58.808 279.098 56.6814C281.163 54.5548 283.547 52.6428 284.639 49.882C286.203 45.9273 284.729 41.5996 282.819 37.6822C282.647 37.3195 282.559 36.9213 282.561 36.5181C282.564 36.115 282.656 35.7178 282.832 35.3572C283.008 34.9967 283.262 34.6823 283.576 34.4386C283.889 34.1948 284.252 34.0281 284.639 33.9514C285.581 33.784 286.548 33.8362 287.467 34.1043C288.387 34.3723 289.236 34.8492 289.952 35.4997C292.172 37.6169 292.972 40.928 292.909 44.0339C292.845 47.1398 291.999 50.1805 291.489 53.2397C290.98 56.299 290.762 59.5448 291.862 62.4455C292.963 65.3463 295.156 67.5288 295.893 70.4482C296.612 73.5168 295.038 76.1003 293.027 78.6Z" fill="#FDDC68"/>
<path d="M291.173 80.7641H290.821C290.157 80.7069 289.517 80.4891 288.955 80.1293C288.392 79.7696 287.925 79.2785 287.592 78.6979C287.076 77.8175 286.412 77.0334 285.631 76.3803C284.411 75.4158 283.111 74.5594 281.745 73.8208C280.745 73.2437 279.746 72.6667 278.802 72.0151C275.684 69.8558 273.852 67.1287 273.658 64.3272C273.464 61.5256 274.861 58.5566 277.96 55.4944C278.33 55.1221 278.719 54.7498 279.098 54.3868C280.838 52.7301 282.466 51.1665 283.271 49.1933C284.733 45.5727 283.058 41.4215 281.421 38.2105C281.128 37.6343 280.975 36.9963 280.975 36.349C280.975 35.7017 281.128 35.0637 281.421 34.4875C281.698 33.9218 282.107 33.4318 282.613 33.0591C283.118 32.6864 283.706 32.4421 284.326 32.3468C285.497 32.1382 286.699 32.1972 287.844 32.5195C288.99 32.8417 290.048 33.4189 290.941 34.2083C293.264 36.3862 294.494 39.7927 294.402 43.8229C294.293 46.1261 293.984 48.4152 293.477 50.6639C293.301 51.5108 293.134 52.3671 292.986 53.2234C292.348 56.8626 292.44 59.4594 293.282 61.6001C293.776 62.7327 294.367 63.8196 295.05 64.8484C296.095 66.3449 296.9 67.9968 297.437 69.7441C298.417 73.5136 296.511 76.5199 294.309 79.2098C293.94 79.6931 293.465 80.0846 292.921 80.3541C292.377 80.6236 291.779 80.7639 291.173 80.7641ZM285.621 35.1576C285.333 35.1593 285.045 35.1842 284.761 35.2321C284.598 35.2618 284.445 35.3295 284.313 35.4297C284.181 35.5299 284.075 35.6599 284.002 35.8092C283.918 35.9815 283.874 36.1709 283.874 36.363C283.874 36.555 283.918 36.7444 284.002 36.9167C285.899 40.6397 287.833 45.5913 285.936 50.2916C284.9 52.8511 282.957 54.7033 281.078 56.4996L279.977 57.5607C277.516 59.9992 276.397 62.1492 276.535 64.1317C276.711 66.7006 279.052 68.6831 280.431 69.6324C281.356 70.2467 282.281 70.7866 283.206 71.3171C284.721 72.1404 286.161 73.0966 287.509 74.1745C288.55 75.0412 289.433 76.0837 290.118 77.2552C290.211 77.4273 290.343 77.5744 290.504 77.6845C290.665 77.7946 290.85 77.8644 291.043 77.8881C291.219 77.8984 291.394 77.8666 291.555 77.7954C291.716 77.7242 291.857 77.6157 291.968 77.4786C293.948 75.0587 295.142 72.9552 294.531 70.5818C294.062 69.1241 293.376 67.7464 292.496 66.4958C291.706 65.3229 291.031 64.0761 290.479 62.7728C289.146 59.3105 289.554 55.634 290.025 52.8046C290.183 51.9297 290.359 51.0455 290.534 50.1706C291.03 48.0929 291.34 45.9747 291.46 43.8415C291.534 40.6956 290.608 37.9964 288.915 36.3955C288.014 35.5795 286.843 35.1285 285.631 35.1297L285.621 35.1576Z" fill="#242426"/>
<path d="M300.12 79.7366L284.405 82.0547C283.989 82.1162 283.701 82.5039 283.762 82.9206L285.312 93.4285C285.373 93.8453 285.761 94.1333 286.177 94.0718L301.892 91.7537C302.308 91.6922 302.596 91.3045 302.535 90.8878L300.985 80.3799C300.924 79.9631 300.536 79.6751 300.12 79.7366Z" fill="#242426"/>
<path d="M285.155 89.3969C285.553 86.3342 283.394 83.5284 280.332 83.1301C277.27 82.7318 274.465 84.8917 274.066 87.9544C273.668 91.0172 275.828 93.8229 278.89 94.2212C281.952 94.6195 284.757 92.4596 285.155 89.3969Z" fill="#242426"/>
<path d="M393.732 381.134C383.749 344.611 358.016 310.376 323.772 293.31C312.243 287.563 299.854 283.206 286.788 283.366C272.776 283.537 260.129 288.542 249.168 297.014C231.297 310.821 220.511 331.542 212.085 352.035C203.366 373.245 198.383 408.732 195.916 431.452C195.1 438.794 199.929 448.225 204.932 453.234C210.275 458.573 219.039 462.615 226.709 462.252C257.173 460.886 257.524 416.445 262.809 394.921C265.855 382.517 272.282 347.222 289.19 345.876C308.846 344.313 326.011 372.686 331.109 388.423C330.754 387.236 330.416 386.045 330.057 384.862C335.815 403.691 348.995 426.537 372.224 419.019C388.121 413.876 398.291 397.784 393.732 381.134Z" fill="#F24E89"/>
<path d="M225.792 462.908C218.525 462.908 210.083 459.277 204.484 453.681C199.403 448.595 194.452 439.054 195.284 431.385C197.992 406.483 203 372.465 211.498 351.793C218.925 333.727 229.874 311.122 248.78 296.511C260.395 287.537 273.18 282.899 286.78 282.728C298.178 282.573 310.066 285.767 324.054 292.738C357.009 309.184 383.941 342.97 394.352 380.974C398.801 397.228 389.173 414.209 372.428 419.63C365.124 421.996 358.289 421.559 352.107 418.337C340.807 412.447 334.163 398.676 330.734 388.936C330.631 388.856 330.555 388.749 330.514 388.626C328.291 381.769 322.932 370.438 315.131 361.077C309.206 353.967 299.895 345.674 289.251 346.515C274.399 347.698 267.637 376.94 264.375 390.975C264.024 392.509 263.702 393.888 263.417 395.054C262.413 399.133 261.582 404.089 260.701 409.331C256.99 431.443 251.904 461.729 226.73 462.859C226.424 462.899 226.106 462.908 225.792 462.908ZM287.506 283.992H286.796C273.477 284.16 260.945 288.708 249.555 297.51C230.886 311.937 220.038 334.351 212.673 352.27C204.231 372.816 199.244 406.704 196.564 431.52C195.802 438.536 200.459 447.836 205.402 452.784C210.919 458.298 219.675 461.933 226.702 461.619C250.852 460.534 255.636 432.042 259.477 409.151C260.362 403.873 261.198 398.893 262.214 394.769C262.499 393.602 262.817 392.228 263.172 390.69C266.708 375.263 273.363 346.498 289.137 345.242C308.215 343.729 324.168 369.084 330.261 384.265C330.356 384.297 330.442 384.351 330.512 384.422C330.583 384.492 330.637 384.578 330.669 384.673C333.523 394.022 340.195 410.685 352.69 417.199C358.559 420.258 365.067 420.666 372.033 418.423C388.133 413.214 397.394 396.91 393.125 381.304C382.815 343.647 356.132 310.147 323.491 293.88C309.98 287.158 298.517 283.992 287.506 283.992Z" fill="#242426"/>
<path d="M274.905 96.1819C277.033 93.9263 275.467 89.8106 272.617 88.5869C269.766 87.3632 266.43 88.3096 263.743 89.8555C255.489 94.5911 251.101 105.213 253.646 114.39C253.992 115.655 255.11 117.074 256.378 117.421C257.646 117.768 258.988 117.576 260.272 117.327C265.35 116.332 270.427 114.288 273.848 110.393C277.27 106.498 277.47 100.673 274.905 96.1819Z" fill="#F24E89"/>
<path d="M257.891 118.244C257.324 118.25 256.759 118.179 256.211 118.032C254.649 117.624 253.409 115.923 253.034 114.557C250.42 105.061 254.881 94.2234 263.445 89.3042C265.435 88.158 269.314 86.4489 272.886 88.003C273.784 88.4194 274.571 89.0403 275.186 89.8159C275.801 90.5915 276.225 91.5003 276.426 92.4695C276.584 93.1181 276.599 93.7933 276.47 94.4484C276.341 95.1035 276.072 95.7226 275.679 96.2629C278.232 101.088 277.719 107.019 274.334 110.837C271.222 114.361 266.536 116.756 260.403 117.955C259.577 118.132 258.736 118.229 257.891 118.244ZM269.774 88.6597C267.519 88.6597 265.35 89.6632 264.065 90.4055C256.007 95.027 251.794 105.265 254.278 114.218C254.559 115.242 255.501 116.519 256.565 116.809C257.744 117.131 259.045 116.923 260.175 116.703C266.027 115.56 270.472 113.301 273.396 109.989C276.499 106.468 276.903 100.921 274.374 96.4954C274.307 96.3771 274.28 96.2405 274.296 96.1054C274.312 95.9703 274.371 95.844 274.464 95.7449C274.826 95.3412 275.081 94.854 275.207 94.327C275.333 93.8 275.326 93.25 275.186 92.7265C275.024 91.9584 274.688 91.238 274.203 90.6212C273.717 90.0043 273.097 89.5076 272.388 89.1696C271.561 88.8217 270.672 88.6481 269.774 88.6597Z" fill="#242426"/>
<path d="M312.921 168.702L287.453 172.459C287.241 172.488 287.027 172.433 286.855 172.306C286.683 172.178 286.569 171.989 286.535 171.778L274.754 91.8873C274.724 91.675 274.78 91.4596 274.908 91.2879C275.036 91.1162 275.227 91.0018 275.439 90.9695L300.907 87.2128C301.118 87.1835 301.333 87.2384 301.505 87.3658C301.676 87.4932 301.791 87.6828 301.824 87.894L313.606 167.784C313.635 167.997 313.58 168.212 313.451 168.384C313.323 168.555 313.132 168.67 312.921 168.702Z" fill="#67518B"/>
<path d="M288.774 172.71C288.057 172.709 287.363 172.451 286.82 171.983C286.277 171.514 285.92 170.866 285.813 170.157L274.533 93.6439C274.42 92.8593 274.622 92.0619 275.095 91.4259C275.568 90.7899 276.274 90.3672 277.058 90.2502L299.149 86.987C299.933 86.8715 300.731 87.0721 301.367 87.5448C302.003 88.0175 302.426 88.7236 302.542 89.5078L313.826 166.013C313.939 166.798 313.737 167.596 313.264 168.232C312.791 168.869 312.086 169.292 311.301 169.41L289.21 172.674C289.066 172.696 288.92 172.708 288.774 172.71ZM299.585 87.9089C299.485 87.9089 299.386 87.9171 299.287 87.9334L277.196 91.1965C276.931 91.2354 276.676 91.3263 276.446 91.4638C276.216 91.6014 276.015 91.7829 275.856 91.9981C275.696 92.2133 275.58 92.4579 275.515 92.7179C275.449 92.9779 275.436 93.2482 275.475 93.5134L286.755 170.026C286.794 170.292 286.885 170.547 287.023 170.777C287.16 171.007 287.342 171.207 287.557 171.367C287.772 171.527 288.016 171.643 288.276 171.708C288.536 171.774 288.807 171.787 289.072 171.748L311.163 168.485C311.428 168.446 311.683 168.355 311.913 168.217C312.143 168.08 312.344 167.898 312.503 167.683C312.663 167.468 312.779 167.223 312.844 166.963C312.91 166.703 312.923 166.433 312.884 166.168L301.6 89.6506C301.528 89.167 301.286 88.7251 300.916 88.4054C300.546 88.0857 300.074 87.9095 299.585 87.9089Z" fill="#242426"/>
<path d="M560.143 464.838C559.274 448.114 544.703 434.939 524.998 434.543L240.893 428.808L160.289 427.177C141.897 426.806 124.308 441.376 125.144 457.471C126.013 474.195 140.58 487.366 160.289 487.766L444.39 493.501L524.998 495.132C543.39 495.499 560.979 480.929 560.143 464.838Z" fill="#F24E89"/>
<path d="M525.687 495.771H524.986L160.277 488.429C140.462 488.021 125.418 475.034 124.508 457.531C124.154 450.707 127.025 443.785 132.591 438.038C136.204 434.364 140.52 431.456 145.28 429.486C150.041 427.516 155.15 426.525 160.302 426.572L525.01 433.914C544.826 434.322 559.866 447.309 560.775 464.808C561.13 471.632 558.263 478.558 552.696 484.301C549.172 487.898 544.971 490.763 540.336 492.732C535.701 494.7 530.723 495.733 525.687 495.771ZM159.596 427.808C154.73 427.846 149.919 428.846 145.44 430.749C140.961 432.653 136.902 435.422 133.496 438.899C128.195 444.389 125.434 450.972 125.773 457.441C126.645 474.259 141.167 486.749 160.298 487.132L525.006 494.474C534.883 494.707 544.866 490.53 551.779 483.392C557.08 477.901 559.841 471.314 559.527 464.849C558.65 448.027 544.132 435.542 525.002 435.154L160.269 427.816L159.596 427.808Z" fill="#242426"/>
<path d="M314.319 141.315C325.236 132.496 327.589 118.689 318.805 107.46C308.838 94.6804 289.765 89.7612 274.668 95.0924C261.765 99.6486 251.745 112.318 251.655 126.007C251.582 137.428 260.521 152.328 272.861 153.85C285.136 155.347 302.811 150.615 314.319 141.315Z" fill="#F24E89"/>
<path d="M277.743 154.754C276.088 154.759 274.435 154.662 272.792 154.465C260.443 152.939 250.954 137.904 251.031 125.986C251.121 112.492 260.978 99.244 274.472 94.4757C290.128 88.9487 309.409 94.3492 319.331 107.051C328.075 118.26 326.182 132.557 314.731 141.808C304.968 149.697 290.152 154.754 277.743 154.754ZM287.445 93.5702C283.172 93.5526 278.927 94.2616 274.892 95.6667C261.887 100.26 252.385 113.01 252.3 125.986C252.226 137.382 261.231 151.752 272.947 153.196C285.834 154.787 303.076 149.578 313.92 140.813C324.804 132.022 326.611 118.456 318.316 107.826C311.269 98.7953 299.332 93.5783 287.445 93.5783V93.5702Z" fill="#242426"/>
<path d="M349.256 434.938C382.256 462.556 444.309 476.135 473.495 482.604C524.737 493.981 587.148 489.453 637.692 475.287C688.236 461.121 747.393 439.853 771.572 393.243C795.751 346.633 798.862 274.582 766.315 233.389C733.768 192.195 652.259 177.319 608.146 205.774C618.831 185.106 606.515 153.396 588.424 138.749C570.334 124.101 545.706 120.063 522.486 118.599C484.616 116.209 453.541 129.29 425.305 154.644C403.132 174.554 380.14 213.133 376.07 242.66C372 272.188 376.335 291.024 379.222 320.686C359.688 333.454 344.599 348.57 334.163 369.446C320.318 397.195 329.669 418.545 349.256 434.938Z" fill="#F24E89"/>
<path d="M537.024 489.694C514.534 489.694 492.879 487.557 473.357 483.225L472.505 483.037C443.016 476.511 381.649 462.875 348.849 435.424C326.248 416.497 321.105 394.202 333.588 369.145C343.339 349.603 357.649 334.09 378.545 320.353C377.921 313.985 377.236 308.161 376.572 302.523C374.157 281.937 372.245 265.674 375.434 242.563C379.765 211.126 403.98 172.927 424.872 154.16C454.537 127.524 486.472 115.683 522.518 117.951C543.358 119.276 569.71 122.776 588.824 138.276C606.531 152.626 618.713 183.251 609.647 204.106C654.176 177.185 734.123 191.641 766.813 233.014C782.024 252.267 790.555 280.065 790.845 311.297C791.106 340.127 784.287 370.108 772.139 393.553C748.237 439.67 690.846 461.068 637.863 475.916C605.021 485.014 571.103 489.649 537.024 489.694ZM349.664 434.453C382.228 461.705 443.387 475.275 472.778 481.797L473.63 481.985C521.784 492.676 583.05 489.939 637.521 474.676C690.242 459.898 747.332 438.634 771.009 392.95C800.906 335.269 791.848 266.727 765.818 233.781C750.566 214.479 722.769 199.64 691.458 194.089C659.543 188.431 629.299 192.885 608.489 206.325C608.371 206.401 608.232 206.436 608.092 206.424C607.953 206.413 607.821 206.355 607.718 206.26C607.615 206.166 607.545 206.04 607.52 205.902C607.495 205.764 607.516 205.622 607.579 205.497C618.089 185.172 605.924 153.764 588.029 139.259C569.196 124 543.088 120.549 522.449 119.248C486.285 116.972 455.536 128.368 425.729 155.143C405 173.759 380.992 211.624 376.698 242.771C373.533 265.727 375.434 281.929 377.844 302.417C378.517 308.173 379.218 314.124 379.854 320.65C379.865 320.766 379.844 320.881 379.794 320.986C379.744 321.09 379.666 321.178 379.569 321.242C358.677 334.906 344.428 350.321 334.71 369.753C322.537 394.173 327.561 415.951 349.664 434.453Z" fill="#242426"/>
<path d="M513.314 357.863C511.112 357.508 508.726 357.602 507.062 358.446C505.398 359.29 504.693 361.004 505.839 362.37C506.769 363.475 508.604 364.112 510.353 364.524C512.221 364.965 514.123 365.245 516.038 365.36C517.547 365.45 519.125 365.421 520.32 364.907C521.515 364.393 522.143 363.475 522.037 362.496C521.76 359.804 516.548 358.385 513.314 357.863Z" fill="#242426"/>
<path d="M497.242 265.425C493.487 264.149 489.747 262.745 486.077 261.24C475.252 256.984 464.738 251.978 454.61 246.258C450.087 243.742 445.638 241.062 441.275 238.268C434.752 241.733 429.364 247.002 425.753 253.447C422.143 259.891 420.464 267.239 420.915 274.613C421.367 281.986 423.93 289.074 428.3 295.03C432.669 300.986 438.66 305.558 445.557 308.201C451.93 310.656 458.842 311.369 465.583 310.268C472.323 309.168 478.649 306.292 483.911 301.937C489.173 297.582 493.181 291.905 495.524 285.488C497.867 279.072 498.46 272.147 497.242 265.425Z" fill="white"/>
<path d="M459.365 311.415C450.638 311.405 442.165 308.479 435.291 303.102C428.417 297.725 423.536 290.205 421.424 281.735C419.311 273.266 420.088 264.334 423.632 256.357C427.175 248.381 433.282 241.817 440.981 237.708C441.08 237.655 441.191 237.629 441.303 237.633C441.415 237.638 441.523 237.672 441.617 237.733C446.344 240.743 450.695 243.349 454.92 245.707C465.029 251.409 475.521 256.401 486.321 260.648C489.992 262.153 493.731 263.557 497.459 264.825C497.564 264.863 497.657 264.927 497.728 265.013C497.8 265.098 497.848 265.201 497.867 265.311C498.874 270.946 498.635 276.734 497.166 282.267C495.697 287.801 493.034 292.945 489.364 297.338C485.694 301.732 481.106 305.268 475.924 307.697C470.741 310.127 465.089 311.392 459.365 311.403V311.415ZM441.25 239.001C435.135 242.328 430.055 247.276 426.568 253.301C423.08 259.326 421.32 266.196 421.481 273.157C421.642 280.117 423.717 286.899 427.478 292.757C431.24 298.615 436.543 303.322 442.805 306.363C449.067 309.404 456.045 310.66 462.974 309.994C469.903 309.327 476.514 306.764 482.082 302.585C487.649 298.406 491.958 292.774 494.535 286.306C497.112 279.839 497.856 272.786 496.688 265.922C493.054 264.699 489.404 263.308 485.84 261.843C474.991 257.571 464.452 252.549 454.3 246.813C450.149 244.5 445.875 241.942 441.25 239.001Z" fill="#242426"/>
<path d="M488.095 283.123C486.756 286.614 484.719 289.796 482.11 292.473C479.5 295.151 476.373 297.269 472.918 298.697C469.463 300.126 465.754 300.836 462.015 300.783C458.277 300.73 454.589 299.916 451.176 298.391C438.534 292.754 431.976 278.172 436.177 264.964C437.603 260.467 440.159 256.41 443.601 253.184C447.042 249.957 451.254 247.668 455.833 246.535C465.961 252.255 476.476 257.261 487.3 261.517C488.882 264.879 489.767 268.526 489.904 272.239C490.041 275.952 489.425 279.654 488.095 283.123Z" fill="#242426"/>
<path d="M509.154 269.211C505.162 268.04 501.169 266.764 497.242 265.426L509.154 269.211Z" fill="white"/>
<path d="M509.155 269.848C509.094 269.847 509.034 269.839 508.975 269.823C505.015 268.657 500.999 267.376 497.039 266.026C496.957 266 496.882 265.959 496.817 265.904C496.752 265.849 496.699 265.781 496.661 265.705C496.623 265.628 496.601 265.545 496.595 265.46C496.59 265.375 496.602 265.29 496.631 265.21C496.657 265.129 496.699 265.054 496.755 264.99C496.81 264.926 496.877 264.873 496.953 264.835C497.029 264.797 497.112 264.775 497.197 264.769C497.281 264.763 497.366 264.774 497.447 264.802C501.386 266.152 505.382 267.421 509.33 268.579C509.462 268.632 509.573 268.729 509.644 268.852C509.715 268.976 509.742 269.12 509.721 269.261C509.701 269.403 509.633 269.533 509.53 269.631C509.426 269.729 509.293 269.79 509.151 269.803L509.155 269.848Z" fill="#242426"/>
<path d="M441.274 238.268C439.052 236.828 436.837 235.356 434.647 233.83L441.274 238.268Z" fill="white"/>
<path d="M441.275 238.905C441.153 238.905 441.034 238.87 440.932 238.803C438.436 237.171 436.259 235.727 434.285 234.352C434.153 234.254 434.065 234.107 434.038 233.945C434.012 233.782 434.05 233.615 434.144 233.48C434.238 233.345 434.381 233.251 434.543 233.219C434.704 233.187 434.872 233.219 435.011 233.308C436.972 234.679 439.138 236.127 441.621 237.738C441.738 237.812 441.827 237.921 441.875 238.05C441.924 238.179 441.929 238.32 441.889 238.453C441.85 238.585 441.769 238.7 441.658 238.782C441.547 238.863 441.412 238.907 441.275 238.905Z" fill="#242426"/>
<path d="M669.623 351.781C665.867 350.504 662.123 349.101 658.453 347.596C647.63 343.339 637.117 338.333 626.991 332.614C622.468 330.097 618.019 327.417 613.655 324.623C605.45 328.949 599.105 336.121 595.81 344.793C593.667 350.342 592.839 356.312 593.39 362.235C593.941 368.157 595.856 373.872 598.984 378.93C602.113 383.989 606.37 388.254 611.423 391.391C616.475 394.529 622.185 396.453 628.106 397.014C634.026 397.574 639.996 396.755 645.547 394.622C651.098 392.488 656.08 389.098 660.102 384.716C664.124 380.334 667.076 375.08 668.728 369.366C670.38 363.652 670.686 357.633 669.623 351.781Z" fill="white"/>
<path d="M631.697 397.75C622.968 397.748 614.489 394.826 607.611 389.449C600.733 384.072 595.851 376.548 593.741 368.075C591.631 359.603 592.415 350.668 595.967 342.692C599.52 334.716 605.637 328.157 613.346 324.06C613.445 324.008 613.556 323.984 613.668 323.989C613.779 323.994 613.888 324.028 613.982 324.089C618.704 327.095 623.056 329.701 627.285 332.059C637.392 337.764 647.885 342.758 658.686 347.004C662.356 348.505 666.092 349.912 669.827 351.181C669.932 351.219 670.025 351.284 670.096 351.369C670.168 351.454 670.216 351.557 670.235 351.666C671.258 357.309 671.028 363.107 669.562 368.65C668.095 374.194 665.428 379.347 661.749 383.745C658.07 388.143 653.469 391.678 648.272 394.1C643.076 396.521 637.41 397.77 631.677 397.759L631.697 397.75ZM613.635 325.357C607.522 328.684 602.444 333.631 598.957 339.656C595.471 345.681 593.712 352.55 593.873 359.509C594.034 366.468 596.109 373.248 599.871 379.105C603.632 384.962 608.934 389.669 615.195 392.709C621.456 395.749 628.433 397.005 635.36 396.339C642.288 395.673 648.898 393.111 654.465 388.933C660.032 384.756 664.341 379.125 666.918 372.658C669.495 366.192 670.24 359.141 669.073 352.278C665.431 351.03 661.781 349.66 658.221 348.199C647.374 343.931 636.837 338.914 626.685 333.185C622.53 330.851 618.24 328.294 613.635 325.357Z" fill="#242426"/>
<path d="M660.48 369.48C659.141 372.97 657.105 376.152 654.496 378.829C651.887 381.507 648.759 383.625 645.305 385.053C641.851 386.482 638.141 387.192 634.403 387.139C630.666 387.087 626.978 386.273 623.565 384.747C610.923 379.11 604.361 364.524 608.562 351.3C609.988 346.802 612.545 342.746 615.988 339.519C619.43 336.293 623.642 334.004 628.222 332.871C638.35 338.59 648.865 343.597 659.689 347.853C661.273 351.218 662.159 354.869 662.295 358.585C662.431 362.302 661.814 366.008 660.48 369.48Z" fill="#242426"/>
<path d="M681.54 355.567C677.547 354.396 673.559 353.119 669.632 351.781L681.54 355.567Z" fill="white"/>
<path d="M681.539 356.203C681.478 356.204 681.418 356.194 681.36 356.175C677.384 355.008 673.371 353.727 669.427 352.381C669.349 352.355 669.276 352.313 669.213 352.258C669.151 352.203 669.1 352.136 669.063 352.062C669.026 351.987 669.005 351.906 668.999 351.823C668.994 351.74 669.005 351.657 669.032 351.578C669.059 351.499 669.101 351.426 669.155 351.364C669.21 351.301 669.277 351.25 669.352 351.214C669.426 351.177 669.507 351.155 669.59 351.15C669.673 351.144 669.756 351.155 669.835 351.182C673.762 352.524 677.759 353.797 681.719 354.959C681.851 355.013 681.961 355.109 682.032 355.233C682.103 355.357 682.131 355.501 682.11 355.642C682.089 355.783 682.022 355.913 681.918 356.011C681.815 356.109 681.681 356.17 681.539 356.183V356.203Z" fill="#242426"/>
<path d="M613.664 324.623C611.438 323.184 609.227 321.711 607.033 320.186L613.664 324.623Z" fill="white"/>
<path d="M613.664 325.26C613.541 325.26 613.42 325.225 613.317 325.158C610.817 323.527 608.643 322.078 606.67 320.708C606.538 320.609 606.449 320.463 606.423 320.3C606.397 320.137 606.435 319.971 606.529 319.836C606.623 319.7 606.766 319.607 606.928 319.575C607.089 319.543 607.257 319.575 607.396 319.664C609.357 321.03 611.518 322.478 614.006 324.093C614.122 324.167 614.211 324.276 614.26 324.405C614.308 324.533 614.314 324.674 614.275 324.806C614.236 324.938 614.155 325.053 614.045 325.135C613.935 325.217 613.801 325.261 613.664 325.26Z" fill="#242426"/>
<path d="M666.21 449.135C670.655 452.74 687.955 468.714 692.057 472.691C689.17 473.425 686.266 474.105 683.346 474.73C678.481 475.754 673.588 476.533 668.665 477.332L665.86 477.663C662.766 478.008 659.668 478.313 656.566 478.576C610.128 482.57 563.275 479.421 517.388 489.259C503.262 492.29 489.168 496.544 477.598 505.485C460.935 518.363 453.093 538.472 457.913 559.164C461.502 574.575 479.98 585.159 495.081 580.273C508.257 576.006 516.581 564.859 517.046 551.892C517.861 551.594 518.555 551.337 518.677 551.3C529.219 548.037 539.989 546.556 550.776 544.525L554.177 544.146C556.942 543.855 559.709 543.595 562.48 543.367C568.038 542.902 573.605 542.551 579.175 542.273C590.7 541.694 602.241 541.421 613.778 541.099C638.398 540.409 662.862 539.096 687.225 535.241C698.459 533.523 709.538 530.915 720.359 527.442C734.849 522.711 749.579 515.964 757.878 502.418C777.86 469.717 745.876 438.011 721.954 418.595C715.531 413.378 709.181 409.744 700.589 409.744" fill="#F24E89"/>
<path d="M487.292 582.091C481.915 582.041 476.642 580.604 471.983 577.918C464.422 573.644 459.079 566.856 457.301 559.294C452.485 538.63 459.932 518.321 477.215 504.966C489.449 495.507 504.326 491.396 517.258 488.622C546.922 482.263 577.483 481.304 607.037 480.378C623.272 479.868 640.069 479.342 656.516 477.931C659.714 477.658 662.833 477.348 665.79 477.017C666.565 476.932 667.336 476.838 668.106 476.748L669.575 476.528C674.06 475.802 678.681 475.047 683.199 474.08C685.699 473.554 688.244 472.971 690.777 472.343C685.659 467.448 670.007 453.029 665.794 449.611C665.73 449.557 665.676 449.492 665.637 449.417C665.598 449.343 665.574 449.262 665.566 449.178C665.558 449.095 665.567 449.011 665.592 448.931C665.617 448.85 665.657 448.776 665.711 448.711C665.764 448.647 665.83 448.594 665.904 448.554C665.978 448.515 666.059 448.491 666.143 448.483C666.226 448.476 666.311 448.484 666.391 448.509C666.471 448.534 666.545 448.574 666.61 448.628C671.096 452.27 688.529 468.37 692.497 472.22C692.579 472.299 692.638 472.398 692.668 472.507C692.699 472.616 692.699 472.731 692.669 472.84C692.64 472.95 692.583 473.05 692.502 473.129C692.422 473.209 692.322 473.266 692.212 473.293C689.3 474.036 686.36 474.717 683.477 475.333C678.934 476.287 674.285 477.042 669.795 477.78L668.274 478.009L665.949 478.282C662.98 478.612 659.832 478.918 656.639 479.196C640.151 480.615 623.345 481.141 607.094 481.643C577.593 482.565 547.093 483.523 517.539 489.858C504.746 492.603 490.049 496.666 478.006 505.966C461.127 519.018 453.855 538.838 458.553 558.992C460.234 566.212 465.356 572.701 472.606 576.801C479.792 580.88 487.92 581.899 494.906 579.656C507.719 575.508 515.965 564.858 516.434 551.858C516.437 551.732 516.477 551.611 516.55 551.508C516.623 551.406 516.724 551.327 516.842 551.283L517.608 551.001L518.493 550.679C526.621 548.146 535.026 546.67 543.158 545.242C545.657 544.801 548.161 544.361 550.665 543.892L552.011 543.737L554.111 543.504C556.77 543.223 559.49 542.966 562.431 542.721C567.614 542.289 573.079 541.93 579.151 541.628C589.089 541.126 599.199 540.849 608.978 540.584L613.77 540.449C635.628 539.837 661.439 538.667 687.131 534.6C698.332 532.896 709.378 530.296 720.163 526.825C732.973 522.644 748.775 516.049 757.323 502.074C772.167 477.809 760.463 450.659 721.542 419.072C715.979 414.548 709.589 410.343 700.588 410.343C700.429 410.33 700.28 410.258 700.172 410.14C700.063 410.023 700.003 409.868 700.003 409.708C700.003 409.549 700.063 409.394 700.172 409.277C700.28 409.159 700.429 409.087 700.588 409.074C709.968 409.074 716.599 413.398 722.353 418.068C761.854 450.125 773.652 477.813 758.416 502.715C749.652 517.044 733.584 523.762 720.567 528.004C709.716 531.494 698.603 534.109 687.335 535.824C661.569 539.903 635.71 541.077 613.807 541.689L609.019 541.824C599.231 542.089 589.142 542.366 579.22 542.864C573.168 543.17 567.712 543.525 562.545 543.957C559.613 544.202 556.901 544.455 554.254 544.736C553.557 544.81 552.859 544.891 552.166 544.969L550.857 545.115C548.41 545.58 545.89 546.021 543.382 546.461C535.295 547.885 526.931 549.353 518.881 551.862C518.799 551.886 518.473 552.005 518.065 552.164L517.69 552.303C517.041 565.457 508.31 576.629 495.305 580.855C492.715 581.684 490.011 582.101 487.292 582.091Z" fill="#242426"/>
<path d="M527.89 350.811C518.269 350.811 508.645 347.735 500.999 341.784C500.926 341.735 500.865 341.672 500.818 341.598C500.772 341.524 500.741 341.442 500.727 341.356C500.714 341.269 500.718 341.181 500.74 341.097C500.762 341.013 500.801 340.934 500.855 340.865C500.909 340.796 500.976 340.739 501.053 340.698C501.13 340.656 501.214 340.631 501.301 340.623C501.388 340.616 501.475 340.626 501.558 340.654C501.641 340.682 501.717 340.726 501.782 340.785C514.244 350.488 532.147 352.324 546.319 345.341C546.469 345.267 546.644 345.256 546.803 345.31C546.962 345.364 547.093 345.479 547.167 345.63C547.241 345.781 547.252 345.955 547.198 346.115C547.143 346.274 547.028 346.405 546.877 346.479C540.962 349.355 534.467 350.836 527.89 350.811Z" fill="#242426"/>
<path d="M552.786 360.934C552.635 360.93 552.491 360.872 552.379 360.771C544.879 353.983 543.639 341.396 549.675 333.283C549.78 333.162 549.927 333.085 550.086 333.068C550.245 333.051 550.404 333.094 550.533 333.189C550.661 333.284 550.75 333.425 550.779 333.582C550.809 333.739 550.779 333.902 550.694 334.037C545.03 341.653 546.208 353.465 553.227 359.829C553.322 359.913 553.39 360.024 553.421 360.148C553.452 360.271 553.445 360.401 553.401 360.521C553.357 360.64 553.278 360.743 553.174 360.817C553.07 360.891 552.946 360.932 552.819 360.934H552.786Z" fill="#242426"/>
<path d="M615.107 413.716C631.999 394.17 657.879 382.716 683.701 383.389L615.107 413.716Z" fill="#F24E89"/>
<path d="M615.108 414.352C614.986 414.352 614.867 414.317 614.764 414.251C614.661 414.185 614.58 414.091 614.529 413.98C614.479 413.869 614.461 413.746 614.478 413.625C614.495 413.505 614.547 413.391 614.627 413.299C631.734 393.5 657.597 382.091 683.718 382.756C683.801 382.758 683.882 382.777 683.958 382.81C684.034 382.844 684.103 382.892 684.16 382.953C684.217 383.013 684.262 383.084 684.292 383.161C684.321 383.239 684.336 383.322 684.333 383.405C684.334 383.489 684.318 383.572 684.285 383.649C684.252 383.727 684.204 383.797 684.143 383.855C684.082 383.913 684.01 383.958 683.932 383.987C683.853 384.016 683.769 384.029 683.685 384.025C657.903 383.36 632.452 394.63 615.581 414.131C615.522 414.199 615.449 414.254 615.368 414.292C615.286 414.33 615.198 414.35 615.108 414.352Z" fill="#242426"/>
<path d="M677.58 419.405C677.456 419.404 677.336 419.367 677.233 419.299C677.131 419.231 677.05 419.134 677.001 419.021C676.952 418.908 676.938 418.783 676.958 418.661C676.979 418.54 677.035 418.427 677.119 418.336C680.149 415.131 684.057 412.891 688.354 411.896C688.438 411.866 688.527 411.854 688.616 411.861C688.704 411.868 688.79 411.894 688.868 411.937C688.947 411.98 689.015 412.038 689.069 412.109C689.122 412.18 689.161 412.261 689.181 412.348C689.201 412.435 689.203 412.525 689.186 412.612C689.169 412.699 689.134 412.782 689.083 412.855C689.032 412.928 688.966 412.989 688.889 413.035C688.813 413.08 688.728 413.109 688.639 413.12C684.585 414.057 680.896 416.17 678.036 419.193C677.979 419.258 677.908 419.31 677.83 419.346C677.751 419.383 677.666 419.403 677.58 419.405Z" fill="#242426"/>
<path d="M152.545 426.981C152.039 427.454 151.358 427.478 150.098 427.968C138.366 432.479 135.478 445.397 136.571 456.729C137.167 462.701 138.664 468.549 141.012 474.072C142.026 476.604 143.286 479.03 144.772 481.317C145.935 483.03 150.151 486.338 149.519 488.544C149.05 490.176 143.7 491.873 142.244 492.472C135.772 495.116 128.874 496.564 121.886 496.747C117.045 496.878 107.013 497.082 103.91 492.395C102.503 490.27 103.29 484.005 103.131 481.594C102.027 464.868 100.925 448.144 99.8235 431.423L94.4404 349.701L94.5628 349.672C101.826 348.041 109.766 348.298 116.96 350.08C132.253 353.886 142.884 365.58 148.153 380.134C152.639 392.493 153.711 405.942 153.512 418.998C153.483 420.911 153.919 423.82 153.291 425.618C153.154 426.125 152.899 426.592 152.545 426.981Z" fill="white"/>
<path d="M118.734 497.449C113.432 497.449 106.092 496.878 103.376 492.758C102.258 491.074 102.376 487.374 102.47 484.405C102.503 483.279 102.535 482.304 102.47 481.647L93.7961 349.738C93.787 349.59 93.8301 349.443 93.918 349.323C94.0059 349.203 94.133 349.117 94.2773 349.081L94.4119 349.049C101.512 347.45 109.574 347.597 117.102 349.457C131.49 353.038 143.019 364.141 148.736 379.91C152.659 390.736 154.376 403.16 154.132 418.999C154.132 419.549 154.156 420.182 154.189 420.846C154.27 422.527 154.364 424.432 153.879 425.819C153.715 426.423 153.402 426.977 152.969 427.43C152.523 427.799 151.994 428.054 151.428 428.172C151.114 428.266 150.747 428.38 150.302 428.552C136.135 433.993 136.673 451.439 137.179 456.656C137.763 462.564 139.244 468.349 141.571 473.812C142.578 476.309 143.822 478.703 145.286 480.962C145.753 481.576 146.262 482.158 146.807 482.704C148.614 484.625 150.665 486.783 150.115 488.72C149.67 490.258 146.587 491.523 143.463 492.681C143.055 492.836 142.713 492.962 142.472 493.06C135.928 495.729 128.955 497.193 121.89 497.384C120.997 497.421 119.92 497.449 118.734 497.449ZM95.1052 350.199L103.759 481.57C103.804 482.288 103.759 483.287 103.739 484.45C103.653 487.093 103.539 490.711 104.436 492.061C107.384 496.515 117.535 496.246 121.866 496.14C128.777 495.953 135.597 494.521 141.999 491.91C142.244 491.808 142.603 491.677 143.027 491.502C144.552 490.935 148.602 489.43 148.903 488.378C149.254 487.154 147.313 485.09 145.89 483.585C145.304 482.989 144.759 482.354 144.259 481.684C142.748 479.357 141.465 476.89 140.425 474.317C138.048 468.733 136.535 462.818 135.939 456.778C134.54 442.253 139.748 431.26 149.87 427.369C150.351 427.185 150.747 427.067 151.093 426.961C151.47 426.892 151.826 426.737 152.133 426.508C152.409 426.191 152.608 425.814 152.712 425.407C153.12 424.252 153.03 422.478 152.953 420.92C152.92 420.226 152.888 419.566 152.896 418.995C153.137 403.307 151.444 391.029 147.594 380.355C141.938 364.761 131.021 354.229 116.841 350.701C109.725 348.908 102.297 348.735 95.1052 350.195V350.199Z" fill="#242426"/>
<path d="M93.4538 489.503L83.5685 354.281C83.0506 347.168 87.3652 341.004 93.1643 340.58C98.9633 340.172 104.13 345.626 104.652 352.739L109.505 419.153L114.538 487.961C115.056 495.07 110.741 501.238 104.942 501.662C99.1428 502.086 93.9758 496.612 93.4538 489.503Z" fill="#FFA9D8"/>
<path d="M104.302 502.32C101.545 502.32 98.8899 501.096 96.7571 498.845C94.4202 496.288 93.0311 493.007 92.8217 489.549L82.9364 354.327C82.39 346.851 86.9574 340.398 93.1317 339.949C96.1087 339.729 99.049 340.953 101.361 343.4C103.698 345.955 105.087 349.235 105.297 352.692L115.182 487.913C115.728 495.394 111.161 501.847 104.987 502.296C104.758 502.312 104.53 502.32 104.302 502.32ZM93.7964 341.193C93.6007 341.193 93.3886 341.193 93.2051 341.193C87.7445 341.601 83.7031 347.434 84.1966 354.213L94.09 489.475C94.2742 492.642 95.5413 495.649 97.6788 497.992C99.7178 500.154 102.275 501.255 104.897 501.051C110.358 500.644 114.399 494.811 113.906 488.027L104.016 352.786C103.833 349.617 102.564 346.608 100.423 344.265C98.5352 342.27 96.2025 341.193 93.7964 341.193Z" fill="#242426"/>
<path d="M590.937 224.009C590.826 224.009 590.717 223.98 590.621 223.925C590.524 223.87 590.444 223.79 590.389 223.694C590.333 223.599 590.303 223.49 590.303 223.379C590.302 223.268 590.331 223.159 590.386 223.062C594.653 215.575 600.802 209.333 608.224 204.956C608.296 204.906 608.377 204.871 608.463 204.854C608.549 204.837 608.637 204.838 608.723 204.856C608.809 204.875 608.889 204.911 608.96 204.963C609.031 205.014 609.091 205.079 609.135 205.155C609.18 205.23 609.208 205.314 609.219 205.401C609.23 205.488 609.222 205.576 609.197 205.66C609.172 205.744 609.13 205.822 609.073 205.889C609.017 205.956 608.947 206.01 608.868 206.049C601.637 210.315 595.646 216.396 591.487 223.691C591.432 223.788 591.352 223.869 591.255 223.925C591.159 223.98 591.049 224.01 590.937 224.009Z" fill="#242426"/>
<path d="M744.909 276.198C746.455 285.303 745.961 294.647 745.423 303.866C745.117 309.103 744.807 314.471 746.035 319.558C747.262 324.644 750.37 329.478 754.717 330.828C759.174 332.215 763.958 329.571 766.825 325.427C769.692 321.283 770.956 315.899 771.653 310.58C774.418 289.5 768.994 266.935 757.184 250.391C754.566 246.72 751.564 243.261 747.866 241.274C744.167 239.288 739.652 238.974 736.239 241.429C729.906 245.986 732.487 251.06 735.994 255.661C740.634 261.654 743.699 268.715 744.909 276.198Z" fill="white"/>
<path d="M711.95 231.649C712.924 233.345 714.363 234.727 716.098 235.633C717.832 236.538 719.788 236.929 721.737 236.759C723.676 236.527 725.502 235.725 726.985 234.454C728.468 233.184 729.541 231.502 730.069 229.621C730.524 227.722 730.384 225.729 729.667 223.912C728.95 222.095 727.69 220.544 726.06 219.469C718.434 214.713 707.142 223.054 711.95 231.649Z" fill="white"/>
<path d="M417.838 296.368C417.727 296.368 417.618 296.34 417.522 296.285C417.426 296.229 417.347 296.15 417.291 296.054C413.656 289.796 412.034 282.57 412.646 275.357C412.653 275.274 412.675 275.193 412.713 275.118C412.751 275.044 412.804 274.978 412.867 274.924C412.931 274.87 413.005 274.829 413.085 274.804C413.165 274.779 413.248 274.77 413.332 274.778C413.499 274.794 413.654 274.875 413.763 275.004C413.871 275.133 413.924 275.299 413.911 275.467C413.325 282.419 414.891 289.382 418.397 295.414C418.454 295.51 418.484 295.619 418.485 295.731C418.486 295.843 418.457 295.953 418.401 296.05C418.346 296.147 418.265 296.228 418.169 296.283C418.072 296.339 417.962 296.369 417.85 296.368H417.838Z" fill="#242426"/>
<path d="M372.441 346.303H372.383C372.216 346.288 372.061 346.208 371.953 346.08C371.844 345.951 371.791 345.785 371.804 345.618C372.537 336.992 374.876 328.579 378.7 320.813C378.737 320.739 378.788 320.672 378.851 320.617C378.913 320.562 378.986 320.52 379.065 320.493C379.143 320.466 379.227 320.455 379.31 320.46C379.393 320.466 379.474 320.487 379.549 320.524C379.623 320.561 379.69 320.612 379.745 320.674C379.8 320.737 379.842 320.809 379.869 320.888C379.896 320.967 379.907 321.05 379.902 321.133C379.896 321.216 379.875 321.298 379.838 321.372C376.084 328.998 373.788 337.258 373.069 345.728C373.054 345.885 372.982 346.031 372.866 346.137C372.75 346.243 372.598 346.302 372.441 346.303Z" fill="#242426"/>
<path d="M319.911 366.289C328.842 347.857 353.645 332.675 365.777 327.486C366.242 328.106 366.951 328.71 367.408 329.322C349.501 342.007 335.893 360.628 328.993 381.459C327.586 380.443 326.954 378.942 326.334 377.327C324.445 372.408 323.181 370.368 319.911 366.289Z" fill="#242426"/>
<path d="M518.987 487.844C512.054 489.944 505.031 494.097 497.781 494.032C483.744 493.909 495.285 494.346 480.326 494.174C437.506 488.501 377.897 457.872 343.792 431.358C343.792 431.004 341.377 431.285 341.377 430.951C342.454 430.845 343.702 430.702 344.779 430.596C368.048 448.515 394.601 462.146 422.939 469.856C454.451 478.43 486.46 484.919 518.987 487.844Z" fill="#242426"/>
<path d="M138.464 439.381C139.067 459.176 150.877 478.249 168.323 487.614C161.729 488.259 155.131 488.165 148.683 486.636C137.481 474.219 133.831 455.452 138.464 439.381Z" fill="#242426"/>
<path d="M197.38 419.422L257.483 421.649C256.977 423.138 256.668 427.36 256.549 428.922C236.35 428.84 216.127 428.681 195.949 427.776C197.042 425.842 197.682 421.616 197.38 419.422Z" fill="#242426"/>
<path d="M114.146 474.826C114.469 483.205 118.081 491.119 124.198 496.853C120.531 496.848 116.868 496.64 113.224 496.228C114.142 488.931 114.839 482.132 114.146 474.826Z" fill="#242426"/>
<path d="M361.535 307.79C360.418 272.565 367.245 244.036 384.87 213.518C376.09 230.767 375.491 244.11 374.989 263.456C374.487 282.803 376.828 302.108 379.177 321.32C377.762 321.981 376.437 322.254 375.022 322.911C369.851 318.314 365.226 313.64 361.535 307.79Z" fill="#242426"/>
<path d="M665.672 449.334C668.408 454.199 670.596 459.352 672.197 464.699C674.855 463.419 677.606 462.342 680.426 461.477C675.512 457.108 670.578 453.703 665.672 449.334Z" fill="#242426"/>
<path d="M812.842 346.833C790.662 351.646 791.604 356.153 789.512 388.438C789.503 388.568 789.446 388.69 789.353 388.781C789.26 388.872 789.137 388.925 789.007 388.931C788.877 388.937 788.75 388.895 788.649 388.814C788.548 388.732 788.48 388.615 788.459 388.487C783.354 356.435 785.197 351.838 762.841 348.448C762.72 348.428 762.609 348.367 762.528 348.274C762.447 348.182 762.401 348.064 762.397 347.941C762.393 347.818 762.432 347.698 762.507 347.601C762.582 347.504 762.688 347.435 762.808 347.408C784.895 342.599 782.791 338.128 785.821 305.803C785.837 305.674 785.899 305.556 785.996 305.471C786.093 305.385 786.218 305.338 786.347 305.338C786.476 305.338 786.601 305.385 786.698 305.471C786.795 305.556 786.857 305.674 786.873 305.803C791.016 337.871 790.368 342.427 812.81 345.817C812.922 345.844 813.023 345.906 813.096 345.996C813.17 346.085 813.211 346.197 813.215 346.312C813.219 346.428 813.184 346.542 813.117 346.636C813.05 346.73 812.953 346.799 812.842 346.833Z" fill="#FDDC68"/>
<path d="M788.977 389.539C788.7 389.542 788.431 389.444 788.221 389.263C788.011 389.082 787.874 388.831 787.835 388.556C787.305 385.236 786.848 382.205 786.437 379.444C782.864 355.668 782.318 352.013 762.743 349.044C762.475 349.002 762.23 348.868 762.051 348.664C761.871 348.461 761.769 348.201 761.76 347.93C761.752 347.659 761.839 347.394 762.006 347.18C762.172 346.966 762.409 346.817 762.673 346.759C782.012 342.55 782.33 338.867 784.373 314.915C784.614 312.129 784.871 309.078 785.189 305.729C785.212 305.443 785.342 305.176 785.553 304.981C785.763 304.787 786.04 304.678 786.326 304.677C786.614 304.665 786.895 304.763 787.113 304.95C787.332 305.138 787.47 305.402 787.501 305.688L788.125 310.559C791.669 338.438 792.121 342.02 812.903 345.156C813.171 345.198 813.417 345.331 813.596 345.534C813.776 345.737 813.88 345.997 813.888 346.268C813.897 346.539 813.811 346.805 813.644 347.019C813.478 347.233 813.242 347.382 812.977 347.44C792.44 351.899 792.211 355.501 790.453 383.547L790.144 388.442C790.128 388.728 790.006 388.999 789.802 389.2C789.597 389.4 789.325 389.517 789.038 389.527L788.977 389.539ZM763.501 347.889C783.443 350.993 784.116 355.464 787.689 379.264C788.064 381.761 788.471 384.473 788.936 387.422L789.189 383.478C790.906 356.092 791.228 350.957 812.149 346.331C790.975 343.068 790.327 337.949 786.865 310.726L786.363 306.798C786.086 309.78 785.853 312.508 785.637 315.029C783.59 339.013 783.207 343.517 763.501 347.889Z" fill="#242426"/>
<path d="M297.232 278.361C277.751 282.587 278.579 286.547 276.744 314.884C276.74 315.001 276.692 315.112 276.611 315.195C276.529 315.279 276.418 315.328 276.302 315.334C276.185 315.339 276.07 315.301 275.981 315.226C275.891 315.151 275.833 315.045 275.818 314.929C271.332 286.784 272.963 282.742 253.319 279.764C253.211 279.75 253.111 279.698 253.037 279.617C252.963 279.536 252.921 279.431 252.918 279.322C252.914 279.212 252.95 279.105 253.018 279.019C253.087 278.934 253.183 278.875 253.291 278.855C272.69 274.629 270.826 270.697 273.502 242.323C273.517 242.212 273.571 242.109 273.656 242.035C273.741 241.961 273.85 241.92 273.962 241.92C274.075 241.92 274.184 241.961 274.269 242.035C274.353 242.109 274.408 242.212 274.423 242.323C278.065 270.489 277.494 274.49 297.204 277.468C297.304 277.49 297.394 277.544 297.459 277.623C297.525 277.702 297.562 277.801 297.566 277.903C297.569 278.006 297.538 278.106 297.477 278.189C297.417 278.272 297.331 278.333 297.232 278.361Z" fill="#FDDC68"/>
<path d="M276.275 315.952C276.013 315.956 275.758 315.864 275.559 315.693C275.361 315.523 275.231 315.286 275.194 315.026C274.729 312.106 274.329 309.446 273.97 307.019C270.847 286.192 270.365 282.99 253.233 280.392C252.979 280.354 252.747 280.228 252.576 280.036C252.405 279.844 252.307 279.599 252.299 279.342C252.291 279.085 252.373 278.834 252.531 278.631C252.689 278.429 252.913 278.288 253.164 278.234C270.092 274.563 270.369 271.3 272.164 250.334C272.372 247.887 272.6 245.207 272.878 242.266C272.9 241.995 273.023 241.743 273.222 241.559C273.422 241.375 273.683 241.272 273.954 241.271C274.226 241.258 274.492 241.35 274.699 241.527C274.905 241.705 275.036 241.954 275.063 242.225L275.61 246.504C278.717 270.937 279.113 274.078 297.305 276.823C297.559 276.861 297.792 276.987 297.963 277.179C298.133 277.37 298.231 277.616 298.24 277.873C298.248 278.13 298.166 278.381 298.008 278.583C297.85 278.786 297.626 278.926 297.375 278.981C279.394 282.884 279.199 286.041 277.657 310.625L277.384 314.924C277.37 315.196 277.254 315.452 277.06 315.643C276.866 315.833 276.607 315.943 276.336 315.952H276.275ZM254.314 279.274C271.491 282.011 272.099 286.041 275.218 306.832C275.52 308.826 275.842 310.98 276.205 313.305L276.381 310.544C277.881 286.616 278.171 281.991 296.208 277.936C277.951 275.044 277.367 270.447 274.342 246.663L273.991 243.914C273.775 246.259 273.583 248.429 273.42 250.44C271.63 271.39 271.283 275.452 254.314 279.274Z" fill="#242426"/>
<path d="M353.196 122.14C338.882 125.244 339.489 128.152 338.139 148.979C338.131 149.061 338.094 149.137 338.035 149.194C337.975 149.251 337.897 149.284 337.815 149.288C337.733 149.292 337.652 149.266 337.587 149.215C337.523 149.165 337.478 149.093 337.462 149.012C334.167 128.323 335.35 125.354 320.926 123.168C320.845 123.158 320.771 123.12 320.717 123.06C320.662 123 320.631 122.923 320.629 122.842C320.626 122.761 320.653 122.682 320.703 122.619C320.754 122.556 320.826 122.513 320.905 122.499C335.179 119.395 333.788 116.511 335.758 95.6552C335.77 95.5744 335.811 95.5008 335.873 95.4476C335.936 95.3945 336.015 95.3652 336.096 95.3652C336.178 95.3652 336.257 95.3945 336.319 95.4476C336.381 95.5008 336.422 95.5744 336.435 95.6552C339.11 116.352 338.69 119.313 353.155 121.479C353.229 121.494 353.296 121.533 353.345 121.59C353.395 121.647 353.424 121.718 353.429 121.794C353.434 121.869 353.413 121.944 353.371 122.006C353.329 122.069 353.267 122.116 353.196 122.14Z" fill="#FDDC68"/>
<path d="M337.797 149.933C337.565 149.935 337.341 149.854 337.164 149.704C336.987 149.555 336.87 149.346 336.834 149.118C336.492 146.972 336.198 145.014 335.933 143.228C333.596 127.691 333.299 125.688 320.844 123.804C320.618 123.77 320.412 123.658 320.26 123.488C320.109 123.317 320.021 123.099 320.014 122.871C320.007 122.643 320.08 122.419 320.22 122.239C320.361 122.06 320.56 121.935 320.783 121.887C333.103 119.203 333.274 117.192 334.612 101.537C334.767 99.7379 334.934 97.7677 335.138 95.6018C335.158 95.3623 335.267 95.1391 335.444 94.976C335.621 94.813 335.852 94.7219 336.092 94.7208C336.332 94.7184 336.564 94.8031 336.745 94.9592C336.927 95.1153 337.045 95.3321 337.079 95.5692L337.487 98.714C339.758 116.559 340.048 118.848 353.289 120.846C353.514 120.882 353.719 120.995 353.87 121.165C354.02 121.335 354.107 121.553 354.115 121.78C354.122 122.007 354.051 122.23 353.912 122.41C353.773 122.591 353.576 122.717 353.355 122.768C340.268 125.623 340.121 127.911 339 145.867L338.796 149.028C338.784 149.269 338.681 149.496 338.509 149.665C338.337 149.833 338.107 149.931 337.866 149.938L337.797 149.933ZM322.516 122.776C334.453 124.815 334.979 128.335 337.197 143.024C337.352 144.043 337.515 145.123 337.687 146.262L337.719 145.773C338.804 128.454 339.032 124.811 351.585 121.846C338.869 119.688 338.408 116.07 336.223 98.8609L336.157 98.3714C336.055 99.5176 335.966 100.599 335.876 101.635C334.6 116.437 334.298 119.969 322.516 122.776Z" fill="#242426"/>
</svg>
