<svg width="644" height="470" viewBox="0 0 644 470" fill="none" xmlns="http://www.w3.org/2000/svg">
<path d="M320.23 463.825C496.812 463.825 639.959 441.263 639.959 413.432C639.959 385.601 496.812 363.039 320.23 363.039C143.648 363.039 0.5 385.601 0.5 413.432C0.5 441.263 143.648 463.825 320.23 463.825Z" fill="#FE5122"/>
<path d="M320.245 464.346C234.816 464.346 154.495 459.102 94.0831 449.58C58.9452 444.041 0 431.98 0 413.437C0 394.893 58.9452 382.832 94.0831 377.293C154.495 367.772 234.816 362.527 320.245 362.527C405.674 362.527 485.995 367.772 546.407 377.293C581.545 382.832 640.491 394.89 640.491 413.437C640.491 431.984 581.545 444.041 546.407 449.58C485.982 459.099 405.661 464.346 320.245 464.346ZM320.245 363.557C234.869 363.557 154.604 368.798 94.2318 378.31C34.9924 387.646 1.01772 400.449 1.01772 413.437C1.01772 426.425 34.9891 439.234 94.2318 448.56C154.595 458.076 234.859 463.316 320.245 463.316C405.631 463.316 485.886 458.076 546.259 448.56C605.498 439.224 639.473 426.421 639.473 413.437C639.473 400.452 605.498 387.646 546.259 378.31C485.873 368.798 405.608 363.557 320.245 363.557Z" fill="#242426"/>
<path d="M222.27 61.8999C221.617 59.6318 223.599 57.4847 225.506 56.0936C227.413 54.7025 229.657 53.1375 229.83 50.8014C230.002 48.4653 227.938 46.4693 227.075 44.2164C226.084 41.6232 226.744 38.6822 227.825 36.1117C228.906 33.5412 230.34 31.1219 230.993 28.4229C232.45 22.3746 229.424 15.8047 224.702 11.7373C219.981 7.66985 213.817 5.68905 207.706 4.50964C201.596 3.33023 195.08 3.4512 189.066 1.87109C195.04 4.72173 199.666 9.81537 201.955 16.0604C204.244 22.3054 204.012 29.2049 201.31 35.2801C200.297 37.5482 198.961 39.6726 198.105 42.0012C197.249 44.3298 196.919 47.0137 197.962 49.2667C199.644 52.9183 204.073 54.1506 207.932 55.2015C211.79 56.2524 216.189 58.2256 216.94 62.1267C218.517 61.8243 220.694 62.1797 222.27 61.8999Z" fill="#E79052"/>
<path d="M216.974 63.4562C216.703 63.4561 216.44 63.3619 216.231 63.1898C216.021 63.0176 215.878 62.7781 215.826 62.5122C215.289 59.8612 212.516 57.8371 207.574 56.4701C203.629 55.4052 198.709 54.0684 196.782 49.907C195.437 47.0294 196.095 43.8649 196.888 41.7426C197.444 40.3282 198.09 38.9508 198.823 37.619C199.276 36.7353 199.737 35.8592 200.145 34.9529C202.74 29.1639 202.963 22.5891 200.765 16.6381C198.567 10.6872 194.123 5.8339 188.386 3.1189C188.13 2.98839 187.93 2.76853 187.824 2.50079C187.719 2.23306 187.715 1.93597 187.813 1.66557C187.912 1.39518 188.106 1.17018 188.359 1.03304C188.612 0.895889 188.907 0.856073 189.187 0.921105C192.63 1.72005 196.129 2.25033 199.654 2.50714C202.382 2.77148 205.201 3.04337 207.921 3.5645C215.743 5.07501 221.35 7.44651 225.567 11.0491C231.113 15.7921 233.751 22.7933 232.277 28.8806C231.748 30.7585 231.023 32.5759 230.116 34.3034C229.73 35.1191 229.36 35.9272 228.997 36.7504C227.788 39.6506 227.547 42.0825 228.242 43.9706C228.56 44.7121 228.942 45.4247 229.383 46.1005C230.252 47.5204 231.242 49.1215 231.098 51.0625C230.879 53.8947 228.416 55.6771 226.428 57.1045C225.234 57.9731 222.899 59.899 223.405 61.7569C223.456 61.9173 223.472 62.0868 223.452 62.2539C223.431 62.4209 223.375 62.5816 223.287 62.725C223.199 62.8684 223.08 62.991 222.941 63.0846C222.801 63.1782 222.642 63.2406 222.476 63.2674C221.511 63.3894 220.538 63.4273 219.566 63.3807C218.749 63.3335 217.93 63.3613 217.118 63.4638L216.974 63.4562ZM218.66 60.9941H219.68C220.141 60.9941 220.602 60.9941 221.04 60.9941C221.108 59.0606 222.438 57.0894 224.909 55.307C226.836 53.9098 228.688 52.6032 228.778 50.851C228.869 49.6804 228.189 48.5853 227.41 47.2938C226.893 46.4994 226.448 45.6602 226.08 44.7863C225.128 42.3166 225.378 39.2956 226.836 35.8214C227.191 34.9605 227.592 34.107 228 33.2687C228.818 31.6873 229.473 30.0274 229.957 28.3142C231.212 23.1483 228.816 16.9174 224.002 12.8088C220.11 9.4857 214.851 7.2728 207.445 5.85292C204.83 5.3469 202.065 5.09767 199.389 4.81822C197.878 4.66717 196.253 4.51612 194.674 4.3122C199.262 7.99505 202.5 13.0944 203.88 18.8122C205.259 24.5301 204.703 30.5437 202.299 35.9121C201.876 36.8637 201.392 37.7851 200.916 38.7065C200.228 39.9498 199.623 41.2365 199.102 42.5583C198.581 43.9631 197.863 46.6594 198.921 48.9176C200.432 52.0821 204.536 53.215 208.193 54.2044C213.566 55.662 216.74 57.89 217.851 61.0017C218.108 60.9941 218.38 60.9941 218.66 60.9941Z" fill="#242426"/>
<path d="M326.098 228.88C332.901 232.475 327.311 229.522 325.827 228.459C324.664 227.622 323.534 226.354 322.324 225.513C322.093 225.254 321.855 225.003 321.631 224.741C320.471 223.39 319.38 221.983 318.326 220.54C317.947 219.984 317.61 219.4 317.315 218.795C317.494 219.212 317.705 219.709 317.953 220.298C317.259 218.643 316.142 217.083 315.329 215.481C313.651 212.17 312.16 208.77 310.786 205.324C304.534 189.627 300.486 173.14 294.506 157.338C281.394 122.707 258.608 89.1163 222.68 75.5886C210.696 71.0761 195.301 76.5057 190.827 89.1892C186.492 101.485 191.6 116.284 204.404 121.105C206.205 121.783 207.983 122.499 209.731 123.306C210.154 123.502 210.57 123.717 210.99 123.922C212.196 124.982 214.201 125.803 215.46 126.677C217.038 127.78 218.58 128.93 220.086 130.127C221.408 131.186 222.66 132.305 223.929 133.437C224.323 133.841 224.722 134.245 225.109 134.656C227.761 137.497 230.256 140.481 232.583 143.595C233.749 145.14 234.874 146.722 235.96 148.342C236.502 149.146 237.034 149.957 237.556 150.776L237.788 151.147C239.565 154.434 242.645 160.509 242.998 161.254C246.964 169.587 250.238 178.225 253.242 186.949C258.482 202.251 262.375 218.169 269.337 232.826C277.928 250.936 290.061 265.033 307.832 274.422C313.119 277.217 321.624 276.409 326.855 274.111C332.244 271.731 337.689 266.496 339.685 260.822C344.473 247.185 338.231 235.296 326.098 228.88Z" fill="#F24EB6"/>
<path d="M316.253 276.694C313.131 276.694 310.055 276.148 307.58 274.84C290.638 265.885 277.976 252.205 268.863 233.009C264.029 222.839 260.626 211.906 257.331 201.335C255.871 196.644 254.357 191.79 252.745 187.079C249.259 176.912 246.014 168.764 242.535 161.437C242.204 160.719 239.098 154.611 237.34 151.353L237.122 151.022C236.605 150.214 236.076 149.408 235.536 148.605C234.442 146.986 233.309 145.393 232.176 143.877C229.86 140.773 227.376 137.799 224.734 134.968C224.45 134.663 224.163 134.365 223.872 134.071L223.122 133.369C222.035 132.412 220.911 131.422 219.765 130.502C218.265 129.297 216.725 128.144 215.185 127.075C214.619 126.703 214.034 126.359 213.434 126.045C212.475 125.565 211.568 124.989 210.724 124.327L210.344 124.142C210.073 124.009 209.806 123.874 209.535 123.748C208.008 123.043 206.326 122.347 204.248 121.563C191.903 116.928 185.674 102.304 190.37 88.9915C192.369 83.3235 196.668 78.7083 202.48 75.9968C208.871 73.0171 216.5 72.6861 222.887 75.0797C244.725 83.3202 274.979 104.231 295.003 157.15C297.806 164.546 300.218 172.214 302.554 179.627C305.197 188.059 307.956 196.783 311.28 205.119C312.777 208.874 314.254 212.181 315.807 215.237C316.138 215.873 316.514 216.525 316.888 217.154C317.112 217.538 317.34 217.925 317.549 218.323C317.647 218.373 317.726 218.453 317.777 218.551C318.058 219.132 318.382 219.692 318.745 220.226C319.805 221.706 320.903 223.107 322.003 224.391C322.138 224.55 322.28 224.702 322.419 224.855L322.65 225.113C323.294 225.588 323.907 226.102 324.488 226.652C325.004 227.14 325.547 227.6 326.113 228.03C326.774 228.493 328.271 229.354 329.087 229.824C329.289 229.937 329.454 230.033 329.586 230.122C329.814 230.278 329.917 230.41 329.917 230.579C340.404 237.783 344.32 249.119 340.14 260.955C338.191 266.481 332.924 271.944 327.032 274.546C323.616 275.968 319.953 276.699 316.253 276.694ZM213.9 74.5335C210.104 74.5305 206.354 75.3528 202.906 76.9437C197.348 79.5393 193.238 83.9426 191.341 89.3491C186.834 102.135 192.785 116.166 204.611 120.609C206.719 121.404 208.424 122.109 209.977 122.827C210.255 122.956 210.533 123.096 210.81 123.231L211.243 123.446C211.285 123.467 211.324 123.492 211.359 123.523C212.161 124.152 213.025 124.699 213.936 125.155C214.569 125.484 215.185 125.847 215.78 126.241C217.339 127.323 218.899 128.492 220.406 129.71C221.569 130.647 222.702 131.644 223.796 132.607L224.602 133.362C224.9 133.663 225.194 133.968 225.481 134.276C228.148 137.126 230.656 140.12 232.995 143.245C234.142 144.771 235.285 146.377 236.385 148.012C236.929 148.82 237.465 149.635 237.991 150.456L238.18 150.754L238.242 150.859C240.05 154.207 243.11 160.245 243.463 160.99C246.962 168.353 250.217 176.551 253.706 186.741C255.326 191.466 256.839 196.343 258.303 201.027C261.587 211.562 264.981 222.458 269.779 232.565C278.796 251.549 291.313 265.08 308.052 273.927C313.134 276.612 321.484 275.867 326.626 273.596C332.187 271.139 337.348 265.799 339.182 260.604C343.629 248 338.521 236.012 325.852 229.318C325.775 229.276 325.71 229.216 325.663 229.143C325.615 229.069 325.587 228.985 325.581 228.897L325.525 228.857C324.926 228.407 324.352 227.923 323.807 227.407C323.245 226.874 322.65 226.377 322.026 225.918C321.993 225.895 321.963 225.868 321.937 225.838L321.672 225.543C321.524 225.384 321.375 225.212 321.236 225.057C320.113 223.732 318.999 222.325 317.932 220.819C317.924 220.812 317.917 220.803 317.912 220.792C317.822 220.781 317.737 220.747 317.665 220.692C317.593 220.637 317.537 220.565 317.502 220.481C317.502 220.481 317.502 220.481 317.502 220.455C317.065 219.496 316.569 218.566 316.015 217.67C315.635 217.028 315.242 216.346 314.905 215.684C313.339 212.602 311.845 209.264 310.339 205.48C307.001 197.101 304.249 188.36 301.586 179.908C299.256 172.508 296.847 164.857 294.055 157.488C274.16 104.936 244.18 84.1909 222.534 76.0432C219.769 75.0257 216.845 74.5144 213.9 74.5335Z" fill="#242426"/>
<path d="M317.326 218.776C316.005 215.684 316.48 217.121 317.326 218.776V218.776Z" fill="#FC328E"/>
<path d="M317.327 219.314C317.232 219.315 317.139 219.289 317.057 219.239C316.976 219.189 316.911 219.118 316.868 219.033C315.85 217.02 315.916 216.921 316.078 216.685C316.13 216.609 316.202 216.548 316.285 216.509C316.369 216.47 316.462 216.454 316.554 216.464C316.884 216.497 316.884 216.497 317.8 218.596C317.835 218.674 317.849 218.76 317.842 218.845C317.836 218.931 317.807 219.013 317.76 219.085C317.713 219.157 317.649 219.215 317.573 219.255C317.497 219.295 317.413 219.316 317.327 219.314Z" fill="#242426"/>
<path d="M220.968 60.3723C220.751 60.638 220.473 60.8453 220.16 60.9765C219.847 61.1076 219.508 61.1586 219.171 61.1251C218.834 61.0916 218.511 60.9745 218.228 60.784C217.945 60.5936 217.712 60.3354 217.548 60.0317C217.069 59.1975 216.453 58.4547 215.727 57.8362C214.054 56.3903 212.041 55.4894 210.198 54.2175C208.355 52.9457 206.748 51.0909 206.594 48.8501C206.431 46.4351 208.009 44.3078 209.682 42.5817C211.356 40.8557 213.287 39.3037 214.172 37.0629C215.44 33.853 214.245 30.3403 212.697 27.1607C212.558 26.8664 212.487 26.5431 212.489 26.2159C212.491 25.8887 212.566 25.5663 212.708 25.2736C212.851 24.981 213.057 24.7258 213.31 24.528C213.564 24.3301 213.859 24.1948 214.172 24.1325C214.935 23.9966 215.719 24.0391 216.464 24.2566C217.209 24.4742 217.897 24.8613 218.477 25.3892C220.276 27.1077 220.924 29.7952 220.873 32.3162C220.821 34.8372 220.135 37.3051 219.723 39.7882C219.31 42.2714 219.133 44.9059 220.025 47.2603C220.917 49.6147 222.693 51.3862 223.291 53.7557C223.873 56.2464 222.598 58.3434 220.968 60.3723Z" fill="#FDDC68"/>
<path d="M219.464 62.144H219.179C218.641 62.0975 218.122 61.9208 217.666 61.6288C217.211 61.3368 216.832 60.9382 216.562 60.4669C216.144 59.7523 215.606 59.1159 214.973 58.5858C213.985 57.8029 212.932 57.1078 211.824 56.5083C211.015 56.0399 210.205 55.5716 209.44 55.0427C206.914 53.2901 205.43 51.0766 205.272 48.8027C205.115 46.5288 206.247 44.1189 208.758 41.6334C209.058 41.3312 209.373 41.0291 209.68 40.7344C211.09 39.3897 212.409 38.1206 213.061 36.519C214.246 33.5803 212.889 30.2109 211.562 27.6046C211.325 27.1369 211.201 26.6191 211.201 26.0937C211.201 25.5683 211.325 25.0505 211.562 24.5828C211.787 24.1237 212.118 23.7259 212.528 23.4234C212.938 23.1209 213.414 22.9226 213.916 22.8453C214.865 22.676 215.839 22.7239 216.767 22.9854C217.695 23.247 218.552 23.7154 219.276 24.3562C221.158 26.1239 222.155 28.8889 222.08 32.16C221.992 34.0294 221.741 35.8875 221.33 37.7126C221.188 38.4001 221.053 39.0951 220.933 39.7901C220.416 42.7439 220.491 44.8517 221.173 46.5892C221.573 47.5085 222.052 48.3907 222.605 49.2257C223.452 50.4404 224.104 51.7812 224.539 53.1994C225.334 56.259 223.789 58.6991 222.005 60.8824C221.706 61.2747 221.321 61.5924 220.88 61.8112C220.439 62.0299 219.955 62.1438 219.464 62.144ZM214.966 25.1267C214.732 25.1281 214.499 25.1483 214.268 25.1872C214.137 25.2113 214.012 25.2662 213.906 25.3476C213.799 25.4289 213.713 25.5344 213.654 25.6556C213.585 25.7954 213.55 25.9492 213.55 26.105C213.55 26.2609 213.585 26.4147 213.654 26.5545C215.19 29.5764 216.757 33.5954 215.22 37.4104C214.381 39.4879 212.806 40.9913 211.285 42.4493L210.393 43.3105C208.398 45.2898 207.491 47.0349 207.604 48.644C207.746 50.7291 209.643 52.3382 210.76 53.1088C211.51 53.6074 212.259 54.0455 213.009 54.4761C214.236 55.1444 215.403 55.9205 216.495 56.7954C217.338 57.4989 218.054 58.3451 218.609 59.2959C218.684 59.4356 218.792 59.555 218.922 59.6444C219.052 59.7338 219.202 59.7904 219.359 59.8097C219.501 59.818 219.643 59.7922 219.773 59.7344C219.904 59.6766 220.018 59.5885 220.108 59.4773C221.713 57.5131 222.68 55.8057 222.185 53.8793C221.805 52.6961 221.249 51.5779 220.536 50.5629C219.896 49.6108 219.349 48.5989 218.901 47.5411C217.822 44.7308 218.152 41.7467 218.534 39.4502C218.661 38.74 218.804 38.0223 218.946 37.3122C219.348 35.6258 219.599 33.9066 219.696 32.1751C219.756 29.6217 219.006 27.4309 217.634 26.1315C216.904 25.4692 215.956 25.1031 214.973 25.1041L214.966 25.1267Z" fill="#242426"/>
<path d="M226.707 61.3054L213.975 63.187C213.637 63.2369 213.404 63.5516 213.453 63.8898L214.709 72.4188C214.759 72.757 215.073 72.9908 215.41 72.9409L228.143 71.0593C228.48 71.0094 228.714 70.6948 228.664 70.3565L227.408 61.8276C227.359 61.4893 227.045 61.2556 226.707 61.3054Z" fill="#242426"/>
<path d="M214.577 69.1423C214.899 66.6564 213.15 64.3791 210.669 64.0558C208.188 63.7325 205.915 65.4856 205.592 67.9715C205.269 70.4574 207.019 72.7347 209.5 73.058C211.981 73.3814 214.254 71.6282 214.577 69.1423Z" fill="#242426"/>
<path d="M302.569 305.933C294.481 276.289 273.63 248.501 245.884 234.649C236.543 229.984 226.505 226.449 215.918 226.578C204.564 226.717 194.318 230.779 185.436 237.655C170.956 248.862 162.216 265.681 155.39 282.314C148.325 299.53 144.287 328.334 142.288 346.774C141.627 352.734 145.54 360.388 149.594 364.454C153.923 368.788 161.024 372.069 167.239 371.774C191.922 370.665 192.206 334.594 196.489 317.123C198.957 307.055 204.164 278.407 217.864 277.315C233.791 276.047 247.698 299.076 251.829 311.849C251.541 310.886 251.267 309.919 250.976 308.959C255.642 324.241 266.321 342.785 285.143 336.683C298.023 332.508 306.264 319.447 302.569 305.933Z" fill="#F24EB6"/>
<path d="M166.481 372.309C160.593 372.309 153.753 369.362 149.217 364.82C145.099 360.691 141.088 352.947 141.762 346.723C143.956 326.511 148.014 298.899 154.9 282.121C160.917 267.457 169.789 249.109 185.108 237.25C194.518 229.966 204.877 226.202 215.897 226.063C225.133 225.937 234.765 228.529 246.098 234.188C272.8 247.536 294.622 274.959 303.058 305.806C306.663 318.999 298.861 332.782 285.294 337.182C279.376 339.102 273.838 338.748 268.829 336.132C259.672 331.351 254.29 320.174 251.511 312.268C251.428 312.204 251.366 312.116 251.332 312.017C249.531 306.451 245.19 297.254 238.869 289.656C234.067 283.885 226.524 277.154 217.9 277.836C205.865 278.797 200.387 302.531 197.743 313.924C197.459 315.168 197.198 316.287 196.967 317.234C196.154 320.545 195.48 324.568 194.766 328.822C191.759 346.77 187.639 371.352 167.241 372.269C166.994 372.302 166.736 372.309 166.481 372.309ZM216.485 227.089H215.91C205.119 227.225 194.964 230.917 185.736 238.061C170.608 249.771 161.819 267.964 155.852 282.508C149.012 299.184 144.971 326.69 142.8 346.832C142.182 352.527 145.955 360.075 149.96 364.091C154.431 368.568 161.525 371.517 167.218 371.262C186.786 370.382 190.662 347.256 193.775 328.676C194.492 324.392 195.169 320.35 195.992 317.003C196.223 316.056 196.481 314.94 196.769 313.692C199.633 301.171 205.026 277.823 217.807 276.804C233.264 275.575 246.191 296.155 251.127 308.477C251.204 308.503 251.274 308.547 251.331 308.604C251.389 308.662 251.432 308.732 251.458 308.809C253.771 316.397 259.177 329.921 269.301 335.208C274.056 337.691 279.33 338.023 284.973 336.202C298.019 331.974 305.523 318.741 302.063 306.074C293.71 275.509 272.09 248.318 245.642 235.115C234.695 229.658 225.407 227.089 216.485 227.089Z" fill="#242426"/>
<path d="M206.286 74.6462C208.011 72.8153 206.742 69.4748 204.432 68.4815C202.122 67.4883 199.42 68.2564 197.242 69.5112C190.554 73.355 186.999 81.9762 189.061 89.4253C189.341 90.4517 190.247 91.6038 191.274 91.8852C192.302 92.1666 193.389 92.011 194.43 91.8091C198.544 91.0013 202.658 89.3426 205.43 86.1808C208.202 83.019 208.364 78.2913 206.286 74.6462Z" fill="#F24EB6"/>
<path d="M192.492 92.5587C192.032 92.5633 191.574 92.5054 191.13 92.3865C189.865 92.0555 188.86 90.6749 188.556 89.5658C186.438 81.8584 190.053 73.0617 196.992 69.0689C198.605 68.1386 201.747 66.7514 204.641 68.0128C205.369 68.3508 206.007 68.8547 206.505 69.4842C207.003 70.1138 207.347 70.8514 207.51 71.6381C207.638 72.1645 207.65 72.7126 207.546 73.2443C207.441 73.776 207.223 74.2785 206.905 74.7171C208.973 78.6337 208.557 83.4475 205.814 86.5464C203.293 89.4069 199.497 91.3503 194.527 92.3236C193.858 92.4675 193.176 92.5462 192.492 92.5587ZM202.12 68.5458C200.293 68.5458 198.535 69.3603 197.494 69.9628C190.965 73.7139 187.552 82.0239 189.564 89.291C189.792 90.122 190.555 91.1583 191.418 91.3933C192.373 91.6549 193.427 91.486 194.342 91.3072C199.084 90.3802 202.685 88.5461 205.054 85.8577C207.569 83.0006 207.896 78.498 205.848 74.9058C205.793 74.8098 205.771 74.6988 205.784 74.5892C205.797 74.4796 205.845 74.377 205.92 74.2966C206.213 73.969 206.42 73.5735 206.522 73.1458C206.624 72.718 206.618 72.2716 206.505 71.8467C206.374 71.2233 206.101 70.6385 205.708 70.1379C205.315 69.6372 204.812 69.234 204.238 68.9597C203.568 68.6773 202.847 68.5364 202.12 68.5458Z" fill="#242426"/>
<path d="M237.087 133.504L216.452 136.553C216.28 136.577 216.107 136.532 215.967 136.429C215.828 136.325 215.735 136.172 215.709 136L206.162 71.1559C206.139 70.9835 206.184 70.8088 206.288 70.6694C206.391 70.53 206.546 70.4371 206.718 70.4109L227.353 67.3617C227.524 67.3379 227.698 67.3825 227.837 67.4859C227.976 67.5893 228.069 67.7433 228.096 67.9146L237.642 132.759C237.666 132.931 237.621 133.106 237.517 133.245C237.413 133.385 237.259 133.478 237.087 133.504Z" fill="#67518B"/>
<path d="M217.517 136.761C216.935 136.76 216.374 136.551 215.934 136.17C215.493 135.79 215.204 135.264 215.118 134.688L205.978 72.5853C205.886 71.9485 206.05 71.3012 206.433 70.785C206.817 70.2688 207.388 69.9257 208.023 69.8308L225.923 67.1822C226.558 67.0884 227.205 67.2512 227.72 67.6349C228.236 68.0186 228.578 68.5917 228.672 69.2282L237.815 131.325C237.907 131.962 237.743 132.61 237.36 133.126C236.977 133.643 236.405 133.987 235.77 134.083L217.87 136.731C217.753 136.749 217.635 136.759 217.517 136.761ZM226.276 67.9304C226.196 67.9305 226.115 67.9371 226.035 67.9503L208.136 70.5989C207.921 70.6305 207.714 70.7042 207.528 70.8158C207.342 70.9275 207.179 71.0748 207.049 71.2495C206.92 71.4242 206.826 71.6227 206.773 71.8337C206.72 72.0447 206.71 72.2642 206.741 72.4794L215.881 134.582C215.913 134.798 215.986 135.005 216.098 135.191C216.209 135.378 216.356 135.541 216.53 135.671C216.705 135.801 216.903 135.895 217.113 135.948C217.324 136.001 217.543 136.011 217.758 135.98L235.657 133.331C235.872 133.299 236.079 133.226 236.265 133.114C236.451 133.002 236.614 132.855 236.744 132.68C236.873 132.506 236.967 132.307 237.02 132.096C237.073 131.885 237.083 131.666 237.052 131.45L227.909 69.3441C227.851 68.9516 227.654 68.5929 227.355 68.3334C227.055 68.074 226.672 67.9309 226.276 67.9304Z" fill="#242426"/>
<path d="M437.396 373.886C436.692 360.312 424.886 349.618 408.92 349.297L178.723 344.642L113.414 343.318C98.5113 343.017 84.2599 354.843 84.9373 367.907C85.6411 381.481 97.444 392.172 113.414 392.496L343.607 397.151L408.92 398.475C423.822 398.773 438.073 386.947 437.396 373.886Z" fill="#F24EB6"/>
<path d="M409.471 399H408.902L113.396 393.041C97.3408 392.71 85.1513 382.168 84.4144 367.962C84.1269 362.423 86.4532 356.805 90.9635 352.14C93.891 349.158 97.3876 346.797 101.245 345.198C105.103 343.6 109.242 342.795 113.416 342.833L408.922 348.793C424.978 349.124 437.164 359.665 437.901 373.868C438.188 379.407 435.865 385.029 431.355 389.69C428.499 392.61 425.095 394.935 421.34 396.533C417.584 398.131 413.551 398.969 409.471 399ZM112.845 343.836C108.902 343.868 105.004 344.679 101.375 346.224C97.7456 347.769 94.4568 350.017 91.6971 352.838C87.4015 357.295 85.1645 362.638 85.4387 367.889C86.1459 381.539 97.9124 391.677 113.413 391.988L408.919 397.947C416.922 398.136 425.011 394.746 430.611 388.952C434.907 384.496 437.144 379.149 436.89 373.901C436.179 360.248 424.416 350.114 408.915 349.799L113.39 343.843L112.845 343.836Z" fill="#242426"/>
<path d="M238.208 111.28C247.053 104.122 248.96 92.9154 241.842 83.8009C233.767 73.4283 218.313 69.4356 206.08 73.7627C195.625 77.4608 187.507 87.744 187.434 98.8549C187.374 108.125 194.617 120.219 204.616 121.454C214.562 122.669 228.883 118.829 238.208 111.28Z" fill="#F24EB6"/>
<path d="M208.577 122.206C207.236 122.21 205.897 122.131 204.566 121.971C194.56 120.733 186.871 108.53 186.934 98.8555C187.007 87.9035 194.993 77.1502 205.927 73.28C218.612 68.7939 234.235 73.1773 242.274 83.487C249.359 92.5849 247.825 104.189 238.547 111.698C230.637 118.101 218.632 122.206 208.577 122.206ZM216.438 72.545C212.976 72.5307 209.537 73.1062 206.267 74.2467C195.73 77.9746 188.031 88.324 187.962 98.8555C187.902 108.106 195.198 119.77 204.691 120.942C215.133 122.233 229.103 118.005 237.889 110.89C246.709 103.755 248.172 92.7439 241.451 84.116C235.742 76.7861 226.07 72.5516 216.438 72.5516V72.545Z" fill="#242426"/>
<path d="M266.525 349.621C293.264 372.038 343.542 383.059 367.191 388.31C408.709 397.544 459.278 393.869 500.231 382.371C541.185 370.872 589.117 353.61 608.708 315.778C628.299 277.946 630.82 219.465 604.449 186.03C578.077 152.595 512.034 140.52 476.292 163.616C484.949 146.841 474.97 121.103 460.312 109.214C445.654 97.325 425.7 94.0474 406.885 92.8588C376.201 90.9187 351.023 101.536 328.144 122.116C310.178 138.276 291.549 169.589 288.251 193.555C284.953 217.522 288.466 232.811 290.805 256.887C274.978 267.249 262.752 279.519 254.296 296.463C243.078 318.986 250.655 336.315 266.525 349.621Z" fill="#F24EB6"/>
<path d="M418.666 394.043C400.443 394.043 382.897 392.308 367.08 388.792L366.389 388.64C342.496 383.343 292.773 372.275 266.196 349.994C247.884 334.632 243.717 316.535 253.832 296.197C261.732 280.336 273.327 267.745 290.258 256.594C289.753 251.426 289.198 246.698 288.659 242.123C286.703 225.414 285.153 212.214 287.737 193.455C291.246 167.939 310.867 136.934 327.795 121.701C351.83 100.082 377.706 90.4707 406.913 92.3115C423.798 93.3875 445.15 96.2281 460.637 108.809C474.985 120.456 484.854 145.313 477.509 162.241C513.589 140.39 578.366 152.123 604.853 185.704C617.178 201.331 624.091 223.894 624.325 249.244C624.537 272.645 619.012 296.979 609.168 316.009C589.802 353.44 543.301 370.808 500.371 382.86C473.761 390.245 446.279 394.006 418.666 394.043ZM266.857 349.206C293.242 371.325 342.796 382.34 366.61 387.634L367.301 387.786C406.318 396.463 455.958 394.242 500.094 381.853C542.812 369.858 589.068 352.599 608.253 315.519C632.477 268.702 625.138 213.068 604.047 186.327C591.689 170.66 569.167 158.616 543.796 154.11C517.937 149.518 493.432 153.133 476.571 164.042C476.475 164.104 476.362 164.132 476.249 164.123C476.136 164.113 476.03 164.066 475.946 163.989C475.862 163.913 475.806 163.81 475.786 163.699C475.766 163.587 475.782 163.471 475.834 163.37C484.349 146.873 474.492 121.38 459.993 109.607C444.734 97.2213 423.58 94.4204 406.857 93.3643C377.554 91.5169 352.64 100.767 328.489 122.499C311.693 137.609 292.241 168.343 288.761 193.624C286.197 212.257 287.737 225.407 289.69 242.037C290.235 246.708 290.803 251.539 291.319 256.836C291.328 256.929 291.311 257.024 291.27 257.108C291.229 257.193 291.166 257.265 291.088 257.316C274.16 268.407 262.615 280.918 254.74 296.691C244.877 316.512 248.948 334.188 266.857 349.206Z" fill="#242426"/>
<path d="M399.457 287.068C397.673 286.78 395.74 286.856 394.392 287.542C393.044 288.227 392.472 289.618 393.401 290.727C394.154 291.624 395.641 292.14 397.058 292.475C398.572 292.833 400.113 293.06 401.665 293.153C402.887 293.226 404.166 293.203 405.134 292.786C406.102 292.369 406.611 291.624 406.525 290.829C406.301 288.644 402.078 287.492 399.457 287.068Z" fill="#242426"/>
<path d="M386.434 212.027C383.391 210.991 380.361 209.852 377.387 208.631C368.616 205.176 360.097 201.112 351.891 196.47C348.226 194.427 344.621 192.252 341.086 189.984C335.801 192.797 331.435 197.074 328.51 202.305C325.585 207.536 324.224 213.5 324.59 219.484C324.955 225.469 327.032 231.222 330.573 236.056C334.113 240.891 338.967 244.602 344.555 246.747C349.72 248.739 355.32 249.319 360.781 248.425C366.243 247.532 371.369 245.198 375.632 241.663C379.896 238.128 383.143 233.52 385.042 228.312C386.94 223.104 387.421 217.483 386.434 212.027Z" fill="white"/>
<path d="M355.74 249.344C348.67 249.336 341.804 246.961 336.234 242.596C330.664 238.232 326.71 232.128 324.998 225.254C323.286 218.38 323.916 211.13 326.787 204.655C329.658 198.181 334.606 192.853 340.845 189.518C340.924 189.475 341.014 189.454 341.105 189.457C341.196 189.461 341.284 189.489 341.36 189.538C345.19 191.982 348.715 194.097 352.139 196.011C360.329 200.638 368.831 204.691 377.582 208.138C380.556 209.36 383.586 210.499 386.606 211.528C386.691 211.559 386.766 211.611 386.824 211.68C386.882 211.75 386.921 211.833 386.936 211.922C387.752 216.496 387.558 221.194 386.368 225.685C385.178 230.177 383.02 234.352 380.047 237.918C377.073 241.484 373.356 244.354 369.157 246.326C364.958 248.298 360.378 249.325 355.74 249.334V249.344ZM341.063 190.568C336.108 193.268 331.992 197.284 329.166 202.174C326.34 207.065 324.914 212.641 325.044 218.291C325.175 223.94 326.856 229.444 329.904 234.199C332.952 238.954 337.249 242.775 342.322 245.243C347.396 247.711 353.05 248.731 358.665 248.19C364.279 247.649 369.635 245.568 374.147 242.177C378.658 238.785 382.149 234.213 384.237 228.964C386.324 223.714 386.928 217.99 385.981 212.419C383.037 211.426 380.08 210.297 377.192 209.108C368.401 205.64 359.862 201.564 351.636 196.908C348.273 195.031 344.81 192.955 341.063 190.568Z" fill="#242426"/>
<path d="M379.016 226.401C377.93 229.234 376.28 231.816 374.166 233.99C372.051 236.163 369.517 237.882 366.718 239.041C363.919 240.201 360.913 240.777 357.884 240.734C354.856 240.692 351.867 240.031 349.102 238.793C338.859 234.217 333.545 222.381 336.949 211.661C338.104 208.011 340.175 204.719 342.964 202.1C345.752 199.481 349.165 197.623 352.875 196.703C361.082 201.345 369.601 205.409 378.371 208.864C379.653 211.592 380.371 214.552 380.481 217.566C380.592 220.58 380.093 223.585 379.016 226.401Z" fill="#242426"/>
<path d="M396.082 215.104C392.847 214.153 389.612 213.117 386.43 212.031L396.082 215.104Z" fill="white"/>
<path d="M396.083 215.623C396.034 215.623 395.985 215.616 395.938 215.603C392.73 214.657 389.475 213.617 386.266 212.521C386.2 212.501 386.139 212.467 386.087 212.422C386.034 212.377 385.991 212.322 385.96 212.261C385.929 212.199 385.911 212.131 385.907 212.062C385.903 211.993 385.913 211.924 385.936 211.859C385.957 211.793 385.991 211.733 386.036 211.681C386.081 211.628 386.136 211.586 386.197 211.555C386.259 211.524 386.326 211.506 386.394 211.501C386.463 211.497 386.532 211.506 386.597 211.528C389.789 212.624 393.027 213.653 396.225 214.594C396.333 214.637 396.422 214.715 396.48 214.816C396.537 214.916 396.559 215.033 396.543 215.148C396.526 215.262 396.471 215.368 396.387 215.447C396.303 215.527 396.195 215.576 396.08 215.587L396.083 215.623Z" fill="#242426"/>
<path d="M341.08 189.997C339.28 188.828 337.485 187.633 335.711 186.395L341.08 189.997Z" fill="white"/>
<path d="M341.081 190.484C340.982 190.484 340.886 190.455 340.803 190.401C338.781 189.077 337.016 187.905 335.417 186.789C335.31 186.709 335.239 186.59 335.218 186.458C335.196 186.326 335.227 186.191 335.303 186.081C335.379 185.971 335.495 185.895 335.626 185.869C335.757 185.843 335.893 185.869 336.005 185.942C337.595 187.054 339.349 188.229 341.362 189.537C341.456 189.597 341.528 189.686 341.567 189.79C341.607 189.895 341.611 190.01 341.579 190.117C341.547 190.224 341.481 190.318 341.391 190.384C341.301 190.45 341.192 190.485 341.081 190.484Z" fill="#242426"/>
<path d="M526.105 282.098C523.062 281.061 520.029 279.922 517.055 278.701C508.285 275.246 499.767 271.183 491.562 266.54C487.898 264.498 484.293 262.323 480.757 260.055C474.109 263.566 468.968 269.387 466.298 276.426C464.562 280.93 463.891 285.776 464.337 290.583C464.784 295.39 466.335 300.028 468.87 304.134C471.405 308.24 474.854 311.702 478.948 314.248C483.042 316.795 487.669 318.357 492.466 318.812C497.263 319.267 502.1 318.602 506.598 316.87C511.096 315.139 515.132 312.387 518.391 308.83C521.649 305.274 524.042 301.009 525.38 296.371C526.719 291.733 526.967 286.848 526.105 282.098Z" fill="white"/>
<path d="M495.366 319.421C488.293 319.419 481.423 317.048 475.85 312.683C470.277 308.318 466.321 302.212 464.612 295.335C462.902 288.458 463.537 281.206 466.416 274.732C469.294 268.258 474.25 262.935 480.497 259.609C480.577 259.567 480.667 259.547 480.757 259.551C480.848 259.555 480.936 259.583 481.012 259.632C484.838 262.072 488.364 264.188 491.791 266.101C499.98 270.732 508.482 274.786 517.234 278.232C520.208 279.45 523.234 280.593 526.261 281.622C526.346 281.653 526.421 281.706 526.479 281.775C526.537 281.844 526.576 281.927 526.591 282.016C527.42 286.596 527.234 291.302 526.046 295.802C524.858 300.301 522.696 304.484 519.715 308.053C516.735 311.623 513.007 314.492 508.796 316.458C504.585 318.423 499.995 319.437 495.349 319.428L495.366 319.421ZM480.731 260.662C475.778 263.362 471.663 267.378 468.838 272.268C466.014 277.158 464.588 282.733 464.719 288.382C464.849 294.03 466.531 299.533 469.578 304.287C472.626 309.041 476.922 312.861 481.995 315.329C487.068 317.797 492.721 318.816 498.334 318.276C503.947 317.735 509.303 315.655 513.814 312.264C518.324 308.874 521.815 304.303 523.903 299.055C525.991 293.806 526.596 288.083 525.65 282.513C522.699 281.5 519.742 280.387 516.857 279.202C508.068 275.738 499.53 271.666 491.305 267.015C487.938 265.121 484.462 263.046 480.731 260.662Z" fill="#242426"/>
<path d="M518.691 296.484C517.606 299.317 515.956 301.899 513.842 304.072C511.728 306.246 509.194 307.965 506.395 309.124C503.596 310.284 500.591 310.86 497.562 310.817C494.534 310.774 491.546 310.114 488.781 308.876C478.537 304.3 473.221 292.461 476.624 281.727C477.78 278.077 479.852 274.785 482.641 272.166C485.43 269.547 488.843 267.689 492.554 266.77C500.76 271.412 509.28 275.475 518.05 278.93C519.333 281.661 520.052 284.624 520.162 287.641C520.272 290.658 519.772 293.666 518.691 296.484Z" fill="#242426"/>
<path d="M535.754 285.182C532.519 284.232 529.287 283.195 526.105 282.109L535.754 285.182Z" fill="white"/>
<path d="M535.755 285.697C535.706 285.697 535.657 285.689 535.61 285.673C532.388 284.727 529.137 283.687 525.942 282.595C525.878 282.573 525.819 282.539 525.768 282.494C525.718 282.45 525.676 282.395 525.646 282.335C525.617 282.274 525.599 282.208 525.595 282.141C525.59 282.074 525.599 282.006 525.621 281.942C525.643 281.878 525.677 281.819 525.721 281.769C525.766 281.718 525.82 281.676 525.88 281.647C525.941 281.617 526.006 281.599 526.074 281.595C526.141 281.59 526.208 281.599 526.272 281.621C529.454 282.71 532.692 283.743 535.901 284.687C536.008 284.73 536.097 284.808 536.155 284.909C536.212 285.009 536.235 285.126 536.218 285.241C536.201 285.355 536.146 285.461 536.062 285.541C535.979 285.62 535.87 285.669 535.755 285.68V285.697Z" fill="#242426"/>
<path d="M480.756 260.079C478.951 258.91 477.161 257.715 475.383 256.477L480.756 260.079Z" fill="white"/>
<path d="M480.768 260.597C480.668 260.597 480.57 260.569 480.487 260.514C478.461 259.19 476.7 258.015 475.101 256.902C474.994 256.822 474.922 256.703 474.901 256.571C474.88 256.439 474.911 256.304 474.987 256.194C475.063 256.084 475.179 256.009 475.31 255.983C475.441 255.957 475.577 255.982 475.689 256.055C477.278 257.164 479.03 258.339 481.045 259.65C481.139 259.71 481.211 259.799 481.251 259.903C481.29 260.007 481.294 260.122 481.263 260.229C481.232 260.336 481.166 260.429 481.077 260.496C480.988 260.562 480.879 260.598 480.768 260.597Z" fill="#242426"/>
<path d="M523.34 361.128C526.942 364.055 540.959 377.02 544.283 380.248C541.944 380.844 539.591 381.395 537.225 381.903C533.283 382.734 529.318 383.366 525.33 384.015L523.056 384.284C520.549 384.564 518.039 384.811 515.526 385.025C477.9 388.266 439.937 385.71 402.757 393.696C391.311 396.156 379.891 399.609 370.517 406.866C357.016 417.318 350.662 433.64 354.567 450.436C357.475 462.944 372.447 471.535 384.683 467.569C395.359 464.106 402.103 455.057 402.479 444.533C403.14 444.291 403.702 444.082 403.801 444.052C412.343 441.404 421.069 440.202 429.809 438.553L432.565 438.245C434.805 438.009 437.048 437.798 439.293 437.613C443.796 437.236 448.307 436.951 452.82 436.726C462.158 436.256 471.509 436.034 480.857 435.772C500.805 435.213 520.628 434.147 540.368 431.018C549.47 429.623 558.447 427.507 567.215 424.688C578.955 420.847 590.89 415.371 597.614 404.376C613.805 377.834 587.89 352.1 568.507 336.341C563.303 332.106 558.158 329.156 551.196 329.156" fill="#F24EB6"/>
<path d="M378.371 469.065C374.014 469.024 369.742 467.858 365.967 465.678C359.84 462.208 355.512 456.699 354.071 450.561C350.169 433.789 356.202 417.305 370.206 406.465C380.119 398.788 392.173 395.45 402.651 393.199C426.686 388.038 451.449 387.26 475.395 386.508C488.549 386.094 502.159 385.667 515.486 384.522C518.076 384.3 520.604 384.048 523 383.78C523.627 383.71 524.252 383.634 524.876 383.561L526.066 383.383C529.701 382.793 533.445 382.181 537.106 381.396C539.131 380.969 541.193 380.496 543.245 379.986C539.098 376.013 526.416 364.309 523.003 361.535C522.951 361.492 522.907 361.438 522.876 361.378C522.844 361.318 522.824 361.252 522.818 361.184C522.812 361.116 522.819 361.048 522.839 360.983C522.859 360.918 522.892 360.857 522.935 360.805C522.979 360.753 523.032 360.709 523.092 360.678C523.152 360.646 523.218 360.626 523.285 360.62C523.353 360.614 523.421 360.621 523.486 360.641C523.551 360.661 523.611 360.694 523.664 360.737C527.299 363.694 541.424 376.761 544.639 379.887C544.706 379.95 544.754 380.03 544.778 380.119C544.802 380.208 544.802 380.301 544.778 380.39C544.755 380.479 544.708 380.56 544.643 380.624C544.578 380.689 544.497 380.735 544.408 380.757C542.049 381.36 539.666 381.913 537.33 382.413C533.649 383.187 529.882 383.8 526.244 384.399L525.012 384.584L523.128 384.806C520.723 385.074 518.172 385.323 515.585 385.548C502.226 386.7 488.609 387.127 475.441 387.534C451.538 388.283 426.825 389.061 402.879 394.202C392.513 396.43 380.605 399.728 370.847 407.276C357.171 417.871 351.279 433.958 355.086 450.316C356.447 456.176 360.597 461.444 366.472 464.771C372.294 468.082 378.88 468.909 384.54 467.088C394.922 463.721 401.603 455.077 401.983 444.526C401.986 444.424 402.019 444.325 402.078 444.242C402.136 444.159 402.219 444.095 402.314 444.059L402.935 443.83L403.652 443.569C410.237 441.513 417.048 440.314 423.636 439.156C425.662 438.798 427.691 438.44 429.72 438.06L430.81 437.934L432.512 437.745C434.666 437.517 436.87 437.308 439.252 437.11C443.452 436.759 447.88 436.467 452.8 436.222C460.853 435.815 469.044 435.59 476.968 435.375L480.85 435.265C498.561 434.769 519.474 433.819 540.291 430.518C549.367 429.135 558.317 427.024 567.056 424.208C577.435 420.814 590.239 415.461 597.164 404.118C609.192 384.422 599.709 362.386 568.173 336.747C563.666 333.076 558.488 329.662 551.195 329.662C551.066 329.652 550.945 329.593 550.858 329.498C550.77 329.403 550.721 329.277 550.721 329.148C550.721 329.018 550.77 328.893 550.858 328.797C550.945 328.702 551.066 328.643 551.195 328.633C558.795 328.633 564.168 332.142 568.83 335.933C600.836 361.952 610.395 384.426 598.05 404.638C590.949 416.268 577.93 421.721 567.383 425.164C558.591 427.997 549.586 430.119 540.456 431.511C519.58 434.822 498.627 435.775 480.88 436.272L477.001 436.381C469.07 436.596 460.895 436.821 452.856 437.225C447.953 437.474 443.531 437.762 439.345 438.113C436.969 438.311 434.772 438.517 432.627 438.745C432.062 438.805 431.497 438.871 430.935 438.934L429.875 439.053C427.892 439.43 425.85 439.788 423.818 440.145C417.266 441.301 410.489 442.493 403.966 444.529C403.9 444.549 403.635 444.645 403.305 444.774L403.001 444.886C402.476 455.564 395.401 464.632 384.864 468.062C382.765 468.735 380.574 469.073 378.371 469.065Z" fill="#242426"/>
<path d="M411.264 281.325C403.47 281.325 395.672 278.829 389.476 273.998C389.418 273.959 389.368 273.907 389.33 273.848C389.292 273.788 389.267 273.721 389.256 273.651C389.245 273.581 389.249 273.509 389.267 273.441C389.284 273.372 389.316 273.308 389.36 273.253C389.403 273.197 389.458 273.151 389.52 273.117C389.582 273.083 389.651 273.063 389.721 273.057C389.791 273.051 389.862 273.059 389.929 273.081C389.996 273.104 390.058 273.14 390.11 273.187C400.208 281.064 414.714 282.553 426.197 276.885C426.319 276.825 426.46 276.816 426.589 276.86C426.718 276.904 426.824 276.998 426.884 277.121C426.944 277.243 426.953 277.384 426.909 277.514C426.865 277.643 426.772 277.749 426.649 277.809C421.856 280.143 416.593 281.346 411.264 281.325Z" fill="#242426"/>
<path d="M431.43 289.546C431.308 289.544 431.19 289.497 431.1 289.414C425.023 283.905 424.019 273.688 428.909 267.103C428.994 267.005 429.113 266.943 429.242 266.929C429.371 266.915 429.5 266.95 429.604 267.027C429.708 267.104 429.78 267.218 429.804 267.346C429.828 267.473 429.803 267.605 429.735 267.715C425.145 273.897 426.1 283.484 431.787 288.649C431.864 288.718 431.919 288.808 431.944 288.908C431.969 289.009 431.964 289.114 431.928 289.211C431.892 289.308 431.828 289.392 431.744 289.452C431.66 289.512 431.56 289.545 431.456 289.546H431.43Z" fill="#242426"/>
<path d="M481.93 332.384C495.616 316.519 516.585 307.223 537.508 307.769L481.93 332.384Z" fill="#F24EB6"/>
<path d="M481.937 332.917C481.838 332.917 481.742 332.889 481.659 332.835C481.576 332.782 481.51 332.706 481.469 332.616C481.428 332.526 481.413 332.426 481.427 332.328C481.441 332.23 481.483 332.138 481.547 332.063C495.409 315.993 516.365 306.733 537.529 307.272C537.596 307.274 537.662 307.289 537.724 307.316C537.785 307.344 537.841 307.383 537.887 307.432C537.933 307.481 537.97 307.538 537.994 307.601C538.018 307.664 538.029 307.731 538.028 307.799C538.028 307.867 538.015 307.935 537.988 307.997C537.962 308.06 537.923 308.117 537.873 308.164C537.824 308.211 537.766 308.248 537.702 308.272C537.638 308.295 537.57 308.306 537.502 308.302C516.612 307.762 495.99 316.91 482.321 332.739C482.273 332.794 482.214 332.838 482.148 332.869C482.082 332.9 482.01 332.916 481.937 332.917Z" fill="#242426"/>
<path d="M532.55 337.007C532.45 337.007 532.352 336.977 532.269 336.921C532.186 336.866 532.121 336.787 532.081 336.696C532.042 336.604 532.03 336.502 532.046 336.404C532.063 336.305 532.109 336.213 532.176 336.14C534.632 333.539 537.798 331.72 541.28 330.912C541.348 330.888 541.42 330.879 541.492 330.884C541.564 330.89 541.633 330.911 541.697 330.946C541.76 330.98 541.815 331.028 541.859 331.085C541.902 331.143 541.933 331.209 541.95 331.279C541.966 331.35 541.968 331.423 541.954 331.494C541.94 331.565 541.912 331.632 541.87 331.691C541.829 331.75 541.775 331.8 541.713 331.837C541.652 331.874 541.583 331.897 541.511 331.906C538.226 332.667 535.237 334.381 532.92 336.835C532.873 336.888 532.816 336.93 532.753 336.96C532.689 336.989 532.62 337.006 532.55 337.007Z" fill="#242426"/>
<path d="M107.146 343.152C106.736 343.536 106.184 343.556 105.163 343.953C95.6569 347.615 93.3175 358.1 94.203 367.297C94.6856 372.145 95.8989 376.891 97.8014 381.374C98.6231 383.429 99.6435 385.398 100.848 387.254C101.79 388.645 105.206 391.33 104.694 393.121C104.314 394.445 99.9789 395.822 98.7993 396.309C93.5553 398.454 87.9666 399.63 82.3043 399.779C78.3821 399.885 70.2535 400.05 67.739 396.246C66.599 394.521 67.2367 389.436 67.1078 387.479C66.2135 373.903 65.3202 360.329 64.4281 346.757L60.0664 280.426L60.1655 280.403C66.0505 279.079 72.4839 279.287 78.3127 280.734C90.7038 283.823 99.3181 293.315 103.587 305.128C107.222 315.159 108.091 326.075 107.929 336.672C107.906 338.225 108.259 340.586 107.751 342.046C107.64 342.457 107.432 342.836 107.146 343.152Z" fill="white"/>
<path d="M79.7458 400.354C75.4502 400.354 69.5025 399.89 67.3018 396.546C66.3964 395.179 66.4923 392.176 66.5683 389.766C66.5947 388.852 66.6211 388.061 66.5683 387.528L59.54 280.461C59.5326 280.341 59.5675 280.222 59.6388 280.124C59.71 280.027 59.813 279.958 59.9299 279.928L60.039 279.902C65.7918 278.604 72.3243 278.723 78.4241 280.233C90.0816 283.14 99.4228 292.152 104.055 304.951C107.234 313.738 108.625 323.822 108.427 336.678C108.427 337.125 108.447 337.638 108.473 338.178C108.539 339.542 108.615 341.088 108.222 342.213C108.09 342.704 107.836 343.154 107.485 343.521C107.124 343.821 106.695 344.028 106.236 344.124C105.982 344.2 105.684 344.293 105.324 344.432C93.8452 348.848 94.2813 363.008 94.6911 367.243C95.1643 372.039 96.3643 376.734 98.2498 381.168C99.0656 383.194 100.074 385.138 101.26 386.971C101.639 387.47 102.05 387.942 102.493 388.385C103.956 389.945 105.618 391.696 105.172 393.269C104.812 394.517 102.314 395.543 99.783 396.483C99.4526 396.609 99.175 396.712 98.98 396.791C93.6772 398.957 88.0277 400.146 82.3033 400.301C81.5797 400.33 80.7073 400.354 79.7458 400.354ZM60.6007 280.835L67.6124 387.465C67.6488 388.047 67.6124 388.859 67.5959 389.802C67.5265 391.948 67.434 394.884 68.1609 395.98C70.5499 399.595 78.7743 399.377 82.2835 399.291C87.8831 399.139 93.4096 397.976 98.5968 395.858C98.795 395.775 99.0858 395.669 99.4294 395.526C100.665 395.066 103.946 393.845 104.191 392.99C104.475 391.997 102.902 390.322 101.749 389.1C101.274 388.616 100.833 388.101 100.427 387.558C99.2036 385.669 98.1635 383.666 97.3213 381.578C95.3951 377.045 94.1695 372.245 93.6866 367.342C92.5532 355.552 96.7728 346.63 104.974 343.472C105.364 343.323 105.684 343.227 105.965 343.14C106.271 343.085 106.559 342.959 106.808 342.773C107.032 342.516 107.192 342.21 107.277 341.879C107.608 340.942 107.535 339.502 107.472 338.237C107.446 337.674 107.419 337.138 107.426 336.675C107.621 323.941 106.249 313.976 103.13 305.312C98.5472 292.655 89.7016 284.107 78.2126 281.243C72.4466 279.787 66.4281 279.647 60.6007 280.832V280.835Z" fill="#242426"/>
<path d="M59.2625 393.897L51.2529 284.142C50.8333 278.368 54.3292 273.366 59.0279 273.021C63.7266 272.69 67.9131 277.117 68.3361 282.891L72.2682 336.796L76.3457 392.645C76.7653 398.416 73.2694 403.422 68.5707 403.766C63.872 404.11 59.6855 399.667 59.2625 393.897Z" fill="#FFA9D8"/>
<path d="M68.0541 404.296C65.8204 404.296 63.6693 403.303 61.9412 401.475C60.0477 399.4 58.9222 396.737 58.7526 393.93L50.743 284.175C50.3002 278.107 54.001 272.869 59.0037 272.505C61.4158 272.326 63.7982 273.319 65.6717 275.306C67.5652 277.38 68.6908 280.042 68.8604 282.848L76.87 392.602C77.3128 398.674 73.612 403.912 68.6093 404.276C68.4242 404.289 68.2392 404.296 68.0541 404.296ZM59.5423 273.515C59.3837 273.515 59.2119 273.515 59.0632 273.515C54.6387 273.846 51.3642 278.58 51.764 284.083L59.7802 393.87C59.9294 396.441 60.9561 398.881 62.688 400.783C64.3401 402.538 66.4119 403.432 68.5366 403.266C72.961 402.935 76.2356 398.201 75.8357 392.695L67.8228 282.924C67.6742 280.352 66.6463 277.91 64.9118 276.008C63.3819 274.389 61.4918 273.515 59.5423 273.515Z" fill="#242426"/>
<path d="M298.105 284.259C298.017 284.259 297.93 284.236 297.853 284.193C297.776 284.149 297.711 284.087 297.666 284.011C293.102 276.363 290.684 267.5 290.274 256.902C290.271 256.835 290.282 256.767 290.305 256.704C290.329 256.64 290.365 256.582 290.411 256.533C290.457 256.483 290.512 256.443 290.574 256.415C290.635 256.387 290.702 256.372 290.769 256.369C290.838 256.363 290.906 256.371 290.971 256.393C291.036 256.415 291.096 256.45 291.146 256.497C291.196 256.543 291.236 256.6 291.263 256.663C291.289 256.726 291.303 256.794 291.301 256.863C291.705 267.282 294.074 275.989 298.548 283.481C298.582 283.539 298.605 283.603 298.615 283.67C298.625 283.737 298.621 283.805 298.605 283.871C298.588 283.936 298.559 283.998 298.519 284.052C298.478 284.106 298.427 284.152 298.369 284.186C298.29 284.235 298.198 284.26 298.105 284.259Z" fill="#242426"/>
<path d="M462.346 178.409C462.256 178.409 462.168 178.386 462.09 178.341C462.012 178.296 461.947 178.231 461.902 178.154C461.856 178.076 461.832 177.987 461.832 177.897C461.832 177.807 461.855 177.719 461.9 177.641C465.357 171.564 470.339 166.497 476.353 162.944C476.411 162.904 476.477 162.875 476.546 162.862C476.616 162.848 476.688 162.848 476.757 162.863C476.827 162.879 476.892 162.908 476.949 162.95C477.007 162.991 477.055 163.044 477.091 163.106C477.127 163.167 477.15 163.235 477.159 163.306C477.168 163.376 477.161 163.448 477.141 163.516C477.121 163.584 477.087 163.647 477.041 163.702C476.995 163.756 476.938 163.8 476.875 163.831C471.016 167.294 466.161 172.23 462.792 178.15C462.747 178.229 462.682 178.295 462.604 178.34C462.525 178.386 462.436 178.409 462.346 178.409Z" fill="#242426"/>
<path d="M587.104 220.769C588.356 228.159 587.957 235.744 587.52 243.226C587.273 247.477 587.022 251.834 588.016 255.962C589.011 260.091 591.529 264.014 595.051 265.11C598.663 266.236 602.538 264.09 604.861 260.726C607.184 257.363 608.209 252.993 608.774 248.675C611.014 231.565 606.619 213.25 597.05 199.822C594.929 196.842 592.497 194.035 589.5 192.422C586.503 190.81 582.845 190.555 580.079 192.548C574.948 196.246 577.039 200.365 579.881 204.099C583.641 208.964 586.124 214.695 587.104 220.769Z" fill="white"/>
<path d="M560.4 184.608C561.189 185.984 562.355 187.107 563.761 187.842C565.166 188.577 566.751 188.894 568.33 188.756C569.901 188.567 571.381 187.916 572.582 186.885C573.784 185.854 574.653 184.488 575.081 182.962C575.45 181.421 575.336 179.802 574.755 178.328C574.174 176.854 573.153 175.594 571.833 174.722C565.654 170.861 556.504 177.632 560.4 184.608Z" fill="white"/>
<path d="M322.09 237.151C322 237.151 321.912 237.128 321.834 237.083C321.757 237.038 321.692 236.974 321.647 236.896C318.702 231.816 317.388 225.951 317.884 220.097C317.889 220.03 317.907 219.964 317.938 219.903C317.969 219.843 318.011 219.789 318.063 219.745C318.114 219.702 318.174 219.669 318.239 219.648C318.303 219.628 318.371 219.621 318.439 219.627C318.575 219.64 318.7 219.706 318.788 219.81C318.876 219.915 318.919 220.05 318.908 220.187C318.434 225.829 319.703 231.481 322.543 236.376C322.589 236.454 322.614 236.543 322.614 236.634C322.615 236.725 322.592 236.814 322.547 236.893C322.502 236.972 322.436 237.037 322.358 237.082C322.28 237.128 322.191 237.151 322.1 237.151H322.09Z" fill="#242426"/>
<path d="M285.31 277.66H285.264C285.128 277.648 285.003 277.583 284.915 277.479C284.827 277.375 284.784 277.24 284.795 277.104C285.388 270.103 287.284 263.275 290.382 256.971C290.412 256.911 290.453 256.857 290.504 256.812C290.555 256.767 290.613 256.733 290.677 256.711C290.741 256.689 290.809 256.68 290.876 256.685C290.943 256.689 291.009 256.706 291.069 256.736C291.13 256.766 291.184 256.807 291.229 256.858C291.273 256.909 291.307 256.968 291.329 257.032C291.351 257.096 291.36 257.163 291.356 257.231C291.351 257.298 291.334 257.364 291.304 257.425C288.262 263.614 286.402 270.319 285.819 277.193C285.807 277.321 285.749 277.439 285.655 277.526C285.561 277.612 285.438 277.66 285.31 277.66Z" fill="#242426"/>
<path d="M242.742 293.886C249.979 278.925 270.075 266.602 279.906 262.391C280.282 262.894 280.857 263.384 281.227 263.88C266.718 274.177 255.692 289.29 250.101 306.198C248.961 305.374 248.449 304.156 247.946 302.845C246.417 298.852 245.392 297.197 242.742 293.886Z" fill="#242426"/>
<path d="M404.057 392.541C398.44 394.246 392.75 397.616 386.875 397.563C375.501 397.464 384.852 397.818 372.732 397.679C338.037 393.074 289.738 368.213 262.105 346.693C262.105 346.405 260.148 346.634 260.148 346.362C261.021 346.276 262.032 346.16 262.904 346.074C281.759 360.618 303.273 371.683 326.234 377.94C351.766 384.899 377.702 390.167 404.057 392.541Z" fill="#242426"/>
<path d="M95.7324 353.219C96.2214 369.286 105.791 384.767 119.926 392.368C114.583 392.891 109.237 392.815 104.013 391.574C94.936 381.496 91.9787 366.263 95.7324 353.219Z" fill="#242426"/>
<path d="M143.464 337.012L192.163 338.819C191.753 340.028 191.502 343.454 191.406 344.722C175.04 344.656 158.654 344.527 142.305 343.792C143.19 342.223 143.709 338.793 143.464 337.012Z" fill="#242426"/>
<path d="M76.028 382C76.2903 388.801 79.2167 395.224 84.1731 399.878C81.2021 399.875 78.2335 399.706 75.2812 399.372C76.0247 393.449 76.5897 387.93 76.028 382Z" fill="#242426"/>
<path d="M276.474 246.416C275.568 217.825 281.1 194.669 295.381 169.898C288.267 183.9 287.781 194.729 287.374 210.432C286.968 226.135 288.865 241.805 290.768 257.398C289.621 257.935 288.547 258.156 287.401 258.689C283.211 254.958 279.464 251.164 276.474 246.416Z" fill="#242426"/>
<path d="M522.898 361.301C525.115 365.25 526.888 369.432 528.185 373.772C530.339 372.733 532.568 371.859 534.853 371.157C530.872 367.611 526.873 364.847 522.898 361.301Z" fill="#242426"/>
<path d="M642.147 278.086C624.175 281.993 624.939 285.651 623.244 311.856C623.236 311.961 623.191 312.06 623.115 312.134C623.04 312.208 622.94 312.251 622.835 312.256C622.73 312.261 622.626 312.227 622.544 312.161C622.463 312.094 622.408 312 622.391 311.896C618.254 285.88 619.748 282.148 601.633 279.397C601.535 279.381 601.446 279.331 601.38 279.256C601.314 279.181 601.277 279.086 601.274 278.986C601.271 278.886 601.302 278.789 601.363 278.71C601.424 278.631 601.51 278.575 601.607 278.553C619.503 274.65 617.798 271.021 620.253 244.783C620.266 244.679 620.317 244.583 620.395 244.514C620.474 244.445 620.575 244.406 620.679 244.406C620.784 244.406 620.885 244.445 620.964 244.514C621.042 244.583 621.093 244.679 621.106 244.783C624.463 270.812 623.937 274.511 642.121 277.262C642.212 277.283 642.294 277.334 642.353 277.407C642.413 277.48 642.446 277.57 642.449 277.664C642.452 277.758 642.424 277.85 642.37 277.926C642.315 278.003 642.237 278.059 642.147 278.086Z" fill="#FDDC68"/>
<path d="M622.819 312.76C622.594 312.762 622.376 312.682 622.206 312.535C622.036 312.389 621.925 312.185 621.893 311.962C621.464 309.267 621.094 306.807 620.76 304.566C617.865 285.267 617.423 282.301 601.562 279.891C601.345 279.857 601.147 279.748 601.001 279.583C600.856 279.418 600.773 279.207 600.766 278.987C600.759 278.767 600.83 278.552 600.965 278.378C601.1 278.205 601.291 278.084 601.506 278.037C617.175 274.62 617.433 271.63 619.088 252.19C619.283 249.928 619.491 247.452 619.749 244.734C619.768 244.502 619.873 244.285 620.044 244.127C620.215 243.969 620.438 243.881 620.671 243.88C620.904 243.87 621.132 243.949 621.309 244.102C621.485 244.254 621.598 244.468 621.622 244.701L622.128 248.654C624.999 271.283 625.366 274.19 642.205 276.736C642.422 276.769 642.621 276.878 642.766 277.042C642.912 277.207 642.996 277.418 643.003 277.638C643.01 277.858 642.94 278.073 642.805 278.247C642.67 278.421 642.479 278.542 642.264 278.59C625.624 282.208 625.439 285.132 624.015 307.896L623.764 311.869C623.751 312.102 623.653 312.321 623.487 312.484C623.321 312.647 623.1 312.742 622.868 312.75L622.819 312.76ZM602.177 278.954C618.335 281.473 618.88 285.102 621.774 304.42C622.078 306.446 622.409 308.648 622.786 311.042L622.99 307.84C624.382 285.612 624.643 281.443 641.594 277.689C624.438 275.04 623.912 270.885 621.107 248.79L620.701 245.601C620.476 248.021 620.288 250.236 620.112 252.282C618.454 271.75 618.143 275.405 602.177 278.954Z" fill="#242426"/>
<path d="M224.367 222.512C208.582 225.942 209.253 229.156 207.766 252.156C207.763 252.251 207.725 252.341 207.658 252.409C207.592 252.476 207.503 252.516 207.408 252.521C207.313 252.526 207.221 252.494 207.148 252.434C207.075 252.373 207.028 252.287 207.016 252.192C203.381 229.348 204.703 226.067 188.786 223.651C188.698 223.639 188.617 223.597 188.558 223.531C188.498 223.465 188.464 223.38 188.461 223.291C188.458 223.202 188.487 223.115 188.543 223.046C188.598 222.977 188.676 222.929 188.763 222.912C204.482 219.482 202.972 216.291 205.139 193.261C205.151 193.17 205.196 193.087 205.265 193.027C205.333 192.967 205.421 192.934 205.513 192.934C205.604 192.934 205.692 192.967 205.761 193.027C205.83 193.087 205.874 193.17 205.886 193.261C208.837 216.122 208.374 219.37 224.344 221.787C224.425 221.804 224.498 221.849 224.551 221.913C224.604 221.977 224.635 222.057 224.637 222.14C224.64 222.223 224.615 222.305 224.566 222.372C224.517 222.44 224.447 222.489 224.367 222.512Z" fill="#FDDC68"/>
<path d="M207.392 253.012C207.179 253.015 206.973 252.94 206.812 252.802C206.651 252.664 206.546 252.471 206.516 252.26C206.139 249.89 205.816 247.731 205.525 245.761C202.994 228.857 202.604 226.258 188.722 224.149C188.517 224.118 188.328 224.016 188.19 223.86C188.051 223.704 187.972 223.505 187.965 223.297C187.959 223.088 188.025 222.884 188.153 222.72C188.281 222.556 188.463 222.441 188.666 222.398C202.382 219.418 202.607 216.769 204.061 199.752C204.229 197.766 204.414 195.59 204.639 193.203C204.657 192.984 204.757 192.779 204.919 192.629C205.08 192.48 205.292 192.396 205.512 192.396C205.732 192.385 205.948 192.459 206.115 192.604C206.282 192.748 206.388 192.95 206.41 193.17L206.853 196.643C209.371 216.475 209.691 219.024 224.432 221.252C224.638 221.283 224.826 221.385 224.965 221.541C225.103 221.696 225.182 221.896 225.189 222.104C225.196 222.313 225.129 222.517 225.001 222.681C224.873 222.845 224.691 222.959 224.488 223.003C209.919 226.172 209.761 228.734 208.512 248.688L208.29 252.178C208.279 252.398 208.185 252.606 208.028 252.761C207.871 252.915 207.661 253.005 207.441 253.012H207.392ZM189.598 223.242C203.516 225.463 204.008 228.734 206.536 245.609C206.78 247.228 207.041 248.976 207.335 250.863L207.478 248.622C208.694 229.201 208.928 225.447 223.543 222.156C208.75 219.809 208.277 216.077 205.825 196.772L205.541 194.541C205.366 196.445 205.211 198.206 205.079 199.838C203.628 216.842 203.347 220.14 189.598 223.242Z" fill="#242426"/>
<path d="M269.724 95.7242C258.126 98.2437 258.618 100.604 257.524 117.509C257.518 117.575 257.488 117.637 257.439 117.683C257.391 117.729 257.328 117.756 257.261 117.759C257.195 117.763 257.129 117.742 257.077 117.701C257.025 117.659 256.989 117.601 256.976 117.535C254.306 100.743 255.264 98.3331 243.577 96.5585C243.512 96.5505 243.452 96.5195 243.408 96.471C243.363 96.4225 243.338 96.3598 243.336 96.2941C243.334 96.2285 243.356 96.1643 243.397 96.1132C243.438 96.0621 243.496 96.0275 243.56 96.0155C255.125 93.4961 253.999 91.1554 255.595 74.2275C255.605 74.162 255.638 74.1022 255.688 74.0591C255.739 74.0159 255.803 73.9922 255.869 73.9922C255.935 73.9922 255.999 74.0159 256.049 74.0591C256.1 74.1022 256.133 74.162 256.143 74.2275C258.311 91.0262 257.97 93.4299 269.691 95.1879C269.751 95.2 269.805 95.2316 269.845 95.2778C269.885 95.324 269.909 95.3822 269.913 95.4433C269.916 95.5045 269.9 95.5651 269.866 95.6159C269.832 95.6667 269.782 95.7048 269.724 95.7242Z" fill="#FDDC68"/>
<path d="M257.237 118.275C257.049 118.277 256.867 118.211 256.724 118.089C256.581 117.968 256.486 117.799 256.457 117.613C256.18 115.872 255.942 114.283 255.727 112.832C253.833 100.222 253.592 98.5962 243.501 97.0666C243.318 97.0392 243.151 96.9484 243.028 96.81C242.905 96.6716 242.834 96.4944 242.829 96.3093C242.823 96.1242 242.882 95.9428 242.996 95.7969C243.109 95.6509 243.271 95.5496 243.451 95.5106C253.434 93.3321 253.572 91.6999 254.656 78.9932C254.782 77.5332 254.917 75.9341 255.083 74.1761C255.099 73.9817 255.188 73.8005 255.331 73.6682C255.474 73.5358 255.661 73.4619 255.856 73.461C256.05 73.4591 256.238 73.5278 256.385 73.6545C256.532 73.7812 256.628 73.9572 256.655 74.1496L256.986 76.7022C258.826 91.1867 259.061 93.0441 269.79 94.6663C269.972 94.6952 270.138 94.7866 270.26 94.9249C270.382 95.0632 270.452 95.2397 270.458 95.4242C270.465 95.6086 270.407 95.7895 270.294 95.9358C270.182 96.082 270.022 96.1845 269.843 96.2257C259.239 98.5432 259.12 100.401 258.212 114.974L258.046 117.54C258.037 117.736 257.954 117.92 257.814 118.057C257.674 118.194 257.488 118.273 257.293 118.279L257.237 118.275ZM244.856 96.2323C254.527 97.8877 254.954 100.745 256.751 112.667C256.877 113.495 257.009 114.371 257.148 115.296L257.174 114.898C258.053 100.841 258.238 97.8844 268.409 95.4775C258.106 93.7261 257.733 90.7894 255.961 76.8214L255.909 76.4241C255.826 77.3544 255.753 78.2318 255.681 79.0727C254.646 91.0874 254.402 93.9545 244.856 96.2323Z" fill="#242426"/>
</svg>
