<svg width="155" height="22" viewBox="0 0 155 22" fill="none" xmlns="http://www.w3.org/2000/svg">
<path d="M0.932 21V0.979999H14.456V5.432H6.7V9.688H12.888V13.916H6.7V21H0.932ZM14.0476 21L20.4596 0.979999H27.8796L34.2356 21H28.1596L27.0956 17.276H20.4596L19.3956 21H14.0476ZM23.7916 5.628L21.5796 13.328H25.9756L23.7916 5.628ZM36.5336 21V0.979999H43.0016L49.4136 12.264V0.979999H54.4256V21H48.8816L41.5736 8.428V21H36.5336ZM62.1352 21V5.404H56.9552V0.979999H73.0832V5.404H67.9032V21H62.1352ZM72.2078 21L78.6198 0.979999H86.0398L92.3958 21H86.3198L85.2558 17.276H78.6198L77.5558 21H72.2078ZM81.9518 5.628L79.7398 13.328H84.1358L81.9518 5.628ZM101.62 21.336C98.8382 21.336 96.7289 20.7667 95.2916 19.628C93.8542 18.4893 93.0889 16.828 92.9956 14.644H98.4556C98.5302 15.4653 98.8009 16.1093 99.2676 16.576C99.7342 17.024 100.518 17.248 101.62 17.248C102.422 17.248 103.048 17.0707 103.496 16.716C103.962 16.3427 104.196 15.8573 104.196 15.26C104.196 14.6627 103.981 14.2427 103.552 14C103.122 13.7387 102.282 13.5147 101.032 13.328C98.2129 12.992 96.2436 12.3573 95.1236 11.424C94.0222 10.472 93.4716 8.97867 93.4716 6.944C93.4716 5.11467 94.1716 3.62133 95.5716 2.464C96.9902 1.288 98.8756 0.699999 101.228 0.699999C106.137 0.699999 108.769 2.78133 109.124 6.944H103.804C103.598 5.50667 102.74 4.788 101.228 4.788C100.481 4.788 99.9022 4.94667 99.4916 5.264C99.0996 5.56267 98.9036 5.97333 98.9036 6.496C98.9036 7.07467 99.1182 7.504 99.5476 7.784C99.9769 8.064 100.798 8.288 102.012 8.456C104.7 8.75467 106.65 9.352 107.864 10.248C109.077 11.1253 109.684 12.6 109.684 14.672C109.684 16.576 108.965 18.1627 107.528 19.432C106.09 20.7013 104.121 21.336 101.62 21.336ZM112.524 21V0.979999H118.32V21H112.524ZM122.256 21V0.979999H136.088V5.404H127.968V8.848H134.436V12.936H127.968V16.576H136.536V21H122.256ZM146.873 21.336C144.092 21.336 141.983 20.7667 140.545 19.628C139.108 18.4893 138.343 16.828 138.249 14.644H143.709C143.784 15.4653 144.055 16.1093 144.521 16.576C144.988 17.024 145.772 17.248 146.873 17.248C147.676 17.248 148.301 17.0707 148.749 16.716C149.216 16.3427 149.449 15.8573 149.449 15.26C149.449 14.6627 149.235 14.2427 148.805 14C148.376 13.7387 147.536 13.5147 146.285 13.328C143.467 12.992 141.497 12.3573 140.377 11.424C139.276 10.472 138.725 8.97867 138.725 6.944C138.725 5.11467 139.425 3.62133 140.825 2.464C142.244 1.288 144.129 0.699999 146.481 0.699999C151.391 0.699999 154.023 2.78133 154.377 6.944H149.057C148.852 5.50667 147.993 4.788 146.481 4.788C145.735 4.788 145.156 4.94667 144.745 5.264C144.353 5.56267 144.157 5.97333 144.157 6.496C144.157 7.07467 144.372 7.504 144.801 7.784C145.231 8.064 146.052 8.288 147.265 8.456C149.953 8.75467 151.904 9.352 153.117 10.248C154.331 11.1253 154.937 12.6 154.937 14.672C154.937 16.576 154.219 18.1627 152.781 19.432C151.344 20.7013 149.375 21.336 146.873 21.336Z" fill="#F9F3E9"/>
</svg>
