<svg width="208" height="212" viewBox="0 0 208 212" fill="none" xmlns="http://www.w3.org/2000/svg">
<path d="M120.616 36.7989L148.921 12.7212L147.743 49.8625L147.701 51.2007L148.996 50.8616L184.944 41.4491L167.769 74.4014L167.15 75.5887L168.464 75.8451L204.936 82.9621L175.164 105.199L174.091 106L175.164 106.801L204.936 129.038L168.464 136.155L167.15 136.411L167.769 137.599L184.944 170.551L148.996 161.138L147.701 160.799L147.743 162.137L148.921 199.279L120.616 175.201L119.597 174.334L119.054 175.558L104 209.532L88.9457 175.558L88.4033 174.334L87.3835 175.201L59.0793 199.279L60.2566 162.137L60.299 160.799L59.0038 161.138L23.0557 170.551L40.2314 137.599L40.8503 136.411L39.5362 136.155L3.06415 129.038L32.8364 106.801L33.9091 106L32.8364 105.199L3.06415 82.9621L39.5362 75.8451L40.8503 75.5887L40.2314 74.4014L23.0557 41.4491L59.0038 50.8616L60.299 51.2007L60.2566 49.8625L59.0793 12.7212L87.3835 36.7989L88.4033 37.6664L88.9457 36.4423L104 2.46839L119.054 36.4423L119.597 37.6664L120.616 36.7989Z" stroke="white" stroke-width="2"/>
</svg>
