<svg width="156" height="52" viewBox="0 0 156 52" fill="none" xmlns="http://www.w3.org/2000/svg">
<path d="M0.613262 20.8711L6.26598 22.0186L7.67522 15.0761L13.7395 16.3072L14.5806 12.1637L8.51632 10.9327L9.36298 6.76172L16.964 8.30465L17.8496 3.94163L4.59592 1.25125L0.613262 20.8711ZM13.4667 23.4802L18.7078 24.5441L20.4914 21.1062L26.9948 22.4264L27.2967 26.2876L33.2512 27.4963L31.0049 6.61204L23.7332 5.13595L13.4667 23.4802ZM26.074 10.3539L26.6825 18.3345L22.3744 17.46L26.074 10.3539ZM35.5033 27.9535L40.4425 28.9561L42.9435 16.6354L47.6045 30.4099L53.0376 31.5128L57.0203 11.8929L52.1085 10.8959L49.8637 21.9543L45.8246 9.62032L39.4859 8.33361L35.5033 27.9535ZM60.5932 33.0465L66.2459 34.194L69.3485 18.9097L74.4249 19.9402L75.305 15.6046L59.4994 12.3962L58.6193 16.7317L63.6958 17.7622L60.5932 33.0465ZM70.4644 35.0503L75.7055 36.1142L77.4891 32.6763L83.9925 33.9964L84.2944 37.8576L90.2489 39.0664L88.0026 18.1821L80.7309 16.706L70.4644 35.0503ZM83.0717 21.9239L83.6802 29.9045L79.3721 29.03L83.0717 21.9239ZM99.2215 41.2306C104.271 42.2555 107.72 39.8987 108.45 36.304C109.313 32.0507 107.023 30.243 102.168 28.686C99.7926 27.861 99.2892 27.2445 99.512 26.1469C99.7125 25.159 100.62 24.629 102.129 24.9353C103.666 25.2473 104.317 26.1223 104.225 27.5607L109.439 28.619C109.923 24.4031 107.662 21.8871 102.943 20.929C98.2503 19.9766 94.818 21.9655 94.0994 25.5053C93.2973 29.4567 94.8291 31.4819 100.238 33.2657C102.526 34.1014 103.2 34.5811 102.955 35.7885C102.721 36.941 101.654 37.5529 100.035 37.2243C97.7023 36.7508 97.3052 35.4702 97.452 34.0429L92.1012 32.9567C91.4024 37.2434 93.7335 40.1165 99.2215 41.2306ZM109.975 43.0706L115.655 44.2237L119.638 24.6038L113.958 23.4508L109.975 43.0706ZM119.513 45.0066L133.507 47.8474L134.387 43.5118L125.99 41.8074L126.715 38.2401L133.053 39.5268L133.867 35.5205L127.528 34.2338L128.213 30.8587L136.171 32.474L137.051 28.1384L123.495 25.3868L119.513 45.0066ZM143.571 50.2331C148.62 51.258 152.07 48.9012 152.799 45.3065C153.663 41.0533 151.373 39.2455 146.517 37.6885C144.142 36.8635 143.639 36.247 143.861 35.1494C144.062 34.1616 144.97 33.6315 146.479 33.9379C148.015 34.2498 148.666 35.1248 148.574 36.5632L153.788 37.6216C154.272 33.4057 152.012 30.8897 147.292 29.9316C142.6 28.9791 139.167 30.9681 138.449 34.5079C137.647 38.4593 139.178 40.4845 144.588 42.2682C146.875 43.104 147.549 43.5836 147.304 44.791C147.07 45.9435 146.003 46.5555 144.384 46.2268C142.052 45.7534 141.655 44.4728 141.801 43.0454L136.451 41.9593C135.752 46.2459 138.083 49.1191 143.571 50.2331Z" fill="#0A0517"/>
</svg>
