<svg width="105" height="107" viewBox="0 0 105 107" fill="none" xmlns="http://www.w3.org/2000/svg">
<path d="M61.2075 18.9503L74.6418 7.52211L74.083 25.1508L74.0406 26.489L75.3358 26.1498L92.3981 21.6823L84.2459 37.3227L83.627 38.51L84.9411 38.7664L102.252 42.1444L88.1211 52.6988L87.0484 53.5L88.1211 54.3012L102.252 64.8556L84.9411 68.2336L83.627 68.49L84.2459 69.6773L92.3981 85.3177L75.3358 80.8502L74.0406 80.511L74.083 81.8492L74.6418 99.4779L61.2075 88.0497L60.1877 87.1822L59.6453 88.4063L52.5 104.532L45.3547 88.4063L44.8123 87.1822L43.7925 88.0497L30.3582 99.4779L30.917 81.8492L30.9594 80.511L29.6642 80.8502L12.6019 85.3177L20.7541 69.6773L21.373 68.49L20.0589 68.2336L2.74787 64.8556L16.8789 54.3012L17.9516 53.5L16.8789 52.6988L2.74787 42.1444L20.0589 38.7664L21.373 38.51L20.7541 37.3227L12.6019 21.6823L29.6642 26.1498L30.9594 26.489L30.917 25.1508L30.3582 7.52211L43.7925 18.9503L44.8123 19.8178L45.3547 18.5937L52.5 2.4684L59.6453 18.5937L60.1877 19.8178L61.2075 18.9503Z" stroke="#0A0517" stroke-width="2"/>
</svg>
