<svg width="196" height="58" viewBox="0 0 196 58" fill="none" xmlns="http://www.w3.org/2000/svg">
<path d="M11.7145 18.5937C8.99052 18.0798 7.56381 15.6737 8.23852 12.0968L8.28004 11.8766C8.95476 8.29972 11.0671 6.61812 13.8461 7.14232C16.6251 7.66652 17.9967 10.0623 17.3376 13.5567L17.2961 13.7768C16.6317 17.2987 14.4935 19.1179 11.7145 18.5937ZM10.7688 23.0028C17.1247 24.2017 22.058 20.8582 23.1998 14.8049L23.2413 14.5848C24.3935 8.47653 20.6747 3.8714 14.6765 2.73996C8.78832 1.62927 3.51814 4.79525 2.38669 10.7935L2.34517 11.0136C1.2293 16.9293 4.41291 21.8039 10.7688 23.0028ZM24.1025 25.176L29.7155 26.2348L31.0441 19.191L32.3649 19.4401L35.0258 27.2364L40.969 28.3575L37.8003 19.3256C40.0144 18.917 41.796 17.6289 42.3254 14.8224L42.3462 14.7123C43.1299 10.5576 40.6628 7.92669 35.5175 6.95614L27.8134 5.50291L24.1025 25.176ZM31.7344 15.5315L32.6271 10.799L34.4706 11.1467C36.2866 11.4893 37.1578 12.3089 36.8567 13.9048L36.836 14.0149C36.5349 15.6107 35.4489 16.2322 33.5504 15.8741L31.7344 15.5315ZM43.3976 28.8156L49.0932 29.89L52.8041 10.2169L47.1086 9.14256L43.3976 28.8156ZM52.9607 30.6195L66.9933 33.2665L67.8133 28.9191L59.3938 27.331L60.0685 23.754L66.4244 24.953L67.1822 20.9358L60.8263 19.7369L61.4646 16.3526L69.4439 17.8577L70.264 13.5104L56.6717 10.9464L52.9607 30.6195ZM69.8082 33.7974L74.7608 34.7317L77.0912 22.3775L81.9422 36.0863L87.3901 37.1139L91.101 17.4409L86.1759 16.5118L84.0843 27.6003L79.875 15.3233L73.5191 14.1244L69.8082 33.7974ZM94.9661 38.543L100.634 39.6122L103.525 24.2864L108.615 25.2466L109.435 20.8993L93.5868 17.9098L92.7668 22.2571L97.857 23.2173L94.9661 38.543ZM104.864 40.4101L110.119 41.4014L111.855 37.9391L118.376 39.1692L118.732 43.0259L124.702 44.1521L122.167 23.3009L114.876 21.9255L104.864 40.4101ZM117.289 27.1106L118.008 35.082L113.688 34.2671L117.289 27.1106ZM128.93 44.9495L134.598 46.0187L137.489 30.693L142.579 31.6531L143.399 27.3058L127.55 24.3163L126.73 28.6636L131.821 29.6238L128.93 44.9495ZM142.279 47.4676L147.974 48.5419L151.685 28.8689L145.99 27.7945L142.279 47.4676ZM161.998 46.9416C159.274 46.4278 157.847 44.0216 158.522 40.4447L158.563 40.2246C159.238 36.6477 161.35 34.9661 164.129 35.4903C166.908 36.0145 168.28 38.4102 167.621 41.9046L167.579 42.1247C166.915 45.6466 164.777 47.4658 161.998 46.9416ZM161.052 51.3507C167.408 52.5496 172.341 49.2061 173.483 43.1529L173.525 42.9328C174.677 36.8245 170.958 32.2194 164.96 31.0879C159.072 29.9772 153.801 33.1432 152.67 39.1414L152.628 39.3615C151.513 45.2772 154.696 50.1518 161.052 51.3507ZM174.386 53.5239L179.338 54.4581L181.669 42.104L186.52 55.8128L191.968 56.8404L195.679 37.1673L190.754 36.2383L188.662 47.3268L184.453 35.0498L178.097 33.8509L174.386 53.5239Z" fill="#0A0517"/>
</svg>
