<svg width="132" height="134" viewBox="0 0 132 134" fill="none" xmlns="http://www.w3.org/2000/svg">
<path d="M66 0L76.0933 22.7782L95.0702 6.63509L94.2809 31.5369L118.383 25.2262L106.867 47.3195L131.32 52.0911L111.359 67L131.32 81.9089L106.867 86.6805L118.383 108.774L94.2809 102.463L95.0702 127.365L76.0933 111.222L66 134L55.9067 111.222L36.9298 127.365L37.7191 102.463L13.6173 108.774L25.133 86.6805L0.679832 81.9089L20.641 67L0.679832 52.0911L25.133 47.3195L13.6173 25.2262L37.7191 31.5369L36.9298 6.63509L55.9067 22.7782L66 0Z" fill="#949AF6"/>
</svg>
