<svg width="156" height="52" viewBox="0 0 156 52" fill="none" xmlns="http://www.w3.org/2000/svg">
<path d="M0.542949 20.6885L6.19566 21.8359L7.60491 14.8935L13.6692 16.1245L14.5103 11.981L8.44601 10.75L9.29267 6.5791L16.8936 8.12203L17.7793 3.75902L4.52561 1.06863L0.542949 20.6885ZM13.3964 23.2976L18.6375 24.3615L20.4211 20.9236L26.9244 22.2438L27.2263 26.105L33.1809 27.3137L30.9346 6.42943L23.6629 4.95334L13.3964 23.2976ZM26.0037 10.1713L26.6122 18.1519L22.3041 17.2773L26.0037 10.1713ZM35.4329 27.7709L40.3722 28.7735L42.8732 16.4528L47.5341 30.2273L52.9673 31.3302L56.95 11.7103L52.0382 10.7133L49.7934 21.7717L45.7543 9.4377L39.4156 8.151L35.4329 27.7709ZM60.5229 32.8639L66.1756 34.0113L69.2782 18.7271L74.3546 19.7575L75.2347 15.422L59.4291 12.2136L58.549 16.5491L63.6254 17.5796L60.5229 32.8639ZM70.3941 34.8677L75.6352 35.9316L77.4188 32.4937L83.9221 33.8138L84.224 37.675L90.1786 38.8837L87.9323 17.9995L80.6606 16.5234L70.3941 34.8677ZM83.0014 21.7413L83.6099 29.7219L79.3018 28.8474L83.0014 21.7413ZM99.1512 41.048C104.2 42.0729 107.65 39.716 108.38 36.1214C109.243 31.8681 106.953 30.0604 102.098 28.5034C99.7223 27.6783 99.2189 27.0619 99.4417 25.9643C99.6422 24.9764 100.55 24.4464 102.059 24.7527C103.596 25.0647 104.247 25.9396 104.155 27.3781L109.368 28.4364C109.853 24.2205 107.592 21.7045 102.872 20.7464C98.18 19.7939 94.7477 21.7829 94.0291 25.3227C93.227 29.2741 94.7588 31.2993 100.168 33.083C102.455 33.9188 103.13 34.3985 102.884 35.6059C102.651 36.7584 101.583 37.3703 99.9645 37.0417C97.632 36.5682 97.2348 35.2876 97.3817 33.8603L92.0309 32.7741C91.3321 37.0608 93.6631 39.9339 99.1512 41.048ZM109.905 42.888L115.585 44.0411L119.568 24.4212L113.888 23.2682L109.905 42.888ZM119.442 44.824L133.437 47.6648L134.317 43.3292L125.92 41.6247L126.644 38.0575L132.983 39.3442L133.796 35.3379L127.458 34.0512L128.143 30.676L136.1 32.2914L136.98 27.9558L123.425 25.2041L119.442 44.824ZM143.501 50.0505C148.55 51.0754 151.999 48.7186 152.729 45.1239C153.593 40.8706 151.302 39.0629 146.447 37.5059C144.072 36.6809 143.568 36.0644 143.791 34.9668C143.992 33.979 144.899 33.4489 146.408 33.7553C147.945 34.0672 148.596 34.9422 148.504 36.3806L153.718 37.439C154.202 33.223 151.941 30.707 147.222 29.749C142.529 28.7965 139.097 30.7854 138.379 34.3252C137.576 38.2767 139.108 40.3018 144.517 42.0856C146.805 42.9213 147.479 43.401 147.234 44.6084C147 45.7609 145.933 46.3728 144.314 46.0442C141.981 45.5707 141.584 44.2901 141.731 42.8628L136.38 41.7766C135.682 46.0633 138.013 48.9365 143.501 50.0505Z" fill="#949AF6"/>
</svg>
