<svg width="84" height="37" viewBox="0 0 84 37" fill="none" xmlns="http://www.w3.org/2000/svg">
<path d="M4.89982 36.3911L13.7235 34.539C18.5738 33.521 20.4399 31.0979 19.7037 27.5904L19.6806 27.4808C19.1112 24.7679 17.2992 23.6319 14.8015 23.727C16.8729 22.6914 17.6916 21.0032 17.2314 18.811L17.2084 18.7014C16.57 15.6597 14.1598 13.9912 9.52874 14.9633L0.787232 16.7981L4.89982 36.3911ZM9.59238 31.4866L8.62032 26.8555L10.7851 26.4011C12.7581 25.987 13.7139 26.5874 14.0245 28.0672L14.0475 28.1768C14.3523 29.6291 13.7028 30.6238 11.9216 30.9977L9.59238 31.4866ZM7.90133 23.4301L7.05006 19.3745L9.18748 18.9259C10.8865 18.5693 11.7255 19.0226 12.0073 20.3653L12.0303 20.4749C12.3237 21.8725 11.7925 22.6134 10.0388 22.9815L7.90133 23.4301ZM28.2346 26.9727L25.9396 16.039L27.1728 15.7802C30.5707 15.0669 32.3841 16.3457 33.1663 20.0725L33.2123 20.2917C33.9773 23.9363 32.8657 26.0007 29.5226 26.7024L28.2346 26.9727ZM23.4984 32.4873L30.5958 30.9975C37.5013 29.5481 40.342 25.0894 39.0593 18.9786L39.0133 18.7594C37.7364 12.676 33.4709 9.93778 26.5106 11.3988L19.3858 12.8942L23.4984 32.4873ZM50.8442 27.0907C55.8863 26.0324 58.1208 22.5021 57.3673 18.9123C56.4757 14.6649 53.6569 13.9118 48.582 14.4049C46.0741 14.588 45.3677 14.2212 45.1376 13.1251C44.9306 12.1386 45.5541 11.2925 47.0612 10.9762C48.5958 10.654 49.54 11.1997 50.0252 12.557L55.2317 11.4641C54.0069 7.40109 50.9347 5.98601 46.2214 6.97534C41.5355 7.95891 39.1715 11.1445 39.9135 14.6794C40.7418 18.6254 42.9503 19.8785 48.6237 19.3743C51.0551 19.2359 51.864 19.4094 52.1171 20.6151C52.3587 21.766 51.6212 22.7505 50.0044 23.0899C47.6752 23.5788 46.8033 22.5602 46.373 21.1914L41.0294 22.313C42.0854 26.5259 45.3636 28.2411 50.8442 27.0907ZM61.3379 24.5448L66.3526 23.4922L63.793 11.2979L71.0933 22.4971L72.9567 22.106L75.1926 8.90511L77.7522 21.0994L83.3424 19.926L79.2298 0.332963L72.0503 1.83995L70.4875 13.0684L64.5419 3.41597L57.2253 4.95172L61.3379 24.5448Z" fill="#949AF6"/>
</svg>
