<svg width="208" height="212" viewBox="0 0 208 212" fill="none" xmlns="http://www.w3.org/2000/svg">
<path d="M120.94 37.1798L148.385 13.8332L147.244 49.8467L147.18 51.854L149.123 51.3453L183.979 42.2186L167.325 74.1703L166.397 75.9512L168.368 76.3359L203.733 83.2367L174.864 104.798L173.255 106L174.864 107.202L203.733 128.763L168.368 135.664L166.397 136.049L167.325 137.83L183.979 169.781L149.123 160.655L147.18 160.146L147.244 162.153L148.385 198.167L120.94 174.82L119.411 173.519L118.597 175.355L104 208.297L89.4028 175.355L88.5892 173.519L87.0595 174.82L59.6148 198.167L60.7564 162.153L60.82 160.146L58.8772 160.655L24.0207 169.781L40.6748 137.83L41.6031 136.049L39.632 135.664L4.26739 128.763L33.1356 107.202L34.7447 106L33.1356 104.798L4.2674 83.2367L39.632 76.3359L41.6031 75.9512L40.6748 74.1703L24.0207 42.2186L58.8772 51.3453L60.82 51.854L60.7564 49.8467L59.6148 13.8332L87.0595 37.1798L88.5892 38.481L89.4028 36.6449L104 3.70259L118.597 36.6449L119.411 38.481L120.94 37.1798Z" stroke="white" stroke-width="3"/>
</svg>
