<svg width="60" height="60" viewBox="0 0 60 60" fill="none" xmlns="http://www.w3.org/2000/svg">
<path d="M60 30L56.8302 26.977L59.2478 23.3244L55.4849 21.0825L57.0291 16.9835L52.8616 15.6351L53.4549 11.2953L49.0919 10.9081L48.7047 6.54505L44.3649 7.13845L43.0165 2.97093L38.9175 4.51515L36.6756 0.752162L33.023 3.16977L30 -1.26827e-06L26.977 3.16977L23.3244 0.752161L21.0825 4.51515L16.9835 2.97093L15.6351 7.13844L11.2953 6.54505L10.9081 10.9081L6.54506 11.2953L7.13845 15.6351L2.97093 16.9835L4.51515 21.0825L0.752165 23.3244L3.16977 26.977L1.35588e-06 30L3.16977 33.023L0.752164 36.6756L4.51515 38.9175L2.97093 43.0165L7.13845 44.3649L6.54506 48.7047L10.9081 49.0919L11.2953 53.4549L15.6351 52.8616L16.9835 57.0291L21.0825 55.4848L23.3244 59.2478L26.977 56.8302L30 60L33.023 56.8302L36.6756 59.2478L38.9175 55.4848L43.0165 57.0291L44.3649 52.8616L48.7047 53.4549L49.0919 49.0919L53.4549 48.7047L52.8616 44.3649L57.0291 43.0165L55.4849 38.9175L59.2478 36.6756L56.8302 33.023L60 30Z" fill="#F24EA7"/>
<path d="M15.9679 30.7141C15.5735 30.3274 15.5673 29.6943 15.9539 29.2999L22.2545 22.8732C22.6411 22.4788 23.2742 22.4726 23.6686 22.8592C24.063 23.2458 24.0693 23.879 23.6826 24.2733L18.0821 29.986L23.7948 35.5865C24.1891 35.9731 24.1954 36.6063 23.8088 37.0006C23.4221 37.395 22.789 37.4013 22.3946 37.0147L15.9679 30.7141ZM16.6581 29L44.432 28.7248L44.4518 30.7247L16.6779 31L16.6581 29Z" fill="#1D1D1B"/>
</svg>
