<svg width="160" height="90" viewBox="0 0 160 90" fill="none" xmlns="http://www.w3.org/2000/svg">
<path fill-rule="evenodd" clip-rule="evenodd" d="M74.0056 26.2617C74.0056 29.5648 75.0599 32.354 77.1706 34.6292C79.2791 36.9068 81.9592 38.0433 85.2111 38.0433C88.1931 38.0433 90.6492 36.9883 92.5839 34.8738H92.6753V37.3913H100.359V0H92.5839V17.215C90.6492 15.3631 88.1931 14.4349 85.2111 14.4349C81.9592 14.4349 79.2791 15.5827 77.1706 17.8761C75.0599 20.1649 74.0056 22.9609 74.0056 26.2617ZM82.2657 26.2617C82.2657 24.7222 82.7688 23.4612 83.775 22.4764C84.7858 21.4939 86.0389 21.0003 87.5345 21.0003C88.9981 21.0003 90.233 21.4939 91.2392 22.4764C92.25 23.4612 92.7577 24.7222 92.7577 26.2617C92.7577 27.7718 92.266 29.0192 91.2849 30.0017C90.3085 30.9866 89.0576 31.4778 87.5345 31.4778C85.9543 31.4778 84.6806 30.9934 83.7109 30.0199C82.7459 29.0486 82.2657 27.7967 82.2657 26.2617Z" fill="#F83D5E"/>
<path d="M9.84254 22.3499C10.8968 21.2768 12.1568 20.7379 13.6204 20.7379C15.1686 20.7379 16.4286 21.0866 17.3982 21.7794L20.0327 16.527L19.2826 16.0018C18.7566 15.6531 17.8648 15.3045 16.6024 14.9604C15.3447 14.6117 13.9703 14.4351 12.477 14.4351C9.16564 14.4351 6.25678 15.6033 3.75041 17.9397C1.24861 20.2716 0 23.0607 0 26.3072C0 29.5266 1.24861 32.2886 3.75041 34.5933C6.25678 36.8934 9.16564 38.0435 12.477 38.0435C13.9703 38.0435 15.3675 37.8533 16.6665 37.473C17.9699 37.0994 18.8069 36.8029 19.1728 36.5855C19.5387 36.3682 19.8246 36.1871 20.0327 36.0422L17.3982 30.6993L16.9958 30.9528C16.703 31.1294 16.2411 31.3038 15.6145 31.4781C14.9856 31.6547 14.3202 31.7407 13.6204 31.7407C12.1568 31.7407 10.8968 31.2064 9.84254 30.1378C8.78602 29.0647 8.26005 27.7562 8.26005 26.2167C8.26005 24.7089 8.78602 23.4184 9.84254 22.3499Z" fill="#F83D5E"/>
<path fill-rule="evenodd" clip-rule="evenodd" d="M19.3688 26.262C19.3688 29.5651 20.4231 32.3542 22.5338 34.6295C24.6423 36.907 27.3225 38.0435 30.5743 38.0435C33.5564 38.0435 36.0124 36.9885 37.9471 34.874H38.0386V37.3915H45.7223V15.0871H37.9471V17.2153C36.0124 15.3633 33.5564 14.4351 30.5743 14.4351C27.3225 14.4351 24.6423 15.5829 22.5338 17.8763C20.4231 20.1652 19.3688 22.9611 19.3688 26.262ZM27.6289 26.262C27.6289 24.7225 28.132 23.4615 29.1382 22.4767C30.149 21.4941 31.4022 21.0006 32.8978 21.0006C34.3613 21.0006 35.5962 21.4941 36.6024 22.4767C37.6132 23.4615 38.1209 24.7225 38.1209 26.262C38.1209 27.772 37.6292 29.0194 36.6482 30.002C35.6717 30.9868 34.4208 31.4781 32.8978 31.4781C31.3176 31.4781 30.0438 30.9936 29.0742 30.0201C28.1091 29.0489 27.6289 27.7969 27.6289 26.262Z" fill="#F83D5E"/>
<path d="M48.7986 37.3915V15.0871H56.5738V17.4326H56.6561C58.68 15.4358 60.8319 14.4351 63.1142 14.4351C64.2301 14.4351 65.337 14.58 66.4346 14.8698C67.5323 15.1596 68.5843 15.6101 69.5905 16.2191C70.6013 16.8304 71.4222 17.6929 72.0511 18.8091C72.6777 19.9207 72.9933 21.2156 72.9933 22.694V37.3915H65.2272V24.7859C65.2272 23.6267 64.8522 22.6125 64.1021 21.7431C63.3566 20.8738 62.3847 20.4391 61.1841 20.4391C60.0132 20.4391 58.9521 20.8896 58.0008 21.7884C57.0495 22.6827 56.5738 23.6811 56.5738 24.7859V37.3915H48.7986Z" fill="#F83D5E"/>
<path fill-rule="evenodd" clip-rule="evenodd" d="M105.558 34.7382C103.056 32.5353 101.807 29.7099 101.807 26.262C101.807 22.8162 103.108 19.9841 105.713 17.7677C108.322 15.5467 111.545 14.4351 115.382 14.4351C119.155 14.4351 122.338 15.5535 124.932 17.7858C127.523 20.0135 128.819 22.8389 128.819 26.262C128.819 29.6805 127.55 32.4991 125.014 34.72C122.482 36.9364 119.272 38.0435 115.382 38.0435C111.339 38.0435 108.064 36.9432 105.558 34.7382ZM111.577 22.4767C110.57 23.4615 110.067 24.7225 110.067 26.262C110.067 27.7969 110.547 29.0489 111.512 30.0201C112.482 30.9936 113.756 31.4781 115.336 31.4781C116.859 31.4781 118.11 30.9868 119.086 30.002C120.068 29.0194 120.559 27.772 120.559 26.262C120.559 24.7225 120.052 23.4615 119.041 22.4767C118.035 21.4941 116.8 21.0006 115.336 21.0006C113.84 21.0006 112.587 21.4941 111.577 22.4767Z" fill="#F83D5E"/>
<path d="M130.271 15.0871V37.3915H138.046V25.6552C138.046 25.4198 138.103 25.1006 138.22 24.6953C138.334 24.2923 138.531 23.7988 138.805 23.2192C139.084 22.6397 139.56 22.1484 140.232 21.7431C140.909 21.3334 141.716 21.1273 142.656 21.1273C144.38 21.1273 145.73 21.5348 146.699 22.3499L149.946 15.8297L149.334 15.4765C148.949 15.2479 148.346 15.0192 147.522 14.7883C146.704 14.5529 145.871 14.4351 145.025 14.4351C144.207 14.4351 143.402 14.5755 142.61 14.8517C141.824 15.1234 141.179 15.4358 140.68 15.7844C140.179 16.1353 139.711 16.527 139.272 16.9617C138.832 17.3964 138.544 17.702 138.412 17.8763C138.284 18.0461 138.188 18.1887 138.128 18.3019H138.046V15.0871H130.271Z" fill="#F83D5E"/>
<path d="M154.951 28.0914C156.359 28.0914 157.551 28.5781 158.527 29.5494C159.508 30.5161 160 31.6956 160 33.0902C160 34.4486 159.508 35.6145 158.527 36.5857C157.551 37.5569 156.359 38.0437 154.951 38.0437C153.579 38.0437 152.401 37.5569 151.42 36.5857C150.436 35.6145 149.947 34.4486 149.947 33.0902C149.947 31.6956 150.436 30.5161 151.42 29.5494C152.401 28.5781 153.579 28.0914 154.951 28.0914Z" fill="#F83D5E"/>
<path fill-rule="evenodd" clip-rule="evenodd" d="M27.982 67.5236C27.982 64.2228 26.9255 61.4336 24.817 59.1561C22.7062 56.8808 20.0261 55.742 16.7765 55.742C13.7944 55.742 11.3361 56.8016 9.40372 58.9206H9.31225V56.3941H1.62848V90H9.40372V76.5703C11.3361 78.4245 13.7944 79.3504 16.7765 79.3504C20.0261 79.3504 22.7062 78.2071 24.817 75.9183C26.9255 73.6249 27.982 70.8267 27.982 67.5236ZM19.7219 67.5326C19.7219 69.0676 19.2142 70.3264 18.2035 71.3089C17.1973 72.2937 15.9464 72.785 14.4531 72.785C12.9895 72.785 11.75 72.2937 10.7392 71.3089C9.73303 70.3264 9.22993 69.0631 9.22993 67.5236C9.22993 66.0158 9.71702 64.7684 10.6935 63.7836C11.6746 62.801 12.9277 62.3075 14.4531 62.3075C16.031 62.3075 17.3025 62.7942 18.2675 63.7654C19.2371 64.7389 19.7219 65.9932 19.7219 67.5326Z" fill="#F83D5E"/>
<path d="M29.4297 78.6982V41.3069H37.205V78.6982H29.4297Z" fill="#F83D5E"/>
<path fill-rule="evenodd" clip-rule="evenodd" d="M38.6498 67.5689C38.6498 70.872 39.704 73.6611 41.8148 75.9364C43.9232 78.2139 46.6034 79.3504 49.8553 79.3504C52.8373 79.3504 55.2934 78.2954 57.228 76.1809H57.3195V78.6984H65.0033V56.3941H57.228V58.5222C55.2934 56.6703 52.8373 55.742 49.8553 55.742C46.6034 55.742 43.9232 56.8899 41.8148 59.1832C39.704 61.4721 38.6498 64.268 38.6498 67.5689ZM46.9098 67.5689C46.9098 66.0294 47.4129 64.7684 48.4192 63.7836C49.4299 62.801 50.6831 62.3075 52.1787 62.3075C53.6423 62.3075 54.8772 62.801 55.8834 63.7836C56.8942 64.7684 57.4018 66.0294 57.4018 67.5689C57.4018 69.0789 56.9102 70.3264 55.9291 71.3089C54.9526 72.2937 53.7017 72.785 52.1787 72.785C50.5985 72.785 49.3247 72.3005 48.3551 71.327C47.3901 70.3558 46.9098 69.1038 46.9098 67.5689Z" fill="#F83D5E"/>
<path d="M80.0717 62.0449C78.6082 62.0449 77.3481 62.5837 76.2939 63.6568C75.2374 64.7254 74.7114 66.0158 74.7114 67.5236C74.7114 69.0631 75.2374 70.3716 76.2939 71.4447C77.3481 72.5133 78.6082 73.0476 80.0717 73.0476C80.7715 73.0476 81.437 72.9616 82.0659 72.785C82.6924 72.6107 83.1544 72.4363 83.4471 72.2598L83.8496 72.0062L86.484 77.3491C86.2759 77.494 85.9901 77.6751 85.6242 77.8924C85.2583 78.1098 84.4213 78.4064 83.1178 78.7799C81.8189 79.1603 80.4216 79.3504 78.9283 79.3504C75.617 79.3504 72.7081 78.2003 70.2018 75.9002C67.7 73.5955 66.4513 70.8335 66.4513 67.6142C66.4513 64.3677 67.7 61.5785 70.2018 59.2466C72.7081 56.9102 75.617 55.742 78.9283 55.742C80.4216 55.742 81.796 55.9186 83.0538 56.2673C84.3161 56.6114 85.208 56.96 85.7339 57.3087L86.484 57.8339L83.8496 63.0863C82.88 62.3935 81.6199 62.0449 80.0717 62.0449Z" fill="#F83D5E"/>
<path fill-rule="evenodd" clip-rule="evenodd" d="M93.9064 68.6103H110.244C110.273 68.436 110.289 68.0896 110.289 67.5689C110.289 63.7722 109.166 60.854 106.923 58.812C104.684 56.7653 101.778 55.742 98.2057 55.742C94.8074 55.742 91.894 56.9012 89.4608 59.2195C87.0322 61.5377 85.8202 64.3224 85.8202 67.5689C85.8202 70.8176 87.0322 73.5955 89.4608 75.9002C91.894 78.2003 94.8074 79.3504 98.2057 79.3504C103.651 79.3504 107.545 77.4102 109.887 73.5276L104.27 70.7384C103.33 71.73 102.496 72.3911 101.764 72.7216C101.032 73.0544 100.037 73.2197 98.782 73.2197C97.5791 73.2197 96.4677 72.8439 95.4432 72.0877C94.4187 71.3338 93.9064 70.1747 93.9064 68.6103ZM102.688 64.3541H94.126C94.1809 63.281 94.5879 62.4116 95.3517 61.746C96.1132 61.0759 97.1377 60.7408 98.4252 60.7408C99.5961 60.7408 100.552 61.0555 101.297 61.6826C102.048 62.3052 102.51 63.1949 102.688 64.3541Z" fill="#F83D5E"/>
</svg>
