<svg width="208" height="212" viewBox="0 0 208 212" fill="none" xmlns="http://www.w3.org/2000/svg">
<path d="M120.293 36.4181L149.456 11.6093L148.243 49.8784L148.222 50.5475L148.87 50.3779L185.909 40.6796L168.212 74.6325L167.903 75.2262L168.56 75.3544L206.139 82.6874L175.463 105.599L174.926 106L175.463 106.401L206.139 129.313L168.56 136.646L167.903 136.774L168.212 137.367L185.909 171.32L148.87 161.622L148.222 161.453L148.243 162.122L149.456 200.391L120.293 175.582L119.783 175.148L119.511 175.76L104 210.766L88.4886 175.76L88.2174 175.148L87.7075 175.582L58.5438 200.391L59.7569 162.122L59.7781 161.453L59.1305 161.622L22.0908 171.32L39.7881 137.367L40.0975 136.774L39.4404 136.646L1.86088 129.313L32.5372 106.401L33.0736 106L32.5372 105.599L1.86089 82.6874L39.4404 75.3544L40.0975 75.2262L39.7881 74.6325L22.0908 40.6796L59.1305 50.3779L59.7781 50.5475L59.7569 49.8784L58.5438 11.6093L87.7075 36.4181L88.2174 36.8518L88.4886 36.2398L104 1.2342L119.511 36.2398L119.783 36.8518L120.293 36.4181Z" stroke="white"/>
</svg>
