<svg width="169" height="274" viewBox="0 0 169 274" fill="none" xmlns="http://www.w3.org/2000/svg">
<path d="M134.914 4.59488L134 2.5316L133.086 4.59488L113.743 48.2473L77.3753 17.3104L75.6563 15.8482L75.7279 18.1038L77.2405 65.8259L31.0515 53.732L28.8684 53.1603L29.9115 55.1616L51.9802 97.5013L5.11799 106.646L2.903 107.078L4.7111 108.428L42.9649 137L4.7111 165.572L2.903 166.922L5.11799 167.354L51.9802 176.499L29.9115 218.838L28.8684 220.84L31.0515 220.268L77.2405 208.174L75.7279 255.896L75.6563 258.152L77.3753 256.69L113.743 225.753L133.086 269.405L134 271.468L134.914 269.405L154.257 225.753L190.625 256.69L192.344 258.152L192.272 255.896L190.759 208.174L236.948 220.268L239.132 220.84L238.089 218.838L216.02 176.499L262.882 167.354L265.097 166.922L263.289 165.572L225.035 137L263.289 108.428L265.097 107.078L262.882 106.646L216.02 97.5013L238.089 55.1616L239.132 53.1603L236.948 53.732L190.759 65.8259L192.272 18.1038L192.344 15.8482L190.625 17.3104L154.257 48.2473L134.914 4.59488Z" stroke="black" stroke-width="2"/>
</svg>
