<svg width="164" height="186" viewBox="0 0 164 186" fill="none" xmlns="http://www.w3.org/2000/svg">
<path d="M58.9993 2.50035C85.9992 16.5005 90.4995 61.5002 80.9995 100.5C71.4996 139.5 84.999 171.5 109.499 173.5" stroke="black" stroke-width="2"/>
<path fill-rule="evenodd" clip-rule="evenodd" d="M101.093 162.25C101.518 163.74 102.472 166.132 103.973 168.577C105.022 170.286 106.357 172.053 107.994 173.559C106.743 173.715 105.318 173.993 103.843 174.444C101.069 175.292 98.0521 176.77 95.7151 179.255L97.1719 180.625C99.1964 178.473 101.866 177.14 104.428 176.356C106.991 175.573 109.376 175.362 110.748 175.402L110.773 174.55L111.354 173.649C108.979 172.118 107.085 169.824 105.677 167.531C104.272 165.241 103.391 163.016 103.017 161.702L101.093 162.25Z" fill="black"/>
</svg>
