<svg width="1170" height="783" viewBox="0 0 1170 783" fill="none" xmlns="http://www.w3.org/2000/svg">
<g filter="url(#filter0_d_5418_1674)">
<path d="M250 509C250 520.046 258.954 529 270 529L970 529C981.046 529 990 520.046 990 509L990 329C990 317.954 981.046 309 970 309L516.5 309L486.05 309C477.837 309 469.982 305.632 464.32 299.683L414.971 247.834C412.809 245.563 409.052 247.712 409.913 250.726L422.92 296.253C424.746 302.641 419.949 309 413.305 309L383.25 309L270 309C258.954 309 250 317.954 250 329L250 509Z" fill="black" fill-opacity="0.01" shape-rendering="crispEdges"/>
<path d="M251 509C251 519.493 259.507 528 270 528L970 528C980.493 528 989 519.494 989 509L989 329C989 318.507 980.493 310 970 310L516.5 310L486.05 310C477.563 310 469.447 306.52 463.595 300.372L414.246 248.523C412.805 247.009 410.3 248.442 410.874 250.452L423.882 295.978C425.89 303.005 420.613 310 413.305 310L383.25 310L270 310C259.507 310 251 318.507 251 329L251 509Z"  shape-rendering="crispEdges"/>
</g>
<defs>
<filter id="filter0_d_5418_1674" x="0" y="0.886719" width="1240" height="782.113" filterUnits="userSpaceOnUse" color-interpolation-filters="sRGB">
<feFlood flood-opacity="0" result="BackgroundImageFix"/>
<feColorMatrix in="SourceAlpha" type="matrix" values="0 0 0 0 0 0 0 0 0 0 0 0 0 0 0 0 0 0 127 0" result="hardAlpha"/>
<feOffset dy="4"/>
<feGaussianBlur stdDeviation="125"/>
<feComposite in2="hardAlpha" operator="out"/>
<feColorMatrix type="matrix" values="0 0 0 0 0.972549 0 0 0 0 0.243137 0 0 0 0 0.372549 0 0 0 1 0"/>
<feBlend mode="normal" in2="BackgroundImageFix" result="effect1_dropShadow_5418_1674"/>
<feBlend mode="normal" in="SourceGraphic" in2="effect1_dropShadow_5418_1674" result="shape"/>
</filter>
</defs>
</svg>
