<svg width="184" height="184" viewBox="0 0 184 184" fill="none" xmlns="http://www.w3.org/2000/svg">
<path d="M90.293 39.6938L105.588 19.2803L112.368 43.8706L112.532 44.4661L113.081 44.1814L135.718 32.4259L131.157 57.5227L131.047 58.1305L131.664 58.1119L157.161 57.3426L142.163 77.9752L141.799 78.4749L142.364 78.726L165.669 89.0953L143.204 101.177L142.66 101.47L143.059 101.941L159.557 121.395L134.075 122.533L133.458 122.561L133.613 123.159L140.037 147.845L116.584 137.814L116.016 137.571L115.897 138.177L110.973 163.205L94.1955 143.992L93.7892 143.526L93.4188 144.021L78.1236 164.434L71.3435 139.844L71.1793 139.248L70.6311 139.533L47.9935 151.289L52.5543 126.192L52.6647 125.584L52.0473 125.603L26.551 126.372L41.5492 105.739L41.9124 105.24L41.348 104.988L18.0429 94.6191L40.508 82.5372L41.052 82.2446L40.6525 81.7735L24.1543 62.3193L49.6368 61.1812L50.2539 61.1536L50.0984 60.5558L43.6749 35.8699L67.1276 45.9009L67.6956 46.1438L67.8149 45.5377L72.7383 20.5095L89.5162 39.7228L89.9225 40.1881L90.293 39.6938Z" stroke="black"/>
</svg>
