<svg width="167" height="151" viewBox="0 0 167 151" fill="none" xmlns="http://www.w3.org/2000/svg">
<path d="M105.303 97.9146C113.114 90.1041 113.114 77.4408 105.303 69.6303C97.4929 61.8198 84.8296 61.8198 77.0191 69.6303C69.2086 77.4408 69.2086 90.1041 77.0191 97.9146C84.8296 105.725 97.4929 105.725 105.303 97.9146Z" stroke="white" stroke-width="3" stroke-linecap="round" stroke-linejoin="round"/>
<path d="M122.621 52.3115L105.651 69.2821" stroke="white" stroke-width="3" stroke-linecap="round" stroke-linejoin="round"/>
<path d="M122.621 66.4541L108.479 52.312" stroke="white" stroke-width="3" stroke-linecap="round" stroke-linejoin="round"/>
<path d="M83.531 72.471C80.5219 61.8431 69.4669 55.6668 58.839 58.6758C48.2111 61.6849 42.0348 72.7398 45.0438 83.3678C48.0529 93.9957 59.1078 100.172 69.7358 97.163C80.3637 94.1539 86.54 83.0989 83.531 72.471Z" stroke="white" stroke-width="3" stroke-linecap="round" stroke-linejoin="round"/>
<path d="M52.168 35.1104L58.706 58.2026" stroke="white" stroke-width="3" stroke-linecap="round" stroke-linejoin="round"/>
<path d="M64.5137 42.0078L45.2701 47.4562" stroke="white" stroke-width="3" stroke-linecap="round" stroke-linejoin="round"/>
<path d="M7.6557 103.662L4.84675 96.4804L7.19395 97.1093L9.87653 104.276L11.4885 98.2601L13.5749 98.8191L11.9629 104.835L17.8694 99.9698L20.2166 100.599L14.1977 105.396L17.0989 113.069L14.6647 112.417L11.935 104.939L10.2485 111.233L8.16211 110.674L9.84858 104.38L3.72852 109.486L1.29438 108.834L7.6557 103.662ZM22.9265 114.63L17.7105 113.233L18.0506 111.963L19.6949 111.808L22.0383 103.062L20.6968 102.088L21.0369 100.819L26.2529 102.216L25.9128 103.485L24.2638 103.658L21.9204 112.404L23.2666 113.361L22.9265 114.63ZM35.0644 117.883L32.839 117.286L34.3158 111.775L28.8564 110.312L27.3795 115.823L25.154 115.227L28.4804 102.813L30.7059 103.409L29.3642 108.417L34.8236 109.88L36.1653 104.872L38.3908 105.469L35.0644 117.883ZM48.0151 121.353L45.4418 120.663L42.2079 113.051L40.5214 119.345L38.2959 118.748L41.6223 106.334L43.8478 106.931L42.2358 112.946L48.6812 108.226L51.098 108.873L44.6399 113.572L48.0151 121.353ZM57.3055 123.842L57.0559 120.253L52.3789 119L50.3856 121.988L48.021 121.354L55.9167 110.109L58.4551 110.789L59.6701 124.476L57.3055 123.842ZM56.7738 114.699C56.7709 114.524 56.7604 114.285 56.7422 113.982C56.724 113.679 56.7074 113.37 56.6923 113.056C56.6919 112.733 56.695 112.466 56.7014 112.257C56.5813 112.473 56.4345 112.72 56.2611 112.996C56.0992 113.276 55.9419 113.538 55.7894 113.783C55.6484 114.031 55.5361 114.218 55.4524 114.345L53.4999 117.25L56.9946 118.187L56.7738 114.699ZM71.8334 120.299L75.189 121.199L74.7558 122.816L71.4001 121.916L70.4917 125.307L68.8573 124.869L69.7658 121.478L66.4275 120.584L66.8608 118.967L70.1991 119.862L71.1168 116.436L72.7512 116.874L71.8334 120.299ZM85.0298 124.394L82.2208 117.213L84.568 117.842L87.2506 125.008L88.8625 118.992L90.9489 119.551L89.337 125.567L95.2434 120.702L97.5906 121.331L91.5718 126.129L94.4729 133.801L92.0388 133.149L89.309 125.672L87.6226 131.965L85.5362 131.406L87.2226 125.112L81.1026 130.218L78.6684 129.566L85.0298 124.394ZM100.301 135.363L95.0846 133.965L95.4247 132.696L97.069 132.54L99.4123 123.794L98.0708 122.82L98.4109 121.551L103.627 122.948L103.287 124.218L101.638 124.391L99.2945 133.136L100.641 134.093L100.301 135.363ZM112.439 138.615L110.213 138.019L111.69 132.507L106.23 131.044L104.754 136.556L102.528 135.959L105.854 123.545L108.08 124.142L106.738 129.149L112.198 130.612L113.539 125.605L115.765 126.201L112.439 138.615ZM125.389 142.085L122.816 141.396L119.582 133.783L117.895 140.077L115.67 139.481L118.996 127.067L121.222 127.663L119.61 133.679L126.055 128.958L128.472 129.606L122.014 134.304L125.389 142.085ZM134.68 144.574L134.43 140.985L129.753 139.732L127.76 142.72L125.395 142.087L133.291 130.841L135.829 131.521L137.044 145.208L134.68 144.574ZM134.148 135.431C134.145 135.257 134.134 135.018 134.116 134.715C134.098 134.412 134.081 134.103 134.066 133.788C134.066 133.465 134.069 133.199 134.075 132.989C133.955 133.206 133.809 133.452 133.635 133.728C133.473 134.008 133.316 134.27 133.163 134.515C133.022 134.763 132.91 134.95 132.826 135.077L130.874 137.983L134.369 138.919L134.148 135.431Z" fill="white"/>
</svg>
