<svg width="210" height="184" viewBox="0 0 210 184" fill="none" xmlns="http://www.w3.org/2000/svg">
<circle cx="123.467" cy="60" r="59.5" stroke="white"/>
<path d="M144.424 72.7456C152.235 64.9352 152.235 52.2719 144.424 44.4614C136.614 36.6509 123.951 36.6509 116.14 44.4614C108.33 52.2719 108.33 64.9352 116.14 72.7456C123.951 80.5561 136.614 80.5561 144.424 72.7456Z" stroke="white" stroke-width="3" stroke-linecap="round" stroke-linejoin="round"/>
<path d="M161.744 27.1426L144.774 44.1131" stroke="white" stroke-width="3" stroke-linecap="round" stroke-linejoin="round"/>
<path d="M161.641 27.0391L147.602 27.1426" stroke="white" stroke-width="3" stroke-linecap="round" stroke-linejoin="round"/>
<path d="M161.744 27.1426L161.641 41.1811" stroke="white" stroke-width="3" stroke-linecap="round" stroke-linejoin="round"/>
<path d="M86 59C86 70.0457 94.9543 79 106 79C117.046 79 126 70.0457 126 59C126 47.9543 117.046 39 106 39C94.9543 39 86 47.9543 86 59Z" stroke="white" stroke-width="3" stroke-linecap="round" stroke-linejoin="round"/>
<path d="M106 103.493L106 79.4932" stroke="white" stroke-width="3" stroke-linecap="round" stroke-linejoin="round"/>
<path d="M106.146 103.493L116 93.4932" stroke="white" stroke-width="3" stroke-linecap="round" stroke-linejoin="round"/>
<path d="M106 103.493L96.1465 93.4932" stroke="white" stroke-width="3" stroke-linecap="round" stroke-linejoin="round"/>
<path d="M53.5811 14.8398L55.1913 12.6501L59.1937 15.5932C59.4288 14.8277 59.6816 14.1497 59.9521 13.5591C60.2154 12.9782 60.5354 12.4316 60.9122 11.9192C61.6231 10.9524 62.4132 10.3641 63.2824 10.1543C64.1543 9.96125 65.0252 10.1846 65.8953 10.8244L70.1732 13.9702L68.563 16.1599L64.9087 13.4727C64.406 13.103 63.9436 12.9418 63.5216 12.989C63.0997 13.0362 62.6861 13.3353 62.2809 13.8863C61.9823 14.2924 61.7272 14.7304 61.5156 15.2004C61.3041 15.6704 61.1005 16.2208 60.9048 16.8515L65.5453 20.2638L63.9351 22.4535L53.5811 14.8398Z" fill="white"/>
<path d="M50.0275 36.6533C49.1064 36.2744 48.3165 35.8131 47.6577 35.2696C47.0055 34.7418 46.5034 34.133 46.1514 33.4431C45.7948 32.7644 45.6206 32.005 45.6288 31.165C45.6325 30.3361 45.8329 29.4388 46.2301 28.4734C46.6273 27.5079 47.1186 26.7238 47.7039 26.1212C48.2957 25.5342 48.9539 25.1172 49.6783 24.8703C50.4093 24.639 51.2 24.5621 52.0505 24.6395C52.8965 24.728 53.78 24.9617 54.7011 25.3407C55.9329 25.8475 56.9216 26.4878 57.6673 27.2617C58.4083 28.0467 58.8574 28.9581 59.0143 29.9958C59.1778 31.0493 58.9925 32.2252 58.4583 33.5236C57.9287 34.8109 57.2374 35.7657 56.3845 36.388C55.5427 37.0149 54.5791 37.3386 53.4936 37.3591C52.4147 37.3954 51.2593 37.1601 50.0275 36.6533ZM53.5955 27.9806C52.7632 27.6382 52.0041 27.4491 51.318 27.4134C50.632 27.3777 50.0368 27.5156 49.5323 27.8271C49.0279 28.1386 48.6318 28.644 48.3442 29.3431C48.0475 30.0644 47.971 30.7077 48.1147 31.2729C48.2539 31.8492 48.5821 32.3605 49.0992 32.8068C49.6117 33.2642 50.2841 33.6641 51.1164 34.0066C52.3704 34.5225 53.4484 34.6935 54.3504 34.5196C55.2524 34.3457 55.9226 33.7261 56.3609 32.6607C56.6531 31.9504 56.7296 31.3072 56.5904 30.7309C56.4512 30.1546 56.1253 29.6377 55.6128 29.1803C55.1003 28.7229 54.4279 28.323 53.5955 27.9806Z" fill="white"/>
<path d="M40.1402 53.1293L40.5371 50.4404L51.0076 51.986L51.4676 48.8698C50.9321 48.7179 50.3499 48.5532 49.7211 48.3754C49.0906 48.2096 48.4499 48.0301 47.7991 47.837C47.1585 47.6575 46.5484 47.4765 45.9688 47.2939C45.4011 47.1131 44.8988 46.9419 44.4617 46.7803C43.7484 46.5173 43.1499 46.2167 42.6661 45.8784C42.1806 45.552 41.8346 45.1431 41.6281 44.6517C41.4199 44.1722 41.3684 43.5763 41.4735 42.864C41.5086 42.6265 41.5597 42.4036 41.6268 42.1952C41.694 41.9868 41.7713 41.792 41.8587 41.6108L44.0667 41.9367C43.9965 42.084 43.933 42.2263 43.8764 42.3635C43.818 42.5126 43.7756 42.6761 43.7493 42.8542C43.7143 43.0916 43.7626 43.2989 43.8941 43.476C44.0256 43.6531 44.2667 43.8282 44.6172 44.0012C44.9795 44.176 45.4843 44.3718 46.1316 44.5887C46.4078 44.6901 46.8009 44.8209 47.3109 44.9811C47.8329 45.1431 48.4421 45.33 49.1386 45.542C49.8453 45.7676 50.6112 46.002 51.4366 46.2451C52.2738 46.49 53.1416 46.7333 54.0399 46.9751L52.8544 55.0061L40.1402 53.1293Z" fill="white"/>
<path d="M47.2631 73.764C46.2718 73.8607 45.3579 73.8232 44.5213 73.6516C43.6978 73.4907 42.9689 73.188 42.3348 72.7435C41.7018 72.3108 41.1922 71.7215 40.806 70.9755C40.421 70.2414 40.1778 69.3548 40.0765 68.3157C39.9751 67.2766 40.0419 66.3538 40.2767 65.5472C40.5247 64.7514 40.9108 64.0747 41.4352 63.5172C41.9727 62.9705 42.6353 62.5321 43.423 62.2021C44.2118 61.884 45.1019 61.6767 46.0932 61.58C47.4189 61.4508 48.5924 61.5534 49.6137 61.8878C50.6361 62.2343 51.4597 62.8291 52.0845 63.6725C52.7224 64.5266 53.1095 65.6524 53.2458 67.0497C53.3808 68.4352 53.2174 69.6025 52.7553 70.5519C52.3052 71.5 51.6055 72.2374 50.6561 72.764C49.7198 73.3014 48.5888 73.6347 47.2631 73.764ZM46.353 64.4303C45.4573 64.5176 44.698 64.7062 44.0752 64.996C43.4524 65.2858 42.9911 65.6865 42.6913 66.198C42.3915 66.7095 42.2783 67.3414 42.3517 68.0939C42.4274 68.8702 42.6611 69.4744 43.0529 69.9064C43.4458 70.3503 43.9752 70.6484 44.6411 70.8005C45.3082 70.9645 46.0896 71.0029 46.9854 70.9155C48.335 70.7839 49.3675 70.4301 50.083 69.8539C50.7984 69.2778 51.1003 68.4164 50.9885 67.2698C50.9139 66.5055 50.6802 65.9013 50.2873 65.4573C49.8943 65.0134 49.3643 64.7094 48.6973 64.5453C48.0302 64.3813 47.2488 64.3429 46.353 64.4303Z" fill="white"/>
<path d="M56.325 82.902C56.6995 83.9787 56.9109 84.9153 56.9591 85.7116C57.0227 86.5154 56.8908 87.1774 56.5636 87.6978C56.2516 88.2255 55.716 88.6214 54.9566 88.8855C54.5032 89.0432 54.0639 89.1134 53.6386 89.0962C53.2134 89.0789 52.8325 88.97 52.4959 88.7694C52.1633 88.5802 51.894 88.299 51.688 87.926L51.603 87.9555C51.6656 88.3912 51.652 88.8088 51.5623 89.2084C51.4726 89.6081 51.2686 89.9712 50.9502 90.2979C50.6319 90.6246 50.1553 90.8984 49.5206 91.1191C48.7839 91.3753 48.0861 91.4147 47.4273 91.2373C46.7837 91.0673 46.204 90.6972 45.6881 90.127C45.1835 89.5529 44.7715 88.8068 44.4523 87.8887L42.8736 83.3494L55.0124 79.1277L56.325 82.902ZM51.6142 84.8643C51.8744 85.6124 52.1727 86.0867 52.5093 86.2873C52.8498 86.4992 53.2467 86.5263 53.7001 86.3686C54.1648 86.207 54.44 85.9207 54.5258 85.5097C54.6115 85.0988 54.5263 84.5249 54.2701 83.7882L53.7971 82.4281L51.0939 83.3682L51.6142 84.8643ZM49.0538 84.0777L45.8915 85.1775L46.4769 86.8606C46.7449 87.6313 47.0795 88.1185 47.4806 88.322C47.8931 88.5216 48.3487 88.5347 48.8474 88.3612C49.1534 88.2548 49.3961 88.0942 49.5755 87.8793C49.7588 87.6758 49.8576 87.3937 49.8719 87.033C49.8862 86.6723 49.7988 86.2199 49.6095 85.6759L49.0538 84.0777Z" fill="white"/>
<path d="M52.4308 104.78L49.5129 99.7096L50.8546 98.9374L52.2597 99.9356L59.4674 95.7877L59.3103 94.0713L60.652 93.2992L63.5699 98.3695L62.2282 99.1416L60.8231 98.1435L53.6154 102.291L53.7725 104.008L52.4308 104.78Z" fill="white"/>
<path d="M63.561 119.168L61.5436 116.82L63.4486 109.038L58.5058 113.283L56.7348 111.222L66.4838 102.847L68.2548 104.909L63.5305 108.967L71.2574 108.404L73.1458 110.603L65.4129 111.076L63.561 119.168Z" fill="white"/>
<path d="M85.6201 126.829L88.5663 128.53L87.6033 130.198L84.6571 128.497L82.9651 131.428L81.2972 130.465L82.9892 127.534L80.0429 125.833L81.0059 124.165L83.9522 125.866L85.6622 122.904L87.3301 123.867L85.6201 126.829Z" fill="white"/>
<path d="M112.556 143.524L109.882 143.038L110.771 138.15C109.98 138.275 109.26 138.345 108.61 138.361C107.973 138.379 107.341 138.332 106.715 138.218C105.535 138.003 104.659 137.551 104.089 136.862C103.533 136.163 103.352 135.283 103.545 134.22L104.495 128.996L107.169 129.482L106.358 133.945C106.246 134.559 106.304 135.045 106.532 135.404C106.759 135.762 107.21 136.002 107.883 136.125C108.378 136.215 108.884 136.252 109.399 136.236C109.914 136.22 110.498 136.161 111.151 136.06L112.181 130.393L114.855 130.879L112.556 143.524Z" fill="white"/>
<path d="M133.717 137.147C133.78 138.141 133.713 139.053 133.513 139.884C133.325 140.701 132.998 141.42 132.533 142.039C132.079 142.657 131.473 143.146 130.715 143.508C129.968 143.868 129.074 144.082 128.032 144.148C126.991 144.215 126.07 144.117 125.272 143.856C124.485 143.582 123.822 143.173 123.282 142.63C122.753 142.075 122.337 141.398 122.034 140.6C121.742 139.801 121.564 138.905 121.501 137.911C121.416 136.581 121.557 135.412 121.926 134.402C122.306 133.392 122.928 132.589 123.791 131.992C124.666 131.383 125.804 131.034 127.205 130.944C128.595 130.855 129.756 131.057 130.689 131.551C131.622 132.032 132.336 132.756 132.83 133.723C133.336 134.676 133.632 135.818 133.717 137.147ZM124.358 137.746C124.416 138.644 124.579 139.409 124.848 140.041C125.117 140.673 125.502 141.148 126.003 141.464C126.504 141.781 127.132 141.915 127.886 141.867C128.665 141.817 129.276 141.604 129.721 141.226C130.178 140.848 130.494 140.329 130.668 139.669C130.854 139.008 130.918 138.228 130.861 137.33C130.774 135.976 130.455 134.933 129.903 134.198C129.351 133.464 128.5 133.134 127.35 133.207C126.584 133.256 125.972 133.47 125.515 133.848C125.059 134.226 124.737 134.745 124.551 135.407C124.365 136.068 124.301 136.848 124.358 137.746Z" fill="white"/>
<path d="M152.859 138.801L150.269 139.624L147.064 129.537L144.062 130.491C144.16 131.039 144.268 131.635 144.384 132.278C144.511 132.917 144.631 133.571 144.743 134.241C144.863 134.895 144.968 135.523 145.058 136.124C145.145 136.713 145.211 137.24 145.258 137.704C145.334 138.46 145.327 139.13 145.235 139.713C145.155 140.292 144.939 140.783 144.588 141.184C144.249 141.581 143.736 141.889 143.05 142.107C142.821 142.18 142.598 142.232 142.381 142.263C142.165 142.294 141.956 142.31 141.755 142.311L141.079 140.184C141.242 140.182 141.398 140.177 141.546 140.167C141.705 140.154 141.871 140.121 142.042 140.066C142.271 139.994 142.436 139.859 142.538 139.663C142.639 139.467 142.691 139.174 142.692 138.783C142.69 138.381 142.645 137.841 142.556 137.165C142.526 136.872 142.471 136.461 142.391 135.933C142.307 135.393 142.208 134.763 142.093 134.044C141.986 133.31 141.86 132.519 141.717 131.671C141.569 130.811 141.407 129.924 141.23 129.011L148.967 126.553L152.859 138.801Z" fill="white"/>
<path d="M168.278 123.348C168.8 124.197 169.167 125.034 169.38 125.861C169.597 126.672 169.644 127.46 169.523 128.225C169.412 128.983 169.106 129.7 168.605 130.374C168.114 131.042 167.424 131.65 166.535 132.197C165.646 132.744 164.787 133.088 163.959 133.231C163.135 133.358 162.358 133.308 161.627 133.081C160.9 132.838 160.215 132.435 159.573 131.872C158.941 131.302 158.364 130.594 157.842 129.745C157.145 128.611 156.722 127.511 156.574 126.447C156.437 125.376 156.61 124.375 157.094 123.443C157.582 122.495 158.424 121.653 159.619 120.918C160.805 120.189 161.926 119.823 162.982 119.822C164.031 119.811 165.001 120.116 165.891 120.738C166.784 121.343 167.58 122.214 168.278 123.348ZM160.29 128.261C160.761 129.028 161.264 129.627 161.797 130.06C162.331 130.492 162.894 130.731 163.485 130.776C164.076 130.821 164.693 130.645 165.337 130.249C166.002 129.841 166.442 129.366 166.659 128.824C166.885 128.276 166.921 127.67 166.765 127.005C166.62 126.333 166.311 125.614 165.84 124.848C165.13 123.692 164.359 122.92 163.527 122.53C162.695 122.14 161.789 122.246 160.808 122.85C160.153 123.252 159.713 123.727 159.486 124.275C159.26 124.823 159.219 125.433 159.365 126.104C159.51 126.775 159.818 127.495 160.29 128.261Z" fill="white"/>
<path d="M172.513 111.194C173.316 110.385 174.065 109.784 174.76 109.391C175.454 108.981 176.107 108.809 176.718 108.875C177.329 108.924 177.92 109.232 178.49 109.798C178.831 110.136 179.087 110.5 179.258 110.89C179.429 111.28 179.498 111.67 179.466 112.06C179.441 112.442 179.307 112.808 179.062 113.156L179.126 113.22C179.49 112.972 179.871 112.801 180.27 112.707C180.668 112.612 181.084 112.636 181.517 112.779C181.951 112.921 182.406 113.229 182.882 113.703C183.436 114.253 183.777 114.862 183.907 115.532C184.037 116.185 183.958 116.868 183.672 117.582C183.378 118.288 182.888 118.985 182.203 119.675L178.817 123.085L169.697 114.029L172.513 111.194ZM176.343 114.566C176.901 114.004 177.197 113.528 177.229 113.137C177.27 112.738 177.12 112.37 176.78 112.032C176.431 111.685 176.053 111.563 175.646 111.666C175.239 111.77 174.761 112.098 174.211 112.651L173.196 113.673L175.227 115.69L176.343 114.566ZM176.76 117.212L179.135 119.571L180.391 118.307C180.966 117.728 181.257 117.213 181.264 116.763C181.262 116.305 181.074 115.89 180.7 115.518C180.47 115.29 180.219 115.142 179.947 115.075C179.684 115 179.387 115.035 179.056 115.18C178.726 115.326 178.358 115.603 177.952 116.011L176.76 117.212Z" fill="white"/>
<path d="M193.881 105.096L190.605 109.942L189.322 109.075L189.603 107.375L182.713 102.718L181.24 103.612L179.957 102.745L183.233 97.8984L184.516 98.7653L184.235 100.466L191.125 105.123L192.598 104.229L193.881 105.096Z" fill="white"/>
<path d="M201.929 88.7831L200.704 91.6263L192.875 93.3289L198.859 95.9077L197.783 98.4038L185.981 93.3175L187.056 90.8214L192.776 93.2862L188.88 86.5896L190.027 83.9282L193.845 90.6695L201.929 88.7831Z" fill="white"/>
</svg>
