<svg width="184" height="184" viewBox="0 0 184 184" fill="none" xmlns="http://www.w3.org/2000/svg">
<path d="M90.293 39.6928L105.588 19.2793L112.368 43.8696L112.532 44.4652L113.081 44.1805L135.718 32.4249L131.157 57.5218L131.047 58.1296L131.664 58.1109L157.161 57.3416L142.163 77.9743L141.799 78.4739L142.364 78.7251L165.669 89.0944L143.204 101.176L142.66 101.469L143.059 101.94L159.557 121.394L134.075 122.532L133.458 122.56L133.613 123.158L140.037 147.844L116.584 137.813L116.016 137.57L115.897 138.176L110.973 163.204L94.1955 143.991L93.7892 143.525L93.4188 144.02L78.1236 164.433L71.3435 139.843L71.1793 139.247L70.6311 139.532L47.9935 151.288L52.5543 126.191L52.6647 125.583L52.0473 125.602L26.551 126.371L41.5492 105.738L41.9124 105.239L41.348 104.987L18.0429 94.6181L40.508 82.5362L41.052 82.2436L40.6525 81.7725L24.1543 62.3184L49.6368 61.1802L50.2539 61.1526L50.0984 60.5548L43.6749 35.8689L67.1276 45.8999L67.6956 46.1428L67.8149 45.5367L72.7383 20.5085L89.5162 39.7218L89.9225 40.1872L90.293 39.6928Z" stroke="white"/>
<path d="M83.2426 91.5233L80.2521 92.3247L74.0624 87.2373L75.7489 93.5313L73.1235 94.2347L69.7972 81.8207L72.4226 81.1172L74.0345 87.133L76.8736 79.9246L79.6728 79.1745L76.7502 86.3494L83.2426 91.5233ZM85.3387 77.6563C86.4398 77.3613 87.3893 77.2187 88.187 77.2285C88.9932 77.2237 89.6439 77.4034 90.1391 77.7677C90.6427 78.1172 90.9986 78.6803 91.2067 79.4569C91.3309 79.9206 91.3689 80.3638 91.3207 80.7867C91.2725 81.2096 91.1362 81.5816 90.9116 81.9026C90.6986 82.2206 90.3986 82.4687 90.0116 82.6469L90.0349 82.7339C90.4739 82.7032 90.8894 82.7472 91.2815 82.8657C91.6735 82.9843 92.0209 83.2142 92.3235 83.5555C92.6262 83.8968 92.8644 84.392 93.0384 85.0411C93.2403 85.7946 93.2287 86.4933 93.0038 87.1375C92.7873 87.767 92.376 88.3182 91.7697 88.7913C91.1604 89.2527 90.3863 89.6092 89.4474 89.8608L84.8052 91.1046L81.4788 78.6906L85.3387 77.6563ZM86.9527 82.4976C87.7177 82.2926 88.2125 82.0295 88.437 81.7085C88.6732 81.3843 88.7291 80.9904 88.6049 80.5268C88.4776 80.0515 88.2121 79.7562 87.8084 79.6407C87.4048 79.5253 86.8263 79.5685 86.0728 79.7703L84.6819 80.143L85.4227 82.9075L86.9527 82.4976ZM85.9817 84.9939L86.8482 88.2278L88.5695 87.7666C89.3577 87.5554 89.8679 87.2572 90.1001 86.872C90.3292 86.4752 90.3754 86.0218 90.2388 85.5118C90.1549 85.1988 90.0124 84.945 89.8112 84.7505C89.6216 84.5528 89.3474 84.4337 88.9887 84.3932C88.63 84.3527 88.1724 84.4069 87.6161 84.556L85.9817 84.9939ZM101.129 86.7307L95.4784 88.2448L95.0778 86.7495L96.4041 85.6487L94.2517 77.6161L92.5527 77.3259L92.1521 75.8307L97.8027 74.3166L98.2034 75.8118L96.8771 76.9126L99.0295 84.9453L100.728 85.2354L101.129 86.7307ZM103.882 72.6876C105.482 72.259 106.74 72.2946 107.657 72.7943C108.582 73.2795 109.206 74.1247 109.529 75.3302C109.675 75.875 109.733 76.4183 109.705 76.9602C109.673 77.4905 109.518 78.004 109.242 78.5006C108.973 78.9825 108.561 79.4158 108.006 79.8007C107.451 80.1855 106.721 80.4991 105.817 80.7413L104.687 81.0441L105.87 85.4604L103.245 86.1638L99.9182 73.7498L103.882 72.6876ZM104.321 74.8808L103.121 75.2022L104.109 78.8882L104.978 78.6553C105.477 78.5217 105.888 78.343 106.214 78.1193C106.539 77.8955 106.763 77.6181 106.885 77.2871C107.008 76.9561 107.01 76.5704 106.892 76.1299C106.727 75.5156 106.438 75.1086 106.024 74.9089C105.607 74.6976 105.04 74.6882 104.321 74.8808ZM76.5667 105.98C76.0683 106.113 75.6484 106.331 75.3071 106.634C74.9774 106.934 74.729 107.305 74.5618 107.747C74.3915 108.178 74.3066 108.672 74.3073 109.231C74.3196 109.787 74.4127 110.39 74.5866 111.039C74.8226 111.92 75.1288 112.645 75.5052 113.215C75.89 113.77 76.3577 114.148 76.9083 114.349C77.459 114.549 78.0936 114.553 78.8122 114.36C79.3222 114.223 79.8109 114.03 80.2783 113.781C80.7572 113.528 81.2643 113.219 81.7996 112.852L82.3912 115.06C81.9055 115.426 81.41 115.733 80.9047 115.98C80.3995 116.227 79.8165 116.439 79.1558 116.616C77.8808 116.958 76.7561 116.98 75.7818 116.682C74.816 116.369 74.0087 115.79 73.3599 114.945C72.708 114.089 72.2112 113.023 71.8696 111.748C71.618 110.809 71.5157 109.917 71.5626 109.072C71.6064 108.216 71.7956 107.438 72.1303 106.74C72.4765 106.038 72.967 105.435 73.6018 104.929C74.2482 104.421 75.0408 104.041 75.9797 103.789C76.594 103.624 77.2301 103.541 77.8879 103.539C78.5542 103.522 79.2071 103.57 79.8465 103.685L79.5675 106.052C79.0449 105.956 78.5242 105.89 78.0055 105.855C77.4984 105.817 77.0188 105.859 76.5667 105.98ZM94.414 105.67C94.6718 106.632 94.7846 107.54 94.7524 108.393C94.7287 109.232 94.5495 110 94.2148 110.699C93.8918 111.394 93.3939 111.993 92.7213 112.497C92.0602 112.997 91.2254 113.382 90.217 113.652C89.2086 113.922 88.2873 114.008 87.4531 113.908C86.6274 113.794 85.8966 113.524 85.2607 113.098C84.6333 112.658 84.0923 112.076 83.6377 111.353C83.1946 110.627 82.8442 109.783 82.5865 108.821C82.2417 107.534 82.1506 106.359 82.3132 105.297C82.4874 104.232 82.9393 103.322 83.6689 102.567C84.4069 101.798 85.454 101.232 86.8102 100.868C88.1548 100.508 89.3332 100.478 90.3454 100.778C91.3545 101.067 92.1965 101.636 92.8716 102.487C93.5552 103.322 94.0693 104.383 94.414 105.67ZM85.3556 108.097C85.5885 108.967 85.899 109.685 86.2869 110.252C86.6749 110.818 87.1457 111.208 87.6994 111.42C88.2531 111.632 88.8951 111.64 89.6253 111.444C90.3788 111.242 90.9365 110.913 91.2984 110.455C91.672 109.995 91.8793 109.424 91.9202 108.742C91.9727 108.057 91.8825 107.28 91.6496 106.411C91.2986 105.101 90.7803 104.14 90.0947 103.529C89.4091 102.918 88.51 102.761 87.3972 103.059C86.6554 103.258 86.0977 103.587 85.7241 104.048C85.3505 104.508 85.1375 105.081 85.085 105.766C85.0324 106.451 85.1227 107.228 85.3556 108.097ZM108.137 108.664L105.512 109.368L102.772 99.1443L99.7298 99.9596C99.8031 100.511 99.8831 101.111 99.9697 101.759C100.068 102.403 100.158 103.063 100.239 103.737C100.328 104.396 100.405 105.028 100.467 105.632C100.527 106.225 100.569 106.754 100.594 107.219C100.636 107.978 100.598 108.647 100.48 109.225C100.373 109.801 100.135 110.28 99.7658 110.665C99.4084 111.047 98.8819 111.33 98.1865 111.517C97.9547 111.579 97.7298 111.621 97.5118 111.642C97.2938 111.663 97.0844 111.669 96.8834 111.661L96.3057 109.505C96.4688 109.511 96.6246 109.513 96.773 109.51C96.933 109.505 97.0999 109.479 97.2738 109.432C97.5056 109.37 97.6767 109.243 97.787 109.052C97.8973 108.861 97.9623 108.57 97.9819 108.18C97.9984 107.778 97.9777 107.237 97.9197 106.557C97.9031 106.263 97.867 105.85 97.8115 105.319C97.7529 104.775 97.6825 104.142 97.6005 103.419C97.527 102.68 97.4379 101.884 97.3333 101.03C97.2256 100.165 97.1043 99.2717 96.9695 98.3512L104.811 96.2501L108.137 108.664ZM120.868 98.5818C121.125 99.5438 121.238 100.452 121.206 101.305C121.182 102.144 121.003 102.912 120.668 103.611C120.345 104.306 119.847 104.905 119.175 105.409C118.514 105.909 117.679 106.294 116.671 106.564C115.662 106.834 114.741 106.92 113.907 106.82C113.081 106.706 112.35 106.436 111.714 106.01C111.087 105.569 110.546 104.988 110.091 104.265C109.648 103.538 109.298 102.694 109.04 101.732C108.695 100.446 108.604 99.2713 108.767 98.209C108.941 97.1436 109.393 96.2337 110.122 95.4791C110.86 94.7099 111.908 94.1436 113.264 93.7802C114.608 93.4199 115.787 93.3899 116.799 93.6902C117.808 93.9788 118.65 94.5483 119.325 95.3985C120.009 96.2341 120.523 97.2952 120.868 98.5818ZM111.809 101.009C112.042 101.878 112.353 102.596 112.74 103.163C113.128 103.73 113.599 104.12 114.153 104.332C114.707 104.543 115.349 104.552 116.079 104.356C116.832 104.154 117.39 103.824 117.752 103.367C118.126 102.907 118.333 102.336 118.374 101.654C118.426 100.969 118.336 100.192 118.103 99.3225C117.752 98.0127 117.234 97.0521 116.548 96.4408C115.863 95.8294 114.963 95.6728 113.851 95.9709C113.109 96.1697 112.551 96.4993 112.178 96.9596C111.804 97.42 111.591 97.9927 111.539 98.6776C111.486 99.3625 111.576 100.14 111.809 101.009Z" fill="white"/>
</svg>
