<svg width="14" height="140" viewBox="0 0 14 140" fill="none" xmlns="http://www.w3.org/2000/svg">
<path fill-rule="evenodd" clip-rule="evenodd" d="M8.31971 9.90595C8.33095 10.1613 8.33958 10.3575 8.34622 10.5538C8.36821 11.2045 8.36821 11.8559 8.3682 14.6667V14.8138C8.3682 16.7598 8.03058 18.1191 7.52744 19.1571C7.02438 20.195 6.32364 20.9795 5.48555 21.7421C3.61587 23.4014 2.01636 25.898 2.01636 29.0197H2.01713C2.0647 33.2015 4.9554 35.1027 7.3549 36.6808L7.4671 36.7546C9.99441 38.4179 11.9596 39.7775 11.9596 42.8386C11.9596 45.9122 9.86261 47.4464 7.2503 49.3119L7.19469 49.3516C4.73033 51.1113 1.77604 53.2208 2.01861 57.4574C2.24315 61.3789 4.99077 63.1226 7.28913 64.5811L7.3287 64.6062C9.7326 66.1318 11.6646 67.3843 11.9652 70.2011C12.3189 73.5154 10.2425 75.3252 7.5561 77.5135L7.36632 77.6679C4.84546 79.7185 1.84768 82.1571 2.01772 86.562C2.1782 90.7194 4.97216 92.8572 7.34201 94.6704L7.48775 94.782C9.97747 96.6887 11.9596 98.2905 11.9596 101.458C11.9596 103.812 10.8222 105.356 9.19935 106.792L9.19929 106.792L9.18992 106.8C8.25179 107.652 7.34551 108.637 6.68542 109.997C6.02446 111.358 5.64264 113.028 5.64264 115.213V130H0.869141L6.64264 140L12.4161 130H7.64264V115.213C7.64264 113.267 7.98075 111.908 8.48461 110.87C8.98843 109.833 9.69028 109.048 10.5298 108.285C12.355 106.669 13.9596 104.626 13.9596 101.458C13.9596 97.2189 11.1491 95.0667 8.74891 93.2287L8.7038 93.1941C6.20365 91.2794 4.13911 89.6682 4.01623 86.4849C3.88593 83.1093 6.1201 81.2629 8.81925 79.0641L8.85586 79.0343C11.4182 76.9471 14.4343 74.4903 13.9539 69.9889C13.5474 66.1796 10.8217 64.4521 8.55951 63.0184L8.40039 62.9176C6.01121 61.4013 4.17622 60.1528 4.01534 57.343C3.84157 54.3081 5.81206 52.7967 8.41263 50.9395L8.59015 50.8129C11.0217 49.0789 13.9596 46.9838 13.9596 42.8386C13.9596 38.6317 11.0639 36.7268 8.65606 35.1428L8.56658 35.0839C6.03659 33.4189 4.04883 32.0562 4.01693 28.99L4.01643 28.99C4.0265 26.6037 5.25077 24.6229 6.81715 23.2344L6.8172 23.2345L6.82657 23.2259C7.76331 22.3741 8.66816 21.3891 9.32718 20.0294C9.98703 18.6681 10.3682 16.9991 10.3682 14.8138C10.3682 10.9802 10.3675 10.9649 10.3166 9.78817V9.78815C10.2704 8.72063 10.1827 6.69721 10.0167 0L8.01728 0.0495785C8.18677 6.88495 8.27441 8.87638 8.31971 9.90595Z" fill="white"/>
</svg>
