<svg width="169" height="118" viewBox="0 0 169 118" fill="none" xmlns="http://www.w3.org/2000/svg">
<path d="M84.1576 48.7122L81.5322 49.4157L80.2464 44.617C79.5844 45.0676 78.9634 45.439 78.3832 45.7311C77.8147 46.0201 77.2232 46.2469 76.6089 46.4115C75.4498 46.7221 74.4653 46.6878 73.6556 46.3084C72.8543 45.9144 72.3139 45.1958 72.0343 44.1526L70.66 39.0235L73.2854 38.32L74.4594 42.7015C74.6209 43.3042 74.8811 43.719 75.2401 43.9458C75.599 44.1726 76.1088 44.1975 76.7695 44.0205C77.2563 43.8901 77.7292 43.7075 78.1881 43.4727C78.6469 43.2379 79.1498 42.9355 79.6966 42.5653L78.2058 37.0016L80.8312 36.2981L84.1576 48.7122ZM96.8779 38.6325C97.1357 39.5945 97.2484 40.5023 97.2162 41.3557C97.1925 42.1944 97.0133 42.963 96.6787 43.6614C96.3556 44.3567 95.8577 44.956 95.1851 45.4592C94.524 45.9594 93.6892 46.3445 92.6808 46.6148C91.6724 46.885 90.7511 46.9703 89.9169 46.8708C89.0912 46.7566 88.3604 46.4866 87.7245 46.0607C87.0971 45.62 86.5561 45.0382 86.1015 44.3153C85.6585 43.5892 85.3081 42.7451 85.0503 41.783C84.7055 40.4964 84.6145 39.322 84.7771 38.2597C84.9513 37.1943 85.4031 36.2844 86.1327 35.5298C86.8708 34.7606 87.9179 34.1943 89.274 33.8309C90.6186 33.4706 91.797 33.4406 92.8092 33.7409C93.8183 34.0295 94.6604 34.599 95.3354 35.4492C96.019 36.2848 96.5331 37.3459 96.8779 38.6325ZM87.8194 41.0597C88.0524 41.929 88.3628 42.6471 88.7507 43.2141C89.1387 43.781 89.6095 44.1704 90.1632 44.3823C90.7169 44.5942 91.3589 44.6023 92.0892 44.4066C92.8426 44.2048 93.4003 43.8752 93.7623 43.4179C94.1358 42.9575 94.3431 42.3864 94.384 41.7046C94.4365 41.0197 94.3463 40.2426 94.1134 39.3732C93.7624 38.0634 93.2441 37.1028 92.5585 36.4915C91.8729 35.8801 90.9738 35.7235 89.861 36.0216C89.1192 36.2204 88.5615 36.55 88.1879 37.0103C87.8143 37.4707 87.6013 38.0434 87.5488 38.7283C87.4963 39.4132 87.5865 40.1904 87.8194 41.0597ZM110.601 41.6267L107.976 42.3302L105.236 32.1068L102.194 32.9221C102.267 33.4739 102.347 34.0737 102.433 34.7213C102.532 35.3659 102.621 36.0251 102.703 36.6991C102.792 37.3583 102.868 37.9901 102.931 38.5946C102.99 39.1874 103.033 39.7164 103.058 40.1817C103.1 40.9408 103.062 41.6094 102.943 42.1878C102.837 42.763 102.599 43.2429 102.23 43.6275C101.872 44.0091 101.346 44.293 100.65 44.4793C100.418 44.5415 100.194 44.5831 99.9756 44.6042C99.7577 44.6253 99.5482 44.6318 99.3472 44.6235L98.7695 42.4676C98.9326 42.4736 99.0884 42.4753 99.2368 42.4728C99.3968 42.4672 99.5637 42.4411 99.7376 42.3945C99.9694 42.3324 100.14 42.2058 100.251 42.0148C100.361 41.8237 100.426 41.533 100.446 41.1426C100.462 40.7406 100.441 40.1995 100.383 39.5194C100.367 39.2257 100.331 38.8129 100.275 38.2812C100.217 37.7378 100.146 37.1045 100.064 36.3811C99.9908 35.6429 99.9017 34.8469 99.7971 33.9928C99.6894 33.1272 99.5681 32.2342 99.4333 31.3137L107.275 29.2126L110.601 41.6267ZM123.331 31.5443C123.589 32.5063 123.702 33.4141 123.67 34.2675C123.646 35.1062 123.467 35.8748 123.132 36.5732C122.809 37.2685 122.311 37.8678 121.639 38.371C120.978 38.8712 120.143 39.2563 119.134 39.5265C118.126 39.7968 117.205 39.8821 116.37 39.7826C115.545 39.6684 114.814 39.3984 114.178 38.9724C113.551 38.5318 113.01 37.95 112.555 37.2271C112.112 36.501 111.762 35.6569 111.504 34.6948C111.159 33.4082 111.068 32.2338 111.231 31.1715C111.405 30.1061 111.857 29.1962 112.586 28.4416C113.324 27.6724 114.371 27.1061 115.728 26.7427C117.072 26.3824 118.251 26.3524 119.263 26.6527C120.272 26.9413 121.114 27.5108 121.789 28.361C122.473 29.1966 122.987 30.2577 123.331 31.5443ZM114.273 33.9715C114.506 34.8408 114.816 35.5589 115.204 36.1259C115.592 36.6928 116.063 37.0822 116.617 37.2941C117.17 37.506 117.812 37.5141 118.543 37.3184C119.296 37.1166 119.854 36.787 120.216 36.3297C120.589 35.8693 120.797 35.2982 120.838 34.6164C120.89 33.9315 120.8 33.1544 120.567 32.285C120.216 30.9752 119.698 30.0146 119.012 29.4032C118.326 28.7919 117.427 28.6352 116.315 28.9334C115.573 29.1322 115.015 29.4618 114.641 29.9221C114.268 30.3825 114.055 30.9552 114.002 31.6401C113.95 32.325 114.04 33.1022 114.273 33.9715ZM128.104 23.6314C129.205 23.3363 130.155 23.1937 130.953 23.2036C131.759 23.1988 132.409 23.3785 132.905 23.7427C133.408 24.0923 133.764 24.6554 133.972 25.432C134.096 25.8956 134.134 26.3389 134.086 26.7618C134.038 27.1846 133.902 27.5566 133.677 27.8777C133.464 28.1956 133.164 28.4437 132.777 28.622L132.8 28.7089C133.239 28.6782 133.655 28.7222 134.047 28.8408C134.439 28.9593 134.786 29.1893 135.089 29.5306C135.392 29.8719 135.63 30.3671 135.804 31.0162C136.006 31.7696 135.994 32.4684 135.769 33.1126C135.553 33.742 135.141 34.2933 134.535 34.7663C133.926 35.2277 133.152 35.5842 132.213 35.8358L127.571 37.0797L124.244 24.6656L128.104 23.6314ZM129.718 28.4726C130.483 28.2676 130.978 28.0046 131.203 27.6835C131.439 27.3594 131.495 26.9655 131.37 26.5018C131.243 26.0266 130.978 25.7312 130.574 25.6158C130.17 25.5003 129.592 25.5435 128.838 25.7454L127.447 26.1181L128.188 28.8826L129.718 28.4726ZM128.747 30.969L129.614 34.2029L131.335 33.7417C132.123 33.5305 132.633 33.2323 132.866 32.847C133.095 32.4502 133.141 31.9968 133.004 31.4868C132.92 31.1738 132.778 30.9201 132.577 30.7255C132.387 30.5279 132.113 30.4088 131.754 30.3682C131.395 30.3277 130.938 30.382 130.382 30.531L128.747 30.969ZM143.895 32.7057L138.244 34.2198L137.843 32.7245L139.17 31.6238L137.017 23.5911L135.318 23.301L134.918 21.8057L140.568 20.2916L140.969 21.7869L139.643 22.8877L141.795 30.9203L143.494 31.2105L143.895 32.7057ZM156.129 29.4275L153.139 30.2288L146.949 25.1414L148.635 31.4354L146.01 32.1389L142.684 19.7248L145.309 19.0213L146.921 25.0371L149.76 17.8287L152.559 17.0786L149.637 24.2535L156.129 29.4275ZM99.0846 57.3802C98.5862 57.5137 98.1663 57.7318 97.825 58.0345C97.4953 58.334 97.2468 58.7049 97.0796 59.1473C96.9093 59.5781 96.8245 60.0729 96.8252 60.6317C96.8374 61.1875 96.9305 61.7899 97.1044 62.439C97.3405 63.32 97.6467 64.0454 98.023 64.6154C98.4079 65.1708 98.8756 65.5486 99.4262 65.7489C99.9768 65.9492 100.611 65.9531 101.33 65.7605C101.84 65.6239 102.329 65.4308 102.796 65.1814C103.275 64.9288 103.782 64.619 104.317 64.2519L104.909 66.4601C104.423 66.8263 103.928 67.133 103.423 67.3801C102.917 67.6273 102.334 67.8394 101.674 68.0165C100.399 68.3581 99.274 68.3799 98.2997 68.082C97.3338 67.7693 96.5265 67.1905 95.8777 66.3456C95.2259 65.4892 94.7291 64.4234 94.3875 63.1484C94.1359 62.2095 94.0336 61.3176 94.0805 60.4727C94.1243 59.6162 94.3135 58.8387 94.6481 58.1403C94.9944 57.4388 95.4849 56.8353 96.1197 56.3297C96.7661 55.8211 97.5587 55.441 98.4976 55.1894C99.1119 55.0248 99.748 54.9414 100.406 54.939C101.072 54.922 101.725 54.9707 102.364 55.0851L102.085 57.4519C101.563 57.3559 101.042 57.2905 100.523 57.2555C100.016 57.2175 99.5366 57.259 99.0846 57.3802ZM116.932 57.0704C117.19 58.0324 117.302 58.9402 117.27 59.7936C117.247 60.6323 117.067 61.4009 116.733 62.0993C116.41 62.7946 115.912 63.3939 115.239 63.8971C114.578 64.3973 113.743 64.7824 112.735 65.0526C111.726 65.3228 110.805 65.4082 109.971 65.3087C109.145 65.1945 108.414 64.9245 107.779 64.4985C107.151 64.0579 106.61 63.4761 106.156 62.7531C105.712 62.0271 105.362 61.183 105.104 60.2209C104.76 58.9343 104.668 57.7599 104.831 56.6976C105.005 55.6322 105.457 54.7222 106.187 53.9677C106.925 53.1985 107.972 52.6322 109.328 52.2688C110.673 51.9085 111.851 51.8785 112.863 52.1787C113.872 52.4674 114.714 53.0369 115.389 53.8871C116.073 54.7227 116.587 55.7838 116.932 57.0704ZM107.873 59.4976C108.106 60.3669 108.417 61.085 108.805 61.6519C109.193 62.2189 109.664 62.6083 110.217 62.8202C110.771 63.0321 111.413 63.0402 112.143 62.8445C112.897 62.6427 113.454 62.3131 113.816 61.8558C114.19 61.3954 114.397 60.8243 114.438 60.1425C114.491 59.4576 114.4 58.6804 114.167 57.8111C113.816 56.5013 113.298 55.5407 112.613 54.9293C111.927 54.318 111.028 54.1613 109.915 54.4595C109.173 54.6583 108.616 54.9878 108.242 55.4482C107.868 55.9086 107.655 56.4813 107.603 57.1662C107.55 57.8511 107.641 58.6282 107.873 59.4976ZM130.655 60.0646L128.03 60.7681L125.29 50.5447L122.248 51.36C122.321 51.9118 122.401 52.5115 122.488 53.1592C122.586 53.8038 122.675 54.463 122.757 55.137C122.846 55.7962 122.922 56.428 122.985 57.0324C123.044 57.6253 123.087 58.1543 123.112 58.6196C123.154 59.3786 123.116 60.0473 122.997 60.6257C122.891 61.2009 122.653 61.6808 122.284 62.0654C121.926 62.4469 121.4 62.7309 120.704 62.9172C120.473 62.9793 120.248 63.021 120.03 63.0421C119.812 63.0632 119.602 63.0697 119.401 63.0614L118.824 60.9055C118.987 60.9114 119.142 60.9132 119.291 60.9107C119.451 60.9051 119.618 60.879 119.792 60.8324C120.023 60.7703 120.195 60.6437 120.305 60.4526C120.415 60.2616 120.48 59.9709 120.5 59.5805C120.516 59.1785 120.496 58.6374 120.438 57.9573C120.421 57.6636 120.385 57.2508 120.329 56.7191C120.271 56.1757 120.2 55.5424 120.118 54.8189C120.045 54.0808 119.956 53.2848 119.851 52.4307C119.743 51.5651 119.622 50.6721 119.487 49.7516L127.329 47.6505L130.655 60.0646ZM143.385 49.9822C143.643 50.9442 143.756 51.852 143.724 52.7054C143.7 53.5441 143.521 54.3127 143.186 55.0111C142.863 55.7064 142.365 56.3057 141.693 56.8089C141.032 57.3091 140.197 57.6942 139.188 57.9644C138.18 58.2346 137.259 58.32 136.424 58.2205C135.599 58.1063 134.868 57.8363 134.232 57.4103C133.605 56.9697 133.064 56.3879 132.609 55.6649C132.166 54.9389 131.816 54.0948 131.558 53.1327C131.213 51.8461 131.122 50.6717 131.285 49.6094C131.459 48.544 131.911 47.634 132.64 46.8795C133.378 46.1103 134.425 45.544 135.782 45.1806C137.126 44.8203 138.305 44.7903 139.317 45.0905C140.326 45.3792 141.168 45.9487 141.843 46.7989C142.527 47.6345 143.041 48.6956 143.385 49.9822ZM134.327 52.4094C134.56 53.2787 134.87 53.9968 135.258 54.5637C135.646 55.1306 136.117 55.5201 136.671 55.732C137.225 55.9439 137.866 55.952 138.597 55.7563C139.35 55.5545 139.908 55.2249 140.27 54.7676C140.643 54.3072 140.851 53.7361 140.892 53.0543C140.944 52.3694 140.854 51.5922 140.621 50.7229C140.27 49.4131 139.752 48.4525 139.066 47.8411C138.381 47.2298 137.481 47.0731 136.369 47.3713C135.627 47.5701 135.069 47.8996 134.695 48.36C134.322 48.8204 134.109 49.393 134.056 50.078C134.004 50.7629 134.094 51.54 134.327 52.4094Z" fill="white"/>
<path d="M64.194 58.5656C54.4032 52.8202 42.1714 55.737 36.8735 65.0803C31.5756 74.4237 35.2177 86.6555 45.0085 92.4008C54.7993 98.1462 67.0311 95.2294 72.329 85.8861C77.627 76.5427 73.9848 64.3109 64.194 58.5656Z" stroke="white" stroke-width="3" stroke-linecap="round" stroke-linejoin="round"/>
<path d="M16.0703 53.2363L36.8549 65.2363" stroke="white" stroke-width="3" stroke-linecap="round" stroke-linejoin="round"/>
<path d="M15.9961 53.3633L19.7296 66.8967" stroke="white" stroke-width="3" stroke-linecap="round" stroke-linejoin="round"/>
<path d="M16.0703 53.2363L29.6573 49.7029" stroke="white" stroke-width="3" stroke-linecap="round" stroke-linejoin="round"/>
</svg>
