<svg width="293" height="230" viewBox="0 0 293 230" fill="none" xmlns="http://www.w3.org/2000/svg">
<g filter="url(#filter0_b_5237_1124)">
<path d="M82.7192 59.2812H292L210.281 126.052H105.64H1L82.7192 59.2812Z" fill="white" fill-opacity="0.2" stroke="black" stroke-width="0.996575" stroke-linejoin="round"/>
<path d="M292 268.561L292 59.2807L210.281 126.051L210.281 228.698L210.281 335.332L292 268.561Z" fill="white" fill-opacity="0.2" stroke="black" stroke-width="0.996575" stroke-linejoin="round"/>
<rect x="1" y="126.053" width="209.281" height="209.281" fill="white" fill-opacity="0.2" stroke="black" stroke-width="0.996575" stroke-linejoin="round"/>
</g>
<path d="M250.656 32.7549C250.532 31.9497 249.996 30.8069 248.984 31.155C248.501 31.3217 248.204 31.7959 247.931 32.1953C247.546 32.7656 247.164 33.3359 246.775 33.9041C243.674 38.4454 240.255 42.9759 235.456 45.8297C232.747 47.4381 229.762 48.5916 226.81 49.6746C223.858 50.7576 220.806 51.7102 217.771 52.6245C214.379 53.6476 210.979 54.6495 207.581 55.6577C204.636 56.5334 201.65 57.452 198.572 57.6079C198.689 57.4257 198.823 57.2547 198.972 57.0974C199.549 56.5406 200.195 56.0604 200.894 55.6683C201.622 55.2219 202.417 55.0083 203.226 54.7627C204.839 54.2756 206.351 53.4362 207.865 52.7014C207.913 52.7079 207.961 52.6997 208.004 52.6779C209.634 51.8756 211.127 50.8193 212.425 49.5486C213.848 48.1559 214.971 46.4833 216.154 44.8898L223.822 34.5535L227.632 29.427L228.083 28.8908C228.115 28.8765 228.143 28.8553 228.166 28.8289C229.149 27.7609 230.155 26.2849 231.556 25.7295C232.957 25.1741 234.501 25.4689 235.951 25.2809C237.098 25.1314 238.172 24.6828 238.837 23.696C239.126 23.2626 239.315 22.7708 239.391 22.2556C239.468 21.7404 239.429 21.2147 239.279 20.7162C239.287 20.6768 239.287 20.636 239.279 20.5966C238.852 18.2619 238.625 16.0019 239.396 13.7057C239.738 12.6825 240.212 11.7042 240.579 10.6896C240.947 9.67493 241.406 8.59195 241.536 7.51325C241.538 7.49476 241.538 7.4762 241.536 7.45771C241.669 7.06063 241.741 6.64586 241.75 6.22735C241.75 5.71897 241.626 5.21913 241.637 4.71289C241.647 4.20664 241.837 3.93964 242.092 3.5466C242.283 3.23984 242.35 2.87164 242.28 2.51703C242.222 2.04283 241.961 1.35288 241.34 1.49813C241.34 1.49813 241.34 1.48318 241.34 1.47891C241.292 1.42201 241.231 1.37658 241.163 1.34591C241.095 1.31525 241.021 1.30011 240.947 1.30162C240.859 0.929944 240.582 0.575359 240.238 0.52623C240.009 -0.0761356 239.185 0.0456192 238.691 0.278449C238.57 0.336477 238.46 0.416089 238.367 0.513414C238.297 0.372384 238.193 0.251365 238.063 0.161699C237.934 0.0720338 237.784 0.0166583 237.628 0.000762324C237.414 -0.006056 237.202 0.0329288 237.005 0.115094C236.808 0.197259 236.631 0.320698 236.485 0.477101C236.459 0.502431 236.438 0.53352 236.426 0.567966C236.413 0.602411 236.409 0.63929 236.412 0.675754C236.286 1.01692 236.232 1.38053 236.252 1.74378C236.263 2.3003 236.088 2.84451 235.755 3.29028C235.458 3.71749 235.114 4.10198 234.838 4.542C234.529 5.03757 234.277 5.56517 234.005 6.08209C232.982 8.0259 231.374 9.49977 229.947 11.1232C229.247 11.9003 228.634 12.752 228.119 13.6629C227.552 14.744 226.868 15.7597 226.079 16.6919C224.507 18.4904 222.662 20.0583 220.885 21.656C218.848 23.4973 216.783 25.3115 214.691 27.0987C214.659 27.0841 214.623 27.0789 214.588 27.0839C214.553 27.0888 214.52 27.1035 214.493 27.1265C209.396 30.5702 204.525 34.3366 199.909 38.4027C197.603 40.4362 195.405 42.5808 193.045 44.5481C190.599 46.5944 187.889 48.2157 185.279 50.0313C184.222 50.7554 183.173 51.5265 182.396 52.5561C181.618 53.5857 181.2 54.8353 181.04 56.1233C180.955 56.8956 180.923 57.6729 180.946 58.4495C177.785 58.7144 175.79 61.771 174.826 64.5629C174.186 66.4298 173.712 68.3629 173.18 70.264C172.855 71.4046 172.539 72.5453 172.216 73.6816L172.163 73.6987L171.875 73.7863L171.257 73.9764L170.978 74.064L170.403 74.2498L170.177 74.3246C169.929 74.4058 169.692 74.4869 169.468 74.5638L169.395 74.5895L168.821 74.8031L168.633 74.8714L168.25 75.0124L168.067 75.0808L167.727 75.2111L167.605 75.258L167.217 75.4118L167.18 75.4268L166.947 75.5229C166.999 74.6972 166.773 73.8779 166.307 73.1946C164.893 70.9838 160.764 68.3031 149.609 66.9146C149.359 66.323 149.122 65.727 148.87 65.1375C147.507 61.9377 146.113 58.7528 144.688 55.5829C144.732 55.5598 144.767 55.5231 144.788 55.4782C145.58 53.795 146.425 52.1389 147.324 50.5098C148.026 49.241 149.167 47.8184 149.171 46.2932C150.344 46.4145 151.529 46.319 152.667 46.0113C152.71 45.9997 152.75 45.977 152.781 45.9455C152.813 45.9141 152.835 45.8748 152.847 45.8318C152.973 45.2978 152.655 44.9027 152.23 44.61C151.696 44.2417 151.1 43.9745 150.47 43.8218C150.477 43.7859 150.477 43.7488 150.47 43.7129C150.332 43.2319 150.056 42.8019 149.676 42.4759C149.297 42.1498 148.83 41.942 148.334 41.878C148.333 41.8199 148.312 41.764 148.274 41.7199C147.559 40.8655 146.514 39.8808 145.312 40.4383C144.632 40.7587 143.996 41.2927 143.389 41.737L143.334 41.7798C143.335 41.7763 143.335 41.7725 143.334 41.7691C143.832 40.8692 144.571 40.1254 145.467 39.6208C146.364 39.1161 147.383 38.8704 148.411 38.911C148.466 38.9086 148.519 38.8896 148.562 38.8564C148.606 38.8232 148.639 38.7774 148.656 38.7252C148.908 37.7554 147.905 37.23 147.089 37.1168C145.925 36.963 144.603 37.435 143.567 37.9349C141.061 39.1439 139.242 41.3889 138.071 43.8603C136.751 46.6129 135.981 49.5976 135.807 52.6458C135.66 55.8285 136.623 59.0241 137.661 61.9953C138.161 63.4031 138.731 64.7848 139.37 66.135C127.432 65.7207 115.498 67.0527 103.945 70.0888L101.748 64.4197C101.263 63.1723 100.75 61.9312 100.3 60.6688C99.8488 59.4064 99.5819 58.144 99.9343 56.8239C100.253 55.6363 100.9 54.5619 101.429 53.4618C101.945 52.3938 102.413 51.3051 102.835 50.1958C103.733 47.8423 104.413 45.4112 104.866 42.9332C104.981 42.3052 105.056 41.6644 105.21 41.0428C105.386 40.3721 105.729 39.757 106.207 39.2549C107.002 38.3407 107.358 37.2406 106.901 36.0701C106.886 36.0165 106.854 35.9691 106.811 35.9346C106.767 35.9001 106.713 35.8802 106.658 35.8778C104.949 35.9206 103.821 37.4073 103.17 38.8448C102.519 40.2824 102.102 42.1151 100.769 43.1169C100.8 42.1396 100.936 41.1684 101.175 40.2204C101.496 39.0926 102.301 38.4432 103.189 37.7554C104.044 37.0954 104.973 36.4738 105.752 35.7411C106.28 35.2477 106.692 34.4916 106.365 33.7696C105.483 31.8129 102.916 34.53 102.16 35.1836L100.863 36.3051C100.407 36.6543 99.9785 37.0385 99.5819 37.4543C99.5541 37.4884 99.5392 37.5312 99.5114 37.5675C99.4655 37.5321 99.4091 37.513 99.3512 37.513C99.2933 37.513 99.2369 37.5321 99.191 37.5675C98.5503 38.0823 97.6789 38.1933 97.0232 38.6974C96.551 39.0842 96.1764 39.5767 95.9296 40.135C95.8944 40.0803 95.8408 40.0402 95.7785 40.0217C95.7162 40.0033 95.6493 40.0079 95.59 40.0346C93.7426 40.889 92.4611 42.5658 91.7563 44.4477C90.9019 46.7204 90.9916 49.1982 91.3291 51.5629C91.7349 54.2949 92.3714 56.9927 92.931 59.6798C93.4905 62.367 94.0394 65.0541 94.5243 67.752C94.8254 69.4031 95.0881 71.0586 95.3273 72.7204C88.3368 75.2153 82.395 78.2101 78.7599 81.1386C75.1247 84.0671 73.4203 87.3225 73.8027 90.5522C74.3836 95.3369 79.4519 99.9914 88.8687 104.385C107.811 113.222 113.841 118.408 113.9 118.46L114.011 118.558L114.159 118.524C114.33 118.485 131.837 114.444 169.378 108.367C173.689 107.668 177.819 106.936 181.766 106.173C193.622 103.881 203.826 101.299 212.216 98.4684C212.778 98.2783 213.363 98.0753 213.957 97.8639L214.416 97.7015C214.905 97.5285 215.4 97.3469 215.911 97.159C216.182 97.0586 216.443 96.9582 216.708 96.8578L217.38 96.5993C217.696 96.4769 218.008 96.3551 218.314 96.2341L218.722 96.0696C219.98 95.5612 221.142 95.0628 222.207 94.5743L222.378 94.4996C222.656 94.3714 222.921 94.2454 223.188 94.1194L223.741 93.8588L224.296 93.5854C224.544 93.4636 224.792 93.3419 225.035 93.218L225.249 93.109C226.18 92.6305 227.081 92.135 227.942 91.6138L228.241 91.4365C228.454 91.3126 228.647 91.1887 228.845 91.0627L229.272 90.785L229.742 90.4774C230.037 90.2809 230.306 90.0908 230.565 89.9049L230.797 89.7341C231.099 89.5205 231.383 89.3069 231.633 89.0932C232.822 88.1554 233.889 87.0718 234.809 85.8678C234.973 85.6542 235.127 85.4299 235.27 85.2099C235.548 84.7863 235.797 84.3438 236.013 83.8856C236.215 83.4603 236.382 83.0195 236.513 82.5676C236.637 82.1427 236.72 81.7072 236.763 81.2668C236.85 80.4326 236.766 79.5893 236.515 78.7889C235.72 76.3474 233.39 74.3353 229.591 72.808C225.319 71.0992 219.249 70.0311 211.547 69.6509C210.558 69.6039 209.585 69.5662 208.63 69.5377C208.792 69.4672 208.955 69.3946 209.113 69.3241C210.007 68.867 210.849 68.3031 211.701 67.7755C213.446 66.6904 215.155 65.4643 217.128 64.8341C219.219 64.2017 221.243 63.3698 223.175 62.3499C223.218 62.3617 223.264 62.3617 223.307 62.3499C223.97 62.1268 224.596 61.8057 225.163 61.3972C225.849 60.9388 226.575 60.5421 227.331 60.2117C228.826 59.5709 230.345 59.0775 231.816 58.3811C233.371 57.6185 235.101 57.2831 236.829 57.4092C237.681 57.4726 238.529 57.5896 239.366 57.7595C240.12 57.9048 240.876 58.1056 241.647 58.1376C243.121 58.2038 244.458 57.3494 244.71 55.8456C245.221 54.6046 245.122 53.2717 245.31 51.9644C245.528 50.6436 245.901 49.3531 246.421 48.1195C247.414 45.6268 248.734 43.2216 249.225 40.5579C249.249 40.4212 249.268 40.2845 249.285 40.1457C249.576 39.7943 249.781 39.3794 249.883 38.9345C249.915 38.734 249.889 38.5284 249.806 38.3428C250.206 37.8259 250.447 37.2129 250.137 36.5977C250.277 36.4758 250.382 36.3197 250.443 36.1449C250.554 35.8132 250.534 35.4512 250.385 35.1345C250.473 34.9679 250.544 34.7934 250.599 34.6133C250.755 34.0057 250.775 33.371 250.656 32.7549Z" fill="#F24EB6"/>
<path d="M211.526 69.9464C182.616 68.5217 166.559 75.9957 166.559 75.9957C166.559 75.9957 169.836 67.8916 140.929 66.469C112.023 65.0464 87.436 74.5603 78.9547 81.3764C72.2718 86.77 69.7814 95.1711 89.0058 104.14C108.23 113.11 114.106 118.26 114.106 118.26C114.106 118.26 131.357 114.248 169.344 108.098C207.332 101.949 224.786 94.2825 231.469 88.8996C239.933 82.0749 240.443 71.3712 211.526 69.9464Z" fill="#FF2943"/>
<path d="M211.526 69.9464C182.616 68.5217 166.559 75.9957 166.559 75.9957C166.559 75.9957 169.836 67.8916 140.929 66.469C112.023 65.0464 87.436 74.5603 78.9547 81.3764C72.2718 86.77 69.7814 95.1711 89.0058 104.14C108.23 113.11 114.106 118.26 114.106 118.26C114.106 118.26 131.357 114.248 169.344 108.098C207.332 101.949 224.786 94.2825 231.469 88.8996C239.933 82.0749 240.443 71.3712 211.526 69.9464Z" fill="#FF2943"/>
<path d="M211.526 69.9464C182.616 68.5217 166.559 75.9957 166.559 75.9957C166.559 75.9957 169.836 67.8916 140.929 66.469C112.023 65.0464 87.436 74.5603 78.9547 81.3764C72.2718 86.77 69.7814 95.1711 89.0058 104.14C108.23 113.11 114.106 118.26 114.106 118.26C114.106 118.26 131.357 114.248 169.344 108.098C207.332 101.949 224.786 94.2825 231.469 88.8996C239.933 82.0749 240.443 71.3712 211.526 69.9464Z" fill="#F83D5E"/>
<path d="M114.024 118.578L113.913 118.479C113.853 118.428 107.823 113.242 88.8809 104.405C79.4641 100.011 74.4065 95.3567 73.8149 90.572C73.4219 87.3422 75.1369 84.0869 78.7721 81.1584C83.5499 77.3135 92.3067 73.3447 102.198 70.5529C114.796 67.0301 127.879 65.5524 140.945 66.1761C158.771 67.0647 164.578 70.4696 166.31 73.1802C166.777 73.8635 167.002 74.6828 166.951 75.5085C168.273 74.9596 172.096 73.49 178.136 72.1507C185.114 70.6063 196.575 68.9167 211.54 69.6536C219.242 70.0338 225.314 71.0955 229.584 72.8107C233.383 74.3358 235.713 76.348 236.508 78.7916C237.559 82.0235 235.786 85.7915 231.643 89.128C228.907 91.3345 223.313 94.7479 212.232 98.4903C201.06 102.263 186.637 105.595 169.39 108.387C131.86 114.464 114.346 118.505 114.171 118.544L114.024 118.578ZM135.098 66.6162C124.03 66.6239 113.016 68.1402 102.358 71.1232C92.5331 73.9001 83.8574 77.8197 79.1373 81.6219C76.7174 83.57 73.9302 86.695 74.3937 90.51C74.949 95.0812 79.9062 99.5818 89.1308 103.884C106.751 112.105 113.265 117.196 114.184 117.952C115.924 117.555 133.521 113.611 169.303 107.818C186.517 105.042 200.913 101.709 212.057 97.9435C223.061 94.2289 228.588 90.856 231.28 88.6794C235.233 85.4946 236.942 81.9594 235.959 78.9711C235.22 76.7004 233.005 74.81 229.372 73.3511C225.163 71.6615 219.157 70.6148 211.519 70.2368C203.3 69.8331 190.864 69.9334 178.294 72.7167C170.776 74.3807 166.727 76.2412 166.686 76.2604L166.016 76.5723L166.293 75.8866C166.308 75.846 166.686 74.8314 165.802 73.4686C164.811 71.9435 162.699 70.6298 159.521 69.5618C155.159 68.0964 148.899 67.1523 140.916 66.7593C138.938 66.6632 136.986 66.6162 135.098 66.6162Z" fill="#242426"/>
<path d="M211.526 69.9462C182.616 68.5215 166.559 75.9955 166.559 75.9955V108.551L169.335 108.098C207.325 101.948 224.776 94.2822 231.459 88.8994C239.932 82.0747 240.443 71.3709 211.526 69.9462Z" fill="#FF2943"/>
<path d="M166.273 108.892V75.8089L166.442 75.7298C166.483 75.7106 170.573 73.8287 178.144 72.1498C185.122 70.6055 196.583 68.9158 211.548 69.6528C219.25 70.033 225.322 71.0946 229.592 72.8099C233.391 74.335 235.721 76.3472 236.516 78.7908C237.567 82.0226 235.794 85.7906 231.651 89.1271C226.691 93.1237 218.362 96.4217 212.24 98.4873C201.062 102.262 186.638 105.594 169.392 108.386L166.615 108.836L166.273 108.892ZM166.857 76.1848V108.206L169.3 107.809C186.515 105.032 200.91 101.7 212.054 97.9341C223.058 94.2195 228.586 90.8467 231.277 88.67C235.234 85.4937 236.943 81.9586 235.961 78.9702C235.222 76.6996 233.007 74.8092 229.374 73.3503C225.164 71.6607 219.158 70.614 211.521 70.2359C196.63 69.5033 185.233 71.18 178.296 72.7159C171.634 74.1897 167.696 75.8217 166.857 76.1848Z" fill="#242426"/>
<path d="M166.564 74.4494V108.547C165.052 108.793 163.574 109.038 162.141 109.273V70.2969C165.233 71.7643 166.265 73.3258 166.564 74.4494Z" fill="#242426"/>
<path d="M78.4655 81.8027V97.6309C75.3109 94.8198 74.0508 92.1284 74.0508 89.6527C74.0529 86.6708 75.9025 83.9965 78.4655 81.8027Z" fill="#242426"/>
<path d="M160.33 69.5352V109.571C159.578 109.699 158.835 109.817 158.119 109.943V68.8281C158.935 69.0545 159.67 69.2895 160.33 69.5352Z" fill="#242426"/>
<path d="M81.6219 79.4902V100.063C80.8167 99.5178 80.082 98.9731 79.4199 98.4391V81.0218C80.0735 80.5219 80.8146 80.0072 81.6219 79.4902Z" fill="#242426"/>
<path d="M83.3894 78.4199V101.177C83.1096 101.013 82.8447 100.851 82.582 100.686V78.8984C82.8447 78.7382 83.1181 78.5737 83.3894 78.4199Z" fill="#242426"/>
<path d="M156.574 68.4216V110.213L155.934 110.322V68.2656C156.149 68.3212 156.367 68.3746 156.574 68.4216Z" fill="#242426"/>
<path d="M155.287 68.133V110.427L154.646 110.536V67.9941L155.287 68.133Z" fill="#242426"/>
<path d="M110.53 92.2902L109.906 100.896L108.817 110.509L108.367 114.071L108.14 113.933C105.663 112.418 102.301 110.515 97.8562 108.225C97.743 108.165 97.6298 108.106 97.5166 108.052L98.1937 105.175L99.0843 98.1451L98.8365 94.8321L97.2411 88.3983L96.0066 75.8341L93.9733 63.4621L91.5812 51.434L91.4082 47.1426L92.2198 43.9941L93.9071 41.5163L95.069 40.6127L95.8336 40.3735L95.9874 40.3265L96.1518 40.2731L97.3287 38.8035L98.8237 38.1136L99.2829 37.9277L99.6332 37.7867H99.661L102.69 35.0761L104.65 33.5488L105.932 33.5873L106.209 34.5314L105.558 35.5823L101.784 38.6113L100.93 40.1193L100.524 42.8962L100.498 43.2999L100.485 43.4665V43.6139L100.584 43.5199L100.757 43.3661L101.839 42.3771L103.196 39.4401L104.522 37.1844L105.838 36.268L106.656 36.1356L106.869 37.571L106.171 39.1581L105.05 40.6939L104.543 43.3191L102.664 49.9409L100.791 54.1873L99.6674 56.6587L99.52 58.406L100.272 61.2705L104.505 72.1344L104.59 72.348L105.208 73.9415L108.909 82.3811L110.092 86.5805L110.53 92.2902Z" fill="#F9F3E9"/>
<path d="M98.8423 102.737C98.5774 104.585 98.2314 106.413 97.847 108.233C97.7338 108.174 97.6206 108.114 97.5074 108.06C97.4668 108.035 97.4198 108.013 97.3814 107.994C97.9519 105.385 98.3797 102.747 98.6628 100.091C98.8276 98.7614 98.8591 97.419 98.7568 96.0835C98.6244 94.6694 98.2122 93.3066 97.8192 91.9652C97.108 89.4119 96.6453 86.7959 96.4373 84.1536C96.1917 81.4494 96.0657 78.7387 95.7731 76.0366C95.4677 73.2598 95.0362 70.515 94.5365 67.7765C94.0516 65.0787 93.5006 62.3958 92.9432 59.7044C92.3857 57.013 91.7471 54.3087 91.3413 51.5874C90.9953 49.2228 90.9035 46.745 91.7685 44.4722C92.4733 42.5904 93.7548 40.9093 95.6022 40.0592C95.6615 40.0324 95.7283 40.0279 95.7907 40.0463C95.853 40.0647 95.9066 40.1049 95.9418 40.1595C95.9805 40.211 95.9995 40.2747 95.9952 40.339C95.9874 40.3754 95.9712 40.4094 95.9478 40.4383C95.9245 40.4673 95.8946 40.4903 95.8607 40.5056C95.8283 40.5166 95.7974 40.5317 95.7688 40.5504C93.5818 41.6014 92.2811 43.8271 91.8219 46.1469C91.2366 49.1096 91.9286 52.1599 92.5117 55.0628C93.6031 60.4029 94.7842 65.7281 95.6279 71.1109C96.0337 73.7361 96.3604 76.3741 96.5655 79.025C96.7791 81.7292 96.9051 84.4463 97.2959 87.1313C97.4835 88.4649 97.7546 89.7854 98.1075 91.0851C98.445 92.3411 98.8572 93.5757 99.1028 94.8531C99.5877 97.442 99.2224 100.133 98.8423 102.737Z" fill="#242426"/>
<path d="M93.6928 46.1079C94.735 44.5357 95.4206 42.8653 96.0763 41.1095C96.3668 40.3277 96.7406 39.5011 97.4582 39.0247C98.1224 38.5804 98.9212 38.4459 99.5556 37.9396C99.8118 37.726 99.4488 37.3757 99.1946 37.5786C98.5539 38.0934 97.6824 38.2045 97.0268 38.7086C96.418 39.1764 96.04 39.8492 95.7453 40.5477C95.3886 41.4021 95.128 42.2972 94.7478 43.1452C94.3234 44.0862 93.8234 44.9913 93.2528 45.8515C93.0691 46.125 93.5112 46.3813 93.6928 46.1079Z" fill="#242426"/>
<path d="M96.0071 46.1061C95.8555 44.158 97.2117 42.6371 98.2583 41.1483C98.748 40.4793 99.1419 39.7453 99.4287 38.9674C99.5995 38.474 99.7469 38.0083 100.129 37.6281C100.512 37.2479 100.911 36.9403 101.302 36.6028L103.69 34.5436C104.027 34.2152 104.414 33.942 104.837 33.7341C105.371 33.5098 105.996 33.6465 105.977 34.3428C105.954 35.2528 104.768 35.8915 104.136 36.3828C103.399 36.951 102.624 37.4935 101.928 38.1151C100.398 39.4822 100.336 41.693 100.238 43.6112C100.24 43.6552 100.253 43.698 100.277 43.7354C100.3 43.7729 100.332 43.8038 100.371 43.8252C100.409 43.8466 100.453 43.8578 100.497 43.8577C100.541 43.8577 100.584 43.8463 100.623 43.8248C102.086 43.043 102.699 41.4473 103.262 39.9799C103.843 38.4676 104.779 36.4298 106.665 36.3849L106.419 36.1969C106.659 36.7704 106.67 37.4139 106.451 37.9955C106.221 38.5808 105.721 38.9802 105.356 39.4779C104.693 40.3815 104.608 41.5328 104.418 42.6029C103.976 45.0798 103.307 47.5108 102.421 49.8655C101.974 51.0517 101.476 52.2152 100.926 53.3558C100.424 54.3854 99.8388 55.3936 99.5098 56.4979C98.7815 58.9523 100.031 61.3297 100.902 63.5747C102.017 66.4484 103.131 69.3207 104.245 72.1915C104.362 72.4948 104.858 72.3645 104.738 72.0569C103.742 69.5022 102.751 66.9489 101.767 64.3971C101.283 63.1475 100.77 61.9064 100.319 60.644C99.8687 59.3816 99.6017 58.1192 99.9541 56.7991C100.272 55.6115 100.919 54.5371 101.449 53.437C101.965 52.369 102.433 51.2803 102.855 50.171C103.753 47.8175 104.432 45.3864 104.886 42.9084C105.001 42.2804 105.076 41.6396 105.23 41.018C105.406 40.3473 105.749 39.7322 106.227 39.2301C107.021 38.3159 107.378 37.2158 106.921 36.0453C106.9 35.9933 106.864 35.9493 106.817 35.9193C106.77 35.8894 106.714 35.8752 106.658 35.8787C104.95 35.9214 103.822 37.4081 103.171 38.8456C102.44 40.4541 102.049 42.4769 100.358 43.389L100.742 43.6026C100.8 42.4748 100.868 41.2957 101.169 40.2063C101.49 39.0785 102.295 38.4291 103.183 37.7413C104.038 37.0813 104.967 36.4597 105.746 35.727C106.274 35.2336 106.686 34.4774 106.359 33.7554C105.477 31.7988 102.91 34.5159 102.154 35.1695L100.864 36.3059C100.408 36.6551 99.9791 37.0393 99.5825 37.4551C99.3236 37.7902 99.1308 38.1715 99.0143 38.5786C98.8328 39.133 98.59 39.6653 98.2903 40.1657C97.1498 42.0369 95.3002 43.7265 95.4924 46.1039C95.518 46.4286 96.0285 46.4329 96.0028 46.1039L96.0071 46.1061Z" fill="#242426"/>
<path d="M110.338 99.2104C109.833 104.226 109.255 109.231 108.604 114.227C108.525 114.18 108.444 114.126 108.358 114.073L108.132 113.934C108.417 111.743 108.685 109.545 108.937 107.342C109.288 104.32 109.627 101.295 109.92 98.2663C110.2 95.389 110.392 92.4989 110.2 89.6003C109.99 86.6365 109.268 83.7317 108.064 81.0155C106.833 78.1724 105.552 75.355 104.296 72.5247C104.279 72.4895 104.27 72.4508 104.27 72.4115C104.27 72.3722 104.279 72.3335 104.296 72.2983C104.316 72.2595 104.345 72.2255 104.379 72.199C104.414 72.1724 104.454 72.1538 104.497 72.1445C104.539 72.1335 104.584 72.1382 104.624 72.1578C104.663 72.1775 104.694 72.2107 104.71 72.2513C104.71 72.2513 104.71 72.2641 104.723 72.2705C106.146 75.4746 107.66 78.6381 108.969 81.8828C111.223 87.4408 110.93 93.3683 110.338 99.2104Z" fill="#242426"/>
<path d="M156.659 97.2557L156.174 100.227L156.136 100.498L155.41 104.924L154.692 110.298C154.607 110.313 154.513 110.326 154.427 110.345C149.85 111.123 145.679 111.854 141.916 112.539C141.817 112.558 141.717 112.578 141.617 112.593L142.898 109.529L146.226 99.4344L147.349 92.9366L147.106 88.4252L145.459 81.6198L143.238 73.2593L139.549 65.9967L137.298 60.0371L136.051 54.7761L136.416 49.8631L138.037 44.5401L140.115 41.0327L142.163 39.0718L144.647 37.7496L146.967 37.3438L148.208 37.6706L148.362 38.3797V38.4139L148.409 38.6275L146.341 38.918L144.521 39.9156L143.199 41.3104L143.278 41.7889V41.8166L143.3 41.9427L145.491 40.6076L146.847 40.7337L147.984 41.8295L148.242 42.073L148.342 42.1734L149.929 43.0171L150.307 43.7604L150.401 43.9399L150.455 44.0467L152.003 44.743L152.614 45.3838L152.441 45.8559L149.186 46.1315L149.06 46.1464L149.019 46.266L148.355 48.464L146.108 52.2256L144.613 55.4083L144.534 55.5813L144.474 55.7138L148.453 64.792L154.927 80.6628C154.927 80.6628 157.191 85.1955 157.238 87.8272C157.285 90.4588 156.659 97.2557 156.659 97.2557Z" fill="#F9F3E9"/>
<path d="M148.66 38.7091C148.643 38.7614 148.61 38.8074 148.566 38.8406C148.522 38.8738 148.469 38.8928 148.414 38.8949C147.386 38.8543 146.367 39.1 145.471 39.6046C144.574 40.1093 143.836 40.853 143.337 41.7529C143.338 41.7571 143.338 41.7616 143.337 41.7657L143.297 41.8256C143.281 41.8441 143.262 41.8591 143.24 41.8695C143.218 41.8798 143.195 41.8852 143.171 41.8854C143.122 41.894 143.073 41.8887 143.028 41.8703C142.982 41.8518 142.943 41.8209 142.915 41.7811C142.886 41.7412 142.87 41.6942 142.867 41.6453C142.864 41.5965 142.876 41.5479 142.899 41.5051C143.425 40.5604 144.192 39.7725 145.122 39.2226C146.053 38.6726 147.113 38.3803 148.194 38.3758C148.16 37.7927 147.197 37.5791 146.718 37.5855C146.012 37.622 145.316 37.766 144.653 38.0127C143.238 38.5409 141.964 39.3897 140.932 40.4927C138.694 42.8295 137.551 46.0314 136.834 49.1223C136.446 50.6793 136.271 52.2817 136.315 53.8857C136.421 55.4705 136.7 57.0391 137.145 58.5636C137.948 61.5488 139.046 64.4467 140.422 67.2146C141.077 68.5369 141.816 69.827 142.462 71.1556C143.102 72.5187 143.637 73.9291 144.061 75.3743C144.992 78.4588 145.716 81.6009 146.513 84.7174C146.934 86.1894 147.256 87.688 147.476 89.2031C147.648 90.79 147.623 92.392 147.404 93.9729C147.026 96.9506 146.287 99.9069 145.45 102.793C144.598 105.741 143.573 108.636 142.38 111.463C142.235 111.815 142.075 112.174 141.915 112.531C141.816 112.55 141.716 112.569 141.616 112.584C141.515 112.599 141.417 112.623 141.319 112.638C141.849 111.442 142.348 110.239 142.814 109.021C143.963 106.036 144.928 102.983 145.704 99.8791C146.507 96.6366 147.284 93.2574 147.026 89.8974C146.9 88.2163 146.46 86.5758 146.041 84.9481C145.614 83.2863 145.187 81.6251 144.76 79.9647C143.929 76.735 143.113 73.5331 141.577 70.549C140.136 67.7316 138.707 64.9675 137.658 61.9706C136.609 58.9738 135.657 55.8039 135.804 52.6211C135.978 49.5729 136.747 46.5882 138.068 43.8356C139.239 41.3642 141.058 39.1192 143.564 37.9102C144.599 37.4103 145.913 36.9383 147.086 37.0921C147.908 37.2138 148.912 37.7393 148.66 38.7091Z" fill="#242426"/>
<path d="M142.03 43.4459C142.957 42.6636 143.927 41.9333 144.935 41.2585C145.481 40.8869 145.981 40.6177 146.633 40.9189C147.164 41.156 147.545 41.6217 147.914 42.0574C148.128 42.3095 148.486 41.9464 148.275 41.6964C147.559 40.842 146.515 39.8573 145.313 40.4148C144.633 40.7352 143.997 41.2692 143.39 41.7135C142.784 42.1578 142.228 42.6021 141.682 43.0763C141.432 43.2899 141.795 43.6509 142.043 43.4395L142.03 43.4459Z" fill="#242426"/>
<path d="M144.343 44.1598L145.893 43.2584C146.423 42.9508 146.961 42.5706 147.563 42.404C148.07 42.279 148.605 42.3566 149.055 42.6203C149.505 42.884 149.834 43.313 149.973 43.8159C149.993 43.8784 150.037 43.9304 150.095 43.9614C150.153 43.9924 150.221 43.9998 150.284 43.9823C150.348 43.9647 150.402 43.9235 150.436 43.8671C150.47 43.8106 150.48 43.7434 150.466 43.6792C150.318 43.1605 150.01 42.7017 149.587 42.368C149.163 42.0344 148.645 41.8429 148.106 41.8209C147.465 41.8059 146.861 42.1028 146.31 42.4168C145.564 42.844 144.815 43.2712 144.084 43.6984C144.029 43.7342 143.989 43.7901 143.974 43.8543C143.958 43.9185 143.969 43.9862 144.002 44.0432C144.035 44.1002 144.089 44.1422 144.153 44.1603C144.216 44.1785 144.284 44.1714 144.343 44.1406V44.1598Z" fill="#242426"/>
<path d="M146.284 46.0144C147.162 45.3586 148.174 44.6067 149.244 44.3056C149.858 44.1592 150.504 44.2396 151.064 44.532C151.454 44.7093 152.495 45.1023 152.36 45.6684L152.539 45.4911C151.363 45.8092 150.135 45.8926 148.926 45.7367C148.892 45.7364 148.859 45.7428 148.828 45.7554C148.797 45.7681 148.768 45.7868 148.745 45.8104C148.721 45.834 148.702 45.8622 148.689 45.8931C148.676 45.9241 148.669 45.9573 148.669 45.9909C148.748 46.8453 148.392 47.5844 147.984 48.3064C147.557 49.0604 147.117 49.8016 146.702 50.5685C145.874 52.0865 145.09 53.6287 144.353 55.1951C144.214 55.4899 144.654 55.7505 144.795 55.4515C145.587 53.7683 146.432 52.1121 147.33 50.483C148.076 49.1373 149.329 47.6207 149.18 45.9973L148.926 46.2536C150.18 46.4126 151.454 46.3233 152.674 45.9909C152.717 45.9793 152.756 45.9567 152.788 45.9252C152.819 45.8937 152.842 45.8545 152.853 45.8115C152.979 45.2775 152.661 44.8823 152.236 44.5897C151.625 44.157 150.925 43.8652 150.188 43.7352C148.693 43.5344 147.151 44.7306 146.025 45.5722C145.765 45.7666 146.025 46.2131 146.284 46.0144Z" fill="#242426"/>
<path d="M144.17 55.6381C146.698 61.2602 149.128 66.925 151.46 72.6325C152.61 75.4507 153.737 78.2781 154.839 81.1147C155.385 82.5245 155.971 83.9301 156.443 85.3676C156.896 86.7918 157.106 88.2823 157.064 89.7764C156.994 93.2717 156.593 96.7526 155.868 100.173C155.802 100.493 156.295 100.63 156.362 100.307C156.997 97.2581 157.386 94.163 157.526 91.0517C157.592 89.5714 157.626 88.0719 157.312 86.6151C156.994 85.1198 156.379 83.6994 155.832 82.2789C153.611 76.5187 151.29 70.7969 148.869 65.1136C147.481 61.8511 146.057 58.6036 144.598 55.3711C144.463 55.072 144.023 55.3305 144.155 55.6295L144.17 55.6381Z" fill="#242426"/>
<path d="M156.268 100.432C156.271 100.444 156.271 100.455 156.268 100.467C155.828 103.728 155.394 106.99 154.965 110.254C154.878 110.267 154.786 110.28 154.698 110.299C154.611 110.318 154.519 110.327 154.434 110.346C154.871 107.044 155.311 103.739 155.756 100.432C155.768 100.356 155.808 100.288 155.869 100.24C155.915 100.211 155.968 100.194 156.023 100.192C156.078 100.189 156.132 100.202 156.181 100.227C156.215 100.248 156.243 100.278 156.259 100.315C156.274 100.352 156.278 100.393 156.268 100.432Z" fill="#242426"/>
<path d="M250.242 34.9152C250.222 35.0654 250.228 35.218 250.261 35.3659C250.318 35.5837 250.318 35.8124 250.261 36.0302C250.224 36.1768 250.15 36.3119 250.048 36.4232C249.981 36.483 249.943 36.483 249.943 36.483C249.943 36.483 249.975 36.5813 250.009 36.7223C250.089 37.0001 250.102 37.2928 250.048 37.5767C249.971 37.7963 249.844 37.9946 249.676 38.1556L249.603 38.2218C249.601 38.3525 249.592 38.483 249.576 38.6127C249.566 38.9361 249.493 39.2545 249.362 39.5504V39.5632C249.318 39.653 249.248 39.7275 249.161 39.7768C249.161 39.7768 249.123 39.9627 249.057 40.2617C248.797 41.4498 248.445 42.616 248.006 43.7499C247.322 45.384 245.834 48.462 245.462 50.1367C245.202 51.3115 245.035 53.8641 244.625 55.511C244.571 55.7118 244.518 55.8976 244.465 56.0621C244.326 56.4893 244.159 56.8076 243.961 56.9528C243.017 57.6641 242.066 57.9824 240.093 57.6235C238.119 57.2647 235.18 56.7691 232.746 57.6833C230.311 58.5976 225.304 61.0262 224.7 61.3851C224.54 61.4791 224.115 61.6841 223.583 61.9298C223.41 62.0174 223.224 62.1028 223.032 62.1904C221.569 62.8611 219.723 63.6856 219.723 63.6856C219.723 63.6856 215.676 65.0164 214.433 65.779C213.19 66.5415 209.094 69.2287 207.665 69.6537C207.297 69.7606 205.465 70.2241 202.934 70.8563L202.594 70.9354C202.54 70.955 202.484 70.9707 202.428 70.9824C201.637 71.1746 200.8 71.3882 199.916 71.6061C193.047 73.3149 183.91 75.5407 182.336 75.9252C182.266 75.9447 182.195 75.9604 182.123 75.9722C182.112 75.9792 182.101 75.9836 182.088 75.985L182.167 76.8031V76.8159L182.58 81.0432L184.653 102.38L184.912 105.018V105.044L184.673 105.131C184.673 105.116 184.673 105.104 184.66 105.084C179.976 106.026 174.886 106.958 169.359 107.848C167.977 108.075 166.627 108.293 165.301 108.513L165.162 108.532C165.613 103.833 166.57 95.7947 168.244 89.4421C170.762 79.8662 174.064 67.4686 174.865 65.3048C175.666 63.1409 177.616 59.1914 180.254 58.8048C180.433 58.7791 180.681 58.7514 180.971 58.7257L181.27 58.698L181.484 58.6787C181.616 58.6787 181.764 58.6595 181.911 58.6531C185.446 58.3925 192.695 58.1276 196.787 57.9418C197.161 57.9204 197.505 57.9076 197.819 57.8884C197.91 57.8884 197.998 57.8884 198.083 57.8756L198.417 57.8542C199.04 57.8222 199.472 57.7944 199.664 57.7688C201.086 57.5701 212.455 54.4664 215.896 53.4305C219.337 52.3945 230.535 48.6948 233.04 47.3876C235.546 46.0803 240.528 42.9019 243.61 38.696C246.692 34.4901 248.442 31.1002 249.591 31.3992C250.74 31.6983 250.513 34.2829 250.302 34.708C250.268 34.7723 250.248 34.8428 250.242 34.9152Z" fill="#F9F3E9"/>
<path d="M197.017 58.1269C200.048 58.2486 203.008 57.5202 205.898 56.6808C208.888 55.8092 211.878 54.9057 214.868 54.0171C220.635 52.3083 226.425 50.5887 231.942 48.1686C234.505 47.0493 236.903 45.6972 239.035 43.8965C240.985 42.1981 242.75 40.2978 244.3 38.2274C245.107 37.1808 245.878 36.1063 246.632 35.0233C246.993 34.5043 247.348 33.981 247.7 33.4576C248.052 32.9343 248.396 32.2251 248.885 31.8107C249.562 31.2404 249.992 32.0777 250.118 32.6459C250.317 33.399 250.251 34.1975 249.932 34.908C249.648 35.4698 249.319 35.9589 249.161 36.5784C249.017 37.2435 248.937 37.9209 248.922 38.6012C248.747 41.6835 247.457 44.3493 246.273 47.1454C245.691 48.4413 245.241 49.7924 244.93 51.1783C244.631 52.6586 244.844 54.3012 244.227 55.7003C244.097 55.9972 244.537 56.2578 244.669 55.9566C245.229 54.6878 245.114 53.3165 245.31 51.9729C245.528 50.6521 245.901 49.3616 246.421 48.128C247.414 45.6352 248.734 43.23 249.225 40.5664C249.477 39.1929 249.293 37.7062 249.755 36.3797C249.968 35.7603 250.415 35.2519 250.609 34.6218C250.763 34.0151 250.78 33.3819 250.66 32.7677C250.536 31.9624 250 30.8196 248.988 31.1678C248.505 31.3344 248.208 31.8086 247.935 32.208C247.551 32.7784 247.168 33.3487 246.779 33.9169C243.678 38.4581 240.259 42.9887 235.46 45.8424C232.751 47.4509 229.766 48.6043 226.814 49.6873C223.862 50.7703 220.81 51.723 217.775 52.6372C214.384 53.6604 210.983 54.6622 207.585 55.6704C204.147 56.6936 200.657 57.7808 197.028 57.6356C196.699 57.6227 196.699 58.1333 197.028 58.1461L197.017 58.1269Z" fill="#242426"/>
<path d="M244.229 55.6497C244.173 56.1202 243.969 56.5608 243.647 56.9082C243.324 57.2555 242.9 57.4917 242.435 57.5828C241.433 57.7772 240.387 57.4354 239.409 57.2496C237.542 56.8971 235.592 56.6707 233.719 57.115C232.775 57.3414 231.918 57.775 231.045 58.183C230.116 58.6102 229.153 58.9584 228.196 59.3237C227.311 59.6381 226.453 60.0261 225.633 60.4835C224.819 60.9599 224.089 61.5772 223.17 61.8463C223.109 61.8677 223.058 61.9115 223.028 61.969C222.997 62.0264 222.99 62.0932 223.007 62.1559C223.024 62.2185 223.064 62.2724 223.12 62.3065C223.175 62.3406 223.241 62.3525 223.305 62.3398C223.967 62.1166 224.593 61.7955 225.161 61.3871C225.848 60.9323 226.574 60.5391 227.331 60.2123C228.826 59.5714 230.344 59.078 231.816 58.3817C233.371 57.6191 235.101 57.2837 236.829 57.4098C237.681 57.4731 238.528 57.5901 239.366 57.7601C240.12 57.9053 240.876 58.1061 241.647 58.1381C243.142 58.2044 244.5 57.3286 244.725 55.7885C244.772 55.4681 244.278 55.3292 244.231 55.6539L244.229 55.6497Z" fill="#242426"/>
<path d="M223.194 61.7597C221.437 62.7455 219.58 63.5396 217.653 64.1285C216.742 64.385 215.857 64.7291 215.011 65.156C214.157 65.611 213.348 66.145 212.527 66.6512C210.832 67.7064 209.176 68.9133 207.254 69.5221C205.329 70.1253 203.364 70.5894 201.372 70.9105C199.051 71.3234 196.681 71.3775 194.343 71.0707C194.021 71.0216 193.882 71.515 194.206 71.562C198.307 72.1622 202.419 71.3868 206.381 70.3103C207.325 70.0761 208.243 69.7439 209.119 69.3191C210.014 68.862 210.855 68.2981 211.707 67.7705C213.452 66.6854 215.161 65.4593 217.134 64.8292C219.332 64.1264 221.44 63.3339 223.459 62.2018C223.745 62.0416 223.486 61.5995 223.2 61.7618L223.194 61.7597Z" fill="#242426"/>
<path d="M249.912 35.3111C250.115 35.5397 249.991 36.0289 249.82 36.234C249.65 36.4391 249.342 36.5565 249.137 36.7552C248.898 36.9838 249.261 37.3448 249.498 37.1162C249.85 36.7766 250.273 36.6484 250.442 36.1421C250.514 35.945 250.536 35.7332 250.507 35.5253C250.478 35.3175 250.399 35.12 250.275 34.9501C250.062 34.7023 249.697 35.0655 249.912 35.3111Z" fill="#242426"/>
<path d="M249.628 36.7116C250.076 37.3888 249.427 38.0574 248.966 38.5124C248.925 38.5621 248.905 38.625 248.909 38.6889C248.912 38.7527 248.94 38.8129 248.985 38.8576C249.031 38.9023 249.092 38.9283 249.156 38.9304C249.22 38.9326 249.282 38.9107 249.331 38.8692C249.972 38.2454 250.664 37.3397 250.072 36.4489C249.893 36.1754 249.448 36.4318 249.632 36.7074L249.628 36.7116Z" fill="#242426"/>
<path d="M249.458 38.6123H249.518L249.339 38.5375C249.633 38.8131 248.988 39.6932 248.822 39.909C248.623 40.1717 249.065 40.4259 249.264 40.1675C249.564 39.8084 249.775 39.3841 249.881 38.9285C249.928 38.6016 249.881 38.1124 249.454 38.0996C249.125 38.0996 249.125 38.6016 249.454 38.6102L249.458 38.6123Z" fill="#242426"/>
<path d="M181.907 58.6697C181.914 58.7044 181.913 58.7403 181.905 58.7746C181.896 58.8089 181.879 58.8408 181.856 58.8676C181.833 58.8945 181.804 58.9156 181.771 58.9295C181.738 58.9433 181.703 58.9494 181.668 58.9473C181.608 58.9441 181.548 58.9441 181.488 58.9473C181.416 58.9473 181.343 58.9473 181.275 58.9473C181.177 58.9467 181.079 58.9538 180.982 58.9687C179.301 59.1396 177.819 60.2311 176.849 61.5982C175.66 63.2793 175.115 65.3128 174.564 67.2737C172.379 75.0083 170.092 82.7365 168.233 90.5609C166.832 96.4692 165.73 102.463 165.29 108.523L165.151 108.542L164.773 108.602C164.959 105.898 165.284 103.213 165.709 100.536C167.012 92.3231 169.244 84.2894 171.491 76.2963C172.06 74.2828 172.63 72.2692 173.199 70.2556C173.731 68.3545 174.203 66.4214 174.846 64.5545C175.809 61.7627 177.804 58.706 180.965 58.4411L181.258 58.4219H181.484C181.55 58.4219 181.61 58.4219 181.676 58.4219C181.739 58.4257 181.798 58.4536 181.841 58.4997C181.884 58.5458 181.908 58.6067 181.907 58.6697Z" fill="#242426"/>
<path d="M242.143 2.55486C242.143 3.06751 241.502 3.97106 241.431 5.23987C241.384 5.88069 241.431 6.39547 241.299 7.24562C241.271 7.3866 241.245 7.53826 241.211 7.70487C240.937 8.90123 240.568 10.074 240.109 11.2123C238.614 15.0999 238.448 17.6845 238.967 19.5001C239.053 19.8066 239.115 20.1194 239.152 20.4357C239.172 20.568 239.183 20.7015 239.184 20.8352C239.231 22.0036 238.853 22.9712 238.302 23.9388C237.557 25.2461 234.787 25.0816 232.183 25.2547C230.421 25.3743 229.127 26.8695 228.07 28.3242C227.969 28.463 227.871 28.5954 227.771 28.7364C227.386 29.2939 227.027 29.8258 226.688 30.2509C225.385 31.8785 220.144 39.0749 219.313 40.192C218.482 41.3092 213.578 47.8818 211.718 49.847C210.915 50.7014 209.618 51.5131 208.087 52.2842C207.933 52.359 207.782 52.438 207.628 52.5106C205.706 53.442 203.457 54.3177 201.297 55.1358C199.655 55.7596 198.734 56.6695 198.226 57.6137C198.175 57.7021 198.128 57.7934 198.087 57.8871C198.053 57.9661 198.021 58.0451 197.987 58.1263C197.496 59.3887 197.643 60.6298 197.703 61.2492C197.822 62.4112 199.862 65.893 199.862 65.893L200.445 66.976L200.625 67.3156L202.459 70.7119L202.585 70.9255L202.711 71.1648L203.036 71.7693L204.618 76.5946L207.222 88.5949L208.424 96.1224L208.642 99.1043L208.429 99.1641C202.109 101.125 194.429 103.099 185.148 104.985C185.149 105.01 185.154 105.034 185.163 105.057H184.896V105.032L183.908 99.5315L182.989 91.4914L182.152 76.8125V76.7997L182.107 75.9687L181.838 71.2203C181.838 71.2203 181.473 63.8189 181.274 58.9401C181.274 58.8611 181.274 58.7885 181.274 58.7137C181.274 58.639 181.274 58.5151 181.259 58.4232C181.246 58.0238 181.234 57.6457 181.221 57.2933C181.054 52.6815 184.495 50.7142 185.518 50.1759C186.541 49.6377 193.916 44.5346 195.385 42.8664C196.855 41.1981 203.617 35.5846 203.617 35.5846C203.617 35.5846 210.09 30.3235 212.594 28.7343C213.066 28.4416 213.662 28.0016 214.334 27.4847C214.482 27.3715 214.627 27.2583 214.774 27.1386C217.643 24.8787 221.41 21.5038 221.41 21.5038L226.308 16.9924L228.952 12.7588L232.58 8.59988L234.674 5.33172L236.448 2.65525L236.587 0.880194V0.833201L236.952 0.619596L237.632 0.232971L238.189 0.679406L238.381 0.831065L238.495 0.771256L239.537 0.226563L239.883 0.559786L240.175 0.846017C240.183 0.854387 240.191 0.861588 240.201 0.867377C240.276 0.927187 240.5 1.11302 240.726 1.29459C240.814 1.3608 240.893 1.43343 240.972 1.49324C241.051 1.55305 241.066 1.568 241.105 1.60004C241.198 1.68121 241.271 1.74102 241.305 1.76665C241.339 1.79229 241.331 1.78588 241.344 1.79229C241.551 1.91404 242.143 2.08065 242.143 2.55486Z" fill="#F9F3E9"/>
<path d="M214.755 27.5591L214.497 27.7385C208.953 31.5092 203.679 35.661 198.711 40.1639C196.52 42.1569 194.373 44.2118 192.028 46.0317C189.636 47.8794 186.966 49.334 184.568 51.1582C183.404 52.0468 182.402 53.1041 181.924 54.5139C181.497 55.7678 181.437 57.0986 181.477 58.4144V58.5404C181.474 58.5888 181.474 58.6373 181.477 58.6856C181.477 58.7647 181.477 58.8458 181.477 58.9249C181.565 61.941 181.77 64.9592 181.917 67.9689C182.05 70.6198 182.169 73.2706 182.302 75.9214C182.381 77.6303 182.468 79.3391 182.554 81.0479C182.661 83.0537 182.767 85.0616 182.906 87.0673C183.233 92.1938 183.718 97.3204 184.628 102.385C184.779 103.239 184.952 104.119 185.138 104.982C185.139 105.007 185.144 105.032 185.153 105.055H184.886L184.647 105.143C184.647 105.128 184.647 105.115 184.634 105.096C183.233 98.4439 182.648 91.6598 182.261 84.8757C181.89 78.3565 181.597 71.8309 181.279 65.3053C181.193 63.6648 181.111 62.0214 181.033 60.3753C181.014 59.9032 180.98 59.4311 180.967 58.9612C180.967 58.8864 180.967 58.8138 180.954 58.7476C180.941 58.6814 180.954 58.5489 180.954 58.4485C180.932 57.6719 180.963 56.8947 181.048 56.1224C181.208 54.8407 181.606 53.5912 182.404 52.5552C183.203 51.5192 184.23 50.7545 185.288 50.0304C187.898 48.2147 190.608 46.5935 193.054 44.5471C195.414 42.5798 197.611 40.4352 199.918 38.4017C204.534 34.3341 209.406 30.5662 214.503 27.1212C214.533 27.0965 214.568 27.0808 214.606 27.0759C214.644 27.071 214.683 27.0771 214.717 27.0935C214.748 27.1012 214.776 27.1175 214.798 27.1405C214.827 27.1685 214.85 27.2029 214.864 27.241C214.878 27.2791 214.883 27.3198 214.879 27.3602C214.875 27.4006 214.862 27.4394 214.84 27.4739C214.819 27.5084 214.79 27.5375 214.755 27.5591Z" fill="#242426"/>
<path d="M214.787 27.6963C216.763 26.0031 218.718 24.2864 220.652 22.5462C222.448 20.9314 224.304 19.3422 225.957 17.5799C226.739 16.7657 227.428 15.8682 228.014 14.9035C228.623 13.8717 229.15 12.8528 229.919 11.9258C231.25 10.3195 232.854 8.93533 233.977 7.15814C234.671 6.05594 235.167 4.88966 235.965 3.85153C236.302 3.46255 236.552 3.00687 236.7 2.51437C236.837 1.9355 236.621 1.28187 236.929 0.749991C236.957 0.691818 236.962 0.625263 236.943 0.56361C236.924 0.501956 236.882 0.449739 236.826 0.417381C236.77 0.385023 236.704 0.374905 236.641 0.389045C236.579 0.403185 236.523 0.440544 236.487 0.493665C236.295 0.879024 236.213 1.31013 236.252 1.73898C236.262 2.2955 236.087 2.83972 235.754 3.28548C235.457 3.71269 235.113 4.09718 234.838 4.53721C234.528 5.03277 234.276 5.56037 234.005 6.0773C232.982 8.0211 231.374 9.49498 229.947 11.1184C229.246 11.8968 228.633 12.7499 228.119 13.6624C227.551 14.7435 226.867 15.7592 226.079 16.6913C224.507 18.4899 222.662 20.0577 220.885 21.6555C218.757 23.5765 216.604 25.4691 214.426 27.3331C214.176 27.5467 214.539 27.9077 214.787 27.6941V27.6963Z" fill="#242426"/>
<path d="M241.029 7.49492C240.922 8.1005 240.754 8.69374 240.527 9.2657C240.346 9.81253 240.16 10.3572 239.957 10.8955C239.556 11.9635 239.045 12.9931 238.74 14.0996C238.125 16.3147 238.377 18.4934 238.789 20.7213C238.851 21.0439 239.342 20.9072 239.282 20.5846C238.855 18.2499 238.629 15.99 239.4 13.6937C239.741 12.6706 240.216 11.6923 240.583 10.6776C240.95 9.66301 241.41 8.58003 241.54 7.50132C241.578 7.17451 241.068 7.17878 241.029 7.50132V7.49492Z" fill="#242426"/>
<path d="M238.763 20.7112C238.948 21.25 238.977 21.8297 238.848 22.3845C238.72 22.9392 238.438 23.4467 238.035 23.8491C237.033 24.8188 235.53 24.8167 234.227 24.8338C232.999 24.8509 231.724 24.9086 230.662 25.5985C229.545 26.3226 228.693 27.4697 227.806 28.4437C227.593 28.6872 227.945 29.0482 228.167 28.8047C229.15 27.7367 230.156 26.2607 231.557 25.7053C232.958 25.1499 234.502 25.4447 235.952 25.2567C237.099 25.1072 238.174 24.6586 238.838 23.6718C239.142 23.2233 239.339 22.7108 239.413 22.1741C239.487 21.6373 239.436 21.0907 239.265 20.5766C239.16 20.2669 238.667 20.3994 238.774 20.7112H238.763Z" fill="#242426"/>
<path d="M227.739 28.4119L220.219 38.5496L216.494 43.5672C215.27 45.2183 214.113 46.9678 212.729 48.4801C211.311 50.0293 209.615 51.2987 207.729 52.2225C207.432 52.3677 207.692 52.8077 207.985 52.6625C209.621 51.8665 211.12 50.8152 212.425 49.5481C213.848 48.1554 214.971 46.4829 216.154 44.8894L223.822 34.5531L228.185 28.6704C228.382 28.4055 227.938 28.1513 227.746 28.4119H227.739Z" fill="#242426"/>
<path d="M207.739 52.1805C206.806 52.6291 205.874 53.0819 204.939 53.5241C204.055 53.9183 203.145 54.2509 202.216 54.5195C201.407 54.7791 200.645 55.164 199.956 55.6601C199.33 56.0873 198.687 56.5359 198.247 57.166C197.314 58.4861 197.06 60.4919 197.54 62.017C197.805 62.8565 198.292 63.6169 198.719 64.3795L200.311 67.2204C200.346 67.2759 200.402 67.3155 200.466 67.3308C200.531 67.3462 200.598 67.3361 200.655 67.3028C200.712 67.2695 200.754 67.2154 200.772 67.1519C200.791 67.0884 200.784 67.0204 200.753 66.9619L199.352 64.4777C198.91 63.6895 198.388 62.9013 198.07 62.049C197.517 60.5068 197.792 58.3088 198.95 57.0913C199.527 56.5345 200.173 56.0543 200.872 55.6622C201.601 55.2158 202.395 55.0022 203.205 54.7566C204.873 54.2525 206.43 53.3724 207.995 52.6205C208.29 52.4795 208.032 52.0374 207.737 52.1805H207.739Z" fill="#242426"/>
<path d="M208.935 99.0149C208.841 99.049 208.743 99.0747 208.642 99.1088L208.429 99.1687C208.401 98.7756 208.375 98.3783 208.341 97.9853C207.856 92.4444 206.673 86.9483 205.511 81.5142C204.768 78.0175 203.884 74.5165 202.502 71.2142C202.468 71.1415 202.436 71.0604 202.401 70.9877C202.367 70.9151 202.335 70.8211 202.295 70.7421C201.79 69.566 201.208 68.4244 200.554 67.3244C200.522 67.2646 200.488 67.2112 200.456 67.1514C200.437 67.1258 200.425 67.0962 200.42 67.065C200.416 67.0338 200.418 67.002 200.428 66.972C200.441 66.9229 200.469 66.8787 200.507 66.8447C200.544 66.8106 200.591 66.7881 200.641 66.7797C200.691 66.7701 200.742 66.7766 200.787 66.7981C200.833 66.8196 200.87 66.8551 200.893 66.8994C201.615 68.1004 202.258 69.3477 202.816 70.6332C202.843 70.7079 202.876 70.7806 202.903 70.8468C202.931 70.913 202.976 71.0134 203.008 71.0988C203.474 72.216 203.886 73.3588 204.251 74.5165C204.995 76.9443 205.616 79.4082 206.111 81.8987C206.677 84.5645 207.215 87.2388 207.707 89.9196C208.204 92.6494 208.629 95.4007 208.862 98.1733C208.894 98.4638 208.916 98.7436 208.935 99.0149Z" fill="#242426"/>
<path d="M181.266 59.7617L182.134 77.2389C182.134 77.2389 183.565 100.522 184.895 105.057L180.641 105.879C180.641 105.879 181.995 103.087 181.995 97.762C181.995 92.4369 181.41 74.3979 181.41 74.3979L181.266 59.7617Z" fill="#242426"/>
<path d="M198.122 57.8789C198.122 57.8789 196.74 60.267 198.122 62.7662C199.504 65.2654 202.641 71.0519 202.641 71.0519C202.641 71.0519 210.027 69.3431 213.658 66.2479L217.131 64.4643L224.354 61.5978L228.425 59.5044C228.425 59.5044 218.463 63.4326 214.004 64.4686C209.544 65.5046 204.905 67.9504 202.176 66.3248C199.446 64.6993 197.216 61.1022 198.122 57.8789Z" fill="#242426"/>
<path d="M237.303 24.6469C236.079 24.9865 235.565 24.6597 234.384 24.476C233.202 24.2923 229.657 22.9594 227.745 27.1012C225.834 31.243 218.615 40.3447 217.128 42.7435C215.642 45.1423 224.905 32.6592 224.905 32.6592L230.405 26.1037C230.405 26.1037 232.113 25.1916 233.702 25.1702C235.291 25.1488 237.303 24.6469 237.303 24.6469Z" fill="#242426"/>
<path d="M205.709 82.2441C206.892 86.9605 206.913 99.1852 204.82 100.253L208.705 99.3197L208.022 93.2192L206.429 84.6387L205.709 82.2441Z" fill="#242426"/>
<path d="M233.667 18.2051C232.712 19.0596 233.763 20.6873 229.371 21.2598C229.371 21.2598 232.015 21.5333 233.071 21.2598C234.126 20.9864 233.667 18.2051 233.667 18.2051Z" fill="#242426"/>
<path d="M241.596 50.6738C240.641 51.5283 241.69 53.1561 237.301 53.7286C237.301 53.7286 239.945 54.002 240.998 53.7286C242.051 53.4552 241.596 50.6738 241.596 50.6738Z" fill="#242426"/>
<path d="M148.925 45.9941C148.353 48.4549 145.694 50.3132 145.295 51.5927C144.895 52.8722 143.832 54.517 143.695 55.0638C143.558 55.6106 144.38 56.0037 144.701 56.6317C145.021 57.2597 144.457 55.9417 144.827 54.816C145.196 53.6903 148.364 48.4549 148.364 48.4549L148.925 45.9941Z" fill="#242426"/>
<path d="M157.127 86.9746C157.689 89.9202 157.477 99.3637 155.929 110.324L152.881 110.854C152.881 110.854 154.331 108.7 155.145 103.723C155.959 98.7464 156.915 92.9128 156.965 90.8558C157.014 88.7988 157.127 86.9746 157.127 86.9746Z" fill="#242426"/>
<path d="M108.092 114.412C108.092 114.412 110.734 96.3728 110.531 92.2951C110.328 88.2174 110.142 86.406 109.768 85.0859C109.768 85.0859 111.885 90.2018 111.163 98.6029C110.441 107.004 110.076 115.315 110.076 115.315L108.092 114.412Z" fill="#242426"/>
<path d="M99.6091 59.991C98.3788 56.1461 98.9683 55.6933 99.6838 54.307C100.399 52.9207 103.122 48.608 103.55 46.9013C103.977 45.1946 102.971 49.33 102.089 51.387C101.207 53.444 99.2652 56.8403 99.5258 57.7951C99.6752 58.5174 99.7033 59.2595 99.6091 59.991Z" fill="#242426"/>
<defs>
<filter id="filter0_b_5237_1124" x="-21.4227" y="36.8585" width="335.845" height="320.898" filterUnits="userSpaceOnUse" color-interpolation-filters="sRGB">
<feFlood flood-opacity="0" result="BackgroundImageFix"/>
<feGaussianBlur in="BackgroundImageFix" stdDeviation="10.9623"/>
<feComposite in2="SourceAlpha" operator="in" result="effect1_backgroundBlur_5237_1124"/>
<feBlend mode="normal" in="SourceGraphic" in2="effect1_backgroundBlur_5237_1124" result="shape"/>
</filter>
</defs>
</svg>
