<svg width="586" height="350" viewBox="0 0 586 350" fill="none" xmlns="http://www.w3.org/2000/svg">
<g filter="url(#filter0_b_1_16579)">
<path d="M165 119H585L421 253H211H1L165 119Z" fill="white" fill-opacity="0.2" stroke="black" stroke-width="2" stroke-linejoin="round"/>
<path d="M585 539L585 119L421 253L421 459L421 673L585 539Z" fill="white" fill-opacity="0.2" stroke="black" stroke-width="2" stroke-linejoin="round"/>
<rect x="1" y="253" width="420" height="420" fill="white" fill-opacity="0.2" stroke="black" stroke-width="2" stroke-linejoin="round"/>
</g>
<path d="M502.028 65.7643C501.78 64.1482 500.704 61.8548 498.672 62.5535C497.703 62.8879 497.108 63.8395 496.559 64.6412C495.787 65.7857 495.02 66.9303 494.24 68.0706C488.016 77.1843 481.154 86.2765 471.523 92.0037C466.088 95.2316 460.095 97.5465 454.172 99.7199C448.248 101.893 442.123 103.805 436.032 105.64C429.225 107.693 422.402 109.704 415.582 111.727C409.671 113.485 403.679 115.328 397.503 115.641C397.737 115.275 398.006 114.932 398.304 114.616C399.462 113.499 400.758 112.535 402.162 111.749C403.623 110.853 405.218 110.424 406.842 109.931C410.079 108.954 413.113 107.269 416.152 105.794C416.248 105.807 416.345 105.791 416.431 105.747C419.702 104.137 422.697 102.017 425.304 99.467C428.158 96.672 430.413 93.3154 432.787 90.1175L448.175 69.3738L455.822 59.0855L456.726 58.0095C456.79 57.9807 456.847 57.9383 456.894 57.8852C458.865 55.7418 460.884 52.7797 463.696 51.6651C466.508 50.5505 469.607 51.1421 472.517 50.7649C474.819 50.4648 476.975 49.5646 478.308 47.5841C478.888 46.7144 479.268 45.7273 479.421 44.6934C479.575 43.6596 479.497 42.6045 479.195 41.604C479.212 41.5249 479.212 41.443 479.195 41.364C478.338 36.6785 477.884 32.1431 479.431 27.5348C480.117 25.4814 481.068 23.5181 481.806 21.4819C482.543 19.4457 483.464 17.2723 483.726 15.1074C483.728 15.0703 483.728 15.0331 483.726 14.996C483.992 14.1991 484.136 13.3667 484.154 12.5268C484.154 11.5065 483.906 10.5034 483.927 9.48746C483.949 8.47149 484.33 7.93565 484.84 7.14688C485.224 6.53125 485.359 5.7923 485.217 5.08065C485.102 4.12899 484.579 2.74436 483.331 3.03586C483.331 3.03586 483.331 3.00585 483.331 2.99728C483.235 2.8831 483.114 2.79192 482.977 2.73037C482.841 2.66883 482.692 2.63846 482.543 2.64148C482.367 1.89558 481.81 1.18397 481.12 1.08537C480.661 -0.123498 479.007 0.120849 478.016 0.588108C477.772 0.704563 477.552 0.864334 477.365 1.05965C477.225 0.776624 477.016 0.533754 476.756 0.353807C476.497 0.17386 476.196 0.0627279 475.882 0.0308268C475.454 0.0171433 475.027 0.0953808 474.632 0.260276C474.236 0.425171 473.88 0.672897 473.589 0.986778C473.535 1.03761 473.495 1.1 473.469 1.16913C473.444 1.23826 473.435 1.31227 473.443 1.38545C473.189 2.07013 473.08 2.79985 473.121 3.52884C473.143 4.6457 472.792 5.73788 472.123 6.63247C471.527 7.48982 470.837 8.26144 470.284 9.14452C469.662 10.1391 469.157 11.1979 468.612 12.2353C466.559 16.1363 463.332 19.0941 460.468 22.3521C459.062 23.9116 457.832 25.6208 456.799 27.4491C455.661 29.6186 454.288 31.657 452.706 33.5277C449.551 37.1372 445.848 40.2837 442.282 43.4902C438.192 47.1854 434.049 50.8263 429.851 54.4129C429.786 54.3836 429.714 54.3733 429.644 54.3832C429.573 54.393 429.507 54.4227 429.453 54.4686C419.224 61.3797 409.449 68.9385 400.186 77.0986C395.557 81.1796 391.146 85.4835 386.41 89.4316C381.502 93.5384 376.063 96.792 370.825 100.436C368.703 101.889 366.598 103.437 365.038 105.503C363.478 107.569 362.638 110.077 362.316 112.662C362.146 114.212 362.083 115.771 362.128 117.33C355.784 117.862 351.781 123.996 349.848 129.599C348.562 133.345 347.61 137.225 346.543 141.04C345.891 143.329 345.257 145.618 344.61 147.899L344.503 147.933L343.924 148.109L342.685 148.491L342.124 148.666L340.971 149.039L340.516 149.189C340.019 149.352 339.543 149.515 339.093 149.669L338.947 149.721L337.794 150.15L337.417 150.287L336.65 150.57L336.281 150.707L335.6 150.968L335.356 151.063L334.575 151.371L334.503 151.401L334.035 151.594C334.138 149.937 333.686 148.293 332.75 146.922C329.912 142.485 321.627 137.105 299.239 134.318C298.738 133.131 298.262 131.935 297.756 130.752C295.022 124.33 292.224 117.939 289.364 111.577C289.452 111.531 289.522 111.457 289.565 111.367C291.154 107.989 292.85 104.665 294.653 101.396C296.063 98.8497 298.352 95.9947 298.361 92.9339C300.714 93.1774 303.093 92.9855 305.377 92.3681C305.464 92.3448 305.542 92.2994 305.605 92.2362C305.669 92.173 305.714 92.0943 305.737 92.008C305.99 90.9363 305.351 90.1432 304.499 89.5559C303.428 88.8167 302.231 88.2805 300.967 87.9741C300.981 87.902 300.981 87.8276 300.967 87.7555C300.69 86.7903 300.136 85.9273 299.374 85.2729C298.613 84.6186 297.676 84.2015 296.68 84.0731C296.679 83.9566 296.636 83.8443 296.56 83.7559C295.124 82.0412 293.028 80.065 290.615 81.1839C289.252 81.8269 287.975 82.8986 286.758 83.7902L286.646 83.876C286.649 83.869 286.649 83.8614 286.646 83.8545C287.647 82.0485 289.129 80.5559 290.928 79.5431C292.727 78.5304 294.772 78.0373 296.835 78.1188C296.945 78.114 297.051 78.0757 297.139 78.0091C297.227 77.9425 297.293 77.8507 297.328 77.7459C297.833 75.7997 295.819 74.7451 294.181 74.5179C291.845 74.2093 289.192 75.1566 287.113 76.1597C282.085 78.5861 278.434 83.0915 276.085 88.0513C273.434 93.5755 271.891 99.5654 271.541 105.683C271.245 112.07 273.179 118.483 275.262 124.446C276.264 127.271 277.409 130.044 278.691 132.754C254.733 131.922 230.783 134.595 207.598 140.689L203.188 129.312C202.215 126.808 201.186 124.317 200.281 121.784C199.377 119.25 198.841 116.717 199.549 114.068C200.187 111.684 201.486 109.528 202.549 107.32C203.583 105.177 204.523 102.992 205.369 100.766C207.172 96.0426 208.536 91.1638 209.446 86.1908C209.677 84.9305 209.827 83.6445 210.136 82.397C210.489 81.0511 211.178 79.8166 212.137 78.809C213.732 76.9742 214.448 74.7665 213.53 72.4174C213.5 72.3099 213.436 72.2147 213.349 72.1454C213.261 72.0762 213.153 72.0363 213.042 72.0316C209.613 72.1173 207.35 75.1009 206.042 77.9859C204.735 80.8709 203.899 84.549 201.224 86.5595C201.285 84.5981 201.558 82.6491 202.039 80.7466C202.682 78.4832 204.298 77.18 206.081 75.7997C207.795 74.475 209.66 73.2276 211.224 71.7572C212.283 70.767 213.11 69.2495 212.455 67.8005C210.684 63.8738 205.532 69.3266 204.015 70.6384L201.413 72.8889C200.497 73.5897 199.637 74.3608 198.841 75.1952C198.786 75.2638 198.756 75.3495 198.7 75.4224C198.608 75.3515 198.495 75.3131 198.378 75.3131C198.262 75.3131 198.149 75.3515 198.057 75.4224C196.771 76.4555 195.022 76.6784 193.706 77.6901C192.759 78.4664 192.007 79.4546 191.512 80.5751C191.441 80.4655 191.333 80.3848 191.208 80.3478C191.083 80.3108 190.949 80.32 190.83 80.3736C187.123 82.0884 184.551 85.4535 183.136 89.2301C181.422 93.7913 181.602 98.7639 182.279 103.509C183.093 108.992 184.371 114.406 185.494 119.799C186.617 125.192 187.718 130.585 188.691 135.999C189.296 139.313 189.823 142.635 190.303 145.97C176.274 150.977 164.349 156.987 157.054 162.864C149.759 168.741 146.338 175.274 147.106 181.756C148.272 191.358 158.443 200.699 177.341 209.517C215.356 227.252 227.457 237.66 227.577 237.763L227.8 237.96L228.095 237.891C228.438 237.814 263.573 229.704 338.913 217.508C347.566 216.105 355.853 214.637 363.774 213.105C387.567 208.506 408.047 203.323 424.883 197.643C426.011 197.261 427.185 196.854 428.377 196.43L429.298 196.104C430.28 195.757 431.274 195.392 432.299 195.015C432.843 194.814 433.366 194.612 433.898 194.411L435.248 193.892C435.882 193.646 436.507 193.402 437.121 193.159L437.94 192.829C440.466 191.808 442.797 190.808 444.935 189.828L445.278 189.678C445.835 189.421 446.366 189.168 446.902 188.915L448.012 188.392L449.127 187.843C449.624 187.599 450.121 187.355 450.61 187.106L451.038 186.887C452.907 185.927 454.716 184.932 456.443 183.887L457.044 183.531C457.472 183.282 457.858 183.033 458.257 182.781L459.114 182.223L460.057 181.606C460.648 181.212 461.188 180.83 461.707 180.457L462.174 180.114C462.779 179.685 463.349 179.257 463.85 178.828C466.238 176.946 468.379 174.771 470.224 172.355C470.554 171.926 470.863 171.476 471.15 171.035C471.708 170.185 472.207 169.297 472.641 168.377C473.046 167.523 473.381 166.639 473.644 165.732C473.893 164.879 474.061 164.005 474.146 163.121C474.321 161.447 474.152 159.755 473.649 158.149C472.054 153.249 467.378 149.211 459.753 146.146C451.18 142.716 438.998 140.573 423.542 139.81C421.556 139.716 419.604 139.64 417.687 139.583C418.013 139.441 418.338 139.295 418.655 139.154C420.451 138.237 422.14 137.105 423.85 136.046C427.352 133.868 430.781 131.408 434.742 130.143C438.937 128.874 443.001 127.205 446.876 125.158C446.963 125.181 447.055 125.181 447.142 125.158C448.472 124.71 449.728 124.065 450.867 123.246C452.244 122.326 453.7 121.53 455.218 120.867C458.218 119.581 461.266 118.59 464.219 117.193C467.34 115.662 470.812 114.989 474.279 115.242C475.989 115.37 477.69 115.604 479.371 115.945C480.884 116.237 482.401 116.64 483.949 116.704C486.906 116.837 489.589 115.122 490.095 112.104C491.12 109.614 490.922 106.939 491.3 104.315C491.737 101.665 492.485 99.0747 493.529 96.5991C495.522 91.5964 498.171 86.7695 499.156 81.4239C499.204 81.1496 499.242 80.8752 499.276 80.5966C499.861 79.8913 500.272 79.0588 500.477 78.166C500.541 77.7636 500.488 77.351 500.322 76.9785C501.124 75.9411 501.608 74.7108 500.987 73.4762C501.266 73.2315 501.478 72.9184 501.6 72.5674C501.824 71.9019 501.783 71.1754 501.484 70.5398C501.66 70.2055 501.803 69.8553 501.913 69.4938C502.226 68.2745 502.266 67.0007 502.028 65.7643Z" fill="#F24EB6"/>
<path d="M423.5 140.402C365.48 137.543 333.256 152.542 333.256 152.542C333.256 152.542 339.831 136.278 281.821 133.423C223.81 130.568 174.466 149.662 157.445 163.341C144.033 174.165 139.035 191.025 177.616 209.025C216.197 227.025 227.989 237.361 227.989 237.361C227.989 237.361 262.609 229.31 338.845 216.968C415.082 204.627 450.109 189.241 463.521 178.439C480.508 164.742 481.532 143.261 423.5 140.402Z" fill="#FF2943"/>
<path d="M423.5 140.402C365.48 137.543 333.256 152.542 333.256 152.542C333.256 152.542 339.831 136.278 281.821 133.423C223.81 130.568 174.466 149.662 157.445 163.341C144.033 174.165 139.035 191.025 177.616 209.025C216.197 227.025 227.989 237.361 227.989 237.361C227.989 237.361 262.609 229.31 338.845 216.968C415.082 204.627 450.109 189.241 463.521 178.439C480.508 164.742 481.532 143.261 423.5 140.402Z" fill="#FF2943"/>
<path d="M423.5 140.402C365.48 137.543 333.256 152.542 333.256 152.542C333.256 152.542 339.831 136.278 281.821 133.423C223.81 130.568 174.466 149.662 157.445 163.341C144.033 174.165 139.035 191.025 177.616 209.025C216.197 227.025 227.989 237.361 227.989 237.361C227.989 237.361 262.609 229.31 338.845 216.968C415.082 204.627 450.109 189.241 463.521 178.439C480.508 164.742 481.532 143.261 423.5 140.402Z" fill="#F83D5E"/>
<path d="M227.824 238.001L227.601 237.804C227.481 237.701 215.381 227.293 177.366 209.558C158.467 200.74 148.317 191.399 147.13 181.797C146.341 175.315 149.783 168.782 157.079 162.905C166.667 155.189 184.241 147.224 204.091 141.621C229.375 134.551 255.629 131.586 281.853 132.838C317.626 134.621 329.281 141.454 332.757 146.894C333.693 148.265 334.145 149.909 334.043 151.567C336.696 150.465 344.368 147.516 356.49 144.828C370.493 141.728 393.494 138.338 423.528 139.816C438.984 140.58 451.17 142.71 459.738 146.152C467.364 149.213 472.04 153.251 473.634 158.155C475.743 164.641 472.186 172.203 463.87 178.899C458.38 183.327 447.154 190.178 424.916 197.688C402.495 205.258 373.549 211.946 338.938 217.549C263.619 229.745 228.471 237.855 228.12 237.932L227.824 238.001ZM270.117 133.721C247.906 133.736 225.801 136.779 204.412 142.766C184.695 148.339 167.284 156.205 157.812 163.835C152.955 167.745 147.362 174.016 148.292 181.673C149.406 190.846 159.355 199.879 177.867 208.512C213.229 225.012 226.302 235.227 228.145 236.745C231.639 235.948 266.954 228.034 338.762 216.408C373.309 210.836 402.199 204.148 424.565 196.591C446.648 189.136 457.741 182.367 463.142 177.999C471.076 171.607 474.505 164.513 472.533 158.515C471.05 153.959 466.605 150.165 459.314 147.237C450.866 143.846 438.813 141.746 423.485 140.987C406.991 140.177 382.032 140.378 356.807 145.964C341.719 149.303 333.593 153.037 333.511 153.075L332.165 153.701L332.723 152.325C332.753 152.244 333.511 150.208 331.737 147.473C329.748 144.412 325.509 141.776 319.131 139.632C310.378 136.691 297.815 134.797 281.793 134.008C277.824 133.815 273.906 133.721 270.117 133.721Z" fill="#242426"/>
<path d="M423.498 140.403C365.478 137.544 333.254 152.544 333.254 152.544V217.878L338.826 216.97C415.066 204.628 450.09 189.243 463.502 178.44C480.505 164.744 481.53 143.263 423.498 140.403Z" fill="#FF2943"/>
<path d="M332.68 218.563V152.169L333.018 152.01C333.1 151.972 341.308 148.195 356.503 144.826C370.506 141.726 393.507 138.336 423.541 139.815C438.997 140.578 451.183 142.708 459.751 146.15C467.377 149.211 472.053 153.249 473.647 158.153C475.756 164.639 472.199 172.201 463.883 178.897C453.93 186.918 437.214 193.537 424.929 197.682C402.495 205.257 373.55 211.944 338.938 217.547L333.365 218.451L332.68 218.563ZM333.85 152.924V217.187L338.753 216.389C373.301 210.817 402.191 204.129 424.556 196.572C446.639 189.117 457.732 182.348 463.133 177.98C471.076 171.605 474.505 164.511 472.533 158.514C471.05 153.957 466.605 150.163 459.314 147.235C450.866 143.844 438.813 141.744 423.485 140.985C393.601 139.515 370.729 142.88 356.807 145.962C343.438 148.92 335.534 152.195 333.85 152.924Z" fill="#242426"/>
<path d="M333.264 149.439V217.869C330.229 218.362 327.263 218.855 324.387 219.326V141.105C330.593 144.05 332.664 147.184 333.264 149.439Z" fill="#242426"/>
<path d="M156.465 164.199V195.964C150.134 190.323 147.605 184.922 147.605 179.953C147.61 173.969 151.322 168.602 156.465 164.199Z" fill="#242426"/>
<path d="M320.753 139.579V219.926C319.244 220.183 317.752 220.419 316.316 220.672V138.16C317.954 138.615 319.428 139.086 320.753 139.579Z" fill="#242426"/>
<path d="M162.796 159.557V200.843C161.18 199.749 159.706 198.656 158.377 197.585V162.63C159.689 161.627 161.176 160.594 162.796 159.557Z" fill="#242426"/>
<path d="M166.347 157.406V203.078C165.785 202.748 165.254 202.422 164.727 202.092V158.366C165.254 158.045 165.802 157.715 166.347 157.406Z" fill="#242426"/>
<path d="M313.219 137.342V221.213L311.934 221.432V137.029C312.367 137.141 312.804 137.248 313.219 137.342Z" fill="#242426"/>
<path d="M310.634 136.763V221.641L309.348 221.86V136.484L310.634 136.763Z" fill="#242426"/>
<path d="M220.813 185.246L219.561 202.517L217.375 221.808L216.471 228.958L216.016 228.679C211.044 225.64 204.298 221.821 195.378 217.225C195.151 217.105 194.923 216.985 194.696 216.878L196.055 211.104L197.842 196.996L197.345 190.347L194.143 177.435L191.666 152.22L187.585 127.391L182.785 103.253L182.438 94.6404L184.066 88.3217L187.452 83.3491L189.784 81.5358L191.319 81.0556L191.627 80.9613L191.957 80.8542L194.319 77.9048L197.32 76.5202L198.241 76.1473L198.944 75.8643H199L205.078 70.4244L209.013 67.3594L211.584 67.4365L212.142 69.3313L210.834 71.4404L203.26 77.519L201.546 80.5455L200.731 86.1183L200.68 86.9285L200.654 87.2629V87.5587L200.851 87.3701L201.199 87.0614L203.372 85.0766L206.094 79.1823L208.755 74.6555L211.396 72.8164L213.037 72.5507L213.466 75.4314L212.064 78.6165L209.814 81.6987L208.798 86.9671L205.026 100.256L201.267 108.778L199.013 113.738L198.717 117.245L200.226 122.993L208.721 144.796L208.893 145.224L210.131 148.422L217.559 165.359L219.934 173.787L220.813 185.246Z" fill="#F9F3E9"/>
<path d="M197.357 206.208C196.825 209.916 196.131 213.586 195.36 217.238C195.132 217.118 194.905 216.998 194.678 216.891C194.597 216.839 194.502 216.797 194.425 216.758C195.57 211.522 196.429 206.227 196.997 200.897C197.328 198.229 197.391 195.535 197.185 192.855C196.92 190.017 196.092 187.282 195.304 184.59C193.877 179.466 192.948 174.216 192.531 168.913C192.038 163.486 191.785 158.046 191.198 152.623C190.585 147.051 189.719 141.542 188.716 136.046C187.743 130.632 186.637 125.248 185.518 119.847C184.399 114.445 183.118 109.018 182.303 103.557C181.609 98.8115 181.425 93.8388 183.161 89.2777C184.575 85.501 187.147 82.1274 190.855 80.4212C190.974 80.3676 191.108 80.3584 191.233 80.3954C191.358 80.4324 191.466 80.513 191.536 80.6227C191.614 80.726 191.652 80.8538 191.643 80.9828C191.628 81.0558 191.595 81.1241 191.548 81.1822C191.501 81.2403 191.441 81.2865 191.373 81.3172C191.308 81.3393 191.246 81.3696 191.189 81.4072C186.8 83.5163 184.189 87.9831 183.268 92.6385C182.093 98.5843 183.482 104.706 184.652 110.532C186.843 121.249 189.213 131.935 190.906 142.738C191.72 148.007 192.376 153.301 192.788 158.621C193.216 164.048 193.469 169.501 194.254 174.889C194.63 177.565 195.174 180.216 195.882 182.824C196.56 185.344 197.387 187.822 197.88 190.386C198.853 195.581 198.12 200.983 197.357 206.208Z" fill="#242426"/>
<path d="M187.024 92.5619C189.115 89.4068 190.491 86.0545 191.807 82.5308C192.39 80.9619 193.14 79.3029 194.58 78.3469C195.913 77.4553 197.516 77.1852 198.789 76.1692C199.304 75.7405 198.575 75.0375 198.065 75.4448C196.779 76.4779 195.03 76.7008 193.715 77.7125C192.493 78.6513 191.734 80.0016 191.143 81.4034C190.427 83.1181 189.904 84.9143 189.141 86.6161C188.289 88.5046 187.286 90.321 186.141 92.0475C185.772 92.5962 186.659 93.1106 187.024 92.5619Z" fill="#242426"/>
<path d="M191.666 92.5577C191.362 88.6481 194.084 85.5959 196.184 82.6081C197.167 81.2655 197.957 79.7924 198.533 78.2313C198.876 77.241 199.172 76.3065 199.939 75.5434C200.706 74.7804 201.508 74.1631 202.292 73.4858L207.084 69.3533C207.761 68.6943 208.538 68.146 209.386 67.7287C210.457 67.2785 211.713 67.5529 211.675 68.9504C211.628 70.7765 209.249 72.0583 207.98 73.0443C206.501 74.1845 204.945 75.2734 203.548 76.5208C200.479 79.2644 200.355 83.7012 200.157 87.5507C200.162 87.6391 200.188 87.7249 200.235 87.8001C200.281 87.8753 200.346 87.9373 200.424 87.9803C200.501 88.0232 200.588 88.0457 200.676 88.0455C200.765 88.0454 200.852 88.0226 200.929 87.9794C203.865 86.4104 205.095 83.2082 206.227 80.2632C207.393 77.2282 209.27 73.1386 213.055 73.0485L212.562 72.6713C213.043 73.8222 213.066 75.1135 212.626 76.2808C212.163 77.4554 211.16 78.257 210.427 79.2558C209.099 81.0691 208.927 83.3797 208.546 85.5274C207.658 90.498 206.317 95.3768 204.538 100.102C203.641 102.483 202.641 104.818 201.538 107.107C200.53 109.173 199.356 111.197 198.696 113.413C197.234 118.338 199.742 123.11 201.491 127.615C203.728 133.382 205.964 139.146 208.199 144.908C208.434 145.517 209.429 145.255 209.189 144.638C207.188 139.511 205.201 134.387 203.226 129.265C202.253 126.758 201.225 124.267 200.32 121.733C199.416 119.2 198.88 116.667 199.587 114.017C200.226 111.634 201.525 109.478 202.588 107.27C203.622 105.127 204.562 102.942 205.408 100.715C207.21 95.9922 208.575 91.1133 209.484 86.1404C209.716 84.8801 209.866 83.594 210.175 82.3466C210.528 81.0006 211.217 79.7662 212.176 78.7585C213.771 76.9238 214.487 74.7161 213.569 72.3669C213.528 72.2627 213.455 72.1742 213.36 72.1142C213.265 72.0541 213.154 72.0256 213.042 72.0326C209.613 72.1183 207.35 75.1019 206.043 77.9869C204.577 81.2149 203.792 85.2744 200.397 87.1049L201.169 87.5336C201.285 85.2702 201.422 82.9038 202.026 80.7176C202.669 78.4542 204.285 77.151 206.068 75.7706C207.783 74.446 209.647 73.1986 211.212 71.7282C212.271 70.738 213.098 69.2204 212.442 67.7715C210.672 63.8448 205.52 69.2976 204.002 70.6094L201.413 72.8899C200.498 73.5907 199.638 74.3618 198.842 75.1962C198.322 75.8688 197.935 76.634 197.701 77.4511C197.337 78.5636 196.85 79.6319 196.248 80.6361C193.959 84.3914 190.248 87.7822 190.633 92.5534C190.685 93.205 191.709 93.2135 191.658 92.5534L191.666 92.5577Z" fill="#242426"/>
<path d="M220.429 199.132C219.415 209.198 218.255 219.243 216.949 229.268C216.79 229.174 216.627 229.067 216.456 228.96L216.002 228.681C216.573 224.283 217.112 219.873 217.618 215.452C218.32 209.386 219.002 203.316 219.589 197.237C220.151 191.463 220.536 185.663 220.151 179.846C219.731 173.898 218.281 168.068 215.864 162.617C213.396 156.912 210.824 151.257 208.303 145.577C208.268 145.507 208.25 145.429 208.25 145.35C208.25 145.271 208.268 145.194 208.303 145.123C208.344 145.045 208.401 144.977 208.47 144.924C208.54 144.87 208.621 144.833 208.706 144.814C208.792 144.792 208.882 144.802 208.961 144.841C209.04 144.881 209.101 144.947 209.135 145.029C209.135 145.029 209.135 145.054 209.161 145.067C212.015 151.498 215.054 157.846 217.682 164.358C222.204 175.512 221.617 187.408 220.429 199.132Z" fill="#242426"/>
<path d="M313.39 195.208L312.417 201.171L312.34 201.716L310.882 210.598L309.442 221.383C309.271 221.413 309.082 221.439 308.911 221.478C299.724 223.038 291.354 224.506 283.801 225.88C283.604 225.919 283.403 225.957 283.201 225.987L285.773 219.84L292.451 199.581L294.706 186.54L294.217 177.487L290.912 163.829L286.455 147.051L279.052 132.476L274.534 120.515L272.031 109.957L272.764 100.097L276.018 89.4148L280.188 82.3759L284.299 78.4407L289.284 75.7871L293.939 74.9727L296.429 75.6285L296.737 77.0517V77.1203L296.832 77.549L292.683 78.132L289.031 80.1339L286.377 82.9332L286.536 83.8934V83.9492L286.579 84.2021L290.977 81.5229L293.698 81.7758L295.979 83.9749L296.497 84.4636L296.699 84.6651L299.884 86.3583L300.642 87.8501L300.831 88.2102L300.938 88.4246L304.046 89.8221L305.271 91.1081L304.924 92.0555L298.392 92.6085L298.139 92.6385L298.058 92.8785L296.725 97.2896L292.215 104.839L289.215 111.226L289.056 111.573L288.936 111.839L296.922 130.058L309.914 161.909C309.914 161.909 314.457 171.005 314.551 176.286C314.646 181.568 313.39 195.208 313.39 195.208Z" fill="#F9F3E9"/>
<path d="M297.333 77.7126C297.299 77.8178 297.234 77.9099 297.146 77.9766C297.057 78.0433 296.951 78.0813 296.841 78.0856C294.778 78.004 292.733 78.4971 290.934 79.5099C289.135 80.5227 287.652 82.0153 286.652 83.8213C286.655 83.8297 286.655 83.8386 286.652 83.847L286.571 83.967C286.54 84.0044 286.501 84.0345 286.458 84.0552C286.414 84.0759 286.366 84.0868 286.318 84.0871C286.221 84.1044 286.122 84.0939 286.031 84.0568C285.94 84.0197 285.861 83.9576 285.804 83.8777C285.747 83.7978 285.714 83.7034 285.709 83.6054C285.703 83.5073 285.726 83.4098 285.773 83.324C286.827 81.428 288.367 79.8469 290.235 78.7432C292.102 77.6394 294.23 77.0529 296.399 77.0439C296.33 75.8736 294.397 75.4449 293.437 75.4578C292.02 75.531 290.622 75.8201 289.292 76.3151C286.453 77.3751 283.897 79.0786 281.826 81.2921C277.334 85.9818 275.04 92.4077 273.6 98.6107C272.822 101.735 272.472 104.951 272.559 108.17C272.773 111.351 273.332 114.499 274.226 117.558C275.837 123.549 278.039 129.365 280.801 134.92C282.117 137.573 283.6 140.162 284.895 142.829C286.181 145.564 287.254 148.395 288.105 151.295C289.974 157.485 291.427 163.791 293.026 170.046C293.871 173 294.517 176.007 294.959 179.048C295.303 182.233 295.254 185.447 294.813 188.62C294.054 194.596 292.571 200.529 290.891 206.32C289.182 212.237 287.126 218.047 284.732 223.72C284.44 224.428 284.119 225.148 283.797 225.864C283.6 225.902 283.399 225.941 283.197 225.971C282.996 226.001 282.799 226.048 282.601 226.078C283.664 223.677 284.667 221.264 285.602 218.821C287.907 212.829 289.844 206.702 291.401 200.473C293.013 193.966 294.573 187.184 294.054 180.441C293.802 177.067 292.919 173.775 292.078 170.509C291.221 167.173 290.364 163.84 289.507 160.508C287.839 154.026 286.202 147.6 283.12 141.611C280.227 135.957 277.359 130.41 275.255 124.396C273.15 118.381 271.239 112.02 271.534 105.632C271.884 99.515 273.427 93.5252 276.078 88.0009C278.427 83.0411 282.079 78.5357 287.106 76.1094C289.185 75.1063 291.821 74.1589 294.174 74.4675C295.825 74.7119 297.839 75.7664 297.333 77.7126Z" fill="#242426"/>
<path d="M284.03 87.2203C285.89 85.6503 287.836 84.1849 289.859 82.8306C290.956 82.0847 291.959 81.5446 293.266 82.1491C294.334 82.6249 295.097 83.5594 295.838 84.4339C296.267 84.9397 296.987 84.211 296.563 83.7094C295.127 81.9947 293.031 80.0185 290.618 81.1374C289.255 81.7804 287.977 82.8521 286.76 83.7437C285.543 84.6354 284.428 85.527 283.331 86.4787C282.829 86.9074 283.558 87.6318 284.055 87.2074L284.03 87.2203Z" fill="#242426"/>
<path d="M288.672 88.6521L291.784 86.8431C292.847 86.2258 293.927 85.4628 295.136 85.1284C296.152 84.8775 297.226 85.0332 298.129 85.5625C299.032 86.0917 299.693 86.9527 299.971 87.962C300.012 88.0873 300.101 88.1918 300.217 88.2539C300.333 88.3161 300.469 88.3311 300.596 88.2958C300.724 88.2606 300.832 88.1778 300.9 88.0646C300.968 87.9514 300.99 87.8164 300.961 87.6876C300.664 86.6466 300.047 85.7258 299.196 85.0562C298.346 84.3866 297.306 84.0023 296.225 83.9581C294.939 83.9281 293.726 84.524 292.62 85.1541C291.124 86.0115 289.62 86.8688 288.154 87.7262C288.042 87.798 287.963 87.9101 287.932 88.039C287.901 88.1679 287.921 88.3037 287.988 88.4181C288.055 88.5326 288.164 88.6167 288.291 88.6532C288.418 88.6896 288.555 88.6754 288.672 88.6136V88.6521Z" fill="#242426"/>
<path d="M292.567 92.3727C294.329 91.0567 296.361 89.5478 298.508 88.9433C299.74 88.6496 301.037 88.811 302.16 89.3977C302.944 89.7535 305.032 90.5423 304.762 91.6783L305.122 91.3225C302.76 91.9609 300.296 92.1284 297.869 91.8155C297.802 91.8149 297.735 91.8277 297.673 91.8531C297.61 91.8784 297.554 91.9159 297.506 91.9634C297.458 92.0108 297.42 92.0672 297.394 92.1294C297.368 92.1915 297.355 92.2582 297.355 92.3256C297.514 94.0403 296.798 95.5235 295.979 96.9725C295.122 98.4857 294.239 99.9732 293.407 101.512C291.744 104.559 290.173 107.654 288.692 110.797C288.414 111.389 289.297 111.912 289.58 111.312C291.168 107.934 292.864 104.61 294.667 101.341C296.163 98.64 298.679 95.5964 298.379 92.3384L297.869 92.8529C300.387 93.1719 302.943 92.9927 305.392 92.3256C305.478 92.3024 305.557 92.2569 305.62 92.1937C305.683 92.1305 305.729 92.0518 305.752 91.9655C306.005 90.8938 305.366 90.1007 304.513 89.5135C303.286 88.6452 301.883 88.0596 300.403 87.7987C297.402 87.3958 294.307 89.7964 292.049 91.4854C291.526 91.8755 292.049 92.7714 292.567 92.3727Z" fill="#242426"/>
<path d="M288.321 111.689C293.394 122.972 298.27 134.34 302.951 145.795C305.259 151.45 307.52 157.125 309.732 162.818C310.829 165.647 312.003 168.467 312.951 171.352C313.861 174.211 314.283 177.202 314.198 180.2C314.056 187.215 313.252 194.201 311.798 201.064C311.665 201.707 312.655 201.982 312.788 201.334C314.063 195.215 314.844 189.004 315.124 182.76C315.257 179.789 315.325 176.78 314.695 173.856C314.056 170.855 312.822 168.005 311.725 165.154C307.267 153.594 302.609 142.111 297.751 130.705C294.965 124.158 292.108 117.641 289.179 111.153C288.909 110.553 288.026 111.072 288.291 111.672L288.321 111.689Z" fill="#242426"/>
<path d="M312.6 201.583C312.606 201.606 312.606 201.629 312.6 201.652C311.717 208.196 310.845 214.744 309.985 221.294C309.81 221.32 309.625 221.345 309.449 221.384C309.274 221.423 309.089 221.44 308.918 221.478C309.795 214.851 310.68 208.219 311.571 201.583C311.595 201.431 311.676 201.293 311.798 201.198C311.891 201.138 311.998 201.105 312.108 201.1C312.218 201.096 312.327 201.12 312.424 201.172C312.494 201.212 312.549 201.274 312.581 201.348C312.612 201.423 312.619 201.505 312.6 201.583Z" fill="#242426"/>
<path d="M501.198 70.0988C501.157 70.4002 501.17 70.7064 501.236 71.0033C501.35 71.4404 501.35 71.8994 501.236 72.3365C501.161 72.6308 501.014 72.9018 500.808 73.1252C500.675 73.2453 500.598 73.2453 500.598 73.2453C500.598 73.2453 500.662 73.4425 500.731 73.7254C500.89 74.283 500.917 74.8704 500.808 75.4401C500.654 75.8808 500.399 76.2788 500.062 76.6018L499.916 76.7347C499.912 76.997 499.894 77.2589 499.86 77.5192C499.84 78.1683 499.695 78.8073 499.432 79.4011V79.4268C499.344 79.6071 499.203 79.7565 499.029 79.8555C499.029 79.8555 498.952 80.2284 498.819 80.8286C498.297 83.2129 497.592 85.5533 496.71 87.8289C495.338 91.1083 492.351 97.2855 491.605 100.646C491.082 103.004 490.748 108.127 489.925 111.432C489.818 111.835 489.71 112.208 489.603 112.538C489.325 113.395 488.99 114.034 488.592 114.325C486.697 115.753 484.79 116.392 480.829 115.672C476.869 114.951 470.971 113.957 466.084 115.792C461.198 117.626 451.151 122.5 449.938 123.221C449.616 123.409 448.764 123.821 447.696 124.314C447.349 124.489 446.976 124.661 446.59 124.837C443.654 126.183 439.951 127.837 439.951 127.837C439.951 127.837 431.828 130.508 429.334 132.038C426.839 133.569 418.618 138.962 415.75 139.815C415.013 140.029 411.336 140.959 406.256 142.228L405.575 142.387C405.466 142.426 405.354 142.458 405.24 142.481C403.655 142.867 401.974 143.296 400.2 143.733C386.415 147.162 368.078 151.629 364.919 152.401C364.778 152.44 364.635 152.471 364.491 152.495C364.47 152.509 364.447 152.518 364.422 152.521L364.581 154.163V154.188L365.408 162.672L369.57 205.492L370.089 210.787V210.838L369.608 211.014C369.608 210.984 369.608 210.958 369.583 210.919C360.183 212.81 349.969 214.679 338.876 216.467C336.102 216.921 333.394 217.358 330.732 217.8L330.453 217.838C331.358 208.407 333.278 192.276 336.638 179.527C341.692 160.31 348.318 135.429 349.926 131.087C351.533 126.744 355.447 118.818 360.74 118.042C361.1 117.991 361.597 117.935 362.18 117.884L362.78 117.828L363.209 117.789C363.475 117.789 363.771 117.751 364.066 117.738C371.16 117.215 385.708 116.683 393.92 116.31C394.67 116.267 395.361 116.242 395.991 116.203C396.175 116.203 396.351 116.203 396.522 116.177L397.191 116.135C398.442 116.07 399.308 116.014 399.694 115.963C402.549 115.564 425.365 109.336 432.27 107.257C439.175 105.178 461.648 97.7528 466.676 95.1293C471.704 92.5058 481.704 86.1271 487.889 77.6864C494.074 69.2457 497.584 62.4426 499.89 63.0427C502.196 63.6429 501.742 68.8299 501.318 69.683C501.25 69.8121 501.209 69.9535 501.198 70.0988Z" fill="#F9F3E9"/>
<path d="M394.38 116.684C400.462 116.928 406.403 115.466 412.202 113.781C418.203 112.032 424.204 110.219 430.205 108.436C441.778 105.006 453.398 101.556 464.469 96.6986C469.613 94.4523 474.426 91.7388 478.704 88.125C482.618 84.7166 486.16 80.903 489.27 76.7479C490.89 74.6474 492.438 72.4912 493.951 70.3178C494.675 69.2761 495.386 68.2258 496.094 67.1756C496.801 66.1253 497.491 64.7021 498.473 63.8705C499.831 62.7259 500.693 64.4063 500.946 65.5466C501.345 67.0579 501.213 68.6604 500.573 70.0863C500.003 71.2137 499.343 72.1954 499.026 73.4385C498.737 74.7734 498.576 76.1328 498.545 77.4981C498.194 83.6839 495.605 89.0338 493.23 94.6452C492.063 97.2458 491.159 99.9573 490.534 102.739C489.934 105.709 490.363 109.006 489.124 111.814C488.863 112.41 489.746 112.933 490.011 112.328C491.134 109.782 490.903 107.03 491.297 104.333C491.735 101.683 492.483 99.0927 493.526 96.6172C495.519 91.6145 498.168 86.7876 499.154 81.442C499.66 78.6856 499.291 75.702 500.217 73.0399C500.646 71.7967 501.542 70.7765 501.932 69.5119C502.24 68.2943 502.275 67.0236 502.035 65.7909C501.786 64.1748 500.71 61.8814 498.678 62.5801C497.71 62.9145 497.114 63.8662 496.565 64.6678C495.794 65.8124 495.026 66.9569 494.246 68.0972C488.023 77.2109 481.16 86.3032 471.529 92.0303C466.094 95.2583 460.102 97.5731 454.178 99.7465C448.254 101.92 442.129 103.832 436.038 105.667C429.232 107.72 422.408 109.73 415.588 111.754C408.688 113.807 401.684 115.989 394.401 115.698C393.741 115.672 393.741 116.696 394.401 116.722L394.38 116.684Z" fill="#242426"/>
<path d="M489.128 111.713C489.015 112.657 488.606 113.541 487.959 114.238C487.312 114.935 486.461 115.409 485.527 115.592C483.517 115.982 481.417 115.296 479.454 114.923C475.707 114.216 471.794 113.762 468.035 114.653C466.14 115.108 464.422 115.978 462.668 116.797C460.804 117.654 458.871 118.353 456.951 119.086C455.174 119.717 453.454 120.496 451.807 121.414C450.174 122.37 448.708 123.608 446.865 124.149C446.742 124.191 446.64 124.279 446.579 124.395C446.518 124.51 446.503 124.644 446.538 124.77C446.572 124.896 446.653 125.004 446.764 125.072C446.874 125.141 447.007 125.164 447.135 125.139C448.465 124.691 449.721 124.047 450.86 123.227C452.239 122.314 453.696 121.525 455.215 120.869C458.215 119.583 461.263 118.593 464.216 117.195C467.337 115.665 470.809 114.992 474.276 115.245C475.986 115.372 477.687 115.607 479.368 115.948C480.881 116.239 482.398 116.642 483.946 116.707C486.946 116.84 489.672 115.082 490.122 111.991C490.217 111.348 489.226 111.07 489.132 111.721L489.128 111.713Z" fill="#242426"/>
<path d="M446.914 123.973C443.389 125.951 439.661 127.545 435.795 128.727C433.966 129.241 432.19 129.932 430.493 130.789C428.779 131.702 427.154 132.773 425.508 133.789C422.105 135.907 418.783 138.329 414.925 139.551C411.063 140.762 407.118 141.693 403.121 142.337C398.463 143.166 393.706 143.274 389.015 142.659C388.368 142.56 388.089 143.55 388.74 143.645C396.97 144.849 405.221 143.293 413.172 141.133C415.068 140.663 416.91 139.996 418.667 139.144C420.463 138.226 422.152 137.095 423.862 136.036C427.364 133.858 430.793 131.397 434.754 130.133C439.164 128.722 443.395 127.132 447.446 124.86C448.02 124.539 447.501 123.651 446.927 123.977L446.914 123.973Z" fill="#242426"/>
<path d="M500.535 70.8929C500.943 71.3516 500.694 72.3334 500.351 72.7449C500.008 73.1565 499.391 73.3923 498.979 73.791C498.499 74.2497 499.228 74.9742 499.704 74.5155C500.411 73.8338 501.26 73.5766 501.599 72.5606C501.743 72.1649 501.788 71.7399 501.73 71.3228C501.671 70.9057 501.512 70.5093 501.264 70.1684C500.836 69.6711 500.103 70.3999 500.535 70.8929Z" fill="#242426"/>
<path d="M499.964 73.7051C500.864 75.0642 499.561 76.406 498.635 77.3192C498.554 77.4187 498.513 77.545 498.52 77.6732C498.528 77.8014 498.583 77.9222 498.675 78.0119C498.766 78.1016 498.888 78.1538 499.017 78.158C499.145 78.1623 499.27 78.1185 499.368 78.0351C500.654 76.7833 502.043 74.9656 500.855 73.1778C500.495 72.6291 499.604 73.1435 499.972 73.6966L499.964 73.7051Z" fill="#242426"/>
<path d="M499.624 77.5211H499.744L499.384 77.371C499.976 77.9241 498.681 79.6903 498.347 80.1233C497.948 80.6507 498.835 81.1608 499.234 80.6421C499.836 79.9215 500.26 79.0699 500.473 78.1556C500.567 77.4997 500.473 76.5179 499.616 76.4922C498.955 76.4922 498.955 77.4997 499.616 77.5168L499.624 77.5211Z" fill="#242426"/>
<path d="M364.06 117.773C364.075 117.842 364.073 117.914 364.056 117.983C364.038 118.052 364.005 118.116 363.958 118.17C363.912 118.224 363.853 118.266 363.788 118.294C363.722 118.322 363.651 118.334 363.58 118.33C363.46 118.324 363.34 118.324 363.22 118.33C363.075 118.33 362.929 118.33 362.792 118.33C362.595 118.329 362.399 118.343 362.204 118.373C358.831 118.716 355.856 120.906 353.911 123.65C351.523 127.024 350.43 131.105 349.324 135.04C344.939 150.562 340.349 166.072 336.62 181.774C333.808 193.632 331.596 205.66 330.713 217.822L330.434 217.86L329.676 217.98C330.049 212.553 330.7 207.165 331.553 201.794C334.168 185.311 338.647 169.188 343.156 153.147C344.299 149.106 345.442 145.065 346.585 141.024C347.653 137.209 348.6 133.329 349.89 129.583C351.823 123.98 355.826 117.846 362.17 117.314L362.757 117.275H363.212C363.345 117.275 363.465 117.275 363.598 117.275C363.724 117.283 363.842 117.339 363.928 117.432C364.014 117.524 364.062 117.646 364.06 117.773Z" fill="#242426"/>
<path d="M484.946 5.15696C484.946 6.18579 483.66 7.9991 483.519 10.5454C483.424 11.8315 483.519 12.8646 483.253 14.5707C483.197 14.8537 483.146 15.158 483.077 15.4924C482.527 17.8933 481.787 20.247 480.865 22.5313C477.865 30.3332 477.531 35.5202 478.572 39.164C478.746 39.779 478.871 40.4069 478.945 41.0416C478.984 41.3071 479.006 41.5749 479.009 41.8432C479.104 44.1881 478.345 46.13 477.239 48.0719C475.743 50.6954 470.184 50.3653 464.959 50.7126C461.423 50.9526 458.825 53.9534 456.704 56.8727C456.502 57.1513 456.305 57.4171 456.103 57.7C455.332 58.8189 454.612 59.8863 453.93 60.7393C451.316 64.0059 440.797 78.448 439.13 80.69C437.462 82.932 427.621 96.1224 423.888 100.066C422.276 101.781 419.674 103.41 416.601 104.957C416.292 105.108 415.988 105.266 415.679 105.412C411.822 107.281 407.308 109.038 402.975 110.68C399.679 111.932 397.831 113.758 396.811 115.653C396.708 115.831 396.615 116.014 396.533 116.202C396.464 116.36 396.4 116.519 396.331 116.682C395.345 119.215 395.641 121.706 395.761 122.949C396.001 125.281 400.094 132.269 400.094 132.269L401.265 134.442L401.625 135.124L405.307 141.939L405.559 142.368L405.812 142.848L406.464 144.061L409.64 153.745L414.865 177.828L417.278 192.935L417.715 198.919L417.287 199.039C404.604 202.975 389.19 206.936 370.566 210.721C370.568 210.771 370.578 210.82 370.596 210.867H370.06V210.815L368.076 199.777L366.233 183.641L364.552 154.183V154.157L364.462 152.489L363.922 142.96C363.922 142.96 363.189 128.106 362.791 118.315C362.791 118.156 362.791 118.011 362.791 117.861C362.791 117.711 362.791 117.462 362.761 117.278C362.735 116.476 362.709 115.717 362.684 115.01C362.349 105.755 369.254 101.807 371.308 100.726C373.361 99.6461 388.161 89.405 391.11 86.0571C394.059 82.7091 407.63 71.4434 407.63 71.4434C407.63 71.4434 420.621 60.8851 425.645 57.6957C426.592 57.1084 427.788 56.2254 429.138 55.188C429.434 54.9608 429.726 54.7336 430.021 54.4935C435.778 49.9581 443.339 43.185 443.339 43.185L453.167 34.1313L458.474 25.6349L465.756 17.2886L469.957 10.7298L473.519 5.35844L473.797 1.79613V1.70182L474.53 1.27314L475.893 0.497236L477.012 1.39317L477.398 1.69753L477.625 1.5775L479.717 0.484375L480.411 1.15311L480.998 1.72754C481.013 1.74434 481.031 1.75879 481.05 1.77041C481.2 1.89044 481.65 2.26339 482.104 2.62776C482.28 2.76065 482.438 2.90641 482.597 3.02644C482.756 3.14647 482.786 3.17647 482.863 3.24077C483.051 3.40367 483.197 3.5237 483.266 3.57514C483.334 3.62659 483.317 3.61372 483.343 3.62659C483.759 3.87093 484.946 4.2053 484.946 5.15696Z" fill="#F9F3E9"/>
<path d="M429.978 55.3364L429.459 55.6965C418.333 63.2637 407.748 71.5959 397.779 80.6327C393.381 84.6323 389.074 88.7561 384.367 92.4085C379.567 96.1166 374.209 99.0359 369.395 102.697C367.059 104.48 365.049 106.602 364.089 109.431C363.231 111.948 363.111 114.618 363.193 117.259V117.512C363.187 117.609 363.187 117.706 363.193 117.803C363.193 117.962 363.193 118.125 363.193 118.284C363.369 124.336 363.78 130.394 364.076 136.434C364.342 141.754 364.582 147.074 364.847 152.393C365.006 155.823 365.182 159.252 365.353 162.682C365.567 166.707 365.782 170.737 366.06 174.762C366.716 185.05 367.689 195.338 369.515 205.502C369.819 207.217 370.167 208.983 370.54 210.715C370.541 210.765 370.551 210.814 370.57 210.861H370.034L369.554 211.037C369.554 211.007 369.554 210.981 369.528 210.942C366.716 197.593 365.542 183.978 364.766 170.364C364.02 157.28 363.433 144.184 362.794 131.088C362.623 127.796 362.458 124.498 362.301 121.194C362.263 120.247 362.194 119.299 362.168 118.356C362.168 118.206 362.168 118.061 362.143 117.928C362.117 117.795 362.143 117.529 362.143 117.328C362.098 115.769 362.161 114.209 362.331 112.659C362.653 110.087 363.45 107.579 365.053 105.5C366.656 103.421 368.718 101.887 370.84 100.433C376.077 96.7896 381.517 93.5359 386.425 89.4292C391.161 85.4811 395.572 81.1771 400.201 77.0961C409.465 68.933 419.242 61.3713 429.472 54.4576C429.53 54.4081 429.602 54.3765 429.678 54.3666C429.754 54.3567 429.831 54.369 429.9 54.4019C429.963 54.4175 430.019 54.4502 430.063 54.4962C430.122 54.5526 430.167 54.6216 430.195 54.698C430.223 54.7744 430.234 54.8562 430.225 54.9372C430.217 55.0182 430.191 55.0963 430.148 55.1654C430.105 55.2346 430.047 55.2931 429.978 55.3364Z" fill="#242426"/>
<path d="M430.042 55.6134C434.008 52.2155 437.931 48.7703 441.812 45.278C445.416 42.0372 449.141 38.8478 452.459 35.3112C454.027 33.6772 455.411 31.876 456.587 29.9399C457.808 27.8694 458.867 25.8246 460.41 23.9641C463.08 20.7405 466.299 17.9627 468.554 14.3961C469.947 12.1841 470.941 9.84349 472.544 7.76011C473.219 6.97946 473.722 6.06498 474.019 5.07659C474.293 3.91487 473.86 2.60312 474.478 1.53571C474.534 1.41896 474.543 1.2854 474.505 1.16166C474.467 1.03793 474.384 0.933141 474.272 0.868203C474.16 0.803265 474.027 0.782959 473.901 0.811336C473.775 0.839714 473.664 0.914687 473.59 1.02129C473.205 1.79466 473.042 2.65984 473.119 3.52049C473.14 4.63735 472.789 5.72953 472.12 6.62412C471.524 7.48147 470.834 8.25309 470.281 9.13617C469.66 10.1307 469.154 11.1895 468.61 12.2269C466.557 16.1279 463.329 19.0858 460.466 22.3437C459.059 23.9059 457.829 25.6181 456.797 27.4493C455.658 29.6189 454.285 31.6572 452.703 33.528C449.548 37.1374 445.845 40.2839 442.279 43.4904C438.01 47.3457 433.689 51.1438 429.317 54.8847C428.816 55.3134 429.544 56.0378 430.042 55.6092V55.6134Z" fill="#242426"/>
<path d="M474.306 1.68195C474.644 1.30781 475.111 1.07511 475.613 1.03036C476.256 1.00035 476.471 1.45904 476.706 1.97774C476.998 2.56931 477.881 2.05061 477.594 1.45903C477.233 0.717421 476.736 0.0615448 475.879 0.00152989C475.451 -0.0121536 475.024 0.0660839 474.629 0.230979C474.233 0.395874 473.878 0.6436 473.586 0.957482C473.504 1.0561 473.461 1.18185 473.467 1.31003C473.473 1.43822 473.527 1.55959 473.617 1.65032C473.708 1.74106 473.83 1.79461 473.958 1.80046C474.086 1.80631 474.212 1.76404 474.31 1.68195H474.306Z" fill="#242426"/>
<path d="M475.674 5.62366L477.333 2.81133C477.56 2.298 477.92 1.85419 478.375 1.52521C478.731 1.33229 480.042 0.852138 480.201 1.55522C480.359 2.2583 481.337 1.92819 481.191 1.28085C480.861 -0.185334 479.048 0.0804651 478.006 0.577766C477.37 0.932168 476.861 1.47822 476.553 2.13826C475.961 3.13286 475.373 4.13318 474.787 5.13922C474.731 5.25597 474.721 5.38954 474.759 5.51328C474.797 5.63702 474.881 5.74182 474.993 5.80677C475.105 5.87171 475.237 5.89202 475.363 5.86364C475.49 5.83526 475.601 5.76028 475.674 5.65366V5.62366Z" fill="#242426"/>
<path d="M478.116 5.18954C478.545 4.52504 479.235 4.11348 479.741 3.51329C479.936 3.26293 480.118 3.00249 480.285 2.73304C480.47 2.45867 480.538 2.2829 480.89 2.23145C481.241 2.18001 481.537 2.48011 481.571 2.96883C481.618 3.62047 482.643 3.62904 482.6 2.96883C482.519 1.79417 481.391 0.46518 480.182 1.30116C479.582 1.72987 479.325 2.45867 478.841 2.98169C478.356 3.50472 477.67 3.99773 477.229 4.6708C476.869 5.22812 477.756 5.74257 478.116 5.18954Z" fill="#242426"/>
<path d="M479.396 6.50094C479.825 5.94791 480.429 5.54921 480.888 5.00904C481.085 4.78182 482.174 3.16559 482.602 3.6929C483.031 4.22021 483.747 3.47426 483.331 2.96839C482.757 2.26959 481.762 2.634 481.188 3.12272C480.765 3.55438 480.368 4.01106 480 4.4903C479.572 4.91901 479.074 5.29198 478.684 5.77642C478.294 6.26086 478.997 7.01539 479.413 6.50094H479.396Z" fill="#242426"/>
<path d="M480.826 7.4739C481.29 7.01274 481.728 6.52611 482.138 6.01629C482.49 5.58759 482.764 5.00883 483.145 4.60584C483.21 4.50296 483.27 4.40007 483.334 4.30146C483.848 4.22858 484.123 4.36577 484.153 4.73017C484.271 5.0489 484.313 5.39129 484.273 5.72906C484.213 6.47501 483.733 6.82226 483.415 7.44389C482.88 8.40848 482.905 9.52312 483.012 10.5906C483.163 12.1082 483.214 13.4501 482.695 14.912C482.477 15.5336 483.467 15.8037 483.685 15.1863C483.996 14.329 484.167 13.4272 484.191 12.5155C484.191 11.4952 483.943 10.492 483.964 9.47596C483.986 8.45993 484.367 7.92404 484.877 7.13522C485.261 6.51955 485.396 5.78055 485.254 5.06885C485.139 4.11712 484.616 2.73239 483.368 3.02391C482.704 3.18254 482.425 3.88133 482.082 4.40864C481.507 5.25988 480.849 6.05251 480.119 6.77511C480.037 6.87374 479.995 6.99949 480.001 7.12768C480.006 7.25588 480.06 7.37726 480.151 7.468C480.241 7.55874 480.363 7.61229 480.491 7.61814C480.619 7.62399 480.745 7.58172 480.843 7.49962L480.826 7.4739Z" fill="#242426"/>
<path d="M482.71 15.0696C482.494 16.2849 482.156 17.4755 481.703 18.6233C481.338 19.7207 480.965 20.8139 480.558 21.8941C479.752 24.0375 478.728 26.1038 478.115 28.3243C476.88 32.7697 477.386 37.1422 478.214 41.6133C478.338 42.2606 479.324 41.9863 479.204 41.339C478.346 36.6535 477.892 32.1181 479.439 27.5098C480.125 25.4565 481.077 23.4931 481.814 21.4569C482.551 19.4207 483.473 17.2473 483.734 15.0824C483.811 14.4266 482.787 14.4351 482.71 15.0824V15.0696Z" fill="#242426"/>
<path d="M478.159 41.5965C478.529 42.6777 478.588 43.8412 478.33 44.9545C478.071 46.0678 477.506 47.0862 476.697 47.8937C474.687 49.8399 471.669 49.8356 469.055 49.8699C466.59 49.9042 464.031 50.02 461.901 51.4046C459.659 52.8578 457.949 55.1598 456.17 57.1146C455.741 57.6033 456.449 58.3278 456.894 57.8391C458.866 55.6957 460.885 52.7335 463.697 51.6189C466.509 50.5044 469.608 51.096 472.518 50.7187C474.82 50.4186 476.976 49.5184 478.309 47.5379C478.919 46.6379 479.314 45.6094 479.462 44.5322C479.611 43.455 479.509 42.3581 479.166 41.3264C478.956 40.7048 477.966 40.9706 478.18 41.5965H478.159Z" fill="#242426"/>
<path d="M456.035 57.0492L440.943 77.3942L433.467 87.4639C431.011 90.7776 428.688 94.2884 425.911 97.3235C423.065 100.433 419.661 102.98 415.876 104.834C415.28 105.125 415.803 106.008 416.391 105.717C419.674 104.12 422.682 102.01 425.302 99.4669C428.157 96.6719 430.411 93.3153 432.786 90.1174L448.174 69.3737L456.93 57.5679C457.325 57.0363 456.433 56.5262 456.047 57.0492H456.035Z" fill="#242426"/>
<path d="M415.897 104.748C414.024 105.648 412.155 106.557 410.278 107.444C408.504 108.235 406.678 108.903 404.813 109.442C403.191 109.963 401.661 110.735 400.278 111.731C399.022 112.588 397.732 113.489 396.849 114.753C394.976 117.402 394.466 121.428 395.43 124.489C395.962 126.173 396.939 127.699 397.796 129.23L400.99 134.931C401.061 135.043 401.173 135.122 401.302 135.153C401.431 135.183 401.567 135.163 401.681 135.096C401.796 135.03 401.88 134.921 401.916 134.794C401.953 134.666 401.939 134.53 401.877 134.412L399.065 129.427C398.178 127.845 397.132 126.263 396.493 124.553C395.383 121.458 395.936 117.047 398.259 114.603C399.417 113.486 400.713 112.522 402.117 111.735C403.578 110.839 405.173 110.411 406.797 109.918C410.145 108.906 413.27 107.14 416.412 105.631C417.003 105.348 416.484 104.461 415.893 104.748H415.897Z" fill="#242426"/>
<path d="M418.299 198.742C418.111 198.81 417.913 198.862 417.712 198.93L417.283 199.05C417.228 198.261 417.176 197.464 417.108 196.675C416.135 185.555 413.76 174.526 411.428 163.62C409.937 156.602 408.162 149.576 405.389 142.949C405.32 142.803 405.256 142.64 405.187 142.495C405.119 142.349 405.055 142.16 404.973 142.002C403.96 139.641 402.793 137.35 401.48 135.143C401.416 135.023 401.347 134.916 401.283 134.796C401.246 134.744 401.221 134.685 401.212 134.622C401.202 134.56 401.207 134.496 401.227 134.436C401.254 134.337 401.309 134.248 401.385 134.18C401.461 134.112 401.555 134.066 401.656 134.05C401.754 134.03 401.857 134.043 401.948 134.087C402.039 134.13 402.114 134.201 402.161 134.29C403.61 136.7 404.899 139.203 406.019 141.783C406.075 141.933 406.139 142.079 406.195 142.212C406.25 142.345 406.34 142.546 406.405 142.718C407.339 144.96 408.166 147.253 408.899 149.576C410.393 154.449 411.639 159.393 412.633 164.392C413.769 169.741 414.849 175.109 415.835 180.488C416.833 185.967 417.686 191.488 418.154 197.053C418.218 197.636 418.261 198.197 418.299 198.742Z" fill="#242426"/>
<path d="M362.773 119.963L364.514 155.037C364.514 155.037 367.386 201.763 370.056 210.864L361.518 212.514C361.518 212.514 364.235 206.912 364.235 196.225C364.235 185.538 363.061 149.336 363.061 149.336L362.773 119.963Z" fill="#242426"/>
<path d="M396.6 116.186C396.6 116.186 393.827 120.978 396.6 125.994C399.373 131.009 405.67 142.622 405.67 142.622C405.67 142.622 420.492 139.193 427.778 132.981L434.748 129.402L449.244 123.649L457.414 119.448C457.414 119.448 437.422 127.331 428.473 129.41C419.523 131.489 410.213 136.398 404.735 133.135C399.257 129.873 394.782 122.654 396.6 116.186Z" fill="#242426"/>
<path d="M475.231 49.4926C472.774 50.1742 471.741 49.5184 469.371 49.1497C467.001 48.781 459.886 46.1061 456.049 54.4182C452.213 62.7302 437.725 80.9962 434.742 85.8102C431.759 90.6243 450.349 65.5723 450.349 65.5723L461.386 52.4162C461.386 52.4162 464.815 50.5858 468.004 50.5429C471.193 50.5 475.231 49.4926 475.231 49.4926Z" fill="#242426"/>
<path d="M411.826 165.082C414.201 174.547 414.244 199.08 410.043 201.224L417.84 199.351L416.468 187.108L413.271 169.888L411.826 165.082Z" fill="#242426"/>
<path d="M467.933 36.5625C466.017 38.2773 468.126 41.5441 459.312 42.693C459.312 42.693 464.619 43.2418 466.737 42.693C468.854 42.1443 467.933 36.5625 467.933 36.5625Z" fill="#242426"/>
<path d="M483.847 101.727C481.931 103.441 484.036 106.708 475.227 107.857C475.227 107.857 480.533 108.406 482.647 107.857C484.76 107.308 483.847 101.727 483.847 101.727Z" fill="#242426"/>
<path d="M297.869 92.334C296.721 97.2724 291.384 101.002 290.583 103.57C289.781 106.137 287.647 109.438 287.372 110.536C287.098 111.633 288.748 112.422 289.391 113.682C290.034 114.942 288.902 112.298 289.644 110.038C290.386 107.779 296.742 97.2724 296.742 97.2724L297.869 92.334Z" fill="#242426"/>
<path d="M314.326 174.576C315.453 180.488 315.029 199.44 311.921 221.435L305.805 222.498C305.805 222.498 308.715 218.177 310.348 208.189C311.981 198.201 313.901 186.493 314 182.365C314.099 178.237 314.326 174.576 314.326 174.576Z" fill="#242426"/>
<path d="M215.918 229.64C215.918 229.64 221.22 193.438 220.813 185.255C220.406 177.072 220.033 173.436 219.283 170.787C219.283 170.787 223.53 181.054 222.082 197.914C220.633 214.774 219.9 231.454 219.9 231.454L215.918 229.64Z" fill="#242426"/>
<path d="M198.897 120.426C196.428 112.71 197.611 111.801 199.047 109.019C200.483 106.237 205.948 97.5821 206.805 94.1569C207.662 90.7318 205.643 99.031 203.873 103.159C202.103 107.287 198.207 114.103 198.73 116.02C199.03 117.469 199.086 118.958 198.897 120.426Z" fill="#242426"/>
<defs>
<filter id="filter0_b_1_16579" x="-44" y="74" width="674" height="644" filterUnits="userSpaceOnUse" color-interpolation-filters="sRGB">
<feFlood flood-opacity="0" result="BackgroundImageFix"/>
<feGaussianBlur in="BackgroundImageFix" stdDeviation="22"/>
<feComposite in2="SourceAlpha" operator="in" result="effect1_backgroundBlur_1_16579"/>
<feBlend mode="normal" in="SourceGraphic" in2="effect1_backgroundBlur_1_16579" result="shape"/>
</filter>
</defs>
</svg>
