<svg width="137" height="133" viewBox="0 0 137 133" fill="none" xmlns="http://www.w3.org/2000/svg">
<g clip-path="url(#clip0_6996_21027)">
<path d="M4.95736 63.4264C12.1142 57.4185 22.6948 57.3607 32.7673 58.7114L32.7674 58.7114C42.6243 60.0327 52.3405 62.248 61.7958 65.3299L62.9638 61.9722C46.6925 55.9507 30.4814 48.3283 20.9726 34.5396C20.1183 33.2987 19.3989 31.8996 19.0993 30.6016C18.8029 29.3179 18.9541 28.3437 19.5141 27.6165L19.5151 27.6152C19.9932 26.993 20.7495 26.5926 21.8331 26.413C22.9297 26.2312 24.2108 26.3053 25.4791 26.5106L25.4791 26.5107L25.4872 26.5119C43.8792 29.4018 58.1995 43.728 71.5405 57.8447L75.2627 61.7833L74.5971 56.4052L74.5319 55.8783L74.4562 55.2665L74.018 54.8329C61.82 42.7619 52.0566 26.7367 54.5451 10.4805C54.8141 8.72705 55.2656 7.61267 56.0086 7.14458C56.5715 6.79384 57.3075 6.76596 58.3478 7.27571C59.4027 7.79267 60.4864 8.74914 61.335 9.78621L61.3352 9.78633C71.4004 22.0837 73.6347 38.9303 75.4929 55.4195L79.0317 55.3648C80.5215 37.0928 82.6643 18.0707 94.7435 5.42404L94.7439 5.42363C96.04 4.06585 97.6799 2.84609 99.2915 2.2243C100.888 1.60818 102.223 1.6502 103.286 2.36488L103.287 2.36503C104.29 3.03949 104.847 4.17411 105.01 5.79511C105.174 7.4326 104.904 9.33471 104.467 11.1252C100.53 27.219 93.2466 42.3037 83.092 55.3979L85.7346 57.7638C97.4139 46.4399 109.843 35.0866 125.203 33.3877C128.438 33.0303 131.437 33.3328 133.301 35.0308C135.389 36.9342 135.743 40.6137 134.324 43.6434C132.905 46.6741 130.16 49.0155 127.04 51.1797C115.144 59.3894 101.072 63.8728 86.6182 64.0584L86.4863 67.6073C101.353 68.906 115.527 74.4725 127.303 83.6365C129.377 85.256 131.372 87.3938 132.506 89.5907C133.634 91.7752 133.795 93.7434 132.792 95.421C131.585 97.4384 128.872 98.4266 125.72 98.8299L125.716 98.8305C109.305 100.974 92.93 91.4292 83.1838 77.4894C81.9524 75.4113 80.7045 73.3642 79.4681 71.3483L76.374 73.0958C77.4886 75.2468 78.7533 77.3391 80.1513 79.3517C87.77 92.2271 94.3443 105.621 93.9429 119.937L93.9429 119.937C93.8815 122.156 93.5242 124.447 92.7367 126.365C91.9535 128.273 90.7993 129.692 89.1924 130.437L89.1911 130.437C86.7165 131.586 83.383 130.792 80.9563 128.734C78.526 126.673 76.9497 123.666 75.5603 120.356C70.2144 107.512 68.4141 93.5047 70.2968 79.7868C70.6181 77.9788 70.926 76.178 71.2302 74.3908L67.7371 73.7292C67.3578 75.5462 67.0416 77.3714 66.7881 79.2015C64.4225 92.4838 61.438 105.539 54.159 116.367C52.7196 118.504 50.7925 120.56 48.7198 121.828C46.6596 123.088 44.6591 123.463 42.8092 122.714L42.8089 122.714C40.8315 121.914 39.6545 120.112 39.1356 117.555C38.6138 114.983 38.8325 111.914 39.4483 109.201C42.8808 94.2167 50.7022 80.5953 61.9139 70.0752L59.8437 67.2191C44.0511 75.8636 24.882 78.1919 7.49833 73.5443L7.49624 73.5437C6.23416 73.2079 5.03691 72.8096 4.05153 72.2549C3.07761 71.7067 2.41538 71.0651 2.06059 70.2826L2.06011 70.2815C1.62058 69.3137 1.68224 68.1752 2.23802 66.913C2.7986 65.64 3.80665 64.3925 4.95736 63.4264ZM4.95736 63.4264L3.81426 62.0647M4.95736 63.4264L3.81426 62.0647M3.81426 62.0647C1.18761 64.2701 -0.977114 67.8935 0.441334 71.0167L19.509 35.549C26.5575 45.7699 37.1102 52.659 48.5094 57.9592C53.36 59.0741 58.1609 60.4052 62.8977 61.9492L62.3467 63.6396L61.7297 65.307C57.1399 63.6084 52.4801 61.7595 47.926 59.6495C42.9982 58.5228 38.0189 57.6215 33.0036 56.9492C22.9145 55.5963 11.6113 55.5194 3.81426 62.0647Z" fill="#FFADE3" stroke="#26103D" stroke-width="3.55581"/>
<path d="M86.2446 66.3683C86.2446 76.1798 78.2881 84.1346 68.4722 84.1346C58.6562 84.1346 50.6998 76.1798 50.6998 66.3683C50.6998 56.5569 58.6562 48.6021 68.4722 48.6021C78.2881 48.6021 86.2446 56.5569 86.2446 66.3683Z" fill="#5C59ED" stroke="#26103D" stroke-width="3.55581"/>
</g>
<defs>
<clipPath id="clip0_6996_21027">
<rect width="136.953" height="132.73" fill="white"/>
</clipPath>
</defs>
</svg>
