<svg width="189" height="259" viewBox="0 0 189 259" fill="none" xmlns="http://www.w3.org/2000/svg">
<path d="M218.038 41.8245L218.851 39.7191L216.745 40.5315L174.803 56.7169L171.187 11.9054L171.005 9.65592L169.461 11.3015L138.695 44.0822L115.994 5.27717L114.854 3.32923L114.177 5.4819L100.68 48.3653L63.3909 23.2527L61.5191 21.9921L61.8427 24.2255L68.2891 68.7181L23.7965 62.2716L21.5631 61.948L22.8237 63.8199L47.9364 101.109L5.05293 114.606L2.90027 115.283L4.8482 116.423L43.6532 139.123L10.8725 169.89L9.22696 171.434L11.4764 171.616L56.2879 175.231L40.1026 217.174L39.2901 219.279L41.3955 218.467L83.3381 202.282L86.9538 247.093L87.1353 249.343L88.6797 247.697L119.446 214.916L142.147 253.721L143.286 255.669L143.964 253.517L157.46 210.633L194.75 235.746L196.622 237.006L196.298 234.773L189.852 190.28L234.344 196.727L236.578 197.051L235.317 195.179L210.204 157.889L253.088 144.393L255.24 143.715L253.292 142.576L214.487 119.875L247.268 89.1087L248.914 87.5643L246.664 87.3828L201.853 83.7671L218.038 41.8245Z" stroke="#454FDB" stroke-width="2"/>
</svg>
