<svg width="210" height="142" viewBox="0 0 210 142" fill="none" xmlns="http://www.w3.org/2000/svg">
<path d="M119.683 119.98C114.589 125.218 111.87 131.132 113.598 133.187C115.327 135.243 120.866 132.662 125.96 127.418C131.054 122.173 133.773 116.265 132.043 114.21C130.313 112.154 124.776 114.74 119.683 119.98ZM128.901 117.484C130.036 118.829 128.252 122.701 124.918 126.13C121.583 129.56 117.962 131.248 116.827 129.903C115.692 128.558 117.475 124.687 120.809 121.257C124.144 117.828 127.766 116.138 128.901 117.484Z" fill="#FDAB96"/>
<path d="M128.261 111.405C123.167 116.645 120.448 122.558 122.176 124.613C123.905 126.668 129.444 124.088 134.537 118.843C139.63 113.599 142.35 107.691 140.621 105.636C138.893 103.58 133.354 106.167 128.261 111.405ZM137.478 108.91C138.613 110.256 136.83 114.127 133.496 117.556C130.161 120.985 126.539 122.675 125.404 121.329C124.269 119.983 126.053 116.112 129.387 112.683C132.722 109.254 136.345 107.565 137.478 108.91Z" fill="#FDAB96"/>
<path d="M139.089 101.026C133.996 106.265 131.276 112.179 133.004 114.234C134.733 116.289 140.272 113.709 145.366 108.464C150.46 103.22 153.179 97.3121 151.451 95.2567C149.722 93.2012 144.187 95.7879 139.089 101.026ZM148.307 98.5309C149.442 99.8772 147.658 103.748 144.325 107.177C140.992 110.606 137.368 112.295 136.233 110.95C135.098 109.605 136.882 105.733 140.215 102.304C143.548 98.8747 147.173 97.1859 148.307 98.5309Z" fill="#FDAB96"/>
<path d="M78.6441 120.03C72.6882 115.797 66.4281 114.009 64.6623 116.037C62.8966 118.065 66.2922 123.139 72.2482 127.371C78.2042 131.603 84.4643 133.391 86.2312 131.364C87.9982 129.338 84.6013 124.263 78.6441 120.03ZM82.5254 128.758C81.3691 130.08 77.2702 128.914 73.3721 126.144C69.474 123.373 67.2442 120.047 68.4006 118.725C69.5569 117.403 73.6558 118.569 77.5539 121.338C81.452 124.108 83.677 127.431 82.5254 128.758Z" fill="#FDAB96"/>
<path d="M89.224 124.384C81.9879 123.37 75.6076 124.667 74.973 127.279C74.3383 129.891 79.6897 132.832 86.9258 133.847C94.1619 134.861 100.542 133.564 101.177 130.952C101.812 128.34 96.4626 125.399 89.224 124.384ZM96.6825 130.348C96.2678 132.058 92.0908 132.907 87.3549 132.242C82.619 131.577 79.1139 129.654 79.5298 127.944C79.9457 126.233 84.1215 125.384 88.8586 126.049C93.5958 126.714 97.0984 128.637 96.6825 130.348Z" fill="#FDAB96"/>
<path d="M102.957 129.575C96.5039 126.148 90.0647 125.186 88.5754 127.425C87.0861 129.664 91.1104 134.256 97.5641 137.682C104.018 141.107 110.457 142.071 111.946 139.832C113.435 137.593 109.412 133.001 102.957 129.575ZM107.93 137.729C106.955 139.194 102.74 138.57 98.5148 136.321C94.2898 134.072 91.6562 131.072 92.631 129.607C93.6058 128.141 97.8213 128.765 102.045 131.014C106.269 133.263 108.906 136.263 107.931 137.729H107.93Z" fill="#FDAB96"/>
<path d="M112.758 127.639C106.055 130.547 101.286 134.98 102.108 137.54C102.93 140.1 109.028 139.824 115.731 136.911C122.435 133.999 127.203 129.571 126.382 127.01C125.561 124.45 119.461 124.736 112.758 127.639ZM122.232 128.841C122.77 130.524 119.649 133.42 115.26 135.322C110.872 137.225 106.88 137.41 106.341 135.735C105.803 134.059 108.926 131.156 113.313 129.253C117.7 127.351 121.695 127.162 122.232 128.837V128.841Z" fill="#FDAB96"/>
<path d="M14.8781 49.2326C17.8764 46.7236 21.2809 44.7447 24.945 43.3812C27.2913 42.7946 29.5884 41.8546 31.9804 41.4508C34.656 40.9988 37.6106 41.3306 40.3283 41.3378C42.4331 41.3438 45.2566 43.1047 47.1173 42.0914C48.8097 41.1695 49.3915 38.8196 50.1223 37.1932C51.1344 34.9587 52.286 32.7686 53.7885 30.8154C55.6732 28.3572 58.5064 26.404 61.045 24.637C69.2031 18.9587 81.2905 14.825 91.0425 17.2482C93.283 17.8048 95.7628 18.5368 96.9035 20.5442C96.1162 23.8425 92.0798 26.9473 88.7574 27.6276C85.4351 28.308 81.9889 27.9606 78.6209 28.356C68.0432 29.5977 59.0281 39.0323 58.2636 49.6533C58.0376 52.7978 56.9161 55.3869 53.2957 55.465C51.3724 55.5059 49.5334 54.7955 47.6991 54.2282C42.4379 52.5982 36.7055 52.1042 31.4214 53.6596C19.9578 57.0349 12.1159 70.6969 16.0092 82.2675C18.644 90.0998 26.123 94.2877 33.4456 96.9393C41.9919 100.031 51.0479 101.346 60.0101 102.634C57.5905 105.847 55.3223 107.743 52.0828 110.003C51.7306 110.243 51.37 110.499 50.9565 110.604C50.3868 110.758 49.7834 110.633 49.2076 110.508L46.3697 109.891L45.4309 109.688C42.5605 109.064 39.6456 109.063 36.8233 108.479C33.1704 107.721 29.5547 106.757 26.058 105.452C14.1269 101.009 3.82321 92.8945 0.784519 79.8899C-0.907915 72.6538 1.40836 64.9934 5.59257 58.8547C8.10117 55.1525 11.4536 52.109 14.8781 49.2326Z" fill="#FDAB96"/>
<path d="M14.7274 49.0593C17.7478 46.5335 21.1771 44.5416 24.8676 43.1695C26.5564 42.7476 28.2092 42.1466 29.9161 41.6862C31.6246 41.2082 33.3924 40.9751 35.1665 40.9938C36.9322 40.9938 38.6739 41.114 40.4265 41.1225C42.6718 41.191 44.6335 42.6634 46.7599 42.0035C47.9438 41.5155 48.5629 40.2919 49.0689 39.1524C49.7027 37.5091 50.4373 35.9066 51.2686 34.3539C52.11 32.8045 53.0476 31.2996 54.2111 29.951C60.3715 23.7005 68.5019 19.3732 77.0133 17.2829C81.2961 16.3009 85.8049 15.9439 90.1369 16.8322C92.684 17.3791 95.6506 18.0258 97.0978 20.4262L97.1423 20.4959L97.1218 20.5897C96.7071 22.4167 95.534 23.9409 94.1973 25.1669C89.8593 29.3596 84.0692 28.3246 78.7827 28.9869C78.3019 29.0867 77.3283 29.2406 76.8739 29.3307C76.5133 29.4088 75.393 29.7466 75.0072 29.8464C74.4362 30.0423 73.7691 30.3272 73.1945 30.5315C72.8664 30.6842 71.8014 31.2059 71.4504 31.3729C71.0321 31.6133 70.1775 32.1362 69.7856 32.3622C69.4887 32.5737 68.5295 33.2625 68.2098 33.4897C67.842 33.795 67.0775 34.4513 66.7313 34.7374L66.2721 35.1905L65.355 36.098C65.0209 36.4875 64.403 37.1919 64.0929 37.5621C63.7143 38.0838 63.3236 38.6042 62.9546 39.1247C62.6817 39.5695 62.1961 40.3472 61.9497 40.7691C61.6624 41.34 61.3595 41.9206 61.0867 42.4891C60.8102 43.2019 60.3787 44.1563 60.1924 44.8848C59.932 45.6944 59.7237 46.5199 59.5685 47.3561C59.1863 49.1687 59.3281 50.9718 58.6634 52.7724C58.3187 53.8078 57.6692 54.7149 56.8001 55.3749C55.931 56.0348 54.8828 56.4169 53.7928 56.471C50.9176 56.721 48.3501 55.4072 45.6648 54.7725C40.7366 53.5152 35.3143 53.3493 30.5363 55.1199C21.0031 58.6803 14.5303 69.4827 16.3381 79.5688C17.4824 86.5225 23.1343 91.494 29.3126 94.3656C38.8747 98.9333 49.6423 100.629 60.0205 102.412H60.0349L60.4051 102.473L60.1827 102.77C58.1153 105.585 55.4672 107.929 52.6029 109.906C52.122 110.225 51.6797 110.62 51.0523 110.815C50.4248 111.01 49.7913 110.869 49.23 110.75C47.219 110.334 44.4664 109.638 42.4531 109.45C29.6721 108.248 15.4751 103.027 7.06219 92.9749C6.52849 92.3739 5.96475 91.5397 5.46712 90.9026C4.57763 89.6718 3.73381 88.1296 3.0126 86.7869C2.89961 86.5646 2.5931 85.8361 2.47531 85.5945C1.73847 84.086 1.19997 82.2854 0.756426 80.6663C-1.287 73.2847 1.01967 65.3214 5.157 59.0914C7.72089 55.1872 11.2019 52.0271 14.7298 49.0618L14.7274 49.0593ZM15.0183 49.4043C11.4976 52.3625 8.05385 55.4949 5.53082 59.3378C1.04972 66.057 -1.01174 74.4002 1.64712 82.2085C2.14969 83.7023 2.7397 85.1653 3.41408 86.5898C3.62203 86.9865 4.22904 88.0791 4.4406 88.477C5.61568 90.4457 6.98478 92.292 8.52744 93.9882C15.6313 101.622 25.6285 105.826 35.6701 108.012C39.0429 108.853 42.5492 108.79 45.9329 109.575L49.3166 110.309C49.8719 110.429 50.426 110.527 50.9164 110.381C52.4021 109.688 53.7676 108.458 55.0826 107.46C56.8594 106.006 58.4518 104.339 59.8245 102.498L59.9724 102.859C59.9628 102.859 54.6655 102.211 54.6535 102.215C41.9121 100.412 23.0045 97.5942 16.2299 85.2339C11.7572 76.8198 14.3368 66.1039 20.6221 59.3197C23.1343 56.5659 26.2571 54.3398 29.7742 53.0464C35.0811 51.1232 40.8327 51.3143 46.1985 52.6858C48.6687 53.2424 51.0919 54.5574 53.6258 54.3975C56.1945 54.341 57.1116 51.9935 57.2595 49.7313C57.459 47.9198 57.7318 46.0327 58.3749 44.2946C58.5084 43.85 58.669 43.4141 58.8557 42.9892C59.7837 40.6404 61.16 38.4215 62.7382 36.4659C63.1685 35.9658 63.7107 35.384 64.1205 34.9213L65.1194 33.9693L65.6207 33.4945C66.1231 33.0798 66.7614 32.5773 67.2326 32.1975L68.3757 31.4234L68.9466 31.0388C69.5404 30.6974 70.2039 30.3392 70.7496 30.0279L72.0058 29.4581C72.2161 29.3644 72.4229 29.2658 72.6344 29.1769C73.2258 28.9821 73.9855 28.6876 74.5877 28.4965L75.9243 28.1599C76.1479 28.1071 76.3679 28.0398 76.5938 27.9989C80.7576 27.1467 85.1173 27.9616 89.215 27.0373C92.3955 26.0961 95.6578 23.7582 96.6843 20.4827L96.7083 20.6462C95.8441 19.1521 94.1841 18.3864 92.5758 17.896C87.5718 16.3333 82.1808 16.5341 77.1167 17.7193C68.7231 19.7759 60.6491 24.0671 54.5537 30.2442C52.3024 32.9031 50.7746 36.0932 49.4944 39.3218C48.8574 40.953 47.5496 42.8077 45.5567 42.6238C43.7248 42.518 42.1081 41.6441 40.4253 41.5648C37.8061 41.5504 35.1857 41.2667 32.5857 41.5864C29.9774 41.9266 27.5577 42.9555 24.9986 43.5962C21.3697 44.9549 17.9966 46.9174 15.0219 49.4007L15.0183 49.4043Z" fill="#FE5122"/>
<path d="M197.025 56.2207C201.839 51.0232 206.56 45.1357 208.281 38.1136C209.483 33.2046 209.636 27.9734 208.2 23.0956C203.133 5.89362 184.375 -1.70791 167.769 1.28871C159.67 2.74675 151.242 6.63646 145.995 13.0684C145.797 13.3088 145.587 13.5649 145.297 13.6851C144.549 13.9976 143.791 13.3149 143.254 12.7114C139.436 8.43708 134.176 5.89362 128.733 4.2673C125.699 3.36098 122.591 2.54962 119.425 2.57126C114.746 2.60371 109.648 4.31417 105.33 5.98738C99.0893 8.40583 92.4301 13.3858 89.0501 19.2516C84.9621 26.3946 83.3198 34.6775 84.373 42.8399C85.2529 49.5111 87.9046 55.8 90.5298 61.9952L93.9026 69.9573C94.3089 70.9189 94.9279 72.026 95.9665 72.0524C96.7838 72.0741 97.4281 71.3889 97.9269 70.7398C100.566 67.2992 102.425 63.325 103.373 59.0935C101.235 58.7329 100.313 56.5537 99.2059 54.6881C95.1647 47.8667 93.2728 39.3925 95.8607 31.9016C98.6794 23.7279 106.336 18.409 114.451 16.2502C118.951 15.0481 123.809 14.9219 128.22 16.416C132.631 17.9101 136.537 21.1339 138.364 25.4167C138.976 26.8531 139.381 28.4314 140.419 29.5973C141.404 30.702 142.823 31.2885 144.201 31.8391C144.659 32.0242 145.142 32.2117 145.632 32.1552C146.398 32.0662 146.963 31.4232 147.449 30.8234C149.853 27.8472 152.242 24.8373 155.007 22.1881C159.665 17.7238 165.319 13.8533 171.901 13.3954C178.36 12.9458 184.994 14.8979 190.09 18.9114C191.773 20.2336 193.327 21.8179 194.2 23.7772C195.248 26.1307 195.225 28.8112 195.015 31.3787C194.599 36.4764 193.283 41.4624 190.261 45.6502C188.083 48.6673 184.972 51.4812 182.347 54.1436C179.498 57.0285 176.404 59.6645 173.211 62.1683C165.621 68.1302 157.484 73.4347 149.9 79.3571C149.342 79.8085 148.819 80.302 148.337 80.8331C147.398 81.8308 146.483 82.9222 146.124 84.2432C145.765 85.5643 146.111 87.1701 147.266 87.9046C147.66 88.1349 148.089 88.3001 148.536 88.3938C154.032 89.7677 157.653 87.3829 162.175 84.6423C166.495 82.0219 170.687 79.204 174.75 76.1886C182.775 70.2343 190.232 63.5498 197.025 56.2207Z" fill="#FDAB96"/>
<path d="M196.431 55.6606C201.66 50.0472 206.566 43.8124 207.928 36.1375C210.66 23.0728 203.36 10.4697 191.445 4.96451C177.622 -1.61651 159.635 0.797136 148.404 11.3087C147.752 11.9422 147.059 12.7151 146.464 13.4135C145.945 14.1731 144.991 14.6155 144.094 14.1347C143.12 13.6238 142.598 12.7427 141.81 12.0336C139.978 10.2563 137.892 8.76144 135.62 7.59813C133.334 6.42346 130.942 5.46955 128.475 4.74936C125.997 4.00771 123.5 3.33699 120.964 3.14467C118.427 2.95235 115.879 3.30213 113.383 3.89232C100.16 7.1065 89.525 14.2152 85.8649 27.9422C82.8118 38.122 85.1437 48.5411 89.2726 58.0767C90.9735 62.1455 92.7753 66.5917 94.5879 70.6161C95.9498 72.9804 97.373 71.056 98.3863 69.5703C100.625 66.4051 102.22 62.8307 103.08 59.0503V59.0263L103.321 59.3772C101.622 59.1368 100.486 57.6187 99.6941 56.252C98.9176 54.8985 98.0846 53.5571 97.3886 52.1339C93.0974 43.5996 92.601 32.6457 99.0017 25.0009C105.012 17.7215 115.426 13.5 124.813 14.7297C131.279 15.5543 137.512 19.8623 139.675 26.1644C140.458 28.4783 141.416 29.72 143.726 30.5986C144.447 30.8294 145.377 31.5446 146.01 30.9376C146.491 30.5301 147.693 28.9158 148.138 28.399C149.122 27.1777 150.121 25.9589 151.165 24.7665C156.417 18.8285 163.123 13.1971 171.335 12.3617C176.228 11.9195 181.151 12.7827 185.602 14.8631C189.28 16.6661 192.927 19.0701 194.957 22.7759C197.799 28.1189 195.538 39.1426 192.538 44.1874C190.177 48.3872 186.378 51.6327 183.109 54.9586C178.628 59.4722 173.613 63.3331 168.565 67.0449C162.562 71.4491 156.431 75.5972 150.576 80.1324C149.254 81.2298 147.772 82.742 147.211 84.1688C146.747 85.2698 147.062 86.693 147.882 87.1185C148.296 87.3685 149.112 87.5128 149.805 87.6546C153.541 88.3758 157.034 86.693 160.177 84.7493C173.6 76.8477 185.812 67.0505 196.437 55.6606H196.431ZM197.633 56.7713C186.959 68.3422 174.672 78.313 161.152 86.3757C158.406 88.0465 155.357 89.698 152.003 89.7569C150.174 89.7389 148.697 89.6511 146.912 88.8434C145.054 87.8097 144.598 85.3155 145.33 83.462C145.976 81.7792 147.153 80.5892 148.36 79.3631C149.33 78.4135 151.045 77.2247 152.123 76.3581C162.023 68.8215 172.752 62.1996 181.528 53.3888C183.744 51.1374 186.025 49.0243 187.987 46.7104C192.04 42.1428 193.688 36.1015 193.98 30.083C194.155 27.1585 193.771 24.2989 191.801 22.0571C187.847 17.6253 181.889 15.0939 176.019 14.5398C169.901 13.8185 164.136 16.0098 159.348 19.7974C155.677 22.5992 152.581 26.0538 149.68 29.643L148.199 31.4605C147.582 32.2226 146.803 33.0423 145.646 33.1301C144.511 33.1625 143.891 32.7238 142.967 32.3752C141.412 31.7454 139.721 30.6732 138.913 29.1118C138.097 27.6693 137.779 26.1704 137.021 24.7845C135.978 22.8284 134.512 21.1287 132.731 19.8082C125.315 14.1635 114.737 15.7129 107.044 20.0762C92.1875 28.4567 92.5 45.0108 101.591 57.7509C102.151 58.3621 102.908 58.7558 103.73 58.8628C103.154 61.5404 102.22 64.1286 100.955 66.5581C100.197 68.0178 99.3183 69.4117 98.3286 70.7254C97.1746 72.5104 95.261 73.1679 94.0254 70.937C93.3859 69.753 92.2392 66.7913 91.667 65.5279C88.6404 58.3159 85.223 51.1759 84.0595 43.3424C82.7481 34.248 84.7735 24.5766 89.9962 16.9738C93.922 11.6645 99.5306 7.67986 105.667 5.3143C110.565 3.4632 115.711 1.73832 121.053 2.0869C123.719 2.28042 126.289 2.96437 128.792 3.7C131.329 4.43017 133.791 5.40058 136.144 6.59805C139.102 8.10143 141.757 10.1391 143.974 12.6081C144.575 13.1671 145.02 13.4724 145.57 12.667L146.222 11.9109C161.023 -4.19603 190.9 -4.3018 204.329 13.6406C209.175 20.0882 211.044 28.5132 209.441 36.4092C208.096 44.3425 202.937 51.0509 197.634 56.7593L197.633 56.7713Z" fill="#FE5122"/>
<path d="M112.079 90.2099C113.427 91.5814 114.78 92.9577 116.298 94.1381C118.487 95.8389 120.978 97.101 123.478 98.297C128.094 100.506 132.794 102.523 137.579 104.348C139.328 105.015 141.092 105.658 142.916 106.078C144.767 106.504 146.663 106.697 148.552 106.888C152.831 107.322 157.119 107.757 161.42 107.777C162.732 107.785 164.271 107.629 164.956 106.51C165.418 105.757 165.325 104.796 165.16 103.927C164.282 99.2611 161.851 95.0504 159.357 91.0104C158.439 89.5211 157.488 88.0198 156.186 86.8503C153.224 84.1926 149.148 83.6818 145.426 82.8836C141.261 81.9917 137.139 80.5169 133.204 78.9062C125.144 75.6113 117.622 71.1304 110.887 65.6119C110.156 65.0109 109.41 64.387 108.509 64.0986C105.667 63.1898 104.387 68.0376 103.489 70.0654C102.383 72.5595 100.938 76.0898 102.519 78.6934C105.138 83.0074 108.559 86.6315 112.079 90.2099Z" fill="#FDAB96"/>
<path d="M112.47 89.8287C113.666 91.0716 114.852 92.3036 116.15 93.3891C120.135 96.6345 125.02 98.5758 129.66 100.706C134.392 102.651 139.136 104.879 144.175 105.858C150.081 106.63 156.157 107.206 162.104 107.122C165.278 106.95 164.791 105.032 164.018 102.268C163.077 99.0493 161.438 96.0527 159.656 93.1391C158.747 91.6894 157.862 90.1833 156.859 88.9164C153.603 84.737 148.324 84.7466 143.354 83.4592C138.235 82.1563 133.362 80.2691 128.585 78.0826C123.846 75.8351 119.316 73.1693 115.05 70.1169C113.634 69.094 112.256 68.0206 110.907 66.9099C109.932 66.1527 109.164 65.292 108.088 64.9759C106.11 64.5035 104.758 69.6397 103.965 71.0629C102.971 73.3179 101.862 76.2183 103.191 78.4204C105.716 82.6563 109.049 86.2671 112.47 89.8287ZM111.691 90.5944C108.019 86.9102 104.238 83.0878 101.613 78.5262C100.237 75.419 101.733 72.1122 102.912 69.2262C103.867 66.7561 105.068 62.5262 108.508 63.114C109.965 63.4433 111.032 64.5011 112.158 65.3557C113.499 66.4099 114.869 67.428 116.273 68.3956C120.456 71.3435 124.892 73.915 129.529 76.0801C134.138 78.2437 138.955 80.1597 143.863 81.4555C150.584 83.0734 156.011 83.2068 159.782 90.0258C162.045 93.7713 164.274 97.5529 165.432 101.874C165.742 103.252 166.2 104.599 165.88 106.051C165.133 108.801 161.749 108.439 159.534 108.353C154.308 108.054 149.173 107.591 144.008 106.781C142.277 106.463 140.594 105.928 138.968 105.324C135.723 104.097 132.535 102.778 129.352 101.399C124.642 99.2248 119.66 97.3858 115.52 94.1512C114.146 93.0477 112.908 91.812 111.686 90.5944H111.691Z" fill="#FE5122"/>
<path d="M95.6789 29.2953C97.0168 29.8013 97.3966 31.4781 97.5817 32.9013C98.1286 37.0747 98.6768 41.2974 98.2212 45.4816C97.3353 53.6264 92.8278 60.6991 89.0667 67.7741C85.4029 74.6653 82.4989 82.0973 77.067 87.8814C75.5255 89.4972 73.8916 91.0223 72.1736 92.4491C70.9643 93.4732 69.7323 94.4704 68.4774 95.4409C65.9808 97.3725 63.4001 99.1972 60.9504 101.189C56.9344 104.455 53.2238 108.245 50.8955 112.868C48.5672 117.491 47.7487 123.047 49.5505 127.9C49.869 128.757 50.2873 129.615 50.9929 130.184C51.9689 130.974 53.3536 131.096 54.5737 130.8C55.7937 130.505 56.8864 129.839 57.9525 129.18C62.4601 126.381 66.8667 123.41 71.0713 120.179C75.4094 116.841 79.5215 113.223 83.6299 109.609C85.094 108.322 86.5605 107.031 87.8959 105.611C90.8048 102.52 93.0441 98.8714 95.2618 95.2521C99.0386 89.087 102.867 82.7993 104.624 75.7867C106.626 67.7994 110.374 60.7459 110.739 52.5206C111.167 42.9045 108.018 33.1682 102.04 25.6147C101.462 24.8851 100.796 24.135 99.8908 23.9187C98.7044 23.6362 97.4687 24.3995 96.8184 25.4308C96.1682 26.4621 95.8616 28.0933 95.6789 29.2953Z" fill="#FDAB96"/>
<path d="M96.306 28.9505C97.71 29.8088 98.0177 31.4471 98.2521 32.8703C98.4456 34.1829 98.6391 35.5003 98.8026 36.8273C99.1224 39.4802 99.3399 42.1871 99.1344 44.9169C98.5189 53.0906 94.271 60.3231 90.4799 67.3524C87.9557 72.0247 85.8654 76.9157 83.1308 81.5158C80.4467 86.1916 76.6075 90.2905 72.4196 93.6429C68.4446 97.0085 63.8301 100.065 59.9295 103.449C53.3064 109.051 47.669 117.774 50.2581 126.696C51.4866 131.538 54.8258 130.015 58.0243 127.906C67.0743 122.39 75.2456 115.785 83.1464 108.732C85.1514 106.991 87.0602 105.263 88.6889 103.26C90.3176 101.258 91.7829 99.0844 93.1832 96.8523C95.9611 92.3483 98.8182 87.8852 101.028 83.1493C103.374 78.3869 104.248 73.1149 106.09 68.1866C107.391 64.4376 108.714 60.7498 109.462 56.8733C110.657 50.4714 109.962 43.7978 107.868 37.6411C106.812 34.5508 105.386 31.5994 103.623 28.8508C102.599 27.4432 101.459 25.3373 100.049 24.5764L100.511 23.5078C101.927 24.1653 102.582 25.4118 103.49 26.5261C105.881 29.7903 107.779 33.3884 109.123 37.2048C111.834 44.8135 112.34 53.2985 110.07 61.096C108.675 66.2382 106.646 71.1268 105.382 76.2774C103.369 84.1181 98.8916 91.0429 94.7578 97.8355C93.3539 100.101 91.873 102.359 90.1601 104.468C88.4689 106.571 86.4459 108.435 84.4338 110.196C80.4671 113.709 76.4776 117.242 72.2694 120.533C68.0611 123.824 63.6365 126.833 59.1242 129.668C57.4414 130.736 55.3078 132.13 53.0588 131.976C48.7099 131.821 47.7928 126.583 47.5368 123.138C47.0175 111.554 56.1576 103.045 64.8061 96.8402C68.8929 93.7486 73.2683 90.4143 76.6964 86.6351C81.9095 80.8462 84.8629 73.2062 88.63 66.356C91.1314 61.7234 93.8527 57.2002 95.657 52.2732C97.5345 47.369 97.8819 42.1919 97.3398 36.9824C97.2196 35.6734 97.0741 34.3608 96.9251 33.0446C96.7929 31.9291 96.621 30.5937 95.7086 29.9506L96.3096 28.9505H96.306Z" fill="#FE5122"/>
<path d="M57.8514 119.365C58.4439 118.639 57.8282 117.156 56.4762 116.053C55.1242 114.951 53.548 114.646 52.9555 115.372C52.3631 116.099 52.9788 117.581 54.3308 118.684C55.6827 119.787 57.259 120.092 57.8514 119.365Z" fill="#FE5122"/>
<path d="M150.58 94.9787C151.683 93.6267 151.988 92.0505 151.261 91.458C150.535 90.8656 149.052 91.4813 147.95 92.8333C146.847 94.1853 146.542 95.7615 147.268 96.354C147.995 96.9464 149.478 96.3307 150.58 94.9787Z" fill="#FE5122"/>
<path d="M78.8366 108.87C71.3925 114.734 64.6096 121.885 55.6546 125.457L53.8516 126.093C63.4232 122.347 70.5163 114.616 78.833 108.867L78.8366 108.87Z" fill="#FE5122"/>
<path d="M11.3317 63.8876C16.0196 55.3533 24.0226 46.9476 34.4621 47.14C35.889 47.171 37.3047 47.3991 38.6691 47.8179C35.9045 47.1472 33.004 47.2373 30.2707 47.8996C21.8097 49.8817 15.8465 56.8739 11.3281 63.8864L11.3317 63.8876Z" fill="#FE5122"/>
<path d="M105.829 13.1562C99.1881 19.1663 92.7729 28.2523 92.0457 37.3804C91.8954 38.7327 91.8209 40.0946 91.7188 41.4552C91.7296 38.7315 91.7861 35.9849 92.3558 33.29C94.2634 25.4577 99.5811 18.1362 105.829 13.1562Z" fill="#FE5122"/>
<path d="M142.625 23.2709C150.654 13.4492 162.699 9.29389 175.156 10.3601C176.883 10.4755 178.606 10.6357 180.325 10.8409C176.874 10.6281 173.418 10.4454 169.974 10.6005C159.613 10.8745 149.54 15.548 142.626 23.2733L142.625 23.2709Z" fill="#FE5122"/>
<path d="M187.313 60.4531C186.146 62.3235 185.149 64.3837 183.484 65.8826C181.229 67.7253 178.584 69.2242 176.138 70.8109C175.506 71.1883 174.883 71.5778 174.242 71.9432C174.825 71.4924 175.425 71.0657 176.015 70.6209L177.818 69.3444C180.121 67.5883 182.899 66.3165 184.698 63.9979C185.59 62.8403 186.414 61.6095 187.316 60.4531H187.313Z" fill="#FE5122"/>
<path d="M165.274 74.2634C163.321 75.3332 161.893 77.0929 160.098 78.3887C158.346 79.7553 156.475 80.9621 154.508 81.9947C156.09 80.8348 158.303 79.2205 159.822 78.0281C161.612 76.7552 163.167 75.0122 165.274 74.2598V74.2634Z" fill="#FE5122"/>
<path d="M118.164 91.5521C124.469 94.5452 130.802 97.6536 137.663 99.1248C142.784 100.217 147.93 101.364 153.143 101.889C154.884 102.06 156.635 102.103 158.382 102.019C156.635 102.19 154.878 102.221 153.126 102.111C147.873 101.736 142.709 100.627 137.562 99.5587C130.679 98.031 124.326 94.8709 118.164 91.5449V91.5521Z" fill="#FE5122"/>
<path d="M137.26 114.187L136.875 113.947C137.648 112.689 138.402 111.394 139.116 110.1C139.212 109.926 139.208 109.836 139.196 109.825L139.507 109.498C139.619 109.604 139.768 109.851 139.507 110.318C138.793 111.622 138.036 112.923 137.26 114.187Z" fill="#FE5122"/>
<path d="M130.147 111.152L129.852 110.811C131.621 109.281 133.577 107.981 135.672 106.941L135.872 107.345C133.812 108.369 131.888 109.648 130.147 111.152Z" fill="#FE5122"/>
<path d="M127.942 123.447L127.594 123.172C128.916 121.497 130.446 118.917 130.177 116.15L130.626 116.105C130.904 119.019 129.321 121.706 127.942 123.447Z" fill="#FE5122"/>
<path d="M123.638 121.871H123.188C123.221 119.357 124.204 116.949 125.94 115.131L126.266 115.443C124.61 117.177 123.671 119.473 123.638 121.871Z" fill="#FE5122"/>
<path d="M124.322 128.88C124.178 128.23 123.635 127.636 122.87 127.291C122.149 126.969 121.344 126.878 120.562 126.79L120.612 126.342C121.429 126.433 122.274 126.529 123.055 126.88C123.95 127.283 124.588 127.993 124.764 128.783L124.322 128.88Z" fill="#FE5122"/>
<path d="M115.756 132.067C115.402 131.887 115.004 131.429 115.111 130.274C115.347 127.77 116.248 125.374 117.721 123.336L118.082 123.6C116.656 125.574 115.785 127.892 115.557 130.316C115.512 130.815 115.543 131.453 115.958 131.666L115.756 132.067Z" fill="#FE5122"/>
<path d="M105.122 137.585C104.391 136.43 104.676 134.995 105.187 134.036C105.758 132.964 106.699 132.121 107.528 131.377L107.83 131.714C106.989 132.467 106.118 133.246 105.585 134.247C105.018 135.312 104.984 136.531 105.504 137.344L105.122 137.585Z" fill="#FE5122"/>
<path d="M106.154 140.456L106.148 140.006C107.28 139.989 108.116 139.802 108.781 139.417C109.605 138.936 110.121 138.116 110.096 137.319L110.547 137.305C110.578 138.266 109.974 139.248 109.007 139.807C108.272 140.233 107.366 140.44 106.154 140.456Z" fill="#FE5122"/>
<path d="M98.4855 129.183L96.3928 128.481C95.96 128.336 95.5129 128.186 95.0706 128.162C94.4912 128.128 93.9323 128.3 93.3397 128.48C92.8168 128.639 92.2747 128.802 91.7109 128.823L91.6953 128.372C92.2002 128.354 92.6906 128.206 93.2086 128.049C93.8096 127.865 94.4347 127.677 95.0946 127.711C95.6043 127.739 96.0815 127.898 96.543 128.054L98.6345 128.756L98.4855 129.183Z" fill="#FE5122"/>
<path d="M78.4652 126.847L78.3125 126.418C80.1648 125.766 82.0123 125.032 83.8045 124.236L83.9884 124.649C82.1878 125.456 80.3283 126.191 78.4652 126.847Z" fill="#FE5122"/>
<path d="M82.0721 132.494L81.8594 132.097C83.1888 131.389 84.5134 130.586 84.856 129.26L85.2935 129.373C84.9041 130.876 83.4268 131.773 82.0721 132.494Z" fill="#FE5122"/>
<path d="M90.735 133.771L90.6641 133.325C92.3634 133.055 94.0316 132.616 95.644 132.016L95.8015 132.439C94.161 133.05 92.4638 133.496 90.735 133.771Z" fill="#FE5122"/>
<path d="M76.2389 129.041C74.8688 128.234 73.5401 127.358 72.2578 126.417L72.5235 126.057C73.788 126.981 75.115 127.86 76.4685 128.651L76.2389 129.041Z" fill="#FE5122"/>
<path d="M81.6162 122.981C80.4332 122.556 79.3567 121.879 78.4609 120.997L78.7783 120.676C79.627 121.512 80.6469 122.153 81.7677 122.557L81.6162 122.981Z" fill="#FE5122"/>
</svg>
