<svg width="108" height="168" viewBox="0 0 108 168" fill="none" xmlns="http://www.w3.org/2000/svg">
<path d="M26.4133 4.59274L25.5 2.54457L24.5867 4.59274L13.1525 30.2348L-8.34819 12.0598L-10.0649 10.6086L-9.99325 12.8553L-9.09927 40.8809L-36.4038 33.7765L-38.5909 33.2075L-37.5412 35.2088L-24.5014 60.0688L-52.1971 65.4391L-54.4253 65.8712L-52.6028 67.2238L-29.9994 84L-52.6028 100.776L-54.4253 102.129L-52.1971 102.561L-24.5014 107.931L-37.5412 132.791L-38.5909 134.793L-36.4038 134.223L-9.09927 127.119L-9.99325 155.145L-10.0649 157.391L-8.34819 155.94L13.1525 137.765L24.5867 163.407L25.5 165.455L26.4133 163.407L37.8475 137.765L59.3482 155.94L61.0649 157.391L60.9932 155.145L60.0993 127.119L87.4038 134.223L89.5909 134.793L88.5412 132.791L75.5014 107.931L103.197 102.561L105.425 102.129L103.603 100.776L80.9994 84L103.603 67.2238L105.425 65.8712L103.197 65.4391L75.5014 60.0688L88.5412 35.2088L89.5909 33.2075L87.4038 33.7765L60.0993 40.8809L60.9932 12.8553L61.0649 10.6086L59.3482 12.0598L37.8475 30.2348L26.4133 4.59274Z" stroke="#7F53E9" stroke-width="2"/>
</svg>
