<svg width="130" height="178" viewBox="0 0 130 178" fill="none" xmlns="http://www.w3.org/2000/svg">
<path d="M25.0128 88.4662L25.0128 88.4662C19.0147 103.611 11.4691 118.092 2.49874 131.68C0.71832 134.377 0.967081 137.933 3.1426 140.274L34.1321 173.627C37.7309 177.5 43.8437 177.557 47.5183 173.754C51.608 169.521 56.7951 164.165 61.6104 159.228L62.0619 158.765L62.6854 158.936C79.9574 163.685 92.1517 162.213 101.137 157.704C110.146 153.182 116.1 145.524 120.721 137.558L120.721 137.558C123.257 133.193 125.477 127.337 126.655 122.031C127.244 119.379 127.564 116.904 127.546 114.848C127.527 112.749 127.158 111.266 126.547 110.43L126.547 110.429C125.337 108.771 123.018 107.786 120.672 108.535C118.342 109.279 115.643 111.859 114.071 118.058C112.794 123.12 110.84 127.589 108.237 130.749C105.62 133.927 102.274 135.852 98.3087 135.549C96.4019 135.403 94.6074 134.875 93.0081 133.758C91.4108 132.643 90.0807 130.991 89.0191 128.711C86.9163 124.196 85.7999 117.07 85.7999 106.22C85.7999 95.2297 88.5009 87.3211 92.1452 82.1727C95.7637 77.0606 100.397 74.5827 104.214 74.7887C106.099 74.8904 107.696 75.5263 108.999 76.6541C110.286 77.7682 111.228 79.3105 111.914 81.1415C113.274 84.7774 113.71 89.7933 113.642 95.6336M25.0128 88.4662L112.546 95.621M25.0128 88.4662L25.0174 88.4544C31.0014 72.8192 33.0219 57.9846 34.553 46.7429C34.6052 46.3598 34.6568 45.9809 34.7079 45.6063C35.4893 39.8863 36.1604 35.2504 37.1905 31.9426C38.2405 28.5712 39.5091 27.078 41.1401 26.7982M25.0128 88.4662L41.1401 26.7982M113.642 95.6336L112.546 95.621M113.642 95.6336C113.642 95.6335 113.642 95.6334 113.642 95.6333L112.546 95.621M113.642 95.6336C113.606 98.828 114.196 101.319 115.352 103.015C116.47 104.655 118.197 105.67 120.765 105.797M112.546 95.621C112.478 101.657 114.546 105.821 119.27 106.723C119.513 106.618 119.758 106.526 120.005 106.447C120.251 106.369 120.497 106.304 120.742 106.251L120.762 105.797C120.763 105.797 120.764 105.797 120.765 105.797M120.765 105.797C123.042 105.899 124.272 105.348 125.047 104.603C125.875 103.807 126.356 102.635 126.816 101.117L126.817 101.116C128.673 95.0241 129.736 85.2489 128.087 76.0541C126.437 66.8548 122.129 58.4795 113.47 54.7358C104.8 50.9872 97.2147 53.678 91.6903 57.4143C88.9269 59.2832 86.7092 61.3974 85.1805 63.0487C84.4174 63.873 83.8295 64.5782 83.4345 65.0743C83.2371 65.3222 83.0881 65.5177 82.9897 65.6492C82.9406 65.715 82.9041 65.7648 82.8806 65.7972L82.8551 65.8326L82.8497 65.8402L82.8492 65.8408L82.8489 65.8413C82.8489 65.8413 82.8489 65.8413 82.8472 65.84L80.8673 65.066L81.9538 65.209C80.8673 65.066 80.8673 65.066 80.8673 65.0659L80.8674 65.0652L80.8678 65.0621L80.8695 65.0496L80.876 64.9992L80.9019 64.7989C80.9245 64.6222 80.9578 64.3601 81.0002 64.0199C81.0849 63.3396 81.2059 62.3472 81.3507 61.1009C81.6405 58.608 82.0254 55.1003 82.4062 51.0429C83.1684 42.9203 83.9108 32.6252 83.8441 23.863C83.7772 15.0825 82.9307 9.23607 81.6237 5.63878C80.3094 2.02148 78.7001 1.05265 77.2548 1.09744C76.2328 1.12911 75.3489 1.25553 74.5432 1.64936C73.7556 2.0343 72.9491 2.72164 72.1768 4.03628C70.5903 6.73692 69.2429 11.9142 68.5646 21.8274L66.3755 21.7674C66.3099 16.9175 65.3557 13.6555 64.0736 11.6798C62.8132 9.73772 61.2723 9.06713 59.8359 9.18198C58.3426 9.30138 56.6831 10.2917 55.3182 12.2426C53.9625 14.1803 52.9553 16.9991 52.7845 20.553L52.7844 20.5533C52.5728 24.9315 51.8795 30.4231 51.244 34.798C50.9255 36.9902 50.6202 38.9109 50.3945 40.2838C50.2816 40.9704 50.1886 41.5202 50.1237 41.8988C50.0912 42.0882 50.0658 42.2347 50.0485 42.3341L50.0287 42.4474L50.0235 42.4765L50.0222 42.484L50.0219 42.486L50.0218 42.4865C50.0217 42.4867 50.0217 42.4868 48.9426 42.2956L50.0217 42.4868L47.8487 42.3608C47.815 41.7947 47.7846 41.2114 47.7537 40.6176C47.5879 37.4343 47.4065 33.9487 46.6111 31.1849C46.1425 29.5566 45.4997 28.3349 44.6524 27.591C43.8579 26.8934 42.7737 26.5185 41.1401 26.7982M120.765 105.797C120.766 105.797 120.766 105.797 120.767 105.797L120.745 106.251M120.745 106.251L120.713 106.891C122.229 106.959 123.398 106.763 124.319 106.371C123.204 106.053 121.986 105.987 120.745 106.251ZM120.745 106.251L41.1401 26.7982M119.419 107.86C119.841 107.655 120.266 107.5 120.689 107.39C120.689 107.39 120.69 107.39 120.691 107.389C121.972 107.057 123.234 107.144 124.357 107.531C123.336 107.892 122.118 108.051 120.664 107.986L120.659 107.986C120.231 107.965 119.818 107.923 119.419 107.86ZM40.9548 25.7181C46.9335 24.6941 48.1908 31.0912 48.6535 37.2873L23.9939 88.0627C29.9318 72.5479 31.9378 57.8217 33.47 46.574C35.1045 34.5744 36.1998 26.5338 40.9548 25.7181Z" fill="#454FDB" stroke="#19154A" stroke-width="2.19178"/>
</svg>
