<svg width="123" height="163" viewBox="0 0 123 163" fill="none" xmlns="http://www.w3.org/2000/svg">
<path d="M56.8126 26.6667L77.8763 10.1169L78.0701 36.9038L78.0791 38.1392L79.2856 37.873L105.444 32.1013L93.9962 56.3196L93.4682 57.4366L94.6707 57.7202L120.743 63.8698L99.9209 80.7227L98.9605 81.5L99.9209 82.2773L120.743 99.1302L94.6707 105.28L93.4682 105.563L93.9962 106.68L105.444 130.899L79.2856 125.127L78.0791 124.861L78.0701 126.096L77.8763 152.883L56.8126 136.333L55.8411 135.57L55.297 136.679L43.5 160.729L31.703 136.679L31.1589 135.57L30.1874 136.333L9.1237 152.883L8.92988 126.096L8.92094 124.861L7.71445 125.127L-18.444 130.899L-6.99619 106.68L-6.46819 105.563L-7.6707 105.28L-33.7429 99.1302L-12.9209 82.2773L-11.9605 81.5L-12.9209 80.7227L-33.7429 63.8698L-7.6707 57.7202L-6.46819 57.4366L-6.99619 56.3196L-18.444 32.1013L7.71445 37.873L8.92094 38.1392L8.92988 36.9038L9.1237 10.1169L30.1874 26.6667L31.1589 27.43L31.703 26.3208L43.5 2.27071L55.297 26.3208L55.8411 27.43L56.8126 26.6667Z" stroke="#949AF6" stroke-width="2"/>
</svg>
