<svg width="165" height="168" viewBox="0 0 165 168" fill="none" xmlns="http://www.w3.org/2000/svg">
<path d="M83.4133 4.59274L82.5 2.54457L81.5867 4.59274L70.1525 30.2348L48.6518 12.0598L46.9351 10.6086L47.0067 12.8553L47.9007 40.8809L20.5962 33.7765L18.4091 33.2075L19.4588 35.2088L32.4986 60.0688L4.80287 65.4391L2.57474 65.8712L4.39725 67.2238L27.0006 84L4.39725 100.776L2.57474 102.129L4.80287 102.561L32.4986 107.931L19.4588 132.791L18.4091 134.793L20.5962 134.223L47.9007 127.119L47.0067 155.145L46.9351 157.391L48.6518 155.94L70.1525 137.765L81.5867 163.407L82.5 165.455L83.4133 163.407L94.8475 137.765L116.348 155.94L118.065 157.391L117.993 155.145L117.099 127.119L144.404 134.223L146.591 134.793L145.541 132.791L132.501 107.931L160.197 102.561L162.425 102.129L160.603 100.776L137.999 84L160.603 67.2238L162.425 65.8712L160.197 65.4391L132.501 60.0688L145.541 35.2088L146.591 33.2075L144.404 33.7765L117.099 40.8809L117.993 12.8553L118.065 10.6086L116.348 12.0598L94.8475 30.2348L83.4133 4.59274Z" stroke="#7F53E9" stroke-width="2"/>
</svg>
