<svg width="19" height="19" viewBox="0 0 19 19" fill="none" xmlns="http://www.w3.org/2000/svg">
<path d="M10.3147 18.7132C10.5122 18.5011 10.6639 18.2461 10.8525 18.0388C11.0412 17.8314 11.2979 17.6662 11.4696 17.4904C11.6412 17.3145 11.7777 16.9891 11.9596 16.7798C12.1415 16.5704 12.3046 16.3261 12.4886 16.11C12.6726 15.8939 12.9044 15.714 13.0816 15.4959C13.2588 15.2778 13.529 15.1167 13.6995 14.8966C13.87 14.6765 14.0264 14.4302 14.1989 14.2034C14.3714 13.9766 14.5622 13.7625 14.7259 13.5404C14.8896 13.3183 15.0366 13.0546 15.1957 12.8238C15.3547 12.5929 15.4383 12.2958 15.5906 12.0629C15.7429 11.8301 15.9991 11.6428 16.1446 11.4079C16.2901 11.1731 16.4122 10.8947 16.551 10.6578C16.6898 10.421 16.8436 10.1593 16.9756 9.92043C17.1077 9.68157 17.2432 9.40716 17.3685 9.1663C17.4938 8.92543 17.713 8.69054 17.8269 8.43895C17.9407 8.18736 17.9252 7.85336 18.0256 7.59776C18.126 7.34215 18.2865 7.08248 18.3713 6.82957C18.4561 6.57666 18.5418 6.27278 18.6199 6.01786C18.698 5.76294 18.7479 5.45573 18.7922 5.19077C18.8365 4.92582 18.9668 4.62056 18.9956 4.3583C19.0052 4.07329 18.9991 3.78806 18.9775 3.50385C18.9167 3.22932 18.8342 2.96005 18.7309 2.69852C18.6805 2.42697 18.6071 2.16025 18.5113 1.90121C18.4199 1.63128 18.2962 1.37333 18.143 1.13285C17.9402 0.931224 17.7112 0.757277 17.4621 0.61555C17.2484 0.431327 17.0118 0.274865 16.7581 0.149906C16.4819 0.0722022 16.1978 0.0245035 15.9109 0.00764018C15.6306 -0.00845871 15.3492 0.000938526 15.0704 0.0357203C14.7853 0.00153306 14.4976 -0.00813817 14.2106 0.00680988C13.9421 0.0660177 13.7115 0.29019 13.4401 0.407079C13.1701 0.488075 12.9071 0.590996 12.6539 0.714802C12.4181 0.876618 12.1939 1.05449 11.9829 1.24713C11.7376 1.40705 11.5023 1.58146 11.2781 1.76942C11.0973 1.98997 10.9305 2.22148 10.7787 2.4626C10.6219 2.69897 10.4823 2.94606 10.3609 3.20199C10.2632 3.34511 10.132 3.46269 9.97867 3.54458C9.82535 3.62647 9.65445 3.67023 9.48069 3.67209C9.31843 3.66571 9.16077 3.61791 9.02291 3.5333C8.88505 3.44869 8.77167 3.33014 8.69367 3.18907C8.52997 2.95555 8.35271 2.73173 8.16277 2.51874C8.00054 2.28572 7.82248 2.06401 7.62982 1.85513C7.41831 1.66703 7.193 1.49479 6.95573 1.33983C6.72878 1.17158 6.48987 1.01977 6.24086 0.885595C6.00876 0.723704 5.76558 0.577986 5.51308 0.449479C5.24346 0.357945 4.96615 0.290136 4.68435 0.246835C4.40464 0.198481 4.12098 0.175334 3.83683 0.177674C3.55562 0.131369 3.27037 0.112698 2.9852 0.121929C2.70916 0.169381 2.43888 0.246017 2.179 0.350526C1.91681 0.49213 1.67327 0.665556 1.45402 0.866793C1.22394 1.02231 1.01437 1.20588 0.830242 1.41317C0.659671 1.64189 0.515009 1.88852 0.398894 2.14855C0.32999 2.38579 0.280418 2.62806 0.250648 2.87301C0.147139 3.13948 0.0633659 3.41301 0 3.69143C0.0160277 3.97552 0.0473236 4.25848 0.0937576 4.53912C0.11631 4.80201 0.139453 5.08705 0.191632 5.3734C0.243812 5.65975 0.226461 5.93273 0.307684 6.2204C0.388906 6.50808 0.599512 6.70981 0.691591 6.98607C0.783669 7.26233 0.863729 7.50574 0.965193 7.79943C1.06666 8.09313 1.08921 8.35602 1.2118 8.60476C1.33439 8.85351 1.58021 9.03643 1.73448 9.30192C1.88876 9.56741 1.90925 9.83701 2.05414 10.0851C2.19903 10.3331 2.38734 10.5355 2.57271 10.7956C2.75808 11.0557 2.80704 11.3045 2.96748 11.5499C3.12792 11.7953 3.31154 11.989 3.49427 12.2336C3.677 12.4783 3.80107 12.6982 3.97236 12.9322C4.14365 13.1661 4.31642 13.3712 4.50326 13.6025C4.6901 13.8338 4.88458 14.0161 5.04648 14.2326C5.20839 14.4491 5.38849 14.6783 5.57738 14.9029C5.76628 15.1275 5.84281 15.4064 6.03376 15.6243C6.22471 15.8421 6.4849 15.9781 6.6691 16.1939C6.85331 16.4097 6.98734 16.6692 7.19384 16.8843C7.40034 17.0995 7.53584 17.3301 7.72885 17.5413C7.92185 17.7524 8.09725 17.9729 8.27207 18.1713C8.44689 18.3697 8.68391 18.5574 8.88366 18.7705C9.09604 18.9403 9.36711 19.021 9.63934 18.9953C9.89112 18.9857 10.1312 18.8854 10.3147 18.7132Z" fill="white"/>
</svg>
