<svg width="42" height="42" viewBox="0 0 42 42" fill="none" xmlns="http://www.w3.org/2000/svg">
<path d="M21 0L24.6872 2.46316L29.0364 1.59853L31.5003 5.28522L35.8492 6.15076L36.7148 10.4997L40.4015 12.9636L39.5368 17.3128L42 21L39.5368 24.6872L40.4015 29.0364L36.7148 31.5003L35.8492 35.8492L31.5003 36.7148L29.0364 40.4015L24.6872 39.5368L21 42L17.3128 39.5368L12.9636 40.4015L10.4997 36.7148L6.15076 35.8492L5.28522 31.5003L1.59853 29.0364L2.46316 24.6872L0 21L2.46316 17.3128L1.59853 12.9636L5.28522 10.4997L6.15076 6.15076L10.4997 5.28522L12.9636 1.59853L17.3128 2.46316L21 0Z" fill="#F83D5E"/>
<path opacity="0.7" fill-rule="evenodd" clip-rule="evenodd" d="M9 11C7.89543 11 7 11.8954 7 13V20.25C7 21.3546 7.89543 22.25 9 22.25H10.7496V26L15.9996 22.25H23C24.1046 22.25 25 21.3546 25 20.25V13C25 11.8954 24.1046 11 23 11H9Z" fill="#EFC4D1"/>
<path fill-rule="evenodd" clip-rule="evenodd" d="M32 18C33.1046 18 34 18.8954 34 20V27.25C34 28.3546 33.1046 29.25 32 29.25H30.2504V33L25.0004 29.25H18C16.8954 29.25 16 28.3546 16 27.25V20C16 18.8954 16.8954 18 18 18H32Z" fill="#EFC4D1"/>
</svg>
