<svg width="30" height="28" viewBox="0 0 30 28" fill="none" xmlns="http://www.w3.org/2000/svg">
<path d="M15.1448 0.441406C16.3361 0.441406 20.3847 0.77585 22.291 5.04588C22.9264 6.4867 22.7755 8.92542 22.6489 10.8887V10.9592C22.6345 11.1761 22.6209 11.3786 22.611 11.5757C22.7005 11.6272 22.8559 11.6841 23.0955 11.6841C23.4534 11.6651 23.8864 11.5386 24.3383 11.3217C24.5363 11.2132 24.7523 11.1942 24.8988 11.1942C25.1157 11.1942 25.3317 11.2322 25.5107 11.3027C26.0521 11.4817 26.3956 11.8821 26.3956 12.3151C26.4146 12.8565 25.9247 13.3274 24.9313 13.7224C24.8273 13.755 24.6818 13.8119 24.5173 13.8634C23.9759 14.0279 23.147 14.2964 22.912 14.8424C22.8035 15.1108 22.8415 15.4733 23.0575 15.8873L23.0765 15.9063C23.147 16.0708 24.9123 20.0913 28.8479 20.7412C29.1588 20.7982 29.3749 21.0657 29.3568 21.3577C29.3562 21.4501 29.3368 21.5414 29.2999 21.6261C29.0124 22.3131 27.765 22.8175 25.5098 23.161C25.4393 23.2694 25.3643 23.6129 25.3118 23.8479C25.2718 24.0721 25.2184 24.2936 25.1518 24.5114C25.0578 24.8359 24.8219 25.0013 24.4784 25.0013H24.4459C24.2814 25.0013 24.069 24.9633 23.796 24.9118C23.2916 24.8031 22.7771 24.7479 22.2612 24.7473C21.8987 24.7473 21.5408 24.7663 21.1593 24.8368C20.4389 24.9643 19.808 25.3972 19.0831 25.9052C18.0571 26.6256 16.8848 27.4545 15.114 27.4545C15.0435 27.4545 14.973 27.4355 14.8971 27.4355H14.7181C12.9483 27.4355 11.7949 26.6256 10.7635 25.8862C10.0431 25.3773 9.4312 24.9444 8.70627 24.8178C8.33687 24.7632 7.96423 24.7333 7.59085 24.7283C6.94095 24.7283 6.43747 24.8368 6.05603 24.9118C5.84268 24.962 5.62508 24.9919 5.40612 25.0013C4.95417 25.0013 4.7752 24.7283 4.70469 24.4924C4.62967 24.2619 4.59623 24.0215 4.54018 23.81C4.48324 23.593 4.41273 23.2125 4.34223 23.123C2.03095 22.8545 0.788091 22.3511 0.496131 21.6451C0.456374 21.5594 0.43395 21.4666 0.430146 21.3721C0.424379 21.2253 0.473186 21.0815 0.567155 20.9685C0.661124 20.8555 0.793601 20.7813 0.939042 20.7602C4.87011 20.1103 6.63995 16.0852 6.71045 15.9162L6.72943 15.8837C6.94637 15.4642 7.00241 15.1072 6.87496 14.8342C6.63995 14.3118 5.81107 14.0433 5.26963 13.8598C5.12627 13.8242 4.98601 13.777 4.85022 13.7188C3.51787 13.1918 3.33438 12.598 3.4094 12.184C3.51787 11.6046 4.2193 11.2286 4.81678 11.2286C4.99123 11.2286 5.14128 11.2611 5.27777 11.3181C5.78124 11.5485 6.22867 11.676 6.61012 11.676C6.88762 11.676 7.07111 11.6055 7.17054 11.554L7.11359 10.867C6.99608 8.90825 6.84061 6.465 7.48058 5.03865C9.33538 0.7876 13.3704 0.462196 14.5608 0.462196L15.0643 0.443214L15.1448 0.441406Z" fill="white"/>
</svg>
