<svg width="32" height="26" viewBox="0 0 32 26" fill="none" xmlns="http://www.w3.org/2000/svg">
<path d="M31.0657 3.59335C29.956 4.08506 28.764 4.4173 27.5108 4.56747C28.8038 3.79374 29.7712 2.57599 30.2325 1.14144C29.0176 1.86305 27.688 2.37098 26.3014 2.64315C25.369 1.64759 24.134 0.987716 22.7881 0.765978C21.4422 0.544241 20.0608 0.773045 18.8583 1.41687C17.6558 2.06069 16.6995 3.08351 16.1378 4.32653C15.5762 5.56955 15.4407 6.96323 15.7522 8.29118C13.2906 8.16758 10.8825 7.52776 8.68414 6.41325C6.48579 5.29873 4.54635 3.73443 2.99169 1.82186C2.46011 2.73884 2.15445 3.80199 2.15445 4.93426C2.15386 5.95355 2.40487 6.95724 2.88521 7.85626C3.36556 8.75528 4.06038 9.52183 4.90803 10.0879C3.92498 10.0566 2.96361 9.79101 2.10395 9.31314V9.39287C2.10385 10.8225 2.59837 12.2081 3.50358 13.3146C4.40879 14.4211 5.66895 15.1803 7.07023 15.4635C6.15828 15.7103 5.20218 15.7467 4.27412 15.5698C4.66948 16.7999 5.43961 17.8756 6.47668 18.6462C7.51375 19.4169 8.76586 19.844 10.0577 19.8676C7.86472 21.5892 5.1564 22.523 2.36841 22.5189C1.87455 22.519 1.38111 22.4902 0.890625 22.4325C3.72059 24.2521 7.01487 25.2177 10.3793 25.214C21.7684 25.214 27.9945 15.7811 27.9945 7.60013C27.9945 7.33434 27.9879 7.06589 27.9759 6.8001C29.187 5.92429 30.2323 4.83976 31.063 3.59734L31.0657 3.59335Z" fill="white"/>
</svg>
