<svg width="28" height="28" viewBox="0 0 28 28" fill="none" xmlns="http://www.w3.org/2000/svg">
<path d="M8.1574 0.0820312C3.69843 0.0820312 0.0703125 3.71229 0.0703125 8.17237V19.7272C0.0703125 24.1867 3.70057 27.8154 8.16065 27.8154H19.7155C24.175 27.8154 27.8036 24.1851 27.8036 19.725V8.16912C27.8036 3.71015 24.1734 0.0820312 19.7133 0.0820312H8.1574ZM22.257 4.51937C22.8693 4.51937 23.3663 5.01635 23.3663 5.6287C23.3663 6.24105 22.8693 6.73803 22.257 6.73803C21.6446 6.73803 21.1476 6.24105 21.1476 5.6287C21.1476 5.01635 21.6446 4.51937 22.257 4.51937ZM13.937 6.73803C17.9139 6.73803 21.1476 9.97174 21.1476 13.9487C21.1476 17.9257 17.9134 21.1594 13.937 21.1594C9.96002 21.1594 6.72631 17.9251 6.72631 13.9487C6.72631 9.97229 9.96002 6.73803 13.937 6.73803ZM13.937 8.9567C11.1797 8.9567 8.94498 11.1915 8.94498 13.9487C8.94498 16.7059 11.1797 18.9407 13.937 18.9407C16.6942 18.9407 18.929 16.7059 18.929 13.9487C18.929 11.1915 16.6942 8.9567 13.937 8.9567Z" fill="white"/>
</svg>
