<svg width="32" height="32" viewBox="0 0 32 32" fill="none" xmlns="http://www.w3.org/2000/svg">
<g clip-path="url(#clip0_6996_21110)">
<path fill-rule="evenodd" clip-rule="evenodd" d="M24.5125 29.3722C24.9419 29.6762 25.4952 29.7522 25.9885 29.5655C26.4819 29.3775 26.8445 28.9562 26.9539 28.4455C28.1125 23.0002 30.9232 9.21753 31.9779 4.2642C32.0579 3.89086 31.9245 3.50286 31.6312 3.25353C31.3379 3.0042 30.9312 2.9322 30.5685 3.06686C24.9779 5.1362 7.76053 11.5962 0.723197 14.2002C0.27653 14.3655 -0.0141362 14.7949 0.000530472 15.2655C0.0165305 15.7375 0.333864 16.1469 0.791197 16.2842C3.9472 17.2282 8.08986 18.5415 8.08986 18.5415C8.08986 18.5415 10.0259 24.3882 11.0352 27.3615C11.1619 27.7349 11.4539 28.0282 11.8392 28.1295C12.2232 28.2295 12.6339 28.1242 12.9205 27.8535C14.5419 26.3229 17.0485 23.9562 17.0485 23.9562C17.0485 23.9562 21.8112 27.4482 24.5125 29.3722ZM9.83253 17.8029L12.0712 25.1869L12.5685 20.5109C12.5685 20.5109 21.2179 12.7095 26.1485 8.26286C26.2925 8.1322 26.3125 7.91353 26.1925 7.7602C26.0739 7.60686 25.8552 7.57086 25.6912 7.67486C19.9765 11.3242 9.83253 17.8029 9.83253 17.8029Z" fill="#652FEB"/>
</g>
<defs>
<clipPath id="clip0_6996_21110">
<rect width="32" height="32" fill="white"/>
</clipPath>
</defs>
</svg>
